<?xml version="1.0" standalone="no"?>
 <!DOCTYPE svg PUBLIC "-//W3C//DTD SVG 1.1//EN" 
 "http://www.w3.org/Graphics/SVG/1.1/DTD/svg11.dtd"> 
<svg
  xmlns:svg="http://www.w3.org/2000/svg"
  xmlns="http://www.w3.org/2000/svg"
  xmlns:xlink="http://www.w3.org/1999/xlink"
  version="1.1"
  width="297.0022mm" height="210.0072mm" viewBox="0.0000 0.0000 297.0022 210.0072">
<title>SVG Image created as Button MIDI Controller-B_Mask.svg date 2025/06/01 17:28:51 </title>
  <desc>Image generated by PCBNEW </desc>
<g style="fill:#000000; fill-opacity:1.0000;stroke:#000000; stroke-opacity:1.0000;
stroke-linecap:round; stroke-linejoin:round;"
 transform="translate(0 0) scale(1 1)">
</g>
<g style="fill:none; 
stroke:#000000; stroke-width:1.5000; stroke-opacity:1; 
stroke-linecap:round; stroke-linejoin:round;">
<path d="M-180.8000 -272.0500
L-180.8000 -269.7500
" />
<path d="M-184.9000 -277.0500
L-184.9000 -274.7500
" />
<path d="M-211.1000 -120.5500
L-211.1000 -118.2500
" />
<path d="M-215.2000 -125.5500
L-215.2000 -123.2500
" />
<path d="M-120.2000 -241.7500
L-120.2000 -239.4500
" />
<path d="M-124.3000 -246.7500
L-124.3000 -244.4500
" />
<path d="M-180.8000 -302.3500
L-180.8000 -300.0500
" />
<path d="M-184.9000 -307.3500
L-184.9000 -305.0500
" />
<path d="M-241.4000 -302.3500
L-241.4000 -300.0500
" />
<path d="M-245.5000 -307.3500
L-245.5000 -305.0500
" />
<path d="M-120.2000 -150.8500
L-120.2000 -148.5500
" />
<path d="M-124.3000 -155.8500
L-124.3000 -153.5500
" />
<path d="M-89.9000 -120.5500
L-89.9000 -118.2500
" />
<path d="M-94.0000 -125.5500
L-94.0000 -123.2500
" />
<path d="M-59.6000 -120.5500
L-59.6000 -118.2500
" />
<path d="M-63.7000 -125.5500
L-63.7000 -123.2500
" />
<path d="M-59.6000 -150.8500
L-59.6000 -148.5500
" />
<path d="M-63.7000 -155.8500
L-63.7000 -153.5500
" />
<path d="M-59.6000 -181.1500
L-59.6000 -178.8500
" />
<path d="M-63.7000 -186.1500
L-63.7000 -183.8500
" />
<path d="M-89.9000 -150.8500
L-89.9000 -148.5500
" />
<path d="M-94.0000 -155.8500
L-94.0000 -153.5500
" />
<path d="M-241.4000 -150.8500
L-241.4000 -148.5500
" />
<path d="M-245.5000 -155.8500
L-245.5000 -153.5500
" />
<path d="M-150.5000 -120.5500
L-150.5000 -118.2500
" />
<path d="M-154.6000 -125.5500
L-154.6000 -123.2500
" />
<path d="M-120.2000 -181.1500
L-120.2000 -178.8500
" />
<path d="M-124.3000 -186.1500
L-124.3000 -183.8500
" />
<path d="M-150.5000 -181.1500
L-150.5000 -178.8500
" />
<path d="M-154.6000 -186.1500
L-154.6000 -183.8500
" />
<path d="M-150.5000 -90.2500
L-150.5000 -87.9500
" />
<path d="M-154.6000 -95.2500
L-154.6000 -92.9500
" />
<path d="M-180.8000 -120.5500
L-180.8000 -118.2500
" />
<path d="M-184.9000 -125.5500
L-184.9000 -123.2500
" />
<path d="M-241.4000 -120.5500
L-241.4000 -118.2500
" />
<path d="M-245.5000 -125.5500
L-245.5000 -123.2500
" />
<path d="M-120.2000 -272.0500
L-120.2000 -269.7500
" />
<path d="M-124.3000 -277.0500
L-124.3000 -274.7500
" />
<path d="M-59.6000 -302.3500
L-59.6000 -300.0500
" />
<path d="M-63.7000 -307.3500
L-63.7000 -305.0500
" />
<path d="M-150.5000 -150.8500
L-150.5000 -148.5500
" />
<path d="M-154.6000 -155.8500
L-154.6000 -153.5500
" />
<path d="M-150.5000 -302.3500
L-150.5000 -300.0500
" />
<path d="M-154.6000 -307.3500
L-154.6000 -305.0500
" />
<path d="M-120.2000 -302.3500
L-120.2000 -300.0500
" />
<path d="M-124.3000 -307.3500
L-124.3000 -305.0500
" />
<path d="M-271.7000 -90.2500
L-271.7000 -87.9500
" />
<path d="M-275.8000 -95.2500
L-275.8000 -92.9500
" />
<path d="M-271.7000 -241.7500
L-271.7000 -239.4500
" />
<path d="M-275.8000 -246.7500
L-275.8000 -244.4500
" />
<path d="M-89.9000 -272.0500
L-89.9000 -269.7500
" />
<path d="M-94.0000 -277.0500
L-94.0000 -274.7500
" />
<path d="M-180.8000 -181.1500
L-180.8000 -178.8500
" />
<path d="M-184.9000 -186.1500
L-184.9000 -183.8500
" />
<path d="M-150.5000 -211.4500
L-150.5000 -209.1500
" />
<path d="M-154.6000 -216.4500
L-154.6000 -214.1500
" />
<path d="M-59.6000 -90.2500
L-59.6000 -87.9500
" />
<path d="M-63.7000 -95.2500
L-63.7000 -92.9500
" />
<path d="M-150.5000 -241.7500
L-150.5000 -239.4500
" />
<path d="M-154.6000 -246.7500
L-154.6000 -244.4500
" />
<path d="M-241.4000 -241.7500
L-241.4000 -239.4500
" />
<path d="M-245.5000 -246.7500
L-245.5000 -244.4500
" />
<path d="M-150.5000 -272.0500
L-150.5000 -269.7500
" />
<path d="M-154.6000 -277.0500
L-154.6000 -274.7500
" />
<path d="M-89.9000 -241.7500
L-89.9000 -239.4500
" />
<path d="M-94.0000 -246.7500
L-94.0000 -244.4500
" />
<path d="M-211.1000 -150.8500
L-211.1000 -148.5500
" />
<path d="M-215.2000 -155.8500
L-215.2000 -153.5500
" />
<path d="M-211.1000 -181.1500
L-211.1000 -178.8500
" />
<path d="M-215.2000 -186.1500
L-215.2000 -183.8500
" />
<path d="M-59.6000 -241.7500
L-59.6000 -239.4500
" />
<path d="M-63.7000 -246.7500
L-63.7000 -244.4500
" />
<path d="M-120.2000 -90.2500
L-120.2000 -87.9500
" />
<path d="M-124.3000 -95.2500
L-124.3000 -92.9500
" />
<path d="M-241.4000 -181.1500
L-241.4000 -178.8500
" />
<path d="M-245.5000 -186.1500
L-245.5000 -183.8500
" />
<path d="M-271.7000 -120.5500
L-271.7000 -118.2500
" />
<path d="M-275.8000 -125.5500
L-275.8000 -123.2500
" />
<path d="M-211.1000 -241.7500
L-211.1000 -239.4500
" />
<path d="M-215.2000 -246.7500
L-215.2000 -244.4500
" />
<path d="M-211.1000 -302.3500
L-211.1000 -300.0500
" />
<path d="M-215.2000 -307.3500
L-215.2000 -305.0500
" />
<path d="M-271.7000 -302.3500
L-271.7000 -300.0500
" />
<path d="M-275.8000 -307.3500
L-275.8000 -305.0500
" />
<path d="M-59.6000 -211.4500
L-59.6000 -209.1500
" />
<path d="M-63.7000 -216.4500
L-63.7000 -214.1500
" />
<path d="M-271.7000 -272.0500
L-271.7000 -269.7500
" />
<path d="M-275.8000 -277.0500
L-275.8000 -274.7500
" />
<path d="M-180.8000 -90.2500
L-180.8000 -87.9500
" />
<path d="M-184.9000 -95.2500
L-184.9000 -92.9500
" />
<path d="M-211.1000 -211.4500
L-211.1000 -209.1500
" />
<path d="M-215.2000 -216.4500
L-215.2000 -214.1500
" />
<path d="M-120.2000 -120.5500
L-120.2000 -118.2500
" />
<path d="M-124.3000 -125.5500
L-124.3000 -123.2500
" />
<path d="M-241.4000 -90.2500
L-241.4000 -87.9500
" />
<path d="M-245.5000 -95.2500
L-245.5000 -92.9500
" />
<path d="M-271.7000 -181.1500
L-271.7000 -178.8500
" />
<path d="M-275.8000 -186.1500
L-275.8000 -183.8500
" />
<path d="M-59.6000 -272.0500
L-59.6000 -269.7500
" />
<path d="M-63.7000 -277.0500
L-63.7000 -274.7500
" />
<path d="M-120.2000 -211.4500
L-120.2000 -209.1500
" />
<path d="M-124.3000 -216.4500
L-124.3000 -214.1500
" />
<path d="M-89.9000 -302.3500
L-89.9000 -300.0500
" />
<path d="M-94.0000 -307.3500
L-94.0000 -305.0500
" />
<path d="M-180.8000 -211.4500
L-180.8000 -209.1500
" />
<path d="M-184.9000 -216.4500
L-184.9000 -214.1500
" />
<path d="M-241.4000 -211.4500
L-241.4000 -209.1500
" />
<path d="M-245.5000 -216.4500
L-245.5000 -214.1500
" />
<path d="M-89.9000 -90.2500
L-89.9000 -87.9500
" />
<path d="M-94.0000 -95.2500
L-94.0000 -92.9500
" />
<path d="M-180.8000 -150.8500
L-180.8000 -148.5500
" />
<path d="M-184.9000 -155.8500
L-184.9000 -153.5500
" />
<path d="M-89.9000 -181.1500
L-89.9000 -178.8500
" />
<path d="M-94.0000 -186.1500
L-94.0000 -183.8500
" />
<path d="M-180.8000 -241.7500
L-180.8000 -239.4500
" />
<path d="M-184.9000 -246.7500
L-184.9000 -244.4500
" />
<path d="M-271.7000 -211.4500
L-271.7000 -209.1500
" />
<path d="M-275.8000 -216.4500
L-275.8000 -214.1500
" />
<path d="M-211.1000 -90.2500
L-211.1000 -87.9500
" />
<path d="M-215.2000 -95.2500
L-215.2000 -92.9500
" />
<path d="M-271.7000 -150.8500
L-271.7000 -148.5500
" />
<path d="M-275.8000 -155.8500
L-275.8000 -153.5500
" />
<path d="M-89.9000 -211.4500
L-89.9000 -209.1500
" />
<path d="M-94.0000 -216.4500
L-94.0000 -214.1500
" />
<path d="M-241.4000 -272.0500
L-241.4000 -269.7500
" />
<path d="M-245.5000 -277.0500
L-245.5000 -274.7500
" />
<path d="M-211.1000 -272.0500
L-211.1000 -269.7500
" />
<path d="M-215.2000 -277.0500
L-215.2000 -274.7500
" />
</g>
<g style="fill:#000000; fill-opacity:1.0000; stroke:none;">
<circle cx="-50.7600" cy="-315.4200" r="2.3500" /> 
</g>
<g style="fill:#000000; fill-opacity:1.0000; stroke:none;">
<circle cx="-50.7600" cy="-315.4200" r="3.7500" /> 
</g>
<g style="fill:#000000; fill-opacity:1.0000; stroke:none;">
<circle cx="-100.3200" cy="-259.2600" r="2.3500" /> 
</g>
<g style="fill:#000000; fill-opacity:1.0000; stroke:none;">
<circle cx="-100.3200" cy="-259.2600" r="3.7500" /> 
<path style="fill:#000000; fill-opacity:1.0000; stroke:none;fill-rule:evenodd;"
d="M -56.6340,-260.1460
-56.6730,-260.1538
-56.7061,-260.1759
-56.7282,-260.2090
-56.7360,-260.2480
-56.7360,-261.7560
-56.7282,-261.7950
-56.7061,-261.8281
-56.6730,-261.8502
-56.6340,-261.8580
-55.1260,-261.8580
-55.0870,-261.8502
-55.0539,-261.8281
-55.0318,-261.7950
-55.0240,-261.7560
-55.0240,-260.2480
-55.0318,-260.2090
-55.0539,-260.1759
-55.0870,-260.1538
-55.1260,-260.1460
Z" /> 
</g>
<g style="fill:#000000; fill-opacity:1.0000; stroke:none;">
<circle cx="-55.8800" cy="-256.5020" r="0.8560" /> 
</g>
<g style="fill:#000000; fill-opacity:1.0000; stroke:none;">
<circle cx="-58.3800" cy="-262.2520" r="1.0770" /> 
</g>
<g style="fill:#000000; fill-opacity:1.0000; stroke:none;">
<circle cx="-58.3800" cy="-255.2520" r="1.0770" /> 
<path style="fill:#000000; fill-opacity:1.0000; stroke:none;fill-rule:evenodd;"
d="M -56.6340,-290.4460
-56.6730,-290.4538
-56.7061,-290.4759
-56.7282,-290.5090
-56.7360,-290.5480
-56.7360,-292.0560
-56.7282,-292.0950
-56.7061,-292.1281
-56.6730,-292.1502
-56.6340,-292.1580
-55.1260,-292.1580
-55.0870,-292.1502
-55.0539,-292.1281
-55.0318,-292.0950
-55.0240,-292.0560
-55.0240,-290.5480
-55.0318,-290.5090
-55.0539,-290.4759
-55.0870,-290.4538
-55.1260,-290.4460
Z" /> 
</g>
<g style="fill:#000000; fill-opacity:1.0000; stroke:none;">
<circle cx="-55.8800" cy="-286.8020" r="0.8560" /> 
</g>
<g style="fill:#000000; fill-opacity:1.0000; stroke:none;">
<circle cx="-58.3800" cy="-292.5520" r="1.0770" /> 
</g>
<g style="fill:#000000; fill-opacity:1.0000; stroke:none;">
<circle cx="-58.3800" cy="-285.5520" r="1.0770" /> 
<path style="fill:#000000; fill-opacity:1.0000; stroke:none;fill-rule:evenodd;"
d="M -56.6340,-169.2460
-56.6730,-169.2538
-56.7061,-169.2759
-56.7282,-169.3090
-56.7360,-169.3480
-56.7360,-170.8560
-56.7282,-170.8950
-56.7061,-170.9281
-56.6730,-170.9502
-56.6340,-170.9580
-55.1260,-170.9580
-55.0870,-170.9502
-55.0539,-170.9281
-55.0318,-170.8950
-55.0240,-170.8560
-55.0240,-169.3480
-55.0318,-169.3090
-55.0539,-169.2759
-55.0870,-169.2538
-55.1260,-169.2460
Z" /> 
</g>
<g style="fill:#000000; fill-opacity:1.0000; stroke:none;">
<circle cx="-55.8800" cy="-165.6020" r="0.8560" /> 
</g>
<g style="fill:#000000; fill-opacity:1.0000; stroke:none;">
<circle cx="-58.3800" cy="-171.3520" r="1.0770" /> 
</g>
<g style="fill:#000000; fill-opacity:1.0000; stroke:none;">
<circle cx="-58.3800" cy="-164.3520" r="1.0770" /> 
</g>
<g style="fill:#000000; fill-opacity:1.0000; stroke:none;">
<circle cx="-222.4200" cy="-259.0100" r="2.3500" /> 
</g>
<g style="fill:#000000; fill-opacity:1.0000; stroke:none;">
<circle cx="-222.4200" cy="-259.0100" r="3.7500" /> 
<path style="fill:#000000; fill-opacity:1.0000; stroke:none;fill-rule:evenodd;"
d="M -56.6340,-229.8460
-56.6730,-229.8538
-56.7061,-229.8759
-56.7282,-229.9090
-56.7360,-229.9480
-56.7360,-231.4560
-56.7282,-231.4950
-56.7061,-231.5281
-56.6730,-231.5502
-56.6340,-231.5580
-55.1260,-231.5580
-55.0870,-231.5502
-55.0539,-231.5281
-55.0318,-231.4950
-55.0240,-231.4560
-55.0240,-229.9480
-55.0318,-229.9090
-55.0539,-229.8759
-55.0870,-229.8538
-55.1260,-229.8460
Z" /> 
</g>
<g style="fill:#000000; fill-opacity:1.0000; stroke:none;">
<circle cx="-55.8800" cy="-226.2020" r="0.8560" /> 
</g>
<g style="fill:#000000; fill-opacity:1.0000; stroke:none;">
<circle cx="-58.3800" cy="-231.9520" r="1.0770" /> 
</g>
<g style="fill:#000000; fill-opacity:1.0000; stroke:none;">
<circle cx="-58.3800" cy="-224.9520" r="1.0770" /> 
</g>
<g style="fill:#000000; fill-opacity:1.0000; stroke:none;">
<circle cx="-286.4300" cy="-183.2400" r="2.3500" /> 
</g>
<g style="fill:#000000; fill-opacity:1.0000; stroke:none;">
<circle cx="-286.4300" cy="-183.2400" r="3.7500" /> 
</g>
<g style="fill:#000000; fill-opacity:1.0000; stroke:none;">
<circle cx="-162.7200" cy="-259.7200" r="2.3500" /> 
</g>
<g style="fill:#000000; fill-opacity:1.0000; stroke:none;">
<circle cx="-162.7200" cy="-259.7200" r="3.7500" /> 
</g>
<g style="fill:#000000; fill-opacity:1.0000; stroke:none;">
<circle cx="-165.6600" cy="-210.1500" r="2.3500" /> 
</g>
<g style="fill:#000000; fill-opacity:1.0000; stroke:none;">
<circle cx="-165.6600" cy="-210.1500" r="3.7500" /> 
</g>
<g style="fill:#000000; fill-opacity:1.0000; stroke:none;">
<circle cx="-49.4800" cy="-80.1800" r="2.3500" /> 
</g>
<g style="fill:#000000; fill-opacity:1.0000; stroke:none;">
<circle cx="-49.4800" cy="-80.1800" r="3.7500" /> 
</g>
<g style="fill:#000000; fill-opacity:1.0000; stroke:none;">
<circle cx="-237.0400" cy="-167.7200" r="2.3500" /> 
</g>
<g style="fill:#000000; fill-opacity:1.0000; stroke:none;">
<circle cx="-237.0400" cy="-167.7200" r="3.7500" /> 
</g>
<g style="fill:#000000; fill-opacity:1.0000; stroke:none;">
<circle cx="-46.7360" cy="-182.3720" r="1.9000" /> 
</g>
<g style="fill:#000000; fill-opacity:1.0000; stroke:none;">
<circle cx="-85.5400" cy="-167.6000" r="2.3500" /> 
</g>
<g style="fill:#000000; fill-opacity:1.0000; stroke:none;">
<circle cx="-85.5400" cy="-167.6000" r="3.7500" /> 
</g>
<g style="fill:#000000; fill-opacity:1.0000; stroke:none;">
<circle cx="-163.4950" cy="-316.5880" r="0.4250" /> 
</g>
<g style="fill:none; 
stroke:#000000; stroke-width:0.5500; stroke-opacity:1; 
stroke-linecap:round; stroke-linejoin:round;">
<path d="M-163.4950 -318.8180
L-163.4950 -320.3180
" />
</g>
<g style="fill:#000000; fill-opacity:1.0000; stroke:none;">
<circle cx="-172.6850" cy="-316.5880" r="0.4250" /> 
</g>
<g style="fill:none; 
stroke:#000000; stroke-width:0.5500; stroke-opacity:1; 
stroke-linecap:round; stroke-linejoin:round;">
<path d="M-172.6850 -318.8180
L-172.6850 -320.3180
" />
</g>
<g style="fill:#000000; fill-opacity:1.0000; stroke:none;">
<circle cx="-167.7800" cy="-79.9800" r="2.3500" /> 
</g>
<g style="fill:#000000; fill-opacity:1.0000; stroke:none;">
<circle cx="-167.7800" cy="-79.9800" r="3.7500" /> 
<path style="fill:#000000; fill-opacity:1.0000; stroke:none;fill-rule:evenodd;"
d="M -56.6340,-138.9460
-56.6730,-138.9538
-56.7061,-138.9759
-56.7282,-139.0090
-56.7360,-139.0480
-56.7360,-140.5560
-56.7282,-140.5950
-56.7061,-140.6281
-56.6730,-140.6502
-56.6340,-140.6580
-55.1260,-140.6580
-55.0870,-140.6502
-55.0539,-140.6281
-55.0318,-140.5950
-55.0240,-140.5560
-55.0240,-139.0480
-55.0318,-139.0090
-55.0539,-138.9759
-55.0870,-138.9538
-55.1260,-138.9460
Z" /> 
</g>
<g style="fill:#000000; fill-opacity:1.0000; stroke:none;">
<circle cx="-55.8800" cy="-135.3020" r="0.8560" /> 
</g>
<g style="fill:#000000; fill-opacity:1.0000; stroke:none;">
<circle cx="-58.3800" cy="-141.0520" r="1.0770" /> 
</g>
<g style="fill:#000000; fill-opacity:1.0000; stroke:none;">
<circle cx="-58.3800" cy="-134.0520" r="1.0770" /> 
</g>
<g style="fill:#000000; fill-opacity:1.0000; stroke:none;">
<circle cx="-163.1300" cy="-137.8800" r="2.3500" /> 
</g>
<g style="fill:#000000; fill-opacity:1.0000; stroke:none;">
<circle cx="-163.1300" cy="-137.8800" r="3.7500" /> 
<path style="fill:#000000; fill-opacity:1.0000; stroke:none;fill-rule:evenodd;"
d="M -56.6340,-199.5460
-56.6730,-199.5538
-56.7061,-199.5759
-56.7282,-199.6090
-56.7360,-199.6480
-56.7360,-201.1560
-56.7282,-201.1950
-56.7061,-201.2281
-56.6730,-201.2502
-56.6340,-201.2580
-55.1260,-201.2580
-55.0870,-201.2502
-55.0539,-201.2281
-55.0318,-201.1950
-55.0240,-201.1560
-55.0240,-199.6480
-55.0318,-199.6090
-55.0539,-199.5759
-55.0870,-199.5538
-55.1260,-199.5460
Z" /> 
</g>
<g style="fill:#000000; fill-opacity:1.0000; stroke:none;">
<circle cx="-55.8800" cy="-195.9020" r="0.8560" /> 
</g>
<g style="fill:#000000; fill-opacity:1.0000; stroke:none;">
<circle cx="-58.3800" cy="-201.6520" r="1.0770" /> 
</g>
<g style="fill:#000000; fill-opacity:1.0000; stroke:none;">
<circle cx="-58.3800" cy="-194.6520" r="1.0770" /> 
<path style="fill:#000000; fill-opacity:1.0000; stroke:none;fill-rule:evenodd;"
d="M -56.6340,-108.6460
-56.6730,-108.6538
-56.7061,-108.6759
-56.7282,-108.7090
-56.7360,-108.7480
-56.7360,-110.2560
-56.7282,-110.2950
-56.7061,-110.3281
-56.6730,-110.3502
-56.6340,-110.3580
-55.1260,-110.3580
-55.0870,-110.3502
-55.0539,-110.3281
-55.0318,-110.2950
-55.0240,-110.2560
-55.0240,-108.7480
-55.0318,-108.7090
-55.0539,-108.6759
-55.0870,-108.6538
-55.1260,-108.6460
Z" /> 
</g>
<g style="fill:#000000; fill-opacity:1.0000; stroke:none;">
<circle cx="-55.8800" cy="-105.0020" r="0.8560" /> 
</g>
<g style="fill:#000000; fill-opacity:1.0000; stroke:none;">
<circle cx="-58.3800" cy="-110.7520" r="1.0770" /> 
</g>
<g style="fill:#000000; fill-opacity:1.0000; stroke:none;">
<circle cx="-58.3800" cy="-103.7520" r="1.0770" /> 
</g>
<g style="fill:#000000; fill-opacity:1.0000; stroke:none;">
<circle cx="-285.4700" cy="-316.4700" r="2.3500" /> 
</g>
<g style="fill:#000000; fill-opacity:1.0000; stroke:none;">
<circle cx="-285.4700" cy="-316.4700" r="3.7500" /> 
</g>
<g style="fill:#000000; fill-opacity:1.0000; stroke:none;">
<circle cx="-284.6400" cy="-81.2200" r="2.3500" /> 
</g>
<g style="fill:#000000; fill-opacity:1.0000; stroke:none;">
<circle cx="-284.6400" cy="-81.2200" r="3.7500" /> 
</g> 
</svg>
