<?xml version="1.0" standalone="no"?>
 <!DOCTYPE svg PUBLIC "-//W3C//DTD SVG 1.1//EN" 
 "http://www.w3.org/Graphics/SVG/1.1/DTD/svg11.dtd"> 
<svg
  xmlns:svg="http://www.w3.org/2000/svg"
  xmlns="http://www.w3.org/2000/svg"
  xmlns:xlink="http://www.w3.org/1999/xlink"
  version="1.1"
  width="297.0022mm" height="210.0072mm" viewBox="0.0000 0.0000 297.0022 210.0072">
<title>SVG Image created as Button MIDI Controller-F_Silkscreen.svg date 2025/06/01 17:28:51 </title>
  <desc>Image generated by PCBNEW </desc>
<g style="fill:#000000; fill-opacity:1.0000;stroke:#000000; stroke-opacity:1.0000;
stroke-linecap:round; stroke-linejoin:round;"
 transform="translate(0 0) scale(1 1)">
</g>
<g style="fill:none; 
stroke:#000000; stroke-width:0.1500; stroke-opacity:1; 
stroke-linecap:round; stroke-linejoin:round;">
<g transform="rotate(-90.000000 -170.1700 -311.1000)">
<text x="-170.1700" y="-310.6000"
textLength="2.0595" font-size="1.3333" lengthAdjust="spacingAndGlyphs"
text-anchor="middle" opacity="0" stroke-opacity="0">F1</text>
</g>
<g class="stroked-text"><desc>F1</desc>
<path d="M-170.2390 -310.7667
L-170.2390 -310.4333
" />
<path d="M-169.7152 -310.4333
L-170.7152 -310.4333
" />
<path d="M-170.7152 -310.4333
L-170.7152 -310.9095
" />
<path d="M-169.7152 -311.8143
L-169.7152 -311.2429
" />
<path d="M-169.7152 -311.5286
L-170.7152 -311.5286
" />
<path d="M-170.7152 -311.5286
L-170.5723 -311.4333
" />
<path d="M-170.5723 -311.4333
L-170.4771 -311.3381
" />
<path d="M-170.4771 -311.3381
L-170.4295 -311.2429
" />
</g></g>
<g style="fill:none; 
stroke:#000000; stroke-width:0.1200; stroke-opacity:1; 
stroke-linecap:round; stroke-linejoin:round;">
<path d="M-86.0020 -264.7140
L-86.0020 -266.7140
" />
<path d="M-86.0020 -264.7140
L-82.8020 -264.7140
" />
<path d="M-85.7020 -267.0140
L-86.0020 -266.7140
" />
<path d="M-85.7020 -267.0140
L-82.8020 -267.0140
" />
<path d="M-82.8020 -267.0140
L-82.8020 -264.7140
" />
<path d="M-64.9700 -172.0100
L-64.9700 -176.0200
" />
<path d="M-64.9700 -172.0100
L-62.9700 -172.0100
" />
<path d="M-62.9700 -172.0100
L-62.9700 -176.0200
" />
<path d="M-63.0900 -139.9400
L-63.0900 -135.9300
" />
<path d="M-61.0900 -139.9400
L-63.0900 -139.9400
" />
<path d="M-61.0900 -139.9400
L-61.0900 -135.9300
" />
<path d="M-125.6900 -202.1700
L-125.6900 -206.1800
" />
<path d="M-125.6900 -202.1700
L-123.6900 -202.1700
" />
<path d="M-123.6900 -202.1700
L-123.6900 -206.1800
" />
<path d="M-251.7160 -220.6240
L-251.7160 -222.9240
" />
<path d="M-248.8160 -220.6240
L-251.7160 -220.6240
" />
<path d="M-248.8160 -220.6240
L-248.5160 -220.9240
" />
<path d="M-248.5160 -222.9240
L-251.7160 -222.9240
" />
<path d="M-248.5160 -222.9240
L-248.5160 -220.9240
" />
<path d="M-267.8020 -82.9140
L-267.8020 -84.9140
" />
<path d="M-267.8020 -82.9140
L-264.6020 -82.9140
" />
<path d="M-267.5020 -85.2140
L-267.8020 -84.9140
" />
<path d="M-267.5020 -85.2140
L-264.6020 -85.2140
" />
<path d="M-264.6020 -85.2140
L-264.6020 -82.9140
" />
<path d="M-176.9020 -234.4140
L-176.9020 -236.4140
" />
<path d="M-176.9020 -234.4140
L-173.7020 -234.4140
" />
<path d="M-176.6020 -236.7140
L-176.9020 -236.4140
" />
<path d="M-176.6020 -236.7140
L-173.7020 -236.7140
" />
<path d="M-173.7020 -236.7140
L-173.7020 -234.4140
" />
<path d="M-69.9160 -281.2240
L-69.9160 -283.5240
" />
<path d="M-67.0160 -281.2240
L-69.9160 -281.2240
" />
<path d="M-67.0160 -281.2240
L-66.7160 -281.5240
" />
<path d="M-66.7160 -283.5240
L-69.9160 -283.5240
" />
<path d="M-66.7160 -283.5240
L-66.7160 -281.5240
" />
<path d="M-186.2100 -232.0000
L-186.2100 -236.0100
" />
<path d="M-186.2100 -232.0000
L-184.2100 -232.0000
" />
<path d="M-184.2100 -232.0000
L-184.2100 -236.0100
" />
<path d="M-69.9160 -220.6240
L-69.9160 -222.9240
" />
<path d="M-67.0160 -220.6240
L-69.9160 -220.6240
" />
<path d="M-67.0160 -220.6240
L-66.7160 -220.9240
" />
<path d="M-66.7160 -222.9240
L-69.9160 -222.9240
" />
<path d="M-66.7160 -222.9240
L-66.7160 -220.9240
" />
<path d="M-246.8200 -233.0900
L-246.8200 -237.1000
" />
<path d="M-246.8200 -233.0900
L-244.8200 -233.0900
" />
<path d="M-244.8200 -233.0900
L-244.8200 -237.1000
" />
<path d="M-282.0160 -129.7240
L-282.0160 -132.0240
" />
<path d="M-279.1160 -129.7240
L-282.0160 -129.7240
" />
<path d="M-279.1160 -129.7240
L-278.8160 -130.0240
" />
<path d="M-278.8160 -132.0240
L-282.0160 -132.0240
" />
<path d="M-278.8160 -132.0240
L-278.8160 -130.0240
" />
<path d="M-55.7020 -264.7140
L-55.7020 -266.7140
" />
<path d="M-55.7020 -264.7140
L-52.5020 -264.7140
" />
<path d="M-55.4020 -267.0140
L-55.7020 -266.7140
" />
<path d="M-55.4020 -267.0140
L-52.5020 -267.0140
" />
<path d="M-52.5020 -267.0140
L-52.5020 -264.7140
" />
<path d="M-246.8100 -202.0700
L-246.8100 -206.0800
" />
<path d="M-246.8100 -202.0700
L-244.8100 -202.0700
" />
<path d="M-244.8100 -202.0700
L-244.8100 -206.0800
" />
<path d="M-277.0800 -110.4200
L-277.0800 -114.4300
" />
<path d="M-277.0800 -110.4200
L-275.0800 -110.4200
" />
<path d="M-275.0800 -110.4200
L-275.0800 -114.4300
" />
<path d="M-125.6200 -171.9100
L-125.6200 -175.9200
" />
<path d="M-125.6200 -171.9100
L-123.6200 -171.9100
" />
<path d="M-123.6200 -171.9100
L-123.6200 -175.9200
" />
<path d="M-63.3200 -262.0675
L-63.3200 -258.0575
" />
<path d="M-61.3200 -262.0675
L-63.3200 -262.0675
" />
<path d="M-61.3200 -262.0675
L-61.3200 -258.0575
" />
<path d="M-155.9500 -202.2000
L-155.9500 -206.2100
" />
<path d="M-155.9500 -202.2000
L-153.9500 -202.2000
" />
<path d="M-153.9500 -202.2000
L-153.9500 -206.2100
" />
<path d="M-216.6000 -80.8300
L-216.6000 -84.8400
" />
<path d="M-216.6000 -80.8300
L-214.6000 -80.8300
" />
<path d="M-214.6000 -80.8300
L-214.6000 -84.8400
" />
<path d="M-125.6700 -80.7900
L-125.6700 -84.8000
" />
<path d="M-125.6700 -80.7900
L-123.6700 -80.7900
" />
<path d="M-123.6700 -80.7900
L-123.6700 -84.8000
" />
<path d="M-186.2500 -80.9200
L-186.2500 -84.9300
" />
<path d="M-186.2500 -80.9200
L-184.2500 -80.9200
" />
<path d="M-184.2500 -80.9200
L-184.2500 -84.9300
" />
<path d="M-69.9160 -160.0240
L-69.9160 -162.3240
" />
<path d="M-67.0160 -160.0240
L-69.9160 -160.0240
" />
<path d="M-67.0160 -160.0240
L-66.7160 -160.3240
" />
<path d="M-66.7160 -162.3240
L-69.9160 -162.3240
" />
<path d="M-66.7160 -162.3240
L-66.7160 -160.3240
" />
<path d="M-277.0800 -201.3200
L-277.0800 -205.3300
" />
<path d="M-277.0800 -201.3200
L-275.0800 -201.3200
" />
<path d="M-275.0800 -201.3200
L-275.0800 -205.3300
" />
<path d="M-116.3020 -234.4140
L-116.3020 -236.4140
" />
<path d="M-116.3020 -234.4140
L-113.1020 -234.4140
" />
<path d="M-116.0020 -236.7140
L-116.3020 -236.4140
" />
<path d="M-116.0020 -236.7140
L-113.1020 -236.7140
" />
<path d="M-113.1020 -236.7140
L-113.1020 -234.4140
" />
<path d="M-55.7020 -173.8140
L-55.7020 -175.8140
" />
<path d="M-55.7020 -173.8140
L-52.5020 -173.8140
" />
<path d="M-55.4020 -176.1140
L-55.7020 -175.8140
" />
<path d="M-55.4020 -176.1140
L-52.5020 -176.1140
" />
<path d="M-52.5020 -176.1140
L-52.5020 -173.8140
" />
<path d="M-160.8160 -190.3240
L-160.8160 -192.6240
" />
<path d="M-157.9160 -190.3240
L-160.8160 -190.3240
" />
<path d="M-157.9160 -190.3240
L-157.6160 -190.6240
" />
<path d="M-157.6160 -192.6240
L-160.8160 -192.6240
" />
<path d="M-157.6160 -192.6240
L-157.6160 -190.6240
" />
<path d="M-282.0160 -220.6240
L-282.0160 -222.9240
" />
<path d="M-279.1160 -220.6240
L-282.0160 -220.6240
" />
<path d="M-279.1160 -220.6240
L-278.8160 -220.9240
" />
<path d="M-278.8160 -222.9240
L-282.0160 -222.9240
" />
<path d="M-278.8160 -222.9240
L-278.8160 -220.9240
" />
<path d="M-65.2600 -202.5500
L-65.2600 -206.5600
" />
<path d="M-65.2600 -202.5500
L-63.2600 -202.5500
" />
<path d="M-63.2600 -202.5500
L-63.2600 -206.5600
" />
<path d="M-116.3020 -264.7140
L-116.3020 -266.7140
" />
<path d="M-116.3020 -264.7140
L-113.1020 -264.7140
" />
<path d="M-116.0020 -267.0140
L-116.3020 -266.7140
" />
<path d="M-116.0020 -267.0140
L-113.1020 -267.0140
" />
<path d="M-113.1020 -267.0140
L-113.1020 -264.7140
" />
<path d="M-191.1160 -281.2240
L-191.1160 -283.5240
" />
<path d="M-188.2160 -281.2240
L-191.1160 -281.2240
" />
<path d="M-188.2160 -281.2240
L-187.9160 -281.5240
" />
<path d="M-187.9160 -283.5240
L-191.1160 -283.5240
" />
<path d="M-187.9160 -283.5240
L-187.9160 -281.5240
" />
<path d="M-246.8400 -262.7900
L-246.8400 -266.8000
" />
<path d="M-246.8400 -262.7900
L-244.8400 -262.7900
" />
<path d="M-244.8400 -262.7900
L-244.8400 -266.8000
" />
<path d="M-156.0700 -141.6200
L-156.0700 -145.6300
" />
<path d="M-156.0700 -141.6200
L-154.0700 -141.6200
" />
<path d="M-154.0700 -141.6200
L-154.0700 -145.6300
" />
<path d="M-125.5000 -232.2200
L-125.5000 -236.2300
" />
<path d="M-125.5000 -232.2200
L-123.5000 -232.2200
" />
<path d="M-123.5000 -232.2200
L-123.5000 -236.2300
" />
<path d="M-65.0100 -80.9900
L-65.0100 -85.0000
" />
<path d="M-65.0100 -80.9900
L-63.0100 -80.9900
" />
<path d="M-63.0100 -80.9900
L-63.0100 -85.0000
" />
<path d="M-100.2160 -220.6240
L-100.2160 -222.9240
" />
<path d="M-97.3160 -220.6240
L-100.2160 -220.6240
" />
<path d="M-97.3160 -220.6240
L-97.0160 -220.9240
" />
<path d="M-97.0160 -222.9240
L-100.2160 -222.9240
" />
<path d="M-97.0160 -222.9240
L-97.0160 -220.9240
" />
<path d="M-216.4300 -202.5800
L-216.4300 -206.5900
" />
<path d="M-216.4300 -202.5800
L-214.4300 -202.5800
" />
<path d="M-214.4300 -202.5800
L-214.4300 -206.5900
" />
<path d="M-207.2020 -113.2140
L-207.2020 -115.2140
" />
<path d="M-207.2020 -113.2140
L-204.0020 -113.2140
" />
<path d="M-206.9020 -115.5140
L-207.2020 -115.2140
" />
<path d="M-206.9020 -115.5140
L-204.0020 -115.5140
" />
<path d="M-204.0020 -115.5140
L-204.0020 -113.2140
" />
<path d="M-267.8020 -234.4140
L-267.8020 -236.4140
" />
<path d="M-267.8020 -234.4140
L-264.6020 -234.4140
" />
<path d="M-267.5020 -236.7140
L-267.8020 -236.4140
" />
<path d="M-267.5020 -236.7140
L-264.6020 -236.7140
" />
<path d="M-264.6020 -236.7140
L-264.6020 -234.4140
" />
<path d="M-267.8020 -143.5140
L-267.8020 -145.5140
" />
<path d="M-267.8020 -143.5140
L-264.6020 -143.5140
" />
<path d="M-267.5020 -145.8140
L-267.8020 -145.5140
" />
<path d="M-267.5020 -145.8140
L-264.6020 -145.8140
" />
<path d="M-264.6020 -145.8140
L-264.6020 -143.5140
" />
<path d="M-55.7020 -143.5140
L-55.7020 -145.5140
" />
<path d="M-55.7020 -143.5140
L-52.5020 -143.5140
" />
<path d="M-55.4020 -145.8140
L-55.7020 -145.5140
" />
<path d="M-55.4020 -145.8140
L-52.5020 -145.8140
" />
<path d="M-52.5020 -145.8140
L-52.5020 -143.5140
" />
<path d="M-146.6020 -264.7140
L-146.6020 -266.7140
" />
<path d="M-146.6020 -264.7140
L-143.4020 -264.7140
" />
<path d="M-146.3020 -267.0140
L-146.6020 -266.7140
" />
<path d="M-146.3020 -267.0140
L-143.4020 -267.0140
" />
<path d="M-143.4020 -267.0140
L-143.4020 -264.7140
" />
<path d="M-207.2020 -264.7140
L-207.2020 -266.7140
" />
<path d="M-207.2020 -264.7140
L-204.0020 -264.7140
" />
<path d="M-206.9020 -267.0140
L-207.2020 -266.7140
" />
<path d="M-206.9020 -267.0140
L-204.0020 -267.0140
" />
<path d="M-204.0020 -267.0140
L-204.0020 -264.7140
" />
<path d="M-160.8160 -311.5240
L-160.8160 -313.8240
" />
<path d="M-157.9160 -311.5240
L-160.8160 -311.5240
" />
<path d="M-157.9160 -311.5240
L-157.6160 -311.8240
" />
<path d="M-157.6160 -313.8240
L-160.8160 -313.8240
" />
<path d="M-157.6160 -313.8240
L-157.6160 -311.8240
" />
<path d="M-146.6020 -82.9140
L-146.6020 -84.9140
" />
<path d="M-146.6020 -82.9140
L-143.4020 -82.9140
" />
<path d="M-146.3020 -85.2140
L-146.6020 -84.9140
" />
<path d="M-146.3020 -85.2140
L-143.4020 -85.2140
" />
<path d="M-143.4020 -85.2140
L-143.4020 -82.9140
" />
<path d="M-157.7722 -300.7600
L-157.9878 -300.7600
" />
<path d="M-157.7722 -300.0400
L-157.9878 -300.0400
" />
<path d="M-69.9160 -311.5240
L-69.9160 -313.8240
" />
<path d="M-67.0160 -311.5240
L-69.9160 -311.5240
" />
<path d="M-67.0160 -311.5240
L-66.7160 -311.8240
" />
<path d="M-66.7160 -313.8240
L-69.9160 -313.8240
" />
<path d="M-66.7160 -313.8240
L-66.7160 -311.8240
" />
<path d="M-62.5000 -200.3400
L-62.5000 -196.3300
" />
<path d="M-60.5000 -200.3400
L-62.5000 -200.3400
" />
<path d="M-60.5000 -200.3400
L-60.5000 -196.3300
" />
<path d="M-251.7160 -190.3240
L-251.7160 -192.6240
" />
<path d="M-248.8160 -190.3240
L-251.7160 -190.3240
" />
<path d="M-248.8160 -190.3240
L-248.5160 -190.6240
" />
<path d="M-248.5160 -192.6240
L-251.7160 -192.6240
" />
<path d="M-248.5160 -192.6240
L-248.5160 -190.6240
" />
<path d="M-155.8800 -262.5500
L-155.8800 -266.5600
" />
<path d="M-155.8800 -262.5500
L-153.8800 -262.5500
" />
<path d="M-153.8800 -262.5500
L-153.8800 -266.5600
" />
</g>
<g style="fill:none; 
stroke:#000000; stroke-width:0.2000; stroke-opacity:1; 
stroke-linecap:round; stroke-linejoin:round;">
<circle cx="-55.8800" cy="-263.7520" r="0.1000" /> 
</g>
<g style="fill:none; 
stroke:#000000; stroke-width:0.1200; stroke-opacity:1; 
stroke-linecap:round; stroke-linejoin:round;">
<path d="M-191.1160 -190.3240
L-191.1160 -192.6240
" />
<path d="M-188.2160 -190.3240
L-191.1160 -190.3240
" />
<path d="M-188.2160 -190.3240
L-187.9160 -190.6240
" />
<path d="M-187.9160 -192.6240
L-191.1160 -192.6240
" />
<path d="M-187.9160 -192.6240
L-187.9160 -190.6240
" />
<path d="M-237.5020 -113.2140
L-237.5020 -115.2140
" />
<path d="M-237.5020 -113.2140
L-234.3020 -113.2140
" />
<path d="M-237.2020 -115.5140
L-237.5020 -115.2140
" />
<path d="M-237.2020 -115.5140
L-234.3020 -115.5140
" />
<path d="M-234.3020 -115.5140
L-234.3020 -113.2140
" />
<path d="M-95.6000 -141.5900
L-95.6000 -145.6000
" />
<path d="M-95.6000 -141.5900
L-93.6000 -141.5900
" />
<path d="M-93.6000 -141.5900
L-93.6000 -145.6000
" />
</g>
<g style="fill:none; 
stroke:#000000; stroke-width:0.2000; stroke-opacity:1; 
stroke-linecap:round; stroke-linejoin:round;">
<circle cx="-55.8800" cy="-294.0520" r="0.1000" /> 
</g>
<g style="fill:none; 
stroke:#000000; stroke-width:0.1200; stroke-opacity:1; 
stroke-linecap:round; stroke-linejoin:round;">
<path d="M-251.7160 -311.5240
L-251.7160 -313.8240
" />
<path d="M-248.8160 -311.5240
L-251.7160 -311.5240
" />
<path d="M-248.8160 -311.5240
L-248.5160 -311.8240
" />
<path d="M-248.5160 -313.8240
L-251.7160 -313.8240
" />
<path d="M-248.5160 -313.8240
L-248.5160 -311.8240
" />
<path d="M-157.0100 -293.4600
L-157.0100 -297.4700
" />
<path d="M-157.0100 -293.4600
L-155.0100 -293.4600
" />
<path d="M-155.0100 -293.4600
L-155.0100 -297.4700
" />
<path d="M-237.5020 -264.7140
L-237.5020 -266.7140
" />
<path d="M-237.5020 -264.7140
L-234.3020 -264.7140
" />
<path d="M-237.2020 -267.0140
L-237.5020 -266.7140
" />
<path d="M-237.2020 -267.0140
L-234.3020 -267.0140
" />
<path d="M-234.3020 -267.0140
L-234.3020 -264.7140
" />
<path d="M-163.9600 -301.6278
L-163.9600 -301.4122
" />
<path d="M-163.2400 -301.6278
L-163.2400 -301.4122
" />
<path d="M-86.0020 -82.9140
L-86.0020 -84.9140
" />
<path d="M-86.0020 -82.9140
L-82.8020 -82.9140
" />
<path d="M-85.7020 -85.2140
L-86.0020 -84.9140
" />
<path d="M-85.7020 -85.2140
L-82.8020 -85.2140
" />
<path d="M-82.8020 -85.2140
L-82.8020 -82.9140
" />
<path d="M-176.9020 -295.0140
L-176.9020 -297.0140
" />
<path d="M-176.9020 -295.0140
L-173.7020 -295.0140
" />
<path d="M-176.6020 -297.3140
L-176.9020 -297.0140
" />
<path d="M-176.6020 -297.3140
L-173.7020 -297.3140
" />
<path d="M-173.7020 -297.3140
L-173.7020 -295.0140
" />
<path d="M-267.8020 -295.0140
L-267.8020 -297.0140
" />
<path d="M-267.8020 -295.0140
L-264.6020 -295.0140
" />
<path d="M-267.5020 -297.3140
L-267.8020 -297.0140
" />
<path d="M-267.5020 -297.3140
L-264.6020 -297.3140
" />
<path d="M-264.6020 -297.3140
L-264.6020 -295.0140
" />
<path d="M-282.0160 -190.3240
L-282.0160 -192.6240
" />
<path d="M-279.1160 -190.3240
L-282.0160 -190.3240
" />
<path d="M-279.1160 -190.3240
L-278.8160 -190.6240
" />
<path d="M-278.8160 -192.6240
L-282.0160 -192.6240
" />
<path d="M-278.8160 -192.6240
L-278.8160 -190.6240
" />
<path d="M-207.2020 -143.5140
L-207.2020 -145.5140
" />
<path d="M-207.2020 -143.5140
L-204.0020 -143.5140
" />
<path d="M-206.9020 -145.8140
L-207.2020 -145.5140
" />
<path d="M-206.9020 -145.8140
L-204.0020 -145.8140
" />
<path d="M-204.0020 -145.8140
L-204.0020 -143.5140
" />
<path d="M-172.0475 -307.7100
L-171.3975 -307.7100
" />
<path d="M-172.0475 -307.0600
L-172.0475 -307.7100
" />
<path d="M-172.0475 -301.1400
L-172.0475 -300.4900
" />
<path d="M-172.0475 -300.4900
L-171.3975 -300.4900
" />
<path d="M-164.8275 -307.0600
L-164.8275 -307.7100
" />
<path d="M-164.8275 -301.1400
L-164.8275 -300.4900
" />
<path d="M-164.8275 -300.4900
L-165.4775 -300.4900
" />
<path d="M-191.1160 -160.0240
L-191.1160 -162.3240
" />
<path d="M-188.2160 -160.0240
L-191.1160 -160.0240
" />
<path d="M-188.2160 -160.0240
L-187.9160 -160.3240
" />
<path d="M-187.9160 -162.3240
L-191.1160 -162.3240
" />
<path d="M-187.9160 -162.3240
L-187.9160 -160.3240
" />
<path d="M-95.5200 -171.7400
L-95.5200 -175.7500
" />
<path d="M-95.5200 -171.7400
L-93.5200 -171.7400
" />
<path d="M-93.5200 -171.7400
L-93.5200 -175.7500
" />
<path d="M-116.3020 -82.9140
L-116.3020 -84.9140
" />
<path d="M-116.3020 -82.9140
L-113.1020 -82.9140
" />
<path d="M-116.0020 -85.2140
L-116.3020 -84.9140
" />
<path d="M-116.0020 -85.2140
L-113.1020 -85.2140
" />
<path d="M-113.1020 -85.2140
L-113.1020 -82.9140
" />
<path d="M-207.2020 -234.4140
L-207.2020 -236.4140
" />
<path d="M-207.2020 -234.4140
L-204.0020 -234.4140
" />
<path d="M-206.9020 -236.7140
L-207.2020 -236.4140
" />
<path d="M-206.9020 -236.7140
L-204.0020 -236.7140
" />
<path d="M-204.0020 -236.7140
L-204.0020 -234.4140
" />
<path d="M-216.6900 -111.4800
L-216.6900 -115.4900
" />
<path d="M-216.6900 -111.4800
L-214.6900 -111.4800
" />
<path d="M-214.6900 -111.4800
L-214.6900 -115.4900
" />
<path d="M-282.0160 -99.4240
L-282.0160 -101.7240
" />
<path d="M-279.1160 -99.4240
L-282.0160 -99.4240
" />
<path d="M-279.1160 -99.4240
L-278.8160 -99.7240
" />
<path d="M-278.8160 -101.7240
L-282.0160 -101.7240
" />
<path d="M-278.8160 -101.7240
L-278.8160 -99.7240
" />
<path d="M-86.0020 -143.5140
L-86.0020 -145.5140
" />
<path d="M-86.0020 -143.5140
L-82.8020 -143.5140
" />
<path d="M-85.7020 -145.8140
L-86.0020 -145.5140
" />
<path d="M-85.7020 -145.8140
L-82.8020 -145.8140
" />
<path d="M-82.8020 -145.8140
L-82.8020 -143.5140
" />
<path d="M-191.1160 -250.9240
L-191.1160 -253.2240
" />
<path d="M-188.2160 -250.9240
L-191.1160 -250.9240
" />
<path d="M-188.2160 -250.9240
L-187.9160 -251.2240
" />
<path d="M-187.9160 -253.2240
L-191.1160 -253.2240
" />
<path d="M-187.9160 -253.2240
L-187.9160 -251.2240
" />
<path d="M-216.4900 -171.6400
L-216.4900 -175.6500
" />
<path d="M-216.4900 -171.6400
L-214.4900 -171.6400
" />
<path d="M-214.4900 -171.6400
L-214.4900 -175.6500
" />
<path d="M-130.5160 -190.3240
L-130.5160 -192.6240
" />
<path d="M-127.6160 -190.3240
L-130.5160 -190.3240
" />
<path d="M-127.6160 -190.3240
L-127.3160 -190.6240
" />
<path d="M-127.3160 -192.6240
L-130.5160 -192.6240
" />
<path d="M-127.3160 -192.6240
L-127.3160 -190.6240
" />
<path d="M-100.2160 -160.0240
L-100.2160 -162.3240
" />
<path d="M-97.3160 -160.0240
L-100.2160 -160.0240
" />
<path d="M-97.3160 -160.0240
L-97.0160 -160.3240
" />
<path d="M-97.0160 -162.3240
L-100.2160 -162.3240
" />
<path d="M-97.0160 -162.3240
L-97.0160 -160.3240
" />
<path d="M-246.8200 -141.5700
L-246.8200 -145.5800
" />
<path d="M-246.8200 -141.5700
L-244.8200 -141.5700
" />
<path d="M-244.8200 -141.5700
L-244.8200 -145.5800
" />
<path d="M-170.7800 -312.6436
L-170.7800 -312.3364
" />
<path d="M-170.0200 -312.6436
L-170.0200 -312.3364
" />
</g>
<g style="fill:none; 
stroke:#000000; stroke-width:0.2000; stroke-opacity:1; 
stroke-linecap:round; stroke-linejoin:round;">
<circle cx="-55.8800" cy="-172.8520" r="0.1000" /> 
</g>
<g style="fill:none; 
stroke:#000000; stroke-width:0.1200; stroke-opacity:1; 
stroke-linecap:round; stroke-linejoin:round;">
<path d="M-216.4200 -232.1900
L-216.4200 -236.2000
" />
<path d="M-216.4200 -232.1900
L-214.4200 -232.1900
" />
<path d="M-214.4200 -232.1900
L-214.4200 -236.2000
" />
<path d="M-155.9900 -111.2800
L-155.9900 -115.2900
" />
<path d="M-155.9900 -111.2800
L-153.9900 -111.2800
" />
<path d="M-153.9900 -111.2800
L-153.9900 -115.2900
" />
<path d="M-207.2020 -204.1140
L-207.2020 -206.1140
" />
<path d="M-207.2020 -204.1140
L-204.0020 -204.1140
" />
<path d="M-206.9020 -206.4140
L-207.2020 -206.1140
" />
<path d="M-206.9020 -206.4140
L-204.0020 -206.4140
" />
<path d="M-204.0020 -206.4140
L-204.0020 -204.1140
" />
<path d="M-169.0878 -309.1100
L-168.8722 -309.1100
" />
<path d="M-169.0878 -308.3900
L-168.8722 -308.3900
" />
<path d="M-116.3020 -173.8140
L-116.3020 -175.8140
" />
<path d="M-116.3020 -173.8140
L-113.1020 -173.8140
" />
<path d="M-116.0020 -176.1140
L-116.3020 -175.8140
" />
<path d="M-116.0020 -176.1140
L-113.1020 -176.1140
" />
<path d="M-113.1020 -176.1140
L-113.1020 -173.8140
" />
<path d="M-100.2160 -250.9240
L-100.2160 -253.2240
" />
<path d="M-97.3160 -250.9240
L-100.2160 -250.9240
" />
<path d="M-97.3160 -250.9240
L-97.0160 -251.2240
" />
<path d="M-97.0160 -253.2240
L-100.2160 -253.2240
" />
<path d="M-97.0160 -253.2240
L-97.0160 -251.2240
" />
<path d="M-86.0020 -234.4140
L-86.0020 -236.4140
" />
<path d="M-86.0020 -234.4140
L-82.8020 -234.4140
" />
<path d="M-85.7020 -236.7140
L-86.0020 -236.4140
" />
<path d="M-85.7020 -236.7140
L-82.8020 -236.7140
" />
<path d="M-82.8020 -236.7140
L-82.8020 -234.4140
" />
<path d="M-177.7500 -307.8000
L-177.7500 -305.5000
" />
<path d="M-177.7500 -305.5000
L-175.0500 -305.5000
" />
<path d="M-100.2160 -281.2240
L-100.2160 -283.5240
" />
<path d="M-97.3160 -281.2240
L-100.2160 -281.2240
" />
<path d="M-97.3160 -281.2240
L-97.0160 -281.5240
" />
<path d="M-97.0160 -283.5240
L-100.2160 -283.5240
" />
<path d="M-97.0160 -283.5240
L-97.0160 -281.5240
" />
<path d="M-69.9160 -99.4240
L-69.9160 -101.7240
" />
<path d="M-67.0160 -99.4240
L-69.9160 -99.4240
" />
<path d="M-67.0160 -99.4240
L-66.7160 -99.7240
" />
<path d="M-66.7160 -101.7240
L-69.9160 -101.7240
" />
<path d="M-66.7160 -101.7240
L-66.7160 -99.7240
" />
<path d="M-166.1536 -314.3800
L-165.8464 -314.3800
" />
<path d="M-166.1536 -313.6200
L-165.8464 -313.6200
" />
<path d="M-282.0160 -311.5240
L-282.0160 -313.8240
" />
<path d="M-279.1160 -311.5240
L-282.0160 -311.5240
" />
<path d="M-279.1160 -311.5240
L-278.8160 -311.8240
" />
<path d="M-278.8160 -313.8240
L-282.0160 -313.8240
" />
<path d="M-278.8160 -313.8240
L-278.8160 -311.8240
" />
<path d="M-63.4900 -295.2075
L-63.4900 -291.1975
" />
<path d="M-61.4900 -295.2075
L-63.4900 -295.2075
" />
<path d="M-61.4900 -295.2075
L-61.4900 -291.1975
" />
</g>
<g style="fill:none; 
stroke:#000000; stroke-width:0.2000; stroke-opacity:1; 
stroke-linecap:round; stroke-linejoin:round;">
<circle cx="-55.8800" cy="-233.4520" r="0.1000" /> 
</g>
<g style="fill:none; 
stroke:#000000; stroke-width:0.1200; stroke-opacity:1; 
stroke-linecap:round; stroke-linejoin:round;">
<path d="M-221.4160 -250.9240
L-221.4160 -253.2240
" />
<path d="M-218.5160 -250.9240
L-221.4160 -250.9240
" />
<path d="M-218.5160 -250.9240
L-218.2160 -251.2240
" />
<path d="M-218.2160 -253.2240
L-221.4160 -253.2240
" />
<path d="M-218.2160 -253.2240
L-218.2160 -251.2240
" />
<path d="M-125.6500 -262.9100
L-125.6500 -266.9200
" />
<path d="M-125.6500 -262.9100
L-123.6500 -262.9100
" />
<path d="M-123.6500 -262.9100
L-123.6500 -266.9200
" />
<path d="M-160.8160 -129.7240
L-160.8160 -132.0240
" />
<path d="M-157.9160 -129.7240
L-160.8160 -129.7240
" />
<path d="M-157.9160 -129.7240
L-157.6160 -130.0240
" />
<path d="M-157.6160 -132.0240
L-160.8160 -132.0240
" />
<path d="M-157.6160 -132.0240
L-157.6160 -130.0240
" />
<path d="M-186.2100 -202.1800
L-186.2100 -206.1900
" />
<path d="M-186.2100 -202.1800
L-184.2100 -202.1800
" />
<path d="M-184.2100 -202.1800
L-184.2100 -206.1900
" />
<path d="M-146.6020 -143.5140
L-146.6020 -145.5140
" />
<path d="M-146.6020 -143.5140
L-143.4020 -143.5140
" />
<path d="M-146.3020 -145.8140
L-146.6020 -145.5140
" />
<path d="M-146.3020 -145.8140
L-143.4020 -145.8140
" />
<path d="M-143.4020 -145.8140
L-143.4020 -143.5140
" />
<path d="M-116.3020 -295.0140
L-116.3020 -297.0140
" />
<path d="M-116.3020 -295.0140
L-113.1020 -295.0140
" />
<path d="M-116.0020 -297.3140
L-116.3020 -297.0140
" />
<path d="M-116.0020 -297.3140
L-113.1020 -297.3140
" />
<path d="M-113.1020 -297.3140
L-113.1020 -295.0140
" />
<path d="M-191.1160 -129.7240
L-191.1160 -132.0240
" />
<path d="M-188.2160 -129.7240
L-191.1160 -129.7240
" />
<path d="M-188.2160 -129.7240
L-187.9160 -130.0240
" />
<path d="M-187.9160 -132.0240
L-191.1160 -132.0240
" />
<path d="M-187.9160 -132.0240
L-187.9160 -130.0240
" />
<path d="M-246.9400 -111.1900
L-246.9400 -115.2000
" />
<path d="M-246.9400 -111.1900
L-244.9400 -111.1900
" />
<path d="M-244.9400 -111.1900
L-244.9400 -115.2000
" />
<path d="M-165.3578 -299.8600
L-165.1422 -299.8600
" />
<path d="M-165.3578 -299.1400
L-165.1422 -299.1400
" />
<path d="M-65.2800 -141.6000
L-65.2800 -145.6100
" />
<path d="M-65.2800 -141.6000
L-63.2800 -141.6000
" />
<path d="M-63.2800 -141.6000
L-63.2800 -145.6100
" />
<path d="M-69.9160 -129.7240
L-69.9160 -132.0240
" />
<path d="M-67.0160 -129.7240
L-69.9160 -129.7240
" />
<path d="M-67.0160 -129.7240
L-66.7160 -130.0240
" />
<path d="M-66.7160 -132.0240
L-69.9160 -132.0240
" />
<path d="M-66.7160 -132.0240
L-66.7160 -130.0240
" />
<path d="M-207.2020 -82.9140
L-207.2020 -84.9140
" />
<path d="M-207.2020 -82.9140
L-204.0020 -82.9140
" />
<path d="M-206.9020 -85.2140
L-207.2020 -84.9140
" />
<path d="M-206.9020 -85.2140
L-204.0020 -85.2140
" />
<path d="M-204.0020 -85.2140
L-204.0020 -82.9140
" />
<path d="M-251.7160 -281.2240
L-251.7160 -283.5240
" />
<path d="M-248.8160 -281.2240
L-251.7160 -281.2240
" />
<path d="M-248.8160 -281.2240
L-248.5160 -281.5240
" />
<path d="M-248.5160 -283.5240
L-251.7160 -283.5240
" />
<path d="M-248.5160 -283.5240
L-248.5160 -281.5240
" />
<path d="M-130.5160 -311.5240
L-130.5160 -313.8240
" />
<path d="M-127.6160 -311.5240
L-130.5160 -311.5240
" />
<path d="M-127.6160 -311.5240
L-127.3160 -311.8240
" />
<path d="M-127.3160 -313.8240
L-130.5160 -313.8240
" />
<path d="M-127.3160 -313.8240
L-127.3160 -311.8240
" />
<path d="M-62.7700 -231.2000
L-62.7700 -227.1900
" />
<path d="M-60.7700 -231.2000
L-62.7700 -231.2000
" />
<path d="M-60.7700 -231.2000
L-60.7700 -227.1900
" />
<path d="M-86.0020 -204.1140
L-86.0020 -206.1140
" />
<path d="M-86.0020 -204.1140
L-82.8020 -204.1140
" />
<path d="M-85.7020 -206.4140
L-86.0020 -206.1140
" />
<path d="M-85.7020 -206.4140
L-82.8020 -206.4140
" />
<path d="M-82.8020 -206.4140
L-82.8020 -204.1140
" />
<path d="M-186.2700 -141.7000
L-186.2700 -145.7100
" />
<path d="M-186.2700 -141.7000
L-184.2700 -141.7000
" />
<path d="M-184.2700 -141.7000
L-184.2700 -145.7100
" />
<path d="M-160.8160 -250.9240
L-160.8160 -253.2240
" />
<path d="M-157.9160 -250.9240
L-160.8160 -250.9240
" />
<path d="M-157.9160 -250.9240
L-157.6160 -251.2240
" />
<path d="M-157.6160 -253.2240
L-160.8160 -253.2240
" />
<path d="M-157.6160 -253.2240
L-157.6160 -251.2240
" />
<path d="M-186.2500 -111.2825
L-186.2500 -115.2925
" />
<path d="M-186.2500 -111.2825
L-184.2500 -111.2825
" />
<path d="M-184.2500 -111.2825
L-184.2500 -115.2925
" />
<path d="M-156.0400 -171.6600
L-156.0400 -175.6700
" />
<path d="M-156.0400 -171.6600
L-154.0400 -171.6600
" />
<path d="M-154.0400 -171.6600
L-154.0400 -175.6700
" />
<path d="M-55.7020 -82.9140
L-55.7020 -84.9140
" />
<path d="M-55.7020 -82.9140
L-52.5020 -82.9140
" />
<path d="M-55.4020 -85.2140
L-55.7020 -84.9140
" />
<path d="M-55.4020 -85.2140
L-52.5020 -85.2140
" />
<path d="M-52.5020 -85.2140
L-52.5020 -82.9140
" />
</g>
<g style="fill:#000000; fill-opacity:1.0000; stroke:none;">
<circle cx="-170.9000" cy="-295.3100" r="0.0600" /> 
</g>
<g style="fill:none; 
stroke:#000000; stroke-width:0.1200; stroke-opacity:1; 
stroke-linecap:round; stroke-linejoin:round;">
<path d="M-170.9000 -295.3100
L-170.9000 -293.8200
" />
<path d="M-169.9000 -295.3100
L-170.9000 -295.3100
" />
<path d="M-168.9000 -293.8200
L-169.6800 -293.8200
" />
<path d="M-167.9000 -295.3100
L-168.6800 -295.3100
" />
<path d="M-166.9000 -293.8200
L-167.6800 -293.8200
" />
<path d="M-165.9000 -295.3100
L-166.6800 -295.3100
" />
<path d="M-165.6800 -295.3100
L-166.6800 -295.3100
" />
<path d="M-165.6800 -295.3100
L-165.6800 -293.8200
" />
</g>
<g style="fill:#000000; fill-opacity:1.0000; stroke:none;">
<circle cx="-165.6800" cy="-293.8200" r="0.0600" /> 
</g>
<g style="fill:none; 
stroke:#000000; stroke-width:0.1200; stroke-opacity:1; 
stroke-linecap:round; stroke-linejoin:round;">
<path d="M-165.6800 -293.8200
L-165.6800 -292.8750
" />
<path d="M-221.4160 -129.7240
L-221.4160 -132.0240
" />
<path d="M-218.5160 -129.7240
L-221.4160 -129.7240
" />
<path d="M-218.5160 -129.7240
L-218.2160 -130.0240
" />
<path d="M-218.2160 -132.0240
L-221.4160 -132.0240
" />
<path d="M-218.2160 -132.0240
L-218.2160 -130.0240
" />
<path d="M-221.4160 -281.2240
L-221.4160 -283.5240
" />
<path d="M-218.5160 -281.2240
L-221.4160 -281.2240
" />
<path d="M-218.5160 -281.2240
L-218.2160 -281.5240
" />
<path d="M-218.2160 -283.5240
L-221.4160 -283.5240
" />
<path d="M-218.2160 -283.5240
L-218.2160 -281.5240
" />
<path d="M-130.5160 -160.0240
L-130.5160 -162.3240
" />
<path d="M-127.6160 -160.0240
L-130.5160 -160.0240
" />
<path d="M-127.6160 -160.0240
L-127.3160 -160.3240
" />
<path d="M-127.3160 -162.3240
L-130.5160 -162.3240
" />
<path d="M-127.3160 -162.3240
L-127.3160 -160.3240
" />
<path d="M-95.3300 -202.5200
L-95.3300 -206.5300
" />
<path d="M-95.3300 -202.5200
L-93.3300 -202.5200
" />
<path d="M-93.3300 -202.5200
L-93.3300 -206.5300
" />
<path d="M-167.6375 -313.1100
L-168.4375 -313.1100
" />
<path d="M-167.6375 -313.1100
L-166.8375 -313.1100
" />
<path d="M-167.6375 -309.9900
L-168.4375 -309.9900
" />
<path d="M-167.6375 -309.9900
L-166.8375 -309.9900
" />
<path style="fill:#000000; fill-opacity:1.0000; 
stroke:#000000; stroke-width:0.1200; stroke-opacity:1; 
stroke-linecap:round; stroke-linejoin:round;fill-rule:evenodd;"
d="M -166.0975,-309.7100
-166.5775,-309.7100
-166.3375,-310.0400
Z" /> 
</g>
<g style="fill:none; 
stroke:#000000; stroke-width:0.1200; stroke-opacity:1; 
stroke-linecap:round; stroke-linejoin:round;">
<path d="M-100.2160 -311.5240
L-100.2160 -313.8240
" />
<path d="M-97.3160 -311.5240
L-100.2160 -311.5240
" />
<path d="M-97.3160 -311.5240
L-97.0160 -311.8240
" />
<path d="M-97.0160 -313.8240
L-100.2160 -313.8240
" />
<path d="M-97.0160 -313.8240
L-97.0160 -311.8240
" />
<path d="M-130.5160 -99.4240
L-130.5160 -101.7240
" />
<path d="M-127.6160 -99.4240
L-130.5160 -99.4240
" />
<path d="M-127.6160 -99.4240
L-127.3160 -99.7240
" />
<path d="M-127.3160 -101.7240
L-130.5160 -101.7240
" />
<path d="M-127.3160 -101.7240
L-127.3160 -99.7240
" />
<path d="M-221.4160 -220.6240
L-221.4160 -222.9240
" />
<path d="M-218.5160 -220.6240
L-221.4160 -220.6240
" />
<path d="M-218.5160 -220.6240
L-218.2160 -220.9240
" />
<path d="M-218.2160 -222.9240
L-221.4160 -222.9240
" />
<path d="M-218.2160 -222.9240
L-218.2160 -220.9240
" />
<path d="M-157.2000 -311.0000
L-155.8000 -311.0000
" />
<path d="M-157.2000 -309.6000
L-157.2000 -311.0000
" />
<path d="M-155.8000 -311.0000
L-155.8000 -309.6000
" />
<path d="M-155.8000 -309.6000
L-157.2000 -309.6000
" />
<path d="M-282.0160 -281.2240
L-282.0160 -283.5240
" />
<path d="M-279.1160 -281.2240
L-282.0160 -281.2240
" />
<path d="M-279.1160 -281.2240
L-278.8160 -281.5240
" />
<path d="M-278.8160 -283.5240
L-282.0160 -283.5240
" />
<path d="M-278.8160 -283.5240
L-278.8160 -281.5240
" />
<path d="M-237.5020 -82.9140
L-237.5020 -84.9140
" />
<path d="M-237.5020 -82.9140
L-234.3020 -82.9140
" />
<path d="M-237.2020 -85.2140
L-237.5020 -84.9140
" />
<path d="M-237.2020 -85.2140
L-234.3020 -85.2140
" />
<path d="M-234.3020 -85.2140
L-234.3020 -82.9140
" />
<path d="M-100.2160 -190.3240
L-100.2160 -192.6240
" />
<path d="M-97.3160 -190.3240
L-100.2160 -190.3240
" />
<path d="M-97.3160 -190.3240
L-97.0160 -190.6240
" />
<path d="M-97.0160 -192.6240
L-100.2160 -192.6240
" />
<path d="M-97.0160 -192.6240
L-97.0160 -190.6240
" />
<path d="M-251.7160 -99.4240
L-251.7160 -101.7240
" />
<path d="M-248.8160 -99.4240
L-251.7160 -99.4240
" />
<path d="M-248.8160 -99.4240
L-248.5160 -99.7240
" />
<path d="M-248.5160 -101.7240
L-251.7160 -101.7240
" />
<path d="M-248.5160 -101.7240
L-248.5160 -99.7240
" />
<path d="M-251.7160 -250.9240
L-251.7160 -253.2240
" />
<path d="M-248.8160 -250.9240
L-251.7160 -250.9240
" />
<path d="M-248.8160 -250.9240
L-248.5160 -251.2240
" />
<path d="M-248.5160 -253.2240
L-251.7160 -253.2240
" />
<path d="M-248.5160 -253.2240
L-248.5160 -251.2240
" />
<path d="M-187.8600 -292.5500
L-187.8600 -296.5600
" />
<path d="M-187.8600 -292.5500
L-185.8600 -292.5500
" />
<path d="M-185.8600 -292.5500
L-185.8600 -296.5600
" />
<path d="M-246.7800 -292.2200
L-246.7800 -296.2300
" />
<path d="M-246.7800 -292.2200
L-244.7800 -292.2200
" />
<path d="M-244.7800 -292.2200
L-244.7800 -296.2300
" />
<path d="M-125.6000 -293.7600
L-125.6000 -297.7700
" />
<path d="M-125.6000 -293.7600
L-123.6000 -293.7600
" />
<path d="M-123.6000 -293.7600
L-123.6000 -297.7700
" />
<path d="M-186.2200 -262.9600
L-186.2200 -266.9700
" />
<path d="M-186.2200 -262.9600
L-184.2200 -262.9600
" />
<path d="M-184.2200 -262.9600
L-184.2200 -266.9700
" />
<path d="M-176.9020 -204.1140
L-176.9020 -206.1140
" />
<path d="M-176.9020 -204.1140
L-173.7020 -204.1140
" />
<path d="M-176.6020 -206.4140
L-176.9020 -206.1140
" />
<path d="M-176.6020 -206.4140
L-173.7020 -206.4140
" />
<path d="M-173.7020 -206.4140
L-173.7020 -204.1140
" />
<path d="M-86.0020 -113.2140
L-86.0020 -115.2140
" />
<path d="M-86.0020 -113.2140
L-82.8020 -113.2140
" />
<path d="M-85.7020 -115.5140
L-86.0020 -115.2140
" />
<path d="M-85.7020 -115.5140
L-82.8020 -115.5140
" />
<path d="M-82.8020 -115.5140
L-82.8020 -113.2140
" />
<path d="M-70.6000 -294.4800
L-70.6000 -298.4900
" />
<path d="M-70.6000 -294.4800
L-68.6000 -294.4800
" />
<path d="M-68.6000 -294.4800
L-68.6000 -298.4900
" />
<path d="M-101.8700 -294.2400
L-101.8700 -298.2500
" />
<path d="M-101.8700 -294.2400
L-99.8700 -294.2400
" />
<path d="M-99.8700 -294.2400
L-99.8700 -298.2500
" />
<path d="M-95.3100 -232.3500
L-95.3100 -236.3600
" />
<path d="M-95.3100 -232.3500
L-93.3100 -232.3500
" />
<path d="M-93.3100 -232.3500
L-93.3100 -236.3600
" />
<path d="M-125.8100 -141.6400
L-125.8100 -145.6500
" />
<path d="M-125.8100 -141.6400
L-123.8100 -141.6400
" />
<path d="M-123.8100 -141.6400
L-123.8100 -145.6500
" />
<path d="M-267.8020 -264.7140
L-267.8020 -266.7140
" />
<path d="M-267.8020 -264.7140
L-264.6020 -264.7140
" />
<path d="M-267.5020 -267.0140
L-267.8020 -266.7140
" />
<path d="M-267.5020 -267.0140
L-264.6020 -267.0140
" />
<path d="M-264.6020 -267.0140
L-264.6020 -264.7140
" />
<path d="M-176.9020 -113.2140
L-176.9020 -115.2140
" />
<path d="M-176.9020 -113.2140
L-173.7020 -113.2140
" />
<path d="M-176.6020 -115.5140
L-176.9020 -115.2140
" />
<path d="M-176.6020 -115.5140
L-173.7020 -115.5140
" />
<path d="M-173.7020 -115.5140
L-173.7020 -113.2140
" />
<path d="M-169.8722 -299.8600
L-170.0878 -299.8600
" />
<path d="M-169.8722 -299.1400
L-170.0878 -299.1400
" />
<path d="M-100.2160 -129.7240
L-100.2160 -132.0240
" />
<path d="M-97.3160 -129.7240
L-100.2160 -129.7240
" />
<path d="M-97.3160 -129.7240
L-97.0160 -130.0240
" />
<path d="M-97.0160 -132.0240
L-100.2160 -132.0240
" />
<path d="M-97.0160 -132.0240
L-97.0160 -130.0240
" />
<path d="M-55.7020 -113.2140
L-55.7020 -115.2140
" />
<path d="M-55.7020 -113.2140
L-52.5020 -113.2140
" />
<path d="M-55.4020 -115.5140
L-55.7020 -115.2140
" />
<path d="M-55.4020 -115.5140
L-52.5020 -115.5140
" />
<path d="M-52.5020 -115.5140
L-52.5020 -113.2140
" />
<path d="M-221.4160 -99.4240
L-221.4160 -101.7240
" />
<path d="M-218.5160 -99.4240
L-221.4160 -99.4240
" />
<path d="M-218.5160 -99.4240
L-218.2160 -99.7240
" />
<path d="M-218.2160 -101.7240
L-221.4160 -101.7240
" />
<path d="M-218.2160 -101.7240
L-218.2160 -99.7240
" />
<path d="M-156.7564 -309.1800
L-157.0636 -309.1800
" />
<path d="M-156.7564 -308.4200
L-157.0636 -308.4200
" />
<path d="M-55.7020 -234.4140
L-55.7020 -236.4140
" />
<path d="M-55.7020 -234.4140
L-52.5020 -234.4140
" />
<path d="M-55.4020 -236.7140
L-55.7020 -236.4140
" />
<path d="M-55.4020 -236.7140
L-52.5020 -236.7140
" />
<path d="M-52.5020 -236.7140
L-52.5020 -234.4140
" />
<path d="M-170.3564 -314.3800
L-170.6636 -314.3800
" />
<path d="M-170.3564 -313.6200
L-170.6636 -313.6200
" />
<path d="M-146.6020 -234.4140
L-146.6020 -236.4140
" />
<path d="M-146.6020 -234.4140
L-143.4020 -234.4140
" />
<path d="M-146.3020 -236.7140
L-146.6020 -236.4140
" />
<path d="M-146.3020 -236.7140
L-143.4020 -236.7140
" />
<path d="M-143.4020 -236.7140
L-143.4020 -234.4140
" />
<path d="M-63.1400 -109.8675
L-63.1400 -105.8575
" />
<path d="M-61.1400 -109.8675
L-63.1400 -109.8675
" />
<path d="M-61.1400 -109.8675
L-61.1400 -105.8575
" />
<path d="M-277.0800 -292.2200
L-277.0800 -296.2300
" />
<path d="M-277.0800 -292.2200
L-275.0800 -292.2200
" />
<path d="M-275.0800 -292.2200
L-275.0800 -296.2300
" />
<path d="M-267.8020 -113.2140
L-267.8020 -115.2140
" />
<path d="M-267.8020 -113.2140
L-264.6020 -113.2140
" />
<path d="M-267.5020 -115.5140
L-267.8020 -115.2140
" />
<path d="M-267.5020 -115.5140
L-264.6020 -115.5140
" />
<path d="M-264.6020 -115.5140
L-264.6020 -113.2140
" />
<path d="M-175.2500 -311.2600
L-176.0500 -311.2600
" />
<path d="M-175.2500 -311.2600
L-174.4500 -311.2600
" />
<path d="M-175.2500 -308.1400
L-176.0500 -308.1400
" />
<path d="M-175.2500 -308.1400
L-174.4500 -308.1400
" />
<path style="fill:#000000; fill-opacity:1.0000; 
stroke:#000000; stroke-width:0.1200; stroke-opacity:1; 
stroke-linecap:round; stroke-linejoin:round;fill-rule:evenodd;"
d="M -176.5500,-311.2100
-176.7900,-311.5400
-176.3100,-311.5400
Z" /> 
</g>
<g style="fill:none; 
stroke:#000000; stroke-width:0.1200; stroke-opacity:1; 
stroke-linecap:round; stroke-linejoin:round;">
<path d="M-186.4300 -171.7700
L-186.4300 -175.7800
" />
<path d="M-186.4300 -171.7700
L-184.4300 -171.7700
" />
<path d="M-184.4300 -171.7700
L-184.4300 -175.7800
" />
<path d="M-237.5020 -295.0140
L-237.5020 -297.0140
" />
<path d="M-237.5020 -295.0140
L-234.3020 -295.0140
" />
<path d="M-237.2020 -297.3140
L-237.5020 -297.0140
" />
<path d="M-237.2020 -297.3140
L-234.3020 -297.3140
" />
<path d="M-234.3020 -297.3140
L-234.3020 -295.0140
" />
<path d="M-116.3020 -204.1140
L-116.3020 -206.1140
" />
<path d="M-116.3020 -204.1140
L-113.1020 -204.1140
" />
<path d="M-116.0020 -206.4140
L-116.3020 -206.1140
" />
<path d="M-116.0020 -206.4140
L-113.1020 -206.4140
" />
<path d="M-113.1020 -206.4140
L-113.1020 -204.1140
" />
<path d="M-177.7578 -305.0100
L-177.5422 -305.0100
" />
<path d="M-177.7578 -304.2900
L-177.5422 -304.2900
" />
<path d="M-174.1600 -303.1078
L-174.1600 -302.8922
" />
<path d="M-173.4400 -303.1078
L-173.4400 -302.8922
" />
<path d="M-160.8160 -281.2240
L-160.8160 -283.5240
" />
<path d="M-157.9160 -281.2240
L-160.8160 -281.2240
" />
<path d="M-157.9160 -281.2240
L-157.6160 -281.5240
" />
<path d="M-157.6160 -283.5240
L-160.8160 -283.5240
" />
<path d="M-157.6160 -283.5240
L-157.6160 -281.5240
" />
<path d="M-237.5020 -173.8140
L-237.5020 -175.8140
" />
<path d="M-237.5020 -173.8140
L-234.3020 -173.8140
" />
<path d="M-237.2020 -176.1140
L-237.5020 -175.8140
" />
<path d="M-237.2020 -176.1140
L-234.3020 -176.1140
" />
<path d="M-234.3020 -176.1140
L-234.3020 -173.8140
" />
</g>
<g style="fill:none; 
stroke:#000000; stroke-width:0.1270; stroke-opacity:1; 
stroke-linecap:round; stroke-linejoin:round;">
<path d="M-161.7000 -307.5000
L-161.7000 -301.5000
" />
<path d="M-156.7000 -307.5000
L-156.7000 -301.5000
" />
</g>
<g style="fill:none; 
stroke:#000000; stroke-width:0.2000; stroke-opacity:1; 
stroke-linecap:round; stroke-linejoin:round;">
<circle cx="-157.2950" cy="-308.5850" r="0.1000" /> 
</g>
<g style="fill:none; 
stroke:#000000; stroke-width:0.1200; stroke-opacity:1; 
stroke-linecap:round; stroke-linejoin:round;">
<path d="M-69.9160 -190.3240
L-69.9160 -192.6240
" />
<path d="M-67.0160 -190.3240
L-69.9160 -190.3240
" />
<path d="M-67.0160 -190.3240
L-66.7160 -190.6240
" />
<path d="M-66.7160 -192.6240
L-69.9160 -192.6240
" />
<path d="M-66.7160 -192.6240
L-66.7160 -190.6240
" />
<path d="M-130.5160 -129.7240
L-130.5160 -132.0240
" />
<path d="M-127.6160 -129.7240
L-130.5160 -129.7240
" />
<path d="M-127.6160 -129.7240
L-127.3160 -130.0240
" />
<path d="M-127.3160 -132.0240
L-130.5160 -132.0240
" />
<path d="M-127.3160 -132.0240
L-127.3160 -130.0240
" />
<path d="M-163.9600 -303.5078
L-163.9600 -303.2922
" />
<path d="M-163.2400 -303.5078
L-163.2400 -303.2922
" />
<path d="M-207.2020 -173.8140
L-207.2020 -175.8140
" />
<path d="M-207.2020 -173.8140
L-204.0020 -173.8140
" />
<path d="M-206.9020 -176.1140
L-207.2020 -175.8140
" />
<path d="M-206.9020 -176.1140
L-204.0020 -176.1140
" />
<path d="M-204.0020 -176.1140
L-204.0020 -173.8140
" />
<path d="M-146.6020 -295.0140
L-146.6020 -297.0140
" />
<path d="M-146.6020 -295.0140
L-143.4020 -295.0140
" />
<path d="M-146.3020 -297.3140
L-146.6020 -297.0140
" />
<path d="M-146.3020 -297.3140
L-143.4020 -297.3140
" />
<path d="M-143.4020 -297.3140
L-143.4020 -295.0140
" />
<path d="M-172.8700 -318.3080
L-172.8700 -317.2480
" />
<path d="M-164.8800 -315.1480
L-164.0800 -315.1480
" />
<path d="M-164.0800 -315.1480
L-164.0800 -315.2980
" />
<path d="M-163.3100 -317.2480
L-163.3100 -318.3080
" />
<path d="M-282.0160 -160.0240
L-282.0160 -162.3240
" />
<path d="M-279.1160 -160.0240
L-282.0160 -160.0240
" />
<path d="M-279.1160 -160.0240
L-278.8160 -160.3240
" />
<path d="M-278.8160 -162.3240
L-282.0160 -162.3240
" />
<path d="M-278.8160 -162.3240
L-278.8160 -160.3240
" />
<path d="M-207.2020 -295.0140
L-207.2020 -297.0140
" />
<path d="M-207.2020 -295.0140
L-204.0020 -295.0140
" />
<path d="M-206.9020 -297.3140
L-207.2020 -297.0140
" />
<path d="M-206.9020 -297.3140
L-204.0020 -297.3140
" />
<path d="M-204.0020 -297.3140
L-204.0020 -295.0140
" />
<path d="M-160.8160 -160.0240
L-160.8160 -162.3240
" />
<path d="M-157.9160 -160.0240
L-160.8160 -160.0240
" />
<path d="M-157.9160 -160.0240
L-157.6160 -160.3240
" />
<path d="M-157.6160 -162.3240
L-160.8160 -162.3240
" />
<path d="M-157.6160 -162.3240
L-157.6160 -160.3240
" />
<path d="M-174.0922 -312.3600
L-174.3078 -312.3600
" />
<path d="M-174.0922 -311.6400
L-174.3078 -311.6400
" />
<path d="M-55.7020 -204.1140
L-55.7020 -206.1140
" />
<path d="M-55.7020 -204.1140
L-52.5020 -204.1140
" />
<path d="M-55.4020 -206.4140
L-55.7020 -206.1140
" />
<path d="M-55.4020 -206.4140
L-52.5020 -206.4140
" />
<path d="M-52.5020 -206.4140
L-52.5020 -204.1140
" />
<path d="M-191.1160 -220.6240
L-191.1160 -222.9240
" />
<path d="M-188.2160 -220.6240
L-191.1160 -220.6240
" />
<path d="M-188.2160 -220.6240
L-187.9160 -220.9240
" />
<path d="M-187.9160 -222.9240
L-191.1160 -222.9240
" />
<path d="M-187.9160 -222.9240
L-187.9160 -220.9240
" />
<path d="M-277.0800 -261.9200
L-277.0800 -265.9300
" />
<path d="M-277.0800 -261.9200
L-275.0800 -261.9200
" />
<path d="M-275.0800 -261.9200
L-275.0800 -265.9300
" />
<path d="M-251.7160 -160.0240
L-251.7160 -162.3240
" />
<path d="M-248.8160 -160.0240
L-251.7160 -160.0240
" />
<path d="M-248.8160 -160.0240
L-248.5160 -160.3240
" />
<path d="M-248.5160 -162.3240
L-251.7160 -162.3240
" />
<path d="M-248.5160 -162.3240
L-248.5160 -160.3240
" />
<path d="M-86.0020 -295.0140
L-86.0020 -297.0140
" />
<path d="M-86.0020 -295.0140
L-82.8020 -295.0140
" />
<path d="M-85.7020 -297.3140
L-86.0020 -297.0140
" />
<path d="M-85.7020 -297.3140
L-82.8020 -297.3140
" />
<path d="M-82.8020 -297.3140
L-82.8020 -295.0140
" />
<path d="M-277.0800 -231.6200
L-277.0800 -235.6300
" />
<path d="M-277.0800 -231.6200
L-275.0800 -231.6200
" />
<path d="M-275.0800 -231.6200
L-275.0800 -235.6300
" />
<path d="M-221.4160 -160.0240
L-221.4160 -162.3240
" />
<path d="M-218.5160 -160.0240
L-221.4160 -160.0240
" />
<path d="M-218.5160 -160.0240
L-218.2160 -160.3240
" />
<path d="M-218.2160 -162.3240
L-221.4160 -162.3240
" />
<path d="M-218.2160 -162.3240
L-218.2160 -160.3240
" />
<path d="M-130.5160 -281.2240
L-130.5160 -283.5240
" />
<path d="M-127.6160 -281.2240
L-130.5160 -281.2240
" />
<path d="M-127.6160 -281.2240
L-127.3160 -281.5240
" />
<path d="M-127.3160 -283.5240
L-130.5160 -283.5240
" />
<path d="M-127.3160 -283.5240
L-127.3160 -281.5240
" />
<path d="M-63.1200 -168.3800
L-63.1200 -164.3700
" />
<path d="M-61.1200 -168.3800
L-63.1200 -168.3800
" />
<path d="M-61.1200 -168.3800
L-61.1200 -164.3700
" />
<path d="M-155.4700 -232.3400
L-155.4700 -236.3500
" />
<path d="M-155.4700 -232.3400
L-153.4700 -232.3400
" />
<path d="M-153.4700 -232.3400
L-153.4700 -236.3500
" />
<path d="M-65.0700 -232.0900
L-65.0700 -236.1000
" />
<path d="M-65.0700 -232.0900
L-63.0700 -232.0900
" />
<path d="M-63.0700 -232.0900
L-63.0700 -236.1000
" />
</g>
<g style="fill:none; 
stroke:#000000; stroke-width:0.2000; stroke-opacity:1; 
stroke-linecap:round; stroke-linejoin:round;">
<circle cx="-55.8800" cy="-142.5520" r="0.1000" /> 
</g>
<g style="fill:none; 
stroke:#000000; stroke-width:0.1200; stroke-opacity:1; 
stroke-linecap:round; stroke-linejoin:round;">
<path d="M-95.2900 -262.5900
L-95.2900 -266.6000
" />
<path d="M-95.2900 -262.5900
L-93.2900 -262.5900
" />
<path d="M-93.2900 -262.5900
L-93.2900 -266.6000
" />
<path d="M-237.5020 -204.1140
L-237.5020 -206.1140
" />
<path d="M-237.5020 -204.1140
L-234.3020 -204.1140
" />
<path d="M-237.2020 -206.4140
L-237.5020 -206.1140
" />
<path d="M-237.2020 -206.4140
L-234.3020 -206.4140
" />
<path d="M-234.3020 -206.4140
L-234.3020 -204.1140
" />
<path d="M-174.6800 -306.8536
L-174.6800 -306.5464
" />
<path d="M-173.9200 -306.8536
L-173.9200 -306.5464
" />
<path d="M-95.4300 -111.3700
L-95.4300 -115.3800
" />
<path d="M-95.4300 -111.3700
L-93.4300 -111.3700
" />
<path d="M-93.4300 -111.3700
L-93.4300 -115.3800
" />
<path d="M-100.2160 -99.4240
L-100.2160 -101.7240
" />
<path d="M-97.3160 -99.4240
L-100.2160 -99.4240
" />
<path d="M-97.3160 -99.4240
L-97.0160 -99.7240
" />
<path d="M-97.0160 -101.7240
L-100.2160 -101.7240
" />
<path d="M-97.0160 -101.7240
L-97.0160 -99.7240
" />
<path d="M-146.6020 -113.2140
L-146.6020 -115.2140
" />
<path d="M-146.6020 -113.2140
L-143.4020 -113.2140
" />
<path d="M-146.3020 -115.5140
L-146.6020 -115.2140
" />
<path d="M-146.3020 -115.5140
L-143.4020 -115.5140
" />
<path d="M-143.4020 -115.5140
L-143.4020 -113.2140
" />
<path d="M-246.8900 -171.8200
L-246.8900 -175.8300
" />
<path d="M-246.8900 -171.8200
L-244.8900 -171.8200
" />
<path d="M-244.8900 -171.8200
L-244.8900 -175.8300
" />
<path d="M-282.0160 -250.9240
L-282.0160 -253.2240
" />
<path d="M-279.1160 -250.9240
L-282.0160 -250.9240
" />
<path d="M-279.1160 -250.9240
L-278.8160 -251.2240
" />
<path d="M-278.8160 -253.2240
L-282.0160 -253.2240
" />
<path d="M-278.8160 -253.2240
L-278.8160 -251.2240
" />
<path d="M-237.5020 -234.4140
L-237.5020 -236.4140
" />
<path d="M-237.5020 -234.4140
L-234.3020 -234.4140
" />
<path d="M-237.2020 -236.7140
L-237.5020 -236.4140
" />
<path d="M-237.2020 -236.7140
L-234.3020 -236.7140
" />
<path d="M-234.3020 -236.7140
L-234.3020 -234.4140
" />
<path d="M-191.1160 -99.4240
L-191.1160 -101.7240
" />
<path d="M-188.2160 -99.4240
L-191.1160 -99.4240
" />
<path d="M-188.2160 -99.4240
L-187.9160 -99.7240
" />
<path d="M-187.9160 -101.7240
L-191.1160 -101.7240
" />
<path d="M-187.9160 -101.7240
L-187.9160 -99.7240
" />
<path d="M-176.9020 -264.7140
L-176.9020 -266.7140
" />
<path d="M-176.9020 -264.7140
L-173.7020 -264.7140
" />
<path d="M-176.6020 -267.0140
L-176.9020 -266.7140
" />
<path d="M-176.6020 -267.0140
L-173.7020 -267.0140
" />
<path d="M-173.7020 -267.0140
L-173.7020 -264.7140
" />
<path d="M-221.4160 -190.3240
L-221.4160 -192.6240
" />
<path d="M-218.5160 -190.3240
L-221.4160 -190.3240
" />
<path d="M-218.5160 -190.3240
L-218.2160 -190.6240
" />
<path d="M-218.2160 -192.6240
L-221.4160 -192.6240
" />
<path d="M-218.2160 -192.6240
L-218.2160 -190.6240
" />
<path d="M-237.5020 -143.5140
L-237.5020 -145.5140
" />
<path d="M-237.5020 -143.5140
L-234.3020 -143.5140
" />
<path d="M-237.2020 -145.8140
L-237.5020 -145.5140
" />
<path d="M-237.2020 -145.8140
L-234.3020 -145.8140
" />
<path d="M-234.3020 -145.8140
L-234.3020 -143.5140
" />
<path d="M-130.5160 -220.6240
L-130.5160 -222.9240
" />
<path d="M-127.6160 -220.6240
L-130.5160 -220.6240
" />
<path d="M-127.6160 -220.6240
L-127.3160 -220.9240
" />
<path d="M-127.3160 -222.9240
L-130.5160 -222.9240
" />
<path d="M-127.3160 -222.9240
L-127.3160 -220.9240
" />
<path d="M-246.8800 -80.8800
L-246.8800 -84.8900
" />
<path d="M-246.8800 -80.8800
L-244.8800 -80.8800
" />
<path d="M-244.8800 -80.8800
L-244.8800 -84.8900
" />
<path d="M-160.8160 -220.6240
L-160.8160 -222.9240
" />
<path d="M-157.9160 -220.6240
L-160.8160 -220.6240
" />
<path d="M-157.9160 -220.6240
L-157.6160 -220.9240
" />
<path d="M-157.6160 -222.9240
L-160.8160 -222.9240
" />
<path d="M-157.6160 -222.9240
L-157.6160 -220.9240
" />
<path d="M-176.9020 -143.5140
L-176.9020 -145.5140
" />
<path d="M-176.9020 -143.5140
L-173.7020 -143.5140
" />
<path d="M-176.6020 -145.8140
L-176.9020 -145.5140
" />
<path d="M-176.6020 -145.8140
L-173.7020 -145.8140
" />
<path d="M-173.7020 -145.8140
L-173.7020 -143.5140
" />
<path d="M-221.4160 -311.5240
L-221.4160 -313.8240
" />
<path d="M-218.5160 -311.5240
L-221.4160 -311.5240
" />
<path d="M-218.5160 -311.5240
L-218.2160 -311.8240
" />
<path d="M-218.2160 -313.8240
L-221.4160 -313.8240
" />
<path d="M-218.2160 -313.8240
L-218.2160 -311.8240
" />
<path d="M-176.9020 -82.9140
L-176.9020 -84.9140
" />
<path d="M-176.9020 -82.9140
L-173.7020 -82.9140
" />
<path d="M-176.6020 -85.2140
L-176.9020 -84.9140
" />
<path d="M-176.6020 -85.2140
L-173.7020 -85.2140
" />
<path d="M-173.7020 -85.2140
L-173.7020 -82.9140
" />
<path d="M-55.7020 -295.0140
L-55.7020 -297.0140
" />
<path d="M-55.7020 -295.0140
L-52.5020 -295.0140
" />
<path d="M-55.4020 -297.3140
L-55.7020 -297.0140
" />
<path d="M-55.4020 -297.3140
L-52.5020 -297.3140
" />
<path d="M-52.5020 -297.3140
L-52.5020 -295.0140
" />
</g>
<g style="fill:none; 
stroke:#000000; stroke-width:0.2000; stroke-opacity:1; 
stroke-linecap:round; stroke-linejoin:round;">
<circle cx="-55.8800" cy="-203.1520" r="0.1000" /> 
</g>
<g style="fill:none; 
stroke:#000000; stroke-width:0.1200; stroke-opacity:1; 
stroke-linecap:round; stroke-linejoin:round;">
<path d="M-170.7800 -310.1536
L-170.7800 -309.8464
" />
<path d="M-170.0200 -310.1536
L-170.0200 -309.8464
" />
<path d="M-95.3000 -80.8600
L-95.3000 -84.8700
" />
<path d="M-95.3000 -80.8600
L-93.3000 -80.8600
" />
<path d="M-93.3000 -80.8600
L-93.3000 -84.8700
" />
<path d="M-165.0800 -295.1536
L-165.0800 -294.8464
" />
<path d="M-164.3200 -295.1536
L-164.3200 -294.8464
" />
</g>
<g style="fill:none; 
stroke:#000000; stroke-width:0.2000; stroke-opacity:1; 
stroke-linecap:round; stroke-linejoin:round;">
<circle cx="-55.8800" cy="-112.2520" r="0.1000" /> 
</g>
<g style="fill:none; 
stroke:#000000; stroke-width:0.1200; stroke-opacity:1; 
stroke-linecap:round; stroke-linejoin:round;">
<path d="M-216.4800 -292.2200
L-216.4800 -296.2300
" />
<path d="M-216.4800 -292.2200
L-214.4800 -292.2200
" />
<path d="M-214.4800 -292.2200
L-214.4800 -296.2300
" />
<path d="M-116.3020 -113.2140
L-116.3020 -115.2140
" />
<path d="M-116.3020 -113.2140
L-113.1020 -113.2140
" />
<path d="M-116.0020 -115.5140
L-116.3020 -115.2140
" />
<path d="M-116.0020 -115.5140
L-113.1020 -115.5140
" />
<path d="M-113.1020 -115.5140
L-113.1020 -113.2140
" />
<path d="M-176.9020 -173.8140
L-176.9020 -175.8140
" />
<path d="M-176.9020 -173.8140
L-173.7020 -173.8140
" />
<path d="M-176.6020 -176.1140
L-176.9020 -175.8140
" />
<path d="M-176.6020 -176.1140
L-173.7020 -176.1140
" />
<path d="M-173.7020 -176.1140
L-173.7020 -173.8140
" />
<path d="M-172.9100 -311.7021
L-172.9100 -310.4979
" />
<path d="M-171.0900 -311.7021
L-171.0900 -310.4979
" />
<path d="M-277.3200 -80.6200
L-277.3200 -84.6300
" />
<path d="M-277.3200 -80.6200
L-275.3200 -80.6200
" />
<path d="M-275.3200 -80.6200
L-275.3200 -84.6300
" />
<path d="M-125.8500 -111.4100
L-125.8500 -115.4200
" />
<path d="M-125.8500 -111.4100
L-123.8500 -111.4100
" />
<path d="M-123.8500 -111.4100
L-123.8500 -115.4200
" />
<path d="M-156.0000 -80.8500
L-156.0000 -84.8600
" />
<path d="M-156.0000 -80.8500
L-154.0000 -80.8500
" />
<path d="M-154.0000 -80.8500
L-154.0000 -84.8600
" />
<path d="M-166.1222 -309.1100
L-166.3378 -309.1100
" />
<path d="M-166.1222 -308.3900
L-166.3378 -308.3900
" />
<path d="M-277.0800 -140.7200
L-277.0800 -144.7300
" />
<path d="M-277.0800 -140.7200
L-275.0800 -140.7200
" />
<path d="M-275.0800 -140.7200
L-275.0800 -144.7300
" />
<path d="M-216.3900 -141.8100
L-216.3900 -145.8200
" />
<path d="M-216.3900 -141.8100
L-214.3900 -141.8100
" />
<path d="M-214.3900 -141.8100
L-214.3900 -145.8200
" />
<path d="M-251.7160 -129.7240
L-251.7160 -132.0240
" />
<path d="M-248.8160 -129.7240
L-251.7160 -129.7240
" />
<path d="M-248.8160 -129.7240
L-248.5160 -130.0240
" />
<path d="M-248.5160 -132.0240
L-251.7160 -132.0240
" />
<path d="M-248.5160 -132.0240
L-248.5160 -130.0240
" />
<path d="M-277.0800 -171.0200
L-277.0800 -175.0300
" />
<path d="M-277.0800 -171.0200
L-275.0800 -171.0200
" />
<path d="M-275.0800 -171.0200
L-275.0800 -175.0300
" />
<path d="M-267.8020 -173.8140
L-267.8020 -175.8140
" />
<path d="M-267.8020 -173.8140
L-264.6020 -173.8140
" />
<path d="M-267.5020 -176.1140
L-267.8020 -175.8140
" />
<path d="M-267.5020 -176.1140
L-264.6020 -176.1140
" />
<path d="M-264.6020 -176.1140
L-264.6020 -173.8140
" />
<path d="M-65.0400 -111.2000
L-65.0400 -115.2100
" />
<path d="M-65.0400 -111.2000
L-63.0400 -111.2000
" />
<path d="M-63.0400 -111.2000
L-63.0400 -115.2100
" />
<path d="M-160.8160 -99.4240
L-160.8160 -101.7240
" />
<path d="M-157.9160 -99.4240
L-160.8160 -99.4240
" />
<path d="M-157.9160 -99.4240
L-157.6160 -99.7240
" />
<path d="M-157.6160 -101.7240
L-160.8160 -101.7240
" />
<path d="M-157.6160 -101.7240
L-157.6160 -99.7240
" />
<path d="M-130.5160 -250.9240
L-130.5160 -253.2240
" />
<path d="M-127.6160 -250.9240
L-130.5160 -250.9240
" />
<path d="M-127.6160 -250.9240
L-127.3160 -251.2240
" />
<path d="M-127.3160 -253.2240
L-130.5160 -253.2240
" />
<path d="M-127.3160 -253.2240
L-127.3160 -251.2240
" />
<path d="M-69.9160 -250.9240
L-69.9160 -253.2240
" />
<path d="M-67.0160 -250.9240
L-69.9160 -250.9240
" />
<path d="M-67.0160 -250.9240
L-66.7160 -251.2240
" />
<path d="M-66.7160 -253.2240
L-69.9160 -253.2240
" />
<path d="M-66.7160 -253.2240
L-66.7160 -251.2240
" />
<path d="M-163.7800 -308.0564
L-163.7800 -308.3636
" />
<path d="M-163.0200 -308.0564
L-163.0200 -308.3636
" />
<path d="M-191.1160 -311.5240
L-191.1160 -313.8240
" />
<path d="M-188.2160 -311.5240
L-191.1160 -311.5240
" />
<path d="M-188.2160 -311.5240
L-187.9160 -311.8240
" />
<path d="M-187.9160 -313.8240
L-191.1160 -313.8240
" />
<path d="M-187.9160 -313.8240
L-187.9160 -311.8240
" />
<path d="M-116.3020 -143.5140
L-116.3020 -145.5140
" />
<path d="M-116.3020 -143.5140
L-113.1020 -143.5140
" />
<path d="M-116.0020 -145.8140
L-116.3020 -145.5140
" />
<path d="M-116.0020 -145.8140
L-113.1020 -145.8140
" />
<path d="M-113.1020 -145.8140
L-113.1020 -143.5140
" />
<path d="M-216.4900 -262.9600
L-216.4900 -266.9700
" />
<path d="M-216.4900 -262.9600
L-214.4900 -262.9600
" />
<path d="M-214.4900 -262.9600
L-214.4900 -266.9700
" />
<path d="M-146.6020 -204.1140
L-146.6020 -206.1140
" />
<path d="M-146.6020 -204.1140
L-143.4020 -204.1140
" />
<path d="M-146.3020 -206.4140
L-146.6020 -206.1140
" />
<path d="M-146.3020 -206.4140
L-143.4020 -206.4140
" />
<path d="M-143.4020 -206.4140
L-143.4020 -204.1140
" />
<path d="M-173.6600 -306.8722
L-173.6600 -307.0878
" />
<path d="M-172.9400 -306.8722
L-172.9400 -307.0878
" />
<path d="M-86.0020 -173.8140
L-86.0020 -175.8140
" />
<path d="M-86.0020 -173.8140
L-82.8020 -173.8140
" />
<path d="M-85.7020 -176.1140
L-86.0020 -175.8140
" />
<path d="M-85.7020 -176.1140
L-82.8020 -176.1140
" />
<path d="M-82.8020 -176.1140
L-82.8020 -173.8140
" />
<path d="M-146.6020 -173.8140
L-146.6020 -175.8140
" />
<path d="M-146.6020 -173.8140
L-143.4020 -173.8140
" />
<path d="M-146.3020 -176.1140
L-146.6020 -175.8140
" />
<path d="M-146.3020 -176.1140
L-143.4020 -176.1140
" />
<path d="M-143.4020 -176.1140
L-143.4020 -173.8140
" />
<path d="M-267.8020 -204.1140
L-267.8020 -206.1140
" />
<path d="M-267.8020 -204.1140
L-264.6020 -204.1140
" />
<path d="M-267.5020 -206.4140
L-267.8020 -206.1140
" />
<path d="M-267.5020 -206.4140
L-264.6020 -206.4140
" />
<path d="M-264.6020 -206.4140
L-264.6020 -204.1140
" />
<path d="M-65.0300 -262.5100
L-65.0300 -266.5200
" />
<path d="M-65.0300 -262.5100
L-63.0300 -262.5100
" />
<path d="M-63.0300 -262.5100
L-63.0300 -266.5200
" />
</g> 
</svg>
