<?xml version="1.0" standalone="no"?>
 <!DOCTYPE svg PUBLIC "-//W3C//DTD SVG 1.1//EN" 
 "http://www.w3.org/Graphics/SVG/1.1/DTD/svg11.dtd"> 
<svg
  xmlns:svg="http://www.w3.org/2000/svg"
  xmlns="http://www.w3.org/2000/svg"
  xmlns:xlink="http://www.w3.org/1999/xlink"
  version="1.1"
  width="297.0022mm" height="210.0072mm" viewBox="0.0000 0.0000 297.0022 210.0072">
<title>SVG Image created as Button MIDI Controller-User_Comments.svg date 2025/06/01 17:28:51 </title>
  <desc>Image generated by PCBNEW </desc>
<g style="fill:#000000; fill-opacity:1.0000;stroke:#000000; stroke-opacity:1.0000;
stroke-linecap:round; stroke-linejoin:round;"
 transform="translate(0 0) scale(1 1)">
</g>
<g style="fill:none; 
stroke:#000000; stroke-width:0.1500; stroke-opacity:1; 
stroke-linecap:round; stroke-linejoin:round;">
<g transform="rotate(-90.000000 -62.5475 -258.4345)">
<text x="-62.5475" y="-257.9345"
textLength="2.1548" font-size="1.3333" lengthAdjust="spacingAndGlyphs"
text-anchor="middle" opacity="0" stroke-opacity="0">S2</text>
</g>
<g class="stroked-text"><desc>S2</desc>
<path d="M-62.1403 -257.6726
L-62.0927 -257.8155
" />
<path d="M-62.0927 -257.8155
L-62.0927 -258.0535
" />
<path d="M-62.0927 -258.0535
L-62.1403 -258.1488
" />
<path d="M-62.1403 -258.1488
L-62.1879 -258.1964
" />
<path d="M-62.1879 -258.1964
L-62.2832 -258.2440
" />
<path d="M-62.2832 -258.2440
L-62.3784 -258.2440
" />
<path d="M-62.3784 -258.2440
L-62.4736 -258.1964
" />
<path d="M-62.4736 -258.1964
L-62.5213 -258.1488
" />
<path d="M-62.5213 -258.1488
L-62.5689 -258.0535
" />
<path d="M-62.5689 -258.0535
L-62.6165 -257.8631
" />
<path d="M-62.6165 -257.8631
L-62.6641 -257.7678
" />
<path d="M-62.6641 -257.7678
L-62.7117 -257.7202
" />
<path d="M-62.7117 -257.7202
L-62.8070 -257.6726
" />
<path d="M-62.8070 -257.6726
L-62.9022 -257.6726
" />
<path d="M-62.9022 -257.6726
L-62.9974 -257.7202
" />
<path d="M-62.9974 -257.7202
L-63.0451 -257.7678
" />
<path d="M-63.0451 -257.7678
L-63.0927 -257.8631
" />
<path d="M-63.0927 -257.8631
L-63.0927 -258.1012
" />
<path d="M-63.0927 -258.1012
L-63.0451 -258.2440
" />
<path d="M-62.9974 -258.6250
L-63.0451 -258.6726
" />
<path d="M-63.0451 -258.6726
L-63.0927 -258.7678
" />
<path d="M-63.0927 -258.7678
L-63.0927 -259.0059
" />
<path d="M-63.0927 -259.0059
L-63.0451 -259.1012
" />
<path d="M-63.0451 -259.1012
L-62.9974 -259.1488
" />
<path d="M-62.9974 -259.1488
L-62.9022 -259.1964
" />
<path d="M-62.9022 -259.1964
L-62.8070 -259.1964
" />
<path d="M-62.8070 -259.1964
L-62.6641 -259.1488
" />
<path d="M-62.6641 -259.1488
L-62.0927 -258.5774
" />
<path d="M-62.0927 -258.5774
L-62.0927 -259.1964
" />
</g><g transform="rotate(-90.000000 -62.5475 -288.7345)">
<text x="-62.5475" y="-288.2345"
textLength="2.1548" font-size="1.3333" lengthAdjust="spacingAndGlyphs"
text-anchor="middle" opacity="0" stroke-opacity="0">S1</text>
</g>
<g class="stroked-text"><desc>S1</desc>
<path d="M-62.1403 -287.9726
L-62.0927 -288.1155
" />
<path d="M-62.0927 -288.1155
L-62.0927 -288.3535
" />
<path d="M-62.0927 -288.3535
L-62.1403 -288.4488
" />
<path d="M-62.1403 -288.4488
L-62.1879 -288.4964
" />
<path d="M-62.1879 -288.4964
L-62.2832 -288.5440
" />
<path d="M-62.2832 -288.5440
L-62.3784 -288.5440
" />
<path d="M-62.3784 -288.5440
L-62.4736 -288.4964
" />
<path d="M-62.4736 -288.4964
L-62.5213 -288.4488
" />
<path d="M-62.5213 -288.4488
L-62.5689 -288.3535
" />
<path d="M-62.5689 -288.3535
L-62.6165 -288.1631
" />
<path d="M-62.6165 -288.1631
L-62.6641 -288.0678
" />
<path d="M-62.6641 -288.0678
L-62.7117 -288.0202
" />
<path d="M-62.7117 -288.0202
L-62.8070 -287.9726
" />
<path d="M-62.8070 -287.9726
L-62.9022 -287.9726
" />
<path d="M-62.9022 -287.9726
L-62.9974 -288.0202
" />
<path d="M-62.9974 -288.0202
L-63.0451 -288.0678
" />
<path d="M-63.0451 -288.0678
L-63.0927 -288.1631
" />
<path d="M-63.0927 -288.1631
L-63.0927 -288.4012
" />
<path d="M-63.0927 -288.4012
L-63.0451 -288.5440
" />
<path d="M-62.0927 -289.4964
L-62.0927 -288.9250
" />
<path d="M-62.0927 -289.2107
L-63.0927 -289.2107
" />
<path d="M-63.0927 -289.2107
L-62.9498 -289.1155
" />
<path d="M-62.9498 -289.1155
L-62.8546 -289.0202
" />
<path d="M-62.8546 -289.0202
L-62.8070 -288.9250
" />
</g><g transform="rotate(-90.000000 -62.5475 -167.5345)">
<text x="-62.5475" y="-167.0345"
textLength="2.1548" font-size="1.3333" lengthAdjust="spacingAndGlyphs"
text-anchor="middle" opacity="0" stroke-opacity="0">S5</text>
</g>
<g class="stroked-text"><desc>S5</desc>
<path d="M-62.1403 -166.7726
L-62.0927 -166.9155
" />
<path d="M-62.0927 -166.9155
L-62.0927 -167.1535
" />
<path d="M-62.0927 -167.1535
L-62.1403 -167.2488
" />
<path d="M-62.1403 -167.2488
L-62.1879 -167.2964
" />
<path d="M-62.1879 -167.2964
L-62.2832 -167.3440
" />
<path d="M-62.2832 -167.3440
L-62.3784 -167.3440
" />
<path d="M-62.3784 -167.3440
L-62.4736 -167.2964
" />
<path d="M-62.4736 -167.2964
L-62.5213 -167.2488
" />
<path d="M-62.5213 -167.2488
L-62.5689 -167.1535
" />
<path d="M-62.5689 -167.1535
L-62.6165 -166.9631
" />
<path d="M-62.6165 -166.9631
L-62.6641 -166.8678
" />
<path d="M-62.6641 -166.8678
L-62.7117 -166.8202
" />
<path d="M-62.7117 -166.8202
L-62.8070 -166.7726
" />
<path d="M-62.8070 -166.7726
L-62.9022 -166.7726
" />
<path d="M-62.9022 -166.7726
L-62.9974 -166.8202
" />
<path d="M-62.9974 -166.8202
L-63.0451 -166.8678
" />
<path d="M-63.0451 -166.8678
L-63.0927 -166.9631
" />
<path d="M-63.0927 -166.9631
L-63.0927 -167.2012
" />
<path d="M-63.0927 -167.2012
L-63.0451 -167.3440
" />
<path d="M-63.0927 -168.2488
L-63.0927 -167.7726
" />
<path d="M-63.0927 -167.7726
L-62.6165 -167.7250
" />
<path d="M-62.6165 -167.7250
L-62.6641 -167.7726
" />
<path d="M-62.6641 -167.7726
L-62.7117 -167.8678
" />
<path d="M-62.7117 -167.8678
L-62.7117 -168.1059
" />
<path d="M-62.7117 -168.1059
L-62.6641 -168.2012
" />
<path d="M-62.6641 -168.2012
L-62.6165 -168.2488
" />
<path d="M-62.6165 -168.2488
L-62.5213 -168.2964
" />
<path d="M-62.5213 -168.2964
L-62.2832 -168.2964
" />
<path d="M-62.2832 -168.2964
L-62.1879 -168.2488
" />
<path d="M-62.1879 -168.2488
L-62.1403 -168.2012
" />
<path d="M-62.1403 -168.2012
L-62.0927 -168.1059
" />
<path d="M-62.0927 -168.1059
L-62.0927 -167.8678
" />
<path d="M-62.0927 -167.8678
L-62.1403 -167.7726
" />
<path d="M-62.1403 -167.7726
L-62.1879 -167.7250
" />
</g><g transform="rotate(-90.000000 -62.5475 -228.1345)">
<text x="-62.5475" y="-227.6345"
textLength="2.1548" font-size="1.3333" lengthAdjust="spacingAndGlyphs"
text-anchor="middle" opacity="0" stroke-opacity="0">S3</text>
</g>
<g class="stroked-text"><desc>S3</desc>
<path d="M-62.1403 -227.3726
L-62.0927 -227.5155
" />
<path d="M-62.0927 -227.5155
L-62.0927 -227.7535
" />
<path d="M-62.0927 -227.7535
L-62.1403 -227.8488
" />
<path d="M-62.1403 -227.8488
L-62.1879 -227.8964
" />
<path d="M-62.1879 -227.8964
L-62.2832 -227.9440
" />
<path d="M-62.2832 -227.9440
L-62.3784 -227.9440
" />
<path d="M-62.3784 -227.9440
L-62.4736 -227.8964
" />
<path d="M-62.4736 -227.8964
L-62.5213 -227.8488
" />
<path d="M-62.5213 -227.8488
L-62.5689 -227.7535
" />
<path d="M-62.5689 -227.7535
L-62.6165 -227.5631
" />
<path d="M-62.6165 -227.5631
L-62.6641 -227.4678
" />
<path d="M-62.6641 -227.4678
L-62.7117 -227.4202
" />
<path d="M-62.7117 -227.4202
L-62.8070 -227.3726
" />
<path d="M-62.8070 -227.3726
L-62.9022 -227.3726
" />
<path d="M-62.9022 -227.3726
L-62.9974 -227.4202
" />
<path d="M-62.9974 -227.4202
L-63.0451 -227.4678
" />
<path d="M-63.0451 -227.4678
L-63.0927 -227.5631
" />
<path d="M-63.0927 -227.5631
L-63.0927 -227.8012
" />
<path d="M-63.0927 -227.8012
L-63.0451 -227.9440
" />
<path d="M-63.0927 -228.2774
L-63.0927 -228.8964
" />
<path d="M-63.0927 -228.8964
L-62.7117 -228.5631
" />
<path d="M-62.7117 -228.5631
L-62.7117 -228.7059
" />
<path d="M-62.7117 -228.7059
L-62.6641 -228.8012
" />
<path d="M-62.6641 -228.8012
L-62.6165 -228.8488
" />
<path d="M-62.6165 -228.8488
L-62.5213 -228.8964
" />
<path d="M-62.5213 -228.8964
L-62.2832 -228.8964
" />
<path d="M-62.2832 -228.8964
L-62.1879 -228.8488
" />
<path d="M-62.1879 -228.8488
L-62.1403 -228.8012
" />
<path d="M-62.1403 -228.8012
L-62.0927 -228.7059
" />
<path d="M-62.0927 -228.7059
L-62.0927 -228.4202
" />
<path d="M-62.0927 -228.4202
L-62.1403 -228.3250
" />
<path d="M-62.1403 -228.3250
L-62.1879 -228.2774
" />
</g><g transform="rotate(-90.000000 -62.5475 -137.2345)">
<text x="-62.5475" y="-136.7345"
textLength="2.1548" font-size="1.3333" lengthAdjust="spacingAndGlyphs"
text-anchor="middle" opacity="0" stroke-opacity="0">S6</text>
</g>
<g class="stroked-text"><desc>S6</desc>
<path d="M-62.1403 -136.4726
L-62.0927 -136.6155
" />
<path d="M-62.0927 -136.6155
L-62.0927 -136.8535
" />
<path d="M-62.0927 -136.8535
L-62.1403 -136.9488
" />
<path d="M-62.1403 -136.9488
L-62.1879 -136.9964
" />
<path d="M-62.1879 -136.9964
L-62.2832 -137.0440
" />
<path d="M-62.2832 -137.0440
L-62.3784 -137.0440
" />
<path d="M-62.3784 -137.0440
L-62.4736 -136.9964
" />
<path d="M-62.4736 -136.9964
L-62.5213 -136.9488
" />
<path d="M-62.5213 -136.9488
L-62.5689 -136.8535
" />
<path d="M-62.5689 -136.8535
L-62.6165 -136.6631
" />
<path d="M-62.6165 -136.6631
L-62.6641 -136.5678
" />
<path d="M-62.6641 -136.5678
L-62.7117 -136.5202
" />
<path d="M-62.7117 -136.5202
L-62.8070 -136.4726
" />
<path d="M-62.8070 -136.4726
L-62.9022 -136.4726
" />
<path d="M-62.9022 -136.4726
L-62.9974 -136.5202
" />
<path d="M-62.9974 -136.5202
L-63.0451 -136.5678
" />
<path d="M-63.0451 -136.5678
L-63.0927 -136.6631
" />
<path d="M-63.0927 -136.6631
L-63.0927 -136.9012
" />
<path d="M-63.0927 -136.9012
L-63.0451 -137.0440
" />
<path d="M-63.0927 -137.9012
L-63.0927 -137.7107
" />
<path d="M-63.0927 -137.7107
L-63.0451 -137.6155
" />
<path d="M-63.0451 -137.6155
L-62.9974 -137.5678
" />
<path d="M-62.9974 -137.5678
L-62.8546 -137.4726
" />
<path d="M-62.8546 -137.4726
L-62.6641 -137.4250
" />
<path d="M-62.6641 -137.4250
L-62.2832 -137.4250
" />
<path d="M-62.2832 -137.4250
L-62.1879 -137.4726
" />
<path d="M-62.1879 -137.4726
L-62.1403 -137.5202
" />
<path d="M-62.1403 -137.5202
L-62.0927 -137.6155
" />
<path d="M-62.0927 -137.6155
L-62.0927 -137.8059
" />
<path d="M-62.0927 -137.8059
L-62.1403 -137.9012
" />
<path d="M-62.1403 -137.9012
L-62.1879 -137.9488
" />
<path d="M-62.1879 -137.9488
L-62.2832 -137.9964
" />
<path d="M-62.2832 -137.9964
L-62.5213 -137.9964
" />
<path d="M-62.5213 -137.9964
L-62.6165 -137.9488
" />
<path d="M-62.6165 -137.9488
L-62.6641 -137.9012
" />
<path d="M-62.6641 -137.9012
L-62.7117 -137.8059
" />
<path d="M-62.7117 -137.8059
L-62.7117 -137.6155
" />
<path d="M-62.7117 -137.6155
L-62.6641 -137.5202
" />
<path d="M-62.6641 -137.5202
L-62.6165 -137.4726
" />
<path d="M-62.6165 -137.4726
L-62.5213 -137.4250
" />
</g><g transform="rotate(-90.000000 -62.5475 -197.8345)">
<text x="-62.5475" y="-197.3345"
textLength="2.1548" font-size="1.3333" lengthAdjust="spacingAndGlyphs"
text-anchor="middle" opacity="0" stroke-opacity="0">S4</text>
</g>
<g class="stroked-text"><desc>S4</desc>
<path d="M-62.1403 -197.0726
L-62.0927 -197.2155
" />
<path d="M-62.0927 -197.2155
L-62.0927 -197.4535
" />
<path d="M-62.0927 -197.4535
L-62.1403 -197.5488
" />
<path d="M-62.1403 -197.5488
L-62.1879 -197.5964
" />
<path d="M-62.1879 -197.5964
L-62.2832 -197.6440
" />
<path d="M-62.2832 -197.6440
L-62.3784 -197.6440
" />
<path d="M-62.3784 -197.6440
L-62.4736 -197.5964
" />
<path d="M-62.4736 -197.5964
L-62.5213 -197.5488
" />
<path d="M-62.5213 -197.5488
L-62.5689 -197.4535
" />
<path d="M-62.5689 -197.4535
L-62.6165 -197.2631
" />
<path d="M-62.6165 -197.2631
L-62.6641 -197.1678
" />
<path d="M-62.6641 -197.1678
L-62.7117 -197.1202
" />
<path d="M-62.7117 -197.1202
L-62.8070 -197.0726
" />
<path d="M-62.8070 -197.0726
L-62.9022 -197.0726
" />
<path d="M-62.9022 -197.0726
L-62.9974 -197.1202
" />
<path d="M-62.9974 -197.1202
L-63.0451 -197.1678
" />
<path d="M-63.0451 -197.1678
L-63.0927 -197.2631
" />
<path d="M-63.0927 -197.2631
L-63.0927 -197.5012
" />
<path d="M-63.0927 -197.5012
L-63.0451 -197.6440
" />
<path d="M-62.7593 -198.5012
L-62.0927 -198.5012
" />
<path d="M-63.1403 -198.2631
L-62.4260 -198.0250
" />
<path d="M-62.4260 -198.0250
L-62.4260 -198.6440
" />
</g><g transform="rotate(-90.000000 -62.5475 -106.9345)">
<text x="-62.5475" y="-106.4345"
textLength="2.1548" font-size="1.3333" lengthAdjust="spacingAndGlyphs"
text-anchor="middle" opacity="0" stroke-opacity="0">S7</text>
</g>
<g class="stroked-text"><desc>S7</desc>
<path d="M-62.1403 -106.1726
L-62.0927 -106.3155
" />
<path d="M-62.0927 -106.3155
L-62.0927 -106.5535
" />
<path d="M-62.0927 -106.5535
L-62.1403 -106.6488
" />
<path d="M-62.1403 -106.6488
L-62.1879 -106.6964
" />
<path d="M-62.1879 -106.6964
L-62.2832 -106.7440
" />
<path d="M-62.2832 -106.7440
L-62.3784 -106.7440
" />
<path d="M-62.3784 -106.7440
L-62.4736 -106.6964
" />
<path d="M-62.4736 -106.6964
L-62.5213 -106.6488
" />
<path d="M-62.5213 -106.6488
L-62.5689 -106.5535
" />
<path d="M-62.5689 -106.5535
L-62.6165 -106.3631
" />
<path d="M-62.6165 -106.3631
L-62.6641 -106.2678
" />
<path d="M-62.6641 -106.2678
L-62.7117 -106.2202
" />
<path d="M-62.7117 -106.2202
L-62.8070 -106.1726
" />
<path d="M-62.8070 -106.1726
L-62.9022 -106.1726
" />
<path d="M-62.9022 -106.1726
L-62.9974 -106.2202
" />
<path d="M-62.9974 -106.2202
L-63.0451 -106.2678
" />
<path d="M-63.0451 -106.2678
L-63.0927 -106.3631
" />
<path d="M-63.0927 -106.3631
L-63.0927 -106.6012
" />
<path d="M-63.0927 -106.6012
L-63.0451 -106.7440
" />
<path d="M-63.0927 -107.0774
L-63.0927 -107.7440
" />
<path d="M-63.0927 -107.7440
L-62.0927 -107.3155
" />
</g><circle cx="-50.7600" cy="-315.4200" r="3.7500" /> 
<circle cx="-100.3200" cy="-259.2600" r="3.7500" /> 
<circle cx="-222.4200" cy="-259.0100" r="3.7500" /> 
<circle cx="-286.4300" cy="-183.2400" r="3.7500" /> 
<circle cx="-162.7200" cy="-259.7200" r="3.7500" /> 
<circle cx="-165.6600" cy="-210.1500" r="3.7500" /> 
<circle cx="-49.4800" cy="-80.1800" r="3.7500" /> 
<circle cx="-237.0400" cy="-167.7200" r="3.7500" /> 
<circle cx="-46.7360" cy="-182.3720" r="1.9000" /> 
<circle cx="-85.5400" cy="-167.6000" r="3.7500" /> 
<circle cx="-167.7800" cy="-79.9800" r="3.7500" /> 
<circle cx="-163.1300" cy="-137.8800" r="3.7500" /> 
<circle cx="-285.4700" cy="-316.4700" r="3.7500" /> 
<circle cx="-284.6400" cy="-81.2200" r="3.7500" /> 
</g> 
</svg>
