%TF.GenerationSoftware,KiCad,Pcbnew,9.0.1*%
%TF.CreationDate,2025-05-31T11:39:57+01:00*%
%TF.ProjectId,Button MIDI Controller,42757474-6f6e-4204-9d49-444920436f6e,rev?*%
%TF.SameCoordinates,Original*%
%TF.FileFunction,Soldermask,Bot*%
%TF.FilePolarity,Negative*%
%FSLAX46Y46*%
G04 Gerber Fmt 4.6, Leading zero omitted, Abs format (unit mm)*
G04 Created by KiCad (PCBNEW 9.0.1) date 2025-05-31 11:39:57*
%MOMM*%
%LPD*%
G01*
G04 APERTURE LIST*
G04 Aperture macros list*
%AMRoundRect*
0 Rectangle with rounded corners*
0 $1 Rounding radius*
0 $2 $3 $4 $5 $6 $7 $8 $9 X,Y pos of 4 corners*
0 Add a 4 corners polygon primitive as box body*
4,1,4,$2,$3,$4,$5,$6,$7,$8,$9,$2,$3,0*
0 Add four circle primitives for the rounded corners*
1,1,$1+$1,$2,$3*
1,1,$1+$1,$4,$5*
1,1,$1+$1,$6,$7*
1,1,$1+$1,$8,$9*
0 Add four rect primitives between the rounded corners*
20,1,$1+$1,$2,$3,$4,$5,0*
20,1,$1+$1,$4,$5,$6,$7,0*
20,1,$1+$1,$6,$7,$8,$9,0*
20,1,$1+$1,$8,$9,$2,$3,0*%
G04 Aperture macros list end*
%ADD10RoundRect,0.102000X0.754000X-0.754000X0.754000X0.754000X-0.754000X0.754000X-0.754000X-0.754000X0*%
%ADD11C,1.712000*%
%ADD12C,2.154000*%
%ADD13O,1.500000X3.800000*%
%ADD14C,3.800000*%
%ADD15RoundRect,0.218750X0.256250X-0.218750X0.256250X0.218750X-0.256250X0.218750X-0.256250X-0.218750X0*%
%ADD16RoundRect,0.218750X-0.218750X-0.256250X0.218750X-0.256250X0.218750X0.256250X-0.218750X0.256250X0*%
%ADD17RoundRect,0.140000X0.170000X-0.140000X0.170000X0.140000X-0.170000X0.140000X-0.170000X-0.140000X0*%
%ADD18RoundRect,0.140000X-0.170000X0.140000X-0.170000X-0.140000X0.170000X-0.140000X0.170000X0.140000X0*%
%ADD19RoundRect,0.050000X-0.050000X0.387500X-0.050000X-0.387500X0.050000X-0.387500X0.050000X0.387500X0*%
%ADD20RoundRect,0.050000X-0.387500X0.050000X-0.387500X-0.050000X0.387500X-0.050000X0.387500X0.050000X0*%
%ADD21RoundRect,0.144000X-1.456000X1.456000X-1.456000X-1.456000X1.456000X-1.456000X1.456000X1.456000X0*%
%ADD22RoundRect,0.135000X-0.135000X-0.185000X0.135000X-0.185000X0.135000X0.185000X-0.135000X0.185000X0*%
%ADD23R,0.800000X0.900000*%
%ADD24RoundRect,0.135000X-0.185000X0.135000X-0.185000X-0.135000X0.185000X-0.135000X0.185000X0.135000X0*%
%ADD25R,0.600000X1.750000*%
%ADD26RoundRect,0.140000X-0.140000X-0.170000X0.140000X-0.170000X0.140000X0.170000X-0.140000X0.170000X0*%
%ADD27RoundRect,0.150000X0.512500X0.150000X-0.512500X0.150000X-0.512500X-0.150000X0.512500X-0.150000X0*%
%ADD28R,1.000000X1.000000*%
%ADD29RoundRect,0.140000X0.140000X0.170000X-0.140000X0.170000X-0.140000X-0.170000X0.140000X-0.170000X0*%
%ADD30RoundRect,0.080500X0.241500X-0.541500X0.241500X0.541500X-0.241500X0.541500X-0.241500X-0.541500X0*%
%ADD31RoundRect,0.102000X2.150000X-1.700000X2.150000X1.700000X-2.150000X1.700000X-2.150000X-1.700000X0*%
%ADD32RoundRect,0.070000X-0.070000X-0.345000X0.070000X-0.345000X0.070000X0.345000X-0.070000X0.345000X0*%
%ADD33RoundRect,0.112500X-0.112500X-0.302500X0.112500X-0.302500X0.112500X0.302500X-0.112500X0.302500X0*%
%ADD34O,0.550000X2.050000*%
%ADD35C,0.850000*%
%ADD36RoundRect,0.135000X0.135000X0.185000X-0.135000X0.185000X-0.135000X-0.185000X0.135000X-0.185000X0*%
%ADD37RoundRect,0.147500X-0.172500X0.147500X-0.172500X-0.147500X0.172500X-0.147500X0.172500X0.147500X0*%
%ADD38RoundRect,0.135000X0.185000X-0.135000X0.185000X0.135000X-0.185000X0.135000X-0.185000X-0.135000X0*%
G04 APERTURE END LIST*
D10*
%TO.C,S7*%
X-55880000Y109502000D03*
D11*
X-55880000Y105002000D03*
D12*
X-58380000Y110752000D03*
X-58380000Y103752000D03*
%TD*%
D10*
%TO.C,S6*%
X-55880000Y139802000D03*
D11*
X-55880000Y135302000D03*
D12*
X-58380000Y141052000D03*
X-58380000Y134052000D03*
%TD*%
D10*
%TO.C,S5*%
X-55880000Y170102000D03*
D11*
X-55880000Y165602000D03*
D12*
X-58380000Y171352000D03*
X-58380000Y164352000D03*
%TD*%
D10*
%TO.C,S4*%
X-55880000Y200402000D03*
D11*
X-55880000Y195902000D03*
D12*
X-58380000Y201652000D03*
X-58380000Y194652000D03*
%TD*%
D10*
%TO.C,S3*%
X-55880000Y230702000D03*
D11*
X-55880000Y226202000D03*
D12*
X-58380000Y231952000D03*
X-58380000Y224952000D03*
%TD*%
D10*
%TO.C,S2*%
X-55880000Y261002000D03*
D11*
X-55880000Y256502000D03*
D12*
X-58380000Y262252000D03*
X-58380000Y255252000D03*
%TD*%
D10*
%TO.C,S1*%
X-55880000Y291302000D03*
D11*
X-55880000Y286802000D03*
D12*
X-58380000Y292552000D03*
X-58380000Y285552000D03*
%TD*%
D13*
%TO.C,MX12*%
X-180800000Y270900000D03*
X-184900000Y275900000D03*
%TD*%
D14*
%TO.C,REF\u002A\u002A*%
X-167640000Y208280000D03*
%TD*%
%TO.C,REF\u002A\u002A*%
X-168148000Y79248000D03*
%TD*%
D13*
%TO.C,MX51*%
X-211100000Y119400000D03*
X-215200000Y124400000D03*
%TD*%
%TO.C,MX22*%
X-120200000Y240600000D03*
X-124300000Y245600000D03*
%TD*%
D14*
%TO.C,REF\u002A\u002A*%
X-49276000Y316992000D03*
%TD*%
D13*
%TO.C,MX4*%
X-180800000Y301200000D03*
X-184900000Y306200000D03*
%TD*%
D14*
%TO.C,REF\u002A\u002A*%
X-167640000Y139700000D03*
%TD*%
D13*
%TO.C,MX2*%
X-241400000Y301200000D03*
X-245500000Y306200000D03*
%TD*%
D14*
%TO.C,REF\u002A\u002A*%
X-104140000Y261620000D03*
%TD*%
D13*
%TO.C,MX46*%
X-120200000Y149700000D03*
X-124300000Y154700000D03*
%TD*%
%TO.C,MX55*%
X-89900000Y119400000D03*
X-94000000Y124400000D03*
%TD*%
%TO.C,MX56*%
X-59600000Y119400000D03*
X-63700000Y124400000D03*
%TD*%
%TO.C,MX48*%
X-59600000Y149700000D03*
X-63700000Y154700000D03*
%TD*%
%TO.C,MX40*%
X-59600000Y180000000D03*
X-63700000Y185000000D03*
%TD*%
D14*
%TO.C,REF\u002A\u002A*%
X-85852000Y167132000D03*
%TD*%
D13*
%TO.C,MX47*%
X-89900000Y149700000D03*
X-94000000Y154700000D03*
%TD*%
%TO.C,MX42*%
X-241400000Y149700000D03*
X-245500000Y154700000D03*
%TD*%
%TO.C,MX53*%
X-150500000Y119400000D03*
X-154600000Y124400000D03*
%TD*%
%TO.C,MX38*%
X-120200000Y180000000D03*
X-124300000Y185000000D03*
%TD*%
%TO.C,MX37*%
X-150500000Y180000000D03*
X-154600000Y185000000D03*
%TD*%
%TO.C,MX61*%
X-150500000Y89100000D03*
X-154600000Y94100000D03*
%TD*%
D14*
%TO.C,REF\u002A\u002A*%
X-165608000Y260096000D03*
%TD*%
D13*
%TO.C,MX52*%
X-180800000Y119400000D03*
X-184900000Y124400000D03*
%TD*%
%TO.C,MX50*%
X-241400000Y119400000D03*
X-245500000Y124400000D03*
%TD*%
%TO.C,MX14*%
X-120200000Y270900000D03*
X-124300000Y275900000D03*
%TD*%
%TO.C,MX8*%
X-59600000Y301200000D03*
X-63700000Y306200000D03*
%TD*%
%TO.C,MX45*%
X-150500000Y149700000D03*
X-154600000Y154700000D03*
%TD*%
%TO.C,MX5*%
X-150500000Y301200000D03*
X-154600000Y306200000D03*
%TD*%
%TO.C,MX6*%
X-120200000Y301200000D03*
X-124300000Y306200000D03*
%TD*%
%TO.C,MX57*%
X-271700000Y89100000D03*
X-275800000Y94100000D03*
%TD*%
%TO.C,MX17*%
X-271700000Y240600000D03*
X-275800000Y245600000D03*
%TD*%
%TO.C,MX15*%
X-89900000Y270900000D03*
X-94000000Y275900000D03*
%TD*%
D14*
%TO.C,REF\u002A\u002A*%
X-50292000Y78740000D03*
%TD*%
D13*
%TO.C,MX36*%
X-180800000Y180000000D03*
X-184900000Y185000000D03*
%TD*%
%TO.C,MX29*%
X-150500000Y210300000D03*
X-154600000Y215300000D03*
%TD*%
D14*
%TO.C,REF\u002A\u002A*%
X-286004000Y79756000D03*
%TD*%
D13*
%TO.C,MX64*%
X-59600000Y89100000D03*
X-63700000Y94100000D03*
%TD*%
D14*
%TO.C,REF\u002A\u002A*%
X-286004000Y317500000D03*
%TD*%
D13*
%TO.C,MX21*%
X-150500000Y240600000D03*
X-154600000Y245600000D03*
%TD*%
%TO.C,MX18*%
X-241400000Y240600000D03*
X-245500000Y245600000D03*
%TD*%
%TO.C,MX13*%
X-150500000Y270900000D03*
X-154600000Y275900000D03*
%TD*%
%TO.C,MX23*%
X-89900000Y240600000D03*
X-94000000Y245600000D03*
%TD*%
D14*
%TO.C,REF\u002A\u002A*%
X-46736000Y182372000D03*
%TD*%
%TO.C,REF\u002A\u002A*%
X-225552000Y260604000D03*
%TD*%
D13*
%TO.C,MX43*%
X-211100000Y149700000D03*
X-215200000Y154700000D03*
%TD*%
%TO.C,MX35*%
X-211100000Y180000000D03*
X-215200000Y185000000D03*
%TD*%
%TO.C,MX24*%
X-59600000Y240600000D03*
X-63700000Y245600000D03*
%TD*%
%TO.C,MX62*%
X-120200000Y89100000D03*
X-124300000Y94100000D03*
%TD*%
D14*
%TO.C,REF\u002A\u002A*%
X-287020000Y182880000D03*
%TD*%
D13*
%TO.C,MX34*%
X-241400000Y180000000D03*
X-245500000Y185000000D03*
%TD*%
%TO.C,MX49*%
X-271700000Y119400000D03*
X-275800000Y124400000D03*
%TD*%
%TO.C,MX19*%
X-211100000Y240600000D03*
X-215200000Y245600000D03*
%TD*%
%TO.C,MX3*%
X-211100000Y301200000D03*
X-215200000Y306200000D03*
%TD*%
%TO.C,MX1*%
X-271700000Y301200000D03*
X-275800000Y306200000D03*
%TD*%
%TO.C,MX32*%
X-59600000Y210300000D03*
X-63700000Y215300000D03*
%TD*%
%TO.C,MX9*%
X-271700000Y270900000D03*
X-275800000Y275900000D03*
%TD*%
%TO.C,MX60*%
X-180800000Y89100000D03*
X-184900000Y94100000D03*
%TD*%
D14*
%TO.C,REF\u002A\u002A*%
X-235204000Y166624000D03*
%TD*%
D13*
%TO.C,MX27*%
X-211100000Y210300000D03*
X-215200000Y215300000D03*
%TD*%
%TO.C,MX54*%
X-120200000Y119400000D03*
X-124300000Y124400000D03*
%TD*%
%TO.C,MX58*%
X-241400000Y89100000D03*
X-245500000Y94100000D03*
%TD*%
%TO.C,MX33*%
X-271700000Y180000000D03*
X-275800000Y185000000D03*
%TD*%
%TO.C,MX16*%
X-59600000Y270900000D03*
X-63700000Y275900000D03*
%TD*%
%TO.C,MX30*%
X-120200000Y210300000D03*
X-124300000Y215300000D03*
%TD*%
%TO.C,MX7*%
X-89900000Y301200000D03*
X-94000000Y306200000D03*
%TD*%
%TO.C,MX28*%
X-180800000Y210300000D03*
X-184900000Y215300000D03*
%TD*%
%TO.C,MX26*%
X-241400000Y210300000D03*
X-245500000Y215300000D03*
%TD*%
%TO.C,MX63*%
X-89900000Y89100000D03*
X-94000000Y94100000D03*
%TD*%
%TO.C,MX44*%
X-180800000Y149700000D03*
X-184900000Y154700000D03*
%TD*%
%TO.C,MX39*%
X-89900000Y180000000D03*
X-94000000Y185000000D03*
%TD*%
%TO.C,MX20*%
X-180800000Y240600000D03*
X-184900000Y245600000D03*
%TD*%
%TO.C,MX25*%
X-271700000Y210300000D03*
X-275800000Y215300000D03*
%TD*%
%TO.C,MX59*%
X-211100000Y89100000D03*
X-215200000Y94100000D03*
%TD*%
%TO.C,MX41*%
X-271700000Y149700000D03*
X-275800000Y154700000D03*
%TD*%
%TO.C,MX31*%
X-89900000Y210300000D03*
X-94000000Y215300000D03*
%TD*%
%TO.C,MX10*%
X-241400000Y270900000D03*
X-245500000Y275900000D03*
%TD*%
%TO.C,MX11*%
X-211100000Y270900000D03*
X-215200000Y275900000D03*
%TD*%
D15*
%TO.C,D40*%
X-63998000Y174176500D03*
X-63998000Y175751500D03*
%TD*%
D16*
%TO.C,D198*%
X-57683500Y142886000D03*
X-56108500Y142886000D03*
%TD*%
D15*
%TO.C,D30*%
X-124598000Y204476500D03*
X-124598000Y206051500D03*
%TD*%
%TO.C,D20*%
X-185198000Y234776500D03*
X-185198000Y236351500D03*
%TD*%
%TO.C,D18*%
X-245798000Y234776500D03*
X-245798000Y236351500D03*
%TD*%
%TO.C,D26*%
X-245798000Y204476500D03*
X-245798000Y206051500D03*
%TD*%
%TO.C,D49*%
X-276098000Y113576500D03*
X-276098000Y115151500D03*
%TD*%
%TO.C,D38*%
X-124598000Y174176500D03*
X-124598000Y175751500D03*
%TD*%
D16*
%TO.C,D194*%
X-57683500Y264086000D03*
X-56108500Y264086000D03*
%TD*%
D15*
%TO.C,D29*%
X-154898000Y204476500D03*
X-154898000Y206051500D03*
%TD*%
%TO.C,D59*%
X-215498000Y83276500D03*
X-215498000Y84851500D03*
%TD*%
%TO.C,D62*%
X-124598000Y83276500D03*
X-124598000Y84851500D03*
%TD*%
%TO.C,D60*%
X-185198000Y83276500D03*
X-185198000Y84851500D03*
%TD*%
%TO.C,D25*%
X-276098000Y204476500D03*
X-276098000Y206051500D03*
%TD*%
%TO.C,D32*%
X-63998000Y204476500D03*
X-63998000Y206051500D03*
%TD*%
%TO.C,D10*%
X-245798000Y265076500D03*
X-245798000Y266651500D03*
%TD*%
%TO.C,D45*%
X-154898000Y143876500D03*
X-154898000Y145451500D03*
%TD*%
%TO.C,D22*%
X-124598000Y234776500D03*
X-124598000Y236351500D03*
%TD*%
%TO.C,D64*%
X-63998000Y83276500D03*
X-63998000Y84851500D03*
%TD*%
%TO.C,D27*%
X-215498000Y204476500D03*
X-215498000Y206051500D03*
%TD*%
D17*
%TO.C,C9*%
X-149860000Y314480000D03*
X-149860000Y315440000D03*
%TD*%
D16*
%TO.C,D196*%
X-57683500Y203486000D03*
X-56108500Y203486000D03*
%TD*%
D15*
%TO.C,D13*%
X-154898000Y265076500D03*
X-154898000Y266651500D03*
%TD*%
%TO.C,D47*%
X-94298000Y143876500D03*
X-94298000Y145451500D03*
%TD*%
%TO.C,D5*%
X-154898000Y295376500D03*
X-154898000Y296951500D03*
%TD*%
D18*
%TO.C,C6*%
X-142240000Y304772000D03*
X-142240000Y303812000D03*
%TD*%
D19*
%TO.C,U1*%
X-138744000Y313063500D03*
X-138344000Y313063500D03*
X-137944000Y313063500D03*
X-137544000Y313063500D03*
X-137144000Y313063500D03*
X-136744000Y313063500D03*
X-136344000Y313063500D03*
X-135944000Y313063500D03*
X-135544000Y313063500D03*
X-135144000Y313063500D03*
X-134744000Y313063500D03*
X-134344000Y313063500D03*
X-133944000Y313063500D03*
X-133544000Y313063500D03*
D20*
X-132706500Y312226000D03*
X-132706500Y311826000D03*
X-132706500Y311426000D03*
X-132706500Y311026000D03*
X-132706500Y310626000D03*
X-132706500Y310226000D03*
X-132706500Y309826000D03*
X-132706500Y309426000D03*
X-132706500Y309026000D03*
X-132706500Y308626000D03*
X-132706500Y308226000D03*
X-132706500Y307826000D03*
X-132706500Y307426000D03*
X-132706500Y307026000D03*
D19*
X-133544000Y306188500D03*
X-133944000Y306188500D03*
X-134344000Y306188500D03*
X-134744000Y306188500D03*
X-135144000Y306188500D03*
X-135544000Y306188500D03*
X-135944000Y306188500D03*
X-136344000Y306188500D03*
X-136744000Y306188500D03*
X-137144000Y306188500D03*
X-137544000Y306188500D03*
X-137944000Y306188500D03*
X-138344000Y306188500D03*
X-138744000Y306188500D03*
D20*
X-139581500Y307026000D03*
X-139581500Y307426000D03*
X-139581500Y307826000D03*
X-139581500Y308226000D03*
X-139581500Y308626000D03*
X-139581500Y309026000D03*
X-139581500Y309426000D03*
X-139581500Y309826000D03*
X-139581500Y310226000D03*
X-139581500Y310626000D03*
X-139581500Y311026000D03*
X-139581500Y311426000D03*
X-139581500Y311826000D03*
X-139581500Y312226000D03*
D21*
X-136144000Y309626000D03*
%TD*%
D15*
%TO.C,D39*%
X-94298000Y174176500D03*
X-94298000Y175751500D03*
%TD*%
%TO.C,D51*%
X-215498000Y113576500D03*
X-215498000Y115151500D03*
%TD*%
%TO.C,D35*%
X-215498000Y174176500D03*
X-215498000Y175751500D03*
%TD*%
%TO.C,D42*%
X-245798000Y143876500D03*
X-245798000Y145451500D03*
%TD*%
D22*
%TO.C,R4*%
X-143258000Y307594000D03*
X-142238000Y307594000D03*
%TD*%
D15*
%TO.C,D19*%
X-215498000Y234776500D03*
X-215498000Y236351500D03*
%TD*%
%TO.C,D53*%
X-154898000Y113576500D03*
X-154898000Y115151500D03*
%TD*%
D17*
%TO.C,C11*%
X-147320000Y314480000D03*
X-147320000Y315440000D03*
%TD*%
%TO.C,C15*%
X-142240000Y314480000D03*
X-142240000Y315440000D03*
%TD*%
D23*
%TO.C,Y1*%
X-129074000Y307910000D03*
X-129074000Y309310000D03*
X-127974000Y309310000D03*
X-127974000Y307910000D03*
%TD*%
D24*
%TO.C,R7*%
X-169672000Y312676000D03*
X-169672000Y311656000D03*
%TD*%
D16*
%TO.C,D193*%
X-57683500Y294386000D03*
X-56108500Y294386000D03*
%TD*%
D15*
%TO.C,D14*%
X-124598000Y265076500D03*
X-124598000Y266651500D03*
%TD*%
%TO.C,D28*%
X-185198000Y204476500D03*
X-185198000Y206051500D03*
%TD*%
%TO.C,D50*%
X-245798000Y113576500D03*
X-245798000Y115151500D03*
%TD*%
D17*
%TO.C,C12*%
X-146050000Y314480000D03*
X-146050000Y315440000D03*
%TD*%
D15*
%TO.C,D48*%
X-63998000Y143876500D03*
X-63998000Y145451500D03*
%TD*%
D16*
%TO.C,D195*%
X-57683500Y233786000D03*
X-56108500Y233786000D03*
%TD*%
D17*
%TO.C,C16*%
X-140970000Y314480000D03*
X-140970000Y315440000D03*
%TD*%
D15*
%TO.C,D44*%
X-185198000Y143876500D03*
X-185198000Y145451500D03*
%TD*%
%TO.C,D52*%
X-185198000Y113576500D03*
X-185198000Y115151500D03*
%TD*%
%TO.C,D37*%
X-154898000Y174176500D03*
X-154898000Y175751500D03*
%TD*%
D25*
%TO.C,J1*%
X-123793000Y315990000D03*
X-122793000Y317740000D03*
X-121793000Y315990000D03*
X-120793000Y317740000D03*
X-119793000Y315990000D03*
%TD*%
D26*
%TO.C,C3*%
X-131798000Y303072800D03*
X-130838000Y303072800D03*
%TD*%
D15*
%TO.C,D31*%
X-94298000Y204476500D03*
X-94298000Y206051500D03*
%TD*%
D27*
%TO.C,U3*%
X-167010500Y308290000D03*
X-167010500Y307340000D03*
X-167010500Y306390000D03*
X-169285500Y306390000D03*
X-169285500Y307340000D03*
X-169285500Y308290000D03*
%TD*%
D28*
%TO.C,TP1*%
X-148158200Y299669200D03*
%TD*%
D15*
%TO.C,D4*%
X-185198000Y295376500D03*
X-185198000Y296951500D03*
%TD*%
%TO.C,D2*%
X-245798000Y295376500D03*
X-245798000Y296951500D03*
%TD*%
%TO.C,D6*%
X-124598000Y295376500D03*
X-124598000Y296951500D03*
%TD*%
%TO.C,D12*%
X-185198000Y265076500D03*
X-185198000Y266651500D03*
%TD*%
%TO.C,D8*%
X-63998000Y295376500D03*
X-63998000Y296951500D03*
%TD*%
%TO.C,D7*%
X-94298000Y295376500D03*
X-94298000Y296951500D03*
%TD*%
%TO.C,D23*%
X-94298000Y234776500D03*
X-94298000Y236351500D03*
%TD*%
%TO.C,D46*%
X-124598000Y143876500D03*
X-124598000Y145451500D03*
%TD*%
D17*
%TO.C,C13*%
X-144780000Y314480000D03*
X-144780000Y315440000D03*
%TD*%
D22*
%TO.C,R2*%
X-146356800Y299593000D03*
X-145336800Y299593000D03*
%TD*%
D24*
%TO.C,R6*%
X-166878000Y312676000D03*
X-166878000Y311656000D03*
%TD*%
D16*
%TO.C,D199*%
X-57683500Y112586000D03*
X-56108500Y112586000D03*
%TD*%
D27*
%TO.C,U4*%
X-145166500Y320482000D03*
X-145166500Y318582000D03*
X-147441500Y319532000D03*
%TD*%
D15*
%TO.C,D36*%
X-185198000Y174176500D03*
X-185198000Y175751500D03*
%TD*%
D29*
%TO.C,C1*%
X-128044000Y306578000D03*
X-129004000Y306578000D03*
%TD*%
D18*
%TO.C,C8*%
X-139700000Y304772000D03*
X-139700000Y303812000D03*
%TD*%
D30*
%TO.C,U2*%
X-133400800Y297205200D03*
X-134670800Y297205200D03*
X-135940800Y297205200D03*
X-137210800Y297205200D03*
X-137210800Y302895200D03*
X-135940800Y302895200D03*
X-134670800Y302895200D03*
X-133400800Y302895200D03*
D31*
X-135305800Y300050200D03*
%TD*%
D18*
%TO.C,C7*%
X-140970000Y304772000D03*
X-140970000Y303812000D03*
%TD*%
D32*
%TO.C,J2*%
X-171090000Y315828000D03*
X-170290000Y315828000D03*
X-169490000Y315828000D03*
X-168690000Y315828000D03*
X-168290000Y315828000D03*
X-167890000Y315828000D03*
X-166290000Y315828000D03*
X-165490000Y315828000D03*
X-165090000Y315828000D03*
X-165890000Y315828000D03*
X-166690000Y315828000D03*
X-167090000Y315828000D03*
X-167490000Y315828000D03*
X-169090000Y315828000D03*
X-169890000Y315828000D03*
X-170690000Y315828000D03*
D33*
X-171605000Y315828000D03*
X-164575000Y315828000D03*
D34*
X-172685000Y319568000D03*
D35*
X-172685000Y316588000D03*
D34*
X-163495000Y319568000D03*
D35*
X-163495000Y316588000D03*
%TD*%
D17*
%TO.C,C4*%
X-150114000Y319560000D03*
X-150114000Y320520000D03*
%TD*%
%TO.C,C14*%
X-143510000Y314480000D03*
X-143510000Y315440000D03*
%TD*%
D15*
%TO.C,D9*%
X-276098000Y265076500D03*
X-276098000Y266651500D03*
%TD*%
%TO.C,D17*%
X-276098000Y234776500D03*
X-276098000Y236351500D03*
%TD*%
D16*
%TO.C,D197*%
X-62509500Y169164000D03*
X-60934500Y169164000D03*
%TD*%
D15*
%TO.C,D21*%
X-154898000Y234776500D03*
X-154898000Y236351500D03*
%TD*%
%TO.C,D24*%
X-63998000Y234776500D03*
X-63998000Y236351500D03*
%TD*%
%TO.C,D15*%
X-94298000Y265076500D03*
X-94298000Y266651500D03*
%TD*%
D36*
%TO.C,R1*%
X-128014000Y305308000D03*
X-129034000Y305308000D03*
%TD*%
D15*
%TO.C,D55*%
X-94298000Y113576500D03*
X-94298000Y115151500D03*
%TD*%
%TO.C,D34*%
X-245798000Y174176500D03*
X-245798000Y175751500D03*
%TD*%
%TO.C,D58*%
X-245798000Y83276500D03*
X-245798000Y84851500D03*
%TD*%
D17*
%TO.C,C5*%
X-142748000Y318544000D03*
X-142748000Y319504000D03*
%TD*%
D22*
%TO.C,R3*%
X-143258000Y309372000D03*
X-142238000Y309372000D03*
%TD*%
D15*
%TO.C,D63*%
X-94298000Y83276500D03*
X-94298000Y84851500D03*
%TD*%
D22*
%TO.C,R5*%
X-131701000Y304723800D03*
X-130681000Y304723800D03*
%TD*%
D15*
%TO.C,D3*%
X-215498000Y295376500D03*
X-215498000Y296951500D03*
%TD*%
D37*
%TO.C,F1*%
X-164820600Y312625600D03*
X-164820600Y311655600D03*
%TD*%
D15*
%TO.C,D57*%
X-276098000Y83276500D03*
X-276098000Y84851500D03*
%TD*%
%TO.C,D54*%
X-124598000Y113576500D03*
X-124598000Y115151500D03*
%TD*%
%TO.C,D61*%
X-154898000Y83276500D03*
X-154898000Y84851500D03*
%TD*%
D17*
%TO.C,C17*%
X-139700000Y314480000D03*
X-139700000Y315440000D03*
%TD*%
%TO.C,C10*%
X-148590000Y314480000D03*
X-148590000Y315440000D03*
%TD*%
D15*
%TO.C,D41*%
X-276098000Y143876500D03*
X-276098000Y145451500D03*
%TD*%
%TO.C,D43*%
X-215498000Y143876500D03*
X-215498000Y145451500D03*
%TD*%
%TO.C,D33*%
X-276098000Y174176500D03*
X-276098000Y175751500D03*
%TD*%
%TO.C,D56*%
X-63998000Y113576500D03*
X-63998000Y115151500D03*
%TD*%
D38*
%TO.C,R8*%
X-138430000Y316736000D03*
X-138430000Y317756000D03*
%TD*%
D15*
%TO.C,D11*%
X-215498000Y265076500D03*
X-215498000Y266651500D03*
%TD*%
D26*
%TO.C,C2*%
X-129004000Y310642000D03*
X-128044000Y310642000D03*
%TD*%
D15*
%TO.C,D16*%
X-63998000Y265076500D03*
X-63998000Y266651500D03*
%TD*%
%TO.C,D1*%
X-276098000Y295376500D03*
X-276098000Y296951500D03*
%TD*%
M02*
