%TF.GenerationSoftware,KiCad,Pcbnew,9.0.1*%
%TF.CreationDate,2025-05-30T23:37:25+01:00*%
%TF.ProjectId,Button MIDI Controller,42757474-6f6e-4204-9d49-444920436f6e,rev?*%
%TF.SameCoordinates,Original*%
%TF.FileFunction,Legend,Bot*%
%TF.FilePolarity,Positive*%
%FSLAX46Y46*%
G04 Gerber Fmt 4.6, Leading zero omitted, Abs format (unit mm)*
G04 Created by KiCad (PCBNEW 9.0.1) date 2025-05-30 23:37:25*
%MOMM*%
%LPD*%
G01*
G04 APERTURE LIST*
%ADD10C,0.150000*%
%ADD11C,0.127000*%
%ADD12C,0.200000*%
%ADD13C,0.120000*%
G04 APERTURE END LIST*
D10*
X-279501300Y108033404D02*
X-279453680Y107890547D01*
X-279453680Y107890547D02*
X-279453680Y107652452D01*
X-279453680Y107652452D02*
X-279501300Y107557214D01*
X-279501300Y107557214D02*
X-279548919Y107509595D01*
X-279548919Y107509595D02*
X-279644157Y107461976D01*
X-279644157Y107461976D02*
X-279739395Y107461976D01*
X-279739395Y107461976D02*
X-279834633Y107509595D01*
X-279834633Y107509595D02*
X-279882252Y107557214D01*
X-279882252Y107557214D02*
X-279929871Y107652452D01*
X-279929871Y107652452D02*
X-279977490Y107842928D01*
X-279977490Y107842928D02*
X-280025109Y107938166D01*
X-280025109Y107938166D02*
X-280072728Y107985785D01*
X-280072728Y107985785D02*
X-280167966Y108033404D01*
X-280167966Y108033404D02*
X-280263204Y108033404D01*
X-280263204Y108033404D02*
X-280358442Y107985785D01*
X-280358442Y107985785D02*
X-280406061Y107938166D01*
X-280406061Y107938166D02*
X-280453680Y107842928D01*
X-280453680Y107842928D02*
X-280453680Y107604833D01*
X-280453680Y107604833D02*
X-280406061Y107461976D01*
X-280025109Y106890547D02*
X-280072728Y106985785D01*
X-280072728Y106985785D02*
X-280120347Y107033404D01*
X-280120347Y107033404D02*
X-280215585Y107081023D01*
X-280215585Y107081023D02*
X-280263204Y107081023D01*
X-280263204Y107081023D02*
X-280358442Y107033404D01*
X-280358442Y107033404D02*
X-280406061Y106985785D01*
X-280406061Y106985785D02*
X-280453680Y106890547D01*
X-280453680Y106890547D02*
X-280453680Y106700071D01*
X-280453680Y106700071D02*
X-280406061Y106604833D01*
X-280406061Y106604833D02*
X-280358442Y106557214D01*
X-280358442Y106557214D02*
X-280263204Y106509595D01*
X-280263204Y106509595D02*
X-280215585Y106509595D01*
X-280215585Y106509595D02*
X-280120347Y106557214D01*
X-280120347Y106557214D02*
X-280072728Y106604833D01*
X-280072728Y106604833D02*
X-280025109Y106700071D01*
X-280025109Y106700071D02*
X-280025109Y106890547D01*
X-280025109Y106890547D02*
X-279977490Y106985785D01*
X-279977490Y106985785D02*
X-279929871Y107033404D01*
X-279929871Y107033404D02*
X-279834633Y107081023D01*
X-279834633Y107081023D02*
X-279644157Y107081023D01*
X-279644157Y107081023D02*
X-279548919Y107033404D01*
X-279548919Y107033404D02*
X-279501300Y106985785D01*
X-279501300Y106985785D02*
X-279453680Y106890547D01*
X-279453680Y106890547D02*
X-279453680Y106700071D01*
X-279453680Y106700071D02*
X-279501300Y106604833D01*
X-279501300Y106604833D02*
X-279548919Y106557214D01*
X-279548919Y106557214D02*
X-279644157Y106509595D01*
X-279644157Y106509595D02*
X-279834633Y106509595D01*
X-279834633Y106509595D02*
X-279929871Y106557214D01*
X-279929871Y106557214D02*
X-279977490Y106604833D01*
X-279977490Y106604833D02*
X-280025109Y106700071D01*
X-279501300Y134033404D02*
X-279453680Y133890547D01*
X-279453680Y133890547D02*
X-279453680Y133652452D01*
X-279453680Y133652452D02*
X-279501300Y133557214D01*
X-279501300Y133557214D02*
X-279548919Y133509595D01*
X-279548919Y133509595D02*
X-279644157Y133461976D01*
X-279644157Y133461976D02*
X-279739395Y133461976D01*
X-279739395Y133461976D02*
X-279834633Y133509595D01*
X-279834633Y133509595D02*
X-279882252Y133557214D01*
X-279882252Y133557214D02*
X-279929871Y133652452D01*
X-279929871Y133652452D02*
X-279977490Y133842928D01*
X-279977490Y133842928D02*
X-280025109Y133938166D01*
X-280025109Y133938166D02*
X-280072728Y133985785D01*
X-280072728Y133985785D02*
X-280167966Y134033404D01*
X-280167966Y134033404D02*
X-280263204Y134033404D01*
X-280263204Y134033404D02*
X-280358442Y133985785D01*
X-280358442Y133985785D02*
X-280406061Y133938166D01*
X-280406061Y133938166D02*
X-280453680Y133842928D01*
X-280453680Y133842928D02*
X-280453680Y133604833D01*
X-280453680Y133604833D02*
X-280406061Y133461976D01*
X-280453680Y133128642D02*
X-280453680Y132461976D01*
X-280453680Y132461976D02*
X-279453680Y132890547D01*
X-279501300Y160033404D02*
X-279453680Y159890547D01*
X-279453680Y159890547D02*
X-279453680Y159652452D01*
X-279453680Y159652452D02*
X-279501300Y159557214D01*
X-279501300Y159557214D02*
X-279548919Y159509595D01*
X-279548919Y159509595D02*
X-279644157Y159461976D01*
X-279644157Y159461976D02*
X-279739395Y159461976D01*
X-279739395Y159461976D02*
X-279834633Y159509595D01*
X-279834633Y159509595D02*
X-279882252Y159557214D01*
X-279882252Y159557214D02*
X-279929871Y159652452D01*
X-279929871Y159652452D02*
X-279977490Y159842928D01*
X-279977490Y159842928D02*
X-280025109Y159938166D01*
X-280025109Y159938166D02*
X-280072728Y159985785D01*
X-280072728Y159985785D02*
X-280167966Y160033404D01*
X-280167966Y160033404D02*
X-280263204Y160033404D01*
X-280263204Y160033404D02*
X-280358442Y159985785D01*
X-280358442Y159985785D02*
X-280406061Y159938166D01*
X-280406061Y159938166D02*
X-280453680Y159842928D01*
X-280453680Y159842928D02*
X-280453680Y159604833D01*
X-280453680Y159604833D02*
X-280406061Y159461976D01*
X-280453680Y158604833D02*
X-280453680Y158795309D01*
X-280453680Y158795309D02*
X-280406061Y158890547D01*
X-280406061Y158890547D02*
X-280358442Y158938166D01*
X-280358442Y158938166D02*
X-280215585Y159033404D01*
X-280215585Y159033404D02*
X-280025109Y159081023D01*
X-280025109Y159081023D02*
X-279644157Y159081023D01*
X-279644157Y159081023D02*
X-279548919Y159033404D01*
X-279548919Y159033404D02*
X-279501300Y158985785D01*
X-279501300Y158985785D02*
X-279453680Y158890547D01*
X-279453680Y158890547D02*
X-279453680Y158700071D01*
X-279453680Y158700071D02*
X-279501300Y158604833D01*
X-279501300Y158604833D02*
X-279548919Y158557214D01*
X-279548919Y158557214D02*
X-279644157Y158509595D01*
X-279644157Y158509595D02*
X-279882252Y158509595D01*
X-279882252Y158509595D02*
X-279977490Y158557214D01*
X-279977490Y158557214D02*
X-280025109Y158604833D01*
X-280025109Y158604833D02*
X-280072728Y158700071D01*
X-280072728Y158700071D02*
X-280072728Y158890547D01*
X-280072728Y158890547D02*
X-280025109Y158985785D01*
X-280025109Y158985785D02*
X-279977490Y159033404D01*
X-279977490Y159033404D02*
X-279882252Y159081023D01*
X-279501300Y186033404D02*
X-279453680Y185890547D01*
X-279453680Y185890547D02*
X-279453680Y185652452D01*
X-279453680Y185652452D02*
X-279501300Y185557214D01*
X-279501300Y185557214D02*
X-279548919Y185509595D01*
X-279548919Y185509595D02*
X-279644157Y185461976D01*
X-279644157Y185461976D02*
X-279739395Y185461976D01*
X-279739395Y185461976D02*
X-279834633Y185509595D01*
X-279834633Y185509595D02*
X-279882252Y185557214D01*
X-279882252Y185557214D02*
X-279929871Y185652452D01*
X-279929871Y185652452D02*
X-279977490Y185842928D01*
X-279977490Y185842928D02*
X-280025109Y185938166D01*
X-280025109Y185938166D02*
X-280072728Y185985785D01*
X-280072728Y185985785D02*
X-280167966Y186033404D01*
X-280167966Y186033404D02*
X-280263204Y186033404D01*
X-280263204Y186033404D02*
X-280358442Y185985785D01*
X-280358442Y185985785D02*
X-280406061Y185938166D01*
X-280406061Y185938166D02*
X-280453680Y185842928D01*
X-280453680Y185842928D02*
X-280453680Y185604833D01*
X-280453680Y185604833D02*
X-280406061Y185461976D01*
X-280453680Y184557214D02*
X-280453680Y185033404D01*
X-280453680Y185033404D02*
X-279977490Y185081023D01*
X-279977490Y185081023D02*
X-280025109Y185033404D01*
X-280025109Y185033404D02*
X-280072728Y184938166D01*
X-280072728Y184938166D02*
X-280072728Y184700071D01*
X-280072728Y184700071D02*
X-280025109Y184604833D01*
X-280025109Y184604833D02*
X-279977490Y184557214D01*
X-279977490Y184557214D02*
X-279882252Y184509595D01*
X-279882252Y184509595D02*
X-279644157Y184509595D01*
X-279644157Y184509595D02*
X-279548919Y184557214D01*
X-279548919Y184557214D02*
X-279501300Y184604833D01*
X-279501300Y184604833D02*
X-279453680Y184700071D01*
X-279453680Y184700071D02*
X-279453680Y184938166D01*
X-279453680Y184938166D02*
X-279501300Y185033404D01*
X-279501300Y185033404D02*
X-279548919Y185081023D01*
X-279501300Y212033404D02*
X-279453680Y211890547D01*
X-279453680Y211890547D02*
X-279453680Y211652452D01*
X-279453680Y211652452D02*
X-279501300Y211557214D01*
X-279501300Y211557214D02*
X-279548919Y211509595D01*
X-279548919Y211509595D02*
X-279644157Y211461976D01*
X-279644157Y211461976D02*
X-279739395Y211461976D01*
X-279739395Y211461976D02*
X-279834633Y211509595D01*
X-279834633Y211509595D02*
X-279882252Y211557214D01*
X-279882252Y211557214D02*
X-279929871Y211652452D01*
X-279929871Y211652452D02*
X-279977490Y211842928D01*
X-279977490Y211842928D02*
X-280025109Y211938166D01*
X-280025109Y211938166D02*
X-280072728Y211985785D01*
X-280072728Y211985785D02*
X-280167966Y212033404D01*
X-280167966Y212033404D02*
X-280263204Y212033404D01*
X-280263204Y212033404D02*
X-280358442Y211985785D01*
X-280358442Y211985785D02*
X-280406061Y211938166D01*
X-280406061Y211938166D02*
X-280453680Y211842928D01*
X-280453680Y211842928D02*
X-280453680Y211604833D01*
X-280453680Y211604833D02*
X-280406061Y211461976D01*
X-280120347Y210604833D02*
X-279453680Y210604833D01*
X-280501300Y210842928D02*
X-279787014Y211081023D01*
X-279787014Y211081023D02*
X-279787014Y210461976D01*
X-279501300Y238033404D02*
X-279453680Y237890547D01*
X-279453680Y237890547D02*
X-279453680Y237652452D01*
X-279453680Y237652452D02*
X-279501300Y237557214D01*
X-279501300Y237557214D02*
X-279548919Y237509595D01*
X-279548919Y237509595D02*
X-279644157Y237461976D01*
X-279644157Y237461976D02*
X-279739395Y237461976D01*
X-279739395Y237461976D02*
X-279834633Y237509595D01*
X-279834633Y237509595D02*
X-279882252Y237557214D01*
X-279882252Y237557214D02*
X-279929871Y237652452D01*
X-279929871Y237652452D02*
X-279977490Y237842928D01*
X-279977490Y237842928D02*
X-280025109Y237938166D01*
X-280025109Y237938166D02*
X-280072728Y237985785D01*
X-280072728Y237985785D02*
X-280167966Y238033404D01*
X-280167966Y238033404D02*
X-280263204Y238033404D01*
X-280263204Y238033404D02*
X-280358442Y237985785D01*
X-280358442Y237985785D02*
X-280406061Y237938166D01*
X-280406061Y237938166D02*
X-280453680Y237842928D01*
X-280453680Y237842928D02*
X-280453680Y237604833D01*
X-280453680Y237604833D02*
X-280406061Y237461976D01*
X-280453680Y237128642D02*
X-280453680Y236509595D01*
X-280453680Y236509595D02*
X-280072728Y236842928D01*
X-280072728Y236842928D02*
X-280072728Y236700071D01*
X-280072728Y236700071D02*
X-280025109Y236604833D01*
X-280025109Y236604833D02*
X-279977490Y236557214D01*
X-279977490Y236557214D02*
X-279882252Y236509595D01*
X-279882252Y236509595D02*
X-279644157Y236509595D01*
X-279644157Y236509595D02*
X-279548919Y236557214D01*
X-279548919Y236557214D02*
X-279501300Y236604833D01*
X-279501300Y236604833D02*
X-279453680Y236700071D01*
X-279453680Y236700071D02*
X-279453680Y236985785D01*
X-279453680Y236985785D02*
X-279501300Y237081023D01*
X-279501300Y237081023D02*
X-279548919Y237128642D01*
X-279501300Y264033404D02*
X-279453680Y263890547D01*
X-279453680Y263890547D02*
X-279453680Y263652452D01*
X-279453680Y263652452D02*
X-279501300Y263557214D01*
X-279501300Y263557214D02*
X-279548919Y263509595D01*
X-279548919Y263509595D02*
X-279644157Y263461976D01*
X-279644157Y263461976D02*
X-279739395Y263461976D01*
X-279739395Y263461976D02*
X-279834633Y263509595D01*
X-279834633Y263509595D02*
X-279882252Y263557214D01*
X-279882252Y263557214D02*
X-279929871Y263652452D01*
X-279929871Y263652452D02*
X-279977490Y263842928D01*
X-279977490Y263842928D02*
X-280025109Y263938166D01*
X-280025109Y263938166D02*
X-280072728Y263985785D01*
X-280072728Y263985785D02*
X-280167966Y264033404D01*
X-280167966Y264033404D02*
X-280263204Y264033404D01*
X-280263204Y264033404D02*
X-280358442Y263985785D01*
X-280358442Y263985785D02*
X-280406061Y263938166D01*
X-280406061Y263938166D02*
X-280453680Y263842928D01*
X-280453680Y263842928D02*
X-280453680Y263604833D01*
X-280453680Y263604833D02*
X-280406061Y263461976D01*
X-280358442Y263081023D02*
X-280406061Y263033404D01*
X-280406061Y263033404D02*
X-280453680Y262938166D01*
X-280453680Y262938166D02*
X-280453680Y262700071D01*
X-280453680Y262700071D02*
X-280406061Y262604833D01*
X-280406061Y262604833D02*
X-280358442Y262557214D01*
X-280358442Y262557214D02*
X-280263204Y262509595D01*
X-280263204Y262509595D02*
X-280167966Y262509595D01*
X-280167966Y262509595D02*
X-280025109Y262557214D01*
X-280025109Y262557214D02*
X-279453680Y263128642D01*
X-279453680Y263128642D02*
X-279453680Y262509595D01*
X-279501300Y290033404D02*
X-279453680Y289890547D01*
X-279453680Y289890547D02*
X-279453680Y289652452D01*
X-279453680Y289652452D02*
X-279501300Y289557214D01*
X-279501300Y289557214D02*
X-279548919Y289509595D01*
X-279548919Y289509595D02*
X-279644157Y289461976D01*
X-279644157Y289461976D02*
X-279739395Y289461976D01*
X-279739395Y289461976D02*
X-279834633Y289509595D01*
X-279834633Y289509595D02*
X-279882252Y289557214D01*
X-279882252Y289557214D02*
X-279929871Y289652452D01*
X-279929871Y289652452D02*
X-279977490Y289842928D01*
X-279977490Y289842928D02*
X-280025109Y289938166D01*
X-280025109Y289938166D02*
X-280072728Y289985785D01*
X-280072728Y289985785D02*
X-280167966Y290033404D01*
X-280167966Y290033404D02*
X-280263204Y290033404D01*
X-280263204Y290033404D02*
X-280358442Y289985785D01*
X-280358442Y289985785D02*
X-280406061Y289938166D01*
X-280406061Y289938166D02*
X-280453680Y289842928D01*
X-280453680Y289842928D02*
X-280453680Y289604833D01*
X-280453680Y289604833D02*
X-280406061Y289461976D01*
X-279453680Y288509595D02*
X-279453680Y289081023D01*
X-279453680Y288795309D02*
X-280453680Y288795309D01*
X-280453680Y288795309D02*
X-280310823Y288890547D01*
X-280310823Y288890547D02*
X-280215585Y288985785D01*
X-280215585Y288985785D02*
X-280167966Y289081023D01*
X-148340419Y315126666D02*
X-148292800Y315174285D01*
X-148292800Y315174285D02*
X-148245180Y315317142D01*
X-148245180Y315317142D02*
X-148245180Y315412380D01*
X-148245180Y315412380D02*
X-148292800Y315555237D01*
X-148292800Y315555237D02*
X-148388038Y315650475D01*
X-148388038Y315650475D02*
X-148483276Y315698094D01*
X-148483276Y315698094D02*
X-148673752Y315745713D01*
X-148673752Y315745713D02*
X-148816609Y315745713D01*
X-148816609Y315745713D02*
X-149007085Y315698094D01*
X-149007085Y315698094D02*
X-149102323Y315650475D01*
X-149102323Y315650475D02*
X-149197561Y315555237D01*
X-149197561Y315555237D02*
X-149245180Y315412380D01*
X-149245180Y315412380D02*
X-149245180Y315317142D01*
X-149245180Y315317142D02*
X-149197561Y315174285D01*
X-149197561Y315174285D02*
X-149149942Y315126666D01*
X-148245180Y314650475D02*
X-148245180Y314459999D01*
X-148245180Y314459999D02*
X-148292800Y314364761D01*
X-148292800Y314364761D02*
X-148340419Y314317142D01*
X-148340419Y314317142D02*
X-148483276Y314221904D01*
X-148483276Y314221904D02*
X-148673752Y314174285D01*
X-148673752Y314174285D02*
X-149054704Y314174285D01*
X-149054704Y314174285D02*
X-149149942Y314221904D01*
X-149149942Y314221904D02*
X-149197561Y314269523D01*
X-149197561Y314269523D02*
X-149245180Y314364761D01*
X-149245180Y314364761D02*
X-149245180Y314555237D01*
X-149245180Y314555237D02*
X-149197561Y314650475D01*
X-149197561Y314650475D02*
X-149149942Y314698094D01*
X-149149942Y314698094D02*
X-149054704Y314745713D01*
X-149054704Y314745713D02*
X-148816609Y314745713D01*
X-148816609Y314745713D02*
X-148721371Y314698094D01*
X-148721371Y314698094D02*
X-148673752Y314650475D01*
X-148673752Y314650475D02*
X-148626133Y314555237D01*
X-148626133Y314555237D02*
X-148626133Y314364761D01*
X-148626133Y314364761D02*
X-148673752Y314269523D01*
X-148673752Y314269523D02*
X-148721371Y314221904D01*
X-148721371Y314221904D02*
X-148816609Y314174285D01*
X-143040419Y304458666D02*
X-142992800Y304506285D01*
X-142992800Y304506285D02*
X-142945180Y304649142D01*
X-142945180Y304649142D02*
X-142945180Y304744380D01*
X-142945180Y304744380D02*
X-142992800Y304887237D01*
X-142992800Y304887237D02*
X-143088038Y304982475D01*
X-143088038Y304982475D02*
X-143183276Y305030094D01*
X-143183276Y305030094D02*
X-143373752Y305077713D01*
X-143373752Y305077713D02*
X-143516609Y305077713D01*
X-143516609Y305077713D02*
X-143707085Y305030094D01*
X-143707085Y305030094D02*
X-143802323Y304982475D01*
X-143802323Y304982475D02*
X-143897561Y304887237D01*
X-143897561Y304887237D02*
X-143945180Y304744380D01*
X-143945180Y304744380D02*
X-143945180Y304649142D01*
X-143945180Y304649142D02*
X-143897561Y304506285D01*
X-143897561Y304506285D02*
X-143849942Y304458666D01*
X-143945180Y303601523D02*
X-143945180Y303791999D01*
X-143945180Y303791999D02*
X-143897561Y303887237D01*
X-143897561Y303887237D02*
X-143849942Y303934856D01*
X-143849942Y303934856D02*
X-143707085Y304030094D01*
X-143707085Y304030094D02*
X-143516609Y304077713D01*
X-143516609Y304077713D02*
X-143135657Y304077713D01*
X-143135657Y304077713D02*
X-143040419Y304030094D01*
X-143040419Y304030094D02*
X-142992800Y303982475D01*
X-142992800Y303982475D02*
X-142945180Y303887237D01*
X-142945180Y303887237D02*
X-142945180Y303696761D01*
X-142945180Y303696761D02*
X-142992800Y303601523D01*
X-142992800Y303601523D02*
X-143040419Y303553904D01*
X-143040419Y303553904D02*
X-143135657Y303506285D01*
X-143135657Y303506285D02*
X-143373752Y303506285D01*
X-143373752Y303506285D02*
X-143468990Y303553904D01*
X-143468990Y303553904D02*
X-143516609Y303601523D01*
X-143516609Y303601523D02*
X-143564228Y303696761D01*
X-143564228Y303696761D02*
X-143564228Y303887237D01*
X-143564228Y303887237D02*
X-143516609Y303982475D01*
X-143516609Y303982475D02*
X-143468990Y304030094D01*
X-143468990Y304030094D02*
X-143373752Y304077713D01*
X-141509180Y310387904D02*
X-140699657Y310387904D01*
X-140699657Y310387904D02*
X-140604419Y310340285D01*
X-140604419Y310340285D02*
X-140556800Y310292666D01*
X-140556800Y310292666D02*
X-140509180Y310197428D01*
X-140509180Y310197428D02*
X-140509180Y310006952D01*
X-140509180Y310006952D02*
X-140556800Y309911714D01*
X-140556800Y309911714D02*
X-140604419Y309864095D01*
X-140604419Y309864095D02*
X-140699657Y309816476D01*
X-140699657Y309816476D02*
X-141509180Y309816476D01*
X-140509180Y308816476D02*
X-140509180Y309387904D01*
X-140509180Y309102190D02*
X-141509180Y309102190D01*
X-141509180Y309102190D02*
X-141366323Y309197428D01*
X-141366323Y309197428D02*
X-141271085Y309292666D01*
X-141271085Y309292666D02*
X-141223466Y309387904D01*
X-142581333Y305969180D02*
X-142248000Y306445371D01*
X-142009905Y305969180D02*
X-142009905Y306969180D01*
X-142009905Y306969180D02*
X-142390857Y306969180D01*
X-142390857Y306969180D02*
X-142486095Y306921561D01*
X-142486095Y306921561D02*
X-142533714Y306873942D01*
X-142533714Y306873942D02*
X-142581333Y306778704D01*
X-142581333Y306778704D02*
X-142581333Y306635847D01*
X-142581333Y306635847D02*
X-142533714Y306540609D01*
X-142533714Y306540609D02*
X-142486095Y306492990D01*
X-142486095Y306492990D02*
X-142390857Y306445371D01*
X-142390857Y306445371D02*
X-142009905Y306445371D01*
X-143438476Y306635847D02*
X-143438476Y305969180D01*
X-143200381Y307016800D02*
X-142962286Y306302514D01*
X-142962286Y306302514D02*
X-143581333Y306302514D01*
X-145800419Y315602857D02*
X-145752800Y315650476D01*
X-145752800Y315650476D02*
X-145705180Y315793333D01*
X-145705180Y315793333D02*
X-145705180Y315888571D01*
X-145705180Y315888571D02*
X-145752800Y316031428D01*
X-145752800Y316031428D02*
X-145848038Y316126666D01*
X-145848038Y316126666D02*
X-145943276Y316174285D01*
X-145943276Y316174285D02*
X-146133752Y316221904D01*
X-146133752Y316221904D02*
X-146276609Y316221904D01*
X-146276609Y316221904D02*
X-146467085Y316174285D01*
X-146467085Y316174285D02*
X-146562323Y316126666D01*
X-146562323Y316126666D02*
X-146657561Y316031428D01*
X-146657561Y316031428D02*
X-146705180Y315888571D01*
X-146705180Y315888571D02*
X-146705180Y315793333D01*
X-146705180Y315793333D02*
X-146657561Y315650476D01*
X-146657561Y315650476D02*
X-146609942Y315602857D01*
X-145705180Y314650476D02*
X-145705180Y315221904D01*
X-145705180Y314936190D02*
X-146705180Y314936190D01*
X-146705180Y314936190D02*
X-146562323Y315031428D01*
X-146562323Y315031428D02*
X-146467085Y315126666D01*
X-146467085Y315126666D02*
X-146419466Y315221904D01*
X-145705180Y313698095D02*
X-145705180Y314269523D01*
X-145705180Y313983809D02*
X-146705180Y313983809D01*
X-146705180Y313983809D02*
X-146562323Y314079047D01*
X-146562323Y314079047D02*
X-146467085Y314174285D01*
X-146467085Y314174285D02*
X-146419466Y314269523D01*
X-140720419Y315602857D02*
X-140672800Y315650476D01*
X-140672800Y315650476D02*
X-140625180Y315793333D01*
X-140625180Y315793333D02*
X-140625180Y315888571D01*
X-140625180Y315888571D02*
X-140672800Y316031428D01*
X-140672800Y316031428D02*
X-140768038Y316126666D01*
X-140768038Y316126666D02*
X-140863276Y316174285D01*
X-140863276Y316174285D02*
X-141053752Y316221904D01*
X-141053752Y316221904D02*
X-141196609Y316221904D01*
X-141196609Y316221904D02*
X-141387085Y316174285D01*
X-141387085Y316174285D02*
X-141482323Y316126666D01*
X-141482323Y316126666D02*
X-141577561Y316031428D01*
X-141577561Y316031428D02*
X-141625180Y315888571D01*
X-141625180Y315888571D02*
X-141625180Y315793333D01*
X-141625180Y315793333D02*
X-141577561Y315650476D01*
X-141577561Y315650476D02*
X-141529942Y315602857D01*
X-140625180Y314650476D02*
X-140625180Y315221904D01*
X-140625180Y314936190D02*
X-141625180Y314936190D01*
X-141625180Y314936190D02*
X-141482323Y315031428D01*
X-141482323Y315031428D02*
X-141387085Y315126666D01*
X-141387085Y315126666D02*
X-141339466Y315221904D01*
X-141625180Y313745714D02*
X-141625180Y314221904D01*
X-141625180Y314221904D02*
X-141148990Y314269523D01*
X-141148990Y314269523D02*
X-141196609Y314221904D01*
X-141196609Y314221904D02*
X-141244228Y314126666D01*
X-141244228Y314126666D02*
X-141244228Y313888571D01*
X-141244228Y313888571D02*
X-141196609Y313793333D01*
X-141196609Y313793333D02*
X-141148990Y313745714D01*
X-141148990Y313745714D02*
X-141053752Y313698095D01*
X-141053752Y313698095D02*
X-140815657Y313698095D01*
X-140815657Y313698095D02*
X-140720419Y313745714D01*
X-140720419Y313745714D02*
X-140672800Y313793333D01*
X-140672800Y313793333D02*
X-140625180Y313888571D01*
X-140625180Y313888571D02*
X-140625180Y314126666D01*
X-140625180Y314126666D02*
X-140672800Y314221904D01*
X-140672800Y314221904D02*
X-140720419Y314269523D01*
X-126545371Y309086190D02*
X-126069180Y309086190D01*
X-127069180Y309419523D02*
X-126545371Y309086190D01*
X-126545371Y309086190D02*
X-127069180Y308752857D01*
X-126069180Y307895714D02*
X-126069180Y308467142D01*
X-126069180Y308181428D02*
X-127069180Y308181428D01*
X-127069180Y308181428D02*
X-126926323Y308276666D01*
X-126926323Y308276666D02*
X-126831085Y308371904D01*
X-126831085Y308371904D02*
X-126783466Y308467142D01*
X-170387180Y312332666D02*
X-170863371Y312665999D01*
X-170387180Y312904094D02*
X-171387180Y312904094D01*
X-171387180Y312904094D02*
X-171387180Y312523142D01*
X-171387180Y312523142D02*
X-171339561Y312427904D01*
X-171339561Y312427904D02*
X-171291942Y312380285D01*
X-171291942Y312380285D02*
X-171196704Y312332666D01*
X-171196704Y312332666D02*
X-171053847Y312332666D01*
X-171053847Y312332666D02*
X-170958609Y312380285D01*
X-170958609Y312380285D02*
X-170910990Y312427904D01*
X-170910990Y312427904D02*
X-170863371Y312523142D01*
X-170863371Y312523142D02*
X-170863371Y312904094D01*
X-171387180Y311999332D02*
X-171387180Y311332666D01*
X-171387180Y311332666D02*
X-170387180Y311761237D01*
X-144530419Y315602857D02*
X-144482800Y315650476D01*
X-144482800Y315650476D02*
X-144435180Y315793333D01*
X-144435180Y315793333D02*
X-144435180Y315888571D01*
X-144435180Y315888571D02*
X-144482800Y316031428D01*
X-144482800Y316031428D02*
X-144578038Y316126666D01*
X-144578038Y316126666D02*
X-144673276Y316174285D01*
X-144673276Y316174285D02*
X-144863752Y316221904D01*
X-144863752Y316221904D02*
X-145006609Y316221904D01*
X-145006609Y316221904D02*
X-145197085Y316174285D01*
X-145197085Y316174285D02*
X-145292323Y316126666D01*
X-145292323Y316126666D02*
X-145387561Y316031428D01*
X-145387561Y316031428D02*
X-145435180Y315888571D01*
X-145435180Y315888571D02*
X-145435180Y315793333D01*
X-145435180Y315793333D02*
X-145387561Y315650476D01*
X-145387561Y315650476D02*
X-145339942Y315602857D01*
X-144435180Y314650476D02*
X-144435180Y315221904D01*
X-144435180Y314936190D02*
X-145435180Y314936190D01*
X-145435180Y314936190D02*
X-145292323Y315031428D01*
X-145292323Y315031428D02*
X-145197085Y315126666D01*
X-145197085Y315126666D02*
X-145149466Y315221904D01*
X-145339942Y314269523D02*
X-145387561Y314221904D01*
X-145387561Y314221904D02*
X-145435180Y314126666D01*
X-145435180Y314126666D02*
X-145435180Y313888571D01*
X-145435180Y313888571D02*
X-145387561Y313793333D01*
X-145387561Y313793333D02*
X-145339942Y313745714D01*
X-145339942Y313745714D02*
X-145244704Y313698095D01*
X-145244704Y313698095D02*
X-145149466Y313698095D01*
X-145149466Y313698095D02*
X-145006609Y313745714D01*
X-145006609Y313745714D02*
X-144435180Y314317142D01*
X-144435180Y314317142D02*
X-144435180Y313698095D01*
X-139450419Y315602857D02*
X-139402800Y315650476D01*
X-139402800Y315650476D02*
X-139355180Y315793333D01*
X-139355180Y315793333D02*
X-139355180Y315888571D01*
X-139355180Y315888571D02*
X-139402800Y316031428D01*
X-139402800Y316031428D02*
X-139498038Y316126666D01*
X-139498038Y316126666D02*
X-139593276Y316174285D01*
X-139593276Y316174285D02*
X-139783752Y316221904D01*
X-139783752Y316221904D02*
X-139926609Y316221904D01*
X-139926609Y316221904D02*
X-140117085Y316174285D01*
X-140117085Y316174285D02*
X-140212323Y316126666D01*
X-140212323Y316126666D02*
X-140307561Y316031428D01*
X-140307561Y316031428D02*
X-140355180Y315888571D01*
X-140355180Y315888571D02*
X-140355180Y315793333D01*
X-140355180Y315793333D02*
X-140307561Y315650476D01*
X-140307561Y315650476D02*
X-140259942Y315602857D01*
X-139355180Y314650476D02*
X-139355180Y315221904D01*
X-139355180Y314936190D02*
X-140355180Y314936190D01*
X-140355180Y314936190D02*
X-140212323Y315031428D01*
X-140212323Y315031428D02*
X-140117085Y315126666D01*
X-140117085Y315126666D02*
X-140069466Y315221904D01*
X-140355180Y313793333D02*
X-140355180Y313983809D01*
X-140355180Y313983809D02*
X-140307561Y314079047D01*
X-140307561Y314079047D02*
X-140259942Y314126666D01*
X-140259942Y314126666D02*
X-140117085Y314221904D01*
X-140117085Y314221904D02*
X-139926609Y314269523D01*
X-139926609Y314269523D02*
X-139545657Y314269523D01*
X-139545657Y314269523D02*
X-139450419Y314221904D01*
X-139450419Y314221904D02*
X-139402800Y314174285D01*
X-139402800Y314174285D02*
X-139355180Y314079047D01*
X-139355180Y314079047D02*
X-139355180Y313888571D01*
X-139355180Y313888571D02*
X-139402800Y313793333D01*
X-139402800Y313793333D02*
X-139450419Y313745714D01*
X-139450419Y313745714D02*
X-139545657Y313698095D01*
X-139545657Y313698095D02*
X-139783752Y313698095D01*
X-139783752Y313698095D02*
X-139878990Y313745714D01*
X-139878990Y313745714D02*
X-139926609Y313793333D01*
X-139926609Y313793333D02*
X-139974228Y313888571D01*
X-139974228Y313888571D02*
X-139974228Y314079047D01*
X-139974228Y314079047D02*
X-139926609Y314174285D01*
X-139926609Y314174285D02*
X-139878990Y314221904D01*
X-139878990Y314221904D02*
X-139783752Y314269523D01*
X-125948180Y317198333D02*
X-125233895Y317198333D01*
X-125233895Y317198333D02*
X-125091038Y317245952D01*
X-125091038Y317245952D02*
X-124995800Y317341190D01*
X-124995800Y317341190D02*
X-124948180Y317484047D01*
X-124948180Y317484047D02*
X-124948180Y317579285D01*
X-124948180Y316198333D02*
X-124948180Y316769761D01*
X-124948180Y316484047D02*
X-125948180Y316484047D01*
X-125948180Y316484047D02*
X-125805323Y316579285D01*
X-125805323Y316579285D02*
X-125710085Y316674523D01*
X-125710085Y316674523D02*
X-125662466Y316769761D01*
X-131151333Y301553219D02*
X-131103714Y301505600D01*
X-131103714Y301505600D02*
X-130960857Y301457980D01*
X-130960857Y301457980D02*
X-130865619Y301457980D01*
X-130865619Y301457980D02*
X-130722762Y301505600D01*
X-130722762Y301505600D02*
X-130627524Y301600838D01*
X-130627524Y301600838D02*
X-130579905Y301696076D01*
X-130579905Y301696076D02*
X-130532286Y301886552D01*
X-130532286Y301886552D02*
X-130532286Y302029409D01*
X-130532286Y302029409D02*
X-130579905Y302219885D01*
X-130579905Y302219885D02*
X-130627524Y302315123D01*
X-130627524Y302315123D02*
X-130722762Y302410361D01*
X-130722762Y302410361D02*
X-130865619Y302457980D01*
X-130865619Y302457980D02*
X-130960857Y302457980D01*
X-130960857Y302457980D02*
X-131103714Y302410361D01*
X-131103714Y302410361D02*
X-131151333Y302362742D01*
X-131484667Y302457980D02*
X-132103714Y302457980D01*
X-132103714Y302457980D02*
X-131770381Y302077028D01*
X-131770381Y302077028D02*
X-131913238Y302077028D01*
X-131913238Y302077028D02*
X-132008476Y302029409D01*
X-132008476Y302029409D02*
X-132056095Y301981790D01*
X-132056095Y301981790D02*
X-132103714Y301886552D01*
X-132103714Y301886552D02*
X-132103714Y301648457D01*
X-132103714Y301648457D02*
X-132056095Y301553219D01*
X-132056095Y301553219D02*
X-132008476Y301505600D01*
X-132008476Y301505600D02*
X-131913238Y301457980D01*
X-131913238Y301457980D02*
X-131627524Y301457980D01*
X-131627524Y301457980D02*
X-131532286Y301505600D01*
X-131532286Y301505600D02*
X-131484667Y301553219D01*
X-167386095Y310285180D02*
X-167386095Y309475657D01*
X-167386095Y309475657D02*
X-167433714Y309380419D01*
X-167433714Y309380419D02*
X-167481333Y309332800D01*
X-167481333Y309332800D02*
X-167576571Y309285180D01*
X-167576571Y309285180D02*
X-167767047Y309285180D01*
X-167767047Y309285180D02*
X-167862285Y309332800D01*
X-167862285Y309332800D02*
X-167909904Y309380419D01*
X-167909904Y309380419D02*
X-167957523Y309475657D01*
X-167957523Y309475657D02*
X-167957523Y310285180D01*
X-168338476Y310285180D02*
X-168957523Y310285180D01*
X-168957523Y310285180D02*
X-168624190Y309904228D01*
X-168624190Y309904228D02*
X-168767047Y309904228D01*
X-168767047Y309904228D02*
X-168862285Y309856609D01*
X-168862285Y309856609D02*
X-168909904Y309808990D01*
X-168909904Y309808990D02*
X-168957523Y309713752D01*
X-168957523Y309713752D02*
X-168957523Y309475657D01*
X-168957523Y309475657D02*
X-168909904Y309380419D01*
X-168909904Y309380419D02*
X-168862285Y309332800D01*
X-168862285Y309332800D02*
X-168767047Y309285180D01*
X-168767047Y309285180D02*
X-168481333Y309285180D01*
X-168481333Y309285180D02*
X-168386095Y309332800D01*
X-168386095Y309332800D02*
X-168338476Y309380419D01*
X-146896295Y301662380D02*
X-147467723Y301662380D01*
X-147182009Y300662380D02*
X-147182009Y301662380D01*
X-147801057Y300662380D02*
X-147801057Y301662380D01*
X-147801057Y301662380D02*
X-148182009Y301662380D01*
X-148182009Y301662380D02*
X-148277247Y301614761D01*
X-148277247Y301614761D02*
X-148324866Y301567142D01*
X-148324866Y301567142D02*
X-148372485Y301471904D01*
X-148372485Y301471904D02*
X-148372485Y301329047D01*
X-148372485Y301329047D02*
X-148324866Y301233809D01*
X-148324866Y301233809D02*
X-148277247Y301186190D01*
X-148277247Y301186190D02*
X-148182009Y301138571D01*
X-148182009Y301138571D02*
X-147801057Y301138571D01*
X-149324866Y300662380D02*
X-148753438Y300662380D01*
X-149039152Y300662380D02*
X-149039152Y301662380D01*
X-149039152Y301662380D02*
X-148943914Y301519523D01*
X-148943914Y301519523D02*
X-148848676Y301424285D01*
X-148848676Y301424285D02*
X-148753438Y301376666D01*
X-143260419Y315602857D02*
X-143212800Y315650476D01*
X-143212800Y315650476D02*
X-143165180Y315793333D01*
X-143165180Y315793333D02*
X-143165180Y315888571D01*
X-143165180Y315888571D02*
X-143212800Y316031428D01*
X-143212800Y316031428D02*
X-143308038Y316126666D01*
X-143308038Y316126666D02*
X-143403276Y316174285D01*
X-143403276Y316174285D02*
X-143593752Y316221904D01*
X-143593752Y316221904D02*
X-143736609Y316221904D01*
X-143736609Y316221904D02*
X-143927085Y316174285D01*
X-143927085Y316174285D02*
X-144022323Y316126666D01*
X-144022323Y316126666D02*
X-144117561Y316031428D01*
X-144117561Y316031428D02*
X-144165180Y315888571D01*
X-144165180Y315888571D02*
X-144165180Y315793333D01*
X-144165180Y315793333D02*
X-144117561Y315650476D01*
X-144117561Y315650476D02*
X-144069942Y315602857D01*
X-143165180Y314650476D02*
X-143165180Y315221904D01*
X-143165180Y314936190D02*
X-144165180Y314936190D01*
X-144165180Y314936190D02*
X-144022323Y315031428D01*
X-144022323Y315031428D02*
X-143927085Y315126666D01*
X-143927085Y315126666D02*
X-143879466Y315221904D01*
X-144165180Y314317142D02*
X-144165180Y313698095D01*
X-144165180Y313698095D02*
X-143784228Y314031428D01*
X-143784228Y314031428D02*
X-143784228Y313888571D01*
X-143784228Y313888571D02*
X-143736609Y313793333D01*
X-143736609Y313793333D02*
X-143688990Y313745714D01*
X-143688990Y313745714D02*
X-143593752Y313698095D01*
X-143593752Y313698095D02*
X-143355657Y313698095D01*
X-143355657Y313698095D02*
X-143260419Y313745714D01*
X-143260419Y313745714D02*
X-143212800Y313793333D01*
X-143212800Y313793333D02*
X-143165180Y313888571D01*
X-143165180Y313888571D02*
X-143165180Y314174285D01*
X-143165180Y314174285D02*
X-143212800Y314269523D01*
X-143212800Y314269523D02*
X-143260419Y314317142D01*
X-145680133Y297968180D02*
X-145346800Y298444371D01*
X-145108705Y297968180D02*
X-145108705Y298968180D01*
X-145108705Y298968180D02*
X-145489657Y298968180D01*
X-145489657Y298968180D02*
X-145584895Y298920561D01*
X-145584895Y298920561D02*
X-145632514Y298872942D01*
X-145632514Y298872942D02*
X-145680133Y298777704D01*
X-145680133Y298777704D02*
X-145680133Y298634847D01*
X-145680133Y298634847D02*
X-145632514Y298539609D01*
X-145632514Y298539609D02*
X-145584895Y298491990D01*
X-145584895Y298491990D02*
X-145489657Y298444371D01*
X-145489657Y298444371D02*
X-145108705Y298444371D01*
X-146061086Y298872942D02*
X-146108705Y298920561D01*
X-146108705Y298920561D02*
X-146203943Y298968180D01*
X-146203943Y298968180D02*
X-146442038Y298968180D01*
X-146442038Y298968180D02*
X-146537276Y298920561D01*
X-146537276Y298920561D02*
X-146584895Y298872942D01*
X-146584895Y298872942D02*
X-146632514Y298777704D01*
X-146632514Y298777704D02*
X-146632514Y298682466D01*
X-146632514Y298682466D02*
X-146584895Y298539609D01*
X-146584895Y298539609D02*
X-146013467Y297968180D01*
X-146013467Y297968180D02*
X-146632514Y297968180D01*
X-167593180Y312332666D02*
X-168069371Y312665999D01*
X-167593180Y312904094D02*
X-168593180Y312904094D01*
X-168593180Y312904094D02*
X-168593180Y312523142D01*
X-168593180Y312523142D02*
X-168545561Y312427904D01*
X-168545561Y312427904D02*
X-168497942Y312380285D01*
X-168497942Y312380285D02*
X-168402704Y312332666D01*
X-168402704Y312332666D02*
X-168259847Y312332666D01*
X-168259847Y312332666D02*
X-168164609Y312380285D01*
X-168164609Y312380285D02*
X-168116990Y312427904D01*
X-168116990Y312427904D02*
X-168069371Y312523142D01*
X-168069371Y312523142D02*
X-168069371Y312904094D01*
X-168593180Y311475523D02*
X-168593180Y311665999D01*
X-168593180Y311665999D02*
X-168545561Y311761237D01*
X-168545561Y311761237D02*
X-168497942Y311808856D01*
X-168497942Y311808856D02*
X-168355085Y311904094D01*
X-168355085Y311904094D02*
X-168164609Y311951713D01*
X-168164609Y311951713D02*
X-167783657Y311951713D01*
X-167783657Y311951713D02*
X-167688419Y311904094D01*
X-167688419Y311904094D02*
X-167640800Y311856475D01*
X-167640800Y311856475D02*
X-167593180Y311761237D01*
X-167593180Y311761237D02*
X-167593180Y311570761D01*
X-167593180Y311570761D02*
X-167640800Y311475523D01*
X-167640800Y311475523D02*
X-167688419Y311427904D01*
X-167688419Y311427904D02*
X-167783657Y311380285D01*
X-167783657Y311380285D02*
X-168021752Y311380285D01*
X-168021752Y311380285D02*
X-168116990Y311427904D01*
X-168116990Y311427904D02*
X-168164609Y311475523D01*
X-168164609Y311475523D02*
X-168212228Y311570761D01*
X-168212228Y311570761D02*
X-168212228Y311761237D01*
X-168212228Y311761237D02*
X-168164609Y311856475D01*
X-168164609Y311856475D02*
X-168116990Y311904094D01*
X-168116990Y311904094D02*
X-168021752Y311951713D01*
X-145542095Y322477180D02*
X-145542095Y321667657D01*
X-145542095Y321667657D02*
X-145589714Y321572419D01*
X-145589714Y321572419D02*
X-145637333Y321524800D01*
X-145637333Y321524800D02*
X-145732571Y321477180D01*
X-145732571Y321477180D02*
X-145923047Y321477180D01*
X-145923047Y321477180D02*
X-146018285Y321524800D01*
X-146018285Y321524800D02*
X-146065904Y321572419D01*
X-146065904Y321572419D02*
X-146113523Y321667657D01*
X-146113523Y321667657D02*
X-146113523Y322477180D01*
X-147018285Y322143847D02*
X-147018285Y321477180D01*
X-146780190Y322524800D02*
X-146542095Y321810514D01*
X-146542095Y321810514D02*
X-147161142Y321810514D01*
X-128357333Y307378419D02*
X-128309714Y307330800D01*
X-128309714Y307330800D02*
X-128166857Y307283180D01*
X-128166857Y307283180D02*
X-128071619Y307283180D01*
X-128071619Y307283180D02*
X-127928762Y307330800D01*
X-127928762Y307330800D02*
X-127833524Y307426038D01*
X-127833524Y307426038D02*
X-127785905Y307521276D01*
X-127785905Y307521276D02*
X-127738286Y307711752D01*
X-127738286Y307711752D02*
X-127738286Y307854609D01*
X-127738286Y307854609D02*
X-127785905Y308045085D01*
X-127785905Y308045085D02*
X-127833524Y308140323D01*
X-127833524Y308140323D02*
X-127928762Y308235561D01*
X-127928762Y308235561D02*
X-128071619Y308283180D01*
X-128071619Y308283180D02*
X-128166857Y308283180D01*
X-128166857Y308283180D02*
X-128309714Y308235561D01*
X-128309714Y308235561D02*
X-128357333Y308187942D01*
X-129309714Y307283180D02*
X-128738286Y307283180D01*
X-129024000Y307283180D02*
X-129024000Y308283180D01*
X-129024000Y308283180D02*
X-128928762Y308140323D01*
X-128928762Y308140323D02*
X-128833524Y308045085D01*
X-128833524Y308045085D02*
X-128738286Y307997466D01*
X-140500419Y304458666D02*
X-140452800Y304506285D01*
X-140452800Y304506285D02*
X-140405180Y304649142D01*
X-140405180Y304649142D02*
X-140405180Y304744380D01*
X-140405180Y304744380D02*
X-140452800Y304887237D01*
X-140452800Y304887237D02*
X-140548038Y304982475D01*
X-140548038Y304982475D02*
X-140643276Y305030094D01*
X-140643276Y305030094D02*
X-140833752Y305077713D01*
X-140833752Y305077713D02*
X-140976609Y305077713D01*
X-140976609Y305077713D02*
X-141167085Y305030094D01*
X-141167085Y305030094D02*
X-141262323Y304982475D01*
X-141262323Y304982475D02*
X-141357561Y304887237D01*
X-141357561Y304887237D02*
X-141405180Y304744380D01*
X-141405180Y304744380D02*
X-141405180Y304649142D01*
X-141405180Y304649142D02*
X-141357561Y304506285D01*
X-141357561Y304506285D02*
X-141309942Y304458666D01*
X-140976609Y303887237D02*
X-141024228Y303982475D01*
X-141024228Y303982475D02*
X-141071847Y304030094D01*
X-141071847Y304030094D02*
X-141167085Y304077713D01*
X-141167085Y304077713D02*
X-141214704Y304077713D01*
X-141214704Y304077713D02*
X-141309942Y304030094D01*
X-141309942Y304030094D02*
X-141357561Y303982475D01*
X-141357561Y303982475D02*
X-141405180Y303887237D01*
X-141405180Y303887237D02*
X-141405180Y303696761D01*
X-141405180Y303696761D02*
X-141357561Y303601523D01*
X-141357561Y303601523D02*
X-141309942Y303553904D01*
X-141309942Y303553904D02*
X-141214704Y303506285D01*
X-141214704Y303506285D02*
X-141167085Y303506285D01*
X-141167085Y303506285D02*
X-141071847Y303553904D01*
X-141071847Y303553904D02*
X-141024228Y303601523D01*
X-141024228Y303601523D02*
X-140976609Y303696761D01*
X-140976609Y303696761D02*
X-140976609Y303887237D01*
X-140976609Y303887237D02*
X-140928990Y303982475D01*
X-140928990Y303982475D02*
X-140881371Y304030094D01*
X-140881371Y304030094D02*
X-140786133Y304077713D01*
X-140786133Y304077713D02*
X-140595657Y304077713D01*
X-140595657Y304077713D02*
X-140500419Y304030094D01*
X-140500419Y304030094D02*
X-140452800Y303982475D01*
X-140452800Y303982475D02*
X-140405180Y303887237D01*
X-140405180Y303887237D02*
X-140405180Y303696761D01*
X-140405180Y303696761D02*
X-140452800Y303601523D01*
X-140452800Y303601523D02*
X-140500419Y303553904D01*
X-140500419Y303553904D02*
X-140595657Y303506285D01*
X-140595657Y303506285D02*
X-140786133Y303506285D01*
X-140786133Y303506285D02*
X-140881371Y303553904D01*
X-140881371Y303553904D02*
X-140928990Y303601523D01*
X-140928990Y303601523D02*
X-140976609Y303696761D01*
X-132315980Y299897104D02*
X-131506457Y299897104D01*
X-131506457Y299897104D02*
X-131411219Y299849485D01*
X-131411219Y299849485D02*
X-131363600Y299801866D01*
X-131363600Y299801866D02*
X-131315980Y299706628D01*
X-131315980Y299706628D02*
X-131315980Y299516152D01*
X-131315980Y299516152D02*
X-131363600Y299420914D01*
X-131363600Y299420914D02*
X-131411219Y299373295D01*
X-131411219Y299373295D02*
X-131506457Y299325676D01*
X-131506457Y299325676D02*
X-132315980Y299325676D01*
X-132220742Y298897104D02*
X-132268361Y298849485D01*
X-132268361Y298849485D02*
X-132315980Y298754247D01*
X-132315980Y298754247D02*
X-132315980Y298516152D01*
X-132315980Y298516152D02*
X-132268361Y298420914D01*
X-132268361Y298420914D02*
X-132220742Y298373295D01*
X-132220742Y298373295D02*
X-132125504Y298325676D01*
X-132125504Y298325676D02*
X-132030266Y298325676D01*
X-132030266Y298325676D02*
X-131887409Y298373295D01*
X-131887409Y298373295D02*
X-131315980Y298944723D01*
X-131315980Y298944723D02*
X-131315980Y298325676D01*
X-141770419Y304458666D02*
X-141722800Y304506285D01*
X-141722800Y304506285D02*
X-141675180Y304649142D01*
X-141675180Y304649142D02*
X-141675180Y304744380D01*
X-141675180Y304744380D02*
X-141722800Y304887237D01*
X-141722800Y304887237D02*
X-141818038Y304982475D01*
X-141818038Y304982475D02*
X-141913276Y305030094D01*
X-141913276Y305030094D02*
X-142103752Y305077713D01*
X-142103752Y305077713D02*
X-142246609Y305077713D01*
X-142246609Y305077713D02*
X-142437085Y305030094D01*
X-142437085Y305030094D02*
X-142532323Y304982475D01*
X-142532323Y304982475D02*
X-142627561Y304887237D01*
X-142627561Y304887237D02*
X-142675180Y304744380D01*
X-142675180Y304744380D02*
X-142675180Y304649142D01*
X-142675180Y304649142D02*
X-142627561Y304506285D01*
X-142627561Y304506285D02*
X-142579942Y304458666D01*
X-142675180Y304125332D02*
X-142675180Y303458666D01*
X-142675180Y303458666D02*
X-141675180Y303887237D01*
X-167756666Y315223180D02*
X-167756666Y314508895D01*
X-167756666Y314508895D02*
X-167709047Y314366038D01*
X-167709047Y314366038D02*
X-167613809Y314270800D01*
X-167613809Y314270800D02*
X-167470952Y314223180D01*
X-167470952Y314223180D02*
X-167375714Y314223180D01*
X-168185238Y315127942D02*
X-168232857Y315175561D01*
X-168232857Y315175561D02*
X-168328095Y315223180D01*
X-168328095Y315223180D02*
X-168566190Y315223180D01*
X-168566190Y315223180D02*
X-168661428Y315175561D01*
X-168661428Y315175561D02*
X-168709047Y315127942D01*
X-168709047Y315127942D02*
X-168756666Y315032704D01*
X-168756666Y315032704D02*
X-168756666Y314937466D01*
X-168756666Y314937466D02*
X-168709047Y314794609D01*
X-168709047Y314794609D02*
X-168137619Y314223180D01*
X-168137619Y314223180D02*
X-168756666Y314223180D01*
X-148594419Y320206666D02*
X-148546800Y320254285D01*
X-148546800Y320254285D02*
X-148499180Y320397142D01*
X-148499180Y320397142D02*
X-148499180Y320492380D01*
X-148499180Y320492380D02*
X-148546800Y320635237D01*
X-148546800Y320635237D02*
X-148642038Y320730475D01*
X-148642038Y320730475D02*
X-148737276Y320778094D01*
X-148737276Y320778094D02*
X-148927752Y320825713D01*
X-148927752Y320825713D02*
X-149070609Y320825713D01*
X-149070609Y320825713D02*
X-149261085Y320778094D01*
X-149261085Y320778094D02*
X-149356323Y320730475D01*
X-149356323Y320730475D02*
X-149451561Y320635237D01*
X-149451561Y320635237D02*
X-149499180Y320492380D01*
X-149499180Y320492380D02*
X-149499180Y320397142D01*
X-149499180Y320397142D02*
X-149451561Y320254285D01*
X-149451561Y320254285D02*
X-149403942Y320206666D01*
X-149165847Y319349523D02*
X-148499180Y319349523D01*
X-149546800Y319587618D02*
X-148832514Y319825713D01*
X-148832514Y319825713D02*
X-148832514Y319206666D01*
X-141990419Y315602857D02*
X-141942800Y315650476D01*
X-141942800Y315650476D02*
X-141895180Y315793333D01*
X-141895180Y315793333D02*
X-141895180Y315888571D01*
X-141895180Y315888571D02*
X-141942800Y316031428D01*
X-141942800Y316031428D02*
X-142038038Y316126666D01*
X-142038038Y316126666D02*
X-142133276Y316174285D01*
X-142133276Y316174285D02*
X-142323752Y316221904D01*
X-142323752Y316221904D02*
X-142466609Y316221904D01*
X-142466609Y316221904D02*
X-142657085Y316174285D01*
X-142657085Y316174285D02*
X-142752323Y316126666D01*
X-142752323Y316126666D02*
X-142847561Y316031428D01*
X-142847561Y316031428D02*
X-142895180Y315888571D01*
X-142895180Y315888571D02*
X-142895180Y315793333D01*
X-142895180Y315793333D02*
X-142847561Y315650476D01*
X-142847561Y315650476D02*
X-142799942Y315602857D01*
X-141895180Y314650476D02*
X-141895180Y315221904D01*
X-141895180Y314936190D02*
X-142895180Y314936190D01*
X-142895180Y314936190D02*
X-142752323Y315031428D01*
X-142752323Y315031428D02*
X-142657085Y315126666D01*
X-142657085Y315126666D02*
X-142609466Y315221904D01*
X-142561847Y313793333D02*
X-141895180Y313793333D01*
X-142942800Y314031428D02*
X-142228514Y314269523D01*
X-142228514Y314269523D02*
X-142228514Y313650476D01*
X-128357333Y306023180D02*
X-128024000Y306499371D01*
X-127785905Y306023180D02*
X-127785905Y307023180D01*
X-127785905Y307023180D02*
X-128166857Y307023180D01*
X-128166857Y307023180D02*
X-128262095Y306975561D01*
X-128262095Y306975561D02*
X-128309714Y306927942D01*
X-128309714Y306927942D02*
X-128357333Y306832704D01*
X-128357333Y306832704D02*
X-128357333Y306689847D01*
X-128357333Y306689847D02*
X-128309714Y306594609D01*
X-128309714Y306594609D02*
X-128262095Y306546990D01*
X-128262095Y306546990D02*
X-128166857Y306499371D01*
X-128166857Y306499371D02*
X-127785905Y306499371D01*
X-129309714Y306023180D02*
X-128738286Y306023180D01*
X-129024000Y306023180D02*
X-129024000Y307023180D01*
X-129024000Y307023180D02*
X-128928762Y306880323D01*
X-128928762Y306880323D02*
X-128833524Y306785085D01*
X-128833524Y306785085D02*
X-128738286Y306737466D01*
X-141228419Y319190666D02*
X-141180800Y319238285D01*
X-141180800Y319238285D02*
X-141133180Y319381142D01*
X-141133180Y319381142D02*
X-141133180Y319476380D01*
X-141133180Y319476380D02*
X-141180800Y319619237D01*
X-141180800Y319619237D02*
X-141276038Y319714475D01*
X-141276038Y319714475D02*
X-141371276Y319762094D01*
X-141371276Y319762094D02*
X-141561752Y319809713D01*
X-141561752Y319809713D02*
X-141704609Y319809713D01*
X-141704609Y319809713D02*
X-141895085Y319762094D01*
X-141895085Y319762094D02*
X-141990323Y319714475D01*
X-141990323Y319714475D02*
X-142085561Y319619237D01*
X-142085561Y319619237D02*
X-142133180Y319476380D01*
X-142133180Y319476380D02*
X-142133180Y319381142D01*
X-142133180Y319381142D02*
X-142085561Y319238285D01*
X-142085561Y319238285D02*
X-142037942Y319190666D01*
X-142133180Y318285904D02*
X-142133180Y318762094D01*
X-142133180Y318762094D02*
X-141656990Y318809713D01*
X-141656990Y318809713D02*
X-141704609Y318762094D01*
X-141704609Y318762094D02*
X-141752228Y318666856D01*
X-141752228Y318666856D02*
X-141752228Y318428761D01*
X-141752228Y318428761D02*
X-141704609Y318333523D01*
X-141704609Y318333523D02*
X-141656990Y318285904D01*
X-141656990Y318285904D02*
X-141561752Y318238285D01*
X-141561752Y318238285D02*
X-141323657Y318238285D01*
X-141323657Y318238285D02*
X-141228419Y318285904D01*
X-141228419Y318285904D02*
X-141180800Y318333523D01*
X-141180800Y318333523D02*
X-141133180Y318428761D01*
X-141133180Y318428761D02*
X-141133180Y318666856D01*
X-141133180Y318666856D02*
X-141180800Y318762094D01*
X-141180800Y318762094D02*
X-141228419Y318809713D01*
X-142581333Y307747180D02*
X-142248000Y308223371D01*
X-142009905Y307747180D02*
X-142009905Y308747180D01*
X-142009905Y308747180D02*
X-142390857Y308747180D01*
X-142390857Y308747180D02*
X-142486095Y308699561D01*
X-142486095Y308699561D02*
X-142533714Y308651942D01*
X-142533714Y308651942D02*
X-142581333Y308556704D01*
X-142581333Y308556704D02*
X-142581333Y308413847D01*
X-142581333Y308413847D02*
X-142533714Y308318609D01*
X-142533714Y308318609D02*
X-142486095Y308270990D01*
X-142486095Y308270990D02*
X-142390857Y308223371D01*
X-142390857Y308223371D02*
X-142009905Y308223371D01*
X-142914667Y308747180D02*
X-143533714Y308747180D01*
X-143533714Y308747180D02*
X-143200381Y308366228D01*
X-143200381Y308366228D02*
X-143343238Y308366228D01*
X-143343238Y308366228D02*
X-143438476Y308318609D01*
X-143438476Y308318609D02*
X-143486095Y308270990D01*
X-143486095Y308270990D02*
X-143533714Y308175752D01*
X-143533714Y308175752D02*
X-143533714Y307937657D01*
X-143533714Y307937657D02*
X-143486095Y307842419D01*
X-143486095Y307842419D02*
X-143438476Y307794800D01*
X-143438476Y307794800D02*
X-143343238Y307747180D01*
X-143343238Y307747180D02*
X-143057524Y307747180D01*
X-143057524Y307747180D02*
X-142962286Y307794800D01*
X-142962286Y307794800D02*
X-142914667Y307842419D01*
X-131024333Y303098980D02*
X-130691000Y303575171D01*
X-130452905Y303098980D02*
X-130452905Y304098980D01*
X-130452905Y304098980D02*
X-130833857Y304098980D01*
X-130833857Y304098980D02*
X-130929095Y304051361D01*
X-130929095Y304051361D02*
X-130976714Y304003742D01*
X-130976714Y304003742D02*
X-131024333Y303908504D01*
X-131024333Y303908504D02*
X-131024333Y303765647D01*
X-131024333Y303765647D02*
X-130976714Y303670409D01*
X-130976714Y303670409D02*
X-130929095Y303622790D01*
X-130929095Y303622790D02*
X-130833857Y303575171D01*
X-130833857Y303575171D02*
X-130452905Y303575171D01*
X-131929095Y304098980D02*
X-131452905Y304098980D01*
X-131452905Y304098980D02*
X-131405286Y303622790D01*
X-131405286Y303622790D02*
X-131452905Y303670409D01*
X-131452905Y303670409D02*
X-131548143Y303718028D01*
X-131548143Y303718028D02*
X-131786238Y303718028D01*
X-131786238Y303718028D02*
X-131881476Y303670409D01*
X-131881476Y303670409D02*
X-131929095Y303622790D01*
X-131929095Y303622790D02*
X-131976714Y303527552D01*
X-131976714Y303527552D02*
X-131976714Y303289457D01*
X-131976714Y303289457D02*
X-131929095Y303194219D01*
X-131929095Y303194219D02*
X-131881476Y303146600D01*
X-131881476Y303146600D02*
X-131786238Y303098980D01*
X-131786238Y303098980D02*
X-131548143Y303098980D01*
X-131548143Y303098980D02*
X-131452905Y303146600D01*
X-131452905Y303146600D02*
X-131405286Y303194219D01*
X-166059590Y312473933D02*
X-166059590Y312807266D01*
X-165535780Y312807266D02*
X-166535780Y312807266D01*
X-166535780Y312807266D02*
X-166535780Y312331076D01*
X-165535780Y311426314D02*
X-165535780Y311997742D01*
X-165535780Y311712028D02*
X-166535780Y311712028D01*
X-166535780Y311712028D02*
X-166392923Y311807266D01*
X-166392923Y311807266D02*
X-166297685Y311902504D01*
X-166297685Y311902504D02*
X-166250066Y311997742D01*
X-138180419Y315602857D02*
X-138132800Y315650476D01*
X-138132800Y315650476D02*
X-138085180Y315793333D01*
X-138085180Y315793333D02*
X-138085180Y315888571D01*
X-138085180Y315888571D02*
X-138132800Y316031428D01*
X-138132800Y316031428D02*
X-138228038Y316126666D01*
X-138228038Y316126666D02*
X-138323276Y316174285D01*
X-138323276Y316174285D02*
X-138513752Y316221904D01*
X-138513752Y316221904D02*
X-138656609Y316221904D01*
X-138656609Y316221904D02*
X-138847085Y316174285D01*
X-138847085Y316174285D02*
X-138942323Y316126666D01*
X-138942323Y316126666D02*
X-139037561Y316031428D01*
X-139037561Y316031428D02*
X-139085180Y315888571D01*
X-139085180Y315888571D02*
X-139085180Y315793333D01*
X-139085180Y315793333D02*
X-139037561Y315650476D01*
X-139037561Y315650476D02*
X-138989942Y315602857D01*
X-138085180Y314650476D02*
X-138085180Y315221904D01*
X-138085180Y314936190D02*
X-139085180Y314936190D01*
X-139085180Y314936190D02*
X-138942323Y315031428D01*
X-138942323Y315031428D02*
X-138847085Y315126666D01*
X-138847085Y315126666D02*
X-138799466Y315221904D01*
X-139085180Y314317142D02*
X-139085180Y313650476D01*
X-139085180Y313650476D02*
X-138085180Y314079047D01*
X-147070419Y315602857D02*
X-147022800Y315650476D01*
X-147022800Y315650476D02*
X-146975180Y315793333D01*
X-146975180Y315793333D02*
X-146975180Y315888571D01*
X-146975180Y315888571D02*
X-147022800Y316031428D01*
X-147022800Y316031428D02*
X-147118038Y316126666D01*
X-147118038Y316126666D02*
X-147213276Y316174285D01*
X-147213276Y316174285D02*
X-147403752Y316221904D01*
X-147403752Y316221904D02*
X-147546609Y316221904D01*
X-147546609Y316221904D02*
X-147737085Y316174285D01*
X-147737085Y316174285D02*
X-147832323Y316126666D01*
X-147832323Y316126666D02*
X-147927561Y316031428D01*
X-147927561Y316031428D02*
X-147975180Y315888571D01*
X-147975180Y315888571D02*
X-147975180Y315793333D01*
X-147975180Y315793333D02*
X-147927561Y315650476D01*
X-147927561Y315650476D02*
X-147879942Y315602857D01*
X-146975180Y314650476D02*
X-146975180Y315221904D01*
X-146975180Y314936190D02*
X-147975180Y314936190D01*
X-147975180Y314936190D02*
X-147832323Y315031428D01*
X-147832323Y315031428D02*
X-147737085Y315126666D01*
X-147737085Y315126666D02*
X-147689466Y315221904D01*
X-147975180Y314031428D02*
X-147975180Y313936190D01*
X-147975180Y313936190D02*
X-147927561Y313840952D01*
X-147927561Y313840952D02*
X-147879942Y313793333D01*
X-147879942Y313793333D02*
X-147784704Y313745714D01*
X-147784704Y313745714D02*
X-147594228Y313698095D01*
X-147594228Y313698095D02*
X-147356133Y313698095D01*
X-147356133Y313698095D02*
X-147165657Y313745714D01*
X-147165657Y313745714D02*
X-147070419Y313793333D01*
X-147070419Y313793333D02*
X-147022800Y313840952D01*
X-147022800Y313840952D02*
X-146975180Y313936190D01*
X-146975180Y313936190D02*
X-146975180Y314031428D01*
X-146975180Y314031428D02*
X-147022800Y314126666D01*
X-147022800Y314126666D02*
X-147070419Y314174285D01*
X-147070419Y314174285D02*
X-147165657Y314221904D01*
X-147165657Y314221904D02*
X-147356133Y314269523D01*
X-147356133Y314269523D02*
X-147594228Y314269523D01*
X-147594228Y314269523D02*
X-147784704Y314221904D01*
X-147784704Y314221904D02*
X-147879942Y314174285D01*
X-147879942Y314174285D02*
X-147927561Y314126666D01*
X-147927561Y314126666D02*
X-147975180Y314031428D01*
X-136805180Y317412666D02*
X-137281371Y317745999D01*
X-136805180Y317984094D02*
X-137805180Y317984094D01*
X-137805180Y317984094D02*
X-137805180Y317603142D01*
X-137805180Y317603142D02*
X-137757561Y317507904D01*
X-137757561Y317507904D02*
X-137709942Y317460285D01*
X-137709942Y317460285D02*
X-137614704Y317412666D01*
X-137614704Y317412666D02*
X-137471847Y317412666D01*
X-137471847Y317412666D02*
X-137376609Y317460285D01*
X-137376609Y317460285D02*
X-137328990Y317507904D01*
X-137328990Y317507904D02*
X-137281371Y317603142D01*
X-137281371Y317603142D02*
X-137281371Y317984094D01*
X-137376609Y316841237D02*
X-137424228Y316936475D01*
X-137424228Y316936475D02*
X-137471847Y316984094D01*
X-137471847Y316984094D02*
X-137567085Y317031713D01*
X-137567085Y317031713D02*
X-137614704Y317031713D01*
X-137614704Y317031713D02*
X-137709942Y316984094D01*
X-137709942Y316984094D02*
X-137757561Y316936475D01*
X-137757561Y316936475D02*
X-137805180Y316841237D01*
X-137805180Y316841237D02*
X-137805180Y316650761D01*
X-137805180Y316650761D02*
X-137757561Y316555523D01*
X-137757561Y316555523D02*
X-137709942Y316507904D01*
X-137709942Y316507904D02*
X-137614704Y316460285D01*
X-137614704Y316460285D02*
X-137567085Y316460285D01*
X-137567085Y316460285D02*
X-137471847Y316507904D01*
X-137471847Y316507904D02*
X-137424228Y316555523D01*
X-137424228Y316555523D02*
X-137376609Y316650761D01*
X-137376609Y316650761D02*
X-137376609Y316841237D01*
X-137376609Y316841237D02*
X-137328990Y316936475D01*
X-137328990Y316936475D02*
X-137281371Y316984094D01*
X-137281371Y316984094D02*
X-137186133Y317031713D01*
X-137186133Y317031713D02*
X-136995657Y317031713D01*
X-136995657Y317031713D02*
X-136900419Y316984094D01*
X-136900419Y316984094D02*
X-136852800Y316936475D01*
X-136852800Y316936475D02*
X-136805180Y316841237D01*
X-136805180Y316841237D02*
X-136805180Y316650761D01*
X-136805180Y316650761D02*
X-136852800Y316555523D01*
X-136852800Y316555523D02*
X-136900419Y316507904D01*
X-136900419Y316507904D02*
X-136995657Y316460285D01*
X-136995657Y316460285D02*
X-137186133Y316460285D01*
X-137186133Y316460285D02*
X-137281371Y316507904D01*
X-137281371Y316507904D02*
X-137328990Y316555523D01*
X-137328990Y316555523D02*
X-137376609Y316650761D01*
X-128357333Y309122419D02*
X-128309714Y309074800D01*
X-128309714Y309074800D02*
X-128166857Y309027180D01*
X-128166857Y309027180D02*
X-128071619Y309027180D01*
X-128071619Y309027180D02*
X-127928762Y309074800D01*
X-127928762Y309074800D02*
X-127833524Y309170038D01*
X-127833524Y309170038D02*
X-127785905Y309265276D01*
X-127785905Y309265276D02*
X-127738286Y309455752D01*
X-127738286Y309455752D02*
X-127738286Y309598609D01*
X-127738286Y309598609D02*
X-127785905Y309789085D01*
X-127785905Y309789085D02*
X-127833524Y309884323D01*
X-127833524Y309884323D02*
X-127928762Y309979561D01*
X-127928762Y309979561D02*
X-128071619Y310027180D01*
X-128071619Y310027180D02*
X-128166857Y310027180D01*
X-128166857Y310027180D02*
X-128309714Y309979561D01*
X-128309714Y309979561D02*
X-128357333Y309931942D01*
X-128738286Y309931942D02*
X-128785905Y309979561D01*
X-128785905Y309979561D02*
X-128881143Y310027180D01*
X-128881143Y310027180D02*
X-129119238Y310027180D01*
X-129119238Y310027180D02*
X-129214476Y309979561D01*
X-129214476Y309979561D02*
X-129262095Y309931942D01*
X-129262095Y309931942D02*
X-129309714Y309836704D01*
X-129309714Y309836704D02*
X-129309714Y309741466D01*
X-129309714Y309741466D02*
X-129262095Y309598609D01*
X-129262095Y309598609D02*
X-128690667Y309027180D01*
X-128690667Y309027180D02*
X-129309714Y309027180D01*
D11*
%TO.C,S8*%
X-282576000Y111289000D02*
X-282781000Y111289000D01*
X-289026000Y111289000D02*
X-285371000Y111289000D01*
X-282781000Y103889000D02*
X-282576000Y103889000D01*
X-289026000Y103889000D02*
X-285371000Y103889000D01*
X-282576000Y103889000D02*
X-282576000Y111289000D01*
X-289026000Y111289000D02*
X-289026000Y109339000D01*
X-289026000Y109339000D02*
X-289026000Y105839000D01*
X-289026000Y105839000D02*
X-289026000Y103889000D01*
X-298576000Y109339000D02*
X-298576000Y105839000D01*
X-289026000Y105839000D02*
X-298576000Y105839000D01*
X-289026000Y109339000D02*
X-298576000Y109339000D01*
D12*
X-286476000Y112589000D02*
G75*
G02*
X-286676000Y112589000I-100000J0D01*
G01*
X-286676000Y112589000D02*
G75*
G02*
X-286476000Y112589000I100000J0D01*
G01*
D11*
%TO.C,S7*%
X-282576000Y137289000D02*
X-282781000Y137289000D01*
X-289026000Y137289000D02*
X-285371000Y137289000D01*
X-282781000Y129889000D02*
X-282576000Y129889000D01*
X-289026000Y129889000D02*
X-285371000Y129889000D01*
X-282576000Y129889000D02*
X-282576000Y137289000D01*
X-289026000Y137289000D02*
X-289026000Y135339000D01*
X-289026000Y135339000D02*
X-289026000Y131839000D01*
X-289026000Y131839000D02*
X-289026000Y129889000D01*
X-298576000Y135339000D02*
X-298576000Y131839000D01*
X-289026000Y131839000D02*
X-298576000Y131839000D01*
X-289026000Y135339000D02*
X-298576000Y135339000D01*
D12*
X-286476000Y138589000D02*
G75*
G02*
X-286676000Y138589000I-100000J0D01*
G01*
X-286676000Y138589000D02*
G75*
G02*
X-286476000Y138589000I100000J0D01*
G01*
D11*
%TO.C,S6*%
X-282576000Y163289000D02*
X-282781000Y163289000D01*
X-289026000Y163289000D02*
X-285371000Y163289000D01*
X-282781000Y155889000D02*
X-282576000Y155889000D01*
X-289026000Y155889000D02*
X-285371000Y155889000D01*
X-282576000Y155889000D02*
X-282576000Y163289000D01*
X-289026000Y163289000D02*
X-289026000Y161339000D01*
X-289026000Y161339000D02*
X-289026000Y157839000D01*
X-289026000Y157839000D02*
X-289026000Y155889000D01*
X-298576000Y161339000D02*
X-298576000Y157839000D01*
X-289026000Y157839000D02*
X-298576000Y157839000D01*
X-289026000Y161339000D02*
X-298576000Y161339000D01*
D12*
X-286476000Y164589000D02*
G75*
G02*
X-286676000Y164589000I-100000J0D01*
G01*
X-286676000Y164589000D02*
G75*
G02*
X-286476000Y164589000I100000J0D01*
G01*
D11*
%TO.C,S5*%
X-282576000Y189289000D02*
X-282781000Y189289000D01*
X-289026000Y189289000D02*
X-285371000Y189289000D01*
X-282781000Y181889000D02*
X-282576000Y181889000D01*
X-289026000Y181889000D02*
X-285371000Y181889000D01*
X-282576000Y181889000D02*
X-282576000Y189289000D01*
X-289026000Y189289000D02*
X-289026000Y187339000D01*
X-289026000Y187339000D02*
X-289026000Y183839000D01*
X-289026000Y183839000D02*
X-289026000Y181889000D01*
X-298576000Y187339000D02*
X-298576000Y183839000D01*
X-289026000Y183839000D02*
X-298576000Y183839000D01*
X-289026000Y187339000D02*
X-298576000Y187339000D01*
D12*
X-286476000Y190589000D02*
G75*
G02*
X-286676000Y190589000I-100000J0D01*
G01*
X-286676000Y190589000D02*
G75*
G02*
X-286476000Y190589000I100000J0D01*
G01*
D11*
%TO.C,S4*%
X-282576000Y215289000D02*
X-282781000Y215289000D01*
X-289026000Y215289000D02*
X-285371000Y215289000D01*
X-282781000Y207889000D02*
X-282576000Y207889000D01*
X-289026000Y207889000D02*
X-285371000Y207889000D01*
X-282576000Y207889000D02*
X-282576000Y215289000D01*
X-289026000Y215289000D02*
X-289026000Y213339000D01*
X-289026000Y213339000D02*
X-289026000Y209839000D01*
X-289026000Y209839000D02*
X-289026000Y207889000D01*
X-298576000Y213339000D02*
X-298576000Y209839000D01*
X-289026000Y209839000D02*
X-298576000Y209839000D01*
X-289026000Y213339000D02*
X-298576000Y213339000D01*
D12*
X-286476000Y216589000D02*
G75*
G02*
X-286676000Y216589000I-100000J0D01*
G01*
X-286676000Y216589000D02*
G75*
G02*
X-286476000Y216589000I100000J0D01*
G01*
D11*
%TO.C,S3*%
X-282576000Y241289000D02*
X-282781000Y241289000D01*
X-289026000Y241289000D02*
X-285371000Y241289000D01*
X-282781000Y233889000D02*
X-282576000Y233889000D01*
X-289026000Y233889000D02*
X-285371000Y233889000D01*
X-282576000Y233889000D02*
X-282576000Y241289000D01*
X-289026000Y241289000D02*
X-289026000Y239339000D01*
X-289026000Y239339000D02*
X-289026000Y235839000D01*
X-289026000Y235839000D02*
X-289026000Y233889000D01*
X-298576000Y239339000D02*
X-298576000Y235839000D01*
X-289026000Y235839000D02*
X-298576000Y235839000D01*
X-289026000Y239339000D02*
X-298576000Y239339000D01*
D12*
X-286476000Y242589000D02*
G75*
G02*
X-286676000Y242589000I-100000J0D01*
G01*
X-286676000Y242589000D02*
G75*
G02*
X-286476000Y242589000I100000J0D01*
G01*
D11*
%TO.C,S2*%
X-282576000Y267289000D02*
X-282781000Y267289000D01*
X-289026000Y267289000D02*
X-285371000Y267289000D01*
X-282781000Y259889000D02*
X-282576000Y259889000D01*
X-289026000Y259889000D02*
X-285371000Y259889000D01*
X-282576000Y259889000D02*
X-282576000Y267289000D01*
X-289026000Y267289000D02*
X-289026000Y265339000D01*
X-289026000Y265339000D02*
X-289026000Y261839000D01*
X-289026000Y261839000D02*
X-289026000Y259889000D01*
X-298576000Y265339000D02*
X-298576000Y261839000D01*
X-289026000Y261839000D02*
X-298576000Y261839000D01*
X-289026000Y265339000D02*
X-298576000Y265339000D01*
D12*
X-286476000Y268589000D02*
G75*
G02*
X-286676000Y268589000I-100000J0D01*
G01*
X-286676000Y268589000D02*
G75*
G02*
X-286476000Y268589000I100000J0D01*
G01*
D11*
%TO.C,S1*%
X-282576000Y293289000D02*
X-282781000Y293289000D01*
X-289026000Y293289000D02*
X-285371000Y293289000D01*
X-282781000Y285889000D02*
X-282576000Y285889000D01*
X-289026000Y285889000D02*
X-285371000Y285889000D01*
X-282576000Y285889000D02*
X-282576000Y293289000D01*
X-289026000Y293289000D02*
X-289026000Y291339000D01*
X-289026000Y291339000D02*
X-289026000Y287839000D01*
X-289026000Y287839000D02*
X-289026000Y285889000D01*
X-298576000Y291339000D02*
X-298576000Y287839000D01*
X-289026000Y287839000D02*
X-298576000Y287839000D01*
X-289026000Y291339000D02*
X-298576000Y291339000D01*
D12*
X-286476000Y294589000D02*
G75*
G02*
X-286676000Y294589000I-100000J0D01*
G01*
X-286676000Y294589000D02*
G75*
G02*
X-286476000Y294589000I100000J0D01*
G01*
D13*
%TO.C,C9*%
X-150220000Y314852164D02*
X-150220000Y315067836D01*
X-149500000Y314852164D02*
X-149500000Y315067836D01*
%TO.C,C6*%
X-142600000Y304399836D02*
X-142600000Y304184164D01*
X-141880000Y304399836D02*
X-141880000Y304184164D01*
%TO.C,U1*%
X-139754000Y312586000D02*
X-139754000Y313236000D01*
X-139754000Y306666000D02*
X-139754000Y306016000D01*
X-139754000Y306016000D02*
X-139104000Y306016000D01*
X-132534000Y313236000D02*
X-133184000Y313236000D01*
X-132534000Y312586000D02*
X-132534000Y313236000D01*
X-132534000Y306666000D02*
X-132534000Y306016000D01*
X-132534000Y306016000D02*
X-133184000Y306016000D01*
%TO.C,R4*%
X-142901641Y307974000D02*
X-142594359Y307974000D01*
X-142901641Y307214000D02*
X-142594359Y307214000D01*
%TO.C,C11*%
X-147680000Y314852164D02*
X-147680000Y315067836D01*
X-146960000Y314852164D02*
X-146960000Y315067836D01*
%TO.C,C15*%
X-142600000Y314852164D02*
X-142600000Y315067836D01*
X-141880000Y314852164D02*
X-141880000Y315067836D01*
%TO.C,Y1*%
X-129674000Y307260000D02*
X-129674000Y309960000D01*
X-127374000Y307260000D02*
X-129674000Y307260000D01*
%TO.C,R7*%
X-170052000Y312319641D02*
X-170052000Y312012359D01*
X-169292000Y312319641D02*
X-169292000Y312012359D01*
%TO.C,C12*%
X-146410000Y314852164D02*
X-146410000Y315067836D01*
X-145690000Y314852164D02*
X-145690000Y315067836D01*
%TO.C,C16*%
X-141330000Y314852164D02*
X-141330000Y315067836D01*
X-140610000Y314852164D02*
X-140610000Y315067836D01*
%TO.C,J1*%
X-124403000Y317610000D02*
X-124403000Y316120000D01*
X-124403000Y317610000D02*
X-123403000Y317610000D01*
X-124403000Y316120000D02*
X-124403000Y316120000D01*
X-124403000Y316120000D02*
X-124403000Y315175000D01*
X-124183000Y317610000D02*
X-123403000Y317610000D01*
X-123183000Y316120000D02*
X-122403000Y316120000D01*
X-122183000Y317610000D02*
X-121403000Y317610000D01*
X-121183000Y316120000D02*
X-120403000Y316120000D01*
X-120183000Y317610000D02*
X-119183000Y317610000D01*
X-119183000Y317610000D02*
X-119183000Y317610000D01*
X-119183000Y317610000D02*
X-119183000Y316120000D01*
%TO.C,C3*%
X-131425836Y303432800D02*
X-131210164Y303432800D01*
X-131425836Y302712800D02*
X-131210164Y302712800D01*
%TO.C,U3*%
X-168148000Y308900000D02*
X-168948000Y308900000D01*
X-168148000Y308900000D02*
X-167348000Y308900000D01*
X-168148000Y305780000D02*
X-168948000Y305780000D01*
X-168148000Y305780000D02*
X-167348000Y305780000D01*
X-166848000Y308850000D02*
X-167088000Y309180000D01*
X-166608000Y309180000D01*
X-166848000Y308850000D01*
G36*
X-166848000Y308850000D02*
G01*
X-167088000Y309180000D01*
X-166608000Y309180000D01*
X-166848000Y308850000D01*
G37*
%TO.C,TP1*%
X-148858200Y300369200D02*
X-148858200Y298969200D01*
X-148858200Y298969200D02*
X-147458200Y298969200D01*
X-147458200Y300369200D02*
X-148858200Y300369200D01*
X-147458200Y298969200D02*
X-147458200Y300369200D01*
%TO.C,C13*%
X-145140000Y314852164D02*
X-145140000Y315067836D01*
X-144420000Y314852164D02*
X-144420000Y315067836D01*
%TO.C,R2*%
X-146000441Y299973000D02*
X-145693159Y299973000D01*
X-146000441Y299213000D02*
X-145693159Y299213000D01*
%TO.C,R6*%
X-167258000Y312319641D02*
X-167258000Y312012359D01*
X-166498000Y312319641D02*
X-166498000Y312012359D01*
%TO.C,U4*%
X-146304000Y321092000D02*
X-147104000Y321092000D01*
X-146304000Y321092000D02*
X-145504000Y321092000D01*
X-146304000Y317972000D02*
X-147104000Y317972000D01*
X-146304000Y317972000D02*
X-145504000Y317972000D01*
X-145004000Y321042000D02*
X-145244000Y321372000D01*
X-144764000Y321372000D01*
X-145004000Y321042000D01*
G36*
X-145004000Y321042000D02*
G01*
X-145244000Y321372000D01*
X-144764000Y321372000D01*
X-145004000Y321042000D01*
G37*
%TO.C,C1*%
X-128416164Y306938000D02*
X-128631836Y306938000D01*
X-128416164Y306218000D02*
X-128631836Y306218000D01*
%TO.C,C8*%
X-140060000Y304399836D02*
X-140060000Y304184164D01*
X-139340000Y304399836D02*
X-139340000Y304184164D01*
D11*
%TO.C,U2*%
X-137805800Y297050200D02*
X-137805800Y303050200D01*
X-132805800Y297050200D02*
X-132805800Y303050200D01*
D12*
X-133300800Y295965200D02*
G75*
G02*
X-133500800Y295965200I-100000J0D01*
G01*
X-133500800Y295965200D02*
G75*
G02*
X-133300800Y295965200I100000J0D01*
G01*
D13*
%TO.C,C7*%
X-141330000Y304399836D02*
X-141330000Y304184164D01*
X-140610000Y304399836D02*
X-140610000Y304184164D01*
%TO.C,J2*%
X-172870000Y317248000D02*
X-172870000Y318308000D01*
X-172100000Y315148000D02*
X-172100000Y315298000D01*
X-171300000Y315148000D02*
X-172100000Y315148000D01*
X-163310000Y318308000D02*
X-163310000Y317248000D01*
%TO.C,C4*%
X-150474000Y319932164D02*
X-150474000Y320147836D01*
X-149754000Y319932164D02*
X-149754000Y320147836D01*
%TO.C,C14*%
X-143870000Y314852164D02*
X-143870000Y315067836D01*
X-143150000Y314852164D02*
X-143150000Y315067836D01*
%TO.C,R1*%
X-128370359Y305688000D02*
X-128677641Y305688000D01*
X-128370359Y304928000D02*
X-128677641Y304928000D01*
%TO.C,C5*%
X-143108000Y318916164D02*
X-143108000Y319131836D01*
X-142388000Y318916164D02*
X-142388000Y319131836D01*
%TO.C,R3*%
X-142901641Y309752000D02*
X-142594359Y309752000D01*
X-142901641Y308992000D02*
X-142594359Y308992000D01*
%TO.C,R5*%
X-131344641Y305103800D02*
X-131037359Y305103800D01*
X-131344641Y304343800D02*
X-131037359Y304343800D01*
%TO.C,C17*%
X-140060000Y314852164D02*
X-140060000Y315067836D01*
X-139340000Y314852164D02*
X-139340000Y315067836D01*
%TO.C,C10*%
X-148950000Y314852164D02*
X-148950000Y315067836D01*
X-148230000Y314852164D02*
X-148230000Y315067836D01*
%TO.C,R8*%
X-138810000Y317092359D02*
X-138810000Y317399641D01*
X-138050000Y317092359D02*
X-138050000Y317399641D01*
%TO.C,C2*%
X-128631836Y311002000D02*
X-128416164Y311002000D01*
X-128631836Y310282000D02*
X-128416164Y310282000D01*
%TD*%
M02*
