%TF.GenerationSoftware,KiCad,Pcbnew,9.0.1*%
%TF.CreationDate,2025-05-31T00:25:17+01:00*%
%TF.ProjectId,Button MIDI Controller,42757474-6f6e-4204-9d49-444920436f6e,rev?*%
%TF.SameCoordinates,Original*%
%TF.FileFunction,Legend,Top*%
%TF.FilePolarity,Positive*%
%FSLAX46Y46*%
G04 Gerber Fmt 4.6, Leading zero omitted, Abs format (unit mm)*
G04 Created by KiCad (PCBNEW 9.0.1) date 2025-05-31 00:25:17*
%MOMM*%
%LPD*%
G01*
G04 APERTURE LIST*
%ADD10C,0.150000*%
%ADD11C,0.120000*%
%ADD12C,0.127000*%
%ADD13C,0.200000*%
G04 APERTURE END LIST*
D10*
X-272389300Y258405595D02*
X-272341680Y258548452D01*
X-272341680Y258548452D02*
X-272341680Y258786547D01*
X-272341680Y258786547D02*
X-272389300Y258881785D01*
X-272389300Y258881785D02*
X-272436919Y258929404D01*
X-272436919Y258929404D02*
X-272532157Y258977023D01*
X-272532157Y258977023D02*
X-272627395Y258977023D01*
X-272627395Y258977023D02*
X-272722633Y258929404D01*
X-272722633Y258929404D02*
X-272770252Y258881785D01*
X-272770252Y258881785D02*
X-272817871Y258786547D01*
X-272817871Y258786547D02*
X-272865490Y258596071D01*
X-272865490Y258596071D02*
X-272913109Y258500833D01*
X-272913109Y258500833D02*
X-272960728Y258453214D01*
X-272960728Y258453214D02*
X-273055966Y258405595D01*
X-273055966Y258405595D02*
X-273151204Y258405595D01*
X-273151204Y258405595D02*
X-273246442Y258453214D01*
X-273246442Y258453214D02*
X-273294061Y258500833D01*
X-273294061Y258500833D02*
X-273341680Y258596071D01*
X-273341680Y258596071D02*
X-273341680Y258834166D01*
X-273341680Y258834166D02*
X-273294061Y258977023D01*
X-273246442Y259357976D02*
X-273294061Y259405595D01*
X-273294061Y259405595D02*
X-273341680Y259500833D01*
X-273341680Y259500833D02*
X-273341680Y259738928D01*
X-273341680Y259738928D02*
X-273294061Y259834166D01*
X-273294061Y259834166D02*
X-273246442Y259881785D01*
X-273246442Y259881785D02*
X-273151204Y259929404D01*
X-273151204Y259929404D02*
X-273055966Y259929404D01*
X-273055966Y259929404D02*
X-272913109Y259881785D01*
X-272913109Y259881785D02*
X-272341680Y259310357D01*
X-272341680Y259310357D02*
X-272341680Y259929404D01*
X-63411904Y207995180D02*
X-63411904Y208995180D01*
X-63411904Y208995180D02*
X-63078571Y208280895D01*
X-63078571Y208280895D02*
X-62745238Y208995180D01*
X-62745238Y208995180D02*
X-62745238Y207995180D01*
X-62364285Y208995180D02*
X-61697619Y207995180D01*
X-61697619Y208995180D02*
X-62364285Y207995180D01*
X-61411904Y208995180D02*
X-60792857Y208995180D01*
X-60792857Y208995180D02*
X-61126190Y208614228D01*
X-61126190Y208614228D02*
X-60983333Y208614228D01*
X-60983333Y208614228D02*
X-60888095Y208566609D01*
X-60888095Y208566609D02*
X-60840476Y208518990D01*
X-60840476Y208518990D02*
X-60792857Y208423752D01*
X-60792857Y208423752D02*
X-60792857Y208185657D01*
X-60792857Y208185657D02*
X-60840476Y208090419D01*
X-60840476Y208090419D02*
X-60888095Y208042800D01*
X-60888095Y208042800D02*
X-60983333Y207995180D01*
X-60983333Y207995180D02*
X-61269047Y207995180D01*
X-61269047Y207995180D02*
X-61364285Y208042800D01*
X-61364285Y208042800D02*
X-61411904Y208090419D01*
X-60411904Y208899942D02*
X-60364285Y208947561D01*
X-60364285Y208947561D02*
X-60269047Y208995180D01*
X-60269047Y208995180D02*
X-60030952Y208995180D01*
X-60030952Y208995180D02*
X-59935714Y208947561D01*
X-59935714Y208947561D02*
X-59888095Y208899942D01*
X-59888095Y208899942D02*
X-59840476Y208804704D01*
X-59840476Y208804704D02*
X-59840476Y208709466D01*
X-59840476Y208709466D02*
X-59888095Y208566609D01*
X-59888095Y208566609D02*
X-60459523Y207995180D01*
X-60459523Y207995180D02*
X-59840476Y207995180D01*
X-63411904Y177695180D02*
X-63411904Y178695180D01*
X-63411904Y178695180D02*
X-63078571Y177980895D01*
X-63078571Y177980895D02*
X-62745238Y178695180D01*
X-62745238Y178695180D02*
X-62745238Y177695180D01*
X-62364285Y178695180D02*
X-61697619Y177695180D01*
X-61697619Y178695180D02*
X-62364285Y177695180D01*
X-60888095Y178361847D02*
X-60888095Y177695180D01*
X-61126190Y178742800D02*
X-61364285Y178028514D01*
X-61364285Y178028514D02*
X-60745238Y178028514D01*
X-60173809Y178695180D02*
X-60078571Y178695180D01*
X-60078571Y178695180D02*
X-59983333Y178647561D01*
X-59983333Y178647561D02*
X-59935714Y178599942D01*
X-59935714Y178599942D02*
X-59888095Y178504704D01*
X-59888095Y178504704D02*
X-59840476Y178314228D01*
X-59840476Y178314228D02*
X-59840476Y178076133D01*
X-59840476Y178076133D02*
X-59888095Y177885657D01*
X-59888095Y177885657D02*
X-59935714Y177790419D01*
X-59935714Y177790419D02*
X-59983333Y177742800D01*
X-59983333Y177742800D02*
X-60078571Y177695180D01*
X-60078571Y177695180D02*
X-60173809Y177695180D01*
X-60173809Y177695180D02*
X-60269047Y177742800D01*
X-60269047Y177742800D02*
X-60316666Y177790419D01*
X-60316666Y177790419D02*
X-60364285Y177885657D01*
X-60364285Y177885657D02*
X-60411904Y178076133D01*
X-60411904Y178076133D02*
X-60411904Y178314228D01*
X-60411904Y178314228D02*
X-60364285Y178504704D01*
X-60364285Y178504704D02*
X-60316666Y178599942D01*
X-60316666Y178599942D02*
X-60269047Y178647561D01*
X-60269047Y178647561D02*
X-60173809Y178695180D01*
X-63411904Y147395180D02*
X-63411904Y148395180D01*
X-63411904Y148395180D02*
X-63078571Y147680895D01*
X-63078571Y147680895D02*
X-62745238Y148395180D01*
X-62745238Y148395180D02*
X-62745238Y147395180D01*
X-62364285Y148395180D02*
X-61697619Y147395180D01*
X-61697619Y148395180D02*
X-62364285Y147395180D01*
X-60888095Y148061847D02*
X-60888095Y147395180D01*
X-61126190Y148442800D02*
X-61364285Y147728514D01*
X-61364285Y147728514D02*
X-60745238Y147728514D01*
X-60221428Y147966609D02*
X-60316666Y148014228D01*
X-60316666Y148014228D02*
X-60364285Y148061847D01*
X-60364285Y148061847D02*
X-60411904Y148157085D01*
X-60411904Y148157085D02*
X-60411904Y148204704D01*
X-60411904Y148204704D02*
X-60364285Y148299942D01*
X-60364285Y148299942D02*
X-60316666Y148347561D01*
X-60316666Y148347561D02*
X-60221428Y148395180D01*
X-60221428Y148395180D02*
X-60030952Y148395180D01*
X-60030952Y148395180D02*
X-59935714Y148347561D01*
X-59935714Y148347561D02*
X-59888095Y148299942D01*
X-59888095Y148299942D02*
X-59840476Y148204704D01*
X-59840476Y148204704D02*
X-59840476Y148157085D01*
X-59840476Y148157085D02*
X-59888095Y148061847D01*
X-59888095Y148061847D02*
X-59935714Y148014228D01*
X-59935714Y148014228D02*
X-60030952Y147966609D01*
X-60030952Y147966609D02*
X-60221428Y147966609D01*
X-60221428Y147966609D02*
X-60316666Y147918990D01*
X-60316666Y147918990D02*
X-60364285Y147871371D01*
X-60364285Y147871371D02*
X-60411904Y147776133D01*
X-60411904Y147776133D02*
X-60411904Y147585657D01*
X-60411904Y147585657D02*
X-60364285Y147490419D01*
X-60364285Y147490419D02*
X-60316666Y147442800D01*
X-60316666Y147442800D02*
X-60221428Y147395180D01*
X-60221428Y147395180D02*
X-60030952Y147395180D01*
X-60030952Y147395180D02*
X-59935714Y147442800D01*
X-59935714Y147442800D02*
X-59888095Y147490419D01*
X-59888095Y147490419D02*
X-59840476Y147585657D01*
X-59840476Y147585657D02*
X-59840476Y147776133D01*
X-59840476Y147776133D02*
X-59888095Y147871371D01*
X-59888095Y147871371D02*
X-59935714Y147918990D01*
X-59935714Y147918990D02*
X-60030952Y147966609D01*
X-63411904Y117095180D02*
X-63411904Y118095180D01*
X-63411904Y118095180D02*
X-63078571Y117380895D01*
X-63078571Y117380895D02*
X-62745238Y118095180D01*
X-62745238Y118095180D02*
X-62745238Y117095180D01*
X-62364285Y118095180D02*
X-61697619Y117095180D01*
X-61697619Y118095180D02*
X-62364285Y117095180D01*
X-60840476Y118095180D02*
X-61316666Y118095180D01*
X-61316666Y118095180D02*
X-61364285Y117618990D01*
X-61364285Y117618990D02*
X-61316666Y117666609D01*
X-61316666Y117666609D02*
X-61221428Y117714228D01*
X-61221428Y117714228D02*
X-60983333Y117714228D01*
X-60983333Y117714228D02*
X-60888095Y117666609D01*
X-60888095Y117666609D02*
X-60840476Y117618990D01*
X-60840476Y117618990D02*
X-60792857Y117523752D01*
X-60792857Y117523752D02*
X-60792857Y117285657D01*
X-60792857Y117285657D02*
X-60840476Y117190419D01*
X-60840476Y117190419D02*
X-60888095Y117142800D01*
X-60888095Y117142800D02*
X-60983333Y117095180D01*
X-60983333Y117095180D02*
X-61221428Y117095180D01*
X-61221428Y117095180D02*
X-61316666Y117142800D01*
X-61316666Y117142800D02*
X-61364285Y117190419D01*
X-59935714Y118095180D02*
X-60126190Y118095180D01*
X-60126190Y118095180D02*
X-60221428Y118047561D01*
X-60221428Y118047561D02*
X-60269047Y117999942D01*
X-60269047Y117999942D02*
X-60364285Y117857085D01*
X-60364285Y117857085D02*
X-60411904Y117666609D01*
X-60411904Y117666609D02*
X-60411904Y117285657D01*
X-60411904Y117285657D02*
X-60364285Y117190419D01*
X-60364285Y117190419D02*
X-60316666Y117142800D01*
X-60316666Y117142800D02*
X-60221428Y117095180D01*
X-60221428Y117095180D02*
X-60030952Y117095180D01*
X-60030952Y117095180D02*
X-59935714Y117142800D01*
X-59935714Y117142800D02*
X-59888095Y117190419D01*
X-59888095Y117190419D02*
X-59840476Y117285657D01*
X-59840476Y117285657D02*
X-59840476Y117523752D01*
X-59840476Y117523752D02*
X-59888095Y117618990D01*
X-59888095Y117618990D02*
X-59935714Y117666609D01*
X-59935714Y117666609D02*
X-60030952Y117714228D01*
X-60030952Y117714228D02*
X-60221428Y117714228D01*
X-60221428Y117714228D02*
X-60316666Y117666609D01*
X-60316666Y117666609D02*
X-60364285Y117618990D01*
X-60364285Y117618990D02*
X-60411904Y117523752D01*
X-63411904Y86795180D02*
X-63411904Y87795180D01*
X-63411904Y87795180D02*
X-63078571Y87080895D01*
X-63078571Y87080895D02*
X-62745238Y87795180D01*
X-62745238Y87795180D02*
X-62745238Y86795180D01*
X-62364285Y87795180D02*
X-61697619Y86795180D01*
X-61697619Y87795180D02*
X-62364285Y86795180D01*
X-60888095Y87795180D02*
X-61078571Y87795180D01*
X-61078571Y87795180D02*
X-61173809Y87747561D01*
X-61173809Y87747561D02*
X-61221428Y87699942D01*
X-61221428Y87699942D02*
X-61316666Y87557085D01*
X-61316666Y87557085D02*
X-61364285Y87366609D01*
X-61364285Y87366609D02*
X-61364285Y86985657D01*
X-61364285Y86985657D02*
X-61316666Y86890419D01*
X-61316666Y86890419D02*
X-61269047Y86842800D01*
X-61269047Y86842800D02*
X-61173809Y86795180D01*
X-61173809Y86795180D02*
X-60983333Y86795180D01*
X-60983333Y86795180D02*
X-60888095Y86842800D01*
X-60888095Y86842800D02*
X-60840476Y86890419D01*
X-60840476Y86890419D02*
X-60792857Y86985657D01*
X-60792857Y86985657D02*
X-60792857Y87223752D01*
X-60792857Y87223752D02*
X-60840476Y87318990D01*
X-60840476Y87318990D02*
X-60888095Y87366609D01*
X-60888095Y87366609D02*
X-60983333Y87414228D01*
X-60983333Y87414228D02*
X-61173809Y87414228D01*
X-61173809Y87414228D02*
X-61269047Y87366609D01*
X-61269047Y87366609D02*
X-61316666Y87318990D01*
X-61316666Y87318990D02*
X-61364285Y87223752D01*
X-59935714Y87461847D02*
X-59935714Y86795180D01*
X-60173809Y87842800D02*
X-60411904Y87128514D01*
X-60411904Y87128514D02*
X-59792857Y87128514D01*
X-272389300Y288705595D02*
X-272341680Y288848452D01*
X-272341680Y288848452D02*
X-272341680Y289086547D01*
X-272341680Y289086547D02*
X-272389300Y289181785D01*
X-272389300Y289181785D02*
X-272436919Y289229404D01*
X-272436919Y289229404D02*
X-272532157Y289277023D01*
X-272532157Y289277023D02*
X-272627395Y289277023D01*
X-272627395Y289277023D02*
X-272722633Y289229404D01*
X-272722633Y289229404D02*
X-272770252Y289181785D01*
X-272770252Y289181785D02*
X-272817871Y289086547D01*
X-272817871Y289086547D02*
X-272865490Y288896071D01*
X-272865490Y288896071D02*
X-272913109Y288800833D01*
X-272913109Y288800833D02*
X-272960728Y288753214D01*
X-272960728Y288753214D02*
X-273055966Y288705595D01*
X-273055966Y288705595D02*
X-273151204Y288705595D01*
X-273151204Y288705595D02*
X-273246442Y288753214D01*
X-273246442Y288753214D02*
X-273294061Y288800833D01*
X-273294061Y288800833D02*
X-273341680Y288896071D01*
X-273341680Y288896071D02*
X-273341680Y289134166D01*
X-273341680Y289134166D02*
X-273294061Y289277023D01*
X-272341680Y290229404D02*
X-272341680Y289657976D01*
X-272341680Y289943690D02*
X-273341680Y289943690D01*
X-273341680Y289943690D02*
X-273198823Y289848452D01*
X-273198823Y289848452D02*
X-273103585Y289753214D01*
X-273103585Y289753214D02*
X-273055966Y289657976D01*
X-272389300Y228105595D02*
X-272341680Y228248452D01*
X-272341680Y228248452D02*
X-272341680Y228486547D01*
X-272341680Y228486547D02*
X-272389300Y228581785D01*
X-272389300Y228581785D02*
X-272436919Y228629404D01*
X-272436919Y228629404D02*
X-272532157Y228677023D01*
X-272532157Y228677023D02*
X-272627395Y228677023D01*
X-272627395Y228677023D02*
X-272722633Y228629404D01*
X-272722633Y228629404D02*
X-272770252Y228581785D01*
X-272770252Y228581785D02*
X-272817871Y228486547D01*
X-272817871Y228486547D02*
X-272865490Y228296071D01*
X-272865490Y228296071D02*
X-272913109Y228200833D01*
X-272913109Y228200833D02*
X-272960728Y228153214D01*
X-272960728Y228153214D02*
X-273055966Y228105595D01*
X-273055966Y228105595D02*
X-273151204Y228105595D01*
X-273151204Y228105595D02*
X-273246442Y228153214D01*
X-273246442Y228153214D02*
X-273294061Y228200833D01*
X-273294061Y228200833D02*
X-273341680Y228296071D01*
X-273341680Y228296071D02*
X-273341680Y228534166D01*
X-273341680Y228534166D02*
X-273294061Y228677023D01*
X-273341680Y229010357D02*
X-273341680Y229629404D01*
X-273341680Y229629404D02*
X-272960728Y229296071D01*
X-272960728Y229296071D02*
X-272960728Y229438928D01*
X-272960728Y229438928D02*
X-272913109Y229534166D01*
X-272913109Y229534166D02*
X-272865490Y229581785D01*
X-272865490Y229581785D02*
X-272770252Y229629404D01*
X-272770252Y229629404D02*
X-272532157Y229629404D01*
X-272532157Y229629404D02*
X-272436919Y229581785D01*
X-272436919Y229581785D02*
X-272389300Y229534166D01*
X-272389300Y229534166D02*
X-272341680Y229438928D01*
X-272341680Y229438928D02*
X-272341680Y229153214D01*
X-272341680Y229153214D02*
X-272389300Y229057976D01*
X-272389300Y229057976D02*
X-272436919Y229010357D01*
X-272389300Y197805595D02*
X-272341680Y197948452D01*
X-272341680Y197948452D02*
X-272341680Y198186547D01*
X-272341680Y198186547D02*
X-272389300Y198281785D01*
X-272389300Y198281785D02*
X-272436919Y198329404D01*
X-272436919Y198329404D02*
X-272532157Y198377023D01*
X-272532157Y198377023D02*
X-272627395Y198377023D01*
X-272627395Y198377023D02*
X-272722633Y198329404D01*
X-272722633Y198329404D02*
X-272770252Y198281785D01*
X-272770252Y198281785D02*
X-272817871Y198186547D01*
X-272817871Y198186547D02*
X-272865490Y197996071D01*
X-272865490Y197996071D02*
X-272913109Y197900833D01*
X-272913109Y197900833D02*
X-272960728Y197853214D01*
X-272960728Y197853214D02*
X-273055966Y197805595D01*
X-273055966Y197805595D02*
X-273151204Y197805595D01*
X-273151204Y197805595D02*
X-273246442Y197853214D01*
X-273246442Y197853214D02*
X-273294061Y197900833D01*
X-273294061Y197900833D02*
X-273341680Y197996071D01*
X-273341680Y197996071D02*
X-273341680Y198234166D01*
X-273341680Y198234166D02*
X-273294061Y198377023D01*
X-273008347Y199234166D02*
X-272341680Y199234166D01*
X-273389300Y198996071D02*
X-272675014Y198757976D01*
X-272675014Y198757976D02*
X-272675014Y199377023D01*
X-272389300Y167505595D02*
X-272341680Y167648452D01*
X-272341680Y167648452D02*
X-272341680Y167886547D01*
X-272341680Y167886547D02*
X-272389300Y167981785D01*
X-272389300Y167981785D02*
X-272436919Y168029404D01*
X-272436919Y168029404D02*
X-272532157Y168077023D01*
X-272532157Y168077023D02*
X-272627395Y168077023D01*
X-272627395Y168077023D02*
X-272722633Y168029404D01*
X-272722633Y168029404D02*
X-272770252Y167981785D01*
X-272770252Y167981785D02*
X-272817871Y167886547D01*
X-272817871Y167886547D02*
X-272865490Y167696071D01*
X-272865490Y167696071D02*
X-272913109Y167600833D01*
X-272913109Y167600833D02*
X-272960728Y167553214D01*
X-272960728Y167553214D02*
X-273055966Y167505595D01*
X-273055966Y167505595D02*
X-273151204Y167505595D01*
X-273151204Y167505595D02*
X-273246442Y167553214D01*
X-273246442Y167553214D02*
X-273294061Y167600833D01*
X-273294061Y167600833D02*
X-273341680Y167696071D01*
X-273341680Y167696071D02*
X-273341680Y167934166D01*
X-273341680Y167934166D02*
X-273294061Y168077023D01*
X-273341680Y168981785D02*
X-273341680Y168505595D01*
X-273341680Y168505595D02*
X-272865490Y168457976D01*
X-272865490Y168457976D02*
X-272913109Y168505595D01*
X-272913109Y168505595D02*
X-272960728Y168600833D01*
X-272960728Y168600833D02*
X-272960728Y168838928D01*
X-272960728Y168838928D02*
X-272913109Y168934166D01*
X-272913109Y168934166D02*
X-272865490Y168981785D01*
X-272865490Y168981785D02*
X-272770252Y169029404D01*
X-272770252Y169029404D02*
X-272532157Y169029404D01*
X-272532157Y169029404D02*
X-272436919Y168981785D01*
X-272436919Y168981785D02*
X-272389300Y168934166D01*
X-272389300Y168934166D02*
X-272341680Y168838928D01*
X-272341680Y168838928D02*
X-272341680Y168600833D01*
X-272341680Y168600833D02*
X-272389300Y168505595D01*
X-272389300Y168505595D02*
X-272436919Y168457976D01*
X-272389300Y137205595D02*
X-272341680Y137348452D01*
X-272341680Y137348452D02*
X-272341680Y137586547D01*
X-272341680Y137586547D02*
X-272389300Y137681785D01*
X-272389300Y137681785D02*
X-272436919Y137729404D01*
X-272436919Y137729404D02*
X-272532157Y137777023D01*
X-272532157Y137777023D02*
X-272627395Y137777023D01*
X-272627395Y137777023D02*
X-272722633Y137729404D01*
X-272722633Y137729404D02*
X-272770252Y137681785D01*
X-272770252Y137681785D02*
X-272817871Y137586547D01*
X-272817871Y137586547D02*
X-272865490Y137396071D01*
X-272865490Y137396071D02*
X-272913109Y137300833D01*
X-272913109Y137300833D02*
X-272960728Y137253214D01*
X-272960728Y137253214D02*
X-273055966Y137205595D01*
X-273055966Y137205595D02*
X-273151204Y137205595D01*
X-273151204Y137205595D02*
X-273246442Y137253214D01*
X-273246442Y137253214D02*
X-273294061Y137300833D01*
X-273294061Y137300833D02*
X-273341680Y137396071D01*
X-273341680Y137396071D02*
X-273341680Y137634166D01*
X-273341680Y137634166D02*
X-273294061Y137777023D01*
X-273341680Y138634166D02*
X-273341680Y138443690D01*
X-273341680Y138443690D02*
X-273294061Y138348452D01*
X-273294061Y138348452D02*
X-273246442Y138300833D01*
X-273246442Y138300833D02*
X-273103585Y138205595D01*
X-273103585Y138205595D02*
X-272913109Y138157976D01*
X-272913109Y138157976D02*
X-272532157Y138157976D01*
X-272532157Y138157976D02*
X-272436919Y138205595D01*
X-272436919Y138205595D02*
X-272389300Y138253214D01*
X-272389300Y138253214D02*
X-272341680Y138348452D01*
X-272341680Y138348452D02*
X-272341680Y138538928D01*
X-272341680Y138538928D02*
X-272389300Y138634166D01*
X-272389300Y138634166D02*
X-272436919Y138681785D01*
X-272436919Y138681785D02*
X-272532157Y138729404D01*
X-272532157Y138729404D02*
X-272770252Y138729404D01*
X-272770252Y138729404D02*
X-272865490Y138681785D01*
X-272865490Y138681785D02*
X-272913109Y138634166D01*
X-272913109Y138634166D02*
X-272960728Y138538928D01*
X-272960728Y138538928D02*
X-272960728Y138348452D01*
X-272960728Y138348452D02*
X-272913109Y138253214D01*
X-272913109Y138253214D02*
X-272865490Y138205595D01*
X-272865490Y138205595D02*
X-272770252Y138157976D01*
X-272389300Y106905595D02*
X-272341680Y107048452D01*
X-272341680Y107048452D02*
X-272341680Y107286547D01*
X-272341680Y107286547D02*
X-272389300Y107381785D01*
X-272389300Y107381785D02*
X-272436919Y107429404D01*
X-272436919Y107429404D02*
X-272532157Y107477023D01*
X-272532157Y107477023D02*
X-272627395Y107477023D01*
X-272627395Y107477023D02*
X-272722633Y107429404D01*
X-272722633Y107429404D02*
X-272770252Y107381785D01*
X-272770252Y107381785D02*
X-272817871Y107286547D01*
X-272817871Y107286547D02*
X-272865490Y107096071D01*
X-272865490Y107096071D02*
X-272913109Y107000833D01*
X-272913109Y107000833D02*
X-272960728Y106953214D01*
X-272960728Y106953214D02*
X-273055966Y106905595D01*
X-273055966Y106905595D02*
X-273151204Y106905595D01*
X-273151204Y106905595D02*
X-273246442Y106953214D01*
X-273246442Y106953214D02*
X-273294061Y107000833D01*
X-273294061Y107000833D02*
X-273341680Y107096071D01*
X-273341680Y107096071D02*
X-273341680Y107334166D01*
X-273341680Y107334166D02*
X-273294061Y107477023D01*
X-273341680Y107810357D02*
X-273341680Y108477023D01*
X-273341680Y108477023D02*
X-272341680Y108048452D01*
X-184611904Y268595180D02*
X-184611904Y269595180D01*
X-184611904Y269595180D02*
X-184278571Y268880895D01*
X-184278571Y268880895D02*
X-183945238Y269595180D01*
X-183945238Y269595180D02*
X-183945238Y268595180D01*
X-183564285Y269595180D02*
X-182897619Y268595180D01*
X-182897619Y269595180D02*
X-183564285Y268595180D01*
X-181992857Y268595180D02*
X-182564285Y268595180D01*
X-182278571Y268595180D02*
X-182278571Y269595180D01*
X-182278571Y269595180D02*
X-182373809Y269452323D01*
X-182373809Y269452323D02*
X-182469047Y269357085D01*
X-182469047Y269357085D02*
X-182564285Y269309466D01*
X-181611904Y269499942D02*
X-181564285Y269547561D01*
X-181564285Y269547561D02*
X-181469047Y269595180D01*
X-181469047Y269595180D02*
X-181230952Y269595180D01*
X-181230952Y269595180D02*
X-181135714Y269547561D01*
X-181135714Y269547561D02*
X-181088095Y269499942D01*
X-181088095Y269499942D02*
X-181040476Y269404704D01*
X-181040476Y269404704D02*
X-181040476Y269309466D01*
X-181040476Y269309466D02*
X-181088095Y269166609D01*
X-181088095Y269166609D02*
X-181659523Y268595180D01*
X-181659523Y268595180D02*
X-181040476Y268595180D01*
X-214911904Y117095180D02*
X-214911904Y118095180D01*
X-214911904Y118095180D02*
X-214578571Y117380895D01*
X-214578571Y117380895D02*
X-214245238Y118095180D01*
X-214245238Y118095180D02*
X-214245238Y117095180D01*
X-213864285Y118095180D02*
X-213197619Y117095180D01*
X-213197619Y118095180D02*
X-213864285Y117095180D01*
X-212340476Y118095180D02*
X-212816666Y118095180D01*
X-212816666Y118095180D02*
X-212864285Y117618990D01*
X-212864285Y117618990D02*
X-212816666Y117666609D01*
X-212816666Y117666609D02*
X-212721428Y117714228D01*
X-212721428Y117714228D02*
X-212483333Y117714228D01*
X-212483333Y117714228D02*
X-212388095Y117666609D01*
X-212388095Y117666609D02*
X-212340476Y117618990D01*
X-212340476Y117618990D02*
X-212292857Y117523752D01*
X-212292857Y117523752D02*
X-212292857Y117285657D01*
X-212292857Y117285657D02*
X-212340476Y117190419D01*
X-212340476Y117190419D02*
X-212388095Y117142800D01*
X-212388095Y117142800D02*
X-212483333Y117095180D01*
X-212483333Y117095180D02*
X-212721428Y117095180D01*
X-212721428Y117095180D02*
X-212816666Y117142800D01*
X-212816666Y117142800D02*
X-212864285Y117190419D01*
X-211340476Y117095180D02*
X-211911904Y117095180D01*
X-211626190Y117095180D02*
X-211626190Y118095180D01*
X-211626190Y118095180D02*
X-211721428Y117952323D01*
X-211721428Y117952323D02*
X-211816666Y117857085D01*
X-211816666Y117857085D02*
X-211911904Y117809466D01*
X-124011904Y238295180D02*
X-124011904Y239295180D01*
X-124011904Y239295180D02*
X-123678571Y238580895D01*
X-123678571Y238580895D02*
X-123345238Y239295180D01*
X-123345238Y239295180D02*
X-123345238Y238295180D01*
X-122964285Y239295180D02*
X-122297619Y238295180D01*
X-122297619Y239295180D02*
X-122964285Y238295180D01*
X-121964285Y239199942D02*
X-121916666Y239247561D01*
X-121916666Y239247561D02*
X-121821428Y239295180D01*
X-121821428Y239295180D02*
X-121583333Y239295180D01*
X-121583333Y239295180D02*
X-121488095Y239247561D01*
X-121488095Y239247561D02*
X-121440476Y239199942D01*
X-121440476Y239199942D02*
X-121392857Y239104704D01*
X-121392857Y239104704D02*
X-121392857Y239009466D01*
X-121392857Y239009466D02*
X-121440476Y238866609D01*
X-121440476Y238866609D02*
X-122011904Y238295180D01*
X-122011904Y238295180D02*
X-121392857Y238295180D01*
X-121011904Y239199942D02*
X-120964285Y239247561D01*
X-120964285Y239247561D02*
X-120869047Y239295180D01*
X-120869047Y239295180D02*
X-120630952Y239295180D01*
X-120630952Y239295180D02*
X-120535714Y239247561D01*
X-120535714Y239247561D02*
X-120488095Y239199942D01*
X-120488095Y239199942D02*
X-120440476Y239104704D01*
X-120440476Y239104704D02*
X-120440476Y239009466D01*
X-120440476Y239009466D02*
X-120488095Y238866609D01*
X-120488095Y238866609D02*
X-121059523Y238295180D01*
X-121059523Y238295180D02*
X-120440476Y238295180D01*
X-184135713Y298895180D02*
X-184135713Y299895180D01*
X-184135713Y299895180D02*
X-183802380Y299180895D01*
X-183802380Y299180895D02*
X-183469047Y299895180D01*
X-183469047Y299895180D02*
X-183469047Y298895180D01*
X-183088094Y299895180D02*
X-182421428Y298895180D01*
X-182421428Y299895180D02*
X-183088094Y298895180D01*
X-181611904Y299561847D02*
X-181611904Y298895180D01*
X-181849999Y299942800D02*
X-182088094Y299228514D01*
X-182088094Y299228514D02*
X-181469047Y299228514D01*
X-244735713Y298895180D02*
X-244735713Y299895180D01*
X-244735713Y299895180D02*
X-244402380Y299180895D01*
X-244402380Y299180895D02*
X-244069047Y299895180D01*
X-244069047Y299895180D02*
X-244069047Y298895180D01*
X-243688094Y299895180D02*
X-243021428Y298895180D01*
X-243021428Y299895180D02*
X-243688094Y298895180D01*
X-242688094Y299799942D02*
X-242640475Y299847561D01*
X-242640475Y299847561D02*
X-242545237Y299895180D01*
X-242545237Y299895180D02*
X-242307142Y299895180D01*
X-242307142Y299895180D02*
X-242211904Y299847561D01*
X-242211904Y299847561D02*
X-242164285Y299799942D01*
X-242164285Y299799942D02*
X-242116666Y299704704D01*
X-242116666Y299704704D02*
X-242116666Y299609466D01*
X-242116666Y299609466D02*
X-242164285Y299466609D01*
X-242164285Y299466609D02*
X-242735713Y298895180D01*
X-242735713Y298895180D02*
X-242116666Y298895180D01*
X-124011904Y147395180D02*
X-124011904Y148395180D01*
X-124011904Y148395180D02*
X-123678571Y147680895D01*
X-123678571Y147680895D02*
X-123345238Y148395180D01*
X-123345238Y148395180D02*
X-123345238Y147395180D01*
X-122964285Y148395180D02*
X-122297619Y147395180D01*
X-122297619Y148395180D02*
X-122964285Y147395180D01*
X-121488095Y148061847D02*
X-121488095Y147395180D01*
X-121726190Y148442800D02*
X-121964285Y147728514D01*
X-121964285Y147728514D02*
X-121345238Y147728514D01*
X-120535714Y148395180D02*
X-120726190Y148395180D01*
X-120726190Y148395180D02*
X-120821428Y148347561D01*
X-120821428Y148347561D02*
X-120869047Y148299942D01*
X-120869047Y148299942D02*
X-120964285Y148157085D01*
X-120964285Y148157085D02*
X-121011904Y147966609D01*
X-121011904Y147966609D02*
X-121011904Y147585657D01*
X-121011904Y147585657D02*
X-120964285Y147490419D01*
X-120964285Y147490419D02*
X-120916666Y147442800D01*
X-120916666Y147442800D02*
X-120821428Y147395180D01*
X-120821428Y147395180D02*
X-120630952Y147395180D01*
X-120630952Y147395180D02*
X-120535714Y147442800D01*
X-120535714Y147442800D02*
X-120488095Y147490419D01*
X-120488095Y147490419D02*
X-120440476Y147585657D01*
X-120440476Y147585657D02*
X-120440476Y147823752D01*
X-120440476Y147823752D02*
X-120488095Y147918990D01*
X-120488095Y147918990D02*
X-120535714Y147966609D01*
X-120535714Y147966609D02*
X-120630952Y148014228D01*
X-120630952Y148014228D02*
X-120821428Y148014228D01*
X-120821428Y148014228D02*
X-120916666Y147966609D01*
X-120916666Y147966609D02*
X-120964285Y147918990D01*
X-120964285Y147918990D02*
X-121011904Y147823752D01*
X-93711904Y117095180D02*
X-93711904Y118095180D01*
X-93711904Y118095180D02*
X-93378571Y117380895D01*
X-93378571Y117380895D02*
X-93045238Y118095180D01*
X-93045238Y118095180D02*
X-93045238Y117095180D01*
X-92664285Y118095180D02*
X-91997619Y117095180D01*
X-91997619Y118095180D02*
X-92664285Y117095180D01*
X-91140476Y118095180D02*
X-91616666Y118095180D01*
X-91616666Y118095180D02*
X-91664285Y117618990D01*
X-91664285Y117618990D02*
X-91616666Y117666609D01*
X-91616666Y117666609D02*
X-91521428Y117714228D01*
X-91521428Y117714228D02*
X-91283333Y117714228D01*
X-91283333Y117714228D02*
X-91188095Y117666609D01*
X-91188095Y117666609D02*
X-91140476Y117618990D01*
X-91140476Y117618990D02*
X-91092857Y117523752D01*
X-91092857Y117523752D02*
X-91092857Y117285657D01*
X-91092857Y117285657D02*
X-91140476Y117190419D01*
X-91140476Y117190419D02*
X-91188095Y117142800D01*
X-91188095Y117142800D02*
X-91283333Y117095180D01*
X-91283333Y117095180D02*
X-91521428Y117095180D01*
X-91521428Y117095180D02*
X-91616666Y117142800D01*
X-91616666Y117142800D02*
X-91664285Y117190419D01*
X-90188095Y118095180D02*
X-90664285Y118095180D01*
X-90664285Y118095180D02*
X-90711904Y117618990D01*
X-90711904Y117618990D02*
X-90664285Y117666609D01*
X-90664285Y117666609D02*
X-90569047Y117714228D01*
X-90569047Y117714228D02*
X-90330952Y117714228D01*
X-90330952Y117714228D02*
X-90235714Y117666609D01*
X-90235714Y117666609D02*
X-90188095Y117618990D01*
X-90188095Y117618990D02*
X-90140476Y117523752D01*
X-90140476Y117523752D02*
X-90140476Y117285657D01*
X-90140476Y117285657D02*
X-90188095Y117190419D01*
X-90188095Y117190419D02*
X-90235714Y117142800D01*
X-90235714Y117142800D02*
X-90330952Y117095180D01*
X-90330952Y117095180D02*
X-90569047Y117095180D01*
X-90569047Y117095180D02*
X-90664285Y117142800D01*
X-90664285Y117142800D02*
X-90711904Y117190419D01*
X-93711904Y147395180D02*
X-93711904Y148395180D01*
X-93711904Y148395180D02*
X-93378571Y147680895D01*
X-93378571Y147680895D02*
X-93045238Y148395180D01*
X-93045238Y148395180D02*
X-93045238Y147395180D01*
X-92664285Y148395180D02*
X-91997619Y147395180D01*
X-91997619Y148395180D02*
X-92664285Y147395180D01*
X-91188095Y148061847D02*
X-91188095Y147395180D01*
X-91426190Y148442800D02*
X-91664285Y147728514D01*
X-91664285Y147728514D02*
X-91045238Y147728514D01*
X-90759523Y148395180D02*
X-90092857Y148395180D01*
X-90092857Y148395180D02*
X-90521428Y147395180D01*
X-245211904Y147395180D02*
X-245211904Y148395180D01*
X-245211904Y148395180D02*
X-244878571Y147680895D01*
X-244878571Y147680895D02*
X-244545238Y148395180D01*
X-244545238Y148395180D02*
X-244545238Y147395180D01*
X-244164285Y148395180D02*
X-243497619Y147395180D01*
X-243497619Y148395180D02*
X-244164285Y147395180D01*
X-242688095Y148061847D02*
X-242688095Y147395180D01*
X-242926190Y148442800D02*
X-243164285Y147728514D01*
X-243164285Y147728514D02*
X-242545238Y147728514D01*
X-242211904Y148299942D02*
X-242164285Y148347561D01*
X-242164285Y148347561D02*
X-242069047Y148395180D01*
X-242069047Y148395180D02*
X-241830952Y148395180D01*
X-241830952Y148395180D02*
X-241735714Y148347561D01*
X-241735714Y148347561D02*
X-241688095Y148299942D01*
X-241688095Y148299942D02*
X-241640476Y148204704D01*
X-241640476Y148204704D02*
X-241640476Y148109466D01*
X-241640476Y148109466D02*
X-241688095Y147966609D01*
X-241688095Y147966609D02*
X-242259523Y147395180D01*
X-242259523Y147395180D02*
X-241640476Y147395180D01*
X-154311904Y117095180D02*
X-154311904Y118095180D01*
X-154311904Y118095180D02*
X-153978571Y117380895D01*
X-153978571Y117380895D02*
X-153645238Y118095180D01*
X-153645238Y118095180D02*
X-153645238Y117095180D01*
X-153264285Y118095180D02*
X-152597619Y117095180D01*
X-152597619Y118095180D02*
X-153264285Y117095180D01*
X-151740476Y118095180D02*
X-152216666Y118095180D01*
X-152216666Y118095180D02*
X-152264285Y117618990D01*
X-152264285Y117618990D02*
X-152216666Y117666609D01*
X-152216666Y117666609D02*
X-152121428Y117714228D01*
X-152121428Y117714228D02*
X-151883333Y117714228D01*
X-151883333Y117714228D02*
X-151788095Y117666609D01*
X-151788095Y117666609D02*
X-151740476Y117618990D01*
X-151740476Y117618990D02*
X-151692857Y117523752D01*
X-151692857Y117523752D02*
X-151692857Y117285657D01*
X-151692857Y117285657D02*
X-151740476Y117190419D01*
X-151740476Y117190419D02*
X-151788095Y117142800D01*
X-151788095Y117142800D02*
X-151883333Y117095180D01*
X-151883333Y117095180D02*
X-152121428Y117095180D01*
X-152121428Y117095180D02*
X-152216666Y117142800D01*
X-152216666Y117142800D02*
X-152264285Y117190419D01*
X-151359523Y118095180D02*
X-150740476Y118095180D01*
X-150740476Y118095180D02*
X-151073809Y117714228D01*
X-151073809Y117714228D02*
X-150930952Y117714228D01*
X-150930952Y117714228D02*
X-150835714Y117666609D01*
X-150835714Y117666609D02*
X-150788095Y117618990D01*
X-150788095Y117618990D02*
X-150740476Y117523752D01*
X-150740476Y117523752D02*
X-150740476Y117285657D01*
X-150740476Y117285657D02*
X-150788095Y117190419D01*
X-150788095Y117190419D02*
X-150835714Y117142800D01*
X-150835714Y117142800D02*
X-150930952Y117095180D01*
X-150930952Y117095180D02*
X-151216666Y117095180D01*
X-151216666Y117095180D02*
X-151311904Y117142800D01*
X-151311904Y117142800D02*
X-151359523Y117190419D01*
X-124011904Y177695180D02*
X-124011904Y178695180D01*
X-124011904Y178695180D02*
X-123678571Y177980895D01*
X-123678571Y177980895D02*
X-123345238Y178695180D01*
X-123345238Y178695180D02*
X-123345238Y177695180D01*
X-122964285Y178695180D02*
X-122297619Y177695180D01*
X-122297619Y178695180D02*
X-122964285Y177695180D01*
X-122011904Y178695180D02*
X-121392857Y178695180D01*
X-121392857Y178695180D02*
X-121726190Y178314228D01*
X-121726190Y178314228D02*
X-121583333Y178314228D01*
X-121583333Y178314228D02*
X-121488095Y178266609D01*
X-121488095Y178266609D02*
X-121440476Y178218990D01*
X-121440476Y178218990D02*
X-121392857Y178123752D01*
X-121392857Y178123752D02*
X-121392857Y177885657D01*
X-121392857Y177885657D02*
X-121440476Y177790419D01*
X-121440476Y177790419D02*
X-121488095Y177742800D01*
X-121488095Y177742800D02*
X-121583333Y177695180D01*
X-121583333Y177695180D02*
X-121869047Y177695180D01*
X-121869047Y177695180D02*
X-121964285Y177742800D01*
X-121964285Y177742800D02*
X-122011904Y177790419D01*
X-120821428Y178266609D02*
X-120916666Y178314228D01*
X-120916666Y178314228D02*
X-120964285Y178361847D01*
X-120964285Y178361847D02*
X-121011904Y178457085D01*
X-121011904Y178457085D02*
X-121011904Y178504704D01*
X-121011904Y178504704D02*
X-120964285Y178599942D01*
X-120964285Y178599942D02*
X-120916666Y178647561D01*
X-120916666Y178647561D02*
X-120821428Y178695180D01*
X-120821428Y178695180D02*
X-120630952Y178695180D01*
X-120630952Y178695180D02*
X-120535714Y178647561D01*
X-120535714Y178647561D02*
X-120488095Y178599942D01*
X-120488095Y178599942D02*
X-120440476Y178504704D01*
X-120440476Y178504704D02*
X-120440476Y178457085D01*
X-120440476Y178457085D02*
X-120488095Y178361847D01*
X-120488095Y178361847D02*
X-120535714Y178314228D01*
X-120535714Y178314228D02*
X-120630952Y178266609D01*
X-120630952Y178266609D02*
X-120821428Y178266609D01*
X-120821428Y178266609D02*
X-120916666Y178218990D01*
X-120916666Y178218990D02*
X-120964285Y178171371D01*
X-120964285Y178171371D02*
X-121011904Y178076133D01*
X-121011904Y178076133D02*
X-121011904Y177885657D01*
X-121011904Y177885657D02*
X-120964285Y177790419D01*
X-120964285Y177790419D02*
X-120916666Y177742800D01*
X-120916666Y177742800D02*
X-120821428Y177695180D01*
X-120821428Y177695180D02*
X-120630952Y177695180D01*
X-120630952Y177695180D02*
X-120535714Y177742800D01*
X-120535714Y177742800D02*
X-120488095Y177790419D01*
X-120488095Y177790419D02*
X-120440476Y177885657D01*
X-120440476Y177885657D02*
X-120440476Y178076133D01*
X-120440476Y178076133D02*
X-120488095Y178171371D01*
X-120488095Y178171371D02*
X-120535714Y178218990D01*
X-120535714Y178218990D02*
X-120630952Y178266609D01*
X-154311904Y177695180D02*
X-154311904Y178695180D01*
X-154311904Y178695180D02*
X-153978571Y177980895D01*
X-153978571Y177980895D02*
X-153645238Y178695180D01*
X-153645238Y178695180D02*
X-153645238Y177695180D01*
X-153264285Y178695180D02*
X-152597619Y177695180D01*
X-152597619Y178695180D02*
X-153264285Y177695180D01*
X-152311904Y178695180D02*
X-151692857Y178695180D01*
X-151692857Y178695180D02*
X-152026190Y178314228D01*
X-152026190Y178314228D02*
X-151883333Y178314228D01*
X-151883333Y178314228D02*
X-151788095Y178266609D01*
X-151788095Y178266609D02*
X-151740476Y178218990D01*
X-151740476Y178218990D02*
X-151692857Y178123752D01*
X-151692857Y178123752D02*
X-151692857Y177885657D01*
X-151692857Y177885657D02*
X-151740476Y177790419D01*
X-151740476Y177790419D02*
X-151788095Y177742800D01*
X-151788095Y177742800D02*
X-151883333Y177695180D01*
X-151883333Y177695180D02*
X-152169047Y177695180D01*
X-152169047Y177695180D02*
X-152264285Y177742800D01*
X-152264285Y177742800D02*
X-152311904Y177790419D01*
X-151359523Y178695180D02*
X-150692857Y178695180D01*
X-150692857Y178695180D02*
X-151121428Y177695180D01*
X-154311904Y86795180D02*
X-154311904Y87795180D01*
X-154311904Y87795180D02*
X-153978571Y87080895D01*
X-153978571Y87080895D02*
X-153645238Y87795180D01*
X-153645238Y87795180D02*
X-153645238Y86795180D01*
X-153264285Y87795180D02*
X-152597619Y86795180D01*
X-152597619Y87795180D02*
X-153264285Y86795180D01*
X-151788095Y87795180D02*
X-151978571Y87795180D01*
X-151978571Y87795180D02*
X-152073809Y87747561D01*
X-152073809Y87747561D02*
X-152121428Y87699942D01*
X-152121428Y87699942D02*
X-152216666Y87557085D01*
X-152216666Y87557085D02*
X-152264285Y87366609D01*
X-152264285Y87366609D02*
X-152264285Y86985657D01*
X-152264285Y86985657D02*
X-152216666Y86890419D01*
X-152216666Y86890419D02*
X-152169047Y86842800D01*
X-152169047Y86842800D02*
X-152073809Y86795180D01*
X-152073809Y86795180D02*
X-151883333Y86795180D01*
X-151883333Y86795180D02*
X-151788095Y86842800D01*
X-151788095Y86842800D02*
X-151740476Y86890419D01*
X-151740476Y86890419D02*
X-151692857Y86985657D01*
X-151692857Y86985657D02*
X-151692857Y87223752D01*
X-151692857Y87223752D02*
X-151740476Y87318990D01*
X-151740476Y87318990D02*
X-151788095Y87366609D01*
X-151788095Y87366609D02*
X-151883333Y87414228D01*
X-151883333Y87414228D02*
X-152073809Y87414228D01*
X-152073809Y87414228D02*
X-152169047Y87366609D01*
X-152169047Y87366609D02*
X-152216666Y87318990D01*
X-152216666Y87318990D02*
X-152264285Y87223752D01*
X-150740476Y86795180D02*
X-151311904Y86795180D01*
X-151026190Y86795180D02*
X-151026190Y87795180D01*
X-151026190Y87795180D02*
X-151121428Y87652323D01*
X-151121428Y87652323D02*
X-151216666Y87557085D01*
X-151216666Y87557085D02*
X-151311904Y87509466D01*
X-184611904Y117095180D02*
X-184611904Y118095180D01*
X-184611904Y118095180D02*
X-184278571Y117380895D01*
X-184278571Y117380895D02*
X-183945238Y118095180D01*
X-183945238Y118095180D02*
X-183945238Y117095180D01*
X-183564285Y118095180D02*
X-182897619Y117095180D01*
X-182897619Y118095180D02*
X-183564285Y117095180D01*
X-182040476Y118095180D02*
X-182516666Y118095180D01*
X-182516666Y118095180D02*
X-182564285Y117618990D01*
X-182564285Y117618990D02*
X-182516666Y117666609D01*
X-182516666Y117666609D02*
X-182421428Y117714228D01*
X-182421428Y117714228D02*
X-182183333Y117714228D01*
X-182183333Y117714228D02*
X-182088095Y117666609D01*
X-182088095Y117666609D02*
X-182040476Y117618990D01*
X-182040476Y117618990D02*
X-181992857Y117523752D01*
X-181992857Y117523752D02*
X-181992857Y117285657D01*
X-181992857Y117285657D02*
X-182040476Y117190419D01*
X-182040476Y117190419D02*
X-182088095Y117142800D01*
X-182088095Y117142800D02*
X-182183333Y117095180D01*
X-182183333Y117095180D02*
X-182421428Y117095180D01*
X-182421428Y117095180D02*
X-182516666Y117142800D01*
X-182516666Y117142800D02*
X-182564285Y117190419D01*
X-181611904Y117999942D02*
X-181564285Y118047561D01*
X-181564285Y118047561D02*
X-181469047Y118095180D01*
X-181469047Y118095180D02*
X-181230952Y118095180D01*
X-181230952Y118095180D02*
X-181135714Y118047561D01*
X-181135714Y118047561D02*
X-181088095Y117999942D01*
X-181088095Y117999942D02*
X-181040476Y117904704D01*
X-181040476Y117904704D02*
X-181040476Y117809466D01*
X-181040476Y117809466D02*
X-181088095Y117666609D01*
X-181088095Y117666609D02*
X-181659523Y117095180D01*
X-181659523Y117095180D02*
X-181040476Y117095180D01*
X-245211904Y117095180D02*
X-245211904Y118095180D01*
X-245211904Y118095180D02*
X-244878571Y117380895D01*
X-244878571Y117380895D02*
X-244545238Y118095180D01*
X-244545238Y118095180D02*
X-244545238Y117095180D01*
X-244164285Y118095180D02*
X-243497619Y117095180D01*
X-243497619Y118095180D02*
X-244164285Y117095180D01*
X-242640476Y118095180D02*
X-243116666Y118095180D01*
X-243116666Y118095180D02*
X-243164285Y117618990D01*
X-243164285Y117618990D02*
X-243116666Y117666609D01*
X-243116666Y117666609D02*
X-243021428Y117714228D01*
X-243021428Y117714228D02*
X-242783333Y117714228D01*
X-242783333Y117714228D02*
X-242688095Y117666609D01*
X-242688095Y117666609D02*
X-242640476Y117618990D01*
X-242640476Y117618990D02*
X-242592857Y117523752D01*
X-242592857Y117523752D02*
X-242592857Y117285657D01*
X-242592857Y117285657D02*
X-242640476Y117190419D01*
X-242640476Y117190419D02*
X-242688095Y117142800D01*
X-242688095Y117142800D02*
X-242783333Y117095180D01*
X-242783333Y117095180D02*
X-243021428Y117095180D01*
X-243021428Y117095180D02*
X-243116666Y117142800D01*
X-243116666Y117142800D02*
X-243164285Y117190419D01*
X-241973809Y118095180D02*
X-241878571Y118095180D01*
X-241878571Y118095180D02*
X-241783333Y118047561D01*
X-241783333Y118047561D02*
X-241735714Y117999942D01*
X-241735714Y117999942D02*
X-241688095Y117904704D01*
X-241688095Y117904704D02*
X-241640476Y117714228D01*
X-241640476Y117714228D02*
X-241640476Y117476133D01*
X-241640476Y117476133D02*
X-241688095Y117285657D01*
X-241688095Y117285657D02*
X-241735714Y117190419D01*
X-241735714Y117190419D02*
X-241783333Y117142800D01*
X-241783333Y117142800D02*
X-241878571Y117095180D01*
X-241878571Y117095180D02*
X-241973809Y117095180D01*
X-241973809Y117095180D02*
X-242069047Y117142800D01*
X-242069047Y117142800D02*
X-242116666Y117190419D01*
X-242116666Y117190419D02*
X-242164285Y117285657D01*
X-242164285Y117285657D02*
X-242211904Y117476133D01*
X-242211904Y117476133D02*
X-242211904Y117714228D01*
X-242211904Y117714228D02*
X-242164285Y117904704D01*
X-242164285Y117904704D02*
X-242116666Y117999942D01*
X-242116666Y117999942D02*
X-242069047Y118047561D01*
X-242069047Y118047561D02*
X-241973809Y118095180D01*
X-124011904Y268595180D02*
X-124011904Y269595180D01*
X-124011904Y269595180D02*
X-123678571Y268880895D01*
X-123678571Y268880895D02*
X-123345238Y269595180D01*
X-123345238Y269595180D02*
X-123345238Y268595180D01*
X-122964285Y269595180D02*
X-122297619Y268595180D01*
X-122297619Y269595180D02*
X-122964285Y268595180D01*
X-121392857Y268595180D02*
X-121964285Y268595180D01*
X-121678571Y268595180D02*
X-121678571Y269595180D01*
X-121678571Y269595180D02*
X-121773809Y269452323D01*
X-121773809Y269452323D02*
X-121869047Y269357085D01*
X-121869047Y269357085D02*
X-121964285Y269309466D01*
X-120535714Y269261847D02*
X-120535714Y268595180D01*
X-120773809Y269642800D02*
X-121011904Y268928514D01*
X-121011904Y268928514D02*
X-120392857Y268928514D01*
X-62935713Y298895180D02*
X-62935713Y299895180D01*
X-62935713Y299895180D02*
X-62602380Y299180895D01*
X-62602380Y299180895D02*
X-62269047Y299895180D01*
X-62269047Y299895180D02*
X-62269047Y298895180D01*
X-61888094Y299895180D02*
X-61221428Y298895180D01*
X-61221428Y299895180D02*
X-61888094Y298895180D01*
X-60697618Y299466609D02*
X-60792856Y299514228D01*
X-60792856Y299514228D02*
X-60840475Y299561847D01*
X-60840475Y299561847D02*
X-60888094Y299657085D01*
X-60888094Y299657085D02*
X-60888094Y299704704D01*
X-60888094Y299704704D02*
X-60840475Y299799942D01*
X-60840475Y299799942D02*
X-60792856Y299847561D01*
X-60792856Y299847561D02*
X-60697618Y299895180D01*
X-60697618Y299895180D02*
X-60507142Y299895180D01*
X-60507142Y299895180D02*
X-60411904Y299847561D01*
X-60411904Y299847561D02*
X-60364285Y299799942D01*
X-60364285Y299799942D02*
X-60316666Y299704704D01*
X-60316666Y299704704D02*
X-60316666Y299657085D01*
X-60316666Y299657085D02*
X-60364285Y299561847D01*
X-60364285Y299561847D02*
X-60411904Y299514228D01*
X-60411904Y299514228D02*
X-60507142Y299466609D01*
X-60507142Y299466609D02*
X-60697618Y299466609D01*
X-60697618Y299466609D02*
X-60792856Y299418990D01*
X-60792856Y299418990D02*
X-60840475Y299371371D01*
X-60840475Y299371371D02*
X-60888094Y299276133D01*
X-60888094Y299276133D02*
X-60888094Y299085657D01*
X-60888094Y299085657D02*
X-60840475Y298990419D01*
X-60840475Y298990419D02*
X-60792856Y298942800D01*
X-60792856Y298942800D02*
X-60697618Y298895180D01*
X-60697618Y298895180D02*
X-60507142Y298895180D01*
X-60507142Y298895180D02*
X-60411904Y298942800D01*
X-60411904Y298942800D02*
X-60364285Y298990419D01*
X-60364285Y298990419D02*
X-60316666Y299085657D01*
X-60316666Y299085657D02*
X-60316666Y299276133D01*
X-60316666Y299276133D02*
X-60364285Y299371371D01*
X-60364285Y299371371D02*
X-60411904Y299418990D01*
X-60411904Y299418990D02*
X-60507142Y299466609D01*
X-154311904Y147395180D02*
X-154311904Y148395180D01*
X-154311904Y148395180D02*
X-153978571Y147680895D01*
X-153978571Y147680895D02*
X-153645238Y148395180D01*
X-153645238Y148395180D02*
X-153645238Y147395180D01*
X-153264285Y148395180D02*
X-152597619Y147395180D01*
X-152597619Y148395180D02*
X-153264285Y147395180D01*
X-151788095Y148061847D02*
X-151788095Y147395180D01*
X-152026190Y148442800D02*
X-152264285Y147728514D01*
X-152264285Y147728514D02*
X-151645238Y147728514D01*
X-150788095Y148395180D02*
X-151264285Y148395180D01*
X-151264285Y148395180D02*
X-151311904Y147918990D01*
X-151311904Y147918990D02*
X-151264285Y147966609D01*
X-151264285Y147966609D02*
X-151169047Y148014228D01*
X-151169047Y148014228D02*
X-150930952Y148014228D01*
X-150930952Y148014228D02*
X-150835714Y147966609D01*
X-150835714Y147966609D02*
X-150788095Y147918990D01*
X-150788095Y147918990D02*
X-150740476Y147823752D01*
X-150740476Y147823752D02*
X-150740476Y147585657D01*
X-150740476Y147585657D02*
X-150788095Y147490419D01*
X-150788095Y147490419D02*
X-150835714Y147442800D01*
X-150835714Y147442800D02*
X-150930952Y147395180D01*
X-150930952Y147395180D02*
X-151169047Y147395180D01*
X-151169047Y147395180D02*
X-151264285Y147442800D01*
X-151264285Y147442800D02*
X-151311904Y147490419D01*
X-153835713Y298895180D02*
X-153835713Y299895180D01*
X-153835713Y299895180D02*
X-153502380Y299180895D01*
X-153502380Y299180895D02*
X-153169047Y299895180D01*
X-153169047Y299895180D02*
X-153169047Y298895180D01*
X-152788094Y299895180D02*
X-152121428Y298895180D01*
X-152121428Y299895180D02*
X-152788094Y298895180D01*
X-151264285Y299895180D02*
X-151740475Y299895180D01*
X-151740475Y299895180D02*
X-151788094Y299418990D01*
X-151788094Y299418990D02*
X-151740475Y299466609D01*
X-151740475Y299466609D02*
X-151645237Y299514228D01*
X-151645237Y299514228D02*
X-151407142Y299514228D01*
X-151407142Y299514228D02*
X-151311904Y299466609D01*
X-151311904Y299466609D02*
X-151264285Y299418990D01*
X-151264285Y299418990D02*
X-151216666Y299323752D01*
X-151216666Y299323752D02*
X-151216666Y299085657D01*
X-151216666Y299085657D02*
X-151264285Y298990419D01*
X-151264285Y298990419D02*
X-151311904Y298942800D01*
X-151311904Y298942800D02*
X-151407142Y298895180D01*
X-151407142Y298895180D02*
X-151645237Y298895180D01*
X-151645237Y298895180D02*
X-151740475Y298942800D01*
X-151740475Y298942800D02*
X-151788094Y298990419D01*
X-123535713Y298895180D02*
X-123535713Y299895180D01*
X-123535713Y299895180D02*
X-123202380Y299180895D01*
X-123202380Y299180895D02*
X-122869047Y299895180D01*
X-122869047Y299895180D02*
X-122869047Y298895180D01*
X-122488094Y299895180D02*
X-121821428Y298895180D01*
X-121821428Y299895180D02*
X-122488094Y298895180D01*
X-121011904Y299895180D02*
X-121202380Y299895180D01*
X-121202380Y299895180D02*
X-121297618Y299847561D01*
X-121297618Y299847561D02*
X-121345237Y299799942D01*
X-121345237Y299799942D02*
X-121440475Y299657085D01*
X-121440475Y299657085D02*
X-121488094Y299466609D01*
X-121488094Y299466609D02*
X-121488094Y299085657D01*
X-121488094Y299085657D02*
X-121440475Y298990419D01*
X-121440475Y298990419D02*
X-121392856Y298942800D01*
X-121392856Y298942800D02*
X-121297618Y298895180D01*
X-121297618Y298895180D02*
X-121107142Y298895180D01*
X-121107142Y298895180D02*
X-121011904Y298942800D01*
X-121011904Y298942800D02*
X-120964285Y298990419D01*
X-120964285Y298990419D02*
X-120916666Y299085657D01*
X-120916666Y299085657D02*
X-120916666Y299323752D01*
X-120916666Y299323752D02*
X-120964285Y299418990D01*
X-120964285Y299418990D02*
X-121011904Y299466609D01*
X-121011904Y299466609D02*
X-121107142Y299514228D01*
X-121107142Y299514228D02*
X-121297618Y299514228D01*
X-121297618Y299514228D02*
X-121392856Y299466609D01*
X-121392856Y299466609D02*
X-121440475Y299418990D01*
X-121440475Y299418990D02*
X-121488094Y299323752D01*
X-275511904Y86795180D02*
X-275511904Y87795180D01*
X-275511904Y87795180D02*
X-275178571Y87080895D01*
X-275178571Y87080895D02*
X-274845238Y87795180D01*
X-274845238Y87795180D02*
X-274845238Y86795180D01*
X-274464285Y87795180D02*
X-273797619Y86795180D01*
X-273797619Y87795180D02*
X-274464285Y86795180D01*
X-272940476Y87795180D02*
X-273416666Y87795180D01*
X-273416666Y87795180D02*
X-273464285Y87318990D01*
X-273464285Y87318990D02*
X-273416666Y87366609D01*
X-273416666Y87366609D02*
X-273321428Y87414228D01*
X-273321428Y87414228D02*
X-273083333Y87414228D01*
X-273083333Y87414228D02*
X-272988095Y87366609D01*
X-272988095Y87366609D02*
X-272940476Y87318990D01*
X-272940476Y87318990D02*
X-272892857Y87223752D01*
X-272892857Y87223752D02*
X-272892857Y86985657D01*
X-272892857Y86985657D02*
X-272940476Y86890419D01*
X-272940476Y86890419D02*
X-272988095Y86842800D01*
X-272988095Y86842800D02*
X-273083333Y86795180D01*
X-273083333Y86795180D02*
X-273321428Y86795180D01*
X-273321428Y86795180D02*
X-273416666Y86842800D01*
X-273416666Y86842800D02*
X-273464285Y86890419D01*
X-272559523Y87795180D02*
X-271892857Y87795180D01*
X-271892857Y87795180D02*
X-272321428Y86795180D01*
X-275511904Y238295180D02*
X-275511904Y239295180D01*
X-275511904Y239295180D02*
X-275178571Y238580895D01*
X-275178571Y238580895D02*
X-274845238Y239295180D01*
X-274845238Y239295180D02*
X-274845238Y238295180D01*
X-274464285Y239295180D02*
X-273797619Y238295180D01*
X-273797619Y239295180D02*
X-274464285Y238295180D01*
X-272892857Y238295180D02*
X-273464285Y238295180D01*
X-273178571Y238295180D02*
X-273178571Y239295180D01*
X-273178571Y239295180D02*
X-273273809Y239152323D01*
X-273273809Y239152323D02*
X-273369047Y239057085D01*
X-273369047Y239057085D02*
X-273464285Y239009466D01*
X-272559523Y239295180D02*
X-271892857Y239295180D01*
X-271892857Y239295180D02*
X-272321428Y238295180D01*
X-93711904Y268595180D02*
X-93711904Y269595180D01*
X-93711904Y269595180D02*
X-93378571Y268880895D01*
X-93378571Y268880895D02*
X-93045238Y269595180D01*
X-93045238Y269595180D02*
X-93045238Y268595180D01*
X-92664285Y269595180D02*
X-91997619Y268595180D01*
X-91997619Y269595180D02*
X-92664285Y268595180D01*
X-91092857Y268595180D02*
X-91664285Y268595180D01*
X-91378571Y268595180D02*
X-91378571Y269595180D01*
X-91378571Y269595180D02*
X-91473809Y269452323D01*
X-91473809Y269452323D02*
X-91569047Y269357085D01*
X-91569047Y269357085D02*
X-91664285Y269309466D01*
X-90188095Y269595180D02*
X-90664285Y269595180D01*
X-90664285Y269595180D02*
X-90711904Y269118990D01*
X-90711904Y269118990D02*
X-90664285Y269166609D01*
X-90664285Y269166609D02*
X-90569047Y269214228D01*
X-90569047Y269214228D02*
X-90330952Y269214228D01*
X-90330952Y269214228D02*
X-90235714Y269166609D01*
X-90235714Y269166609D02*
X-90188095Y269118990D01*
X-90188095Y269118990D02*
X-90140476Y269023752D01*
X-90140476Y269023752D02*
X-90140476Y268785657D01*
X-90140476Y268785657D02*
X-90188095Y268690419D01*
X-90188095Y268690419D02*
X-90235714Y268642800D01*
X-90235714Y268642800D02*
X-90330952Y268595180D01*
X-90330952Y268595180D02*
X-90569047Y268595180D01*
X-90569047Y268595180D02*
X-90664285Y268642800D01*
X-90664285Y268642800D02*
X-90711904Y268690419D01*
X-184611904Y177695180D02*
X-184611904Y178695180D01*
X-184611904Y178695180D02*
X-184278571Y177980895D01*
X-184278571Y177980895D02*
X-183945238Y178695180D01*
X-183945238Y178695180D02*
X-183945238Y177695180D01*
X-183564285Y178695180D02*
X-182897619Y177695180D01*
X-182897619Y178695180D02*
X-183564285Y177695180D01*
X-182611904Y178695180D02*
X-181992857Y178695180D01*
X-181992857Y178695180D02*
X-182326190Y178314228D01*
X-182326190Y178314228D02*
X-182183333Y178314228D01*
X-182183333Y178314228D02*
X-182088095Y178266609D01*
X-182088095Y178266609D02*
X-182040476Y178218990D01*
X-182040476Y178218990D02*
X-181992857Y178123752D01*
X-181992857Y178123752D02*
X-181992857Y177885657D01*
X-181992857Y177885657D02*
X-182040476Y177790419D01*
X-182040476Y177790419D02*
X-182088095Y177742800D01*
X-182088095Y177742800D02*
X-182183333Y177695180D01*
X-182183333Y177695180D02*
X-182469047Y177695180D01*
X-182469047Y177695180D02*
X-182564285Y177742800D01*
X-182564285Y177742800D02*
X-182611904Y177790419D01*
X-181135714Y178695180D02*
X-181326190Y178695180D01*
X-181326190Y178695180D02*
X-181421428Y178647561D01*
X-181421428Y178647561D02*
X-181469047Y178599942D01*
X-181469047Y178599942D02*
X-181564285Y178457085D01*
X-181564285Y178457085D02*
X-181611904Y178266609D01*
X-181611904Y178266609D02*
X-181611904Y177885657D01*
X-181611904Y177885657D02*
X-181564285Y177790419D01*
X-181564285Y177790419D02*
X-181516666Y177742800D01*
X-181516666Y177742800D02*
X-181421428Y177695180D01*
X-181421428Y177695180D02*
X-181230952Y177695180D01*
X-181230952Y177695180D02*
X-181135714Y177742800D01*
X-181135714Y177742800D02*
X-181088095Y177790419D01*
X-181088095Y177790419D02*
X-181040476Y177885657D01*
X-181040476Y177885657D02*
X-181040476Y178123752D01*
X-181040476Y178123752D02*
X-181088095Y178218990D01*
X-181088095Y178218990D02*
X-181135714Y178266609D01*
X-181135714Y178266609D02*
X-181230952Y178314228D01*
X-181230952Y178314228D02*
X-181421428Y178314228D01*
X-181421428Y178314228D02*
X-181516666Y178266609D01*
X-181516666Y178266609D02*
X-181564285Y178218990D01*
X-181564285Y178218990D02*
X-181611904Y178123752D01*
X-154311904Y207995180D02*
X-154311904Y208995180D01*
X-154311904Y208995180D02*
X-153978571Y208280895D01*
X-153978571Y208280895D02*
X-153645238Y208995180D01*
X-153645238Y208995180D02*
X-153645238Y207995180D01*
X-153264285Y208995180D02*
X-152597619Y207995180D01*
X-152597619Y208995180D02*
X-153264285Y207995180D01*
X-152264285Y208899942D02*
X-152216666Y208947561D01*
X-152216666Y208947561D02*
X-152121428Y208995180D01*
X-152121428Y208995180D02*
X-151883333Y208995180D01*
X-151883333Y208995180D02*
X-151788095Y208947561D01*
X-151788095Y208947561D02*
X-151740476Y208899942D01*
X-151740476Y208899942D02*
X-151692857Y208804704D01*
X-151692857Y208804704D02*
X-151692857Y208709466D01*
X-151692857Y208709466D02*
X-151740476Y208566609D01*
X-151740476Y208566609D02*
X-152311904Y207995180D01*
X-152311904Y207995180D02*
X-151692857Y207995180D01*
X-151216666Y207995180D02*
X-151026190Y207995180D01*
X-151026190Y207995180D02*
X-150930952Y208042800D01*
X-150930952Y208042800D02*
X-150883333Y208090419D01*
X-150883333Y208090419D02*
X-150788095Y208233276D01*
X-150788095Y208233276D02*
X-150740476Y208423752D01*
X-150740476Y208423752D02*
X-150740476Y208804704D01*
X-150740476Y208804704D02*
X-150788095Y208899942D01*
X-150788095Y208899942D02*
X-150835714Y208947561D01*
X-150835714Y208947561D02*
X-150930952Y208995180D01*
X-150930952Y208995180D02*
X-151121428Y208995180D01*
X-151121428Y208995180D02*
X-151216666Y208947561D01*
X-151216666Y208947561D02*
X-151264285Y208899942D01*
X-151264285Y208899942D02*
X-151311904Y208804704D01*
X-151311904Y208804704D02*
X-151311904Y208566609D01*
X-151311904Y208566609D02*
X-151264285Y208471371D01*
X-151264285Y208471371D02*
X-151216666Y208423752D01*
X-151216666Y208423752D02*
X-151121428Y208376133D01*
X-151121428Y208376133D02*
X-150930952Y208376133D01*
X-150930952Y208376133D02*
X-150835714Y208423752D01*
X-150835714Y208423752D02*
X-150788095Y208471371D01*
X-150788095Y208471371D02*
X-150740476Y208566609D01*
X-154311904Y238295180D02*
X-154311904Y239295180D01*
X-154311904Y239295180D02*
X-153978571Y238580895D01*
X-153978571Y238580895D02*
X-153645238Y239295180D01*
X-153645238Y239295180D02*
X-153645238Y238295180D01*
X-153264285Y239295180D02*
X-152597619Y238295180D01*
X-152597619Y239295180D02*
X-153264285Y238295180D01*
X-152264285Y239199942D02*
X-152216666Y239247561D01*
X-152216666Y239247561D02*
X-152121428Y239295180D01*
X-152121428Y239295180D02*
X-151883333Y239295180D01*
X-151883333Y239295180D02*
X-151788095Y239247561D01*
X-151788095Y239247561D02*
X-151740476Y239199942D01*
X-151740476Y239199942D02*
X-151692857Y239104704D01*
X-151692857Y239104704D02*
X-151692857Y239009466D01*
X-151692857Y239009466D02*
X-151740476Y238866609D01*
X-151740476Y238866609D02*
X-152311904Y238295180D01*
X-152311904Y238295180D02*
X-151692857Y238295180D01*
X-150740476Y238295180D02*
X-151311904Y238295180D01*
X-151026190Y238295180D02*
X-151026190Y239295180D01*
X-151026190Y239295180D02*
X-151121428Y239152323D01*
X-151121428Y239152323D02*
X-151216666Y239057085D01*
X-151216666Y239057085D02*
X-151311904Y239009466D01*
X-245211904Y238295180D02*
X-245211904Y239295180D01*
X-245211904Y239295180D02*
X-244878571Y238580895D01*
X-244878571Y238580895D02*
X-244545238Y239295180D01*
X-244545238Y239295180D02*
X-244545238Y238295180D01*
X-244164285Y239295180D02*
X-243497619Y238295180D01*
X-243497619Y239295180D02*
X-244164285Y238295180D01*
X-242592857Y238295180D02*
X-243164285Y238295180D01*
X-242878571Y238295180D02*
X-242878571Y239295180D01*
X-242878571Y239295180D02*
X-242973809Y239152323D01*
X-242973809Y239152323D02*
X-243069047Y239057085D01*
X-243069047Y239057085D02*
X-243164285Y239009466D01*
X-242021428Y238866609D02*
X-242116666Y238914228D01*
X-242116666Y238914228D02*
X-242164285Y238961847D01*
X-242164285Y238961847D02*
X-242211904Y239057085D01*
X-242211904Y239057085D02*
X-242211904Y239104704D01*
X-242211904Y239104704D02*
X-242164285Y239199942D01*
X-242164285Y239199942D02*
X-242116666Y239247561D01*
X-242116666Y239247561D02*
X-242021428Y239295180D01*
X-242021428Y239295180D02*
X-241830952Y239295180D01*
X-241830952Y239295180D02*
X-241735714Y239247561D01*
X-241735714Y239247561D02*
X-241688095Y239199942D01*
X-241688095Y239199942D02*
X-241640476Y239104704D01*
X-241640476Y239104704D02*
X-241640476Y239057085D01*
X-241640476Y239057085D02*
X-241688095Y238961847D01*
X-241688095Y238961847D02*
X-241735714Y238914228D01*
X-241735714Y238914228D02*
X-241830952Y238866609D01*
X-241830952Y238866609D02*
X-242021428Y238866609D01*
X-242021428Y238866609D02*
X-242116666Y238818990D01*
X-242116666Y238818990D02*
X-242164285Y238771371D01*
X-242164285Y238771371D02*
X-242211904Y238676133D01*
X-242211904Y238676133D02*
X-242211904Y238485657D01*
X-242211904Y238485657D02*
X-242164285Y238390419D01*
X-242164285Y238390419D02*
X-242116666Y238342800D01*
X-242116666Y238342800D02*
X-242021428Y238295180D01*
X-242021428Y238295180D02*
X-241830952Y238295180D01*
X-241830952Y238295180D02*
X-241735714Y238342800D01*
X-241735714Y238342800D02*
X-241688095Y238390419D01*
X-241688095Y238390419D02*
X-241640476Y238485657D01*
X-241640476Y238485657D02*
X-241640476Y238676133D01*
X-241640476Y238676133D02*
X-241688095Y238771371D01*
X-241688095Y238771371D02*
X-241735714Y238818990D01*
X-241735714Y238818990D02*
X-241830952Y238866609D01*
X-154311904Y268595180D02*
X-154311904Y269595180D01*
X-154311904Y269595180D02*
X-153978571Y268880895D01*
X-153978571Y268880895D02*
X-153645238Y269595180D01*
X-153645238Y269595180D02*
X-153645238Y268595180D01*
X-153264285Y269595180D02*
X-152597619Y268595180D01*
X-152597619Y269595180D02*
X-153264285Y268595180D01*
X-151692857Y268595180D02*
X-152264285Y268595180D01*
X-151978571Y268595180D02*
X-151978571Y269595180D01*
X-151978571Y269595180D02*
X-152073809Y269452323D01*
X-152073809Y269452323D02*
X-152169047Y269357085D01*
X-152169047Y269357085D02*
X-152264285Y269309466D01*
X-151359523Y269595180D02*
X-150740476Y269595180D01*
X-150740476Y269595180D02*
X-151073809Y269214228D01*
X-151073809Y269214228D02*
X-150930952Y269214228D01*
X-150930952Y269214228D02*
X-150835714Y269166609D01*
X-150835714Y269166609D02*
X-150788095Y269118990D01*
X-150788095Y269118990D02*
X-150740476Y269023752D01*
X-150740476Y269023752D02*
X-150740476Y268785657D01*
X-150740476Y268785657D02*
X-150788095Y268690419D01*
X-150788095Y268690419D02*
X-150835714Y268642800D01*
X-150835714Y268642800D02*
X-150930952Y268595180D01*
X-150930952Y268595180D02*
X-151216666Y268595180D01*
X-151216666Y268595180D02*
X-151311904Y268642800D01*
X-151311904Y268642800D02*
X-151359523Y268690419D01*
X-93711904Y238295180D02*
X-93711904Y239295180D01*
X-93711904Y239295180D02*
X-93378571Y238580895D01*
X-93378571Y238580895D02*
X-93045238Y239295180D01*
X-93045238Y239295180D02*
X-93045238Y238295180D01*
X-92664285Y239295180D02*
X-91997619Y238295180D01*
X-91997619Y239295180D02*
X-92664285Y238295180D01*
X-91664285Y239199942D02*
X-91616666Y239247561D01*
X-91616666Y239247561D02*
X-91521428Y239295180D01*
X-91521428Y239295180D02*
X-91283333Y239295180D01*
X-91283333Y239295180D02*
X-91188095Y239247561D01*
X-91188095Y239247561D02*
X-91140476Y239199942D01*
X-91140476Y239199942D02*
X-91092857Y239104704D01*
X-91092857Y239104704D02*
X-91092857Y239009466D01*
X-91092857Y239009466D02*
X-91140476Y238866609D01*
X-91140476Y238866609D02*
X-91711904Y238295180D01*
X-91711904Y238295180D02*
X-91092857Y238295180D01*
X-90759523Y239295180D02*
X-90140476Y239295180D01*
X-90140476Y239295180D02*
X-90473809Y238914228D01*
X-90473809Y238914228D02*
X-90330952Y238914228D01*
X-90330952Y238914228D02*
X-90235714Y238866609D01*
X-90235714Y238866609D02*
X-90188095Y238818990D01*
X-90188095Y238818990D02*
X-90140476Y238723752D01*
X-90140476Y238723752D02*
X-90140476Y238485657D01*
X-90140476Y238485657D02*
X-90188095Y238390419D01*
X-90188095Y238390419D02*
X-90235714Y238342800D01*
X-90235714Y238342800D02*
X-90330952Y238295180D01*
X-90330952Y238295180D02*
X-90616666Y238295180D01*
X-90616666Y238295180D02*
X-90711904Y238342800D01*
X-90711904Y238342800D02*
X-90759523Y238390419D01*
X-214911904Y147395180D02*
X-214911904Y148395180D01*
X-214911904Y148395180D02*
X-214578571Y147680895D01*
X-214578571Y147680895D02*
X-214245238Y148395180D01*
X-214245238Y148395180D02*
X-214245238Y147395180D01*
X-213864285Y148395180D02*
X-213197619Y147395180D01*
X-213197619Y148395180D02*
X-213864285Y147395180D01*
X-212388095Y148061847D02*
X-212388095Y147395180D01*
X-212626190Y148442800D02*
X-212864285Y147728514D01*
X-212864285Y147728514D02*
X-212245238Y147728514D01*
X-211959523Y148395180D02*
X-211340476Y148395180D01*
X-211340476Y148395180D02*
X-211673809Y148014228D01*
X-211673809Y148014228D02*
X-211530952Y148014228D01*
X-211530952Y148014228D02*
X-211435714Y147966609D01*
X-211435714Y147966609D02*
X-211388095Y147918990D01*
X-211388095Y147918990D02*
X-211340476Y147823752D01*
X-211340476Y147823752D02*
X-211340476Y147585657D01*
X-211340476Y147585657D02*
X-211388095Y147490419D01*
X-211388095Y147490419D02*
X-211435714Y147442800D01*
X-211435714Y147442800D02*
X-211530952Y147395180D01*
X-211530952Y147395180D02*
X-211816666Y147395180D01*
X-211816666Y147395180D02*
X-211911904Y147442800D01*
X-211911904Y147442800D02*
X-211959523Y147490419D01*
X-214911904Y177695180D02*
X-214911904Y178695180D01*
X-214911904Y178695180D02*
X-214578571Y177980895D01*
X-214578571Y177980895D02*
X-214245238Y178695180D01*
X-214245238Y178695180D02*
X-214245238Y177695180D01*
X-213864285Y178695180D02*
X-213197619Y177695180D01*
X-213197619Y178695180D02*
X-213864285Y177695180D01*
X-212911904Y178695180D02*
X-212292857Y178695180D01*
X-212292857Y178695180D02*
X-212626190Y178314228D01*
X-212626190Y178314228D02*
X-212483333Y178314228D01*
X-212483333Y178314228D02*
X-212388095Y178266609D01*
X-212388095Y178266609D02*
X-212340476Y178218990D01*
X-212340476Y178218990D02*
X-212292857Y178123752D01*
X-212292857Y178123752D02*
X-212292857Y177885657D01*
X-212292857Y177885657D02*
X-212340476Y177790419D01*
X-212340476Y177790419D02*
X-212388095Y177742800D01*
X-212388095Y177742800D02*
X-212483333Y177695180D01*
X-212483333Y177695180D02*
X-212769047Y177695180D01*
X-212769047Y177695180D02*
X-212864285Y177742800D01*
X-212864285Y177742800D02*
X-212911904Y177790419D01*
X-211388095Y178695180D02*
X-211864285Y178695180D01*
X-211864285Y178695180D02*
X-211911904Y178218990D01*
X-211911904Y178218990D02*
X-211864285Y178266609D01*
X-211864285Y178266609D02*
X-211769047Y178314228D01*
X-211769047Y178314228D02*
X-211530952Y178314228D01*
X-211530952Y178314228D02*
X-211435714Y178266609D01*
X-211435714Y178266609D02*
X-211388095Y178218990D01*
X-211388095Y178218990D02*
X-211340476Y178123752D01*
X-211340476Y178123752D02*
X-211340476Y177885657D01*
X-211340476Y177885657D02*
X-211388095Y177790419D01*
X-211388095Y177790419D02*
X-211435714Y177742800D01*
X-211435714Y177742800D02*
X-211530952Y177695180D01*
X-211530952Y177695180D02*
X-211769047Y177695180D01*
X-211769047Y177695180D02*
X-211864285Y177742800D01*
X-211864285Y177742800D02*
X-211911904Y177790419D01*
X-63411904Y238295180D02*
X-63411904Y239295180D01*
X-63411904Y239295180D02*
X-63078571Y238580895D01*
X-63078571Y238580895D02*
X-62745238Y239295180D01*
X-62745238Y239295180D02*
X-62745238Y238295180D01*
X-62364285Y239295180D02*
X-61697619Y238295180D01*
X-61697619Y239295180D02*
X-62364285Y238295180D01*
X-61364285Y239199942D02*
X-61316666Y239247561D01*
X-61316666Y239247561D02*
X-61221428Y239295180D01*
X-61221428Y239295180D02*
X-60983333Y239295180D01*
X-60983333Y239295180D02*
X-60888095Y239247561D01*
X-60888095Y239247561D02*
X-60840476Y239199942D01*
X-60840476Y239199942D02*
X-60792857Y239104704D01*
X-60792857Y239104704D02*
X-60792857Y239009466D01*
X-60792857Y239009466D02*
X-60840476Y238866609D01*
X-60840476Y238866609D02*
X-61411904Y238295180D01*
X-61411904Y238295180D02*
X-60792857Y238295180D01*
X-59935714Y238961847D02*
X-59935714Y238295180D01*
X-60173809Y239342800D02*
X-60411904Y238628514D01*
X-60411904Y238628514D02*
X-59792857Y238628514D01*
X-124011904Y86795180D02*
X-124011904Y87795180D01*
X-124011904Y87795180D02*
X-123678571Y87080895D01*
X-123678571Y87080895D02*
X-123345238Y87795180D01*
X-123345238Y87795180D02*
X-123345238Y86795180D01*
X-122964285Y87795180D02*
X-122297619Y86795180D01*
X-122297619Y87795180D02*
X-122964285Y86795180D01*
X-121488095Y87795180D02*
X-121678571Y87795180D01*
X-121678571Y87795180D02*
X-121773809Y87747561D01*
X-121773809Y87747561D02*
X-121821428Y87699942D01*
X-121821428Y87699942D02*
X-121916666Y87557085D01*
X-121916666Y87557085D02*
X-121964285Y87366609D01*
X-121964285Y87366609D02*
X-121964285Y86985657D01*
X-121964285Y86985657D02*
X-121916666Y86890419D01*
X-121916666Y86890419D02*
X-121869047Y86842800D01*
X-121869047Y86842800D02*
X-121773809Y86795180D01*
X-121773809Y86795180D02*
X-121583333Y86795180D01*
X-121583333Y86795180D02*
X-121488095Y86842800D01*
X-121488095Y86842800D02*
X-121440476Y86890419D01*
X-121440476Y86890419D02*
X-121392857Y86985657D01*
X-121392857Y86985657D02*
X-121392857Y87223752D01*
X-121392857Y87223752D02*
X-121440476Y87318990D01*
X-121440476Y87318990D02*
X-121488095Y87366609D01*
X-121488095Y87366609D02*
X-121583333Y87414228D01*
X-121583333Y87414228D02*
X-121773809Y87414228D01*
X-121773809Y87414228D02*
X-121869047Y87366609D01*
X-121869047Y87366609D02*
X-121916666Y87318990D01*
X-121916666Y87318990D02*
X-121964285Y87223752D01*
X-121011904Y87699942D02*
X-120964285Y87747561D01*
X-120964285Y87747561D02*
X-120869047Y87795180D01*
X-120869047Y87795180D02*
X-120630952Y87795180D01*
X-120630952Y87795180D02*
X-120535714Y87747561D01*
X-120535714Y87747561D02*
X-120488095Y87699942D01*
X-120488095Y87699942D02*
X-120440476Y87604704D01*
X-120440476Y87604704D02*
X-120440476Y87509466D01*
X-120440476Y87509466D02*
X-120488095Y87366609D01*
X-120488095Y87366609D02*
X-121059523Y86795180D01*
X-121059523Y86795180D02*
X-120440476Y86795180D01*
X-245211904Y177695180D02*
X-245211904Y178695180D01*
X-245211904Y178695180D02*
X-244878571Y177980895D01*
X-244878571Y177980895D02*
X-244545238Y178695180D01*
X-244545238Y178695180D02*
X-244545238Y177695180D01*
X-244164285Y178695180D02*
X-243497619Y177695180D01*
X-243497619Y178695180D02*
X-244164285Y177695180D01*
X-243211904Y178695180D02*
X-242592857Y178695180D01*
X-242592857Y178695180D02*
X-242926190Y178314228D01*
X-242926190Y178314228D02*
X-242783333Y178314228D01*
X-242783333Y178314228D02*
X-242688095Y178266609D01*
X-242688095Y178266609D02*
X-242640476Y178218990D01*
X-242640476Y178218990D02*
X-242592857Y178123752D01*
X-242592857Y178123752D02*
X-242592857Y177885657D01*
X-242592857Y177885657D02*
X-242640476Y177790419D01*
X-242640476Y177790419D02*
X-242688095Y177742800D01*
X-242688095Y177742800D02*
X-242783333Y177695180D01*
X-242783333Y177695180D02*
X-243069047Y177695180D01*
X-243069047Y177695180D02*
X-243164285Y177742800D01*
X-243164285Y177742800D02*
X-243211904Y177790419D01*
X-241735714Y178361847D02*
X-241735714Y177695180D01*
X-241973809Y178742800D02*
X-242211904Y178028514D01*
X-242211904Y178028514D02*
X-241592857Y178028514D01*
X-275511904Y117095180D02*
X-275511904Y118095180D01*
X-275511904Y118095180D02*
X-275178571Y117380895D01*
X-275178571Y117380895D02*
X-274845238Y118095180D01*
X-274845238Y118095180D02*
X-274845238Y117095180D01*
X-274464285Y118095180D02*
X-273797619Y117095180D01*
X-273797619Y118095180D02*
X-274464285Y117095180D01*
X-272988095Y117761847D02*
X-272988095Y117095180D01*
X-273226190Y118142800D02*
X-273464285Y117428514D01*
X-273464285Y117428514D02*
X-272845238Y117428514D01*
X-272416666Y117095180D02*
X-272226190Y117095180D01*
X-272226190Y117095180D02*
X-272130952Y117142800D01*
X-272130952Y117142800D02*
X-272083333Y117190419D01*
X-272083333Y117190419D02*
X-271988095Y117333276D01*
X-271988095Y117333276D02*
X-271940476Y117523752D01*
X-271940476Y117523752D02*
X-271940476Y117904704D01*
X-271940476Y117904704D02*
X-271988095Y117999942D01*
X-271988095Y117999942D02*
X-272035714Y118047561D01*
X-272035714Y118047561D02*
X-272130952Y118095180D01*
X-272130952Y118095180D02*
X-272321428Y118095180D01*
X-272321428Y118095180D02*
X-272416666Y118047561D01*
X-272416666Y118047561D02*
X-272464285Y117999942D01*
X-272464285Y117999942D02*
X-272511904Y117904704D01*
X-272511904Y117904704D02*
X-272511904Y117666609D01*
X-272511904Y117666609D02*
X-272464285Y117571371D01*
X-272464285Y117571371D02*
X-272416666Y117523752D01*
X-272416666Y117523752D02*
X-272321428Y117476133D01*
X-272321428Y117476133D02*
X-272130952Y117476133D01*
X-272130952Y117476133D02*
X-272035714Y117523752D01*
X-272035714Y117523752D02*
X-271988095Y117571371D01*
X-271988095Y117571371D02*
X-271940476Y117666609D01*
X-214911904Y238295180D02*
X-214911904Y239295180D01*
X-214911904Y239295180D02*
X-214578571Y238580895D01*
X-214578571Y238580895D02*
X-214245238Y239295180D01*
X-214245238Y239295180D02*
X-214245238Y238295180D01*
X-213864285Y239295180D02*
X-213197619Y238295180D01*
X-213197619Y239295180D02*
X-213864285Y238295180D01*
X-212292857Y238295180D02*
X-212864285Y238295180D01*
X-212578571Y238295180D02*
X-212578571Y239295180D01*
X-212578571Y239295180D02*
X-212673809Y239152323D01*
X-212673809Y239152323D02*
X-212769047Y239057085D01*
X-212769047Y239057085D02*
X-212864285Y239009466D01*
X-211816666Y238295180D02*
X-211626190Y238295180D01*
X-211626190Y238295180D02*
X-211530952Y238342800D01*
X-211530952Y238342800D02*
X-211483333Y238390419D01*
X-211483333Y238390419D02*
X-211388095Y238533276D01*
X-211388095Y238533276D02*
X-211340476Y238723752D01*
X-211340476Y238723752D02*
X-211340476Y239104704D01*
X-211340476Y239104704D02*
X-211388095Y239199942D01*
X-211388095Y239199942D02*
X-211435714Y239247561D01*
X-211435714Y239247561D02*
X-211530952Y239295180D01*
X-211530952Y239295180D02*
X-211721428Y239295180D01*
X-211721428Y239295180D02*
X-211816666Y239247561D01*
X-211816666Y239247561D02*
X-211864285Y239199942D01*
X-211864285Y239199942D02*
X-211911904Y239104704D01*
X-211911904Y239104704D02*
X-211911904Y238866609D01*
X-211911904Y238866609D02*
X-211864285Y238771371D01*
X-211864285Y238771371D02*
X-211816666Y238723752D01*
X-211816666Y238723752D02*
X-211721428Y238676133D01*
X-211721428Y238676133D02*
X-211530952Y238676133D01*
X-211530952Y238676133D02*
X-211435714Y238723752D01*
X-211435714Y238723752D02*
X-211388095Y238771371D01*
X-211388095Y238771371D02*
X-211340476Y238866609D01*
X-214435713Y298895180D02*
X-214435713Y299895180D01*
X-214435713Y299895180D02*
X-214102380Y299180895D01*
X-214102380Y299180895D02*
X-213769047Y299895180D01*
X-213769047Y299895180D02*
X-213769047Y298895180D01*
X-213388094Y299895180D02*
X-212721428Y298895180D01*
X-212721428Y299895180D02*
X-213388094Y298895180D01*
X-212435713Y299895180D02*
X-211816666Y299895180D01*
X-211816666Y299895180D02*
X-212149999Y299514228D01*
X-212149999Y299514228D02*
X-212007142Y299514228D01*
X-212007142Y299514228D02*
X-211911904Y299466609D01*
X-211911904Y299466609D02*
X-211864285Y299418990D01*
X-211864285Y299418990D02*
X-211816666Y299323752D01*
X-211816666Y299323752D02*
X-211816666Y299085657D01*
X-211816666Y299085657D02*
X-211864285Y298990419D01*
X-211864285Y298990419D02*
X-211911904Y298942800D01*
X-211911904Y298942800D02*
X-212007142Y298895180D01*
X-212007142Y298895180D02*
X-212292856Y298895180D01*
X-212292856Y298895180D02*
X-212388094Y298942800D01*
X-212388094Y298942800D02*
X-212435713Y298990419D01*
X-275035713Y298895180D02*
X-275035713Y299895180D01*
X-275035713Y299895180D02*
X-274702380Y299180895D01*
X-274702380Y299180895D02*
X-274369047Y299895180D01*
X-274369047Y299895180D02*
X-274369047Y298895180D01*
X-273988094Y299895180D02*
X-273321428Y298895180D01*
X-273321428Y299895180D02*
X-273988094Y298895180D01*
X-272416666Y298895180D02*
X-272988094Y298895180D01*
X-272702380Y298895180D02*
X-272702380Y299895180D01*
X-272702380Y299895180D02*
X-272797618Y299752323D01*
X-272797618Y299752323D02*
X-272892856Y299657085D01*
X-272892856Y299657085D02*
X-272988094Y299609466D01*
X-275035713Y268595180D02*
X-275035713Y269595180D01*
X-275035713Y269595180D02*
X-274702380Y268880895D01*
X-274702380Y268880895D02*
X-274369047Y269595180D01*
X-274369047Y269595180D02*
X-274369047Y268595180D01*
X-273988094Y269595180D02*
X-273321428Y268595180D01*
X-273321428Y269595180D02*
X-273988094Y268595180D01*
X-272892856Y268595180D02*
X-272702380Y268595180D01*
X-272702380Y268595180D02*
X-272607142Y268642800D01*
X-272607142Y268642800D02*
X-272559523Y268690419D01*
X-272559523Y268690419D02*
X-272464285Y268833276D01*
X-272464285Y268833276D02*
X-272416666Y269023752D01*
X-272416666Y269023752D02*
X-272416666Y269404704D01*
X-272416666Y269404704D02*
X-272464285Y269499942D01*
X-272464285Y269499942D02*
X-272511904Y269547561D01*
X-272511904Y269547561D02*
X-272607142Y269595180D01*
X-272607142Y269595180D02*
X-272797618Y269595180D01*
X-272797618Y269595180D02*
X-272892856Y269547561D01*
X-272892856Y269547561D02*
X-272940475Y269499942D01*
X-272940475Y269499942D02*
X-272988094Y269404704D01*
X-272988094Y269404704D02*
X-272988094Y269166609D01*
X-272988094Y269166609D02*
X-272940475Y269071371D01*
X-272940475Y269071371D02*
X-272892856Y269023752D01*
X-272892856Y269023752D02*
X-272797618Y268976133D01*
X-272797618Y268976133D02*
X-272607142Y268976133D01*
X-272607142Y268976133D02*
X-272511904Y269023752D01*
X-272511904Y269023752D02*
X-272464285Y269071371D01*
X-272464285Y269071371D02*
X-272416666Y269166609D01*
X-184611904Y86795180D02*
X-184611904Y87795180D01*
X-184611904Y87795180D02*
X-184278571Y87080895D01*
X-184278571Y87080895D02*
X-183945238Y87795180D01*
X-183945238Y87795180D02*
X-183945238Y86795180D01*
X-183564285Y87795180D02*
X-182897619Y86795180D01*
X-182897619Y87795180D02*
X-183564285Y86795180D01*
X-182088095Y87795180D02*
X-182278571Y87795180D01*
X-182278571Y87795180D02*
X-182373809Y87747561D01*
X-182373809Y87747561D02*
X-182421428Y87699942D01*
X-182421428Y87699942D02*
X-182516666Y87557085D01*
X-182516666Y87557085D02*
X-182564285Y87366609D01*
X-182564285Y87366609D02*
X-182564285Y86985657D01*
X-182564285Y86985657D02*
X-182516666Y86890419D01*
X-182516666Y86890419D02*
X-182469047Y86842800D01*
X-182469047Y86842800D02*
X-182373809Y86795180D01*
X-182373809Y86795180D02*
X-182183333Y86795180D01*
X-182183333Y86795180D02*
X-182088095Y86842800D01*
X-182088095Y86842800D02*
X-182040476Y86890419D01*
X-182040476Y86890419D02*
X-181992857Y86985657D01*
X-181992857Y86985657D02*
X-181992857Y87223752D01*
X-181992857Y87223752D02*
X-182040476Y87318990D01*
X-182040476Y87318990D02*
X-182088095Y87366609D01*
X-182088095Y87366609D02*
X-182183333Y87414228D01*
X-182183333Y87414228D02*
X-182373809Y87414228D01*
X-182373809Y87414228D02*
X-182469047Y87366609D01*
X-182469047Y87366609D02*
X-182516666Y87318990D01*
X-182516666Y87318990D02*
X-182564285Y87223752D01*
X-181373809Y87795180D02*
X-181278571Y87795180D01*
X-181278571Y87795180D02*
X-181183333Y87747561D01*
X-181183333Y87747561D02*
X-181135714Y87699942D01*
X-181135714Y87699942D02*
X-181088095Y87604704D01*
X-181088095Y87604704D02*
X-181040476Y87414228D01*
X-181040476Y87414228D02*
X-181040476Y87176133D01*
X-181040476Y87176133D02*
X-181088095Y86985657D01*
X-181088095Y86985657D02*
X-181135714Y86890419D01*
X-181135714Y86890419D02*
X-181183333Y86842800D01*
X-181183333Y86842800D02*
X-181278571Y86795180D01*
X-181278571Y86795180D02*
X-181373809Y86795180D01*
X-181373809Y86795180D02*
X-181469047Y86842800D01*
X-181469047Y86842800D02*
X-181516666Y86890419D01*
X-181516666Y86890419D02*
X-181564285Y86985657D01*
X-181564285Y86985657D02*
X-181611904Y87176133D01*
X-181611904Y87176133D02*
X-181611904Y87414228D01*
X-181611904Y87414228D02*
X-181564285Y87604704D01*
X-181564285Y87604704D02*
X-181516666Y87699942D01*
X-181516666Y87699942D02*
X-181469047Y87747561D01*
X-181469047Y87747561D02*
X-181373809Y87795180D01*
X-214911904Y207995180D02*
X-214911904Y208995180D01*
X-214911904Y208995180D02*
X-214578571Y208280895D01*
X-214578571Y208280895D02*
X-214245238Y208995180D01*
X-214245238Y208995180D02*
X-214245238Y207995180D01*
X-213864285Y208995180D02*
X-213197619Y207995180D01*
X-213197619Y208995180D02*
X-213864285Y207995180D01*
X-212864285Y208899942D02*
X-212816666Y208947561D01*
X-212816666Y208947561D02*
X-212721428Y208995180D01*
X-212721428Y208995180D02*
X-212483333Y208995180D01*
X-212483333Y208995180D02*
X-212388095Y208947561D01*
X-212388095Y208947561D02*
X-212340476Y208899942D01*
X-212340476Y208899942D02*
X-212292857Y208804704D01*
X-212292857Y208804704D02*
X-212292857Y208709466D01*
X-212292857Y208709466D02*
X-212340476Y208566609D01*
X-212340476Y208566609D02*
X-212911904Y207995180D01*
X-212911904Y207995180D02*
X-212292857Y207995180D01*
X-211959523Y208995180D02*
X-211292857Y208995180D01*
X-211292857Y208995180D02*
X-211721428Y207995180D01*
X-124011904Y117095180D02*
X-124011904Y118095180D01*
X-124011904Y118095180D02*
X-123678571Y117380895D01*
X-123678571Y117380895D02*
X-123345238Y118095180D01*
X-123345238Y118095180D02*
X-123345238Y117095180D01*
X-122964285Y118095180D02*
X-122297619Y117095180D01*
X-122297619Y118095180D02*
X-122964285Y117095180D01*
X-121440476Y118095180D02*
X-121916666Y118095180D01*
X-121916666Y118095180D02*
X-121964285Y117618990D01*
X-121964285Y117618990D02*
X-121916666Y117666609D01*
X-121916666Y117666609D02*
X-121821428Y117714228D01*
X-121821428Y117714228D02*
X-121583333Y117714228D01*
X-121583333Y117714228D02*
X-121488095Y117666609D01*
X-121488095Y117666609D02*
X-121440476Y117618990D01*
X-121440476Y117618990D02*
X-121392857Y117523752D01*
X-121392857Y117523752D02*
X-121392857Y117285657D01*
X-121392857Y117285657D02*
X-121440476Y117190419D01*
X-121440476Y117190419D02*
X-121488095Y117142800D01*
X-121488095Y117142800D02*
X-121583333Y117095180D01*
X-121583333Y117095180D02*
X-121821428Y117095180D01*
X-121821428Y117095180D02*
X-121916666Y117142800D01*
X-121916666Y117142800D02*
X-121964285Y117190419D01*
X-120535714Y117761847D02*
X-120535714Y117095180D01*
X-120773809Y118142800D02*
X-121011904Y117428514D01*
X-121011904Y117428514D02*
X-120392857Y117428514D01*
X-245211904Y86795180D02*
X-245211904Y87795180D01*
X-245211904Y87795180D02*
X-244878571Y87080895D01*
X-244878571Y87080895D02*
X-244545238Y87795180D01*
X-244545238Y87795180D02*
X-244545238Y86795180D01*
X-244164285Y87795180D02*
X-243497619Y86795180D01*
X-243497619Y87795180D02*
X-244164285Y86795180D01*
X-242640476Y87795180D02*
X-243116666Y87795180D01*
X-243116666Y87795180D02*
X-243164285Y87318990D01*
X-243164285Y87318990D02*
X-243116666Y87366609D01*
X-243116666Y87366609D02*
X-243021428Y87414228D01*
X-243021428Y87414228D02*
X-242783333Y87414228D01*
X-242783333Y87414228D02*
X-242688095Y87366609D01*
X-242688095Y87366609D02*
X-242640476Y87318990D01*
X-242640476Y87318990D02*
X-242592857Y87223752D01*
X-242592857Y87223752D02*
X-242592857Y86985657D01*
X-242592857Y86985657D02*
X-242640476Y86890419D01*
X-242640476Y86890419D02*
X-242688095Y86842800D01*
X-242688095Y86842800D02*
X-242783333Y86795180D01*
X-242783333Y86795180D02*
X-243021428Y86795180D01*
X-243021428Y86795180D02*
X-243116666Y86842800D01*
X-243116666Y86842800D02*
X-243164285Y86890419D01*
X-242021428Y87366609D02*
X-242116666Y87414228D01*
X-242116666Y87414228D02*
X-242164285Y87461847D01*
X-242164285Y87461847D02*
X-242211904Y87557085D01*
X-242211904Y87557085D02*
X-242211904Y87604704D01*
X-242211904Y87604704D02*
X-242164285Y87699942D01*
X-242164285Y87699942D02*
X-242116666Y87747561D01*
X-242116666Y87747561D02*
X-242021428Y87795180D01*
X-242021428Y87795180D02*
X-241830952Y87795180D01*
X-241830952Y87795180D02*
X-241735714Y87747561D01*
X-241735714Y87747561D02*
X-241688095Y87699942D01*
X-241688095Y87699942D02*
X-241640476Y87604704D01*
X-241640476Y87604704D02*
X-241640476Y87557085D01*
X-241640476Y87557085D02*
X-241688095Y87461847D01*
X-241688095Y87461847D02*
X-241735714Y87414228D01*
X-241735714Y87414228D02*
X-241830952Y87366609D01*
X-241830952Y87366609D02*
X-242021428Y87366609D01*
X-242021428Y87366609D02*
X-242116666Y87318990D01*
X-242116666Y87318990D02*
X-242164285Y87271371D01*
X-242164285Y87271371D02*
X-242211904Y87176133D01*
X-242211904Y87176133D02*
X-242211904Y86985657D01*
X-242211904Y86985657D02*
X-242164285Y86890419D01*
X-242164285Y86890419D02*
X-242116666Y86842800D01*
X-242116666Y86842800D02*
X-242021428Y86795180D01*
X-242021428Y86795180D02*
X-241830952Y86795180D01*
X-241830952Y86795180D02*
X-241735714Y86842800D01*
X-241735714Y86842800D02*
X-241688095Y86890419D01*
X-241688095Y86890419D02*
X-241640476Y86985657D01*
X-241640476Y86985657D02*
X-241640476Y87176133D01*
X-241640476Y87176133D02*
X-241688095Y87271371D01*
X-241688095Y87271371D02*
X-241735714Y87318990D01*
X-241735714Y87318990D02*
X-241830952Y87366609D01*
X-275511904Y177695180D02*
X-275511904Y178695180D01*
X-275511904Y178695180D02*
X-275178571Y177980895D01*
X-275178571Y177980895D02*
X-274845238Y178695180D01*
X-274845238Y178695180D02*
X-274845238Y177695180D01*
X-274464285Y178695180D02*
X-273797619Y177695180D01*
X-273797619Y178695180D02*
X-274464285Y177695180D01*
X-273511904Y178695180D02*
X-272892857Y178695180D01*
X-272892857Y178695180D02*
X-273226190Y178314228D01*
X-273226190Y178314228D02*
X-273083333Y178314228D01*
X-273083333Y178314228D02*
X-272988095Y178266609D01*
X-272988095Y178266609D02*
X-272940476Y178218990D01*
X-272940476Y178218990D02*
X-272892857Y178123752D01*
X-272892857Y178123752D02*
X-272892857Y177885657D01*
X-272892857Y177885657D02*
X-272940476Y177790419D01*
X-272940476Y177790419D02*
X-272988095Y177742800D01*
X-272988095Y177742800D02*
X-273083333Y177695180D01*
X-273083333Y177695180D02*
X-273369047Y177695180D01*
X-273369047Y177695180D02*
X-273464285Y177742800D01*
X-273464285Y177742800D02*
X-273511904Y177790419D01*
X-272559523Y178695180D02*
X-271940476Y178695180D01*
X-271940476Y178695180D02*
X-272273809Y178314228D01*
X-272273809Y178314228D02*
X-272130952Y178314228D01*
X-272130952Y178314228D02*
X-272035714Y178266609D01*
X-272035714Y178266609D02*
X-271988095Y178218990D01*
X-271988095Y178218990D02*
X-271940476Y178123752D01*
X-271940476Y178123752D02*
X-271940476Y177885657D01*
X-271940476Y177885657D02*
X-271988095Y177790419D01*
X-271988095Y177790419D02*
X-272035714Y177742800D01*
X-272035714Y177742800D02*
X-272130952Y177695180D01*
X-272130952Y177695180D02*
X-272416666Y177695180D01*
X-272416666Y177695180D02*
X-272511904Y177742800D01*
X-272511904Y177742800D02*
X-272559523Y177790419D01*
X-63411904Y268595180D02*
X-63411904Y269595180D01*
X-63411904Y269595180D02*
X-63078571Y268880895D01*
X-63078571Y268880895D02*
X-62745238Y269595180D01*
X-62745238Y269595180D02*
X-62745238Y268595180D01*
X-62364285Y269595180D02*
X-61697619Y268595180D01*
X-61697619Y269595180D02*
X-62364285Y268595180D01*
X-60792857Y268595180D02*
X-61364285Y268595180D01*
X-61078571Y268595180D02*
X-61078571Y269595180D01*
X-61078571Y269595180D02*
X-61173809Y269452323D01*
X-61173809Y269452323D02*
X-61269047Y269357085D01*
X-61269047Y269357085D02*
X-61364285Y269309466D01*
X-59935714Y269595180D02*
X-60126190Y269595180D01*
X-60126190Y269595180D02*
X-60221428Y269547561D01*
X-60221428Y269547561D02*
X-60269047Y269499942D01*
X-60269047Y269499942D02*
X-60364285Y269357085D01*
X-60364285Y269357085D02*
X-60411904Y269166609D01*
X-60411904Y269166609D02*
X-60411904Y268785657D01*
X-60411904Y268785657D02*
X-60364285Y268690419D01*
X-60364285Y268690419D02*
X-60316666Y268642800D01*
X-60316666Y268642800D02*
X-60221428Y268595180D01*
X-60221428Y268595180D02*
X-60030952Y268595180D01*
X-60030952Y268595180D02*
X-59935714Y268642800D01*
X-59935714Y268642800D02*
X-59888095Y268690419D01*
X-59888095Y268690419D02*
X-59840476Y268785657D01*
X-59840476Y268785657D02*
X-59840476Y269023752D01*
X-59840476Y269023752D02*
X-59888095Y269118990D01*
X-59888095Y269118990D02*
X-59935714Y269166609D01*
X-59935714Y269166609D02*
X-60030952Y269214228D01*
X-60030952Y269214228D02*
X-60221428Y269214228D01*
X-60221428Y269214228D02*
X-60316666Y269166609D01*
X-60316666Y269166609D02*
X-60364285Y269118990D01*
X-60364285Y269118990D02*
X-60411904Y269023752D01*
X-124011904Y207995180D02*
X-124011904Y208995180D01*
X-124011904Y208995180D02*
X-123678571Y208280895D01*
X-123678571Y208280895D02*
X-123345238Y208995180D01*
X-123345238Y208995180D02*
X-123345238Y207995180D01*
X-122964285Y208995180D02*
X-122297619Y207995180D01*
X-122297619Y208995180D02*
X-122964285Y207995180D01*
X-122011904Y208995180D02*
X-121392857Y208995180D01*
X-121392857Y208995180D02*
X-121726190Y208614228D01*
X-121726190Y208614228D02*
X-121583333Y208614228D01*
X-121583333Y208614228D02*
X-121488095Y208566609D01*
X-121488095Y208566609D02*
X-121440476Y208518990D01*
X-121440476Y208518990D02*
X-121392857Y208423752D01*
X-121392857Y208423752D02*
X-121392857Y208185657D01*
X-121392857Y208185657D02*
X-121440476Y208090419D01*
X-121440476Y208090419D02*
X-121488095Y208042800D01*
X-121488095Y208042800D02*
X-121583333Y207995180D01*
X-121583333Y207995180D02*
X-121869047Y207995180D01*
X-121869047Y207995180D02*
X-121964285Y208042800D01*
X-121964285Y208042800D02*
X-122011904Y208090419D01*
X-120773809Y208995180D02*
X-120678571Y208995180D01*
X-120678571Y208995180D02*
X-120583333Y208947561D01*
X-120583333Y208947561D02*
X-120535714Y208899942D01*
X-120535714Y208899942D02*
X-120488095Y208804704D01*
X-120488095Y208804704D02*
X-120440476Y208614228D01*
X-120440476Y208614228D02*
X-120440476Y208376133D01*
X-120440476Y208376133D02*
X-120488095Y208185657D01*
X-120488095Y208185657D02*
X-120535714Y208090419D01*
X-120535714Y208090419D02*
X-120583333Y208042800D01*
X-120583333Y208042800D02*
X-120678571Y207995180D01*
X-120678571Y207995180D02*
X-120773809Y207995180D01*
X-120773809Y207995180D02*
X-120869047Y208042800D01*
X-120869047Y208042800D02*
X-120916666Y208090419D01*
X-120916666Y208090419D02*
X-120964285Y208185657D01*
X-120964285Y208185657D02*
X-121011904Y208376133D01*
X-121011904Y208376133D02*
X-121011904Y208614228D01*
X-121011904Y208614228D02*
X-120964285Y208804704D01*
X-120964285Y208804704D02*
X-120916666Y208899942D01*
X-120916666Y208899942D02*
X-120869047Y208947561D01*
X-120869047Y208947561D02*
X-120773809Y208995180D01*
X-93235713Y298895180D02*
X-93235713Y299895180D01*
X-93235713Y299895180D02*
X-92902380Y299180895D01*
X-92902380Y299180895D02*
X-92569047Y299895180D01*
X-92569047Y299895180D02*
X-92569047Y298895180D01*
X-92188094Y299895180D02*
X-91521428Y298895180D01*
X-91521428Y299895180D02*
X-92188094Y298895180D01*
X-91235713Y299895180D02*
X-90569047Y299895180D01*
X-90569047Y299895180D02*
X-90997618Y298895180D01*
X-184611904Y207995180D02*
X-184611904Y208995180D01*
X-184611904Y208995180D02*
X-184278571Y208280895D01*
X-184278571Y208280895D02*
X-183945238Y208995180D01*
X-183945238Y208995180D02*
X-183945238Y207995180D01*
X-183564285Y208995180D02*
X-182897619Y207995180D01*
X-182897619Y208995180D02*
X-183564285Y207995180D01*
X-182564285Y208899942D02*
X-182516666Y208947561D01*
X-182516666Y208947561D02*
X-182421428Y208995180D01*
X-182421428Y208995180D02*
X-182183333Y208995180D01*
X-182183333Y208995180D02*
X-182088095Y208947561D01*
X-182088095Y208947561D02*
X-182040476Y208899942D01*
X-182040476Y208899942D02*
X-181992857Y208804704D01*
X-181992857Y208804704D02*
X-181992857Y208709466D01*
X-181992857Y208709466D02*
X-182040476Y208566609D01*
X-182040476Y208566609D02*
X-182611904Y207995180D01*
X-182611904Y207995180D02*
X-181992857Y207995180D01*
X-181421428Y208566609D02*
X-181516666Y208614228D01*
X-181516666Y208614228D02*
X-181564285Y208661847D01*
X-181564285Y208661847D02*
X-181611904Y208757085D01*
X-181611904Y208757085D02*
X-181611904Y208804704D01*
X-181611904Y208804704D02*
X-181564285Y208899942D01*
X-181564285Y208899942D02*
X-181516666Y208947561D01*
X-181516666Y208947561D02*
X-181421428Y208995180D01*
X-181421428Y208995180D02*
X-181230952Y208995180D01*
X-181230952Y208995180D02*
X-181135714Y208947561D01*
X-181135714Y208947561D02*
X-181088095Y208899942D01*
X-181088095Y208899942D02*
X-181040476Y208804704D01*
X-181040476Y208804704D02*
X-181040476Y208757085D01*
X-181040476Y208757085D02*
X-181088095Y208661847D01*
X-181088095Y208661847D02*
X-181135714Y208614228D01*
X-181135714Y208614228D02*
X-181230952Y208566609D01*
X-181230952Y208566609D02*
X-181421428Y208566609D01*
X-181421428Y208566609D02*
X-181516666Y208518990D01*
X-181516666Y208518990D02*
X-181564285Y208471371D01*
X-181564285Y208471371D02*
X-181611904Y208376133D01*
X-181611904Y208376133D02*
X-181611904Y208185657D01*
X-181611904Y208185657D02*
X-181564285Y208090419D01*
X-181564285Y208090419D02*
X-181516666Y208042800D01*
X-181516666Y208042800D02*
X-181421428Y207995180D01*
X-181421428Y207995180D02*
X-181230952Y207995180D01*
X-181230952Y207995180D02*
X-181135714Y208042800D01*
X-181135714Y208042800D02*
X-181088095Y208090419D01*
X-181088095Y208090419D02*
X-181040476Y208185657D01*
X-181040476Y208185657D02*
X-181040476Y208376133D01*
X-181040476Y208376133D02*
X-181088095Y208471371D01*
X-181088095Y208471371D02*
X-181135714Y208518990D01*
X-181135714Y208518990D02*
X-181230952Y208566609D01*
X-245211904Y207995180D02*
X-245211904Y208995180D01*
X-245211904Y208995180D02*
X-244878571Y208280895D01*
X-244878571Y208280895D02*
X-244545238Y208995180D01*
X-244545238Y208995180D02*
X-244545238Y207995180D01*
X-244164285Y208995180D02*
X-243497619Y207995180D01*
X-243497619Y208995180D02*
X-244164285Y207995180D01*
X-243164285Y208899942D02*
X-243116666Y208947561D01*
X-243116666Y208947561D02*
X-243021428Y208995180D01*
X-243021428Y208995180D02*
X-242783333Y208995180D01*
X-242783333Y208995180D02*
X-242688095Y208947561D01*
X-242688095Y208947561D02*
X-242640476Y208899942D01*
X-242640476Y208899942D02*
X-242592857Y208804704D01*
X-242592857Y208804704D02*
X-242592857Y208709466D01*
X-242592857Y208709466D02*
X-242640476Y208566609D01*
X-242640476Y208566609D02*
X-243211904Y207995180D01*
X-243211904Y207995180D02*
X-242592857Y207995180D01*
X-241735714Y208995180D02*
X-241926190Y208995180D01*
X-241926190Y208995180D02*
X-242021428Y208947561D01*
X-242021428Y208947561D02*
X-242069047Y208899942D01*
X-242069047Y208899942D02*
X-242164285Y208757085D01*
X-242164285Y208757085D02*
X-242211904Y208566609D01*
X-242211904Y208566609D02*
X-242211904Y208185657D01*
X-242211904Y208185657D02*
X-242164285Y208090419D01*
X-242164285Y208090419D02*
X-242116666Y208042800D01*
X-242116666Y208042800D02*
X-242021428Y207995180D01*
X-242021428Y207995180D02*
X-241830952Y207995180D01*
X-241830952Y207995180D02*
X-241735714Y208042800D01*
X-241735714Y208042800D02*
X-241688095Y208090419D01*
X-241688095Y208090419D02*
X-241640476Y208185657D01*
X-241640476Y208185657D02*
X-241640476Y208423752D01*
X-241640476Y208423752D02*
X-241688095Y208518990D01*
X-241688095Y208518990D02*
X-241735714Y208566609D01*
X-241735714Y208566609D02*
X-241830952Y208614228D01*
X-241830952Y208614228D02*
X-242021428Y208614228D01*
X-242021428Y208614228D02*
X-242116666Y208566609D01*
X-242116666Y208566609D02*
X-242164285Y208518990D01*
X-242164285Y208518990D02*
X-242211904Y208423752D01*
X-93711904Y86795180D02*
X-93711904Y87795180D01*
X-93711904Y87795180D02*
X-93378571Y87080895D01*
X-93378571Y87080895D02*
X-93045238Y87795180D01*
X-93045238Y87795180D02*
X-93045238Y86795180D01*
X-92664285Y87795180D02*
X-91997619Y86795180D01*
X-91997619Y87795180D02*
X-92664285Y86795180D01*
X-91188095Y87795180D02*
X-91378571Y87795180D01*
X-91378571Y87795180D02*
X-91473809Y87747561D01*
X-91473809Y87747561D02*
X-91521428Y87699942D01*
X-91521428Y87699942D02*
X-91616666Y87557085D01*
X-91616666Y87557085D02*
X-91664285Y87366609D01*
X-91664285Y87366609D02*
X-91664285Y86985657D01*
X-91664285Y86985657D02*
X-91616666Y86890419D01*
X-91616666Y86890419D02*
X-91569047Y86842800D01*
X-91569047Y86842800D02*
X-91473809Y86795180D01*
X-91473809Y86795180D02*
X-91283333Y86795180D01*
X-91283333Y86795180D02*
X-91188095Y86842800D01*
X-91188095Y86842800D02*
X-91140476Y86890419D01*
X-91140476Y86890419D02*
X-91092857Y86985657D01*
X-91092857Y86985657D02*
X-91092857Y87223752D01*
X-91092857Y87223752D02*
X-91140476Y87318990D01*
X-91140476Y87318990D02*
X-91188095Y87366609D01*
X-91188095Y87366609D02*
X-91283333Y87414228D01*
X-91283333Y87414228D02*
X-91473809Y87414228D01*
X-91473809Y87414228D02*
X-91569047Y87366609D01*
X-91569047Y87366609D02*
X-91616666Y87318990D01*
X-91616666Y87318990D02*
X-91664285Y87223752D01*
X-90759523Y87795180D02*
X-90140476Y87795180D01*
X-90140476Y87795180D02*
X-90473809Y87414228D01*
X-90473809Y87414228D02*
X-90330952Y87414228D01*
X-90330952Y87414228D02*
X-90235714Y87366609D01*
X-90235714Y87366609D02*
X-90188095Y87318990D01*
X-90188095Y87318990D02*
X-90140476Y87223752D01*
X-90140476Y87223752D02*
X-90140476Y86985657D01*
X-90140476Y86985657D02*
X-90188095Y86890419D01*
X-90188095Y86890419D02*
X-90235714Y86842800D01*
X-90235714Y86842800D02*
X-90330952Y86795180D01*
X-90330952Y86795180D02*
X-90616666Y86795180D01*
X-90616666Y86795180D02*
X-90711904Y86842800D01*
X-90711904Y86842800D02*
X-90759523Y86890419D01*
X-184611904Y147395180D02*
X-184611904Y148395180D01*
X-184611904Y148395180D02*
X-184278571Y147680895D01*
X-184278571Y147680895D02*
X-183945238Y148395180D01*
X-183945238Y148395180D02*
X-183945238Y147395180D01*
X-183564285Y148395180D02*
X-182897619Y147395180D01*
X-182897619Y148395180D02*
X-183564285Y147395180D01*
X-182088095Y148061847D02*
X-182088095Y147395180D01*
X-182326190Y148442800D02*
X-182564285Y147728514D01*
X-182564285Y147728514D02*
X-181945238Y147728514D01*
X-181135714Y148061847D02*
X-181135714Y147395180D01*
X-181373809Y148442800D02*
X-181611904Y147728514D01*
X-181611904Y147728514D02*
X-180992857Y147728514D01*
X-93711904Y177695180D02*
X-93711904Y178695180D01*
X-93711904Y178695180D02*
X-93378571Y177980895D01*
X-93378571Y177980895D02*
X-93045238Y178695180D01*
X-93045238Y178695180D02*
X-93045238Y177695180D01*
X-92664285Y178695180D02*
X-91997619Y177695180D01*
X-91997619Y178695180D02*
X-92664285Y177695180D01*
X-91711904Y178695180D02*
X-91092857Y178695180D01*
X-91092857Y178695180D02*
X-91426190Y178314228D01*
X-91426190Y178314228D02*
X-91283333Y178314228D01*
X-91283333Y178314228D02*
X-91188095Y178266609D01*
X-91188095Y178266609D02*
X-91140476Y178218990D01*
X-91140476Y178218990D02*
X-91092857Y178123752D01*
X-91092857Y178123752D02*
X-91092857Y177885657D01*
X-91092857Y177885657D02*
X-91140476Y177790419D01*
X-91140476Y177790419D02*
X-91188095Y177742800D01*
X-91188095Y177742800D02*
X-91283333Y177695180D01*
X-91283333Y177695180D02*
X-91569047Y177695180D01*
X-91569047Y177695180D02*
X-91664285Y177742800D01*
X-91664285Y177742800D02*
X-91711904Y177790419D01*
X-90616666Y177695180D02*
X-90426190Y177695180D01*
X-90426190Y177695180D02*
X-90330952Y177742800D01*
X-90330952Y177742800D02*
X-90283333Y177790419D01*
X-90283333Y177790419D02*
X-90188095Y177933276D01*
X-90188095Y177933276D02*
X-90140476Y178123752D01*
X-90140476Y178123752D02*
X-90140476Y178504704D01*
X-90140476Y178504704D02*
X-90188095Y178599942D01*
X-90188095Y178599942D02*
X-90235714Y178647561D01*
X-90235714Y178647561D02*
X-90330952Y178695180D01*
X-90330952Y178695180D02*
X-90521428Y178695180D01*
X-90521428Y178695180D02*
X-90616666Y178647561D01*
X-90616666Y178647561D02*
X-90664285Y178599942D01*
X-90664285Y178599942D02*
X-90711904Y178504704D01*
X-90711904Y178504704D02*
X-90711904Y178266609D01*
X-90711904Y178266609D02*
X-90664285Y178171371D01*
X-90664285Y178171371D02*
X-90616666Y178123752D01*
X-90616666Y178123752D02*
X-90521428Y178076133D01*
X-90521428Y178076133D02*
X-90330952Y178076133D01*
X-90330952Y178076133D02*
X-90235714Y178123752D01*
X-90235714Y178123752D02*
X-90188095Y178171371D01*
X-90188095Y178171371D02*
X-90140476Y178266609D01*
X-184611904Y238295180D02*
X-184611904Y239295180D01*
X-184611904Y239295180D02*
X-184278571Y238580895D01*
X-184278571Y238580895D02*
X-183945238Y239295180D01*
X-183945238Y239295180D02*
X-183945238Y238295180D01*
X-183564285Y239295180D02*
X-182897619Y238295180D01*
X-182897619Y239295180D02*
X-183564285Y238295180D01*
X-182564285Y239199942D02*
X-182516666Y239247561D01*
X-182516666Y239247561D02*
X-182421428Y239295180D01*
X-182421428Y239295180D02*
X-182183333Y239295180D01*
X-182183333Y239295180D02*
X-182088095Y239247561D01*
X-182088095Y239247561D02*
X-182040476Y239199942D01*
X-182040476Y239199942D02*
X-181992857Y239104704D01*
X-181992857Y239104704D02*
X-181992857Y239009466D01*
X-181992857Y239009466D02*
X-182040476Y238866609D01*
X-182040476Y238866609D02*
X-182611904Y238295180D01*
X-182611904Y238295180D02*
X-181992857Y238295180D01*
X-181373809Y239295180D02*
X-181278571Y239295180D01*
X-181278571Y239295180D02*
X-181183333Y239247561D01*
X-181183333Y239247561D02*
X-181135714Y239199942D01*
X-181135714Y239199942D02*
X-181088095Y239104704D01*
X-181088095Y239104704D02*
X-181040476Y238914228D01*
X-181040476Y238914228D02*
X-181040476Y238676133D01*
X-181040476Y238676133D02*
X-181088095Y238485657D01*
X-181088095Y238485657D02*
X-181135714Y238390419D01*
X-181135714Y238390419D02*
X-181183333Y238342800D01*
X-181183333Y238342800D02*
X-181278571Y238295180D01*
X-181278571Y238295180D02*
X-181373809Y238295180D01*
X-181373809Y238295180D02*
X-181469047Y238342800D01*
X-181469047Y238342800D02*
X-181516666Y238390419D01*
X-181516666Y238390419D02*
X-181564285Y238485657D01*
X-181564285Y238485657D02*
X-181611904Y238676133D01*
X-181611904Y238676133D02*
X-181611904Y238914228D01*
X-181611904Y238914228D02*
X-181564285Y239104704D01*
X-181564285Y239104704D02*
X-181516666Y239199942D01*
X-181516666Y239199942D02*
X-181469047Y239247561D01*
X-181469047Y239247561D02*
X-181373809Y239295180D01*
X-275511904Y207995180D02*
X-275511904Y208995180D01*
X-275511904Y208995180D02*
X-275178571Y208280895D01*
X-275178571Y208280895D02*
X-274845238Y208995180D01*
X-274845238Y208995180D02*
X-274845238Y207995180D01*
X-274464285Y208995180D02*
X-273797619Y207995180D01*
X-273797619Y208995180D02*
X-274464285Y207995180D01*
X-273464285Y208899942D02*
X-273416666Y208947561D01*
X-273416666Y208947561D02*
X-273321428Y208995180D01*
X-273321428Y208995180D02*
X-273083333Y208995180D01*
X-273083333Y208995180D02*
X-272988095Y208947561D01*
X-272988095Y208947561D02*
X-272940476Y208899942D01*
X-272940476Y208899942D02*
X-272892857Y208804704D01*
X-272892857Y208804704D02*
X-272892857Y208709466D01*
X-272892857Y208709466D02*
X-272940476Y208566609D01*
X-272940476Y208566609D02*
X-273511904Y207995180D01*
X-273511904Y207995180D02*
X-272892857Y207995180D01*
X-271988095Y208995180D02*
X-272464285Y208995180D01*
X-272464285Y208995180D02*
X-272511904Y208518990D01*
X-272511904Y208518990D02*
X-272464285Y208566609D01*
X-272464285Y208566609D02*
X-272369047Y208614228D01*
X-272369047Y208614228D02*
X-272130952Y208614228D01*
X-272130952Y208614228D02*
X-272035714Y208566609D01*
X-272035714Y208566609D02*
X-271988095Y208518990D01*
X-271988095Y208518990D02*
X-271940476Y208423752D01*
X-271940476Y208423752D02*
X-271940476Y208185657D01*
X-271940476Y208185657D02*
X-271988095Y208090419D01*
X-271988095Y208090419D02*
X-272035714Y208042800D01*
X-272035714Y208042800D02*
X-272130952Y207995180D01*
X-272130952Y207995180D02*
X-272369047Y207995180D01*
X-272369047Y207995180D02*
X-272464285Y208042800D01*
X-272464285Y208042800D02*
X-272511904Y208090419D01*
X-214911904Y86795180D02*
X-214911904Y87795180D01*
X-214911904Y87795180D02*
X-214578571Y87080895D01*
X-214578571Y87080895D02*
X-214245238Y87795180D01*
X-214245238Y87795180D02*
X-214245238Y86795180D01*
X-213864285Y87795180D02*
X-213197619Y86795180D01*
X-213197619Y87795180D02*
X-213864285Y86795180D01*
X-212340476Y87795180D02*
X-212816666Y87795180D01*
X-212816666Y87795180D02*
X-212864285Y87318990D01*
X-212864285Y87318990D02*
X-212816666Y87366609D01*
X-212816666Y87366609D02*
X-212721428Y87414228D01*
X-212721428Y87414228D02*
X-212483333Y87414228D01*
X-212483333Y87414228D02*
X-212388095Y87366609D01*
X-212388095Y87366609D02*
X-212340476Y87318990D01*
X-212340476Y87318990D02*
X-212292857Y87223752D01*
X-212292857Y87223752D02*
X-212292857Y86985657D01*
X-212292857Y86985657D02*
X-212340476Y86890419D01*
X-212340476Y86890419D02*
X-212388095Y86842800D01*
X-212388095Y86842800D02*
X-212483333Y86795180D01*
X-212483333Y86795180D02*
X-212721428Y86795180D01*
X-212721428Y86795180D02*
X-212816666Y86842800D01*
X-212816666Y86842800D02*
X-212864285Y86890419D01*
X-211816666Y86795180D02*
X-211626190Y86795180D01*
X-211626190Y86795180D02*
X-211530952Y86842800D01*
X-211530952Y86842800D02*
X-211483333Y86890419D01*
X-211483333Y86890419D02*
X-211388095Y87033276D01*
X-211388095Y87033276D02*
X-211340476Y87223752D01*
X-211340476Y87223752D02*
X-211340476Y87604704D01*
X-211340476Y87604704D02*
X-211388095Y87699942D01*
X-211388095Y87699942D02*
X-211435714Y87747561D01*
X-211435714Y87747561D02*
X-211530952Y87795180D01*
X-211530952Y87795180D02*
X-211721428Y87795180D01*
X-211721428Y87795180D02*
X-211816666Y87747561D01*
X-211816666Y87747561D02*
X-211864285Y87699942D01*
X-211864285Y87699942D02*
X-211911904Y87604704D01*
X-211911904Y87604704D02*
X-211911904Y87366609D01*
X-211911904Y87366609D02*
X-211864285Y87271371D01*
X-211864285Y87271371D02*
X-211816666Y87223752D01*
X-211816666Y87223752D02*
X-211721428Y87176133D01*
X-211721428Y87176133D02*
X-211530952Y87176133D01*
X-211530952Y87176133D02*
X-211435714Y87223752D01*
X-211435714Y87223752D02*
X-211388095Y87271371D01*
X-211388095Y87271371D02*
X-211340476Y87366609D01*
X-275511904Y147395180D02*
X-275511904Y148395180D01*
X-275511904Y148395180D02*
X-275178571Y147680895D01*
X-275178571Y147680895D02*
X-274845238Y148395180D01*
X-274845238Y148395180D02*
X-274845238Y147395180D01*
X-274464285Y148395180D02*
X-273797619Y147395180D01*
X-273797619Y148395180D02*
X-274464285Y147395180D01*
X-272988095Y148061847D02*
X-272988095Y147395180D01*
X-273226190Y148442800D02*
X-273464285Y147728514D01*
X-273464285Y147728514D02*
X-272845238Y147728514D01*
X-271940476Y147395180D02*
X-272511904Y147395180D01*
X-272226190Y147395180D02*
X-272226190Y148395180D01*
X-272226190Y148395180D02*
X-272321428Y148252323D01*
X-272321428Y148252323D02*
X-272416666Y148157085D01*
X-272416666Y148157085D02*
X-272511904Y148109466D01*
X-93711904Y207995180D02*
X-93711904Y208995180D01*
X-93711904Y208995180D02*
X-93378571Y208280895D01*
X-93378571Y208280895D02*
X-93045238Y208995180D01*
X-93045238Y208995180D02*
X-93045238Y207995180D01*
X-92664285Y208995180D02*
X-91997619Y207995180D01*
X-91997619Y208995180D02*
X-92664285Y207995180D01*
X-91711904Y208995180D02*
X-91092857Y208995180D01*
X-91092857Y208995180D02*
X-91426190Y208614228D01*
X-91426190Y208614228D02*
X-91283333Y208614228D01*
X-91283333Y208614228D02*
X-91188095Y208566609D01*
X-91188095Y208566609D02*
X-91140476Y208518990D01*
X-91140476Y208518990D02*
X-91092857Y208423752D01*
X-91092857Y208423752D02*
X-91092857Y208185657D01*
X-91092857Y208185657D02*
X-91140476Y208090419D01*
X-91140476Y208090419D02*
X-91188095Y208042800D01*
X-91188095Y208042800D02*
X-91283333Y207995180D01*
X-91283333Y207995180D02*
X-91569047Y207995180D01*
X-91569047Y207995180D02*
X-91664285Y208042800D01*
X-91664285Y208042800D02*
X-91711904Y208090419D01*
X-90140476Y207995180D02*
X-90711904Y207995180D01*
X-90426190Y207995180D02*
X-90426190Y208995180D01*
X-90426190Y208995180D02*
X-90521428Y208852323D01*
X-90521428Y208852323D02*
X-90616666Y208757085D01*
X-90616666Y208757085D02*
X-90711904Y208709466D01*
X-245211904Y268595180D02*
X-245211904Y269595180D01*
X-245211904Y269595180D02*
X-244878571Y268880895D01*
X-244878571Y268880895D02*
X-244545238Y269595180D01*
X-244545238Y269595180D02*
X-244545238Y268595180D01*
X-244164285Y269595180D02*
X-243497619Y268595180D01*
X-243497619Y269595180D02*
X-244164285Y268595180D01*
X-242592857Y268595180D02*
X-243164285Y268595180D01*
X-242878571Y268595180D02*
X-242878571Y269595180D01*
X-242878571Y269595180D02*
X-242973809Y269452323D01*
X-242973809Y269452323D02*
X-243069047Y269357085D01*
X-243069047Y269357085D02*
X-243164285Y269309466D01*
X-241973809Y269595180D02*
X-241878571Y269595180D01*
X-241878571Y269595180D02*
X-241783333Y269547561D01*
X-241783333Y269547561D02*
X-241735714Y269499942D01*
X-241735714Y269499942D02*
X-241688095Y269404704D01*
X-241688095Y269404704D02*
X-241640476Y269214228D01*
X-241640476Y269214228D02*
X-241640476Y268976133D01*
X-241640476Y268976133D02*
X-241688095Y268785657D01*
X-241688095Y268785657D02*
X-241735714Y268690419D01*
X-241735714Y268690419D02*
X-241783333Y268642800D01*
X-241783333Y268642800D02*
X-241878571Y268595180D01*
X-241878571Y268595180D02*
X-241973809Y268595180D01*
X-241973809Y268595180D02*
X-242069047Y268642800D01*
X-242069047Y268642800D02*
X-242116666Y268690419D01*
X-242116666Y268690419D02*
X-242164285Y268785657D01*
X-242164285Y268785657D02*
X-242211904Y268976133D01*
X-242211904Y268976133D02*
X-242211904Y269214228D01*
X-242211904Y269214228D02*
X-242164285Y269404704D01*
X-242164285Y269404704D02*
X-242116666Y269499942D01*
X-242116666Y269499942D02*
X-242069047Y269547561D01*
X-242069047Y269547561D02*
X-241973809Y269595180D01*
X-214911904Y268595180D02*
X-214911904Y269595180D01*
X-214911904Y269595180D02*
X-214578571Y268880895D01*
X-214578571Y268880895D02*
X-214245238Y269595180D01*
X-214245238Y269595180D02*
X-214245238Y268595180D01*
X-213864285Y269595180D02*
X-213197619Y268595180D01*
X-213197619Y269595180D02*
X-213864285Y268595180D01*
X-212292857Y268595180D02*
X-212864285Y268595180D01*
X-212578571Y268595180D02*
X-212578571Y269595180D01*
X-212578571Y269595180D02*
X-212673809Y269452323D01*
X-212673809Y269452323D02*
X-212769047Y269357085D01*
X-212769047Y269357085D02*
X-212864285Y269309466D01*
X-211340476Y268595180D02*
X-211911904Y268595180D01*
X-211626190Y268595180D02*
X-211626190Y269595180D01*
X-211626190Y269595180D02*
X-211721428Y269452323D01*
X-211721428Y269452323D02*
X-211816666Y269357085D01*
X-211816666Y269357085D02*
X-211911904Y269309466D01*
D11*
%TO.C,D192*%
X-267802000Y82914000D02*
X-267802000Y84914000D01*
X-267802000Y82914000D02*
X-264602000Y82914000D01*
X-267502000Y85214000D02*
X-267802000Y84914000D01*
X-267502000Y85214000D02*
X-264602000Y85214000D01*
X-264602000Y85214000D02*
X-264602000Y82914000D01*
%TO.C,D191*%
X-237502000Y82914000D02*
X-237502000Y84914000D01*
X-237502000Y82914000D02*
X-234302000Y82914000D01*
X-237202000Y85214000D02*
X-237502000Y84914000D01*
X-237202000Y85214000D02*
X-234302000Y85214000D01*
X-234302000Y85214000D02*
X-234302000Y82914000D01*
%TO.C,D190*%
X-207202000Y82914000D02*
X-207202000Y84914000D01*
X-207202000Y82914000D02*
X-204002000Y82914000D01*
X-206902000Y85214000D02*
X-207202000Y84914000D01*
X-206902000Y85214000D02*
X-204002000Y85214000D01*
X-204002000Y85214000D02*
X-204002000Y82914000D01*
%TO.C,D189*%
X-176902000Y82914000D02*
X-176902000Y84914000D01*
X-176902000Y82914000D02*
X-173702000Y82914000D01*
X-176602000Y85214000D02*
X-176902000Y84914000D01*
X-176602000Y85214000D02*
X-173702000Y85214000D01*
X-173702000Y85214000D02*
X-173702000Y82914000D01*
%TO.C,D188*%
X-146602000Y82914000D02*
X-146602000Y84914000D01*
X-146602000Y82914000D02*
X-143402000Y82914000D01*
X-146302000Y85214000D02*
X-146602000Y84914000D01*
X-146302000Y85214000D02*
X-143402000Y85214000D01*
X-143402000Y85214000D02*
X-143402000Y82914000D01*
%TO.C,D187*%
X-116302000Y82914000D02*
X-116302000Y84914000D01*
X-116302000Y82914000D02*
X-113102000Y82914000D01*
X-116002000Y85214000D02*
X-116302000Y84914000D01*
X-116002000Y85214000D02*
X-113102000Y85214000D01*
X-113102000Y85214000D02*
X-113102000Y82914000D01*
%TO.C,D186*%
X-86002000Y82914000D02*
X-86002000Y84914000D01*
X-86002000Y82914000D02*
X-82802000Y82914000D01*
X-85702000Y85214000D02*
X-86002000Y84914000D01*
X-85702000Y85214000D02*
X-82802000Y85214000D01*
X-82802000Y85214000D02*
X-82802000Y82914000D01*
%TO.C,D185*%
X-55702000Y82914000D02*
X-55702000Y84914000D01*
X-55702000Y82914000D02*
X-52502000Y82914000D01*
X-55402000Y85214000D02*
X-55702000Y84914000D01*
X-55402000Y85214000D02*
X-52502000Y85214000D01*
X-52502000Y85214000D02*
X-52502000Y82914000D01*
%TO.C,D184*%
X-66716000Y101724000D02*
X-66716000Y99724000D01*
X-66716000Y101724000D02*
X-69916000Y101724000D01*
X-67016000Y99424000D02*
X-66716000Y99724000D01*
X-67016000Y99424000D02*
X-69916000Y99424000D01*
X-69916000Y99424000D02*
X-69916000Y101724000D01*
%TO.C,D183*%
X-97016000Y101724000D02*
X-97016000Y99724000D01*
X-97016000Y101724000D02*
X-100216000Y101724000D01*
X-97316000Y99424000D02*
X-97016000Y99724000D01*
X-97316000Y99424000D02*
X-100216000Y99424000D01*
X-100216000Y99424000D02*
X-100216000Y101724000D01*
%TO.C,D182*%
X-127316000Y101724000D02*
X-127316000Y99724000D01*
X-127316000Y101724000D02*
X-130516000Y101724000D01*
X-127616000Y99424000D02*
X-127316000Y99724000D01*
X-127616000Y99424000D02*
X-130516000Y99424000D01*
X-130516000Y99424000D02*
X-130516000Y101724000D01*
%TO.C,D181*%
X-157616000Y101724000D02*
X-157616000Y99724000D01*
X-157616000Y101724000D02*
X-160816000Y101724000D01*
X-157916000Y99424000D02*
X-157616000Y99724000D01*
X-157916000Y99424000D02*
X-160816000Y99424000D01*
X-160816000Y99424000D02*
X-160816000Y101724000D01*
%TO.C,D180*%
X-187916000Y101724000D02*
X-187916000Y99724000D01*
X-187916000Y101724000D02*
X-191116000Y101724000D01*
X-188216000Y99424000D02*
X-187916000Y99724000D01*
X-188216000Y99424000D02*
X-191116000Y99424000D01*
X-191116000Y99424000D02*
X-191116000Y101724000D01*
%TO.C,D179*%
X-218216000Y101724000D02*
X-218216000Y99724000D01*
X-218216000Y101724000D02*
X-221416000Y101724000D01*
X-218516000Y99424000D02*
X-218216000Y99724000D01*
X-218516000Y99424000D02*
X-221416000Y99424000D01*
X-221416000Y99424000D02*
X-221416000Y101724000D01*
%TO.C,D178*%
X-248516000Y101724000D02*
X-248516000Y99724000D01*
X-248516000Y101724000D02*
X-251716000Y101724000D01*
X-248816000Y99424000D02*
X-248516000Y99724000D01*
X-248816000Y99424000D02*
X-251716000Y99424000D01*
X-251716000Y99424000D02*
X-251716000Y101724000D01*
%TO.C,D177*%
X-278816000Y101724000D02*
X-278816000Y99724000D01*
X-278816000Y101724000D02*
X-282016000Y101724000D01*
X-279116000Y99424000D02*
X-278816000Y99724000D01*
X-279116000Y99424000D02*
X-282016000Y99424000D01*
X-282016000Y99424000D02*
X-282016000Y101724000D01*
%TO.C,D176*%
X-267802000Y113214000D02*
X-267802000Y115214000D01*
X-267802000Y113214000D02*
X-264602000Y113214000D01*
X-267502000Y115514000D02*
X-267802000Y115214000D01*
X-267502000Y115514000D02*
X-264602000Y115514000D01*
X-264602000Y115514000D02*
X-264602000Y113214000D01*
%TO.C,D175*%
X-237502000Y113214000D02*
X-237502000Y115214000D01*
X-237502000Y113214000D02*
X-234302000Y113214000D01*
X-237202000Y115514000D02*
X-237502000Y115214000D01*
X-237202000Y115514000D02*
X-234302000Y115514000D01*
X-234302000Y115514000D02*
X-234302000Y113214000D01*
%TO.C,D174*%
X-207202000Y113214000D02*
X-207202000Y115214000D01*
X-207202000Y113214000D02*
X-204002000Y113214000D01*
X-206902000Y115514000D02*
X-207202000Y115214000D01*
X-206902000Y115514000D02*
X-204002000Y115514000D01*
X-204002000Y115514000D02*
X-204002000Y113214000D01*
%TO.C,D173*%
X-176902000Y113214000D02*
X-176902000Y115214000D01*
X-176902000Y113214000D02*
X-173702000Y113214000D01*
X-176602000Y115514000D02*
X-176902000Y115214000D01*
X-176602000Y115514000D02*
X-173702000Y115514000D01*
X-173702000Y115514000D02*
X-173702000Y113214000D01*
%TO.C,D172*%
X-146602000Y113214000D02*
X-146602000Y115214000D01*
X-146602000Y113214000D02*
X-143402000Y113214000D01*
X-146302000Y115514000D02*
X-146602000Y115214000D01*
X-146302000Y115514000D02*
X-143402000Y115514000D01*
X-143402000Y115514000D02*
X-143402000Y113214000D01*
%TO.C,D171*%
X-116302000Y113214000D02*
X-116302000Y115214000D01*
X-116302000Y113214000D02*
X-113102000Y113214000D01*
X-116002000Y115514000D02*
X-116302000Y115214000D01*
X-116002000Y115514000D02*
X-113102000Y115514000D01*
X-113102000Y115514000D02*
X-113102000Y113214000D01*
%TO.C,D170*%
X-86002000Y113214000D02*
X-86002000Y115214000D01*
X-86002000Y113214000D02*
X-82802000Y113214000D01*
X-85702000Y115514000D02*
X-86002000Y115214000D01*
X-85702000Y115514000D02*
X-82802000Y115514000D01*
X-82802000Y115514000D02*
X-82802000Y113214000D01*
%TO.C,D169*%
X-55702000Y113214000D02*
X-55702000Y115214000D01*
X-55702000Y113214000D02*
X-52502000Y113214000D01*
X-55402000Y115514000D02*
X-55702000Y115214000D01*
X-55402000Y115514000D02*
X-52502000Y115514000D01*
X-52502000Y115514000D02*
X-52502000Y113214000D01*
%TO.C,D168*%
X-66716000Y132024000D02*
X-66716000Y130024000D01*
X-66716000Y132024000D02*
X-69916000Y132024000D01*
X-67016000Y129724000D02*
X-66716000Y130024000D01*
X-67016000Y129724000D02*
X-69916000Y129724000D01*
X-69916000Y129724000D02*
X-69916000Y132024000D01*
%TO.C,D167*%
X-97016000Y132024000D02*
X-97016000Y130024000D01*
X-97016000Y132024000D02*
X-100216000Y132024000D01*
X-97316000Y129724000D02*
X-97016000Y130024000D01*
X-97316000Y129724000D02*
X-100216000Y129724000D01*
X-100216000Y129724000D02*
X-100216000Y132024000D01*
%TO.C,D166*%
X-127316000Y132024000D02*
X-127316000Y130024000D01*
X-127316000Y132024000D02*
X-130516000Y132024000D01*
X-127616000Y129724000D02*
X-127316000Y130024000D01*
X-127616000Y129724000D02*
X-130516000Y129724000D01*
X-130516000Y129724000D02*
X-130516000Y132024000D01*
%TO.C,D165*%
X-157616000Y132024000D02*
X-157616000Y130024000D01*
X-157616000Y132024000D02*
X-160816000Y132024000D01*
X-157916000Y129724000D02*
X-157616000Y130024000D01*
X-157916000Y129724000D02*
X-160816000Y129724000D01*
X-160816000Y129724000D02*
X-160816000Y132024000D01*
%TO.C,D164*%
X-187916000Y132024000D02*
X-187916000Y130024000D01*
X-187916000Y132024000D02*
X-191116000Y132024000D01*
X-188216000Y129724000D02*
X-187916000Y130024000D01*
X-188216000Y129724000D02*
X-191116000Y129724000D01*
X-191116000Y129724000D02*
X-191116000Y132024000D01*
%TO.C,D163*%
X-218216000Y132024000D02*
X-218216000Y130024000D01*
X-218216000Y132024000D02*
X-221416000Y132024000D01*
X-218516000Y129724000D02*
X-218216000Y130024000D01*
X-218516000Y129724000D02*
X-221416000Y129724000D01*
X-221416000Y129724000D02*
X-221416000Y132024000D01*
%TO.C,D162*%
X-248516000Y132024000D02*
X-248516000Y130024000D01*
X-248516000Y132024000D02*
X-251716000Y132024000D01*
X-248816000Y129724000D02*
X-248516000Y130024000D01*
X-248816000Y129724000D02*
X-251716000Y129724000D01*
X-251716000Y129724000D02*
X-251716000Y132024000D01*
%TO.C,D161*%
X-278816000Y132024000D02*
X-278816000Y130024000D01*
X-278816000Y132024000D02*
X-282016000Y132024000D01*
X-279116000Y129724000D02*
X-278816000Y130024000D01*
X-279116000Y129724000D02*
X-282016000Y129724000D01*
X-282016000Y129724000D02*
X-282016000Y132024000D01*
%TO.C,D160*%
X-267802000Y143514000D02*
X-267802000Y145514000D01*
X-267802000Y143514000D02*
X-264602000Y143514000D01*
X-267502000Y145814000D02*
X-267802000Y145514000D01*
X-267502000Y145814000D02*
X-264602000Y145814000D01*
X-264602000Y145814000D02*
X-264602000Y143514000D01*
%TO.C,D159*%
X-237502000Y143514000D02*
X-237502000Y145514000D01*
X-237502000Y143514000D02*
X-234302000Y143514000D01*
X-237202000Y145814000D02*
X-237502000Y145514000D01*
X-237202000Y145814000D02*
X-234302000Y145814000D01*
X-234302000Y145814000D02*
X-234302000Y143514000D01*
%TO.C,D158*%
X-207202000Y143514000D02*
X-207202000Y145514000D01*
X-207202000Y143514000D02*
X-204002000Y143514000D01*
X-206902000Y145814000D02*
X-207202000Y145514000D01*
X-206902000Y145814000D02*
X-204002000Y145814000D01*
X-204002000Y145814000D02*
X-204002000Y143514000D01*
%TO.C,D157*%
X-176902000Y143514000D02*
X-176902000Y145514000D01*
X-176902000Y143514000D02*
X-173702000Y143514000D01*
X-176602000Y145814000D02*
X-176902000Y145514000D01*
X-176602000Y145814000D02*
X-173702000Y145814000D01*
X-173702000Y145814000D02*
X-173702000Y143514000D01*
%TO.C,D156*%
X-146602000Y143514000D02*
X-146602000Y145514000D01*
X-146602000Y143514000D02*
X-143402000Y143514000D01*
X-146302000Y145814000D02*
X-146602000Y145514000D01*
X-146302000Y145814000D02*
X-143402000Y145814000D01*
X-143402000Y145814000D02*
X-143402000Y143514000D01*
%TO.C,D155*%
X-116302000Y143514000D02*
X-116302000Y145514000D01*
X-116302000Y143514000D02*
X-113102000Y143514000D01*
X-116002000Y145814000D02*
X-116302000Y145514000D01*
X-116002000Y145814000D02*
X-113102000Y145814000D01*
X-113102000Y145814000D02*
X-113102000Y143514000D01*
%TO.C,D154*%
X-86002000Y143514000D02*
X-86002000Y145514000D01*
X-86002000Y143514000D02*
X-82802000Y143514000D01*
X-85702000Y145814000D02*
X-86002000Y145514000D01*
X-85702000Y145814000D02*
X-82802000Y145814000D01*
X-82802000Y145814000D02*
X-82802000Y143514000D01*
%TO.C,D153*%
X-55702000Y143514000D02*
X-55702000Y145514000D01*
X-55702000Y143514000D02*
X-52502000Y143514000D01*
X-55402000Y145814000D02*
X-55702000Y145514000D01*
X-55402000Y145814000D02*
X-52502000Y145814000D01*
X-52502000Y145814000D02*
X-52502000Y143514000D01*
%TO.C,D152*%
X-66716000Y162324000D02*
X-66716000Y160324000D01*
X-66716000Y162324000D02*
X-69916000Y162324000D01*
X-67016000Y160024000D02*
X-66716000Y160324000D01*
X-67016000Y160024000D02*
X-69916000Y160024000D01*
X-69916000Y160024000D02*
X-69916000Y162324000D01*
%TO.C,D151*%
X-97016000Y162324000D02*
X-97016000Y160324000D01*
X-97016000Y162324000D02*
X-100216000Y162324000D01*
X-97316000Y160024000D02*
X-97016000Y160324000D01*
X-97316000Y160024000D02*
X-100216000Y160024000D01*
X-100216000Y160024000D02*
X-100216000Y162324000D01*
%TO.C,D150*%
X-127316000Y162324000D02*
X-127316000Y160324000D01*
X-127316000Y162324000D02*
X-130516000Y162324000D01*
X-127616000Y160024000D02*
X-127316000Y160324000D01*
X-127616000Y160024000D02*
X-130516000Y160024000D01*
X-130516000Y160024000D02*
X-130516000Y162324000D01*
%TO.C,D149*%
X-157616000Y162324000D02*
X-157616000Y160324000D01*
X-157616000Y162324000D02*
X-160816000Y162324000D01*
X-157916000Y160024000D02*
X-157616000Y160324000D01*
X-157916000Y160024000D02*
X-160816000Y160024000D01*
X-160816000Y160024000D02*
X-160816000Y162324000D01*
%TO.C,D148*%
X-187916000Y162324000D02*
X-187916000Y160324000D01*
X-187916000Y162324000D02*
X-191116000Y162324000D01*
X-188216000Y160024000D02*
X-187916000Y160324000D01*
X-188216000Y160024000D02*
X-191116000Y160024000D01*
X-191116000Y160024000D02*
X-191116000Y162324000D01*
%TO.C,D147*%
X-218216000Y162324000D02*
X-218216000Y160324000D01*
X-218216000Y162324000D02*
X-221416000Y162324000D01*
X-218516000Y160024000D02*
X-218216000Y160324000D01*
X-218516000Y160024000D02*
X-221416000Y160024000D01*
X-221416000Y160024000D02*
X-221416000Y162324000D01*
%TO.C,D146*%
X-248516000Y162324000D02*
X-248516000Y160324000D01*
X-248516000Y162324000D02*
X-251716000Y162324000D01*
X-248816000Y160024000D02*
X-248516000Y160324000D01*
X-248816000Y160024000D02*
X-251716000Y160024000D01*
X-251716000Y160024000D02*
X-251716000Y162324000D01*
%TO.C,D145*%
X-278816000Y162324000D02*
X-278816000Y160324000D01*
X-278816000Y162324000D02*
X-282016000Y162324000D01*
X-279116000Y160024000D02*
X-278816000Y160324000D01*
X-279116000Y160024000D02*
X-282016000Y160024000D01*
X-282016000Y160024000D02*
X-282016000Y162324000D01*
%TO.C,D144*%
X-267802000Y173814000D02*
X-267802000Y175814000D01*
X-267802000Y173814000D02*
X-264602000Y173814000D01*
X-267502000Y176114000D02*
X-267802000Y175814000D01*
X-267502000Y176114000D02*
X-264602000Y176114000D01*
X-264602000Y176114000D02*
X-264602000Y173814000D01*
%TO.C,D143*%
X-237502000Y173814000D02*
X-237502000Y175814000D01*
X-237502000Y173814000D02*
X-234302000Y173814000D01*
X-237202000Y176114000D02*
X-237502000Y175814000D01*
X-237202000Y176114000D02*
X-234302000Y176114000D01*
X-234302000Y176114000D02*
X-234302000Y173814000D01*
%TO.C,D142*%
X-207202000Y173814000D02*
X-207202000Y175814000D01*
X-207202000Y173814000D02*
X-204002000Y173814000D01*
X-206902000Y176114000D02*
X-207202000Y175814000D01*
X-206902000Y176114000D02*
X-204002000Y176114000D01*
X-204002000Y176114000D02*
X-204002000Y173814000D01*
%TO.C,D141*%
X-176902000Y173814000D02*
X-176902000Y175814000D01*
X-176902000Y173814000D02*
X-173702000Y173814000D01*
X-176602000Y176114000D02*
X-176902000Y175814000D01*
X-176602000Y176114000D02*
X-173702000Y176114000D01*
X-173702000Y176114000D02*
X-173702000Y173814000D01*
%TO.C,D140*%
X-146602000Y173814000D02*
X-146602000Y175814000D01*
X-146602000Y173814000D02*
X-143402000Y173814000D01*
X-146302000Y176114000D02*
X-146602000Y175814000D01*
X-146302000Y176114000D02*
X-143402000Y176114000D01*
X-143402000Y176114000D02*
X-143402000Y173814000D01*
%TO.C,D139*%
X-116302000Y173814000D02*
X-116302000Y175814000D01*
X-116302000Y173814000D02*
X-113102000Y173814000D01*
X-116002000Y176114000D02*
X-116302000Y175814000D01*
X-116002000Y176114000D02*
X-113102000Y176114000D01*
X-113102000Y176114000D02*
X-113102000Y173814000D01*
%TO.C,D138*%
X-86002000Y173814000D02*
X-86002000Y175814000D01*
X-86002000Y173814000D02*
X-82802000Y173814000D01*
X-85702000Y176114000D02*
X-86002000Y175814000D01*
X-85702000Y176114000D02*
X-82802000Y176114000D01*
X-82802000Y176114000D02*
X-82802000Y173814000D01*
%TO.C,D137*%
X-55702000Y173814000D02*
X-55702000Y175814000D01*
X-55702000Y173814000D02*
X-52502000Y173814000D01*
X-55402000Y176114000D02*
X-55702000Y175814000D01*
X-55402000Y176114000D02*
X-52502000Y176114000D01*
X-52502000Y176114000D02*
X-52502000Y173814000D01*
%TO.C,D136*%
X-66716000Y192624000D02*
X-66716000Y190624000D01*
X-66716000Y192624000D02*
X-69916000Y192624000D01*
X-67016000Y190324000D02*
X-66716000Y190624000D01*
X-67016000Y190324000D02*
X-69916000Y190324000D01*
X-69916000Y190324000D02*
X-69916000Y192624000D01*
%TO.C,D135*%
X-97016000Y192624000D02*
X-97016000Y190624000D01*
X-97016000Y192624000D02*
X-100216000Y192624000D01*
X-97316000Y190324000D02*
X-97016000Y190624000D01*
X-97316000Y190324000D02*
X-100216000Y190324000D01*
X-100216000Y190324000D02*
X-100216000Y192624000D01*
%TO.C,D134*%
X-127316000Y192624000D02*
X-127316000Y190624000D01*
X-127316000Y192624000D02*
X-130516000Y192624000D01*
X-127616000Y190324000D02*
X-127316000Y190624000D01*
X-127616000Y190324000D02*
X-130516000Y190324000D01*
X-130516000Y190324000D02*
X-130516000Y192624000D01*
%TO.C,D133*%
X-157616000Y192624000D02*
X-157616000Y190624000D01*
X-157616000Y192624000D02*
X-160816000Y192624000D01*
X-157916000Y190324000D02*
X-157616000Y190624000D01*
X-157916000Y190324000D02*
X-160816000Y190324000D01*
X-160816000Y190324000D02*
X-160816000Y192624000D01*
%TO.C,D132*%
X-187916000Y192624000D02*
X-187916000Y190624000D01*
X-187916000Y192624000D02*
X-191116000Y192624000D01*
X-188216000Y190324000D02*
X-187916000Y190624000D01*
X-188216000Y190324000D02*
X-191116000Y190324000D01*
X-191116000Y190324000D02*
X-191116000Y192624000D01*
%TO.C,D131*%
X-218216000Y192624000D02*
X-218216000Y190624000D01*
X-218216000Y192624000D02*
X-221416000Y192624000D01*
X-218516000Y190324000D02*
X-218216000Y190624000D01*
X-218516000Y190324000D02*
X-221416000Y190324000D01*
X-221416000Y190324000D02*
X-221416000Y192624000D01*
%TO.C,D130*%
X-248516000Y192624000D02*
X-248516000Y190624000D01*
X-248516000Y192624000D02*
X-251716000Y192624000D01*
X-248816000Y190324000D02*
X-248516000Y190624000D01*
X-248816000Y190324000D02*
X-251716000Y190324000D01*
X-251716000Y190324000D02*
X-251716000Y192624000D01*
%TO.C,D129*%
X-278816000Y192624000D02*
X-278816000Y190624000D01*
X-278816000Y192624000D02*
X-282016000Y192624000D01*
X-279116000Y190324000D02*
X-278816000Y190624000D01*
X-279116000Y190324000D02*
X-282016000Y190324000D01*
X-282016000Y190324000D02*
X-282016000Y192624000D01*
%TO.C,D128*%
X-267802000Y204114000D02*
X-267802000Y206114000D01*
X-267802000Y204114000D02*
X-264602000Y204114000D01*
X-267502000Y206414000D02*
X-267802000Y206114000D01*
X-267502000Y206414000D02*
X-264602000Y206414000D01*
X-264602000Y206414000D02*
X-264602000Y204114000D01*
%TO.C,D127*%
X-237502000Y204114000D02*
X-237502000Y206114000D01*
X-237502000Y204114000D02*
X-234302000Y204114000D01*
X-237202000Y206414000D02*
X-237502000Y206114000D01*
X-237202000Y206414000D02*
X-234302000Y206414000D01*
X-234302000Y206414000D02*
X-234302000Y204114000D01*
%TO.C,D126*%
X-207202000Y204114000D02*
X-207202000Y206114000D01*
X-207202000Y204114000D02*
X-204002000Y204114000D01*
X-206902000Y206414000D02*
X-207202000Y206114000D01*
X-206902000Y206414000D02*
X-204002000Y206414000D01*
X-204002000Y206414000D02*
X-204002000Y204114000D01*
%TO.C,D125*%
X-176902000Y204114000D02*
X-176902000Y206114000D01*
X-176902000Y204114000D02*
X-173702000Y204114000D01*
X-176602000Y206414000D02*
X-176902000Y206114000D01*
X-176602000Y206414000D02*
X-173702000Y206414000D01*
X-173702000Y206414000D02*
X-173702000Y204114000D01*
%TO.C,D124*%
X-146602000Y204114000D02*
X-146602000Y206114000D01*
X-146602000Y204114000D02*
X-143402000Y204114000D01*
X-146302000Y206414000D02*
X-146602000Y206114000D01*
X-146302000Y206414000D02*
X-143402000Y206414000D01*
X-143402000Y206414000D02*
X-143402000Y204114000D01*
%TO.C,D123*%
X-116302000Y204114000D02*
X-116302000Y206114000D01*
X-116302000Y204114000D02*
X-113102000Y204114000D01*
X-116002000Y206414000D02*
X-116302000Y206114000D01*
X-116002000Y206414000D02*
X-113102000Y206414000D01*
X-113102000Y206414000D02*
X-113102000Y204114000D01*
%TO.C,D122*%
X-86002000Y204114000D02*
X-86002000Y206114000D01*
X-86002000Y204114000D02*
X-82802000Y204114000D01*
X-85702000Y206414000D02*
X-86002000Y206114000D01*
X-85702000Y206414000D02*
X-82802000Y206414000D01*
X-82802000Y206414000D02*
X-82802000Y204114000D01*
%TO.C,D121*%
X-55702000Y204114000D02*
X-55702000Y206114000D01*
X-55702000Y204114000D02*
X-52502000Y204114000D01*
X-55402000Y206414000D02*
X-55702000Y206114000D01*
X-55402000Y206414000D02*
X-52502000Y206414000D01*
X-52502000Y206414000D02*
X-52502000Y204114000D01*
%TO.C,D120*%
X-66716000Y222924000D02*
X-66716000Y220924000D01*
X-66716000Y222924000D02*
X-69916000Y222924000D01*
X-67016000Y220624000D02*
X-66716000Y220924000D01*
X-67016000Y220624000D02*
X-69916000Y220624000D01*
X-69916000Y220624000D02*
X-69916000Y222924000D01*
%TO.C,D119*%
X-97016000Y222924000D02*
X-97016000Y220924000D01*
X-97016000Y222924000D02*
X-100216000Y222924000D01*
X-97316000Y220624000D02*
X-97016000Y220924000D01*
X-97316000Y220624000D02*
X-100216000Y220624000D01*
X-100216000Y220624000D02*
X-100216000Y222924000D01*
%TO.C,D118*%
X-127316000Y222924000D02*
X-127316000Y220924000D01*
X-127316000Y222924000D02*
X-130516000Y222924000D01*
X-127616000Y220624000D02*
X-127316000Y220924000D01*
X-127616000Y220624000D02*
X-130516000Y220624000D01*
X-130516000Y220624000D02*
X-130516000Y222924000D01*
%TO.C,D117*%
X-157616000Y222924000D02*
X-157616000Y220924000D01*
X-157616000Y222924000D02*
X-160816000Y222924000D01*
X-157916000Y220624000D02*
X-157616000Y220924000D01*
X-157916000Y220624000D02*
X-160816000Y220624000D01*
X-160816000Y220624000D02*
X-160816000Y222924000D01*
%TO.C,D116*%
X-187916000Y222924000D02*
X-187916000Y220924000D01*
X-187916000Y222924000D02*
X-191116000Y222924000D01*
X-188216000Y220624000D02*
X-187916000Y220924000D01*
X-188216000Y220624000D02*
X-191116000Y220624000D01*
X-191116000Y220624000D02*
X-191116000Y222924000D01*
%TO.C,D115*%
X-218216000Y222924000D02*
X-218216000Y220924000D01*
X-218216000Y222924000D02*
X-221416000Y222924000D01*
X-218516000Y220624000D02*
X-218216000Y220924000D01*
X-218516000Y220624000D02*
X-221416000Y220624000D01*
X-221416000Y220624000D02*
X-221416000Y222924000D01*
%TO.C,D114*%
X-248516000Y222924000D02*
X-248516000Y220924000D01*
X-248516000Y222924000D02*
X-251716000Y222924000D01*
X-248816000Y220624000D02*
X-248516000Y220924000D01*
X-248816000Y220624000D02*
X-251716000Y220624000D01*
X-251716000Y220624000D02*
X-251716000Y222924000D01*
%TO.C,D113*%
X-278816000Y222924000D02*
X-278816000Y220924000D01*
X-278816000Y222924000D02*
X-282016000Y222924000D01*
X-279116000Y220624000D02*
X-278816000Y220924000D01*
X-279116000Y220624000D02*
X-282016000Y220624000D01*
X-282016000Y220624000D02*
X-282016000Y222924000D01*
%TO.C,D112*%
X-267802000Y234414000D02*
X-267802000Y236414000D01*
X-267802000Y234414000D02*
X-264602000Y234414000D01*
X-267502000Y236714000D02*
X-267802000Y236414000D01*
X-267502000Y236714000D02*
X-264602000Y236714000D01*
X-264602000Y236714000D02*
X-264602000Y234414000D01*
%TO.C,D111*%
X-237502000Y234414000D02*
X-237502000Y236414000D01*
X-237502000Y234414000D02*
X-234302000Y234414000D01*
X-237202000Y236714000D02*
X-237502000Y236414000D01*
X-237202000Y236714000D02*
X-234302000Y236714000D01*
X-234302000Y236714000D02*
X-234302000Y234414000D01*
%TO.C,D110*%
X-207202000Y234414000D02*
X-207202000Y236414000D01*
X-207202000Y234414000D02*
X-204002000Y234414000D01*
X-206902000Y236714000D02*
X-207202000Y236414000D01*
X-206902000Y236714000D02*
X-204002000Y236714000D01*
X-204002000Y236714000D02*
X-204002000Y234414000D01*
%TO.C,D109*%
X-176902000Y234414000D02*
X-176902000Y236414000D01*
X-176902000Y234414000D02*
X-173702000Y234414000D01*
X-176602000Y236714000D02*
X-176902000Y236414000D01*
X-176602000Y236714000D02*
X-173702000Y236714000D01*
X-173702000Y236714000D02*
X-173702000Y234414000D01*
%TO.C,D108*%
X-146602000Y234414000D02*
X-146602000Y236414000D01*
X-146602000Y234414000D02*
X-143402000Y234414000D01*
X-146302000Y236714000D02*
X-146602000Y236414000D01*
X-146302000Y236714000D02*
X-143402000Y236714000D01*
X-143402000Y236714000D02*
X-143402000Y234414000D01*
%TO.C,D107*%
X-116302000Y234414000D02*
X-116302000Y236414000D01*
X-116302000Y234414000D02*
X-113102000Y234414000D01*
X-116002000Y236714000D02*
X-116302000Y236414000D01*
X-116002000Y236714000D02*
X-113102000Y236714000D01*
X-113102000Y236714000D02*
X-113102000Y234414000D01*
%TO.C,D106*%
X-86002000Y234414000D02*
X-86002000Y236414000D01*
X-86002000Y234414000D02*
X-82802000Y234414000D01*
X-85702000Y236714000D02*
X-86002000Y236414000D01*
X-85702000Y236714000D02*
X-82802000Y236714000D01*
X-82802000Y236714000D02*
X-82802000Y234414000D01*
%TO.C,D105*%
X-55702000Y234414000D02*
X-55702000Y236414000D01*
X-55702000Y234414000D02*
X-52502000Y234414000D01*
X-55402000Y236714000D02*
X-55702000Y236414000D01*
X-55402000Y236714000D02*
X-52502000Y236714000D01*
X-52502000Y236714000D02*
X-52502000Y234414000D01*
%TO.C,D104*%
X-66716000Y253224000D02*
X-66716000Y251224000D01*
X-66716000Y253224000D02*
X-69916000Y253224000D01*
X-67016000Y250924000D02*
X-66716000Y251224000D01*
X-67016000Y250924000D02*
X-69916000Y250924000D01*
X-69916000Y250924000D02*
X-69916000Y253224000D01*
%TO.C,D103*%
X-97016000Y253224000D02*
X-97016000Y251224000D01*
X-97016000Y253224000D02*
X-100216000Y253224000D01*
X-97316000Y250924000D02*
X-97016000Y251224000D01*
X-97316000Y250924000D02*
X-100216000Y250924000D01*
X-100216000Y250924000D02*
X-100216000Y253224000D01*
%TO.C,D102*%
X-127316000Y253224000D02*
X-127316000Y251224000D01*
X-127316000Y253224000D02*
X-130516000Y253224000D01*
X-127616000Y250924000D02*
X-127316000Y251224000D01*
X-127616000Y250924000D02*
X-130516000Y250924000D01*
X-130516000Y250924000D02*
X-130516000Y253224000D01*
%TO.C,D101*%
X-157616000Y253224000D02*
X-157616000Y251224000D01*
X-157616000Y253224000D02*
X-160816000Y253224000D01*
X-157916000Y250924000D02*
X-157616000Y251224000D01*
X-157916000Y250924000D02*
X-160816000Y250924000D01*
X-160816000Y250924000D02*
X-160816000Y253224000D01*
%TO.C,D100*%
X-187916000Y253224000D02*
X-187916000Y251224000D01*
X-187916000Y253224000D02*
X-191116000Y253224000D01*
X-188216000Y250924000D02*
X-187916000Y251224000D01*
X-188216000Y250924000D02*
X-191116000Y250924000D01*
X-191116000Y250924000D02*
X-191116000Y253224000D01*
%TO.C,D99*%
X-218216000Y253224000D02*
X-218216000Y251224000D01*
X-218216000Y253224000D02*
X-221416000Y253224000D01*
X-218516000Y250924000D02*
X-218216000Y251224000D01*
X-218516000Y250924000D02*
X-221416000Y250924000D01*
X-221416000Y250924000D02*
X-221416000Y253224000D01*
%TO.C,D98*%
X-248516000Y253224000D02*
X-248516000Y251224000D01*
X-248516000Y253224000D02*
X-251716000Y253224000D01*
X-248816000Y250924000D02*
X-248516000Y251224000D01*
X-248816000Y250924000D02*
X-251716000Y250924000D01*
X-251716000Y250924000D02*
X-251716000Y253224000D01*
%TO.C,D97*%
X-278816000Y253224000D02*
X-278816000Y251224000D01*
X-278816000Y253224000D02*
X-282016000Y253224000D01*
X-279116000Y250924000D02*
X-278816000Y251224000D01*
X-279116000Y250924000D02*
X-282016000Y250924000D01*
X-282016000Y250924000D02*
X-282016000Y253224000D01*
%TO.C,D96*%
X-267802000Y264714000D02*
X-267802000Y266714000D01*
X-267802000Y264714000D02*
X-264602000Y264714000D01*
X-267502000Y267014000D02*
X-267802000Y266714000D01*
X-267502000Y267014000D02*
X-264602000Y267014000D01*
X-264602000Y267014000D02*
X-264602000Y264714000D01*
%TO.C,D95*%
X-237502000Y264714000D02*
X-237502000Y266714000D01*
X-237502000Y264714000D02*
X-234302000Y264714000D01*
X-237202000Y267014000D02*
X-237502000Y266714000D01*
X-237202000Y267014000D02*
X-234302000Y267014000D01*
X-234302000Y267014000D02*
X-234302000Y264714000D01*
%TO.C,D94*%
X-207202000Y264714000D02*
X-207202000Y266714000D01*
X-207202000Y264714000D02*
X-204002000Y264714000D01*
X-206902000Y267014000D02*
X-207202000Y266714000D01*
X-206902000Y267014000D02*
X-204002000Y267014000D01*
X-204002000Y267014000D02*
X-204002000Y264714000D01*
%TO.C,D93*%
X-176902000Y264714000D02*
X-176902000Y266714000D01*
X-176902000Y264714000D02*
X-173702000Y264714000D01*
X-176602000Y267014000D02*
X-176902000Y266714000D01*
X-176602000Y267014000D02*
X-173702000Y267014000D01*
X-173702000Y267014000D02*
X-173702000Y264714000D01*
%TO.C,D92*%
X-146602000Y264714000D02*
X-146602000Y266714000D01*
X-146602000Y264714000D02*
X-143402000Y264714000D01*
X-146302000Y267014000D02*
X-146602000Y266714000D01*
X-146302000Y267014000D02*
X-143402000Y267014000D01*
X-143402000Y267014000D02*
X-143402000Y264714000D01*
%TO.C,D91*%
X-116302000Y264714000D02*
X-116302000Y266714000D01*
X-116302000Y264714000D02*
X-113102000Y264714000D01*
X-116002000Y267014000D02*
X-116302000Y266714000D01*
X-116002000Y267014000D02*
X-113102000Y267014000D01*
X-113102000Y267014000D02*
X-113102000Y264714000D01*
%TO.C,D90*%
X-86002000Y264714000D02*
X-86002000Y266714000D01*
X-86002000Y264714000D02*
X-82802000Y264714000D01*
X-85702000Y267014000D02*
X-86002000Y266714000D01*
X-85702000Y267014000D02*
X-82802000Y267014000D01*
X-82802000Y267014000D02*
X-82802000Y264714000D01*
%TO.C,D89*%
X-55702000Y264714000D02*
X-55702000Y266714000D01*
X-55702000Y264714000D02*
X-52502000Y264714000D01*
X-55402000Y267014000D02*
X-55702000Y266714000D01*
X-55402000Y267014000D02*
X-52502000Y267014000D01*
X-52502000Y267014000D02*
X-52502000Y264714000D01*
%TO.C,D88*%
X-66716000Y283524000D02*
X-66716000Y281524000D01*
X-66716000Y283524000D02*
X-69916000Y283524000D01*
X-67016000Y281224000D02*
X-66716000Y281524000D01*
X-67016000Y281224000D02*
X-69916000Y281224000D01*
X-69916000Y281224000D02*
X-69916000Y283524000D01*
%TO.C,D87*%
X-97016000Y283524000D02*
X-97016000Y281524000D01*
X-97016000Y283524000D02*
X-100216000Y283524000D01*
X-97316000Y281224000D02*
X-97016000Y281524000D01*
X-97316000Y281224000D02*
X-100216000Y281224000D01*
X-100216000Y281224000D02*
X-100216000Y283524000D01*
%TO.C,D86*%
X-127316000Y283524000D02*
X-127316000Y281524000D01*
X-127316000Y283524000D02*
X-130516000Y283524000D01*
X-127616000Y281224000D02*
X-127316000Y281524000D01*
X-127616000Y281224000D02*
X-130516000Y281224000D01*
X-130516000Y281224000D02*
X-130516000Y283524000D01*
%TO.C,D85*%
X-157616000Y283524000D02*
X-157616000Y281524000D01*
X-157616000Y283524000D02*
X-160816000Y283524000D01*
X-157916000Y281224000D02*
X-157616000Y281524000D01*
X-157916000Y281224000D02*
X-160816000Y281224000D01*
X-160816000Y281224000D02*
X-160816000Y283524000D01*
%TO.C,D84*%
X-187916000Y283524000D02*
X-187916000Y281524000D01*
X-187916000Y283524000D02*
X-191116000Y283524000D01*
X-188216000Y281224000D02*
X-187916000Y281524000D01*
X-188216000Y281224000D02*
X-191116000Y281224000D01*
X-191116000Y281224000D02*
X-191116000Y283524000D01*
%TO.C,D83*%
X-218216000Y283524000D02*
X-218216000Y281524000D01*
X-218216000Y283524000D02*
X-221416000Y283524000D01*
X-218516000Y281224000D02*
X-218216000Y281524000D01*
X-218516000Y281224000D02*
X-221416000Y281224000D01*
X-221416000Y281224000D02*
X-221416000Y283524000D01*
%TO.C,D82*%
X-248516000Y283524000D02*
X-248516000Y281524000D01*
X-248516000Y283524000D02*
X-251716000Y283524000D01*
X-248816000Y281224000D02*
X-248516000Y281524000D01*
X-248816000Y281224000D02*
X-251716000Y281224000D01*
X-251716000Y281224000D02*
X-251716000Y283524000D01*
%TO.C,D81*%
X-278816000Y283524000D02*
X-278816000Y281524000D01*
X-278816000Y283524000D02*
X-282016000Y283524000D01*
X-279116000Y281224000D02*
X-278816000Y281524000D01*
X-279116000Y281224000D02*
X-282016000Y281224000D01*
X-282016000Y281224000D02*
X-282016000Y283524000D01*
%TO.C,D80*%
X-267802000Y295014000D02*
X-267802000Y297014000D01*
X-267802000Y295014000D02*
X-264602000Y295014000D01*
X-267502000Y297314000D02*
X-267802000Y297014000D01*
X-267502000Y297314000D02*
X-264602000Y297314000D01*
X-264602000Y297314000D02*
X-264602000Y295014000D01*
%TO.C,D79*%
X-237502000Y295014000D02*
X-237502000Y297014000D01*
X-237502000Y295014000D02*
X-234302000Y295014000D01*
X-237202000Y297314000D02*
X-237502000Y297014000D01*
X-237202000Y297314000D02*
X-234302000Y297314000D01*
X-234302000Y297314000D02*
X-234302000Y295014000D01*
%TO.C,D78*%
X-207202000Y295014000D02*
X-207202000Y297014000D01*
X-207202000Y295014000D02*
X-204002000Y295014000D01*
X-206902000Y297314000D02*
X-207202000Y297014000D01*
X-206902000Y297314000D02*
X-204002000Y297314000D01*
X-204002000Y297314000D02*
X-204002000Y295014000D01*
%TO.C,D77*%
X-176902000Y295014000D02*
X-176902000Y297014000D01*
X-176902000Y295014000D02*
X-173702000Y295014000D01*
X-176602000Y297314000D02*
X-176902000Y297014000D01*
X-176602000Y297314000D02*
X-173702000Y297314000D01*
X-173702000Y297314000D02*
X-173702000Y295014000D01*
%TO.C,D76*%
X-146602000Y295014000D02*
X-146602000Y297014000D01*
X-146602000Y295014000D02*
X-143402000Y295014000D01*
X-146302000Y297314000D02*
X-146602000Y297014000D01*
X-146302000Y297314000D02*
X-143402000Y297314000D01*
X-143402000Y297314000D02*
X-143402000Y295014000D01*
%TO.C,D75*%
X-116302000Y295014000D02*
X-116302000Y297014000D01*
X-116302000Y295014000D02*
X-113102000Y295014000D01*
X-116002000Y297314000D02*
X-116302000Y297014000D01*
X-116002000Y297314000D02*
X-113102000Y297314000D01*
X-113102000Y297314000D02*
X-113102000Y295014000D01*
%TO.C,D74*%
X-86002000Y295014000D02*
X-86002000Y297014000D01*
X-86002000Y295014000D02*
X-82802000Y295014000D01*
X-85702000Y297314000D02*
X-86002000Y297014000D01*
X-85702000Y297314000D02*
X-82802000Y297314000D01*
X-82802000Y297314000D02*
X-82802000Y295014000D01*
%TO.C,D73*%
X-55702000Y295014000D02*
X-55702000Y297014000D01*
X-55702000Y295014000D02*
X-52502000Y295014000D01*
X-55402000Y297314000D02*
X-55702000Y297014000D01*
X-55402000Y297314000D02*
X-52502000Y297314000D01*
X-52502000Y297314000D02*
X-52502000Y295014000D01*
%TO.C,D72*%
X-66716000Y313824000D02*
X-66716000Y311824000D01*
X-66716000Y313824000D02*
X-69916000Y313824000D01*
X-67016000Y311524000D02*
X-66716000Y311824000D01*
X-67016000Y311524000D02*
X-69916000Y311524000D01*
X-69916000Y311524000D02*
X-69916000Y313824000D01*
%TO.C,D71*%
X-97016000Y313824000D02*
X-97016000Y311824000D01*
X-97016000Y313824000D02*
X-100216000Y313824000D01*
X-97316000Y311524000D02*
X-97016000Y311824000D01*
X-97316000Y311524000D02*
X-100216000Y311524000D01*
X-100216000Y311524000D02*
X-100216000Y313824000D01*
%TO.C,D70*%
X-127316000Y313824000D02*
X-127316000Y311824000D01*
X-127316000Y313824000D02*
X-130516000Y313824000D01*
X-127616000Y311524000D02*
X-127316000Y311824000D01*
X-127616000Y311524000D02*
X-130516000Y311524000D01*
X-130516000Y311524000D02*
X-130516000Y313824000D01*
%TO.C,D69*%
X-157616000Y313824000D02*
X-157616000Y311824000D01*
X-157616000Y313824000D02*
X-160816000Y313824000D01*
X-157916000Y311524000D02*
X-157616000Y311824000D01*
X-157916000Y311524000D02*
X-160816000Y311524000D01*
X-160816000Y311524000D02*
X-160816000Y313824000D01*
%TO.C,D68*%
X-187916000Y313824000D02*
X-187916000Y311824000D01*
X-187916000Y313824000D02*
X-191116000Y313824000D01*
X-188216000Y311524000D02*
X-187916000Y311824000D01*
X-188216000Y311524000D02*
X-191116000Y311524000D01*
X-191116000Y311524000D02*
X-191116000Y313824000D01*
%TO.C,D67*%
X-218216000Y313824000D02*
X-218216000Y311824000D01*
X-218216000Y313824000D02*
X-221416000Y313824000D01*
X-218516000Y311524000D02*
X-218216000Y311824000D01*
X-218516000Y311524000D02*
X-221416000Y311524000D01*
X-221416000Y311524000D02*
X-221416000Y313824000D01*
%TO.C,D66*%
X-248516000Y313824000D02*
X-248516000Y311824000D01*
X-248516000Y313824000D02*
X-251716000Y313824000D01*
X-248816000Y311524000D02*
X-248516000Y311824000D01*
X-248816000Y311524000D02*
X-251716000Y311524000D01*
X-251716000Y311524000D02*
X-251716000Y313824000D01*
%TO.C,D65*%
X-278816000Y313824000D02*
X-278816000Y311824000D01*
X-278816000Y313824000D02*
X-282016000Y313824000D01*
X-279116000Y311524000D02*
X-278816000Y311824000D01*
X-279116000Y311524000D02*
X-282016000Y311524000D01*
X-282016000Y311524000D02*
X-282016000Y313824000D01*
D12*
%TO.C,S2*%
X-275464000Y255150000D02*
X-275669000Y255150000D01*
X-281914000Y255150000D02*
X-278259000Y255150000D01*
X-275669000Y262550000D02*
X-275464000Y262550000D01*
X-281914000Y262550000D02*
X-278259000Y262550000D01*
X-275464000Y262550000D02*
X-275464000Y255150000D01*
X-281914000Y255150000D02*
X-281914000Y257100000D01*
X-281914000Y257100000D02*
X-281914000Y260600000D01*
X-281914000Y260600000D02*
X-281914000Y262550000D01*
X-291464000Y257100000D02*
X-291464000Y260600000D01*
X-281914000Y260600000D02*
X-291464000Y260600000D01*
X-281914000Y257100000D02*
X-291464000Y257100000D01*
D13*
X-279364000Y253850000D02*
G75*
G02*
X-279564000Y253850000I-100000J0D01*
G01*
X-279564000Y253850000D02*
G75*
G02*
X-279364000Y253850000I100000J0D01*
G01*
%TO.C,S1*%
X-279364000Y284150000D02*
G75*
G02*
X-279564000Y284150000I-100000J0D01*
G01*
X-279564000Y284150000D02*
G75*
G02*
X-279364000Y284150000I100000J0D01*
G01*
D12*
X-281914000Y287400000D02*
X-291464000Y287400000D01*
X-281914000Y290900000D02*
X-291464000Y290900000D01*
X-291464000Y287400000D02*
X-291464000Y290900000D01*
X-281914000Y290900000D02*
X-281914000Y292850000D01*
X-281914000Y287400000D02*
X-281914000Y290900000D01*
X-281914000Y285450000D02*
X-281914000Y287400000D01*
X-275464000Y292850000D02*
X-275464000Y285450000D01*
X-281914000Y292850000D02*
X-278259000Y292850000D01*
X-275669000Y292850000D02*
X-275464000Y292850000D01*
X-281914000Y285450000D02*
X-278259000Y285450000D01*
X-275464000Y285450000D02*
X-275669000Y285450000D01*
D13*
%TO.C,S3*%
X-279364000Y223550000D02*
G75*
G02*
X-279564000Y223550000I-100000J0D01*
G01*
X-279564000Y223550000D02*
G75*
G02*
X-279364000Y223550000I100000J0D01*
G01*
D12*
X-281914000Y226800000D02*
X-291464000Y226800000D01*
X-281914000Y230300000D02*
X-291464000Y230300000D01*
X-291464000Y226800000D02*
X-291464000Y230300000D01*
X-281914000Y230300000D02*
X-281914000Y232250000D01*
X-281914000Y226800000D02*
X-281914000Y230300000D01*
X-281914000Y224850000D02*
X-281914000Y226800000D01*
X-275464000Y232250000D02*
X-275464000Y224850000D01*
X-281914000Y232250000D02*
X-278259000Y232250000D01*
X-275669000Y232250000D02*
X-275464000Y232250000D01*
X-281914000Y224850000D02*
X-278259000Y224850000D01*
X-275464000Y224850000D02*
X-275669000Y224850000D01*
D13*
%TO.C,S4*%
X-279364000Y193250000D02*
G75*
G02*
X-279564000Y193250000I-100000J0D01*
G01*
X-279564000Y193250000D02*
G75*
G02*
X-279364000Y193250000I100000J0D01*
G01*
D12*
X-281914000Y196500000D02*
X-291464000Y196500000D01*
X-281914000Y200000000D02*
X-291464000Y200000000D01*
X-291464000Y196500000D02*
X-291464000Y200000000D01*
X-281914000Y200000000D02*
X-281914000Y201950000D01*
X-281914000Y196500000D02*
X-281914000Y200000000D01*
X-281914000Y194550000D02*
X-281914000Y196500000D01*
X-275464000Y201950000D02*
X-275464000Y194550000D01*
X-281914000Y201950000D02*
X-278259000Y201950000D01*
X-275669000Y201950000D02*
X-275464000Y201950000D01*
X-281914000Y194550000D02*
X-278259000Y194550000D01*
X-275464000Y194550000D02*
X-275669000Y194550000D01*
D13*
%TO.C,S5*%
X-279364000Y162950000D02*
G75*
G02*
X-279564000Y162950000I-100000J0D01*
G01*
X-279564000Y162950000D02*
G75*
G02*
X-279364000Y162950000I100000J0D01*
G01*
D12*
X-281914000Y166200000D02*
X-291464000Y166200000D01*
X-281914000Y169700000D02*
X-291464000Y169700000D01*
X-291464000Y166200000D02*
X-291464000Y169700000D01*
X-281914000Y169700000D02*
X-281914000Y171650000D01*
X-281914000Y166200000D02*
X-281914000Y169700000D01*
X-281914000Y164250000D02*
X-281914000Y166200000D01*
X-275464000Y171650000D02*
X-275464000Y164250000D01*
X-281914000Y171650000D02*
X-278259000Y171650000D01*
X-275669000Y171650000D02*
X-275464000Y171650000D01*
X-281914000Y164250000D02*
X-278259000Y164250000D01*
X-275464000Y164250000D02*
X-275669000Y164250000D01*
D13*
%TO.C,S6*%
X-279364000Y132650000D02*
G75*
G02*
X-279564000Y132650000I-100000J0D01*
G01*
X-279564000Y132650000D02*
G75*
G02*
X-279364000Y132650000I100000J0D01*
G01*
D12*
X-281914000Y135900000D02*
X-291464000Y135900000D01*
X-281914000Y139400000D02*
X-291464000Y139400000D01*
X-291464000Y135900000D02*
X-291464000Y139400000D01*
X-281914000Y139400000D02*
X-281914000Y141350000D01*
X-281914000Y135900000D02*
X-281914000Y139400000D01*
X-281914000Y133950000D02*
X-281914000Y135900000D01*
X-275464000Y141350000D02*
X-275464000Y133950000D01*
X-281914000Y141350000D02*
X-278259000Y141350000D01*
X-275669000Y141350000D02*
X-275464000Y141350000D01*
X-281914000Y133950000D02*
X-278259000Y133950000D01*
X-275464000Y133950000D02*
X-275669000Y133950000D01*
D13*
%TO.C,S7*%
X-279364000Y102350000D02*
G75*
G02*
X-279564000Y102350000I-100000J0D01*
G01*
X-279564000Y102350000D02*
G75*
G02*
X-279364000Y102350000I100000J0D01*
G01*
D12*
X-281914000Y105600000D02*
X-291464000Y105600000D01*
X-281914000Y109100000D02*
X-291464000Y109100000D01*
X-291464000Y105600000D02*
X-291464000Y109100000D01*
X-281914000Y109100000D02*
X-281914000Y111050000D01*
X-281914000Y105600000D02*
X-281914000Y109100000D01*
X-281914000Y103650000D02*
X-281914000Y105600000D01*
X-275464000Y111050000D02*
X-275464000Y103650000D01*
X-281914000Y111050000D02*
X-278259000Y111050000D01*
X-275669000Y111050000D02*
X-275464000Y111050000D01*
X-281914000Y103650000D02*
X-278259000Y103650000D01*
X-275464000Y103650000D02*
X-275669000Y103650000D01*
%TD*%
M02*
