%TF.GenerationSoftware,KiCad,Pcbnew,9.0.1*%
%TF.CreationDate,2025-05-31T00:25:17+01:00*%
%TF.ProjectId,Button MIDI Controller,42757474-6f6e-4204-9d49-444920436f6e,rev?*%
%TF.SameCoordinates,Original*%
%TF.FileFunction,Legend,Bot*%
%TF.FilePolarity,Positive*%
%FSLAX46Y46*%
G04 Gerber Fmt 4.6, Leading zero omitted, Abs format (unit mm)*
G04 Created by KiCad (PCBNEW 9.0.1) date 2025-05-31 00:25:17*
%MOMM*%
%LPD*%
G01*
G04 APERTURE LIST*
%ADD10C,0.120000*%
%ADD11C,0.127000*%
%ADD12C,0.200000*%
G04 APERTURE END LIST*
D10*
%TO.C,Y1*%
X-127374000Y307260000D02*
X-129674000Y307260000D01*
X-129674000Y307260000D02*
X-129674000Y309960000D01*
%TO.C,U4*%
X-146304000Y321092000D02*
X-145504000Y321092000D01*
X-146304000Y321092000D02*
X-147104000Y321092000D01*
X-146304000Y317972000D02*
X-145504000Y317972000D01*
X-146304000Y317972000D02*
X-147104000Y317972000D01*
X-145004000Y321042000D02*
X-145244000Y321372000D01*
X-144764000Y321372000D01*
X-145004000Y321042000D01*
G36*
X-145004000Y321042000D02*
G01*
X-145244000Y321372000D01*
X-144764000Y321372000D01*
X-145004000Y321042000D01*
G37*
%TO.C,U3*%
X-168148000Y308900000D02*
X-167348000Y308900000D01*
X-168148000Y308900000D02*
X-168948000Y308900000D01*
X-168148000Y305780000D02*
X-167348000Y305780000D01*
X-168148000Y305780000D02*
X-168948000Y305780000D01*
X-166848000Y308850000D02*
X-167088000Y309180000D01*
X-166608000Y309180000D01*
X-166848000Y308850000D01*
G36*
X-166848000Y308850000D02*
G01*
X-167088000Y309180000D01*
X-166608000Y309180000D01*
X-166848000Y308850000D01*
G37*
D11*
%TO.C,U2*%
X-132805800Y297050200D02*
X-132805800Y303050200D01*
X-137805800Y297050200D02*
X-137805800Y303050200D01*
D12*
X-133300800Y295965200D02*
G75*
G02*
X-133500800Y295965200I-100000J0D01*
G01*
X-133500800Y295965200D02*
G75*
G02*
X-133300800Y295965200I100000J0D01*
G01*
D10*
%TO.C,U1*%
X-132534000Y313236000D02*
X-133184000Y313236000D01*
X-139754000Y312586000D02*
X-139754000Y313236000D01*
X-132534000Y312586000D02*
X-132534000Y313236000D01*
X-139754000Y306666000D02*
X-139754000Y306016000D01*
X-132534000Y306666000D02*
X-132534000Y306016000D01*
X-139754000Y306016000D02*
X-139104000Y306016000D01*
X-132534000Y306016000D02*
X-133184000Y306016000D01*
%TO.C,TP1*%
X-147458200Y300369200D02*
X-148858200Y300369200D01*
X-147458200Y298969200D02*
X-147458200Y300369200D01*
X-148858200Y300369200D02*
X-148858200Y298969200D01*
X-148858200Y298969200D02*
X-147458200Y298969200D01*
%TO.C,R8*%
X-138050000Y317092359D02*
X-138050000Y317399641D01*
X-138810000Y317092359D02*
X-138810000Y317399641D01*
%TO.C,R7*%
X-170052000Y312319641D02*
X-170052000Y312012359D01*
X-169292000Y312319641D02*
X-169292000Y312012359D01*
%TO.C,R6*%
X-167258000Y312319641D02*
X-167258000Y312012359D01*
X-166498000Y312319641D02*
X-166498000Y312012359D01*
%TO.C,R5*%
X-131344641Y304343800D02*
X-131037359Y304343800D01*
X-131344641Y305103800D02*
X-131037359Y305103800D01*
%TO.C,R4*%
X-142901641Y307214000D02*
X-142594359Y307214000D01*
X-142901641Y307974000D02*
X-142594359Y307974000D01*
%TO.C,R3*%
X-142901641Y308992000D02*
X-142594359Y308992000D01*
X-142901641Y309752000D02*
X-142594359Y309752000D01*
%TO.C,R2*%
X-146000441Y299213000D02*
X-145693159Y299213000D01*
X-146000441Y299973000D02*
X-145693159Y299973000D01*
%TO.C,R1*%
X-128370359Y305688000D02*
X-128677641Y305688000D01*
X-128370359Y304928000D02*
X-128677641Y304928000D01*
%TO.C,J2*%
X-172870000Y317248000D02*
X-172870000Y318308000D01*
X-172100000Y315148000D02*
X-172100000Y315298000D01*
X-171300000Y315148000D02*
X-172100000Y315148000D01*
X-163310000Y318308000D02*
X-163310000Y317248000D01*
%TO.C,J1*%
X-124403000Y317610000D02*
X-123403000Y317610000D01*
X-124403000Y317610000D02*
X-124403000Y316120000D01*
X-124183000Y317610000D02*
X-123403000Y317610000D01*
X-122183000Y317610000D02*
X-121403000Y317610000D01*
X-120183000Y317610000D02*
X-119183000Y317610000D01*
X-119183000Y317610000D02*
X-119183000Y317610000D01*
X-119183000Y317610000D02*
X-119183000Y316120000D01*
X-124403000Y316120000D02*
X-124403000Y316120000D01*
X-124403000Y316120000D02*
X-124403000Y315175000D01*
X-123183000Y316120000D02*
X-122403000Y316120000D01*
X-121183000Y316120000D02*
X-120403000Y316120000D01*
%TO.C,D199*%
X-277915000Y113702000D02*
X-277915000Y112232000D01*
X-277915000Y112232000D02*
X-280200000Y112232000D01*
X-280200000Y113702000D02*
X-277915000Y113702000D01*
%TO.C,D198*%
X-277915000Y144002000D02*
X-277915000Y142532000D01*
X-277915000Y142532000D02*
X-280200000Y142532000D01*
X-280200000Y144002000D02*
X-277915000Y144002000D01*
%TO.C,D197*%
X-277915000Y174302000D02*
X-277915000Y172832000D01*
X-277915000Y172832000D02*
X-280200000Y172832000D01*
X-280200000Y174302000D02*
X-277915000Y174302000D01*
%TO.C,D196*%
X-277915000Y204602000D02*
X-277915000Y203132000D01*
X-277915000Y203132000D02*
X-280200000Y203132000D01*
X-280200000Y204602000D02*
X-277915000Y204602000D01*
%TO.C,D195*%
X-277915000Y234902000D02*
X-277915000Y233432000D01*
X-277915000Y233432000D02*
X-280200000Y233432000D01*
X-280200000Y234902000D02*
X-277915000Y234902000D01*
%TO.C,D194*%
X-277915000Y265202000D02*
X-277915000Y263732000D01*
X-277915000Y263732000D02*
X-280200000Y263732000D01*
X-280200000Y265202000D02*
X-277915000Y265202000D01*
%TO.C,D193*%
X-277915000Y295502000D02*
X-277915000Y294032000D01*
X-277915000Y294032000D02*
X-280200000Y294032000D01*
X-280200000Y295502000D02*
X-277915000Y295502000D01*
%TO.C,D64*%
X-63263000Y82579000D02*
X-64733000Y82579000D01*
X-64733000Y82579000D02*
X-64733000Y84864000D01*
X-63263000Y84864000D02*
X-63263000Y82579000D01*
%TO.C,D63*%
X-93563000Y82579000D02*
X-95033000Y82579000D01*
X-95033000Y82579000D02*
X-95033000Y84864000D01*
X-93563000Y84864000D02*
X-93563000Y82579000D01*
%TO.C,D62*%
X-123863000Y82579000D02*
X-125333000Y82579000D01*
X-125333000Y82579000D02*
X-125333000Y84864000D01*
X-123863000Y84864000D02*
X-123863000Y82579000D01*
%TO.C,D61*%
X-154163000Y82579000D02*
X-155633000Y82579000D01*
X-155633000Y82579000D02*
X-155633000Y84864000D01*
X-154163000Y84864000D02*
X-154163000Y82579000D01*
%TO.C,D60*%
X-184463000Y82579000D02*
X-185933000Y82579000D01*
X-185933000Y82579000D02*
X-185933000Y84864000D01*
X-184463000Y84864000D02*
X-184463000Y82579000D01*
%TO.C,D59*%
X-214763000Y82579000D02*
X-216233000Y82579000D01*
X-216233000Y82579000D02*
X-216233000Y84864000D01*
X-214763000Y84864000D02*
X-214763000Y82579000D01*
%TO.C,D58*%
X-245063000Y82579000D02*
X-246533000Y82579000D01*
X-246533000Y82579000D02*
X-246533000Y84864000D01*
X-245063000Y84864000D02*
X-245063000Y82579000D01*
%TO.C,D57*%
X-275363000Y82579000D02*
X-276833000Y82579000D01*
X-276833000Y82579000D02*
X-276833000Y84864000D01*
X-275363000Y84864000D02*
X-275363000Y82579000D01*
%TO.C,D56*%
X-63263000Y112879000D02*
X-64733000Y112879000D01*
X-64733000Y112879000D02*
X-64733000Y115164000D01*
X-63263000Y115164000D02*
X-63263000Y112879000D01*
%TO.C,D55*%
X-93563000Y112879000D02*
X-95033000Y112879000D01*
X-95033000Y112879000D02*
X-95033000Y115164000D01*
X-93563000Y115164000D02*
X-93563000Y112879000D01*
%TO.C,D54*%
X-123863000Y112879000D02*
X-125333000Y112879000D01*
X-125333000Y112879000D02*
X-125333000Y115164000D01*
X-123863000Y115164000D02*
X-123863000Y112879000D01*
%TO.C,D53*%
X-154163000Y112879000D02*
X-155633000Y112879000D01*
X-155633000Y112879000D02*
X-155633000Y115164000D01*
X-154163000Y115164000D02*
X-154163000Y112879000D01*
%TO.C,D52*%
X-184463000Y112879000D02*
X-185933000Y112879000D01*
X-185933000Y112879000D02*
X-185933000Y115164000D01*
X-184463000Y115164000D02*
X-184463000Y112879000D01*
%TO.C,D51*%
X-214763000Y112879000D02*
X-216233000Y112879000D01*
X-216233000Y112879000D02*
X-216233000Y115164000D01*
X-214763000Y115164000D02*
X-214763000Y112879000D01*
%TO.C,D50*%
X-245063000Y112879000D02*
X-246533000Y112879000D01*
X-246533000Y112879000D02*
X-246533000Y115164000D01*
X-245063000Y115164000D02*
X-245063000Y112879000D01*
%TO.C,D49*%
X-275363000Y112879000D02*
X-276833000Y112879000D01*
X-276833000Y112879000D02*
X-276833000Y115164000D01*
X-275363000Y115164000D02*
X-275363000Y112879000D01*
%TO.C,D48*%
X-63263000Y143179000D02*
X-64733000Y143179000D01*
X-64733000Y143179000D02*
X-64733000Y145464000D01*
X-63263000Y145464000D02*
X-63263000Y143179000D01*
%TO.C,D47*%
X-93563000Y143179000D02*
X-95033000Y143179000D01*
X-95033000Y143179000D02*
X-95033000Y145464000D01*
X-93563000Y145464000D02*
X-93563000Y143179000D01*
%TO.C,D46*%
X-123863000Y143179000D02*
X-125333000Y143179000D01*
X-125333000Y143179000D02*
X-125333000Y145464000D01*
X-123863000Y145464000D02*
X-123863000Y143179000D01*
%TO.C,D45*%
X-154163000Y143179000D02*
X-155633000Y143179000D01*
X-155633000Y143179000D02*
X-155633000Y145464000D01*
X-154163000Y145464000D02*
X-154163000Y143179000D01*
%TO.C,D44*%
X-184463000Y143179000D02*
X-185933000Y143179000D01*
X-185933000Y143179000D02*
X-185933000Y145464000D01*
X-184463000Y145464000D02*
X-184463000Y143179000D01*
%TO.C,D43*%
X-214763000Y143179000D02*
X-216233000Y143179000D01*
X-216233000Y143179000D02*
X-216233000Y145464000D01*
X-214763000Y145464000D02*
X-214763000Y143179000D01*
%TO.C,D42*%
X-245063000Y143179000D02*
X-246533000Y143179000D01*
X-246533000Y143179000D02*
X-246533000Y145464000D01*
X-245063000Y145464000D02*
X-245063000Y143179000D01*
%TO.C,D41*%
X-275363000Y143179000D02*
X-276833000Y143179000D01*
X-276833000Y143179000D02*
X-276833000Y145464000D01*
X-275363000Y145464000D02*
X-275363000Y143179000D01*
%TO.C,D40*%
X-63263000Y173479000D02*
X-64733000Y173479000D01*
X-64733000Y173479000D02*
X-64733000Y175764000D01*
X-63263000Y175764000D02*
X-63263000Y173479000D01*
%TO.C,D39*%
X-93563000Y173479000D02*
X-95033000Y173479000D01*
X-95033000Y173479000D02*
X-95033000Y175764000D01*
X-93563000Y175764000D02*
X-93563000Y173479000D01*
%TO.C,D38*%
X-123863000Y173479000D02*
X-125333000Y173479000D01*
X-125333000Y173479000D02*
X-125333000Y175764000D01*
X-123863000Y175764000D02*
X-123863000Y173479000D01*
%TO.C,D37*%
X-154163000Y173479000D02*
X-155633000Y173479000D01*
X-155633000Y173479000D02*
X-155633000Y175764000D01*
X-154163000Y175764000D02*
X-154163000Y173479000D01*
%TO.C,D36*%
X-184463000Y173479000D02*
X-185933000Y173479000D01*
X-185933000Y173479000D02*
X-185933000Y175764000D01*
X-184463000Y175764000D02*
X-184463000Y173479000D01*
%TO.C,D35*%
X-214763000Y173479000D02*
X-216233000Y173479000D01*
X-216233000Y173479000D02*
X-216233000Y175764000D01*
X-214763000Y175764000D02*
X-214763000Y173479000D01*
%TO.C,D34*%
X-245063000Y173479000D02*
X-246533000Y173479000D01*
X-246533000Y173479000D02*
X-246533000Y175764000D01*
X-245063000Y175764000D02*
X-245063000Y173479000D01*
%TO.C,D33*%
X-275363000Y173479000D02*
X-276833000Y173479000D01*
X-276833000Y173479000D02*
X-276833000Y175764000D01*
X-275363000Y175764000D02*
X-275363000Y173479000D01*
%TO.C,D32*%
X-63263000Y203779000D02*
X-64733000Y203779000D01*
X-64733000Y203779000D02*
X-64733000Y206064000D01*
X-63263000Y206064000D02*
X-63263000Y203779000D01*
%TO.C,D31*%
X-93563000Y203779000D02*
X-95033000Y203779000D01*
X-95033000Y203779000D02*
X-95033000Y206064000D01*
X-93563000Y206064000D02*
X-93563000Y203779000D01*
%TO.C,D30*%
X-123863000Y203779000D02*
X-125333000Y203779000D01*
X-125333000Y203779000D02*
X-125333000Y206064000D01*
X-123863000Y206064000D02*
X-123863000Y203779000D01*
%TO.C,D29*%
X-154163000Y203779000D02*
X-155633000Y203779000D01*
X-155633000Y203779000D02*
X-155633000Y206064000D01*
X-154163000Y206064000D02*
X-154163000Y203779000D01*
%TO.C,D28*%
X-184463000Y203779000D02*
X-185933000Y203779000D01*
X-185933000Y203779000D02*
X-185933000Y206064000D01*
X-184463000Y206064000D02*
X-184463000Y203779000D01*
%TO.C,D27*%
X-214763000Y203779000D02*
X-216233000Y203779000D01*
X-216233000Y203779000D02*
X-216233000Y206064000D01*
X-214763000Y206064000D02*
X-214763000Y203779000D01*
%TO.C,D26*%
X-245063000Y203779000D02*
X-246533000Y203779000D01*
X-246533000Y203779000D02*
X-246533000Y206064000D01*
X-245063000Y206064000D02*
X-245063000Y203779000D01*
%TO.C,D25*%
X-275363000Y203779000D02*
X-276833000Y203779000D01*
X-276833000Y203779000D02*
X-276833000Y206064000D01*
X-275363000Y206064000D02*
X-275363000Y203779000D01*
%TO.C,D24*%
X-63263000Y234079000D02*
X-64733000Y234079000D01*
X-64733000Y234079000D02*
X-64733000Y236364000D01*
X-63263000Y236364000D02*
X-63263000Y234079000D01*
%TO.C,D23*%
X-93563000Y234079000D02*
X-95033000Y234079000D01*
X-95033000Y234079000D02*
X-95033000Y236364000D01*
X-93563000Y236364000D02*
X-93563000Y234079000D01*
%TO.C,D22*%
X-123863000Y234079000D02*
X-125333000Y234079000D01*
X-125333000Y234079000D02*
X-125333000Y236364000D01*
X-123863000Y236364000D02*
X-123863000Y234079000D01*
%TO.C,D21*%
X-154163000Y234079000D02*
X-155633000Y234079000D01*
X-155633000Y234079000D02*
X-155633000Y236364000D01*
X-154163000Y236364000D02*
X-154163000Y234079000D01*
%TO.C,D20*%
X-184463000Y234079000D02*
X-185933000Y234079000D01*
X-185933000Y234079000D02*
X-185933000Y236364000D01*
X-184463000Y236364000D02*
X-184463000Y234079000D01*
%TO.C,D19*%
X-214763000Y234079000D02*
X-216233000Y234079000D01*
X-216233000Y234079000D02*
X-216233000Y236364000D01*
X-214763000Y236364000D02*
X-214763000Y234079000D01*
%TO.C,D18*%
X-245063000Y234079000D02*
X-246533000Y234079000D01*
X-246533000Y234079000D02*
X-246533000Y236364000D01*
X-245063000Y236364000D02*
X-245063000Y234079000D01*
%TO.C,D17*%
X-275363000Y234079000D02*
X-276833000Y234079000D01*
X-276833000Y234079000D02*
X-276833000Y236364000D01*
X-275363000Y236364000D02*
X-275363000Y234079000D01*
%TO.C,D16*%
X-63263000Y264379000D02*
X-64733000Y264379000D01*
X-64733000Y264379000D02*
X-64733000Y266664000D01*
X-63263000Y266664000D02*
X-63263000Y264379000D01*
%TO.C,D15*%
X-93563000Y264379000D02*
X-95033000Y264379000D01*
X-95033000Y264379000D02*
X-95033000Y266664000D01*
X-93563000Y266664000D02*
X-93563000Y264379000D01*
%TO.C,D14*%
X-123863000Y264379000D02*
X-125333000Y264379000D01*
X-125333000Y264379000D02*
X-125333000Y266664000D01*
X-123863000Y266664000D02*
X-123863000Y264379000D01*
%TO.C,D13*%
X-154163000Y264379000D02*
X-155633000Y264379000D01*
X-155633000Y264379000D02*
X-155633000Y266664000D01*
X-154163000Y266664000D02*
X-154163000Y264379000D01*
%TO.C,D12*%
X-184463000Y264379000D02*
X-185933000Y264379000D01*
X-185933000Y264379000D02*
X-185933000Y266664000D01*
X-184463000Y266664000D02*
X-184463000Y264379000D01*
%TO.C,D11*%
X-214763000Y264379000D02*
X-216233000Y264379000D01*
X-216233000Y264379000D02*
X-216233000Y266664000D01*
X-214763000Y266664000D02*
X-214763000Y264379000D01*
%TO.C,D10*%
X-245063000Y264379000D02*
X-246533000Y264379000D01*
X-246533000Y264379000D02*
X-246533000Y266664000D01*
X-245063000Y266664000D02*
X-245063000Y264379000D01*
%TO.C,D9*%
X-275363000Y264379000D02*
X-276833000Y264379000D01*
X-276833000Y264379000D02*
X-276833000Y266664000D01*
X-275363000Y266664000D02*
X-275363000Y264379000D01*
%TO.C,D8*%
X-63263000Y294679000D02*
X-64733000Y294679000D01*
X-64733000Y294679000D02*
X-64733000Y296964000D01*
X-63263000Y296964000D02*
X-63263000Y294679000D01*
%TO.C,D7*%
X-93563000Y294679000D02*
X-95033000Y294679000D01*
X-95033000Y294679000D02*
X-95033000Y296964000D01*
X-93563000Y296964000D02*
X-93563000Y294679000D01*
%TO.C,D6*%
X-123863000Y294679000D02*
X-125333000Y294679000D01*
X-125333000Y294679000D02*
X-125333000Y296964000D01*
X-123863000Y296964000D02*
X-123863000Y294679000D01*
%TO.C,D5*%
X-154163000Y294679000D02*
X-155633000Y294679000D01*
X-155633000Y294679000D02*
X-155633000Y296964000D01*
X-154163000Y296964000D02*
X-154163000Y294679000D01*
%TO.C,D4*%
X-184463000Y294679000D02*
X-185933000Y294679000D01*
X-185933000Y294679000D02*
X-185933000Y296964000D01*
X-184463000Y296964000D02*
X-184463000Y294679000D01*
%TO.C,D3*%
X-214763000Y294679000D02*
X-216233000Y294679000D01*
X-216233000Y294679000D02*
X-216233000Y296964000D01*
X-214763000Y296964000D02*
X-214763000Y294679000D01*
%TO.C,D2*%
X-245063000Y294679000D02*
X-246533000Y294679000D01*
X-246533000Y294679000D02*
X-246533000Y296964000D01*
X-245063000Y296964000D02*
X-245063000Y294679000D01*
%TO.C,D1*%
X-275363000Y294679000D02*
X-276833000Y294679000D01*
X-276833000Y294679000D02*
X-276833000Y296964000D01*
X-275363000Y296964000D02*
X-275363000Y294679000D01*
%TO.C,C17*%
X-139340000Y314852164D02*
X-139340000Y315067836D01*
X-140060000Y314852164D02*
X-140060000Y315067836D01*
%TO.C,C16*%
X-140610000Y314852164D02*
X-140610000Y315067836D01*
X-141330000Y314852164D02*
X-141330000Y315067836D01*
%TO.C,C15*%
X-141880000Y314852164D02*
X-141880000Y315067836D01*
X-142600000Y314852164D02*
X-142600000Y315067836D01*
%TO.C,C14*%
X-143150000Y314852164D02*
X-143150000Y315067836D01*
X-143870000Y314852164D02*
X-143870000Y315067836D01*
%TO.C,C13*%
X-144420000Y314852164D02*
X-144420000Y315067836D01*
X-145140000Y314852164D02*
X-145140000Y315067836D01*
%TO.C,C12*%
X-145690000Y314852164D02*
X-145690000Y315067836D01*
X-146410000Y314852164D02*
X-146410000Y315067836D01*
%TO.C,C11*%
X-146960000Y314852164D02*
X-146960000Y315067836D01*
X-147680000Y314852164D02*
X-147680000Y315067836D01*
%TO.C,C10*%
X-148230000Y314852164D02*
X-148230000Y315067836D01*
X-148950000Y314852164D02*
X-148950000Y315067836D01*
%TO.C,C9*%
X-149500000Y314852164D02*
X-149500000Y315067836D01*
X-150220000Y314852164D02*
X-150220000Y315067836D01*
%TO.C,C8*%
X-140060000Y304399836D02*
X-140060000Y304184164D01*
X-139340000Y304399836D02*
X-139340000Y304184164D01*
%TO.C,C7*%
X-141330000Y304399836D02*
X-141330000Y304184164D01*
X-140610000Y304399836D02*
X-140610000Y304184164D01*
%TO.C,C6*%
X-142600000Y304399836D02*
X-142600000Y304184164D01*
X-141880000Y304399836D02*
X-141880000Y304184164D01*
%TO.C,C5*%
X-142388000Y318916164D02*
X-142388000Y319131836D01*
X-143108000Y318916164D02*
X-143108000Y319131836D01*
%TO.C,C4*%
X-149754000Y319932164D02*
X-149754000Y320147836D01*
X-150474000Y319932164D02*
X-150474000Y320147836D01*
%TO.C,C3*%
X-131425836Y302712800D02*
X-131210164Y302712800D01*
X-131425836Y303432800D02*
X-131210164Y303432800D01*
%TO.C,C2*%
X-128631836Y310282000D02*
X-128416164Y310282000D01*
X-128631836Y311002000D02*
X-128416164Y311002000D01*
%TO.C,C1*%
X-128416164Y306938000D02*
X-128631836Y306938000D01*
X-128416164Y306218000D02*
X-128631836Y306218000D01*
%TD*%
M02*
