%TF.GenerationSoftware,KiCad,Pcbnew,9.0.1*%
%TF.CreationDate,2025-05-31T11:39:56+01:00*%
%TF.ProjectId,Button MIDI Controller,42757474-6f6e-4204-9d49-444920436f6e,rev?*%
%TF.SameCoordinates,Original*%
%TF.FileFunction,Legend,Top*%
%TF.FilePolarity,Positive*%
%FSLAX46Y46*%
G04 Gerber Fmt 4.6, Leading zero omitted, Abs format (unit mm)*
G04 Created by KiCad (PCBNEW 9.0.1) date 2025-05-31 11:39:56*
%MOMM*%
%LPD*%
G01*
G04 APERTURE LIST*
%ADD10C,0.200000*%
%ADD11C,0.120000*%
G04 APERTURE END LIST*
D10*
%TO.C,S7*%
X-55780000Y112252000D02*
G75*
G02*
X-55980000Y112252000I-100000J0D01*
G01*
X-55980000Y112252000D02*
G75*
G02*
X-55780000Y112252000I100000J0D01*
G01*
%TO.C,S6*%
X-55780000Y142552000D02*
G75*
G02*
X-55980000Y142552000I-100000J0D01*
G01*
X-55980000Y142552000D02*
G75*
G02*
X-55780000Y142552000I100000J0D01*
G01*
%TO.C,S5*%
X-55780000Y172852000D02*
G75*
G02*
X-55980000Y172852000I-100000J0D01*
G01*
X-55980000Y172852000D02*
G75*
G02*
X-55780000Y172852000I100000J0D01*
G01*
%TO.C,S4*%
X-55780000Y203152000D02*
G75*
G02*
X-55980000Y203152000I-100000J0D01*
G01*
X-55980000Y203152000D02*
G75*
G02*
X-55780000Y203152000I100000J0D01*
G01*
%TO.C,S3*%
X-55780000Y233452000D02*
G75*
G02*
X-55980000Y233452000I-100000J0D01*
G01*
X-55980000Y233452000D02*
G75*
G02*
X-55780000Y233452000I100000J0D01*
G01*
%TO.C,S2*%
X-55780000Y263752000D02*
G75*
G02*
X-55980000Y263752000I-100000J0D01*
G01*
X-55980000Y263752000D02*
G75*
G02*
X-55780000Y263752000I100000J0D01*
G01*
%TO.C,S1*%
X-55780000Y294052000D02*
G75*
G02*
X-55980000Y294052000I-100000J0D01*
G01*
X-55980000Y294052000D02*
G75*
G02*
X-55780000Y294052000I100000J0D01*
G01*
D11*
%TO.C,D90*%
X-86002000Y264714000D02*
X-86002000Y266714000D01*
X-86002000Y264714000D02*
X-82802000Y264714000D01*
X-85702000Y267014000D02*
X-86002000Y266714000D01*
X-85702000Y267014000D02*
X-82802000Y267014000D01*
X-82802000Y267014000D02*
X-82802000Y264714000D01*
%TO.C,D114*%
X-251716000Y220624000D02*
X-251716000Y222924000D01*
X-248816000Y220624000D02*
X-251716000Y220624000D01*
X-248816000Y220624000D02*
X-248516000Y220924000D01*
X-248516000Y222924000D02*
X-251716000Y222924000D01*
X-248516000Y222924000D02*
X-248516000Y220924000D01*
%TO.C,D192*%
X-267802000Y82914000D02*
X-267802000Y84914000D01*
X-267802000Y82914000D02*
X-264602000Y82914000D01*
X-267502000Y85214000D02*
X-267802000Y84914000D01*
X-267502000Y85214000D02*
X-264602000Y85214000D01*
X-264602000Y85214000D02*
X-264602000Y82914000D01*
%TO.C,D109*%
X-176902000Y234414000D02*
X-176902000Y236414000D01*
X-176902000Y234414000D02*
X-173702000Y234414000D01*
X-176602000Y236714000D02*
X-176902000Y236414000D01*
X-176602000Y236714000D02*
X-173702000Y236714000D01*
X-173702000Y236714000D02*
X-173702000Y234414000D01*
%TO.C,D88*%
X-69916000Y281224000D02*
X-69916000Y283524000D01*
X-67016000Y281224000D02*
X-69916000Y281224000D01*
X-67016000Y281224000D02*
X-66716000Y281524000D01*
X-66716000Y283524000D02*
X-69916000Y283524000D01*
X-66716000Y283524000D02*
X-66716000Y281524000D01*
%TO.C,D120*%
X-69916000Y220624000D02*
X-69916000Y222924000D01*
X-67016000Y220624000D02*
X-69916000Y220624000D01*
X-67016000Y220624000D02*
X-66716000Y220924000D01*
X-66716000Y222924000D02*
X-69916000Y222924000D01*
X-66716000Y222924000D02*
X-66716000Y220924000D01*
%TO.C,D161*%
X-282016000Y129724000D02*
X-282016000Y132024000D01*
X-279116000Y129724000D02*
X-282016000Y129724000D01*
X-279116000Y129724000D02*
X-278816000Y130024000D01*
X-278816000Y132024000D02*
X-282016000Y132024000D01*
X-278816000Y132024000D02*
X-278816000Y130024000D01*
%TO.C,D89*%
X-55702000Y264714000D02*
X-55702000Y266714000D01*
X-55702000Y264714000D02*
X-52502000Y264714000D01*
X-55402000Y267014000D02*
X-55702000Y266714000D01*
X-55402000Y267014000D02*
X-52502000Y267014000D01*
X-52502000Y267014000D02*
X-52502000Y264714000D01*
%TO.C,D152*%
X-69916000Y160024000D02*
X-69916000Y162324000D01*
X-67016000Y160024000D02*
X-69916000Y160024000D01*
X-67016000Y160024000D02*
X-66716000Y160324000D01*
X-66716000Y162324000D02*
X-69916000Y162324000D01*
X-66716000Y162324000D02*
X-66716000Y160324000D01*
%TO.C,D107*%
X-116302000Y234414000D02*
X-116302000Y236414000D01*
X-116302000Y234414000D02*
X-113102000Y234414000D01*
X-116002000Y236714000D02*
X-116302000Y236414000D01*
X-116002000Y236714000D02*
X-113102000Y236714000D01*
X-113102000Y236714000D02*
X-113102000Y234414000D01*
%TO.C,D137*%
X-55702000Y173814000D02*
X-55702000Y175814000D01*
X-55702000Y173814000D02*
X-52502000Y173814000D01*
X-55402000Y176114000D02*
X-55702000Y175814000D01*
X-55402000Y176114000D02*
X-52502000Y176114000D01*
X-52502000Y176114000D02*
X-52502000Y173814000D01*
%TO.C,D133*%
X-160816000Y190324000D02*
X-160816000Y192624000D01*
X-157916000Y190324000D02*
X-160816000Y190324000D01*
X-157916000Y190324000D02*
X-157616000Y190624000D01*
X-157616000Y192624000D02*
X-160816000Y192624000D01*
X-157616000Y192624000D02*
X-157616000Y190624000D01*
%TO.C,D113*%
X-282016000Y220624000D02*
X-282016000Y222924000D01*
X-279116000Y220624000D02*
X-282016000Y220624000D01*
X-279116000Y220624000D02*
X-278816000Y220924000D01*
X-278816000Y222924000D02*
X-282016000Y222924000D01*
X-278816000Y222924000D02*
X-278816000Y220924000D01*
%TO.C,D91*%
X-116302000Y264714000D02*
X-116302000Y266714000D01*
X-116302000Y264714000D02*
X-113102000Y264714000D01*
X-116002000Y267014000D02*
X-116302000Y266714000D01*
X-116002000Y267014000D02*
X-113102000Y267014000D01*
X-113102000Y267014000D02*
X-113102000Y264714000D01*
%TO.C,D84*%
X-191116000Y281224000D02*
X-191116000Y283524000D01*
X-188216000Y281224000D02*
X-191116000Y281224000D01*
X-188216000Y281224000D02*
X-187916000Y281524000D01*
X-187916000Y283524000D02*
X-191116000Y283524000D01*
X-187916000Y283524000D02*
X-187916000Y281524000D01*
%TO.C,D119*%
X-100216000Y220624000D02*
X-100216000Y222924000D01*
X-97316000Y220624000D02*
X-100216000Y220624000D01*
X-97316000Y220624000D02*
X-97016000Y220924000D01*
X-97016000Y222924000D02*
X-100216000Y222924000D01*
X-97016000Y222924000D02*
X-97016000Y220924000D01*
%TO.C,D174*%
X-207202000Y113214000D02*
X-207202000Y115214000D01*
X-207202000Y113214000D02*
X-204002000Y113214000D01*
X-206902000Y115514000D02*
X-207202000Y115214000D01*
X-206902000Y115514000D02*
X-204002000Y115514000D01*
X-204002000Y115514000D02*
X-204002000Y113214000D01*
%TO.C,D112*%
X-267802000Y234414000D02*
X-267802000Y236414000D01*
X-267802000Y234414000D02*
X-264602000Y234414000D01*
X-267502000Y236714000D02*
X-267802000Y236414000D01*
X-267502000Y236714000D02*
X-264602000Y236714000D01*
X-264602000Y236714000D02*
X-264602000Y234414000D01*
%TO.C,D160*%
X-267802000Y143514000D02*
X-267802000Y145514000D01*
X-267802000Y143514000D02*
X-264602000Y143514000D01*
X-267502000Y145814000D02*
X-267802000Y145514000D01*
X-267502000Y145814000D02*
X-264602000Y145814000D01*
X-264602000Y145814000D02*
X-264602000Y143514000D01*
%TO.C,D153*%
X-55702000Y143514000D02*
X-55702000Y145514000D01*
X-55702000Y143514000D02*
X-52502000Y143514000D01*
X-55402000Y145814000D02*
X-55702000Y145514000D01*
X-55402000Y145814000D02*
X-52502000Y145814000D01*
X-52502000Y145814000D02*
X-52502000Y143514000D01*
%TO.C,D92*%
X-146602000Y264714000D02*
X-146602000Y266714000D01*
X-146602000Y264714000D02*
X-143402000Y264714000D01*
X-146302000Y267014000D02*
X-146602000Y266714000D01*
X-146302000Y267014000D02*
X-143402000Y267014000D01*
X-143402000Y267014000D02*
X-143402000Y264714000D01*
%TO.C,D94*%
X-207202000Y264714000D02*
X-207202000Y266714000D01*
X-207202000Y264714000D02*
X-204002000Y264714000D01*
X-206902000Y267014000D02*
X-207202000Y266714000D01*
X-206902000Y267014000D02*
X-204002000Y267014000D01*
X-204002000Y267014000D02*
X-204002000Y264714000D01*
%TO.C,D69*%
X-160816000Y311524000D02*
X-160816000Y313824000D01*
X-157916000Y311524000D02*
X-160816000Y311524000D01*
X-157916000Y311524000D02*
X-157616000Y311824000D01*
X-157616000Y313824000D02*
X-160816000Y313824000D01*
X-157616000Y313824000D02*
X-157616000Y311824000D01*
%TO.C,D188*%
X-146602000Y82914000D02*
X-146602000Y84914000D01*
X-146602000Y82914000D02*
X-143402000Y82914000D01*
X-146302000Y85214000D02*
X-146602000Y84914000D01*
X-146302000Y85214000D02*
X-143402000Y85214000D01*
X-143402000Y85214000D02*
X-143402000Y82914000D01*
%TO.C,D72*%
X-69916000Y311524000D02*
X-69916000Y313824000D01*
X-67016000Y311524000D02*
X-69916000Y311524000D01*
X-67016000Y311524000D02*
X-66716000Y311824000D01*
X-66716000Y313824000D02*
X-69916000Y313824000D01*
X-66716000Y313824000D02*
X-66716000Y311824000D01*
%TO.C,D130*%
X-251716000Y190324000D02*
X-251716000Y192624000D01*
X-248816000Y190324000D02*
X-251716000Y190324000D01*
X-248816000Y190324000D02*
X-248516000Y190624000D01*
X-248516000Y192624000D02*
X-251716000Y192624000D01*
X-248516000Y192624000D02*
X-248516000Y190624000D01*
%TO.C,D132*%
X-191116000Y190324000D02*
X-191116000Y192624000D01*
X-188216000Y190324000D02*
X-191116000Y190324000D01*
X-188216000Y190324000D02*
X-187916000Y190624000D01*
X-187916000Y192624000D02*
X-191116000Y192624000D01*
X-187916000Y192624000D02*
X-187916000Y190624000D01*
%TO.C,D175*%
X-237502000Y113214000D02*
X-237502000Y115214000D01*
X-237502000Y113214000D02*
X-234302000Y113214000D01*
X-237202000Y115514000D02*
X-237502000Y115214000D01*
X-237202000Y115514000D02*
X-234302000Y115514000D01*
X-234302000Y115514000D02*
X-234302000Y113214000D01*
%TO.C,D66*%
X-251716000Y311524000D02*
X-251716000Y313824000D01*
X-248816000Y311524000D02*
X-251716000Y311524000D01*
X-248816000Y311524000D02*
X-248516000Y311824000D01*
X-248516000Y313824000D02*
X-251716000Y313824000D01*
X-248516000Y313824000D02*
X-248516000Y311824000D01*
%TO.C,D95*%
X-237502000Y264714000D02*
X-237502000Y266714000D01*
X-237502000Y264714000D02*
X-234302000Y264714000D01*
X-237202000Y267014000D02*
X-237502000Y266714000D01*
X-237202000Y267014000D02*
X-234302000Y267014000D01*
X-234302000Y267014000D02*
X-234302000Y264714000D01*
%TO.C,D186*%
X-86002000Y82914000D02*
X-86002000Y84914000D01*
X-86002000Y82914000D02*
X-82802000Y82914000D01*
X-85702000Y85214000D02*
X-86002000Y84914000D01*
X-85702000Y85214000D02*
X-82802000Y85214000D01*
X-82802000Y85214000D02*
X-82802000Y82914000D01*
%TO.C,D77*%
X-176902000Y295014000D02*
X-176902000Y297014000D01*
X-176902000Y295014000D02*
X-173702000Y295014000D01*
X-176602000Y297314000D02*
X-176902000Y297014000D01*
X-176602000Y297314000D02*
X-173702000Y297314000D01*
X-173702000Y297314000D02*
X-173702000Y295014000D01*
%TO.C,D80*%
X-267802000Y295014000D02*
X-267802000Y297014000D01*
X-267802000Y295014000D02*
X-264602000Y295014000D01*
X-267502000Y297314000D02*
X-267802000Y297014000D01*
X-267502000Y297314000D02*
X-264602000Y297314000D01*
X-264602000Y297314000D02*
X-264602000Y295014000D01*
%TO.C,D129*%
X-282016000Y190324000D02*
X-282016000Y192624000D01*
X-279116000Y190324000D02*
X-282016000Y190324000D01*
X-279116000Y190324000D02*
X-278816000Y190624000D01*
X-278816000Y192624000D02*
X-282016000Y192624000D01*
X-278816000Y192624000D02*
X-278816000Y190624000D01*
%TO.C,D158*%
X-207202000Y143514000D02*
X-207202000Y145514000D01*
X-207202000Y143514000D02*
X-204002000Y143514000D01*
X-206902000Y145814000D02*
X-207202000Y145514000D01*
X-206902000Y145814000D02*
X-204002000Y145814000D01*
X-204002000Y145814000D02*
X-204002000Y143514000D01*
%TO.C,D148*%
X-191116000Y160024000D02*
X-191116000Y162324000D01*
X-188216000Y160024000D02*
X-191116000Y160024000D01*
X-188216000Y160024000D02*
X-187916000Y160324000D01*
X-187916000Y162324000D02*
X-191116000Y162324000D01*
X-187916000Y162324000D02*
X-187916000Y160324000D01*
%TO.C,D187*%
X-116302000Y82914000D02*
X-116302000Y84914000D01*
X-116302000Y82914000D02*
X-113102000Y82914000D01*
X-116002000Y85214000D02*
X-116302000Y84914000D01*
X-116002000Y85214000D02*
X-113102000Y85214000D01*
X-113102000Y85214000D02*
X-113102000Y82914000D01*
%TO.C,D110*%
X-207202000Y234414000D02*
X-207202000Y236414000D01*
X-207202000Y234414000D02*
X-204002000Y234414000D01*
X-206902000Y236714000D02*
X-207202000Y236414000D01*
X-206902000Y236714000D02*
X-204002000Y236714000D01*
X-204002000Y236714000D02*
X-204002000Y234414000D01*
%TO.C,D177*%
X-282016000Y99424000D02*
X-282016000Y101724000D01*
X-279116000Y99424000D02*
X-282016000Y99424000D01*
X-279116000Y99424000D02*
X-278816000Y99724000D01*
X-278816000Y101724000D02*
X-282016000Y101724000D01*
X-278816000Y101724000D02*
X-278816000Y99724000D01*
%TO.C,D154*%
X-86002000Y143514000D02*
X-86002000Y145514000D01*
X-86002000Y143514000D02*
X-82802000Y143514000D01*
X-85702000Y145814000D02*
X-86002000Y145514000D01*
X-85702000Y145814000D02*
X-82802000Y145814000D01*
X-82802000Y145814000D02*
X-82802000Y143514000D01*
%TO.C,D100*%
X-191116000Y250924000D02*
X-191116000Y253224000D01*
X-188216000Y250924000D02*
X-191116000Y250924000D01*
X-188216000Y250924000D02*
X-187916000Y251224000D01*
X-187916000Y253224000D02*
X-191116000Y253224000D01*
X-187916000Y253224000D02*
X-187916000Y251224000D01*
%TO.C,D134*%
X-130516000Y190324000D02*
X-130516000Y192624000D01*
X-127616000Y190324000D02*
X-130516000Y190324000D01*
X-127616000Y190324000D02*
X-127316000Y190624000D01*
X-127316000Y192624000D02*
X-130516000Y192624000D01*
X-127316000Y192624000D02*
X-127316000Y190624000D01*
%TO.C,D151*%
X-100216000Y160024000D02*
X-100216000Y162324000D01*
X-97316000Y160024000D02*
X-100216000Y160024000D01*
X-97316000Y160024000D02*
X-97016000Y160324000D01*
X-97016000Y162324000D02*
X-100216000Y162324000D01*
X-97016000Y162324000D02*
X-97016000Y160324000D01*
%TO.C,D126*%
X-207202000Y204114000D02*
X-207202000Y206114000D01*
X-207202000Y204114000D02*
X-204002000Y204114000D01*
X-206902000Y206414000D02*
X-207202000Y206114000D01*
X-206902000Y206414000D02*
X-204002000Y206414000D01*
X-204002000Y206414000D02*
X-204002000Y204114000D01*
%TO.C,D139*%
X-116302000Y173814000D02*
X-116302000Y175814000D01*
X-116302000Y173814000D02*
X-113102000Y173814000D01*
X-116002000Y176114000D02*
X-116302000Y175814000D01*
X-116002000Y176114000D02*
X-113102000Y176114000D01*
X-113102000Y176114000D02*
X-113102000Y173814000D01*
%TO.C,D103*%
X-100216000Y250924000D02*
X-100216000Y253224000D01*
X-97316000Y250924000D02*
X-100216000Y250924000D01*
X-97316000Y250924000D02*
X-97016000Y251224000D01*
X-97016000Y253224000D02*
X-100216000Y253224000D01*
X-97016000Y253224000D02*
X-97016000Y251224000D01*
%TO.C,D106*%
X-86002000Y234414000D02*
X-86002000Y236414000D01*
X-86002000Y234414000D02*
X-82802000Y234414000D01*
X-85702000Y236714000D02*
X-86002000Y236414000D01*
X-85702000Y236714000D02*
X-82802000Y236714000D01*
X-82802000Y236714000D02*
X-82802000Y234414000D01*
%TO.C,D87*%
X-100216000Y281224000D02*
X-100216000Y283524000D01*
X-97316000Y281224000D02*
X-100216000Y281224000D01*
X-97316000Y281224000D02*
X-97016000Y281524000D01*
X-97016000Y283524000D02*
X-100216000Y283524000D01*
X-97016000Y283524000D02*
X-97016000Y281524000D01*
%TO.C,D184*%
X-69916000Y99424000D02*
X-69916000Y101724000D01*
X-67016000Y99424000D02*
X-69916000Y99424000D01*
X-67016000Y99424000D02*
X-66716000Y99724000D01*
X-66716000Y101724000D02*
X-69916000Y101724000D01*
X-66716000Y101724000D02*
X-66716000Y99724000D01*
%TO.C,D65*%
X-282016000Y311524000D02*
X-282016000Y313824000D01*
X-279116000Y311524000D02*
X-282016000Y311524000D01*
X-279116000Y311524000D02*
X-278816000Y311824000D01*
X-278816000Y313824000D02*
X-282016000Y313824000D01*
X-278816000Y313824000D02*
X-278816000Y311824000D01*
%TO.C,D99*%
X-221416000Y250924000D02*
X-221416000Y253224000D01*
X-218516000Y250924000D02*
X-221416000Y250924000D01*
X-218516000Y250924000D02*
X-218216000Y251224000D01*
X-218216000Y253224000D02*
X-221416000Y253224000D01*
X-218216000Y253224000D02*
X-218216000Y251224000D01*
%TO.C,D165*%
X-160816000Y129724000D02*
X-160816000Y132024000D01*
X-157916000Y129724000D02*
X-160816000Y129724000D01*
X-157916000Y129724000D02*
X-157616000Y130024000D01*
X-157616000Y132024000D02*
X-160816000Y132024000D01*
X-157616000Y132024000D02*
X-157616000Y130024000D01*
%TO.C,D156*%
X-146602000Y143514000D02*
X-146602000Y145514000D01*
X-146602000Y143514000D02*
X-143402000Y143514000D01*
X-146302000Y145814000D02*
X-146602000Y145514000D01*
X-146302000Y145814000D02*
X-143402000Y145814000D01*
X-143402000Y145814000D02*
X-143402000Y143514000D01*
%TO.C,D75*%
X-116302000Y295014000D02*
X-116302000Y297014000D01*
X-116302000Y295014000D02*
X-113102000Y295014000D01*
X-116002000Y297314000D02*
X-116302000Y297014000D01*
X-116002000Y297314000D02*
X-113102000Y297314000D01*
X-113102000Y297314000D02*
X-113102000Y295014000D01*
%TO.C,D164*%
X-191116000Y129724000D02*
X-191116000Y132024000D01*
X-188216000Y129724000D02*
X-191116000Y129724000D01*
X-188216000Y129724000D02*
X-187916000Y130024000D01*
X-187916000Y132024000D02*
X-191116000Y132024000D01*
X-187916000Y132024000D02*
X-187916000Y130024000D01*
%TO.C,D168*%
X-69916000Y129724000D02*
X-69916000Y132024000D01*
X-67016000Y129724000D02*
X-69916000Y129724000D01*
X-67016000Y129724000D02*
X-66716000Y130024000D01*
X-66716000Y132024000D02*
X-69916000Y132024000D01*
X-66716000Y132024000D02*
X-66716000Y130024000D01*
%TO.C,D190*%
X-207202000Y82914000D02*
X-207202000Y84914000D01*
X-207202000Y82914000D02*
X-204002000Y82914000D01*
X-206902000Y85214000D02*
X-207202000Y84914000D01*
X-206902000Y85214000D02*
X-204002000Y85214000D01*
X-204002000Y85214000D02*
X-204002000Y82914000D01*
%TO.C,D82*%
X-251716000Y281224000D02*
X-251716000Y283524000D01*
X-248816000Y281224000D02*
X-251716000Y281224000D01*
X-248816000Y281224000D02*
X-248516000Y281524000D01*
X-248516000Y283524000D02*
X-251716000Y283524000D01*
X-248516000Y283524000D02*
X-248516000Y281524000D01*
%TO.C,D70*%
X-130516000Y311524000D02*
X-130516000Y313824000D01*
X-127616000Y311524000D02*
X-130516000Y311524000D01*
X-127616000Y311524000D02*
X-127316000Y311824000D01*
X-127316000Y313824000D02*
X-130516000Y313824000D01*
X-127316000Y313824000D02*
X-127316000Y311824000D01*
%TO.C,D122*%
X-86002000Y204114000D02*
X-86002000Y206114000D01*
X-86002000Y204114000D02*
X-82802000Y204114000D01*
X-85702000Y206414000D02*
X-86002000Y206114000D01*
X-85702000Y206414000D02*
X-82802000Y206414000D01*
X-82802000Y206414000D02*
X-82802000Y204114000D01*
%TO.C,D101*%
X-160816000Y250924000D02*
X-160816000Y253224000D01*
X-157916000Y250924000D02*
X-160816000Y250924000D01*
X-157916000Y250924000D02*
X-157616000Y251224000D01*
X-157616000Y253224000D02*
X-160816000Y253224000D01*
X-157616000Y253224000D02*
X-157616000Y251224000D01*
%TO.C,D185*%
X-55702000Y82914000D02*
X-55702000Y84914000D01*
X-55702000Y82914000D02*
X-52502000Y82914000D01*
X-55402000Y85214000D02*
X-55702000Y84914000D01*
X-55402000Y85214000D02*
X-52502000Y85214000D01*
X-52502000Y85214000D02*
X-52502000Y82914000D01*
%TO.C,D163*%
X-221416000Y129724000D02*
X-221416000Y132024000D01*
X-218516000Y129724000D02*
X-221416000Y129724000D01*
X-218516000Y129724000D02*
X-218216000Y130024000D01*
X-218216000Y132024000D02*
X-221416000Y132024000D01*
X-218216000Y132024000D02*
X-218216000Y130024000D01*
%TO.C,D83*%
X-221416000Y281224000D02*
X-221416000Y283524000D01*
X-218516000Y281224000D02*
X-221416000Y281224000D01*
X-218516000Y281224000D02*
X-218216000Y281524000D01*
X-218216000Y283524000D02*
X-221416000Y283524000D01*
X-218216000Y283524000D02*
X-218216000Y281524000D01*
%TO.C,D150*%
X-130516000Y160024000D02*
X-130516000Y162324000D01*
X-127616000Y160024000D02*
X-130516000Y160024000D01*
X-127616000Y160024000D02*
X-127316000Y160324000D01*
X-127316000Y162324000D02*
X-130516000Y162324000D01*
X-127316000Y162324000D02*
X-127316000Y160324000D01*
%TO.C,D71*%
X-100216000Y311524000D02*
X-100216000Y313824000D01*
X-97316000Y311524000D02*
X-100216000Y311524000D01*
X-97316000Y311524000D02*
X-97016000Y311824000D01*
X-97016000Y313824000D02*
X-100216000Y313824000D01*
X-97016000Y313824000D02*
X-97016000Y311824000D01*
%TO.C,D182*%
X-130516000Y99424000D02*
X-130516000Y101724000D01*
X-127616000Y99424000D02*
X-130516000Y99424000D01*
X-127616000Y99424000D02*
X-127316000Y99724000D01*
X-127316000Y101724000D02*
X-130516000Y101724000D01*
X-127316000Y101724000D02*
X-127316000Y99724000D01*
%TO.C,D115*%
X-221416000Y220624000D02*
X-221416000Y222924000D01*
X-218516000Y220624000D02*
X-221416000Y220624000D01*
X-218516000Y220624000D02*
X-218216000Y220924000D01*
X-218216000Y222924000D02*
X-221416000Y222924000D01*
X-218216000Y222924000D02*
X-218216000Y220924000D01*
%TO.C,D81*%
X-282016000Y281224000D02*
X-282016000Y283524000D01*
X-279116000Y281224000D02*
X-282016000Y281224000D01*
X-279116000Y281224000D02*
X-278816000Y281524000D01*
X-278816000Y283524000D02*
X-282016000Y283524000D01*
X-278816000Y283524000D02*
X-278816000Y281524000D01*
%TO.C,D191*%
X-237502000Y82914000D02*
X-237502000Y84914000D01*
X-237502000Y82914000D02*
X-234302000Y82914000D01*
X-237202000Y85214000D02*
X-237502000Y84914000D01*
X-237202000Y85214000D02*
X-234302000Y85214000D01*
X-234302000Y85214000D02*
X-234302000Y82914000D01*
%TO.C,D135*%
X-100216000Y190324000D02*
X-100216000Y192624000D01*
X-97316000Y190324000D02*
X-100216000Y190324000D01*
X-97316000Y190324000D02*
X-97016000Y190624000D01*
X-97016000Y192624000D02*
X-100216000Y192624000D01*
X-97016000Y192624000D02*
X-97016000Y190624000D01*
%TO.C,D178*%
X-251716000Y99424000D02*
X-251716000Y101724000D01*
X-248816000Y99424000D02*
X-251716000Y99424000D01*
X-248816000Y99424000D02*
X-248516000Y99724000D01*
X-248516000Y101724000D02*
X-251716000Y101724000D01*
X-248516000Y101724000D02*
X-248516000Y99724000D01*
%TO.C,D98*%
X-251716000Y250924000D02*
X-251716000Y253224000D01*
X-248816000Y250924000D02*
X-251716000Y250924000D01*
X-248816000Y250924000D02*
X-248516000Y251224000D01*
X-248516000Y253224000D02*
X-251716000Y253224000D01*
X-248516000Y253224000D02*
X-248516000Y251224000D01*
%TO.C,D125*%
X-176902000Y204114000D02*
X-176902000Y206114000D01*
X-176902000Y204114000D02*
X-173702000Y204114000D01*
X-176602000Y206414000D02*
X-176902000Y206114000D01*
X-176602000Y206414000D02*
X-173702000Y206414000D01*
X-173702000Y206414000D02*
X-173702000Y204114000D01*
%TO.C,D170*%
X-86002000Y113214000D02*
X-86002000Y115214000D01*
X-86002000Y113214000D02*
X-82802000Y113214000D01*
X-85702000Y115514000D02*
X-86002000Y115214000D01*
X-85702000Y115514000D02*
X-82802000Y115514000D01*
X-82802000Y115514000D02*
X-82802000Y113214000D01*
%TO.C,D96*%
X-267802000Y264714000D02*
X-267802000Y266714000D01*
X-267802000Y264714000D02*
X-264602000Y264714000D01*
X-267502000Y267014000D02*
X-267802000Y266714000D01*
X-267502000Y267014000D02*
X-264602000Y267014000D01*
X-264602000Y267014000D02*
X-264602000Y264714000D01*
%TO.C,D173*%
X-176902000Y113214000D02*
X-176902000Y115214000D01*
X-176902000Y113214000D02*
X-173702000Y113214000D01*
X-176602000Y115514000D02*
X-176902000Y115214000D01*
X-176602000Y115514000D02*
X-173702000Y115514000D01*
X-173702000Y115514000D02*
X-173702000Y113214000D01*
%TO.C,D167*%
X-100216000Y129724000D02*
X-100216000Y132024000D01*
X-97316000Y129724000D02*
X-100216000Y129724000D01*
X-97316000Y129724000D02*
X-97016000Y130024000D01*
X-97016000Y132024000D02*
X-100216000Y132024000D01*
X-97016000Y132024000D02*
X-97016000Y130024000D01*
%TO.C,D169*%
X-55702000Y113214000D02*
X-55702000Y115214000D01*
X-55702000Y113214000D02*
X-52502000Y113214000D01*
X-55402000Y115514000D02*
X-55702000Y115214000D01*
X-55402000Y115514000D02*
X-52502000Y115514000D01*
X-52502000Y115514000D02*
X-52502000Y113214000D01*
%TO.C,D179*%
X-221416000Y99424000D02*
X-221416000Y101724000D01*
X-218516000Y99424000D02*
X-221416000Y99424000D01*
X-218516000Y99424000D02*
X-218216000Y99724000D01*
X-218216000Y101724000D02*
X-221416000Y101724000D01*
X-218216000Y101724000D02*
X-218216000Y99724000D01*
%TO.C,D105*%
X-55702000Y234414000D02*
X-55702000Y236414000D01*
X-55702000Y234414000D02*
X-52502000Y234414000D01*
X-55402000Y236714000D02*
X-55702000Y236414000D01*
X-55402000Y236714000D02*
X-52502000Y236714000D01*
X-52502000Y236714000D02*
X-52502000Y234414000D01*
%TO.C,D108*%
X-146602000Y234414000D02*
X-146602000Y236414000D01*
X-146602000Y234414000D02*
X-143402000Y234414000D01*
X-146302000Y236714000D02*
X-146602000Y236414000D01*
X-146302000Y236714000D02*
X-143402000Y236714000D01*
X-143402000Y236714000D02*
X-143402000Y234414000D01*
%TO.C,D176*%
X-267802000Y113214000D02*
X-267802000Y115214000D01*
X-267802000Y113214000D02*
X-264602000Y113214000D01*
X-267502000Y115514000D02*
X-267802000Y115214000D01*
X-267502000Y115514000D02*
X-264602000Y115514000D01*
X-264602000Y115514000D02*
X-264602000Y113214000D01*
%TO.C,D79*%
X-237502000Y295014000D02*
X-237502000Y297014000D01*
X-237502000Y295014000D02*
X-234302000Y295014000D01*
X-237202000Y297314000D02*
X-237502000Y297014000D01*
X-237202000Y297314000D02*
X-234302000Y297314000D01*
X-234302000Y297314000D02*
X-234302000Y295014000D01*
%TO.C,D123*%
X-116302000Y204114000D02*
X-116302000Y206114000D01*
X-116302000Y204114000D02*
X-113102000Y204114000D01*
X-116002000Y206414000D02*
X-116302000Y206114000D01*
X-116002000Y206414000D02*
X-113102000Y206414000D01*
X-113102000Y206414000D02*
X-113102000Y204114000D01*
%TO.C,D85*%
X-160816000Y281224000D02*
X-160816000Y283524000D01*
X-157916000Y281224000D02*
X-160816000Y281224000D01*
X-157916000Y281224000D02*
X-157616000Y281524000D01*
X-157616000Y283524000D02*
X-160816000Y283524000D01*
X-157616000Y283524000D02*
X-157616000Y281524000D01*
%TO.C,D143*%
X-237502000Y173814000D02*
X-237502000Y175814000D01*
X-237502000Y173814000D02*
X-234302000Y173814000D01*
X-237202000Y176114000D02*
X-237502000Y175814000D01*
X-237202000Y176114000D02*
X-234302000Y176114000D01*
X-234302000Y176114000D02*
X-234302000Y173814000D01*
%TO.C,D136*%
X-69916000Y190324000D02*
X-69916000Y192624000D01*
X-67016000Y190324000D02*
X-69916000Y190324000D01*
X-67016000Y190324000D02*
X-66716000Y190624000D01*
X-66716000Y192624000D02*
X-69916000Y192624000D01*
X-66716000Y192624000D02*
X-66716000Y190624000D01*
%TO.C,D166*%
X-130516000Y129724000D02*
X-130516000Y132024000D01*
X-127616000Y129724000D02*
X-130516000Y129724000D01*
X-127616000Y129724000D02*
X-127316000Y130024000D01*
X-127316000Y132024000D02*
X-130516000Y132024000D01*
X-127316000Y132024000D02*
X-127316000Y130024000D01*
%TO.C,D142*%
X-207202000Y173814000D02*
X-207202000Y175814000D01*
X-207202000Y173814000D02*
X-204002000Y173814000D01*
X-206902000Y176114000D02*
X-207202000Y175814000D01*
X-206902000Y176114000D02*
X-204002000Y176114000D01*
X-204002000Y176114000D02*
X-204002000Y173814000D01*
%TO.C,D76*%
X-146602000Y295014000D02*
X-146602000Y297014000D01*
X-146602000Y295014000D02*
X-143402000Y295014000D01*
X-146302000Y297314000D02*
X-146602000Y297014000D01*
X-146302000Y297314000D02*
X-143402000Y297314000D01*
X-143402000Y297314000D02*
X-143402000Y295014000D01*
%TO.C,D145*%
X-282016000Y160024000D02*
X-282016000Y162324000D01*
X-279116000Y160024000D02*
X-282016000Y160024000D01*
X-279116000Y160024000D02*
X-278816000Y160324000D01*
X-278816000Y162324000D02*
X-282016000Y162324000D01*
X-278816000Y162324000D02*
X-278816000Y160324000D01*
%TO.C,D78*%
X-207202000Y295014000D02*
X-207202000Y297014000D01*
X-207202000Y295014000D02*
X-204002000Y295014000D01*
X-206902000Y297314000D02*
X-207202000Y297014000D01*
X-206902000Y297314000D02*
X-204002000Y297314000D01*
X-204002000Y297314000D02*
X-204002000Y295014000D01*
%TO.C,D149*%
X-160816000Y160024000D02*
X-160816000Y162324000D01*
X-157916000Y160024000D02*
X-160816000Y160024000D01*
X-157916000Y160024000D02*
X-157616000Y160324000D01*
X-157616000Y162324000D02*
X-160816000Y162324000D01*
X-157616000Y162324000D02*
X-157616000Y160324000D01*
%TO.C,D121*%
X-55702000Y204114000D02*
X-55702000Y206114000D01*
X-55702000Y204114000D02*
X-52502000Y204114000D01*
X-55402000Y206414000D02*
X-55702000Y206114000D01*
X-55402000Y206414000D02*
X-52502000Y206414000D01*
X-52502000Y206414000D02*
X-52502000Y204114000D01*
%TO.C,D116*%
X-191116000Y220624000D02*
X-191116000Y222924000D01*
X-188216000Y220624000D02*
X-191116000Y220624000D01*
X-188216000Y220624000D02*
X-187916000Y220924000D01*
X-187916000Y222924000D02*
X-191116000Y222924000D01*
X-187916000Y222924000D02*
X-187916000Y220924000D01*
%TO.C,D146*%
X-251716000Y160024000D02*
X-251716000Y162324000D01*
X-248816000Y160024000D02*
X-251716000Y160024000D01*
X-248816000Y160024000D02*
X-248516000Y160324000D01*
X-248516000Y162324000D02*
X-251716000Y162324000D01*
X-248516000Y162324000D02*
X-248516000Y160324000D01*
%TO.C,D74*%
X-86002000Y295014000D02*
X-86002000Y297014000D01*
X-86002000Y295014000D02*
X-82802000Y295014000D01*
X-85702000Y297314000D02*
X-86002000Y297014000D01*
X-85702000Y297314000D02*
X-82802000Y297314000D01*
X-82802000Y297314000D02*
X-82802000Y295014000D01*
%TO.C,D147*%
X-221416000Y160024000D02*
X-221416000Y162324000D01*
X-218516000Y160024000D02*
X-221416000Y160024000D01*
X-218516000Y160024000D02*
X-218216000Y160324000D01*
X-218216000Y162324000D02*
X-221416000Y162324000D01*
X-218216000Y162324000D02*
X-218216000Y160324000D01*
%TO.C,D86*%
X-130516000Y281224000D02*
X-130516000Y283524000D01*
X-127616000Y281224000D02*
X-130516000Y281224000D01*
X-127616000Y281224000D02*
X-127316000Y281524000D01*
X-127316000Y283524000D02*
X-130516000Y283524000D01*
X-127316000Y283524000D02*
X-127316000Y281524000D01*
%TO.C,D127*%
X-237502000Y204114000D02*
X-237502000Y206114000D01*
X-237502000Y204114000D02*
X-234302000Y204114000D01*
X-237202000Y206414000D02*
X-237502000Y206114000D01*
X-237202000Y206414000D02*
X-234302000Y206414000D01*
X-234302000Y206414000D02*
X-234302000Y204114000D01*
%TO.C,D183*%
X-100216000Y99424000D02*
X-100216000Y101724000D01*
X-97316000Y99424000D02*
X-100216000Y99424000D01*
X-97316000Y99424000D02*
X-97016000Y99724000D01*
X-97016000Y101724000D02*
X-100216000Y101724000D01*
X-97016000Y101724000D02*
X-97016000Y99724000D01*
%TO.C,D172*%
X-146602000Y113214000D02*
X-146602000Y115214000D01*
X-146602000Y113214000D02*
X-143402000Y113214000D01*
X-146302000Y115514000D02*
X-146602000Y115214000D01*
X-146302000Y115514000D02*
X-143402000Y115514000D01*
X-143402000Y115514000D02*
X-143402000Y113214000D01*
%TO.C,D97*%
X-282016000Y250924000D02*
X-282016000Y253224000D01*
X-279116000Y250924000D02*
X-282016000Y250924000D01*
X-279116000Y250924000D02*
X-278816000Y251224000D01*
X-278816000Y253224000D02*
X-282016000Y253224000D01*
X-278816000Y253224000D02*
X-278816000Y251224000D01*
%TO.C,D111*%
X-237502000Y234414000D02*
X-237502000Y236414000D01*
X-237502000Y234414000D02*
X-234302000Y234414000D01*
X-237202000Y236714000D02*
X-237502000Y236414000D01*
X-237202000Y236714000D02*
X-234302000Y236714000D01*
X-234302000Y236714000D02*
X-234302000Y234414000D01*
%TO.C,D180*%
X-191116000Y99424000D02*
X-191116000Y101724000D01*
X-188216000Y99424000D02*
X-191116000Y99424000D01*
X-188216000Y99424000D02*
X-187916000Y99724000D01*
X-187916000Y101724000D02*
X-191116000Y101724000D01*
X-187916000Y101724000D02*
X-187916000Y99724000D01*
%TO.C,D93*%
X-176902000Y264714000D02*
X-176902000Y266714000D01*
X-176902000Y264714000D02*
X-173702000Y264714000D01*
X-176602000Y267014000D02*
X-176902000Y266714000D01*
X-176602000Y267014000D02*
X-173702000Y267014000D01*
X-173702000Y267014000D02*
X-173702000Y264714000D01*
%TO.C,D131*%
X-221416000Y190324000D02*
X-221416000Y192624000D01*
X-218516000Y190324000D02*
X-221416000Y190324000D01*
X-218516000Y190324000D02*
X-218216000Y190624000D01*
X-218216000Y192624000D02*
X-221416000Y192624000D01*
X-218216000Y192624000D02*
X-218216000Y190624000D01*
%TO.C,D159*%
X-237502000Y143514000D02*
X-237502000Y145514000D01*
X-237502000Y143514000D02*
X-234302000Y143514000D01*
X-237202000Y145814000D02*
X-237502000Y145514000D01*
X-237202000Y145814000D02*
X-234302000Y145814000D01*
X-234302000Y145814000D02*
X-234302000Y143514000D01*
%TO.C,D118*%
X-130516000Y220624000D02*
X-130516000Y222924000D01*
X-127616000Y220624000D02*
X-130516000Y220624000D01*
X-127616000Y220624000D02*
X-127316000Y220924000D01*
X-127316000Y222924000D02*
X-130516000Y222924000D01*
X-127316000Y222924000D02*
X-127316000Y220924000D01*
%TO.C,D117*%
X-160816000Y220624000D02*
X-160816000Y222924000D01*
X-157916000Y220624000D02*
X-160816000Y220624000D01*
X-157916000Y220624000D02*
X-157616000Y220924000D01*
X-157616000Y222924000D02*
X-160816000Y222924000D01*
X-157616000Y222924000D02*
X-157616000Y220924000D01*
%TO.C,D157*%
X-176902000Y143514000D02*
X-176902000Y145514000D01*
X-176902000Y143514000D02*
X-173702000Y143514000D01*
X-176602000Y145814000D02*
X-176902000Y145514000D01*
X-176602000Y145814000D02*
X-173702000Y145814000D01*
X-173702000Y145814000D02*
X-173702000Y143514000D01*
%TO.C,D67*%
X-221416000Y311524000D02*
X-221416000Y313824000D01*
X-218516000Y311524000D02*
X-221416000Y311524000D01*
X-218516000Y311524000D02*
X-218216000Y311824000D01*
X-218216000Y313824000D02*
X-221416000Y313824000D01*
X-218216000Y313824000D02*
X-218216000Y311824000D01*
%TO.C,D189*%
X-176902000Y82914000D02*
X-176902000Y84914000D01*
X-176902000Y82914000D02*
X-173702000Y82914000D01*
X-176602000Y85214000D02*
X-176902000Y84914000D01*
X-176602000Y85214000D02*
X-173702000Y85214000D01*
X-173702000Y85214000D02*
X-173702000Y82914000D01*
%TO.C,D73*%
X-55702000Y295014000D02*
X-55702000Y297014000D01*
X-55702000Y295014000D02*
X-52502000Y295014000D01*
X-55402000Y297314000D02*
X-55702000Y297014000D01*
X-55402000Y297314000D02*
X-52502000Y297314000D01*
X-52502000Y297314000D02*
X-52502000Y295014000D01*
%TO.C,D171*%
X-116302000Y113214000D02*
X-116302000Y115214000D01*
X-116302000Y113214000D02*
X-113102000Y113214000D01*
X-116002000Y115514000D02*
X-116302000Y115214000D01*
X-116002000Y115514000D02*
X-113102000Y115514000D01*
X-113102000Y115514000D02*
X-113102000Y113214000D01*
%TO.C,D141*%
X-176902000Y173814000D02*
X-176902000Y175814000D01*
X-176902000Y173814000D02*
X-173702000Y173814000D01*
X-176602000Y176114000D02*
X-176902000Y175814000D01*
X-176602000Y176114000D02*
X-173702000Y176114000D01*
X-173702000Y176114000D02*
X-173702000Y173814000D01*
%TO.C,D162*%
X-251716000Y129724000D02*
X-251716000Y132024000D01*
X-248816000Y129724000D02*
X-251716000Y129724000D01*
X-248816000Y129724000D02*
X-248516000Y130024000D01*
X-248516000Y132024000D02*
X-251716000Y132024000D01*
X-248516000Y132024000D02*
X-248516000Y130024000D01*
%TO.C,D144*%
X-267802000Y173814000D02*
X-267802000Y175814000D01*
X-267802000Y173814000D02*
X-264602000Y173814000D01*
X-267502000Y176114000D02*
X-267802000Y175814000D01*
X-267502000Y176114000D02*
X-264602000Y176114000D01*
X-264602000Y176114000D02*
X-264602000Y173814000D01*
%TO.C,D181*%
X-160816000Y99424000D02*
X-160816000Y101724000D01*
X-157916000Y99424000D02*
X-160816000Y99424000D01*
X-157916000Y99424000D02*
X-157616000Y99724000D01*
X-157616000Y101724000D02*
X-160816000Y101724000D01*
X-157616000Y101724000D02*
X-157616000Y99724000D01*
%TO.C,D102*%
X-130516000Y250924000D02*
X-130516000Y253224000D01*
X-127616000Y250924000D02*
X-130516000Y250924000D01*
X-127616000Y250924000D02*
X-127316000Y251224000D01*
X-127316000Y253224000D02*
X-130516000Y253224000D01*
X-127316000Y253224000D02*
X-127316000Y251224000D01*
%TO.C,D104*%
X-69916000Y250924000D02*
X-69916000Y253224000D01*
X-67016000Y250924000D02*
X-69916000Y250924000D01*
X-67016000Y250924000D02*
X-66716000Y251224000D01*
X-66716000Y253224000D02*
X-69916000Y253224000D01*
X-66716000Y253224000D02*
X-66716000Y251224000D01*
%TO.C,D68*%
X-191116000Y311524000D02*
X-191116000Y313824000D01*
X-188216000Y311524000D02*
X-191116000Y311524000D01*
X-188216000Y311524000D02*
X-187916000Y311824000D01*
X-187916000Y313824000D02*
X-191116000Y313824000D01*
X-187916000Y313824000D02*
X-187916000Y311824000D01*
%TO.C,D155*%
X-116302000Y143514000D02*
X-116302000Y145514000D01*
X-116302000Y143514000D02*
X-113102000Y143514000D01*
X-116002000Y145814000D02*
X-116302000Y145514000D01*
X-116002000Y145814000D02*
X-113102000Y145814000D01*
X-113102000Y145814000D02*
X-113102000Y143514000D01*
%TO.C,D124*%
X-146602000Y204114000D02*
X-146602000Y206114000D01*
X-146602000Y204114000D02*
X-143402000Y204114000D01*
X-146302000Y206414000D02*
X-146602000Y206114000D01*
X-146302000Y206414000D02*
X-143402000Y206414000D01*
X-143402000Y206414000D02*
X-143402000Y204114000D01*
%TO.C,D138*%
X-86002000Y173814000D02*
X-86002000Y175814000D01*
X-86002000Y173814000D02*
X-82802000Y173814000D01*
X-85702000Y176114000D02*
X-86002000Y175814000D01*
X-85702000Y176114000D02*
X-82802000Y176114000D01*
X-82802000Y176114000D02*
X-82802000Y173814000D01*
%TO.C,D140*%
X-146602000Y173814000D02*
X-146602000Y175814000D01*
X-146602000Y173814000D02*
X-143402000Y173814000D01*
X-146302000Y176114000D02*
X-146602000Y175814000D01*
X-146302000Y176114000D02*
X-143402000Y176114000D01*
X-143402000Y176114000D02*
X-143402000Y173814000D01*
%TO.C,D128*%
X-267802000Y204114000D02*
X-267802000Y206114000D01*
X-267802000Y204114000D02*
X-264602000Y204114000D01*
X-267502000Y206414000D02*
X-267802000Y206114000D01*
X-267502000Y206414000D02*
X-264602000Y206414000D01*
X-264602000Y206414000D02*
X-264602000Y204114000D01*
%TD*%
M02*
