%TF.GenerationSoftware,KiCad,Pcbnew,9.0.1*%
%TF.CreationDate,2025-05-31T16:07:01+01:00*%
%TF.ProjectId,Button MIDI Controller,42757474-6f6e-4204-9d49-444920436f6e,rev?*%
%TF.SameCoordinates,Original*%
%TF.FileFunction,Copper,L1,Top*%
%TF.FilePolarity,Positive*%
%FSLAX46Y46*%
G04 Gerber Fmt 4.6, Leading zero omitted, Abs format (unit mm)*
G04 Created by KiCad (PCBNEW 9.0.1) date 2025-05-31 16:07:01*
%MOMM*%
%LPD*%
G01*
G04 APERTURE LIST*
%TA.AperFunction,SMDPad,CuDef*%
%ADD10R,0.700000X0.700000*%
%TD*%
%TA.AperFunction,ComponentPad*%
%ADD11O,1.500000X3.800000*%
%TD*%
%TA.AperFunction,ComponentPad*%
%ADD12C,4.700000*%
%TD*%
%TA.AperFunction,ConnectorPad*%
%ADD13C,7.500000*%
%TD*%
%TA.AperFunction,ComponentPad*%
%ADD14R,1.508000X1.508000*%
%TD*%
%TA.AperFunction,ComponentPad*%
%ADD15C,1.508000*%
%TD*%
%TA.AperFunction,ComponentPad*%
%ADD16C,1.950000*%
%TD*%
%TA.AperFunction,ComponentPad*%
%ADD17C,3.800000*%
%TD*%
%TA.AperFunction,ComponentPad*%
%ADD18C,0.600000*%
%TD*%
%TA.AperFunction,HeatsinkPad*%
%ADD19O,0.550000X2.050000*%
%TD*%
%TA.AperFunction,HeatsinkPad*%
%ADD20C,0.850000*%
%TD*%
%TA.AperFunction,ViaPad*%
%ADD21C,0.450000*%
%TD*%
%TA.AperFunction,ViaPad*%
%ADD22C,0.600000*%
%TD*%
%TA.AperFunction,Conductor*%
%ADD23C,0.100000*%
%TD*%
%TA.AperFunction,Conductor*%
%ADD24C,0.150000*%
%TD*%
G04 APERTURE END LIST*
D10*
%TO.P,D90,1,DOUT*%
%TO.N,Net-(D90-DOUT)*%
X-85317000Y266414000D03*
%TO.P,D90,2,VSS*%
%TO.N,GND*%
X-85317000Y265314000D03*
%TO.P,D90,3,DIN*%
%TO.N,Net-(D89-DOUT)*%
X-83487000Y265314000D03*
%TO.P,D90,4,VDD*%
%TO.N,+5V*%
X-83487000Y266414000D03*
%TD*%
%TO.P,D114,1,DOUT*%
%TO.N,Net-(D114-DOUT)*%
X-249201000Y221224000D03*
%TO.P,D114,2,VSS*%
%TO.N,GND*%
X-249201000Y222324000D03*
%TO.P,D114,3,DIN*%
%TO.N,Net-(D113-DOUT)*%
X-251031000Y222324000D03*
%TO.P,D114,4,VDD*%
%TO.N,+5V*%
X-251031000Y221224000D03*
%TD*%
%TO.P,D192,1,DOUT*%
%TO.N,unconnected-(D192-DOUT-Pad1)*%
X-267117000Y84614000D03*
%TO.P,D192,2,VSS*%
%TO.N,GND*%
X-267117000Y83514000D03*
%TO.P,D192,3,DIN*%
%TO.N,Net-(D191-DOUT)*%
X-265287000Y83514000D03*
%TO.P,D192,4,VDD*%
%TO.N,+5V*%
X-265287000Y84614000D03*
%TD*%
%TO.P,D109,1,DOUT*%
%TO.N,Net-(D109-DOUT)*%
X-176217000Y236114000D03*
%TO.P,D109,2,VSS*%
%TO.N,GND*%
X-176217000Y235014000D03*
%TO.P,D109,3,DIN*%
%TO.N,Net-(D108-DOUT)*%
X-174387000Y235014000D03*
%TO.P,D109,4,VDD*%
%TO.N,+5V*%
X-174387000Y236114000D03*
%TD*%
D11*
%TO.P,MX12,1,COL*%
%TO.N,COL3*%
X-180800000Y270900000D03*
%TO.P,MX12,2,ROW*%
%TO.N,Net-(D12-A)*%
X-184900000Y275900000D03*
%TD*%
D10*
%TO.P,D88,1,DOUT*%
%TO.N,Net-(D88-DOUT)*%
X-67401000Y281824000D03*
%TO.P,D88,2,VSS*%
%TO.N,GND*%
X-67401000Y282924000D03*
%TO.P,D88,3,DIN*%
%TO.N,Net-(D87-DOUT)*%
X-69231000Y282924000D03*
%TO.P,D88,4,VDD*%
%TO.N,+5V*%
X-69231000Y281824000D03*
%TD*%
%TO.P,D120,1,DOUT*%
%TO.N,Net-(D120-DOUT)*%
X-67401000Y221224000D03*
%TO.P,D120,2,VSS*%
%TO.N,GND*%
X-67401000Y222324000D03*
%TO.P,D120,3,DIN*%
%TO.N,Net-(D119-DOUT)*%
X-69231000Y222324000D03*
%TO.P,D120,4,VDD*%
%TO.N,+5V*%
X-69231000Y221224000D03*
%TD*%
%TO.P,D161,1,DOUT*%
%TO.N,Net-(D161-DOUT)*%
X-279501000Y130324000D03*
%TO.P,D161,2,VSS*%
%TO.N,GND*%
X-279501000Y131424000D03*
%TO.P,D161,3,DIN*%
%TO.N,Net-(D160-DOUT)*%
X-281331000Y131424000D03*
%TO.P,D161,4,VDD*%
%TO.N,+5V*%
X-281331000Y130324000D03*
%TD*%
%TO.P,D89,1,DOUT*%
%TO.N,Net-(D89-DOUT)*%
X-55017000Y266414000D03*
%TO.P,D89,2,VSS*%
%TO.N,GND*%
X-55017000Y265314000D03*
%TO.P,D89,3,DIN*%
%TO.N,Net-(D88-DOUT)*%
X-53187000Y265314000D03*
%TO.P,D89,4,VDD*%
%TO.N,+5V*%
X-53187000Y266414000D03*
%TD*%
D11*
%TO.P,MX51,1,COL*%
%TO.N,COL2*%
X-211100000Y119400000D03*
%TO.P,MX51,2,ROW*%
%TO.N,Net-(D51-A)*%
X-215200000Y124400000D03*
%TD*%
%TO.P,MX22,1,COL*%
%TO.N,COL5*%
X-120200000Y240600000D03*
%TO.P,MX22,2,ROW*%
%TO.N,Net-(D22-A)*%
X-124300000Y245600000D03*
%TD*%
D10*
%TO.P,D152,1,DOUT*%
%TO.N,Net-(D152-DOUT)*%
X-67401000Y160624000D03*
%TO.P,D152,2,VSS*%
%TO.N,GND*%
X-67401000Y161724000D03*
%TO.P,D152,3,DIN*%
%TO.N,Net-(D151-DOUT)*%
X-69231000Y161724000D03*
%TO.P,D152,4,VDD*%
%TO.N,+5V*%
X-69231000Y160624000D03*
%TD*%
D12*
%TO.P,REF\u002A\u002A,1*%
%TO.N,N/C*%
X-50760000Y315420000D03*
D13*
X-50760000Y315420000D03*
%TD*%
D10*
%TO.P,D107,1,DOUT*%
%TO.N,Net-(D107-DOUT)*%
X-115617000Y236114000D03*
%TO.P,D107,2,VSS*%
%TO.N,GND*%
X-115617000Y235014000D03*
%TO.P,D107,3,DIN*%
%TO.N,Net-(D106-DOUT)*%
X-113787000Y235014000D03*
%TO.P,D107,4,VDD*%
%TO.N,+5V*%
X-113787000Y236114000D03*
%TD*%
%TO.P,D137,1,DOUT*%
%TO.N,Net-(D137-DOUT)*%
X-55017000Y175514000D03*
%TO.P,D137,2,VSS*%
%TO.N,GND*%
X-55017000Y174414000D03*
%TO.P,D137,3,DIN*%
%TO.N,Net-(D136-DOUT)*%
X-53187000Y174414000D03*
%TO.P,D137,4,VDD*%
%TO.N,+5V*%
X-53187000Y175514000D03*
%TD*%
D11*
%TO.P,MX4,1,COL*%
%TO.N,COL3*%
X-180800000Y301200000D03*
%TO.P,MX4,2,ROW*%
%TO.N,Net-(D4-A)*%
X-184900000Y306200000D03*
%TD*%
D10*
%TO.P,D133,1,DOUT*%
%TO.N,Net-(D133-DOUT)*%
X-158301000Y190924000D03*
%TO.P,D133,2,VSS*%
%TO.N,GND*%
X-158301000Y192024000D03*
%TO.P,D133,3,DIN*%
%TO.N,Net-(D132-DOUT)*%
X-160131000Y192024000D03*
%TO.P,D133,4,VDD*%
%TO.N,+5V*%
X-160131000Y190924000D03*
%TD*%
%TO.P,D113,1,DOUT*%
%TO.N,Net-(D113-DOUT)*%
X-279501000Y221224000D03*
%TO.P,D113,2,VSS*%
%TO.N,GND*%
X-279501000Y222324000D03*
%TO.P,D113,3,DIN*%
%TO.N,Net-(D112-DOUT)*%
X-281331000Y222324000D03*
%TO.P,D113,4,VDD*%
%TO.N,+5V*%
X-281331000Y221224000D03*
%TD*%
%TO.P,D91,1,DOUT*%
%TO.N,Net-(D91-DOUT)*%
X-115617000Y266414000D03*
%TO.P,D91,2,VSS*%
%TO.N,GND*%
X-115617000Y265314000D03*
%TO.P,D91,3,DIN*%
%TO.N,Net-(D90-DOUT)*%
X-113787000Y265314000D03*
%TO.P,D91,4,VDD*%
%TO.N,+5V*%
X-113787000Y266414000D03*
%TD*%
%TO.P,D84,1,DOUT*%
%TO.N,Net-(D84-DOUT)*%
X-188601000Y281824000D03*
%TO.P,D84,2,VSS*%
%TO.N,GND*%
X-188601000Y282924000D03*
%TO.P,D84,3,DIN*%
%TO.N,Net-(D83-DOUT)*%
X-190431000Y282924000D03*
%TO.P,D84,4,VDD*%
%TO.N,+5V*%
X-190431000Y281824000D03*
%TD*%
D11*
%TO.P,MX2,1,COL*%
%TO.N,COL1*%
X-241400000Y301200000D03*
%TO.P,MX2,2,ROW*%
%TO.N,Net-(D2-A)*%
X-245500000Y306200000D03*
%TD*%
D10*
%TO.P,D119,1,DOUT*%
%TO.N,Net-(D119-DOUT)*%
X-97701000Y221224000D03*
%TO.P,D119,2,VSS*%
%TO.N,GND*%
X-97701000Y222324000D03*
%TO.P,D119,3,DIN*%
%TO.N,Net-(D118-DOUT)*%
X-99531000Y222324000D03*
%TO.P,D119,4,VDD*%
%TO.N,+5V*%
X-99531000Y221224000D03*
%TD*%
%TO.P,D174,1,DOUT*%
%TO.N,Net-(D174-DOUT)*%
X-206517000Y114914000D03*
%TO.P,D174,2,VSS*%
%TO.N,GND*%
X-206517000Y113814000D03*
%TO.P,D174,3,DIN*%
%TO.N,Net-(D173-DOUT)*%
X-204687000Y113814000D03*
%TO.P,D174,4,VDD*%
%TO.N,+5V*%
X-204687000Y114914000D03*
%TD*%
%TO.P,D112,1,DOUT*%
%TO.N,Net-(D112-DOUT)*%
X-267117000Y236114000D03*
%TO.P,D112,2,VSS*%
%TO.N,GND*%
X-267117000Y235014000D03*
%TO.P,D112,3,DIN*%
%TO.N,Net-(D111-DOUT)*%
X-265287000Y235014000D03*
%TO.P,D112,4,VDD*%
%TO.N,+5V*%
X-265287000Y236114000D03*
%TD*%
%TO.P,D160,1,DOUT*%
%TO.N,Net-(D160-DOUT)*%
X-267117000Y145214000D03*
%TO.P,D160,2,VSS*%
%TO.N,GND*%
X-267117000Y144114000D03*
%TO.P,D160,3,DIN*%
%TO.N,Net-(D159-DOUT)*%
X-265287000Y144114000D03*
%TO.P,D160,4,VDD*%
%TO.N,+5V*%
X-265287000Y145214000D03*
%TD*%
%TO.P,D153,1,DOUT*%
%TO.N,Net-(D153-DOUT)*%
X-55017000Y145214000D03*
%TO.P,D153,2,VSS*%
%TO.N,GND*%
X-55017000Y144114000D03*
%TO.P,D153,3,DIN*%
%TO.N,Net-(D152-DOUT)*%
X-53187000Y144114000D03*
%TO.P,D153,4,VDD*%
%TO.N,+5V*%
X-53187000Y145214000D03*
%TD*%
%TO.P,D92,1,DOUT*%
%TO.N,Net-(D92-DOUT)*%
X-145917000Y266414000D03*
%TO.P,D92,2,VSS*%
%TO.N,GND*%
X-145917000Y265314000D03*
%TO.P,D92,3,DIN*%
%TO.N,Net-(D91-DOUT)*%
X-144087000Y265314000D03*
%TO.P,D92,4,VDD*%
%TO.N,+5V*%
X-144087000Y266414000D03*
%TD*%
%TO.P,D94,1,DOUT*%
%TO.N,Net-(D94-DOUT)*%
X-206517000Y266414000D03*
%TO.P,D94,2,VSS*%
%TO.N,GND*%
X-206517000Y265314000D03*
%TO.P,D94,3,DIN*%
%TO.N,Net-(D93-DOUT)*%
X-204687000Y265314000D03*
%TO.P,D94,4,VDD*%
%TO.N,+5V*%
X-204687000Y266414000D03*
%TD*%
D12*
%TO.P,REF\u002A\u002A,1*%
%TO.N,N/C*%
X-100320000Y259260000D03*
D13*
X-100320000Y259260000D03*
%TD*%
D10*
%TO.P,D69,1,DOUT*%
%TO.N,Net-(D69-DOUT)*%
X-158301000Y312124000D03*
%TO.P,D69,2,VSS*%
%TO.N,GND*%
X-158301000Y313224000D03*
%TO.P,D69,3,DIN*%
%TO.N,Net-(D68-DOUT)*%
X-160131000Y313224000D03*
%TO.P,D69,4,VDD*%
%TO.N,+5V*%
X-160131000Y312124000D03*
%TD*%
%TO.P,D188,1,DOUT*%
%TO.N,Net-(D188-DOUT)*%
X-145917000Y84614000D03*
%TO.P,D188,2,VSS*%
%TO.N,GND*%
X-145917000Y83514000D03*
%TO.P,D188,3,DIN*%
%TO.N,Net-(D187-DOUT)*%
X-144087000Y83514000D03*
%TO.P,D188,4,VDD*%
%TO.N,+5V*%
X-144087000Y84614000D03*
%TD*%
%TO.P,D72,1,DOUT*%
%TO.N,Net-(D72-DOUT)*%
X-67401000Y312124000D03*
%TO.P,D72,2,VSS*%
%TO.N,GND*%
X-67401000Y313224000D03*
%TO.P,D72,3,DIN*%
%TO.N,Net-(D71-DOUT)*%
X-69231000Y313224000D03*
%TO.P,D72,4,VDD*%
%TO.N,+5V*%
X-69231000Y312124000D03*
%TD*%
D11*
%TO.P,MX46,1,COL*%
%TO.N,COL5*%
X-120200000Y149700000D03*
%TO.P,MX46,2,ROW*%
%TO.N,Net-(D46-A)*%
X-124300000Y154700000D03*
%TD*%
%TO.P,MX55,1,COL*%
%TO.N,COL6*%
X-89900000Y119400000D03*
%TO.P,MX55,2,ROW*%
%TO.N,Net-(D55-A)*%
X-94000000Y124400000D03*
%TD*%
D10*
%TO.P,D130,1,DOUT*%
%TO.N,Net-(D130-DOUT)*%
X-249201000Y190924000D03*
%TO.P,D130,2,VSS*%
%TO.N,GND*%
X-249201000Y192024000D03*
%TO.P,D130,3,DIN*%
%TO.N,Net-(D129-DOUT)*%
X-251031000Y192024000D03*
%TO.P,D130,4,VDD*%
%TO.N,+5V*%
X-251031000Y190924000D03*
%TD*%
D11*
%TO.P,MX56,1,COL*%
%TO.N,COL7*%
X-59600000Y119400000D03*
%TO.P,MX56,2,ROW*%
%TO.N,Net-(D56-A)*%
X-63700000Y124400000D03*
%TD*%
D14*
%TO.P,S2,1*%
%TO.N,Net-(D194-A)*%
X-55880000Y261002000D03*
D15*
%TO.P,S2,2*%
%TO.N,COL8*%
X-55880000Y256502000D03*
D16*
%TO.P,S2,3,GND*%
%TO.N,GND*%
X-58380000Y262252000D03*
%TO.P,S2,4,GND*%
X-58380000Y255252000D03*
%TD*%
D10*
%TO.P,D132,1,DOUT*%
%TO.N,Net-(D132-DOUT)*%
X-188601000Y190924000D03*
%TO.P,D132,2,VSS*%
%TO.N,GND*%
X-188601000Y192024000D03*
%TO.P,D132,3,DIN*%
%TO.N,Net-(D131-DOUT)*%
X-190431000Y192024000D03*
%TO.P,D132,4,VDD*%
%TO.N,+5V*%
X-190431000Y190924000D03*
%TD*%
%TO.P,D175,1,DOUT*%
%TO.N,Net-(D175-DOUT)*%
X-236817000Y114914000D03*
%TO.P,D175,2,VSS*%
%TO.N,GND*%
X-236817000Y113814000D03*
%TO.P,D175,3,DIN*%
%TO.N,Net-(D174-DOUT)*%
X-234987000Y113814000D03*
%TO.P,D175,4,VDD*%
%TO.N,+5V*%
X-234987000Y114914000D03*
%TD*%
D11*
%TO.P,MX48,1,COL*%
%TO.N,COL7*%
X-59600000Y149700000D03*
%TO.P,MX48,2,ROW*%
%TO.N,Net-(D48-A)*%
X-63700000Y154700000D03*
%TD*%
D14*
%TO.P,S1,1*%
%TO.N,Net-(D193-A)*%
X-55880000Y291302000D03*
D15*
%TO.P,S1,2*%
%TO.N,COL8*%
X-55880000Y286802000D03*
D16*
%TO.P,S1,3,GND*%
%TO.N,GND*%
X-58380000Y292552000D03*
%TO.P,S1,4,GND*%
X-58380000Y285552000D03*
%TD*%
D10*
%TO.P,D66,1,DOUT*%
%TO.N,Net-(D66-DOUT)*%
X-249201000Y312124000D03*
%TO.P,D66,2,VSS*%
%TO.N,GND*%
X-249201000Y313224000D03*
%TO.P,D66,3,DIN*%
%TO.N,Net-(D65-DOUT)*%
X-251031000Y313224000D03*
%TO.P,D66,4,VDD*%
%TO.N,+5V*%
X-251031000Y312124000D03*
%TD*%
D11*
%TO.P,MX40,1,COL*%
%TO.N,COL7*%
X-59600000Y180000000D03*
%TO.P,MX40,2,ROW*%
%TO.N,Net-(D40-A)*%
X-63700000Y185000000D03*
%TD*%
D10*
%TO.P,D95,1,DOUT*%
%TO.N,Net-(D95-DOUT)*%
X-236817000Y266414000D03*
%TO.P,D95,2,VSS*%
%TO.N,GND*%
X-236817000Y265314000D03*
%TO.P,D95,3,DIN*%
%TO.N,Net-(D94-DOUT)*%
X-234987000Y265314000D03*
%TO.P,D95,4,VDD*%
%TO.N,+5V*%
X-234987000Y266414000D03*
%TD*%
D11*
%TO.P,MX47,1,COL*%
%TO.N,COL6*%
X-89900000Y149700000D03*
%TO.P,MX47,2,ROW*%
%TO.N,Net-(D47-A)*%
X-94000000Y154700000D03*
%TD*%
D10*
%TO.P,D186,1,DOUT*%
%TO.N,Net-(D186-DOUT)*%
X-85317000Y84614000D03*
%TO.P,D186,2,VSS*%
%TO.N,GND*%
X-85317000Y83514000D03*
%TO.P,D186,3,DIN*%
%TO.N,Net-(D185-DOUT)*%
X-83487000Y83514000D03*
%TO.P,D186,4,VDD*%
%TO.N,+5V*%
X-83487000Y84614000D03*
%TD*%
%TO.P,D77,1,DOUT*%
%TO.N,Net-(D77-DOUT)*%
X-176217000Y296714000D03*
%TO.P,D77,2,VSS*%
%TO.N,GND*%
X-176217000Y295614000D03*
%TO.P,D77,3,DIN*%
%TO.N,Net-(D76-DOUT)*%
X-174387000Y295614000D03*
%TO.P,D77,4,VDD*%
%TO.N,+5V*%
X-174387000Y296714000D03*
%TD*%
%TO.P,D80,1,DOUT*%
%TO.N,Net-(D80-DOUT)*%
X-267117000Y296714000D03*
%TO.P,D80,2,VSS*%
%TO.N,GND*%
X-267117000Y295614000D03*
%TO.P,D80,3,DIN*%
%TO.N,Net-(D79-DOUT)*%
X-265287000Y295614000D03*
%TO.P,D80,4,VDD*%
%TO.N,+5V*%
X-265287000Y296714000D03*
%TD*%
%TO.P,D129,1,DOUT*%
%TO.N,Net-(D129-DOUT)*%
X-279501000Y190924000D03*
%TO.P,D129,2,VSS*%
%TO.N,GND*%
X-279501000Y192024000D03*
%TO.P,D129,3,DIN*%
%TO.N,Net-(D128-DOUT)*%
X-281331000Y192024000D03*
%TO.P,D129,4,VDD*%
%TO.N,+5V*%
X-281331000Y190924000D03*
%TD*%
%TO.P,D158,1,DOUT*%
%TO.N,Net-(D158-DOUT)*%
X-206517000Y145214000D03*
%TO.P,D158,2,VSS*%
%TO.N,GND*%
X-206517000Y144114000D03*
%TO.P,D158,3,DIN*%
%TO.N,Net-(D157-DOUT)*%
X-204687000Y144114000D03*
%TO.P,D158,4,VDD*%
%TO.N,+5V*%
X-204687000Y145214000D03*
%TD*%
%TO.P,D148,1,DOUT*%
%TO.N,Net-(D148-DOUT)*%
X-188601000Y160624000D03*
%TO.P,D148,2,VSS*%
%TO.N,GND*%
X-188601000Y161724000D03*
%TO.P,D148,3,DIN*%
%TO.N,Net-(D147-DOUT)*%
X-190431000Y161724000D03*
%TO.P,D148,4,VDD*%
%TO.N,+5V*%
X-190431000Y160624000D03*
%TD*%
D11*
%TO.P,MX42,1,COL*%
%TO.N,COL1*%
X-241400000Y149700000D03*
%TO.P,MX42,2,ROW*%
%TO.N,Net-(D42-A)*%
X-245500000Y154700000D03*
%TD*%
D10*
%TO.P,D187,1,DOUT*%
%TO.N,Net-(D187-DOUT)*%
X-115617000Y84614000D03*
%TO.P,D187,2,VSS*%
%TO.N,GND*%
X-115617000Y83514000D03*
%TO.P,D187,3,DIN*%
%TO.N,Net-(D186-DOUT)*%
X-113787000Y83514000D03*
%TO.P,D187,4,VDD*%
%TO.N,+5V*%
X-113787000Y84614000D03*
%TD*%
%TO.P,D110,1,DOUT*%
%TO.N,Net-(D110-DOUT)*%
X-206517000Y236114000D03*
%TO.P,D110,2,VSS*%
%TO.N,GND*%
X-206517000Y235014000D03*
%TO.P,D110,3,DIN*%
%TO.N,Net-(D109-DOUT)*%
X-204687000Y235014000D03*
%TO.P,D110,4,VDD*%
%TO.N,+5V*%
X-204687000Y236114000D03*
%TD*%
D11*
%TO.P,MX53,1,COL*%
%TO.N,COL4*%
X-150500000Y119400000D03*
%TO.P,MX53,2,ROW*%
%TO.N,Net-(D53-A)*%
X-154600000Y124400000D03*
%TD*%
D10*
%TO.P,D177,1,DOUT*%
%TO.N,Net-(D177-DOUT)*%
X-279501000Y100024000D03*
%TO.P,D177,2,VSS*%
%TO.N,GND*%
X-279501000Y101124000D03*
%TO.P,D177,3,DIN*%
%TO.N,Net-(D176-DOUT)*%
X-281331000Y101124000D03*
%TO.P,D177,4,VDD*%
%TO.N,+5V*%
X-281331000Y100024000D03*
%TD*%
%TO.P,D154,1,DOUT*%
%TO.N,Net-(D154-DOUT)*%
X-85317000Y145214000D03*
%TO.P,D154,2,VSS*%
%TO.N,GND*%
X-85317000Y144114000D03*
%TO.P,D154,3,DIN*%
%TO.N,Net-(D153-DOUT)*%
X-83487000Y144114000D03*
%TO.P,D154,4,VDD*%
%TO.N,+5V*%
X-83487000Y145214000D03*
%TD*%
%TO.P,D100,1,DOUT*%
%TO.N,Net-(D100-DOUT)*%
X-188601000Y251524000D03*
%TO.P,D100,2,VSS*%
%TO.N,GND*%
X-188601000Y252624000D03*
%TO.P,D100,3,DIN*%
%TO.N,Net-(D100-DIN)*%
X-190431000Y252624000D03*
%TO.P,D100,4,VDD*%
%TO.N,+5V*%
X-190431000Y251524000D03*
%TD*%
D11*
%TO.P,MX38,1,COL*%
%TO.N,COL5*%
X-120200000Y180000000D03*
%TO.P,MX38,2,ROW*%
%TO.N,Net-(D38-A)*%
X-124300000Y185000000D03*
%TD*%
D10*
%TO.P,D134,1,DOUT*%
%TO.N,Net-(D134-DOUT)*%
X-128001000Y190924000D03*
%TO.P,D134,2,VSS*%
%TO.N,GND*%
X-128001000Y192024000D03*
%TO.P,D134,3,DIN*%
%TO.N,Net-(D133-DOUT)*%
X-129831000Y192024000D03*
%TO.P,D134,4,VDD*%
%TO.N,+5V*%
X-129831000Y190924000D03*
%TD*%
%TO.P,D151,1,DOUT*%
%TO.N,Net-(D151-DOUT)*%
X-97701000Y160624000D03*
%TO.P,D151,2,VSS*%
%TO.N,GND*%
X-97701000Y161724000D03*
%TO.P,D151,3,DIN*%
%TO.N,Net-(D150-DOUT)*%
X-99531000Y161724000D03*
%TO.P,D151,4,VDD*%
%TO.N,+5V*%
X-99531000Y160624000D03*
%TD*%
D11*
%TO.P,MX37,1,COL*%
%TO.N,COL4*%
X-150500000Y180000000D03*
%TO.P,MX37,2,ROW*%
%TO.N,Net-(D37-A)*%
X-154600000Y185000000D03*
%TD*%
%TO.P,MX61,1,COL*%
%TO.N,COL4*%
X-150500000Y89100000D03*
%TO.P,MX61,2,ROW*%
%TO.N,Net-(D61-A)*%
X-154600000Y94100000D03*
%TD*%
D14*
%TO.P,S5,1*%
%TO.N,Net-(D197-A)*%
X-55880000Y170102000D03*
D15*
%TO.P,S5,2*%
%TO.N,COL8*%
X-55880000Y165602000D03*
D16*
%TO.P,S5,3,GND*%
%TO.N,GND*%
X-58380000Y171352000D03*
%TO.P,S5,4,GND*%
X-58380000Y164352000D03*
%TD*%
D10*
%TO.P,D126,1,DOUT*%
%TO.N,Net-(D126-DOUT)*%
X-206517000Y205814000D03*
%TO.P,D126,2,VSS*%
%TO.N,GND*%
X-206517000Y204714000D03*
%TO.P,D126,3,DIN*%
%TO.N,Net-(D125-DOUT)*%
X-204687000Y204714000D03*
%TO.P,D126,4,VDD*%
%TO.N,+5V*%
X-204687000Y205814000D03*
%TD*%
%TO.P,D139,1,DOUT*%
%TO.N,Net-(D139-DOUT)*%
X-115617000Y175514000D03*
%TO.P,D139,2,VSS*%
%TO.N,GND*%
X-115617000Y174414000D03*
%TO.P,D139,3,DIN*%
%TO.N,Net-(D138-DOUT)*%
X-113787000Y174414000D03*
%TO.P,D139,4,VDD*%
%TO.N,+5V*%
X-113787000Y175514000D03*
%TD*%
%TO.P,D103,1,DOUT*%
%TO.N,Net-(D103-DOUT)*%
X-97701000Y251524000D03*
%TO.P,D103,2,VSS*%
%TO.N,GND*%
X-97701000Y252624000D03*
%TO.P,D103,3,DIN*%
%TO.N,Net-(D102-DOUT)*%
X-99531000Y252624000D03*
%TO.P,D103,4,VDD*%
%TO.N,+5V*%
X-99531000Y251524000D03*
%TD*%
%TO.P,D106,1,DOUT*%
%TO.N,Net-(D106-DOUT)*%
X-85317000Y236114000D03*
%TO.P,D106,2,VSS*%
%TO.N,GND*%
X-85317000Y235014000D03*
%TO.P,D106,3,DIN*%
%TO.N,Net-(D105-DOUT)*%
X-83487000Y235014000D03*
%TO.P,D106,4,VDD*%
%TO.N,+5V*%
X-83487000Y236114000D03*
%TD*%
%TO.P,D87,1,DOUT*%
%TO.N,Net-(D87-DOUT)*%
X-97701000Y281824000D03*
%TO.P,D87,2,VSS*%
%TO.N,GND*%
X-97701000Y282924000D03*
%TO.P,D87,3,DIN*%
%TO.N,Net-(D86-DOUT)*%
X-99531000Y282924000D03*
%TO.P,D87,4,VDD*%
%TO.N,+5V*%
X-99531000Y281824000D03*
%TD*%
%TO.P,D184,1,DOUT*%
%TO.N,Net-(D184-DOUT)*%
X-67401000Y100024000D03*
%TO.P,D184,2,VSS*%
%TO.N,GND*%
X-67401000Y101124000D03*
%TO.P,D184,3,DIN*%
%TO.N,Net-(D183-DOUT)*%
X-69231000Y101124000D03*
%TO.P,D184,4,VDD*%
%TO.N,+5V*%
X-69231000Y100024000D03*
%TD*%
%TO.P,D65,1,DOUT*%
%TO.N,Net-(D65-DOUT)*%
X-279501000Y312124000D03*
%TO.P,D65,2,VSS*%
%TO.N,GND*%
X-279501000Y313224000D03*
%TO.P,D65,3,DIN*%
%TO.N,Net-(D65-DIN)*%
X-281331000Y313224000D03*
%TO.P,D65,4,VDD*%
%TO.N,+5V*%
X-281331000Y312124000D03*
%TD*%
D12*
%TO.P,REF\u002A\u002A,1*%
%TO.N,N/C*%
X-222420000Y259010000D03*
D13*
X-222420000Y259010000D03*
%TD*%
D14*
%TO.P,S3,1*%
%TO.N,Net-(D195-A)*%
X-55880000Y230702000D03*
D15*
%TO.P,S3,2*%
%TO.N,COL8*%
X-55880000Y226202000D03*
D16*
%TO.P,S3,3,GND*%
%TO.N,GND*%
X-58380000Y231952000D03*
%TO.P,S3,4,GND*%
X-58380000Y224952000D03*
%TD*%
D12*
%TO.P,REF\u002A\u002A,1*%
%TO.N,N/C*%
X-286430000Y183240000D03*
D13*
X-286430000Y183240000D03*
%TD*%
D10*
%TO.P,D99,1,DOUT*%
%TO.N,Net-(D100-DIN)*%
X-218901000Y251524000D03*
%TO.P,D99,2,VSS*%
%TO.N,GND*%
X-218901000Y252624000D03*
%TO.P,D99,3,DIN*%
%TO.N,Net-(D98-DOUT)*%
X-220731000Y252624000D03*
%TO.P,D99,4,VDD*%
%TO.N,+5V*%
X-220731000Y251524000D03*
%TD*%
%TO.P,D165,1,DOUT*%
%TO.N,Net-(D165-DOUT)*%
X-158301000Y130324000D03*
%TO.P,D165,2,VSS*%
%TO.N,GND*%
X-158301000Y131424000D03*
%TO.P,D165,3,DIN*%
%TO.N,Net-(D164-DOUT)*%
X-160131000Y131424000D03*
%TO.P,D165,4,VDD*%
%TO.N,+5V*%
X-160131000Y130324000D03*
%TD*%
%TO.P,D156,1,DOUT*%
%TO.N,Net-(D156-DOUT)*%
X-145917000Y145214000D03*
%TO.P,D156,2,VSS*%
%TO.N,GND*%
X-145917000Y144114000D03*
%TO.P,D156,3,DIN*%
%TO.N,Net-(D155-DOUT)*%
X-144087000Y144114000D03*
%TO.P,D156,4,VDD*%
%TO.N,+5V*%
X-144087000Y145214000D03*
%TD*%
%TO.P,D75,1,DOUT*%
%TO.N,Net-(D75-DOUT)*%
X-115617000Y296714000D03*
%TO.P,D75,2,VSS*%
%TO.N,GND*%
X-115617000Y295614000D03*
%TO.P,D75,3,DIN*%
%TO.N,Net-(D74-DOUT)*%
X-113787000Y295614000D03*
%TO.P,D75,4,VDD*%
%TO.N,+5V*%
X-113787000Y296714000D03*
%TD*%
D11*
%TO.P,MX52,1,COL*%
%TO.N,COL3*%
X-180800000Y119400000D03*
%TO.P,MX52,2,ROW*%
%TO.N,Net-(D52-A)*%
X-184900000Y124400000D03*
%TD*%
D12*
%TO.P,REF\u002A\u002A,1*%
%TO.N,N/C*%
X-162720000Y259720000D03*
D13*
X-162720000Y259720000D03*
%TD*%
D12*
%TO.P,REF\u002A\u002A,1*%
%TO.N,N/C*%
X-165660000Y210150000D03*
D13*
X-165660000Y210150000D03*
%TD*%
D11*
%TO.P,MX50,1,COL*%
%TO.N,COL1*%
X-241400000Y119400000D03*
%TO.P,MX50,2,ROW*%
%TO.N,Net-(D50-A)*%
X-245500000Y124400000D03*
%TD*%
D10*
%TO.P,D164,1,DOUT*%
%TO.N,Net-(D164-DOUT)*%
X-188601000Y130324000D03*
%TO.P,D164,2,VSS*%
%TO.N,GND*%
X-188601000Y131424000D03*
%TO.P,D164,3,DIN*%
%TO.N,Net-(D163-DOUT)*%
X-190431000Y131424000D03*
%TO.P,D164,4,VDD*%
%TO.N,+5V*%
X-190431000Y130324000D03*
%TD*%
D11*
%TO.P,MX14,1,COL*%
%TO.N,COL5*%
X-120200000Y270900000D03*
%TO.P,MX14,2,ROW*%
%TO.N,Net-(D14-A)*%
X-124300000Y275900000D03*
%TD*%
D10*
%TO.P,D168,1,DOUT*%
%TO.N,Net-(D168-DOUT)*%
X-67401000Y130324000D03*
%TO.P,D168,2,VSS*%
%TO.N,GND*%
X-67401000Y131424000D03*
%TO.P,D168,3,DIN*%
%TO.N,Net-(D167-DOUT)*%
X-69231000Y131424000D03*
%TO.P,D168,4,VDD*%
%TO.N,+5V*%
X-69231000Y130324000D03*
%TD*%
%TO.P,D190,1,DOUT*%
%TO.N,Net-(D190-DOUT)*%
X-206517000Y84614000D03*
%TO.P,D190,2,VSS*%
%TO.N,GND*%
X-206517000Y83514000D03*
%TO.P,D190,3,DIN*%
%TO.N,Net-(D189-DOUT)*%
X-204687000Y83514000D03*
%TO.P,D190,4,VDD*%
%TO.N,+5V*%
X-204687000Y84614000D03*
%TD*%
%TO.P,D82,1,DOUT*%
%TO.N,Net-(D82-DOUT)*%
X-249201000Y281824000D03*
%TO.P,D82,2,VSS*%
%TO.N,GND*%
X-249201000Y282924000D03*
%TO.P,D82,3,DIN*%
%TO.N,Net-(D81-DOUT)*%
X-251031000Y282924000D03*
%TO.P,D82,4,VDD*%
%TO.N,+5V*%
X-251031000Y281824000D03*
%TD*%
%TO.P,D70,1,DOUT*%
%TO.N,Net-(D70-DOUT)*%
X-128001000Y312124000D03*
%TO.P,D70,2,VSS*%
%TO.N,GND*%
X-128001000Y313224000D03*
%TO.P,D70,3,DIN*%
%TO.N,Net-(D69-DOUT)*%
X-129831000Y313224000D03*
%TO.P,D70,4,VDD*%
%TO.N,+5V*%
X-129831000Y312124000D03*
%TD*%
%TO.P,D122,1,DOUT*%
%TO.N,Net-(D122-DOUT)*%
X-85317000Y205814000D03*
%TO.P,D122,2,VSS*%
%TO.N,GND*%
X-85317000Y204714000D03*
%TO.P,D122,3,DIN*%
%TO.N,Net-(D121-DOUT)*%
X-83487000Y204714000D03*
%TO.P,D122,4,VDD*%
%TO.N,+5V*%
X-83487000Y205814000D03*
%TD*%
D11*
%TO.P,MX8,1,COL*%
%TO.N,COL7*%
X-59600000Y301200000D03*
%TO.P,MX8,2,ROW*%
%TO.N,Net-(D8-A)*%
X-63700000Y306200000D03*
%TD*%
D10*
%TO.P,D101,1,DOUT*%
%TO.N,Net-(D101-DOUT)*%
X-158301000Y251524000D03*
%TO.P,D101,2,VSS*%
%TO.N,GND*%
X-158301000Y252624000D03*
%TO.P,D101,3,DIN*%
%TO.N,Net-(D100-DOUT)*%
X-160131000Y252624000D03*
%TO.P,D101,4,VDD*%
%TO.N,+5V*%
X-160131000Y251524000D03*
%TD*%
%TO.P,D185,1,DOUT*%
%TO.N,Net-(D185-DOUT)*%
X-55017000Y84614000D03*
%TO.P,D185,2,VSS*%
%TO.N,GND*%
X-55017000Y83514000D03*
%TO.P,D185,3,DIN*%
%TO.N,Net-(D184-DOUT)*%
X-53187000Y83514000D03*
%TO.P,D185,4,VDD*%
%TO.N,+5V*%
X-53187000Y84614000D03*
%TD*%
%TO.P,D163,1,DOUT*%
%TO.N,Net-(D163-DOUT)*%
X-218901000Y130324000D03*
%TO.P,D163,2,VSS*%
%TO.N,GND*%
X-218901000Y131424000D03*
%TO.P,D163,3,DIN*%
%TO.N,Net-(D162-DOUT)*%
X-220731000Y131424000D03*
%TO.P,D163,4,VDD*%
%TO.N,+5V*%
X-220731000Y130324000D03*
%TD*%
D11*
%TO.P,MX45,1,COL*%
%TO.N,COL4*%
X-150500000Y149700000D03*
%TO.P,MX45,2,ROW*%
%TO.N,Net-(D45-A)*%
X-154600000Y154700000D03*
%TD*%
D10*
%TO.P,D83,1,DOUT*%
%TO.N,Net-(D83-DOUT)*%
X-218901000Y281824000D03*
%TO.P,D83,2,VSS*%
%TO.N,GND*%
X-218901000Y282924000D03*
%TO.P,D83,3,DIN*%
%TO.N,Net-(D82-DOUT)*%
X-220731000Y282924000D03*
%TO.P,D83,4,VDD*%
%TO.N,+5V*%
X-220731000Y281824000D03*
%TD*%
D11*
%TO.P,MX5,1,COL*%
%TO.N,COL4*%
X-150500000Y301200000D03*
%TO.P,MX5,2,ROW*%
%TO.N,Net-(D5-A)*%
X-154600000Y306200000D03*
%TD*%
%TO.P,MX6,1,COL*%
%TO.N,COL5*%
X-120200000Y301200000D03*
%TO.P,MX6,2,ROW*%
%TO.N,Net-(D6-A)*%
X-124300000Y306200000D03*
%TD*%
D10*
%TO.P,D150,1,DOUT*%
%TO.N,Net-(D150-DOUT)*%
X-128001000Y160624000D03*
%TO.P,D150,2,VSS*%
%TO.N,GND*%
X-128001000Y161724000D03*
%TO.P,D150,3,DIN*%
%TO.N,Net-(D149-DOUT)*%
X-129831000Y161724000D03*
%TO.P,D150,4,VDD*%
%TO.N,+5V*%
X-129831000Y160624000D03*
%TD*%
D12*
%TO.P,REF\u002A\u002A,1*%
%TO.N,N/C*%
X-49480000Y80180000D03*
D13*
X-49480000Y80180000D03*
%TD*%
D10*
%TO.P,D71,1,DOUT*%
%TO.N,Net-(D71-DOUT)*%
X-97701000Y312124000D03*
%TO.P,D71,2,VSS*%
%TO.N,GND*%
X-97701000Y313224000D03*
%TO.P,D71,3,DIN*%
%TO.N,Net-(D70-DOUT)*%
X-99531000Y313224000D03*
%TO.P,D71,4,VDD*%
%TO.N,+5V*%
X-99531000Y312124000D03*
%TD*%
%TO.P,D182,1,DOUT*%
%TO.N,Net-(D182-DOUT)*%
X-128001000Y100024000D03*
%TO.P,D182,2,VSS*%
%TO.N,GND*%
X-128001000Y101124000D03*
%TO.P,D182,3,DIN*%
%TO.N,Net-(D181-DOUT)*%
X-129831000Y101124000D03*
%TO.P,D182,4,VDD*%
%TO.N,+5V*%
X-129831000Y100024000D03*
%TD*%
%TO.P,D115,1,DOUT*%
%TO.N,Net-(D115-DOUT)*%
X-218901000Y221224000D03*
%TO.P,D115,2,VSS*%
%TO.N,GND*%
X-218901000Y222324000D03*
%TO.P,D115,3,DIN*%
%TO.N,Net-(D114-DOUT)*%
X-220731000Y222324000D03*
%TO.P,D115,4,VDD*%
%TO.N,+5V*%
X-220731000Y221224000D03*
%TD*%
%TO.P,D81,1,DOUT*%
%TO.N,Net-(D81-DOUT)*%
X-279501000Y281824000D03*
%TO.P,D81,2,VSS*%
%TO.N,GND*%
X-279501000Y282924000D03*
%TO.P,D81,3,DIN*%
%TO.N,Net-(D80-DOUT)*%
X-281331000Y282924000D03*
%TO.P,D81,4,VDD*%
%TO.N,+5V*%
X-281331000Y281824000D03*
%TD*%
%TO.P,D191,1,DOUT*%
%TO.N,Net-(D191-DOUT)*%
X-236817000Y84614000D03*
%TO.P,D191,2,VSS*%
%TO.N,GND*%
X-236817000Y83514000D03*
%TO.P,D191,3,DIN*%
%TO.N,Net-(D190-DOUT)*%
X-234987000Y83514000D03*
%TO.P,D191,4,VDD*%
%TO.N,+5V*%
X-234987000Y84614000D03*
%TD*%
D11*
%TO.P,MX57,1,COL*%
%TO.N,COL0*%
X-271700000Y89100000D03*
%TO.P,MX57,2,ROW*%
%TO.N,Net-(D57-A)*%
X-275800000Y94100000D03*
%TD*%
D10*
%TO.P,D135,1,DOUT*%
%TO.N,Net-(D135-DOUT)*%
X-97701000Y190924000D03*
%TO.P,D135,2,VSS*%
%TO.N,GND*%
X-97701000Y192024000D03*
%TO.P,D135,3,DIN*%
%TO.N,Net-(D134-DOUT)*%
X-99531000Y192024000D03*
%TO.P,D135,4,VDD*%
%TO.N,+5V*%
X-99531000Y190924000D03*
%TD*%
D11*
%TO.P,MX17,1,COL*%
%TO.N,COL0*%
X-271700000Y240600000D03*
%TO.P,MX17,2,ROW*%
%TO.N,Net-(D17-A)*%
X-275800000Y245600000D03*
%TD*%
D10*
%TO.P,D178,1,DOUT*%
%TO.N,Net-(D178-DOUT)*%
X-249201000Y100024000D03*
%TO.P,D178,2,VSS*%
%TO.N,GND*%
X-249201000Y101124000D03*
%TO.P,D178,3,DIN*%
%TO.N,Net-(D177-DOUT)*%
X-251031000Y101124000D03*
%TO.P,D178,4,VDD*%
%TO.N,+5V*%
X-251031000Y100024000D03*
%TD*%
%TO.P,D98,1,DOUT*%
%TO.N,Net-(D98-DOUT)*%
X-249201000Y251524000D03*
%TO.P,D98,2,VSS*%
%TO.N,GND*%
X-249201000Y252624000D03*
%TO.P,D98,3,DIN*%
%TO.N,Net-(D97-DOUT)*%
X-251031000Y252624000D03*
%TO.P,D98,4,VDD*%
%TO.N,+5V*%
X-251031000Y251524000D03*
%TD*%
D11*
%TO.P,MX15,1,COL*%
%TO.N,COL6*%
X-89900000Y270900000D03*
%TO.P,MX15,2,ROW*%
%TO.N,Net-(D15-A)*%
X-94000000Y275900000D03*
%TD*%
%TO.P,MX36,1,COL*%
%TO.N,COL3*%
X-180800000Y180000000D03*
%TO.P,MX36,2,ROW*%
%TO.N,Net-(D36-A)*%
X-184900000Y185000000D03*
%TD*%
%TO.P,MX29,1,COL*%
%TO.N,COL4*%
X-150500000Y210300000D03*
%TO.P,MX29,2,ROW*%
%TO.N,Net-(D29-A)*%
X-154600000Y215300000D03*
%TD*%
D12*
%TO.P,REF\u002A\u002A,1*%
%TO.N,N/C*%
X-237040000Y167720000D03*
D13*
X-237040000Y167720000D03*
%TD*%
D10*
%TO.P,D125,1,DOUT*%
%TO.N,Net-(D125-DOUT)*%
X-176217000Y205814000D03*
%TO.P,D125,2,VSS*%
%TO.N,GND*%
X-176217000Y204714000D03*
%TO.P,D125,3,DIN*%
%TO.N,Net-(D124-DOUT)*%
X-174387000Y204714000D03*
%TO.P,D125,4,VDD*%
%TO.N,+5V*%
X-174387000Y205814000D03*
%TD*%
%TO.P,D170,1,DOUT*%
%TO.N,Net-(D170-DOUT)*%
X-85317000Y114914000D03*
%TO.P,D170,2,VSS*%
%TO.N,GND*%
X-85317000Y113814000D03*
%TO.P,D170,3,DIN*%
%TO.N,Net-(D169-DOUT)*%
X-83487000Y113814000D03*
%TO.P,D170,4,VDD*%
%TO.N,+5V*%
X-83487000Y114914000D03*
%TD*%
%TO.P,D96,1,DOUT*%
%TO.N,Net-(D96-DOUT)*%
X-267117000Y266414000D03*
%TO.P,D96,2,VSS*%
%TO.N,GND*%
X-267117000Y265314000D03*
%TO.P,D96,3,DIN*%
%TO.N,Net-(D95-DOUT)*%
X-265287000Y265314000D03*
%TO.P,D96,4,VDD*%
%TO.N,+5V*%
X-265287000Y266414000D03*
%TD*%
%TO.P,D173,1,DOUT*%
%TO.N,Net-(D173-DOUT)*%
X-176217000Y114914000D03*
%TO.P,D173,2,VSS*%
%TO.N,GND*%
X-176217000Y113814000D03*
%TO.P,D173,3,DIN*%
%TO.N,Net-(D172-DOUT)*%
X-174387000Y113814000D03*
%TO.P,D173,4,VDD*%
%TO.N,+5V*%
X-174387000Y114914000D03*
%TD*%
D11*
%TO.P,MX64,1,COL*%
%TO.N,COL7*%
X-59600000Y89100000D03*
%TO.P,MX64,2,ROW*%
%TO.N,Net-(D64-A)*%
X-63700000Y94100000D03*
%TD*%
%TO.P,MX21,1,COL*%
%TO.N,COL4*%
X-150500000Y240600000D03*
%TO.P,MX21,2,ROW*%
%TO.N,Net-(D21-A)*%
X-154600000Y245600000D03*
%TD*%
D10*
%TO.P,D167,1,DOUT*%
%TO.N,Net-(D167-DOUT)*%
X-97701000Y130324000D03*
%TO.P,D167,2,VSS*%
%TO.N,GND*%
X-97701000Y131424000D03*
%TO.P,D167,3,DIN*%
%TO.N,Net-(D166-DOUT)*%
X-99531000Y131424000D03*
%TO.P,D167,4,VDD*%
%TO.N,+5V*%
X-99531000Y130324000D03*
%TD*%
D11*
%TO.P,MX18,1,COL*%
%TO.N,COL1*%
X-241400000Y240600000D03*
%TO.P,MX18,2,ROW*%
%TO.N,Net-(D18-A)*%
X-245500000Y245600000D03*
%TD*%
D10*
%TO.P,D169,1,DOUT*%
%TO.N,Net-(D169-DOUT)*%
X-55017000Y114914000D03*
%TO.P,D169,2,VSS*%
%TO.N,GND*%
X-55017000Y113814000D03*
%TO.P,D169,3,DIN*%
%TO.N,Net-(D168-DOUT)*%
X-53187000Y113814000D03*
%TO.P,D169,4,VDD*%
%TO.N,+5V*%
X-53187000Y114914000D03*
%TD*%
D11*
%TO.P,MX13,1,COL*%
%TO.N,COL4*%
X-150500000Y270900000D03*
%TO.P,MX13,2,ROW*%
%TO.N,Net-(D13-A)*%
X-154600000Y275900000D03*
%TD*%
D10*
%TO.P,D179,1,DOUT*%
%TO.N,Net-(D179-DOUT)*%
X-218901000Y100024000D03*
%TO.P,D179,2,VSS*%
%TO.N,GND*%
X-218901000Y101124000D03*
%TO.P,D179,3,DIN*%
%TO.N,Net-(D178-DOUT)*%
X-220731000Y101124000D03*
%TO.P,D179,4,VDD*%
%TO.N,+5V*%
X-220731000Y100024000D03*
%TD*%
%TO.P,D105,1,DOUT*%
%TO.N,Net-(D105-DOUT)*%
X-55017000Y236114000D03*
%TO.P,D105,2,VSS*%
%TO.N,GND*%
X-55017000Y235014000D03*
%TO.P,D105,3,DIN*%
%TO.N,Net-(D104-DOUT)*%
X-53187000Y235014000D03*
%TO.P,D105,4,VDD*%
%TO.N,+5V*%
X-53187000Y236114000D03*
%TD*%
D11*
%TO.P,MX23,1,COL*%
%TO.N,COL6*%
X-89900000Y240600000D03*
%TO.P,MX23,2,ROW*%
%TO.N,Net-(D23-A)*%
X-94000000Y245600000D03*
%TD*%
D17*
%TO.P,REF\u002A\u002A,1*%
%TO.N,N/C*%
X-46736000Y182372000D03*
%TD*%
D10*
%TO.P,D108,1,DOUT*%
%TO.N,Net-(D108-DOUT)*%
X-145917000Y236114000D03*
%TO.P,D108,2,VSS*%
%TO.N,GND*%
X-145917000Y235014000D03*
%TO.P,D108,3,DIN*%
%TO.N,Net-(D107-DOUT)*%
X-144087000Y235014000D03*
%TO.P,D108,4,VDD*%
%TO.N,+5V*%
X-144087000Y236114000D03*
%TD*%
D11*
%TO.P,MX43,1,COL*%
%TO.N,COL2*%
X-211100000Y149700000D03*
%TO.P,MX43,2,ROW*%
%TO.N,Net-(D43-A)*%
X-215200000Y154700000D03*
%TD*%
D12*
%TO.P,REF\u002A\u002A,1*%
%TO.N,N/C*%
X-85540000Y167600000D03*
D13*
X-85540000Y167600000D03*
%TD*%
D11*
%TO.P,MX35,1,COL*%
%TO.N,COL2*%
X-211100000Y180000000D03*
%TO.P,MX35,2,ROW*%
%TO.N,Net-(D35-A)*%
X-215200000Y185000000D03*
%TD*%
D10*
%TO.P,D176,1,DOUT*%
%TO.N,Net-(D176-DOUT)*%
X-267117000Y114914000D03*
%TO.P,D176,2,VSS*%
%TO.N,GND*%
X-267117000Y113814000D03*
%TO.P,D176,3,DIN*%
%TO.N,Net-(D175-DOUT)*%
X-265287000Y113814000D03*
%TO.P,D176,4,VDD*%
%TO.N,+5V*%
X-265287000Y114914000D03*
%TD*%
%TO.P,D79,1,DOUT*%
%TO.N,Net-(D79-DOUT)*%
X-236817000Y296714000D03*
%TO.P,D79,2,VSS*%
%TO.N,GND*%
X-236817000Y295614000D03*
%TO.P,D79,3,DIN*%
%TO.N,Net-(D78-DOUT)*%
X-234987000Y295614000D03*
%TO.P,D79,4,VDD*%
%TO.N,+5V*%
X-234987000Y296714000D03*
%TD*%
D11*
%TO.P,MX24,1,COL*%
%TO.N,COL7*%
X-59600000Y240600000D03*
%TO.P,MX24,2,ROW*%
%TO.N,Net-(D24-A)*%
X-63700000Y245600000D03*
%TD*%
D10*
%TO.P,D123,1,DOUT*%
%TO.N,Net-(D123-DOUT)*%
X-115617000Y205814000D03*
%TO.P,D123,2,VSS*%
%TO.N,GND*%
X-115617000Y204714000D03*
%TO.P,D123,3,DIN*%
%TO.N,Net-(D122-DOUT)*%
X-113787000Y204714000D03*
%TO.P,D123,4,VDD*%
%TO.N,+5V*%
X-113787000Y205814000D03*
%TD*%
D11*
%TO.P,MX62,1,COL*%
%TO.N,COL5*%
X-120200000Y89100000D03*
%TO.P,MX62,2,ROW*%
%TO.N,Net-(D62-A)*%
X-124300000Y94100000D03*
%TD*%
D10*
%TO.P,D85,1,DOUT*%
%TO.N,Net-(D85-DOUT)*%
X-158301000Y281824000D03*
%TO.P,D85,2,VSS*%
%TO.N,GND*%
X-158301000Y282924000D03*
%TO.P,D85,3,DIN*%
%TO.N,Net-(D84-DOUT)*%
X-160131000Y282924000D03*
%TO.P,D85,4,VDD*%
%TO.N,+5V*%
X-160131000Y281824000D03*
%TD*%
%TO.P,D143,1,DOUT*%
%TO.N,Net-(D143-DOUT)*%
X-236817000Y175514000D03*
%TO.P,D143,2,VSS*%
%TO.N,GND*%
X-236817000Y174414000D03*
%TO.P,D143,3,DIN*%
%TO.N,Net-(D142-DOUT)*%
X-234987000Y174414000D03*
%TO.P,D143,4,VDD*%
%TO.N,+5V*%
X-234987000Y175514000D03*
%TD*%
D11*
%TO.P,MX34,1,COL*%
%TO.N,COL1*%
X-241400000Y180000000D03*
%TO.P,MX34,2,ROW*%
%TO.N,Net-(D34-A)*%
X-245500000Y185000000D03*
%TD*%
D10*
%TO.P,D136,1,DOUT*%
%TO.N,Net-(D136-DOUT)*%
X-67401000Y190924000D03*
%TO.P,D136,2,VSS*%
%TO.N,GND*%
X-67401000Y192024000D03*
%TO.P,D136,3,DIN*%
%TO.N,Net-(D135-DOUT)*%
X-69231000Y192024000D03*
%TO.P,D136,4,VDD*%
%TO.N,+5V*%
X-69231000Y190924000D03*
%TD*%
%TO.P,D166,1,DOUT*%
%TO.N,Net-(D166-DOUT)*%
X-128001000Y130324000D03*
%TO.P,D166,2,VSS*%
%TO.N,GND*%
X-128001000Y131424000D03*
%TO.P,D166,3,DIN*%
%TO.N,Net-(D165-DOUT)*%
X-129831000Y131424000D03*
%TO.P,D166,4,VDD*%
%TO.N,+5V*%
X-129831000Y130324000D03*
%TD*%
D11*
%TO.P,MX49,1,COL*%
%TO.N,COL0*%
X-271700000Y119400000D03*
%TO.P,MX49,2,ROW*%
%TO.N,Net-(D49-A)*%
X-275800000Y124400000D03*
%TD*%
D10*
%TO.P,D142,1,DOUT*%
%TO.N,Net-(D142-DOUT)*%
X-206517000Y175514000D03*
%TO.P,D142,2,VSS*%
%TO.N,GND*%
X-206517000Y174414000D03*
%TO.P,D142,3,DIN*%
%TO.N,Net-(D141-DOUT)*%
X-204687000Y174414000D03*
%TO.P,D142,4,VDD*%
%TO.N,+5V*%
X-204687000Y175514000D03*
%TD*%
%TO.P,D76,1,DOUT*%
%TO.N,Net-(D76-DOUT)*%
X-145917000Y296714000D03*
%TO.P,D76,2,VSS*%
%TO.N,GND*%
X-145917000Y295614000D03*
%TO.P,D76,3,DIN*%
%TO.N,Net-(D75-DOUT)*%
X-144087000Y295614000D03*
%TO.P,D76,4,VDD*%
%TO.N,+5V*%
X-144087000Y296714000D03*
%TD*%
D11*
%TO.P,MX19,1,COL*%
%TO.N,COL2*%
X-211100000Y240600000D03*
%TO.P,MX19,2,ROW*%
%TO.N,Net-(D19-A)*%
X-215200000Y245600000D03*
%TD*%
D10*
%TO.P,D145,1,DOUT*%
%TO.N,Net-(D145-DOUT)*%
X-279501000Y160624000D03*
%TO.P,D145,2,VSS*%
%TO.N,GND*%
X-279501000Y161724000D03*
%TO.P,D145,3,DIN*%
%TO.N,Net-(D144-DOUT)*%
X-281331000Y161724000D03*
%TO.P,D145,4,VDD*%
%TO.N,+5V*%
X-281331000Y160624000D03*
%TD*%
%TO.P,D78,1,DOUT*%
%TO.N,Net-(D78-DOUT)*%
X-206517000Y296714000D03*
%TO.P,D78,2,VSS*%
%TO.N,GND*%
X-206517000Y295614000D03*
%TO.P,D78,3,DIN*%
%TO.N,Net-(D77-DOUT)*%
X-204687000Y295614000D03*
%TO.P,D78,4,VDD*%
%TO.N,+5V*%
X-204687000Y296714000D03*
%TD*%
%TO.P,D149,1,DOUT*%
%TO.N,Net-(D149-DOUT)*%
X-158301000Y160624000D03*
%TO.P,D149,2,VSS*%
%TO.N,GND*%
X-158301000Y161724000D03*
%TO.P,D149,3,DIN*%
%TO.N,Net-(D148-DOUT)*%
X-160131000Y161724000D03*
%TO.P,D149,4,VDD*%
%TO.N,+5V*%
X-160131000Y160624000D03*
%TD*%
D11*
%TO.P,MX3,1,COL*%
%TO.N,COL2*%
X-211100000Y301200000D03*
%TO.P,MX3,2,ROW*%
%TO.N,Net-(D3-A)*%
X-215200000Y306200000D03*
%TD*%
%TO.P,MX1,1,COL*%
%TO.N,COL0*%
X-271700000Y301200000D03*
%TO.P,MX1,2,ROW*%
%TO.N,Net-(D1-A)*%
X-275800000Y306200000D03*
%TD*%
%TO.P,MX32,1,COL*%
%TO.N,COL7*%
X-59600000Y210300000D03*
%TO.P,MX32,2,ROW*%
%TO.N,Net-(D32-A)*%
X-63700000Y215300000D03*
%TD*%
D10*
%TO.P,D121,1,DOUT*%
%TO.N,Net-(D121-DOUT)*%
X-55017000Y205814000D03*
%TO.P,D121,2,VSS*%
%TO.N,GND*%
X-55017000Y204714000D03*
%TO.P,D121,3,DIN*%
%TO.N,Net-(D120-DOUT)*%
X-53187000Y204714000D03*
%TO.P,D121,4,VDD*%
%TO.N,+5V*%
X-53187000Y205814000D03*
%TD*%
D12*
%TO.P,REF\u002A\u002A,1*%
%TO.N,N/C*%
X-167780000Y79980000D03*
D13*
X-167780000Y79980000D03*
%TD*%
D10*
%TO.P,D116,1,DOUT*%
%TO.N,Net-(D116-DOUT)*%
X-188601000Y221224000D03*
%TO.P,D116,2,VSS*%
%TO.N,GND*%
X-188601000Y222324000D03*
%TO.P,D116,3,DIN*%
%TO.N,Net-(D115-DOUT)*%
X-190431000Y222324000D03*
%TO.P,D116,4,VDD*%
%TO.N,+5V*%
X-190431000Y221224000D03*
%TD*%
%TO.P,D146,1,DOUT*%
%TO.N,Net-(D146-DOUT)*%
X-249201000Y160624000D03*
%TO.P,D146,2,VSS*%
%TO.N,GND*%
X-249201000Y161724000D03*
%TO.P,D146,3,DIN*%
%TO.N,Net-(D145-DOUT)*%
X-251031000Y161724000D03*
%TO.P,D146,4,VDD*%
%TO.N,+5V*%
X-251031000Y160624000D03*
%TD*%
%TO.P,D74,1,DOUT*%
%TO.N,Net-(D74-DOUT)*%
X-85317000Y296714000D03*
%TO.P,D74,2,VSS*%
%TO.N,GND*%
X-85317000Y295614000D03*
%TO.P,D74,3,DIN*%
%TO.N,Net-(D73-DOUT)*%
X-83487000Y295614000D03*
%TO.P,D74,4,VDD*%
%TO.N,+5V*%
X-83487000Y296714000D03*
%TD*%
%TO.P,D147,1,DOUT*%
%TO.N,Net-(D147-DOUT)*%
X-218901000Y160624000D03*
%TO.P,D147,2,VSS*%
%TO.N,GND*%
X-218901000Y161724000D03*
%TO.P,D147,3,DIN*%
%TO.N,Net-(D146-DOUT)*%
X-220731000Y161724000D03*
%TO.P,D147,4,VDD*%
%TO.N,+5V*%
X-220731000Y160624000D03*
%TD*%
%TO.P,D86,1,DOUT*%
%TO.N,Net-(D86-DOUT)*%
X-128001000Y281824000D03*
%TO.P,D86,2,VSS*%
%TO.N,GND*%
X-128001000Y282924000D03*
%TO.P,D86,3,DIN*%
%TO.N,Net-(D85-DOUT)*%
X-129831000Y282924000D03*
%TO.P,D86,4,VDD*%
%TO.N,+5V*%
X-129831000Y281824000D03*
%TD*%
D14*
%TO.P,S6,1*%
%TO.N,Net-(D198-A)*%
X-55880000Y139802000D03*
D15*
%TO.P,S6,2*%
%TO.N,COL8*%
X-55880000Y135302000D03*
D16*
%TO.P,S6,3,GND*%
%TO.N,GND*%
X-58380000Y141052000D03*
%TO.P,S6,4,GND*%
X-58380000Y134052000D03*
%TD*%
D11*
%TO.P,MX9,1,COL*%
%TO.N,COL0*%
X-271700000Y270900000D03*
%TO.P,MX9,2,ROW*%
%TO.N,Net-(D9-A)*%
X-275800000Y275900000D03*
%TD*%
D10*
%TO.P,D127,1,DOUT*%
%TO.N,Net-(D127-DOUT)*%
X-236817000Y205814000D03*
%TO.P,D127,2,VSS*%
%TO.N,GND*%
X-236817000Y204714000D03*
%TO.P,D127,3,DIN*%
%TO.N,Net-(D126-DOUT)*%
X-234987000Y204714000D03*
%TO.P,D127,4,VDD*%
%TO.N,+5V*%
X-234987000Y205814000D03*
%TD*%
%TO.P,D183,1,DOUT*%
%TO.N,Net-(D183-DOUT)*%
X-97701000Y100024000D03*
%TO.P,D183,2,VSS*%
%TO.N,GND*%
X-97701000Y101124000D03*
%TO.P,D183,3,DIN*%
%TO.N,Net-(D182-DOUT)*%
X-99531000Y101124000D03*
%TO.P,D183,4,VDD*%
%TO.N,+5V*%
X-99531000Y100024000D03*
%TD*%
D12*
%TO.P,REF\u002A\u002A,1*%
%TO.N,N/C*%
X-163130000Y137880000D03*
D13*
X-163130000Y137880000D03*
%TD*%
D10*
%TO.P,D172,1,DOUT*%
%TO.N,Net-(D172-DOUT)*%
X-145917000Y114914000D03*
%TO.P,D172,2,VSS*%
%TO.N,GND*%
X-145917000Y113814000D03*
%TO.P,D172,3,DIN*%
%TO.N,Net-(D171-DOUT)*%
X-144087000Y113814000D03*
%TO.P,D172,4,VDD*%
%TO.N,+5V*%
X-144087000Y114914000D03*
%TD*%
D11*
%TO.P,MX60,1,COL*%
%TO.N,COL3*%
X-180800000Y89100000D03*
%TO.P,MX60,2,ROW*%
%TO.N,Net-(D60-A)*%
X-184900000Y94100000D03*
%TD*%
D10*
%TO.P,D97,1,DOUT*%
%TO.N,Net-(D97-DOUT)*%
X-279501000Y251524000D03*
%TO.P,D97,2,VSS*%
%TO.N,GND*%
X-279501000Y252624000D03*
%TO.P,D97,3,DIN*%
%TO.N,Net-(D96-DOUT)*%
X-281331000Y252624000D03*
%TO.P,D97,4,VDD*%
%TO.N,+5V*%
X-281331000Y251524000D03*
%TD*%
%TO.P,D111,1,DOUT*%
%TO.N,Net-(D111-DOUT)*%
X-236817000Y236114000D03*
%TO.P,D111,2,VSS*%
%TO.N,GND*%
X-236817000Y235014000D03*
%TO.P,D111,3,DIN*%
%TO.N,Net-(D110-DOUT)*%
X-234987000Y235014000D03*
%TO.P,D111,4,VDD*%
%TO.N,+5V*%
X-234987000Y236114000D03*
%TD*%
%TO.P,D180,1,DOUT*%
%TO.N,Net-(D180-DOUT)*%
X-188601000Y100024000D03*
%TO.P,D180,2,VSS*%
%TO.N,GND*%
X-188601000Y101124000D03*
%TO.P,D180,3,DIN*%
%TO.N,Net-(D179-DOUT)*%
X-190431000Y101124000D03*
%TO.P,D180,4,VDD*%
%TO.N,+5V*%
X-190431000Y100024000D03*
%TD*%
%TO.P,D93,1,DOUT*%
%TO.N,Net-(D93-DOUT)*%
X-176217000Y266414000D03*
%TO.P,D93,2,VSS*%
%TO.N,GND*%
X-176217000Y265314000D03*
%TO.P,D93,3,DIN*%
%TO.N,Net-(D92-DOUT)*%
X-174387000Y265314000D03*
%TO.P,D93,4,VDD*%
%TO.N,+5V*%
X-174387000Y266414000D03*
%TD*%
%TO.P,D131,1,DOUT*%
%TO.N,Net-(D131-DOUT)*%
X-218901000Y190924000D03*
%TO.P,D131,2,VSS*%
%TO.N,GND*%
X-218901000Y192024000D03*
%TO.P,D131,3,DIN*%
%TO.N,Net-(D130-DOUT)*%
X-220731000Y192024000D03*
%TO.P,D131,4,VDD*%
%TO.N,+5V*%
X-220731000Y190924000D03*
%TD*%
%TO.P,D159,1,DOUT*%
%TO.N,Net-(D159-DOUT)*%
X-236817000Y145214000D03*
%TO.P,D159,2,VSS*%
%TO.N,GND*%
X-236817000Y144114000D03*
%TO.P,D159,3,DIN*%
%TO.N,Net-(D158-DOUT)*%
X-234987000Y144114000D03*
%TO.P,D159,4,VDD*%
%TO.N,+5V*%
X-234987000Y145214000D03*
%TD*%
%TO.P,D118,1,DOUT*%
%TO.N,Net-(D118-DOUT)*%
X-128001000Y221224000D03*
%TO.P,D118,2,VSS*%
%TO.N,GND*%
X-128001000Y222324000D03*
%TO.P,D118,3,DIN*%
%TO.N,Net-(D117-DOUT)*%
X-129831000Y222324000D03*
%TO.P,D118,4,VDD*%
%TO.N,+5V*%
X-129831000Y221224000D03*
%TD*%
D11*
%TO.P,MX27,1,COL*%
%TO.N,COL2*%
X-211100000Y210300000D03*
%TO.P,MX27,2,ROW*%
%TO.N,Net-(D27-A)*%
X-215200000Y215300000D03*
%TD*%
D10*
%TO.P,D117,1,DOUT*%
%TO.N,Net-(D117-DOUT)*%
X-158301000Y221224000D03*
%TO.P,D117,2,VSS*%
%TO.N,GND*%
X-158301000Y222324000D03*
%TO.P,D117,3,DIN*%
%TO.N,Net-(D116-DOUT)*%
X-160131000Y222324000D03*
%TO.P,D117,4,VDD*%
%TO.N,+5V*%
X-160131000Y221224000D03*
%TD*%
D11*
%TO.P,MX54,1,COL*%
%TO.N,COL5*%
X-120200000Y119400000D03*
%TO.P,MX54,2,ROW*%
%TO.N,Net-(D54-A)*%
X-124300000Y124400000D03*
%TD*%
D10*
%TO.P,D157,1,DOUT*%
%TO.N,Net-(D157-DOUT)*%
X-176217000Y145214000D03*
%TO.P,D157,2,VSS*%
%TO.N,GND*%
X-176217000Y144114000D03*
%TO.P,D157,3,DIN*%
%TO.N,Net-(D156-DOUT)*%
X-174387000Y144114000D03*
%TO.P,D157,4,VDD*%
%TO.N,+5V*%
X-174387000Y145214000D03*
%TD*%
%TO.P,D67,1,DOUT*%
%TO.N,Net-(D67-DOUT)*%
X-218901000Y312124000D03*
%TO.P,D67,2,VSS*%
%TO.N,GND*%
X-218901000Y313224000D03*
%TO.P,D67,3,DIN*%
%TO.N,Net-(D66-DOUT)*%
X-220731000Y313224000D03*
%TO.P,D67,4,VDD*%
%TO.N,+5V*%
X-220731000Y312124000D03*
%TD*%
D11*
%TO.P,MX58,1,COL*%
%TO.N,COL1*%
X-241400000Y89100000D03*
%TO.P,MX58,2,ROW*%
%TO.N,Net-(D58-A)*%
X-245500000Y94100000D03*
%TD*%
%TO.P,MX33,1,COL*%
%TO.N,COL0*%
X-271700000Y180000000D03*
%TO.P,MX33,2,ROW*%
%TO.N,Net-(D33-A)*%
X-275800000Y185000000D03*
%TD*%
%TO.P,MX16,1,COL*%
%TO.N,COL7*%
X-59600000Y270900000D03*
%TO.P,MX16,2,ROW*%
%TO.N,Net-(D16-A)*%
X-63700000Y275900000D03*
%TD*%
D10*
%TO.P,D189,1,DOUT*%
%TO.N,Net-(D189-DOUT)*%
X-176217000Y84614000D03*
%TO.P,D189,2,VSS*%
%TO.N,GND*%
X-176217000Y83514000D03*
%TO.P,D189,3,DIN*%
%TO.N,Net-(D188-DOUT)*%
X-174387000Y83514000D03*
%TO.P,D189,4,VDD*%
%TO.N,+5V*%
X-174387000Y84614000D03*
%TD*%
%TO.P,D73,1,DOUT*%
%TO.N,Net-(D73-DOUT)*%
X-55017000Y296714000D03*
%TO.P,D73,2,VSS*%
%TO.N,GND*%
X-55017000Y295614000D03*
%TO.P,D73,3,DIN*%
%TO.N,Net-(D72-DOUT)*%
X-53187000Y295614000D03*
%TO.P,D73,4,VDD*%
%TO.N,+5V*%
X-53187000Y296714000D03*
%TD*%
D14*
%TO.P,S4,1*%
%TO.N,Net-(D196-A)*%
X-55880000Y200402000D03*
D15*
%TO.P,S4,2*%
%TO.N,COL8*%
X-55880000Y195902000D03*
D16*
%TO.P,S4,3,GND*%
%TO.N,GND*%
X-58380000Y201652000D03*
%TO.P,S4,4,GND*%
X-58380000Y194652000D03*
%TD*%
D11*
%TO.P,MX30,1,COL*%
%TO.N,COL5*%
X-120200000Y210300000D03*
%TO.P,MX30,2,ROW*%
%TO.N,Net-(D30-A)*%
X-124300000Y215300000D03*
%TD*%
%TO.P,MX7,1,COL*%
%TO.N,COL6*%
X-89900000Y301200000D03*
%TO.P,MX7,2,ROW*%
%TO.N,Net-(D7-A)*%
X-94000000Y306200000D03*
%TD*%
D14*
%TO.P,S7,1*%
%TO.N,Net-(D199-A)*%
X-55880000Y109502000D03*
D15*
%TO.P,S7,2*%
%TO.N,COL8*%
X-55880000Y105002000D03*
D16*
%TO.P,S7,3,GND*%
%TO.N,GND*%
X-58380000Y110752000D03*
%TO.P,S7,4,GND*%
X-58380000Y103752000D03*
%TD*%
D11*
%TO.P,MX28,1,COL*%
%TO.N,COL3*%
X-180800000Y210300000D03*
%TO.P,MX28,2,ROW*%
%TO.N,Net-(D28-A)*%
X-184900000Y215300000D03*
%TD*%
D10*
%TO.P,D171,1,DOUT*%
%TO.N,Net-(D171-DOUT)*%
X-115617000Y114914000D03*
%TO.P,D171,2,VSS*%
%TO.N,GND*%
X-115617000Y113814000D03*
%TO.P,D171,3,DIN*%
%TO.N,Net-(D170-DOUT)*%
X-113787000Y113814000D03*
%TO.P,D171,4,VDD*%
%TO.N,+5V*%
X-113787000Y114914000D03*
%TD*%
%TO.P,D141,1,DOUT*%
%TO.N,Net-(D141-DOUT)*%
X-176217000Y175514000D03*
%TO.P,D141,2,VSS*%
%TO.N,GND*%
X-176217000Y174414000D03*
%TO.P,D141,3,DIN*%
%TO.N,Net-(D140-DOUT)*%
X-174387000Y174414000D03*
%TO.P,D141,4,VDD*%
%TO.N,+5V*%
X-174387000Y175514000D03*
%TD*%
D11*
%TO.P,MX26,1,COL*%
%TO.N,COL1*%
X-241400000Y210300000D03*
%TO.P,MX26,2,ROW*%
%TO.N,Net-(D26-A)*%
X-245500000Y215300000D03*
%TD*%
%TO.P,MX63,1,COL*%
%TO.N,COL6*%
X-89900000Y89100000D03*
%TO.P,MX63,2,ROW*%
%TO.N,Net-(D63-A)*%
X-94000000Y94100000D03*
%TD*%
%TO.P,MX44,1,COL*%
%TO.N,COL3*%
X-180800000Y149700000D03*
%TO.P,MX44,2,ROW*%
%TO.N,Net-(D44-A)*%
X-184900000Y154700000D03*
%TD*%
%TO.P,MX39,1,COL*%
%TO.N,COL6*%
X-89900000Y180000000D03*
%TO.P,MX39,2,ROW*%
%TO.N,Net-(D39-A)*%
X-94000000Y185000000D03*
%TD*%
%TO.P,MX20,1,COL*%
%TO.N,COL3*%
X-180800000Y240600000D03*
%TO.P,MX20,2,ROW*%
%TO.N,Net-(D20-A)*%
X-184900000Y245600000D03*
%TD*%
D12*
%TO.P,REF\u002A\u002A,1*%
%TO.N,N/C*%
X-285470000Y316470000D03*
D13*
X-285470000Y316470000D03*
%TD*%
D10*
%TO.P,D162,1,DOUT*%
%TO.N,Net-(D162-DOUT)*%
X-249201000Y130324000D03*
%TO.P,D162,2,VSS*%
%TO.N,GND*%
X-249201000Y131424000D03*
%TO.P,D162,3,DIN*%
%TO.N,Net-(D161-DOUT)*%
X-251031000Y131424000D03*
%TO.P,D162,4,VDD*%
%TO.N,+5V*%
X-251031000Y130324000D03*
%TD*%
D12*
%TO.P,REF\u002A\u002A,1*%
%TO.N,N/C*%
X-284640000Y81220000D03*
D13*
X-284640000Y81220000D03*
%TD*%
D11*
%TO.P,MX25,1,COL*%
%TO.N,COL0*%
X-271700000Y210300000D03*
%TO.P,MX25,2,ROW*%
%TO.N,Net-(D25-A)*%
X-275800000Y215300000D03*
%TD*%
D10*
%TO.P,D144,1,DOUT*%
%TO.N,Net-(D144-DOUT)*%
X-267117000Y175514000D03*
%TO.P,D144,2,VSS*%
%TO.N,GND*%
X-267117000Y174414000D03*
%TO.P,D144,3,DIN*%
%TO.N,Net-(D143-DOUT)*%
X-265287000Y174414000D03*
%TO.P,D144,4,VDD*%
%TO.N,+5V*%
X-265287000Y175514000D03*
%TD*%
D11*
%TO.P,MX59,1,COL*%
%TO.N,COL2*%
X-211100000Y89100000D03*
%TO.P,MX59,2,ROW*%
%TO.N,Net-(D59-A)*%
X-215200000Y94100000D03*
%TD*%
D10*
%TO.P,D181,1,DOUT*%
%TO.N,Net-(D181-DOUT)*%
X-158301000Y100024000D03*
%TO.P,D181,2,VSS*%
%TO.N,GND*%
X-158301000Y101124000D03*
%TO.P,D181,3,DIN*%
%TO.N,Net-(D180-DOUT)*%
X-160131000Y101124000D03*
%TO.P,D181,4,VDD*%
%TO.N,+5V*%
X-160131000Y100024000D03*
%TD*%
D11*
%TO.P,MX41,1,COL*%
%TO.N,COL0*%
X-271700000Y149700000D03*
%TO.P,MX41,2,ROW*%
%TO.N,Net-(D41-A)*%
X-275800000Y154700000D03*
%TD*%
%TO.P,MX31,1,COL*%
%TO.N,COL6*%
X-89900000Y210300000D03*
%TO.P,MX31,2,ROW*%
%TO.N,Net-(D31-A)*%
X-94000000Y215300000D03*
%TD*%
D10*
%TO.P,D102,1,DOUT*%
%TO.N,Net-(D102-DOUT)*%
X-128001000Y251524000D03*
%TO.P,D102,2,VSS*%
%TO.N,GND*%
X-128001000Y252624000D03*
%TO.P,D102,3,DIN*%
%TO.N,Net-(D101-DOUT)*%
X-129831000Y252624000D03*
%TO.P,D102,4,VDD*%
%TO.N,+5V*%
X-129831000Y251524000D03*
%TD*%
%TO.P,D104,1,DOUT*%
%TO.N,Net-(D104-DOUT)*%
X-67401000Y251524000D03*
%TO.P,D104,2,VSS*%
%TO.N,GND*%
X-67401000Y252624000D03*
%TO.P,D104,3,DIN*%
%TO.N,Net-(D103-DOUT)*%
X-69231000Y252624000D03*
%TO.P,D104,4,VDD*%
%TO.N,+5V*%
X-69231000Y251524000D03*
%TD*%
D11*
%TO.P,MX10,1,COL*%
%TO.N,COL1*%
X-241400000Y270900000D03*
%TO.P,MX10,2,ROW*%
%TO.N,Net-(D10-A)*%
X-245500000Y275900000D03*
%TD*%
%TO.P,MX11,1,COL*%
%TO.N,COL2*%
X-211100000Y270900000D03*
%TO.P,MX11,2,ROW*%
%TO.N,Net-(D11-A)*%
X-215200000Y275900000D03*
%TD*%
D10*
%TO.P,D68,1,DOUT*%
%TO.N,Net-(D68-DOUT)*%
X-188601000Y312124000D03*
%TO.P,D68,2,VSS*%
%TO.N,GND*%
X-188601000Y313224000D03*
%TO.P,D68,3,DIN*%
%TO.N,Net-(D67-DOUT)*%
X-190431000Y313224000D03*
%TO.P,D68,4,VDD*%
%TO.N,+5V*%
X-190431000Y312124000D03*
%TD*%
%TO.P,D155,1,DOUT*%
%TO.N,Net-(D155-DOUT)*%
X-115617000Y145214000D03*
%TO.P,D155,2,VSS*%
%TO.N,GND*%
X-115617000Y144114000D03*
%TO.P,D155,3,DIN*%
%TO.N,Net-(D154-DOUT)*%
X-113787000Y144114000D03*
%TO.P,D155,4,VDD*%
%TO.N,+5V*%
X-113787000Y145214000D03*
%TD*%
%TO.P,D124,1,DOUT*%
%TO.N,Net-(D124-DOUT)*%
X-145917000Y205814000D03*
%TO.P,D124,2,VSS*%
%TO.N,GND*%
X-145917000Y204714000D03*
%TO.P,D124,3,DIN*%
%TO.N,Net-(D123-DOUT)*%
X-144087000Y204714000D03*
%TO.P,D124,4,VDD*%
%TO.N,+5V*%
X-144087000Y205814000D03*
%TD*%
%TO.P,D138,1,DOUT*%
%TO.N,Net-(D138-DOUT)*%
X-85317000Y175514000D03*
%TO.P,D138,2,VSS*%
%TO.N,GND*%
X-85317000Y174414000D03*
%TO.P,D138,3,DIN*%
%TO.N,Net-(D137-DOUT)*%
X-83487000Y174414000D03*
%TO.P,D138,4,VDD*%
%TO.N,+5V*%
X-83487000Y175514000D03*
%TD*%
%TO.P,D140,1,DOUT*%
%TO.N,Net-(D140-DOUT)*%
X-145917000Y175514000D03*
%TO.P,D140,2,VSS*%
%TO.N,GND*%
X-145917000Y174414000D03*
%TO.P,D140,3,DIN*%
%TO.N,Net-(D139-DOUT)*%
X-144087000Y174414000D03*
%TO.P,D140,4,VDD*%
%TO.N,+5V*%
X-144087000Y175514000D03*
%TD*%
%TO.P,D128,1,DOUT*%
%TO.N,Net-(D128-DOUT)*%
X-267117000Y205814000D03*
%TO.P,D128,2,VSS*%
%TO.N,GND*%
X-267117000Y204714000D03*
%TO.P,D128,3,DIN*%
%TO.N,Net-(D127-DOUT)*%
X-265287000Y204714000D03*
%TO.P,D128,4,VDD*%
%TO.N,+5V*%
X-265287000Y205814000D03*
%TD*%
D18*
%TO.P,U1,57,GND*%
%TO.N,GND*%
X-134869000Y310901000D03*
X-136144000Y310901000D03*
X-137419000Y310901000D03*
X-134869000Y309626000D03*
X-136144000Y309626000D03*
X-137419000Y309626000D03*
X-134869000Y308351000D03*
X-136144000Y308351000D03*
X-137419000Y308351000D03*
%TD*%
D19*
%TO.P,J2,S1,SHIELD*%
%TO.N,GND*%
X-172685000Y319568000D03*
D20*
X-172685000Y316588000D03*
D19*
X-163495000Y319568000D03*
D20*
X-163495000Y316588000D03*
%TD*%
D21*
%TO.N,VBUS*%
X-170100000Y314270000D03*
X-171260000Y314030000D03*
%TO.N,+5V*%
X-170713400Y307263800D03*
X-164820600Y310692800D03*
X-252603000Y135382000D03*
X-162179000Y311277000D03*
X-240665000Y134747000D03*
%TO.N,+1V1*%
X-138684000Y304772000D03*
X-131572000Y308864000D03*
X-140970000Y309880000D03*
%TO.N,ROW0*%
X-131445000Y307390800D03*
X-129844800Y303977000D03*
%TO.N,Net-(D65-DIN)*%
X-139827000Y317779400D03*
D22*
%TO.N,Net-(D81-DOUT)*%
X-277876000Y281940000D03*
X-253746000Y282956000D03*
%TO.N,Net-(D82-DOUT)*%
X-223774000Y282956000D03*
X-247904000Y281940000D03*
%TO.N,Net-(D83-DOUT)*%
X-193294000Y282956000D03*
X-217170000Y281686000D03*
%TO.N,Net-(D84-DOUT)*%
X-162814000Y282956000D03*
X-186944000Y281686000D03*
%TO.N,Net-(D85-DOUT)*%
X-133096000Y282956000D03*
X-156464000Y281940000D03*
%TO.N,Net-(D86-DOUT)*%
X-101600000Y282956000D03*
X-125984000Y281940000D03*
%TO.N,Net-(D87-DOUT)*%
X-95250000Y281940000D03*
X-71628000Y282956000D03*
%TO.N,Net-(D88-DOUT)*%
X-51054000Y265176000D03*
X-66040000Y281686000D03*
D21*
%TO.N,Net-(D100-DIN)*%
X-216662000Y251460000D03*
X-192024000Y252730000D03*
D22*
%TO.N,Net-(D100-DOUT)*%
X-185674000Y251714000D03*
X-162306000Y252730000D03*
%TO.N,Net-(D101-DOUT)*%
X-156210000Y251460000D03*
X-131826000Y252730000D03*
%TO.N,Net-(D102-DOUT)*%
X-125730000Y251968000D03*
X-101854000Y252730000D03*
%TO.N,Net-(D103-DOUT)*%
X-96012000Y251460000D03*
X-71882000Y252730000D03*
%TO.N,Net-(D104-DOUT)*%
X-65024000Y251460000D03*
X-54102000Y238252000D03*
%TO.N,Net-(D105-DOUT)*%
X-81026000Y235458000D03*
X-57150000Y235966000D03*
%TO.N,Net-(D109-DOUT)*%
X-202438000Y235458000D03*
X-178816000Y236220000D03*
%TO.N,Net-(D113-DOUT)*%
X-277114000Y221488000D03*
X-253492000Y222504000D03*
%TO.N,Net-(D115-DOUT)*%
X-193548000Y222504000D03*
X-212598000Y221488000D03*
%TO.N,Net-(D117-DOUT)*%
X-152908000Y221996000D03*
X-132080000Y222504000D03*
%TO.N,Net-(D108-DOUT)*%
X-172466000Y235458000D03*
X-149098000Y235712000D03*
%TO.N,Net-(D119-DOUT)*%
X-94996000Y221488000D03*
X-70866000Y222504000D03*
%TO.N,Net-(D112-DOUT)*%
X-281178000Y224282000D03*
X-271018000Y233426000D03*
%TO.N,Net-(D121-DOUT)*%
X-81534000Y204978000D03*
X-57912000Y205486000D03*
%TO.N,Net-(D114-DOUT)*%
X-222758000Y222250000D03*
X-246888000Y221234000D03*
%TO.N,Net-(D116-DOUT)*%
X-182880000Y221234000D03*
X-161290000Y222250000D03*
%TO.N,Net-(D118-DOUT)*%
X-101854000Y222504000D03*
X-125222000Y221488000D03*
%TO.N,Net-(D120-DOUT)*%
X-51816000Y204724000D03*
X-61468000Y221234000D03*
D21*
%TO.N,SWDIO*%
X-130479800Y307898800D03*
X-120777000Y310337200D03*
%TO.N,SWCLK*%
X-119811800Y310896000D03*
X-130759200Y308686200D03*
%TO.N,~{RESET}*%
X-123875800Y309753000D03*
X-129082800Y304063400D03*
%TO.N,COL0*%
X-172720000Y314706000D03*
X-132080000Y314706000D03*
%TO.N,COL1*%
X-172720000Y314023503D03*
X-131572000Y315976000D03*
%TO.N,COL2*%
X-132437301Y315571301D03*
X-172720000Y313436000D03*
%TO.N,COL5*%
X-131267200Y301955200D03*
X-123672600Y300609000D03*
%TO.N,COL7*%
X-130302000Y314198000D03*
X-75946000Y302006000D03*
X-117602000Y312928000D03*
X-63246000Y302006000D03*
%TO.N,QSPI_SD0*%
X-138663999Y302773399D03*
X-141757400Y311098000D03*
%TO.N,QSPI_SCLK*%
X-138557000Y303453800D03*
X-140970000Y311098000D03*
%TO.N,QSPI_SD1*%
X-142824200Y299516800D03*
X-143154400Y311098000D03*
%TO.N,COL8*%
X-132342739Y314180522D03*
X-128524000Y320548000D03*
X-47498000Y285750000D03*
X-52070000Y285750000D03*
%TO.N,QSPI_SD3*%
X-140970000Y310489600D03*
X-135280999Y304139001D03*
%TO.N,QSPI_SD2*%
X-142392400Y299974000D03*
X-142417800Y311098000D03*
%TO.N,QSPI_SS_N*%
X-143814800Y311098000D03*
X-143294202Y299164298D03*
D22*
%TO.N,Net-(D89-DOUT)*%
X-81788000Y265526500D03*
X-57150000Y266446000D03*
%TO.N,Net-(D90-DOUT)*%
X-86868000Y266446000D03*
X-111760000Y265526500D03*
%TO.N,Net-(D91-DOUT)*%
X-142240000Y265526500D03*
X-117094000Y266446000D03*
%TO.N,Net-(D92-DOUT)*%
X-148336000Y266192000D03*
X-172720000Y265684000D03*
%TO.N,Net-(D93-DOUT)*%
X-180086000Y266446000D03*
X-202692000Y265526500D03*
%TO.N,Net-(D94-DOUT)*%
X-233426000Y265526500D03*
X-208788000Y266446000D03*
%TO.N,Net-(D95-DOUT)*%
X-262890000Y265684000D03*
X-238760000Y266446000D03*
%TO.N,Net-(D96-DOUT)*%
X-270510000Y264160000D03*
X-281432000Y254254000D03*
%TO.N,Net-(D97-DOUT)*%
X-252730000Y252730000D03*
X-277622000Y251460000D03*
%TO.N,Net-(D98-DOUT)*%
X-223266000Y252730000D03*
X-247142000Y251460000D03*
%TO.N,Net-(D106-DOUT)*%
X-86868000Y236220000D03*
X-111506000Y235712000D03*
%TO.N,Net-(D107-DOUT)*%
X-117856000Y236220000D03*
X-142240000Y235458000D03*
%TO.N,Net-(D110-DOUT)*%
X-232918000Y235458000D03*
X-207772000Y236220000D03*
%TO.N,Net-(D111-DOUT)*%
X-238506000Y235966000D03*
X-262890000Y235458000D03*
%TO.N,Net-(D122-DOUT)*%
X-88392000Y205740000D03*
X-112268000Y204978000D03*
%TO.N,Net-(D123-DOUT)*%
X-119380000Y205486000D03*
X-142240000Y204978000D03*
%TO.N,Net-(D124-DOUT)*%
X-149352000Y205232000D03*
X-171958000Y204978000D03*
%TO.N,Net-(D125-DOUT)*%
X-179832000Y205232000D03*
X-201930000Y205232000D03*
%TO.N,Net-(D126-DOUT)*%
X-232156000Y204978000D03*
X-210312000Y205486000D03*
%TO.N,Net-(D127-DOUT)*%
X-240030000Y205740000D03*
X-263652000Y204978000D03*
%TO.N,Net-(D128-DOUT)*%
X-281432000Y193548000D03*
X-271018000Y202184000D03*
%TO.N,Net-(D129-DOUT)*%
X-252984000Y192278000D03*
X-272796000Y192278000D03*
%TO.N,Net-(D130-DOUT)*%
X-242062000Y192278000D03*
X-222758000Y192024000D03*
%TO.N,Net-(D131-DOUT)*%
X-214884000Y191770000D03*
X-193040000Y192024000D03*
%TO.N,Net-(D132-DOUT)*%
X-162052000Y192024000D03*
X-184404000Y192024000D03*
%TO.N,Net-(D133-DOUT)*%
X-132080000Y192024000D03*
X-151892000Y192278000D03*
%TO.N,Net-(D134-DOUT)*%
X-101346000Y192024000D03*
X-121666000Y192278000D03*
%TO.N,Net-(D135-DOUT)*%
X-72136000Y192278000D03*
X-90932000Y192024000D03*
%TO.N,Net-(D136-DOUT)*%
X-51562000Y174244000D03*
X-60198000Y184658000D03*
%TO.N,Net-(D137-DOUT)*%
X-82042000Y174626500D03*
X-58928000Y175260000D03*
%TO.N,Net-(D138-DOUT)*%
X-88646000Y175006000D03*
X-112522000Y174626500D03*
%TO.N,Net-(D139-DOUT)*%
X-119634000Y174752000D03*
X-142240000Y174626500D03*
%TO.N,Net-(D140-DOUT)*%
X-149352000Y175006000D03*
X-172720000Y174626500D03*
%TO.N,Net-(D141-DOUT)*%
X-202692000Y174752000D03*
X-180086000Y175006000D03*
%TO.N,Net-(D142-DOUT)*%
X-233172000Y174626500D03*
X-210566000Y174752000D03*
%TO.N,Net-(D143-DOUT)*%
X-240538000Y175006000D03*
X-262890000Y174752000D03*
%TO.N,Net-(D144-DOUT)*%
X-271250000Y172212000D03*
X-281432000Y163322000D03*
%TO.N,Net-(D145-DOUT)*%
X-253238000Y161798000D03*
X-275590000Y160782000D03*
%TO.N,Net-(D146-DOUT)*%
X-223774000Y161798000D03*
X-243078000Y161798000D03*
%TO.N,Net-(D147-DOUT)*%
X-212090000Y162052000D03*
X-192786000Y162052000D03*
%TO.N,Net-(D148-DOUT)*%
X-181864000Y161798000D03*
X-161798000Y161798000D03*
%TO.N,Net-(D149-DOUT)*%
X-131826000Y161798000D03*
X-151638000Y162306000D03*
%TO.N,Net-(D150-DOUT)*%
X-121412000Y162560000D03*
X-102108000Y161798000D03*
%TO.N,Net-(D151-DOUT)*%
X-72644000Y161798000D03*
X-91694000Y162052000D03*
%TO.N,Net-(D152-DOUT)*%
X-60706000Y159512000D03*
X-51562000Y144018000D03*
%TO.N,Net-(D153-DOUT)*%
X-82296000Y144326500D03*
X-58166000Y144780000D03*
%TO.N,Net-(D154-DOUT)*%
X-112014000Y144326500D03*
X-88900000Y144526000D03*
%TO.N,Net-(D155-DOUT)*%
X-118872000Y145288000D03*
X-142494000Y144326500D03*
%TO.N,Net-(D156-DOUT)*%
X-148082000Y144780000D03*
X-172720000Y144326500D03*
%TO.N,Net-(D157-DOUT)*%
X-179578000Y144526000D03*
X-202692000Y144326500D03*
%TO.N,Net-(D158-DOUT)*%
X-233172000Y144326500D03*
X-209804000Y145034000D03*
%TO.N,Net-(D159-DOUT)*%
X-240030000Y144780000D03*
X-263652000Y144326500D03*
%TO.N,Net-(D160-DOUT)*%
X-281432000Y133096000D03*
X-270764000Y139446000D03*
%TO.N,Net-(D161-DOUT)*%
X-254000000Y131572000D03*
X-277876000Y130302000D03*
%TO.N,Net-(D162-DOUT)*%
X-221996000Y131572000D03*
X-247142000Y130302000D03*
%TO.N,Net-(D163-DOUT)*%
X-216662000Y130302000D03*
X-192532000Y131572000D03*
%TO.N,Net-(D164-DOUT)*%
X-186436000Y130302000D03*
X-163576000Y131318000D03*
%TO.N,Net-(D165-DOUT)*%
X-155956000Y130302000D03*
X-132080000Y131318000D03*
%TO.N,Net-(D166-DOUT)*%
X-126746000Y130302000D03*
X-103378000Y131318000D03*
%TO.N,Net-(D167-DOUT)*%
X-72644000Y131318000D03*
X-96012000Y130302000D03*
%TO.N,Net-(D168-DOUT)*%
X-60706000Y126492000D03*
X-51308000Y113792000D03*
%TO.N,Net-(D169-DOUT)*%
X-58674000Y114300000D03*
X-81534000Y114046000D03*
%TO.N,Net-(D170-DOUT)*%
X-87122000Y114554000D03*
X-112014000Y114026500D03*
%TO.N,Net-(D171-DOUT)*%
X-142748000Y114046000D03*
X-119380000Y114554000D03*
%TO.N,Net-(D172-DOUT)*%
X-172466000Y114026500D03*
X-148844000Y114808000D03*
%TO.N,Net-(D173-DOUT)*%
X-180086000Y114300000D03*
X-202184000Y114026500D03*
%TO.N,Net-(D174-DOUT)*%
X-210058000Y114300000D03*
X-232918000Y114026500D03*
%TO.N,Net-(D175-DOUT)*%
X-263652000Y114046000D03*
X-240538000Y114554000D03*
%TO.N,Net-(D176-DOUT)*%
X-271018000Y110998000D03*
X-281432000Y102870000D03*
%TO.N,Net-(D177-DOUT)*%
X-272542000Y101346000D03*
X-252222000Y101092000D03*
%TO.N,Net-(D178-DOUT)*%
X-222758000Y101092000D03*
X-242062000Y100584000D03*
%TO.N,Net-(D179-DOUT)*%
X-215392000Y100076000D03*
X-193040000Y101092000D03*
%TO.N,Net-(D180-DOUT)*%
X-163830000Y101092000D03*
X-182118000Y100076000D03*
%TO.N,Net-(D181-DOUT)*%
X-133604000Y101092000D03*
X-152400000Y100076000D03*
%TO.N,Net-(D182-DOUT)*%
X-102108000Y101092000D03*
X-121412000Y101092000D03*
%TO.N,Net-(D183-DOUT)*%
X-71374000Y101092000D03*
X-93218000Y100076000D03*
D21*
%TO.N,Net-(D184-DOUT)*%
X-51562000Y90424000D03*
D22*
X-60452000Y99314000D03*
D21*
%TO.N,GND*%
X-67564000Y102362000D03*
X-240538000Y233172000D03*
X-90678000Y223774000D03*
X-117094000Y83820000D03*
X-218694000Y163322000D03*
X-272796000Y168656000D03*
X-177800000Y83820000D03*
X-56642000Y144526000D03*
X-272288000Y229108000D03*
X-266192000Y146304000D03*
X-85471000Y263398000D03*
X-97536000Y132588000D03*
X-115824000Y233680000D03*
X-149860000Y233680000D03*
X-140589000Y293878000D03*
X-182118000Y193548000D03*
X-218694000Y132334000D03*
X-115570000Y263144000D03*
X-188468000Y163576000D03*
X-211582000Y193548000D03*
X-237998000Y174752000D03*
X-249174000Y193548000D03*
X-67310000Y224282000D03*
X-267208000Y233680000D03*
X-119380000Y233680000D03*
X-242062000Y163322000D03*
X-177800000Y144526000D03*
X-85344000Y233680000D03*
X-67564000Y132842000D03*
X-147066000Y174752000D03*
X-212090000Y254000000D03*
X-268732000Y83820000D03*
X-117094000Y114300000D03*
X-211836000Y224282000D03*
X-218694000Y102616000D03*
X-249174000Y223520000D03*
X-242824000Y223520000D03*
X-270764000Y288036000D03*
X-86614000Y144526000D03*
X-206502000Y264160000D03*
X-185293000Y293243000D03*
X-151638000Y253746000D03*
X-122682000Y313309000D03*
X-188468000Y223774000D03*
X-158242000Y163322000D03*
X-210312000Y233680000D03*
X-273050000Y266446000D03*
X-97536000Y224028000D03*
X-249174000Y102616000D03*
X-97536000Y163068000D03*
X-90424000Y254508000D03*
X-58674000Y214630000D03*
X-272542000Y107696000D03*
X-176276000Y233680000D03*
X-161798000Y313690000D03*
X-57150000Y83566000D03*
X-117094000Y204978000D03*
X-146177000Y263144000D03*
X-87122000Y204978000D03*
X-225880000Y294530000D03*
X-120904000Y223774000D03*
X-128016000Y193802000D03*
X-127762000Y163322000D03*
X-58674000Y295148000D03*
X-138938000Y299339000D03*
X-115570000Y294132000D03*
X-218948000Y254254000D03*
X-118364000Y174752000D03*
X-272796000Y162560000D03*
X-97536000Y193294000D03*
X-177800000Y174752000D03*
X-146050000Y293878000D03*
X-86614000Y174752000D03*
X-98044000Y102362000D03*
X-126873000Y283464000D03*
X-147320000Y204978000D03*
X-55118000Y293370000D03*
X-218948000Y193548000D03*
X-265938000Y116078000D03*
X-181864000Y254000000D03*
X-60833000Y259207000D03*
X-238252000Y205232000D03*
X-89408000Y175514000D03*
X-279400000Y284226000D03*
X-267208000Y294386000D03*
X-157988000Y132842000D03*
X-267208000Y112522000D03*
X-130683000Y310134000D03*
X-128016000Y102362000D03*
X-87122000Y83820000D03*
X-268224000Y265684000D03*
X-242316000Y253492000D03*
X-272288000Y254254000D03*
X-238506000Y83820000D03*
X-154940000Y291846000D03*
X-176276000Y294132000D03*
X-67310000Y254254000D03*
X-177292000Y114300000D03*
X-90932000Y193802000D03*
X-242062000Y193548000D03*
X-272796000Y136398000D03*
X-55118000Y263779000D03*
X-236982000Y233426000D03*
X-182372000Y224028000D03*
X-146050000Y233680000D03*
X-67310000Y162814000D03*
X-128016000Y223520000D03*
X-236982000Y294132000D03*
X-128016000Y133096000D03*
X-158242000Y223774000D03*
X-147320000Y83820000D03*
X-120904000Y254254000D03*
X-147320000Y144526000D03*
X-272542000Y193548000D03*
X-267716000Y202946000D03*
X-265938000Y207010000D03*
X-158242000Y102362000D03*
X-59182000Y233426000D03*
X-56388000Y113792000D03*
X-179832000Y233426000D03*
X-218694000Y223774000D03*
X-176276000Y263779000D03*
X-206756000Y294386000D03*
X-267970000Y174752000D03*
X-267208000Y173228000D03*
X-188468000Y102362000D03*
X-58674000Y193294000D03*
X-206502000Y233680000D03*
X-207772000Y114046000D03*
X-254762000Y138684000D03*
X-272288000Y198882000D03*
X-141605000Y302133000D03*
X-177546000Y204978000D03*
X-58928000Y176276000D03*
X-116840000Y174752000D03*
X-238506000Y114300000D03*
X-249174000Y254254000D03*
X-58166000Y235966000D03*
X-188468000Y254000000D03*
X-87884000Y114046000D03*
X-138938000Y297180000D03*
X-89154000Y233680000D03*
X-147320000Y114300000D03*
X-131318000Y313182000D03*
X-179578000Y294132000D03*
X-236855000Y254762000D03*
X-52578000Y293370000D03*
X-97536000Y254254000D03*
X-246888000Y292100000D03*
X-208280000Y205232000D03*
X-158242000Y254254000D03*
X-249174000Y163576000D03*
X-64770000Y291084000D03*
X-207518000Y174752000D03*
X-118618000Y293370000D03*
X-96139000Y283210000D03*
X-149860000Y293370000D03*
X-158242000Y193294000D03*
X-188468000Y132842000D03*
X-121666000Y194056000D03*
X-210312000Y293878000D03*
X-85344000Y293624000D03*
X-140335000Y301117000D03*
X-267208000Y142494000D03*
X-272542000Y223520000D03*
X-208026000Y144526000D03*
X-67310000Y193548000D03*
X-88138000Y294132000D03*
X-238506000Y144526000D03*
X-188214000Y193548000D03*
X-151638000Y223774000D03*
X-60960000Y244094000D03*
X-128016000Y254254000D03*
X-239268000Y293878000D03*
X-151892000Y193802000D03*
X-208534000Y83820000D03*
X-117348000Y144526000D03*
%TD*%
D23*
%TO.N,VBUS*%
X-171260000Y314030000D02*
X-170340000Y314030000D01*
X-170340000Y314030000D02*
X-170100000Y314270000D01*
D24*
%TO.N,+5V*%
X-280755000Y220648000D02*
X-281331000Y221224000D01*
X-192683877Y190924000D02*
X-205263000Y203503123D01*
X-174387000Y89142877D02*
X-163505877Y100024000D01*
X-265287000Y208892877D02*
X-252955877Y221224000D01*
X-52611000Y206390000D02*
X-52611000Y235538000D01*
X-204687000Y236114000D02*
X-204687000Y238886000D01*
X-63295728Y308326000D02*
X-53187000Y298217272D01*
X-252807877Y160624000D02*
X-265863000Y173679123D01*
X-281331000Y251524000D02*
X-280755000Y252100000D01*
X-174387000Y266414000D02*
X-174387000Y269862877D01*
X-204687000Y266414000D02*
X-204687000Y272538000D01*
X-204687000Y297601528D02*
X-210612472Y303527000D01*
X-280755000Y130900000D02*
X-280755000Y160048000D01*
X-161749000Y160624000D02*
X-175006000Y173881000D01*
X-234987000Y266414000D02*
X-234987000Y270222877D01*
X-190431000Y221224000D02*
X-193011877Y221224000D01*
X-167574000Y303527000D02*
X-174387000Y296714000D01*
X-69951000Y311404000D02*
X-69231000Y312124000D01*
X-161843877Y251524000D02*
X-174963000Y264643123D01*
X-204687000Y116068000D02*
X-190431000Y130324000D01*
X-265863000Y265838000D02*
X-265287000Y266414000D01*
X-235563000Y265838000D02*
X-234987000Y266414000D01*
X-174963000Y204138000D02*
X-174963000Y205238000D01*
X-189855000Y132233377D02*
X-202835623Y145214000D01*
X-83487000Y178962877D02*
X-71525877Y190924000D01*
X-222433877Y100024000D02*
X-235563000Y113153123D01*
X-174387000Y147986000D02*
X-161749000Y160624000D01*
X-228174000Y303527000D02*
X-234987000Y296714000D01*
X-280755000Y161200000D02*
X-280755000Y190348000D01*
X-281331000Y312124000D02*
X-280755000Y311548000D01*
X-204687000Y84614000D02*
X-204687000Y88052877D01*
X-281331000Y221224000D02*
X-281907000Y221800000D01*
X-205263000Y173767000D02*
X-205263000Y174938000D01*
X-280755000Y100600000D02*
X-280755000Y129748000D01*
X-197874000Y303527000D02*
X-204687000Y296714000D01*
X-265863000Y264738000D02*
X-265863000Y265838000D01*
X-235563000Y113153123D02*
X-235563000Y114338000D01*
X-71239877Y281824000D02*
X-84063000Y294647123D01*
X-101211877Y281824000D02*
X-114363000Y294975123D01*
X-53187000Y175514000D02*
X-53763000Y176090000D01*
X-53763000Y115490000D02*
X-53763000Y144638000D01*
X-174387000Y178286000D02*
X-161749000Y190924000D01*
X-271212471Y303527000D02*
X-265287000Y297601529D01*
X-144087000Y205814000D02*
X-144087000Y208680877D01*
X-280755000Y281248000D02*
X-281331000Y281824000D01*
X-190431000Y251524000D02*
X-192049000Y251524000D01*
X-84063000Y296138000D02*
X-83487000Y296714000D01*
X-234987000Y270222877D02*
X-223385877Y281824000D01*
X-164820600Y307848000D02*
X-165404800Y307263800D01*
X-251031000Y251524000D02*
X-252649000Y251524000D01*
X-174963000Y296138000D02*
X-174387000Y296714000D01*
X-265287000Y238886000D02*
X-252649000Y251524000D01*
X-234987000Y297601528D02*
X-240912472Y303527000D01*
X-160707000Y311548000D02*
X-160131000Y312124000D01*
X-71068000Y100024000D02*
X-84063000Y113019000D01*
X-235563000Y144638000D02*
X-234987000Y145214000D01*
X-84063000Y234438000D02*
X-84063000Y235538000D01*
X-204687000Y145214000D02*
X-204687000Y147961000D01*
X-189855000Y130900000D02*
X-189855000Y132233377D01*
X-163505877Y100024000D02*
X-174963000Y111481123D01*
X-144087000Y266414000D02*
X-144087000Y270444877D01*
X-69231000Y190924000D02*
X-71525877Y190924000D01*
X-53763000Y264738000D02*
X-53763000Y265838000D01*
X-144780000Y205121000D02*
X-144087000Y205814000D01*
X-253746000Y135382000D02*
X-253791500Y135336500D01*
X-210612472Y303527000D02*
X-228174000Y303527000D01*
X-204687000Y114914000D02*
X-204687000Y116068000D01*
X-174387000Y114914000D02*
X-174387000Y119262877D01*
X-113787000Y208754877D02*
X-101317877Y221224000D01*
X-234987000Y145214000D02*
X-234987000Y148980877D01*
X-101391877Y251524000D02*
X-114363000Y264495123D01*
X-53187000Y145214000D02*
X-53763000Y145790000D01*
X-144663000Y144638000D02*
X-144087000Y145214000D01*
X-204687000Y88052877D02*
X-192715877Y100024000D01*
X-235563000Y114338000D02*
X-234987000Y114914000D01*
X-83487000Y87605000D02*
X-71068000Y100024000D01*
X-281331000Y190924000D02*
X-280755000Y191500000D01*
X-265863000Y114338000D02*
X-265287000Y114914000D01*
X-174387000Y119262877D02*
X-163325877Y130324000D01*
X-103127877Y130324000D02*
X-114363000Y141559123D01*
X-114363000Y205238000D02*
X-113787000Y205814000D01*
X-205486000Y114115000D02*
X-204687000Y114914000D01*
X-205263000Y235538000D02*
X-204687000Y236114000D01*
X-144087000Y89216877D02*
X-133279877Y100024000D01*
X-280755000Y190348000D02*
X-281331000Y190924000D01*
X-162425877Y281824000D02*
X-174963000Y294361123D01*
X-174963000Y294361123D02*
X-174963000Y296138000D01*
X-159555000Y311548000D02*
X-130407000Y311548000D01*
X-53763000Y176090000D02*
X-53763000Y205238000D01*
X-252603000Y135382000D02*
X-253746000Y135382000D01*
X-281331000Y100024000D02*
X-280755000Y100600000D01*
X-174387000Y296714000D02*
X-174387000Y297601528D01*
X-160131000Y130324000D02*
X-163325877Y130324000D01*
X-251031000Y281824000D02*
X-253357877Y281824000D01*
X-53763000Y205238000D02*
X-53187000Y205814000D01*
X-204687000Y175514000D02*
X-204687000Y176668000D01*
X-175006000Y173881000D02*
X-175006000Y174895000D01*
X-251031000Y100024000D02*
X-252476000Y100024000D01*
X-131723877Y190924000D02*
X-144780000Y203980123D01*
X-220731000Y281824000D02*
X-223385877Y281824000D01*
X-265287000Y114914000D02*
X-265287000Y116068000D01*
X-53763000Y114338000D02*
X-53187000Y114914000D01*
X-84063000Y235538000D02*
X-83487000Y236114000D01*
X-76674000Y303527000D02*
X-83487000Y296714000D01*
X-144663000Y143157123D02*
X-144663000Y144638000D01*
X-234987000Y114914000D02*
X-234987000Y117686000D01*
X-235563000Y172843123D02*
X-235563000Y174938000D01*
X-221307000Y311548000D02*
X-220731000Y312124000D01*
X-130407000Y311548000D02*
X-129831000Y312124000D01*
X-205486000Y112794123D02*
X-205486000Y114115000D01*
X-174963000Y264643123D02*
X-174963000Y265838000D01*
X-114363000Y173309123D02*
X-114363000Y174938000D01*
X-252649000Y251524000D02*
X-265863000Y264738000D01*
X-192715877Y100024000D02*
X-205486000Y112794123D01*
X-53187000Y266414000D02*
X-53763000Y266990000D01*
X-205263000Y233475123D02*
X-205263000Y235538000D01*
X-265287000Y84614000D02*
X-265287000Y87213000D01*
X-113787000Y296714000D02*
X-113787000Y297601528D01*
X-83487000Y236114000D02*
X-83487000Y239456877D01*
X-250455000Y132000000D02*
X-253791500Y135336500D01*
X-99531000Y281824000D02*
X-101211877Y281824000D01*
X-189855000Y282400000D02*
X-189855000Y283500000D01*
X-280755000Y160048000D02*
X-281331000Y160624000D01*
X-265287000Y145214000D02*
X-265287000Y148144877D01*
X-265287000Y236114000D02*
X-265287000Y238886000D01*
X-53187000Y114914000D02*
X-53763000Y115490000D01*
X-71419877Y251524000D02*
X-84063000Y264167123D01*
X-72393877Y130324000D02*
X-84063000Y141993123D01*
X-98811000Y311404000D02*
X-69951000Y311404000D01*
X-222494938Y221243062D02*
X-235563000Y234311123D01*
X-220731000Y221224000D02*
X-222475877Y221224000D01*
X-265863000Y294329123D02*
X-265863000Y296138000D01*
X-265287000Y205814000D02*
X-265287000Y208892877D01*
X-235563000Y204085123D02*
X-235563000Y205238000D01*
X-144780000Y203980123D02*
X-144780000Y205121000D01*
X-113787000Y119664877D02*
X-103127877Y130324000D01*
X-144663000Y174938000D02*
X-144087000Y175514000D01*
X-83487000Y296714000D02*
X-83487000Y297601528D01*
X-83487000Y239456877D02*
X-71419877Y251524000D01*
X-189855000Y311548000D02*
X-160707000Y311548000D01*
X-174387000Y175514000D02*
X-174387000Y178286000D01*
X-144663000Y234343123D02*
X-144663000Y235538000D01*
X-137274000Y303527000D02*
X-144087000Y296714000D01*
X-281907000Y221800000D02*
X-281907000Y250948000D01*
X-53187000Y297601528D02*
X-59112472Y303527000D01*
X-180312472Y303527000D02*
X-197874000Y303527000D01*
X-53763000Y265838000D02*
X-53187000Y266414000D01*
X-222803877Y251524000D02*
X-235563000Y264283123D01*
X-280755000Y252100000D02*
X-280755000Y281248000D01*
X-129255000Y311548000D02*
X-100107000Y311548000D01*
X-265287000Y148144877D02*
X-252807877Y160624000D01*
X-129831000Y160624000D02*
X-131449000Y160624000D01*
X-53763000Y145790000D02*
X-53763000Y174938000D01*
X-205263000Y203503123D02*
X-205263000Y205238000D01*
X-252649000Y100024000D02*
X-265863000Y113238000D01*
X-235433000Y143408000D02*
X-235433000Y139979000D01*
X-265863000Y296138000D02*
X-265287000Y296714000D01*
X-113787000Y114914000D02*
X-113787000Y119664877D01*
X-84063000Y174938000D02*
X-83487000Y175514000D01*
X-265863000Y204138000D02*
X-265863000Y205238000D01*
X-174963000Y235538000D02*
X-174387000Y236114000D01*
X-114363000Y264495123D02*
X-114363000Y265838000D01*
X-69231000Y221224000D02*
X-70849000Y221224000D01*
X-114363000Y234269123D02*
X-114363000Y235538000D01*
X-100107000Y311548000D02*
X-99531000Y312124000D01*
X-161749000Y190924000D02*
X-174963000Y204138000D01*
X-53187000Y264162000D02*
X-53763000Y264738000D01*
X-71525877Y190924000D02*
X-84063000Y203461123D01*
X-83487000Y114914000D02*
X-83487000Y119230877D01*
X-89412472Y303527000D02*
X-106974000Y303527000D01*
X-174963000Y144638000D02*
X-174387000Y145214000D01*
X-190431000Y130324000D02*
X-189855000Y130900000D01*
X-220731000Y251524000D02*
X-222803877Y251524000D01*
X-53187000Y298217272D02*
X-53187000Y296714000D01*
X-84063000Y113019000D02*
X-84063000Y114338000D01*
X-160131000Y281824000D02*
X-162425877Y281824000D01*
X-53187000Y236114000D02*
X-53187000Y264162000D01*
X-205486000Y295915000D02*
X-204687000Y296714000D01*
X-114363000Y114338000D02*
X-113787000Y114914000D01*
X-114363000Y265838000D02*
X-113787000Y266414000D01*
X-106974000Y303527000D02*
X-113787000Y296714000D01*
X-220731000Y100024000D02*
X-222433877Y100024000D01*
X-113787000Y269248877D02*
X-101211877Y281824000D01*
X-265863000Y234131123D02*
X-265863000Y235538000D01*
X-160131000Y100024000D02*
X-163505877Y100024000D01*
X-53187000Y84614000D02*
X-53763000Y85190000D01*
X-53763000Y85190000D02*
X-53763000Y114338000D01*
X-114363000Y112603123D02*
X-114363000Y114338000D01*
X-235563000Y235538000D02*
X-234987000Y236114000D01*
X-114363000Y296138000D02*
X-113787000Y296714000D01*
X-280755000Y191500000D02*
X-280755000Y220648000D01*
X-142222000Y114263877D02*
X-142872123Y114914000D01*
X-113787000Y297601528D02*
X-119712472Y303527000D01*
X-84063000Y141993123D02*
X-84063000Y144638000D01*
X-131449000Y160624000D02*
X-144663000Y173838000D01*
X-265287000Y116068000D02*
X-251031000Y130324000D01*
X-159555000Y311548000D02*
X-159826000Y311277000D01*
X-222349000Y130324000D02*
X-235433000Y143408000D01*
X-83487000Y119230877D02*
X-72393877Y130324000D01*
X-220731000Y190924000D02*
X-222401877Y190924000D01*
X-99531000Y221224000D02*
X-101317877Y221224000D01*
X-190431000Y312124000D02*
X-189855000Y311548000D01*
X-69231000Y100024000D02*
X-71068000Y100024000D01*
X-235563000Y174938000D02*
X-234987000Y175514000D01*
X-280755000Y129748000D02*
X-281331000Y130324000D01*
X-174387000Y238980877D02*
X-161843877Y251524000D01*
X-258474000Y303527000D02*
X-265287000Y296714000D01*
X-190431000Y100024000D02*
X-192715877Y100024000D01*
X-174387000Y208586000D02*
X-161749000Y221224000D01*
X-174387000Y84614000D02*
X-174387000Y89142877D01*
X-265863000Y235538000D02*
X-265287000Y236114000D01*
X-69231000Y160624000D02*
X-72213877Y160624000D01*
X-220731000Y312124000D02*
X-220155000Y311548000D01*
X-52611000Y235538000D02*
X-53187000Y236114000D01*
X-113787000Y84614000D02*
X-113787000Y88020877D01*
X-99531000Y190924000D02*
X-101149000Y190924000D01*
X-142872123Y114914000D02*
X-144087000Y114914000D01*
X-204687000Y296714000D02*
X-204687000Y297601528D01*
X-144087000Y147986000D02*
X-131449000Y160624000D01*
X-160131000Y312124000D02*
X-159555000Y311548000D01*
X-53187000Y205814000D02*
X-52611000Y206390000D01*
X-265287000Y297601529D02*
X-265287000Y296714000D01*
X-220155000Y311548000D02*
X-191007000Y311548000D01*
X-114363000Y235538000D02*
X-113787000Y236114000D01*
X-192120000Y160624000D02*
X-205263000Y173767000D01*
X-119712472Y303527000D02*
X-137274000Y303527000D01*
X-222475877Y221224000D02*
X-222494938Y221243062D01*
X-234987000Y208751000D02*
X-222494938Y221243062D01*
X-265863000Y113238000D02*
X-265863000Y114338000D01*
X-163325877Y130324000D02*
X-174963000Y141961123D01*
X-234987000Y148980877D02*
X-223343877Y160624000D01*
X-113787000Y205814000D02*
X-113787000Y208754877D01*
X-129831000Y100024000D02*
X-133279877Y100024000D01*
X-114363000Y294975123D02*
X-114363000Y296138000D01*
X-174963000Y205238000D02*
X-174387000Y205814000D01*
X-83487000Y297601528D02*
X-89412472Y303527000D01*
X-144087000Y297601528D02*
X-150012472Y303527000D01*
X-205263000Y174938000D02*
X-204687000Y175514000D01*
X-99531000Y312124000D02*
X-98811000Y311404000D01*
X-144087000Y84614000D02*
X-144087000Y89216877D01*
X-129831000Y312124000D02*
X-129255000Y311548000D01*
X-190431000Y160624000D02*
X-192024000Y160624000D01*
X-205263000Y265838000D02*
X-204687000Y266414000D01*
X-204687000Y176668000D02*
X-190431000Y190924000D01*
X-174387000Y236114000D02*
X-174387000Y238980877D01*
X-99531000Y160624000D02*
X-101677877Y160624000D01*
X-204687000Y272538000D02*
X-193725000Y283500000D01*
X-101317877Y221224000D02*
X-114363000Y234269123D01*
X-113787000Y148514877D02*
X-101677877Y160624000D01*
X-252649000Y190924000D02*
X-265863000Y204138000D01*
X-251031000Y221224000D02*
X-252955877Y221224000D01*
X-84063000Y264167123D02*
X-84063000Y265838000D01*
X-193011877Y221224000D02*
X-205263000Y233475123D01*
X-235433000Y139979000D02*
X-240665000Y134747000D01*
X-174963000Y265838000D02*
X-174387000Y266414000D01*
X-234987000Y84614000D02*
X-234987000Y87470877D01*
X-234987000Y239340877D02*
X-222803877Y251524000D01*
X-84063000Y265838000D02*
X-83487000Y266414000D01*
X-101149000Y190924000D02*
X-114363000Y204138000D01*
X-160131000Y160624000D02*
X-161749000Y160624000D01*
X-272187529Y303527000D02*
X-271212471Y303527000D01*
X-69231000Y281824000D02*
X-71239877Y281824000D01*
X-53187000Y296714000D02*
X-53187000Y297601528D01*
X-84063000Y294647123D02*
X-84063000Y296138000D01*
X-253357877Y281824000D02*
X-265863000Y294329123D01*
X-101677877Y160624000D02*
X-114363000Y173309123D01*
X-235563000Y264283123D02*
X-235563000Y265838000D01*
X-204687000Y238886000D02*
X-192049000Y251524000D01*
X-142222000Y108966123D02*
X-142222000Y114263877D01*
X-144087000Y208680877D02*
X-131543877Y221224000D01*
X-65433000Y308326000D02*
X-63295728Y308326000D01*
X-174387000Y269862877D02*
X-162425877Y281824000D01*
X-160131000Y190924000D02*
X-161749000Y190924000D01*
X-251031000Y160624000D02*
X-252807877Y160624000D01*
X-281907000Y293807529D02*
X-272187529Y303527000D01*
X-144087000Y114914000D02*
X-144087000Y118066877D01*
X-160131000Y221224000D02*
X-161749000Y221224000D01*
X-113787000Y178286000D02*
X-101149000Y190924000D01*
X-263669000Y145214000D02*
X-265287000Y145214000D01*
X-144087000Y238886000D02*
X-131449000Y251524000D01*
X-174963000Y114338000D02*
X-174387000Y114914000D01*
X-53763000Y296138000D02*
X-53187000Y296714000D01*
X-69231000Y312124000D02*
X-65433000Y308326000D01*
X-174963000Y141961123D02*
X-174963000Y144638000D01*
X-144087000Y118066877D02*
X-131829877Y130324000D01*
X-190431000Y190924000D02*
X-192683877Y190924000D01*
X-252476000Y100024000D02*
X-252649000Y100024000D01*
X-144663000Y173838000D02*
X-144663000Y174938000D01*
X-281331000Y130324000D02*
X-280755000Y130900000D01*
X-129831000Y221224000D02*
X-131543877Y221224000D01*
X-72213877Y160624000D02*
X-84063000Y172473123D01*
X-114363000Y174938000D02*
X-113787000Y175514000D01*
X-161749000Y221224000D02*
X-174963000Y234438000D01*
X-235563000Y234311123D02*
X-235563000Y235538000D01*
X-83487000Y205814000D02*
X-83487000Y208586000D01*
X-99531000Y130324000D02*
X-103127877Y130324000D01*
X-113787000Y145214000D02*
X-113787000Y148514877D01*
X-205263000Y264738000D02*
X-205263000Y265838000D01*
X-113787000Y88020877D02*
X-101783877Y100024000D01*
X-131543877Y221224000D02*
X-144663000Y234343123D01*
X-265287000Y175514000D02*
X-265287000Y178286000D01*
X-204687000Y209548877D02*
X-193011877Y221224000D01*
X-193725000Y283500000D02*
X-205486000Y295261000D01*
X-175006000Y174895000D02*
X-174387000Y175514000D01*
X-113787000Y266414000D02*
X-113787000Y269248877D01*
X-160131000Y251524000D02*
X-161843877Y251524000D01*
X-174387000Y205814000D02*
X-174387000Y208586000D01*
X-150012472Y303527000D02*
X-167574000Y303527000D01*
X-205486000Y295261000D02*
X-205486000Y295915000D01*
X-265287000Y178286000D02*
X-252649000Y190924000D01*
X-53763000Y174938000D02*
X-53187000Y175514000D01*
X-235563000Y143538000D02*
X-235563000Y144638000D01*
X-240912472Y303527000D02*
X-258474000Y303527000D01*
X-265287000Y87213000D02*
X-252476000Y100024000D01*
X-223343877Y160624000D02*
X-235563000Y172843123D01*
X-202835623Y145214000D02*
X-204687000Y145214000D01*
X-192049000Y251524000D02*
X-205263000Y264738000D01*
X-222401877Y190924000D02*
X-235563000Y204085123D01*
X-265863000Y174938000D02*
X-265287000Y175514000D01*
X-144663000Y293779123D02*
X-144663000Y296138000D01*
X-234987000Y296714000D02*
X-234987000Y297601528D01*
X-113787000Y175514000D02*
X-113787000Y178286000D01*
X-129831000Y130324000D02*
X-131829877Y130324000D01*
X-129831000Y251524000D02*
X-131449000Y251524000D01*
X-113787000Y236114000D02*
X-113787000Y239128877D01*
X-223385877Y281824000D02*
X-235563000Y294001123D01*
X-83487000Y266414000D02*
X-83487000Y269576877D01*
X-114363000Y204138000D02*
X-114363000Y205238000D01*
X-234987000Y117686000D02*
X-222349000Y130324000D01*
X-204687000Y147961000D02*
X-192024000Y160624000D01*
X-53763000Y266990000D02*
X-53763000Y296138000D01*
X-191007000Y311548000D02*
X-190431000Y312124000D01*
X-83487000Y175514000D02*
X-83487000Y178962877D01*
X-252955877Y221224000D02*
X-265863000Y234131123D01*
X-235563000Y205238000D02*
X-234987000Y205814000D01*
X-144663000Y296138000D02*
X-144087000Y296714000D01*
X-251607000Y311548000D02*
X-251031000Y312124000D01*
X-253791500Y135336500D02*
X-263669000Y145214000D01*
X-99531000Y251524000D02*
X-101391877Y251524000D01*
X-83487000Y269576877D02*
X-71239877Y281824000D01*
X-129831000Y281824000D02*
X-132707877Y281824000D01*
X-101783877Y100024000D02*
X-114363000Y112603123D01*
X-113787000Y239128877D02*
X-101391877Y251524000D01*
X-144663000Y264738000D02*
X-144663000Y265838000D01*
X-281907000Y250948000D02*
X-281331000Y251524000D01*
X-132707877Y281824000D02*
X-144663000Y293779123D01*
X-204687000Y205814000D02*
X-204687000Y209548877D01*
X-265863000Y173679123D02*
X-265863000Y174938000D01*
X-265287000Y269894877D02*
X-253357877Y281824000D01*
X-265863000Y205238000D02*
X-265287000Y205814000D01*
X-83487000Y208586000D02*
X-70849000Y221224000D01*
X-251031000Y190924000D02*
X-252649000Y190924000D01*
X-235433000Y143408000D02*
X-235563000Y143538000D01*
X-235563000Y294001123D02*
X-235563000Y296138000D01*
X-174963000Y111481123D02*
X-174963000Y114338000D01*
X-133279877Y100024000D02*
X-142222000Y108966123D01*
X-281907000Y282400000D02*
X-281907000Y293807529D01*
X-250455000Y130900000D02*
X-250455000Y132000000D01*
X-164820600Y310692800D02*
X-164820600Y307848000D01*
X-69231000Y251524000D02*
X-71419877Y251524000D01*
X-189855000Y283500000D02*
X-193725000Y283500000D01*
X-165404800Y307263800D02*
X-170713400Y307263800D01*
X-251031000Y130324000D02*
X-250455000Y130900000D01*
X-234987000Y87470877D02*
X-222433877Y100024000D01*
X-83487000Y149350877D02*
X-72213877Y160624000D01*
X-53763000Y144638000D02*
X-53187000Y145214000D01*
X-84063000Y203461123D02*
X-84063000Y205238000D01*
X-83487000Y145214000D02*
X-83487000Y149350877D01*
X-99531000Y100024000D02*
X-101783877Y100024000D01*
X-83487000Y84614000D02*
X-83487000Y87605000D01*
X-144663000Y265838000D02*
X-144087000Y266414000D01*
X-250455000Y311548000D02*
X-221307000Y311548000D01*
X-159826000Y311277000D02*
X-162179000Y311277000D01*
X-129831000Y190924000D02*
X-131723877Y190924000D01*
X-174387000Y297601528D02*
X-180312472Y303527000D01*
X-131449000Y251524000D02*
X-144663000Y264738000D01*
X-174963000Y234438000D02*
X-174963000Y235538000D01*
X-70849000Y221224000D02*
X-84063000Y234438000D01*
X-144087000Y175514000D02*
X-144087000Y178560877D01*
X-265287000Y266414000D02*
X-265287000Y269894877D01*
X-234987000Y236114000D02*
X-234987000Y239340877D01*
X-251031000Y312124000D02*
X-250455000Y311548000D01*
X-281331000Y281824000D02*
X-281907000Y282400000D01*
X-84063000Y172473123D02*
X-84063000Y174938000D01*
X-144087000Y270444877D02*
X-132707877Y281824000D01*
X-144087000Y178560877D02*
X-131723877Y190924000D01*
X-192024000Y160624000D02*
X-192120000Y160624000D01*
X-190431000Y281824000D02*
X-189855000Y282400000D01*
X-234987000Y205814000D02*
X-234987000Y208751000D01*
X-281331000Y160624000D02*
X-280755000Y161200000D01*
X-114363000Y144638000D02*
X-113787000Y145214000D01*
X-235563000Y296138000D02*
X-234987000Y296714000D01*
X-84063000Y205238000D02*
X-83487000Y205814000D01*
X-69231000Y130324000D02*
X-72393877Y130324000D01*
X-174387000Y145214000D02*
X-174387000Y147986000D01*
X-144087000Y145214000D02*
X-144087000Y147986000D01*
X-205263000Y205238000D02*
X-204687000Y205814000D01*
X-59112472Y303527000D02*
X-76674000Y303527000D01*
X-84063000Y114338000D02*
X-83487000Y114914000D01*
X-144087000Y296714000D02*
X-144087000Y297601528D01*
X-144087000Y236114000D02*
X-144087000Y238886000D01*
X-131829877Y130324000D02*
X-144663000Y143157123D01*
X-220731000Y160624000D02*
X-223343877Y160624000D01*
X-280755000Y311548000D02*
X-251607000Y311548000D01*
X-84063000Y144638000D02*
X-83487000Y145214000D01*
X-114363000Y141559123D02*
X-114363000Y144638000D01*
X-220731000Y130324000D02*
X-222349000Y130324000D01*
X-144663000Y235538000D02*
X-144087000Y236114000D01*
%TO.N,+1V1*%
X-135664000Y304772000D02*
X-138684000Y304772000D01*
X-131572000Y308864000D02*
X-135664000Y304772000D01*
X-140970000Y307058000D02*
X-138684000Y304772000D01*
X-140970000Y309880000D02*
X-140970000Y307058000D01*
D23*
%TO.N,ROW0*%
X-129844800Y303977000D02*
X-129844800Y305790600D01*
X-129844800Y305790600D02*
X-131445000Y307390800D01*
%TO.N,Net-(D73-DOUT)*%
X-59226794Y303251000D02*
X-75850000Y303251000D01*
X-55017000Y299041206D02*
X-59226794Y303251000D01*
X-75850000Y303251000D02*
X-83487000Y295614000D01*
X-55017000Y296714000D02*
X-55017000Y299041206D01*
%TO.N,Net-(D65-DOUT)*%
X-279501000Y312124000D02*
X-252131000Y312124000D01*
X-252131000Y312124000D02*
X-251031000Y313224000D01*
D24*
%TO.N,Net-(D65-DIN)*%
X-276830500Y317724500D02*
X-281331000Y313224000D01*
X-276830500Y317724500D02*
X-276790000Y317684000D01*
X-139922400Y317684000D02*
X-139827000Y317779400D01*
X-276790000Y317684000D02*
X-139922400Y317684000D01*
D23*
%TO.N,Net-(D66-DOUT)*%
X-249201000Y312124000D02*
X-221831000Y312124000D01*
X-221831000Y312124000D02*
X-220731000Y313224000D01*
%TO.N,Net-(D67-DOUT)*%
X-191531000Y312124000D02*
X-190431000Y313224000D01*
X-218901000Y312124000D02*
X-191531000Y312124000D01*
%TO.N,Net-(D68-DOUT)*%
X-188601000Y312124000D02*
X-161231000Y312124000D01*
X-161231000Y312124000D02*
X-160131000Y313224000D01*
%TO.N,Net-(D81-DOUT)*%
X-279501000Y281824000D02*
X-277992000Y281824000D01*
X-253746000Y282956000D02*
X-253714000Y282924000D01*
X-277992000Y281824000D02*
X-277876000Y281940000D01*
X-253714000Y282924000D02*
X-251031000Y282924000D01*
%TO.N,Net-(D82-DOUT)*%
X-249201000Y281824000D02*
X-248020000Y281824000D01*
X-223742000Y282924000D02*
X-220731000Y282924000D01*
X-248020000Y281824000D02*
X-247904000Y281940000D01*
X-223774000Y282956000D02*
X-223742000Y282924000D01*
%TO.N,Net-(D83-DOUT)*%
X-193294000Y282956000D02*
X-193262000Y282924000D01*
X-217308000Y281824000D02*
X-217170000Y281686000D01*
X-218901000Y281824000D02*
X-217308000Y281824000D01*
X-193262000Y282924000D02*
X-190431000Y282924000D01*
%TO.N,Net-(D69-DOUT)*%
X-158301000Y312124000D02*
X-130931000Y312124000D01*
X-130931000Y312124000D02*
X-129831000Y313224000D01*
%TO.N,Net-(D84-DOUT)*%
X-162782000Y282924000D02*
X-160131000Y282924000D01*
X-187082000Y281824000D02*
X-186944000Y281686000D01*
X-188601000Y281824000D02*
X-187082000Y281824000D01*
X-162814000Y282956000D02*
X-162782000Y282924000D01*
%TO.N,Net-(D85-DOUT)*%
X-158301000Y281824000D02*
X-156580000Y281824000D01*
X-133064000Y282924000D02*
X-129831000Y282924000D01*
X-156580000Y281824000D02*
X-156464000Y281940000D01*
X-133096000Y282956000D02*
X-133064000Y282924000D01*
%TO.N,Net-(D70-DOUT)*%
X-100631000Y312124000D02*
X-99531000Y313224000D01*
X-128001000Y312124000D02*
X-100631000Y312124000D01*
%TO.N,Net-(D86-DOUT)*%
X-101568000Y282924000D02*
X-99531000Y282924000D01*
X-128001000Y281824000D02*
X-126100000Y281824000D01*
X-101600000Y282956000D02*
X-101568000Y282924000D01*
X-126100000Y281824000D02*
X-125984000Y281940000D01*
%TO.N,Net-(D87-DOUT)*%
X-71628000Y282956000D02*
X-71596000Y282924000D01*
X-95366000Y281824000D02*
X-95250000Y281940000D01*
X-97701000Y281824000D02*
X-95366000Y281824000D01*
X-71596000Y282924000D02*
X-69231000Y282924000D01*
%TO.N,Net-(D88-DOUT)*%
X-51954000Y265314000D02*
X-53187000Y265314000D01*
X-51054000Y265176000D02*
X-51816000Y265176000D01*
X-66178000Y281824000D02*
X-66040000Y281686000D01*
X-67401000Y281824000D02*
X-66178000Y281824000D01*
X-51816000Y265176000D02*
X-51954000Y265314000D01*
%TO.N,Net-(D71-DOUT)*%
X-70331000Y312124000D02*
X-69231000Y313224000D01*
X-97701000Y312124000D02*
X-70331000Y312124000D01*
%TO.N,Net-(D72-DOUT)*%
X-52636000Y298056595D02*
X-52636000Y296165000D01*
X-52636000Y296165000D02*
X-53187000Y295614000D01*
X-66703405Y312124000D02*
X-52636000Y298056595D01*
X-67401000Y312124000D02*
X-66703405Y312124000D01*
D24*
%TO.N,Net-(D100-DIN)*%
X-216726000Y251524000D02*
X-216662000Y251460000D01*
X-218901000Y251524000D02*
X-216726000Y251524000D01*
X-191918000Y252624000D02*
X-190431000Y252624000D01*
X-192024000Y252730000D02*
X-191918000Y252624000D01*
D23*
%TO.N,Net-(D100-DOUT)*%
X-188601000Y251524000D02*
X-185864000Y251524000D01*
X-162306000Y252730000D02*
X-162200000Y252624000D01*
X-162200000Y252624000D02*
X-160131000Y252624000D01*
X-185864000Y251524000D02*
X-185674000Y251714000D01*
%TO.N,Net-(D101-DOUT)*%
X-156274000Y251524000D02*
X-156210000Y251460000D01*
X-131720000Y252624000D02*
X-129831000Y252624000D01*
X-131826000Y252730000D02*
X-131720000Y252624000D01*
X-158301000Y251524000D02*
X-156274000Y251524000D01*
%TO.N,Net-(D102-DOUT)*%
X-128001000Y251524000D02*
X-126174000Y251524000D01*
X-126174000Y251524000D02*
X-125730000Y251968000D01*
X-101748000Y252624000D02*
X-99531000Y252624000D01*
X-101854000Y252730000D02*
X-101748000Y252624000D01*
%TO.N,Net-(D103-DOUT)*%
X-71882000Y252730000D02*
X-71776000Y252624000D01*
X-96076000Y251524000D02*
X-96012000Y251460000D01*
X-71776000Y252624000D02*
X-69231000Y252624000D01*
X-97701000Y251524000D02*
X-96076000Y251524000D01*
%TO.N,Net-(D104-DOUT)*%
X-54102000Y238252000D02*
X-54102000Y235929000D01*
X-54102000Y235929000D02*
X-53187000Y235014000D01*
X-67401000Y251524000D02*
X-67337000Y251460000D01*
X-67337000Y251460000D02*
X-65024000Y251460000D01*
%TO.N,Net-(D105-DOUT)*%
X-81026000Y235458000D02*
X-81788000Y235458000D01*
X-55017000Y236114000D02*
X-57002000Y236114000D01*
X-82232000Y235014000D02*
X-83487000Y235014000D01*
X-57002000Y236114000D02*
X-57150000Y235966000D01*
X-81788000Y235458000D02*
X-82232000Y235014000D01*
%TO.N,Net-(D109-DOUT)*%
X-202438000Y235458000D02*
X-202882000Y235014000D01*
X-176217000Y236114000D02*
X-178710000Y236114000D01*
X-178710000Y236114000D02*
X-178816000Y236220000D01*
X-202882000Y235014000D02*
X-204687000Y235014000D01*
%TO.N,Net-(D113-DOUT)*%
X-253492000Y222504000D02*
X-253312000Y222324000D01*
X-279501000Y221224000D02*
X-277378000Y221224000D01*
X-277378000Y221224000D02*
X-277114000Y221488000D01*
X-253312000Y222324000D02*
X-251031000Y222324000D01*
%TO.N,Net-(D115-DOUT)*%
X-193548000Y222504000D02*
X-193368000Y222324000D01*
X-212862000Y221224000D02*
X-212598000Y221488000D01*
X-193368000Y222324000D02*
X-190431000Y222324000D01*
X-218901000Y221224000D02*
X-212862000Y221224000D01*
%TO.N,Net-(D117-DOUT)*%
X-153680000Y221224000D02*
X-152908000Y221996000D01*
X-158301000Y221224000D02*
X-153680000Y221224000D01*
X-131900000Y222324000D02*
X-129831000Y222324000D01*
X-132080000Y222504000D02*
X-131900000Y222324000D01*
%TO.N,Net-(D108-DOUT)*%
X-172910000Y235014000D02*
X-174387000Y235014000D01*
X-172466000Y235458000D02*
X-172910000Y235014000D01*
X-148696000Y236114000D02*
X-149098000Y235712000D01*
X-145917000Y236114000D02*
X-148696000Y236114000D01*
%TO.N,Net-(D119-DOUT)*%
X-70866000Y222504000D02*
X-70686000Y222324000D01*
X-97701000Y221224000D02*
X-95260000Y221224000D01*
X-70686000Y222324000D02*
X-69231000Y222324000D01*
X-95260000Y221224000D02*
X-94996000Y221488000D01*
%TO.N,Net-(D112-DOUT)*%
X-281178000Y224282000D02*
X-281331000Y224129000D01*
X-268330000Y236114000D02*
X-271018000Y233426000D01*
X-267117000Y236114000D02*
X-268330000Y236114000D01*
X-281331000Y224129000D02*
X-281331000Y222324000D01*
%TO.N,Net-(D121-DOUT)*%
X-55017000Y205814000D02*
X-57584000Y205814000D01*
X-81798000Y204714000D02*
X-83487000Y204714000D01*
X-81534000Y204978000D02*
X-81798000Y204714000D01*
X-57584000Y205814000D02*
X-57912000Y205486000D01*
%TO.N,Net-(D114-DOUT)*%
X-222758000Y222250000D02*
X-222684000Y222324000D01*
X-249201000Y221224000D02*
X-246898000Y221224000D01*
X-246898000Y221224000D02*
X-246888000Y221234000D01*
X-222684000Y222324000D02*
X-220731000Y222324000D01*
%TO.N,Net-(D116-DOUT)*%
X-182890000Y221224000D02*
X-182880000Y221234000D01*
X-188601000Y221224000D02*
X-182890000Y221224000D01*
X-161290000Y222250000D02*
X-161216000Y222324000D01*
X-161216000Y222324000D02*
X-160131000Y222324000D01*
%TO.N,Net-(D118-DOUT)*%
X-128001000Y221224000D02*
X-125486000Y221224000D01*
X-125486000Y221224000D02*
X-125222000Y221488000D01*
X-101854000Y222504000D02*
X-101674000Y222324000D01*
X-101674000Y222324000D02*
X-99531000Y222324000D01*
%TO.N,Net-(D120-DOUT)*%
X-51816000Y204724000D02*
X-52324000Y204724000D01*
X-67401000Y221224000D02*
X-61478000Y221224000D01*
X-52324000Y204724000D02*
X-52334000Y204714000D01*
X-61478000Y221224000D02*
X-61468000Y221234000D01*
X-52334000Y204714000D02*
X-53187000Y204714000D01*
%TO.N,SWDIO*%
X-128041400Y310337200D02*
X-120777000Y310337200D01*
X-130479800Y307898800D02*
X-128041400Y310337200D01*
%TO.N,SWCLK*%
X-130759200Y308686200D02*
X-128549400Y310896000D01*
X-128549400Y310896000D02*
X-119811800Y310896000D01*
%TO.N,~{RESET}*%
X-129082800Y304063400D02*
X-123875800Y309270400D01*
X-123875800Y309270400D02*
X-123875800Y309753000D01*
%TO.N,COL0*%
X-271700000Y301200000D02*
X-271700000Y89100000D01*
X-131158500Y315627500D02*
X-132080000Y314706000D01*
X-172720000Y314706000D02*
X-170262000Y317164000D01*
X-131158500Y316147278D02*
X-131158500Y315627500D01*
X-132175222Y317164000D02*
X-131158500Y316147278D01*
X-170262000Y317164000D02*
X-132175222Y317164000D01*
%TO.N,COL1*%
X-172720000Y314023503D02*
X-170758702Y315984801D01*
X-131580801Y315984801D02*
X-131572000Y315976000D01*
X-170758702Y315984801D02*
X-131580801Y315984801D01*
X-241400000Y301200000D02*
X-241400000Y89100000D01*
%TO.N,COL2*%
X-170584699Y315571301D02*
X-132437301Y315571301D01*
X-172720000Y313436000D02*
X-170584699Y315571301D01*
X-211100000Y301200000D02*
X-211100000Y89100000D01*
%TO.N,COL3*%
X-180800000Y301200000D02*
X-180800000Y89100000D01*
%TO.N,COL4*%
X-150500000Y301200000D02*
X-150500000Y89100000D01*
%TO.N,COL5*%
X-129921000Y300609000D02*
X-131267200Y301955200D01*
X-120200000Y301200000D02*
X-120200000Y89100000D01*
X-123672600Y300609000D02*
X-129921000Y300609000D01*
%TO.N,COL6*%
X-89900000Y301200000D02*
X-89900000Y89100000D01*
%TO.N,COL7*%
X-117602000Y312928000D02*
X-118872000Y314198000D01*
X-118872000Y314198000D02*
X-130302000Y314198000D01*
X-59600000Y301200000D02*
X-59600000Y89100000D01*
X-63246000Y302006000D02*
X-75946000Y302006000D01*
%TO.N,QSPI_SD0*%
X-141798000Y305907400D02*
X-138663999Y302773399D01*
X-141798000Y311057400D02*
X-141798000Y305907400D01*
X-141757400Y311098000D02*
X-141798000Y311057400D01*
%TO.N,QSPI_SCLK*%
X-140970000Y311098000D02*
X-141597000Y310471000D01*
X-141597000Y306267489D02*
X-138783311Y303453800D01*
X-138783311Y303453800D02*
X-138557000Y303453800D01*
X-141597000Y310471000D02*
X-141597000Y306267489D01*
%TO.N,QSPI_SD1*%
X-142824200Y310767800D02*
X-142824200Y299516800D01*
X-143154400Y311098000D02*
X-142824200Y310767800D01*
%TO.N,COL8*%
X-54516000Y227566000D02*
X-55880000Y226202000D01*
X-54315000Y194337000D02*
X-54315000Y167167000D01*
X-128524000Y317677222D02*
X-132020700Y314180522D01*
X-55880000Y226202000D02*
X-54315000Y224637000D01*
X-55880000Y135302000D02*
X-54516000Y133938000D01*
X-55880000Y195902000D02*
X-54315000Y194337000D01*
X-54315000Y224637000D02*
X-54315000Y197467000D01*
X-54516000Y285438000D02*
X-54516000Y257866000D01*
X-54315000Y197467000D02*
X-55880000Y195902000D01*
X-132020700Y314180522D02*
X-132342739Y314180522D01*
X-55880000Y237998000D02*
X-54516000Y236634000D01*
X-54315000Y167167000D02*
X-55880000Y165602000D01*
X-54516000Y133938000D02*
X-54516000Y106366000D01*
X-54516000Y164238000D02*
X-54516000Y136666000D01*
X-54516000Y236634000D02*
X-54516000Y227566000D01*
X-54516000Y106366000D02*
X-55880000Y105002000D01*
X-54516000Y136666000D02*
X-55880000Y135302000D01*
X-55880000Y256502000D02*
X-55880000Y237998000D01*
X-55880000Y286802000D02*
X-54516000Y285438000D01*
X-52070000Y285750000D02*
X-47498000Y285750000D01*
X-128524000Y320548000D02*
X-128524000Y317677222D01*
X-54516000Y257866000D02*
X-55880000Y256502000D01*
X-55880000Y165602000D02*
X-54516000Y164238000D01*
%TO.N,QSPI_SD3*%
X-135528600Y303891400D02*
X-135280999Y304139001D01*
X-141396000Y310063600D02*
X-141396000Y306350745D01*
X-138936655Y303891400D02*
X-135528600Y303891400D01*
X-140970000Y310489600D02*
X-141396000Y310063600D01*
X-141396000Y306350745D02*
X-138936655Y303891400D01*
%TO.N,QSPI_SD2*%
X-142417800Y299999400D02*
X-142392400Y299974000D01*
X-142417800Y311098000D02*
X-142417800Y299999400D01*
%TO.N,QSPI_SS_N*%
X-143814800Y311098000D02*
X-143814800Y299684896D01*
X-143814800Y299684896D02*
X-143294202Y299164298D01*
%TO.N,Net-(D74-DOUT)*%
X-85317000Y299041206D02*
X-89526794Y303251000D01*
X-85317000Y296714000D02*
X-85317000Y299041206D01*
X-106150000Y303251000D02*
X-113787000Y295614000D01*
X-89526794Y303251000D02*
X-106150000Y303251000D01*
%TO.N,Net-(D75-DOUT)*%
X-119826794Y303251000D02*
X-136450000Y303251000D01*
X-115617000Y296714000D02*
X-115617000Y299041206D01*
X-115617000Y299041206D02*
X-119826794Y303251000D01*
X-136450000Y303251000D02*
X-144087000Y295614000D01*
%TO.N,Net-(D76-DOUT)*%
X-150126794Y303251000D02*
X-166750000Y303251000D01*
X-145917000Y296714000D02*
X-145917000Y299041206D01*
X-166750000Y303251000D02*
X-174387000Y295614000D01*
X-145917000Y299041206D02*
X-150126794Y303251000D01*
%TO.N,Net-(D77-DOUT)*%
X-197050000Y303251000D02*
X-204687000Y295614000D01*
X-176217000Y296714000D02*
X-176217000Y299041206D01*
X-180426794Y303251000D02*
X-197050000Y303251000D01*
X-176217000Y299041206D02*
X-180426794Y303251000D01*
%TO.N,Net-(D78-DOUT)*%
X-227350000Y303251000D02*
X-234987000Y295614000D01*
X-210726794Y303251000D02*
X-227350000Y303251000D01*
X-206517000Y299041206D02*
X-210726794Y303251000D01*
X-206517000Y296714000D02*
X-206517000Y299041206D01*
%TO.N,Net-(D79-DOUT)*%
X-241026794Y303251000D02*
X-257650000Y303251000D01*
X-236817000Y299041206D02*
X-241026794Y303251000D01*
X-257650000Y303251000D02*
X-265287000Y295614000D01*
X-236817000Y296714000D02*
X-236817000Y299041206D01*
%TO.N,Net-(D80-DOUT)*%
X-271326794Y303251000D02*
X-272073206Y303251000D01*
X-267117000Y299041206D02*
X-271326794Y303251000D01*
X-281331000Y293993206D02*
X-281331000Y282924000D01*
X-267117000Y296714000D02*
X-267117000Y299041206D01*
X-272073206Y303251000D02*
X-281331000Y293993206D01*
%TO.N,Net-(D89-DOUT)*%
X-57118000Y266414000D02*
X-57150000Y266446000D01*
X-55017000Y266414000D02*
X-57118000Y266414000D01*
X-81788000Y265526500D02*
X-82000500Y265314000D01*
X-82000500Y265314000D02*
X-83487000Y265314000D01*
%TO.N,Net-(D90-DOUT)*%
X-111972500Y265314000D02*
X-113787000Y265314000D01*
X-111760000Y265526500D02*
X-111972500Y265314000D01*
X-85317000Y266414000D02*
X-86836000Y266414000D01*
X-86836000Y266414000D02*
X-86868000Y266446000D01*
%TO.N,Net-(D91-DOUT)*%
X-142452500Y265314000D02*
X-144087000Y265314000D01*
X-117062000Y266414000D02*
X-117094000Y266446000D01*
X-115617000Y266414000D02*
X-117062000Y266414000D01*
X-142240000Y265526500D02*
X-142452500Y265314000D01*
%TO.N,Net-(D92-DOUT)*%
X-173090000Y265314000D02*
X-174387000Y265314000D01*
X-148114000Y266414000D02*
X-148336000Y266192000D01*
X-145917000Y266414000D02*
X-148114000Y266414000D01*
X-172720000Y265684000D02*
X-173090000Y265314000D01*
%TO.N,Net-(D93-DOUT)*%
X-180054000Y266414000D02*
X-180086000Y266446000D01*
X-202904500Y265314000D02*
X-204687000Y265314000D01*
X-202692000Y265526500D02*
X-202904500Y265314000D01*
X-176217000Y266414000D02*
X-180054000Y266414000D01*
%TO.N,Net-(D94-DOUT)*%
X-233426000Y265526500D02*
X-233638500Y265314000D01*
X-206517000Y266414000D02*
X-208756000Y266414000D01*
X-208756000Y266414000D02*
X-208788000Y266446000D01*
X-233638500Y265314000D02*
X-234987000Y265314000D01*
%TO.N,Net-(D95-DOUT)*%
X-263652000Y265684000D02*
X-264022000Y265314000D01*
X-262890000Y265684000D02*
X-263652000Y265684000D01*
X-264022000Y265314000D02*
X-265287000Y265314000D01*
X-236817000Y266414000D02*
X-238728000Y266414000D01*
X-238728000Y266414000D02*
X-238760000Y266446000D01*
%TO.N,Net-(D96-DOUT)*%
X-267117000Y266414000D02*
X-268256000Y266414000D01*
X-281432000Y254254000D02*
X-281331000Y254153000D01*
X-268256000Y266414000D02*
X-270510000Y264160000D01*
X-281331000Y254153000D02*
X-281331000Y252624000D01*
%TO.N,Net-(D97-DOUT)*%
X-252624000Y252624000D02*
X-251031000Y252624000D01*
X-277686000Y251524000D02*
X-277622000Y251460000D01*
X-252730000Y252730000D02*
X-252624000Y252624000D01*
X-279501000Y251524000D02*
X-277686000Y251524000D01*
%TO.N,Net-(D98-DOUT)*%
X-247206000Y251524000D02*
X-247142000Y251460000D01*
X-223160000Y252624000D02*
X-220731000Y252624000D01*
X-249201000Y251524000D02*
X-247206000Y251524000D01*
X-223266000Y252730000D02*
X-223160000Y252624000D01*
%TO.N,Net-(D106-DOUT)*%
X-112204000Y235014000D02*
X-113787000Y235014000D01*
X-111506000Y235712000D02*
X-112204000Y235014000D01*
X-86762000Y236114000D02*
X-86868000Y236220000D01*
X-85317000Y236114000D02*
X-86762000Y236114000D01*
%TO.N,Net-(D107-DOUT)*%
X-117750000Y236114000D02*
X-117856000Y236220000D01*
X-142240000Y235458000D02*
X-142684000Y235014000D01*
X-115617000Y236114000D02*
X-117750000Y236114000D01*
X-142684000Y235014000D02*
X-144087000Y235014000D01*
%TO.N,Net-(D110-DOUT)*%
X-233680000Y235458000D02*
X-234124000Y235014000D01*
X-234124000Y235014000D02*
X-234987000Y235014000D01*
X-206517000Y236114000D02*
X-207666000Y236114000D01*
X-207666000Y236114000D02*
X-207772000Y236220000D01*
X-232918000Y235458000D02*
X-233680000Y235458000D01*
%TO.N,Net-(D111-DOUT)*%
X-238358000Y236114000D02*
X-238506000Y235966000D01*
X-262890000Y235458000D02*
X-263398000Y235458000D01*
X-236817000Y236114000D02*
X-238358000Y236114000D01*
X-263398000Y235458000D02*
X-263842000Y235014000D01*
X-263842000Y235014000D02*
X-265287000Y235014000D01*
%TO.N,Net-(D122-DOUT)*%
X-112532000Y204714000D02*
X-113787000Y204714000D01*
X-112268000Y204978000D02*
X-112532000Y204714000D01*
X-88318000Y205814000D02*
X-88392000Y205740000D01*
X-85317000Y205814000D02*
X-88318000Y205814000D01*
%TO.N,Net-(D123-DOUT)*%
X-119052000Y205814000D02*
X-119380000Y205486000D01*
X-115617000Y205814000D02*
X-119052000Y205814000D01*
X-142504000Y204714000D02*
X-144087000Y204714000D01*
X-142240000Y204978000D02*
X-142504000Y204714000D01*
%TO.N,Net-(D124-DOUT)*%
X-172222000Y204714000D02*
X-174387000Y204714000D01*
X-148770000Y205814000D02*
X-149352000Y205232000D01*
X-145917000Y205814000D02*
X-148770000Y205814000D01*
X-171958000Y204978000D02*
X-172222000Y204714000D01*
%TO.N,Net-(D125-DOUT)*%
X-179250000Y205814000D02*
X-179832000Y205232000D01*
X-202438000Y205232000D02*
X-202956000Y204714000D01*
X-201930000Y205232000D02*
X-202438000Y205232000D01*
X-202956000Y204714000D02*
X-204687000Y204714000D01*
X-176217000Y205814000D02*
X-179250000Y205814000D01*
%TO.N,Net-(D126-DOUT)*%
X-232420000Y204714000D02*
X-234987000Y204714000D01*
X-206517000Y205814000D02*
X-209984000Y205814000D01*
X-209984000Y205814000D02*
X-210312000Y205486000D01*
X-232156000Y204978000D02*
X-232420000Y204714000D01*
%TO.N,Net-(D127-DOUT)*%
X-236817000Y205814000D02*
X-239956000Y205814000D01*
X-263916000Y204714000D02*
X-265287000Y204714000D01*
X-239956000Y205814000D02*
X-240030000Y205740000D01*
X-263652000Y204978000D02*
X-263916000Y204714000D01*
%TO.N,Net-(D128-DOUT)*%
X-267388000Y205814000D02*
X-271018000Y202184000D01*
X-281331000Y193447000D02*
X-281331000Y192024000D01*
X-267117000Y205814000D02*
X-267388000Y205814000D01*
X-281432000Y193548000D02*
X-281331000Y193447000D01*
%TO.N,Net-(D129-DOUT)*%
X-252984000Y192278000D02*
X-252222000Y192278000D01*
X-252222000Y192278000D02*
X-251968000Y192024000D01*
X-274150000Y190924000D02*
X-272796000Y192278000D01*
X-251968000Y192024000D02*
X-251031000Y192024000D01*
X-279501000Y190924000D02*
X-274150000Y190924000D01*
%TO.N,Net-(D130-DOUT)*%
X-243416000Y190924000D02*
X-242062000Y192278000D01*
X-222758000Y192024000D02*
X-220731000Y192024000D01*
X-249201000Y190924000D02*
X-243416000Y190924000D01*
%TO.N,Net-(D131-DOUT)*%
X-218901000Y190924000D02*
X-215730000Y190924000D01*
X-215730000Y190924000D02*
X-214884000Y191770000D01*
X-193040000Y192024000D02*
X-190431000Y192024000D01*
%TO.N,Net-(D132-DOUT)*%
X-185504000Y190924000D02*
X-184404000Y192024000D01*
X-188601000Y190924000D02*
X-185504000Y190924000D01*
X-162052000Y192024000D02*
X-160131000Y192024000D01*
%TO.N,Net-(D133-DOUT)*%
X-158301000Y190924000D02*
X-153246000Y190924000D01*
X-153246000Y190924000D02*
X-151892000Y192278000D01*
X-132080000Y192024000D02*
X-129831000Y192024000D01*
%TO.N,Net-(D134-DOUT)*%
X-101346000Y192024000D02*
X-99531000Y192024000D01*
X-123020000Y190924000D02*
X-121666000Y192278000D01*
X-128001000Y190924000D02*
X-123020000Y190924000D01*
%TO.N,Net-(D135-DOUT)*%
X-97701000Y190924000D02*
X-92032000Y190924000D01*
X-71882000Y192024000D02*
X-69231000Y192024000D01*
X-72136000Y192278000D02*
X-71882000Y192024000D01*
X-92032000Y190924000D02*
X-90932000Y192024000D01*
%TO.N,Net-(D136-DOUT)*%
X-52070000Y174244000D02*
X-52240000Y174414000D01*
X-66464000Y190924000D02*
X-60198000Y184658000D01*
X-51562000Y174244000D02*
X-52070000Y174244000D01*
X-52240000Y174414000D02*
X-53187000Y174414000D01*
X-67401000Y190924000D02*
X-66464000Y190924000D01*
%TO.N,Net-(D137-DOUT)*%
X-55017000Y175514000D02*
X-58674000Y175514000D01*
X-58674000Y175514000D02*
X-58928000Y175260000D01*
X-82042000Y174626500D02*
X-82254500Y174414000D01*
X-82254500Y174414000D02*
X-83487000Y174414000D01*
%TO.N,Net-(D138-DOUT)*%
X-112734500Y174414000D02*
X-113787000Y174414000D01*
X-112522000Y174626500D02*
X-112734500Y174414000D01*
X-88138000Y175514000D02*
X-88646000Y175006000D01*
X-85317000Y175514000D02*
X-88138000Y175514000D01*
%TO.N,Net-(D139-DOUT)*%
X-142452500Y174414000D02*
X-144087000Y174414000D01*
X-115617000Y175514000D02*
X-118872000Y175514000D01*
X-118872000Y175514000D02*
X-119634000Y174752000D01*
X-142240000Y174626500D02*
X-142452500Y174414000D01*
%TO.N,Net-(D140-DOUT)*%
X-145917000Y175514000D02*
X-148844000Y175514000D01*
X-148844000Y175514000D02*
X-149352000Y175006000D01*
X-172720000Y174626500D02*
X-172932500Y174414000D01*
X-172932500Y174414000D02*
X-174387000Y174414000D01*
%TO.N,Net-(D141-DOUT)*%
X-176217000Y175514000D02*
X-179578000Y175514000D01*
X-179578000Y175514000D02*
X-180086000Y175006000D01*
X-203030000Y174414000D02*
X-204687000Y174414000D01*
X-202692000Y174752000D02*
X-203030000Y174414000D01*
%TO.N,Net-(D142-DOUT)*%
X-233384500Y174414000D02*
X-234987000Y174414000D01*
X-233172000Y174626500D02*
X-233384500Y174414000D01*
X-206517000Y175514000D02*
X-209804000Y175514000D01*
X-209804000Y175514000D02*
X-210566000Y174752000D01*
%TO.N,Net-(D143-DOUT)*%
X-262890000Y174752000D02*
X-263228000Y174414000D01*
X-240030000Y175514000D02*
X-240538000Y175006000D01*
X-263228000Y174414000D02*
X-265287000Y174414000D01*
X-236817000Y175514000D02*
X-240030000Y175514000D01*
%TO.N,Net-(D144-DOUT)*%
X-267948000Y175514000D02*
X-271250000Y172212000D01*
X-267117000Y175514000D02*
X-267948000Y175514000D01*
X-281432000Y163322000D02*
X-281331000Y163221000D01*
X-281331000Y163221000D02*
X-281331000Y161724000D01*
%TO.N,Net-(D145-DOUT)*%
X-275748000Y160624000D02*
X-275590000Y160782000D01*
X-279501000Y160624000D02*
X-275748000Y160624000D01*
X-253238000Y161798000D02*
X-253164000Y161724000D01*
X-253164000Y161724000D02*
X-251031000Y161724000D01*
%TO.N,Net-(D146-DOUT)*%
X-222938000Y161724000D02*
X-220731000Y161724000D01*
X-249201000Y160624000D02*
X-244252000Y160624000D01*
X-223012000Y161798000D02*
X-222938000Y161724000D01*
X-223774000Y161798000D02*
X-223012000Y161798000D01*
X-244252000Y160624000D02*
X-243078000Y161798000D01*
%TO.N,Net-(D147-DOUT)*%
X-191696000Y161724000D02*
X-190431000Y161724000D01*
X-218901000Y160624000D02*
X-213518000Y160624000D01*
X-192024000Y162052000D02*
X-191696000Y161724000D01*
X-213518000Y160624000D02*
X-212090000Y162052000D01*
X-192786000Y162052000D02*
X-192024000Y162052000D01*
%TO.N,Net-(D148-DOUT)*%
X-183038000Y160624000D02*
X-181864000Y161798000D01*
X-161724000Y161724000D02*
X-160131000Y161724000D01*
X-188601000Y160624000D02*
X-183038000Y160624000D01*
X-161798000Y161798000D02*
X-161724000Y161724000D01*
%TO.N,Net-(D149-DOUT)*%
X-158301000Y160624000D02*
X-153320000Y160624000D01*
X-131826000Y161798000D02*
X-131752000Y161724000D01*
X-131752000Y161724000D02*
X-129831000Y161724000D01*
X-153320000Y160624000D02*
X-151638000Y162306000D01*
%TO.N,Net-(D150-DOUT)*%
X-102108000Y161798000D02*
X-102034000Y161724000D01*
X-128001000Y160624000D02*
X-123348000Y160624000D01*
X-102034000Y161724000D02*
X-99531000Y161724000D01*
X-123348000Y160624000D02*
X-121412000Y162560000D01*
%TO.N,Net-(D151-DOUT)*%
X-97701000Y160624000D02*
X-93122000Y160624000D01*
X-93122000Y160624000D02*
X-91694000Y162052000D01*
X-72062000Y161724000D02*
X-69231000Y161724000D01*
X-72644000Y161798000D02*
X-72136000Y161798000D01*
X-72136000Y161798000D02*
X-72062000Y161724000D01*
%TO.N,Net-(D152-DOUT)*%
X-67401000Y160624000D02*
X-61818000Y160624000D01*
X-52070000Y144018000D02*
X-52166000Y144114000D01*
X-61818000Y160624000D02*
X-60706000Y159512000D01*
X-52166000Y144114000D02*
X-53187000Y144114000D01*
X-51562000Y144018000D02*
X-52070000Y144018000D01*
%TO.N,Net-(D153-DOUT)*%
X-55017000Y145214000D02*
X-57732000Y145214000D01*
X-57732000Y145214000D02*
X-58166000Y144780000D01*
X-82296000Y144326500D02*
X-82508500Y144114000D01*
X-82508500Y144114000D02*
X-83487000Y144114000D01*
%TO.N,Net-(D154-DOUT)*%
X-88212000Y145214000D02*
X-88900000Y144526000D01*
X-85317000Y145214000D02*
X-88212000Y145214000D01*
X-112014000Y144326500D02*
X-112226500Y144114000D01*
X-112226500Y144114000D02*
X-113787000Y144114000D01*
%TO.N,Net-(D155-DOUT)*%
X-142706500Y144114000D02*
X-144087000Y144114000D01*
X-118798000Y145214000D02*
X-118872000Y145288000D01*
X-115617000Y145214000D02*
X-118798000Y145214000D01*
X-142494000Y144326500D02*
X-142706500Y144114000D01*
%TO.N,Net-(D156-DOUT)*%
X-145917000Y145214000D02*
X-147648000Y145214000D01*
X-172720000Y144326500D02*
X-172932500Y144114000D01*
X-172932500Y144114000D02*
X-174387000Y144114000D01*
X-147648000Y145214000D02*
X-148082000Y144780000D01*
%TO.N,Net-(D157-DOUT)*%
X-178890000Y145214000D02*
X-179578000Y144526000D01*
X-176217000Y145214000D02*
X-178890000Y145214000D01*
X-202692000Y144326500D02*
X-202904500Y144114000D01*
X-202904500Y144114000D02*
X-204687000Y144114000D01*
%TO.N,Net-(D158-DOUT)*%
X-233172000Y144326500D02*
X-233384500Y144114000D01*
X-209624000Y145214000D02*
X-209804000Y145034000D01*
X-206517000Y145214000D02*
X-209624000Y145214000D01*
X-233384500Y144114000D02*
X-234987000Y144114000D01*
%TO.N,Net-(D159-DOUT)*%
X-263864500Y144114000D02*
X-265287000Y144114000D01*
X-236817000Y145214000D02*
X-239596000Y145214000D01*
X-263652000Y144326500D02*
X-263864500Y144114000D01*
X-239596000Y145214000D02*
X-240030000Y144780000D01*
%TO.N,Net-(D160-DOUT)*%
X-267117000Y145214000D02*
X-270764000Y141567000D01*
X-270764000Y141567000D02*
X-270764000Y139446000D01*
X-281432000Y133096000D02*
X-281331000Y132995000D01*
X-281331000Y132995000D02*
X-281331000Y131424000D01*
%TO.N,Net-(D161-DOUT)*%
X-279501000Y130324000D02*
X-277898000Y130324000D01*
X-254000000Y131572000D02*
X-253852000Y131424000D01*
X-277898000Y130324000D02*
X-277876000Y130302000D01*
X-253852000Y131424000D02*
X-251031000Y131424000D01*
%TO.N,Net-(D162-DOUT)*%
X-221996000Y131572000D02*
X-221848000Y131424000D01*
X-249201000Y130324000D02*
X-247164000Y130324000D01*
X-247164000Y130324000D02*
X-247142000Y130302000D01*
X-221848000Y131424000D02*
X-220731000Y131424000D01*
%TO.N,Net-(D163-DOUT)*%
X-216684000Y130324000D02*
X-216662000Y130302000D01*
X-218901000Y130324000D02*
X-216684000Y130324000D01*
X-192532000Y131572000D02*
X-192384000Y131424000D01*
X-192384000Y131424000D02*
X-190431000Y131424000D01*
%TO.N,Net-(D164-DOUT)*%
X-163576000Y131318000D02*
X-163470000Y131424000D01*
X-163470000Y131424000D02*
X-160131000Y131424000D01*
X-188601000Y130324000D02*
X-186458000Y130324000D01*
X-186458000Y130324000D02*
X-186436000Y130302000D01*
%TO.N,Net-(D165-DOUT)*%
X-132080000Y131318000D02*
X-131974000Y131424000D01*
X-155978000Y130324000D02*
X-155956000Y130302000D01*
X-158301000Y130324000D02*
X-155978000Y130324000D01*
X-131974000Y131424000D02*
X-129831000Y131424000D01*
%TO.N,Net-(D166-DOUT)*%
X-103378000Y131318000D02*
X-103272000Y131424000D01*
X-103272000Y131424000D02*
X-99531000Y131424000D01*
X-128001000Y130324000D02*
X-126768000Y130324000D01*
X-126768000Y130324000D02*
X-126746000Y130302000D01*
%TO.N,Net-(D167-DOUT)*%
X-97701000Y130324000D02*
X-96034000Y130324000D01*
X-72644000Y131318000D02*
X-72538000Y131424000D01*
X-96034000Y130324000D02*
X-96012000Y130302000D01*
X-72538000Y131424000D02*
X-69231000Y131424000D01*
%TO.N,Net-(D168-DOUT)*%
X-64538000Y130324000D02*
X-60706000Y126492000D01*
X-51308000Y113792000D02*
X-51330000Y113814000D01*
X-67401000Y130324000D02*
X-64538000Y130324000D01*
X-51330000Y113814000D02*
X-53187000Y113814000D01*
%TO.N,Net-(D169-DOUT)*%
X-81534000Y114046000D02*
X-81766000Y113814000D01*
X-58060000Y114914000D02*
X-58674000Y114300000D01*
X-81766000Y113814000D02*
X-83487000Y113814000D01*
X-55017000Y114914000D02*
X-58060000Y114914000D01*
%TO.N,Net-(D170-DOUT)*%
X-86762000Y114914000D02*
X-87122000Y114554000D01*
X-112014000Y114026500D02*
X-112226500Y113814000D01*
X-85317000Y114914000D02*
X-86762000Y114914000D01*
X-112226500Y113814000D02*
X-113787000Y113814000D01*
%TO.N,Net-(D171-DOUT)*%
X-115617000Y114914000D02*
X-119020000Y114914000D01*
X-119020000Y114914000D02*
X-119380000Y114554000D01*
X-142748000Y114046000D02*
X-142980000Y113814000D01*
X-142980000Y113814000D02*
X-144087000Y113814000D01*
%TO.N,Net-(D172-DOUT)*%
X-148738000Y114914000D02*
X-148844000Y114808000D01*
X-172678500Y113814000D02*
X-174387000Y113814000D01*
X-172466000Y114026500D02*
X-172678500Y113814000D01*
X-145917000Y114914000D02*
X-148738000Y114914000D01*
%TO.N,Net-(D173-DOUT)*%
X-202396500Y113814000D02*
X-204687000Y113814000D01*
X-202184000Y114026500D02*
X-202396500Y113814000D01*
X-179472000Y114914000D02*
X-180086000Y114300000D01*
X-176217000Y114914000D02*
X-179472000Y114914000D01*
%TO.N,Net-(D174-DOUT)*%
X-209444000Y114914000D02*
X-210058000Y114300000D01*
X-232918000Y114026500D02*
X-233130500Y113814000D01*
X-206517000Y114914000D02*
X-209444000Y114914000D01*
X-233130500Y113814000D02*
X-234987000Y113814000D01*
%TO.N,Net-(D175-DOUT)*%
X-236817000Y114914000D02*
X-240178000Y114914000D01*
X-263884000Y113814000D02*
X-265287000Y113814000D01*
X-263652000Y114046000D02*
X-263884000Y113814000D01*
X-240178000Y114914000D02*
X-240538000Y114554000D01*
%TO.N,Net-(D176-DOUT)*%
X-271018000Y111013000D02*
X-271018000Y110998000D01*
X-281432000Y102870000D02*
X-281331000Y102769000D01*
X-281331000Y102769000D02*
X-281331000Y101124000D01*
X-267117000Y114914000D02*
X-271018000Y111013000D01*
%TO.N,Net-(D177-DOUT)*%
X-279501000Y100024000D02*
X-273864000Y100024000D01*
X-251682000Y101124000D02*
X-251031000Y101124000D01*
X-252222000Y101092000D02*
X-251714000Y101092000D01*
X-273864000Y100024000D02*
X-272542000Y101346000D01*
X-251714000Y101092000D02*
X-251682000Y101124000D01*
%TO.N,Net-(D178-DOUT)*%
X-249201000Y100024000D02*
X-242622000Y100024000D01*
X-242622000Y100024000D02*
X-242062000Y100584000D01*
X-222758000Y101092000D02*
X-222726000Y101124000D01*
X-222726000Y101124000D02*
X-220731000Y101124000D01*
%TO.N,Net-(D179-DOUT)*%
X-215444000Y100024000D02*
X-215392000Y100076000D01*
X-193008000Y101124000D02*
X-190431000Y101124000D01*
X-193040000Y101092000D02*
X-193008000Y101124000D01*
X-218901000Y100024000D02*
X-215444000Y100024000D01*
%TO.N,Net-(D180-DOUT)*%
X-188601000Y100024000D02*
X-182170000Y100024000D01*
X-163830000Y101092000D02*
X-163798000Y101124000D01*
X-182170000Y100024000D02*
X-182118000Y100076000D01*
X-163798000Y101124000D02*
X-160131000Y101124000D01*
%TO.N,Net-(D181-DOUT)*%
X-158301000Y100024000D02*
X-152452000Y100024000D01*
X-133572000Y101124000D02*
X-129831000Y101124000D01*
X-133604000Y101092000D02*
X-133572000Y101124000D01*
X-152452000Y100024000D02*
X-152400000Y100076000D01*
%TO.N,Net-(D182-DOUT)*%
X-102108000Y101092000D02*
X-101600000Y101092000D01*
X-101600000Y101092000D02*
X-101568000Y101124000D01*
X-101568000Y101124000D02*
X-99531000Y101124000D01*
X-128001000Y100024000D02*
X-122480000Y100024000D01*
X-122480000Y100024000D02*
X-121412000Y101092000D01*
%TO.N,Net-(D183-DOUT)*%
X-93270000Y100024000D02*
X-93218000Y100076000D01*
X-71342000Y101124000D02*
X-69231000Y101124000D01*
X-97701000Y100024000D02*
X-93270000Y100024000D01*
X-71374000Y101092000D02*
X-71342000Y101124000D01*
%TO.N,Net-(D184-DOUT)*%
X-67401000Y100024000D02*
X-61162000Y100024000D01*
X-51180000Y85521000D02*
X-51180000Y90042000D01*
X-61162000Y100024000D02*
X-60452000Y99314000D01*
X-53187000Y83514000D02*
X-51180000Y85521000D01*
X-51180000Y90042000D02*
X-51562000Y90424000D01*
%TO.N,Net-(D185-DOUT)*%
X-55017000Y84614000D02*
X-82387000Y84614000D01*
X-82387000Y84614000D02*
X-83487000Y83514000D01*
%TO.N,Net-(D186-DOUT)*%
X-112687000Y84614000D02*
X-113787000Y83514000D01*
X-85317000Y84614000D02*
X-112687000Y84614000D01*
%TO.N,Net-(D187-DOUT)*%
X-115617000Y84614000D02*
X-142987000Y84614000D01*
X-142987000Y84614000D02*
X-144087000Y83514000D01*
%TO.N,Net-(D188-DOUT)*%
X-145917000Y84614000D02*
X-173287000Y84614000D01*
X-173287000Y84614000D02*
X-174387000Y83514000D01*
%TO.N,Net-(D189-DOUT)*%
X-203587000Y84614000D02*
X-204687000Y83514000D01*
X-176217000Y84614000D02*
X-203587000Y84614000D01*
%TO.N,Net-(D190-DOUT)*%
X-206517000Y84614000D02*
X-233887000Y84614000D01*
X-233887000Y84614000D02*
X-234987000Y83514000D01*
%TO.N,Net-(D191-DOUT)*%
X-264187000Y84614000D02*
X-265287000Y83514000D01*
X-236817000Y84614000D02*
X-264187000Y84614000D01*
%TO.N,GND*%
X-146177000Y263144000D02*
X-145917000Y263404000D01*
X-208280000Y205232000D02*
X-207762000Y204714000D01*
X-128016000Y254254000D02*
X-128001000Y254239000D01*
X-280002000Y161412000D02*
X-280002000Y144188000D01*
X-97536000Y254254000D02*
X-90678000Y254254000D01*
X-267117000Y294477000D02*
X-267117000Y295614000D01*
X-128001000Y102347000D02*
X-128001000Y101124000D01*
X-278222189Y282924000D02*
X-273050000Y277751811D01*
X-122354000Y222324000D02*
X-120904000Y223774000D01*
X-86614000Y144526000D02*
X-86202000Y144114000D01*
X-97536000Y224028000D02*
X-97701000Y223863000D01*
X-267208000Y233680000D02*
X-267117000Y233771000D01*
X-97536000Y253746000D02*
X-97701000Y253581000D01*
X-139319000Y298958000D02*
X-138938000Y299339000D01*
X-265938000Y205893000D02*
X-267117000Y204714000D01*
X-117913000Y174301000D02*
X-118364000Y174752000D01*
X-60960000Y248158000D02*
X-60960000Y244094000D01*
X-128001000Y223505000D02*
X-128001000Y222324000D01*
X-147320000Y204978000D02*
X-147056000Y204714000D01*
X-247349000Y163576000D02*
X-242316000Y163576000D01*
X-158301000Y313224000D02*
X-157800000Y313725000D01*
X-87398000Y113814000D02*
X-85317000Y113814000D01*
X-279501000Y101124000D02*
X-279114000Y101124000D01*
X-128001000Y252624000D02*
X-122534000Y252624000D01*
X-117094000Y114300000D02*
X-116608000Y113814000D01*
X-67310000Y162814000D02*
X-67401000Y162723000D01*
X-147320000Y144526000D02*
X-146908000Y144114000D01*
X-97200000Y313725000D02*
X-67902000Y313725000D01*
X-177546000Y204978000D02*
X-177282000Y204714000D01*
X-122767000Y313224000D02*
X-122682000Y313309000D01*
X-279501000Y284125000D02*
X-279501000Y282924000D01*
X-188601000Y163443000D02*
X-188601000Y161724000D01*
X-176217000Y233739000D02*
X-176217000Y235014000D01*
X-158301000Y192024000D02*
X-153670000Y192024000D01*
X-86858000Y204714000D02*
X-85317000Y204714000D01*
X-176276000Y294132000D02*
X-176217000Y294191000D01*
X-67564000Y132842000D02*
X-67401000Y132679000D01*
X-177462000Y174414000D02*
X-176217000Y174414000D01*
X-86811000Y174555000D02*
X-88832811Y174555000D01*
X-218948000Y193548000D02*
X-218440000Y194056000D01*
X-87630000Y114046000D02*
X-87398000Y113814000D01*
X-158301000Y252624000D02*
X-152760000Y252624000D01*
X-147066000Y174752000D02*
X-146728000Y174414000D01*
X-139319000Y296799000D02*
X-139319000Y298958000D01*
X-122534000Y252624000D02*
X-120904000Y254254000D01*
X-146558000Y293370000D02*
X-149860000Y293370000D01*
X-67401000Y252624000D02*
X-65426000Y252624000D01*
X-96425000Y282924000D02*
X-97701000Y282924000D01*
X-58617000Y141289000D02*
X-58380000Y141052000D01*
X-55118000Y263779000D02*
X-55017000Y263880000D01*
X-267208000Y294386000D02*
X-267117000Y294477000D01*
X-267117000Y173827000D02*
X-267117000Y174414000D01*
X-116840000Y174752000D02*
X-116502000Y174414000D01*
X-206502000Y233680000D02*
X-206517000Y233695000D01*
X-131191000Y309626000D02*
X-130683000Y310134000D01*
X-236982000Y233426000D02*
X-237490000Y232918000D01*
X-218901000Y192993000D02*
X-218901000Y192024000D01*
X-218901000Y313224000D02*
X-218400000Y313725000D01*
X-97536000Y254254000D02*
X-97536000Y253746000D01*
X-141605000Y302133000D02*
X-141351000Y302133000D01*
X-86202000Y144114000D02*
X-85317000Y144114000D01*
X-128001000Y193279000D02*
X-128001000Y192024000D01*
X-147320000Y114300000D02*
X-146834000Y113814000D01*
X-188601000Y253359000D02*
X-188601000Y252624000D01*
X-206756000Y294386000D02*
X-207264000Y293878000D01*
X-152760000Y252624000D02*
X-151638000Y253746000D01*
X-273738000Y222324000D02*
X-272542000Y223520000D01*
X-145917000Y233813000D02*
X-145917000Y235014000D01*
X-277241000Y216283206D02*
X-277241000Y194186000D01*
X-127291500Y312514500D02*
X-101242500Y312514500D01*
X-267854000Y265314000D02*
X-267117000Y265314000D01*
X-59379000Y175446811D02*
X-59379000Y172351000D01*
X-183240000Y252624000D02*
X-181864000Y254000000D01*
X-212090000Y194056000D02*
X-211582000Y193548000D01*
X-267117000Y113121000D02*
X-267117000Y113814000D01*
X-67401000Y252624000D02*
X-67401000Y252639000D01*
X-52435000Y298258000D02*
X-52435000Y293513000D01*
X-218901000Y254207000D02*
X-218901000Y252624000D01*
X-276964000Y141150000D02*
X-276964000Y103850000D01*
X-177292000Y114300000D02*
X-176806000Y113814000D01*
X-115617000Y233887000D02*
X-115617000Y235014000D01*
X-188601000Y289935000D02*
X-185293000Y293243000D01*
X-55017000Y295614000D02*
X-58208000Y295614000D01*
X-121920000Y193802000D02*
X-121666000Y194056000D01*
X-242316000Y163576000D02*
X-242062000Y163322000D01*
X-218400000Y313725000D02*
X-189102000Y313725000D01*
X-96139000Y283210000D02*
X-96425000Y282924000D01*
X-249201000Y254227000D02*
X-249201000Y252624000D01*
X-128016000Y223520000D02*
X-128001000Y223505000D01*
X-58380000Y262252000D02*
X-58380000Y255252000D01*
X-219402000Y313725000D02*
X-218901000Y313224000D01*
X-240284000Y232918000D02*
X-240538000Y233172000D01*
X-276964000Y103850000D02*
X-276680000Y103850000D01*
X-279501000Y222324000D02*
X-273738000Y222324000D01*
X-207540000Y113814000D02*
X-206517000Y113814000D01*
X-88832811Y174555000D02*
X-89408000Y175130189D01*
X-158242000Y253746000D02*
X-158301000Y253687000D01*
X-279501000Y161951000D02*
X-272796000Y168656000D01*
X-161417000Y313022500D02*
X-161334500Y313022500D01*
X-56590000Y83514000D02*
X-55017000Y83514000D01*
X-267208000Y113030000D02*
X-267117000Y113121000D01*
X-249174000Y163576000D02*
X-249201000Y163549000D01*
X-115824000Y233680000D02*
X-119380000Y233680000D01*
X-97536000Y163068000D02*
X-97701000Y162903000D01*
X-57150000Y235014000D02*
X-58738000Y233426000D01*
X-280002000Y144188000D02*
X-276964000Y141150000D01*
X-138938000Y297180000D02*
X-139319000Y296799000D01*
X-249201000Y193521000D02*
X-249201000Y192024000D01*
X-274066000Y192024000D02*
X-272542000Y193548000D01*
X-56366000Y113814000D02*
X-55017000Y113814000D01*
X-67401000Y102199000D02*
X-67401000Y101124000D01*
X-267208000Y291592000D02*
X-270764000Y288036000D01*
X-249201000Y131424000D02*
X-249201000Y133123000D01*
X-218948000Y193040000D02*
X-218901000Y192993000D01*
X-67564000Y102362000D02*
X-67401000Y102199000D01*
X-279000000Y313725000D02*
X-249702000Y313725000D01*
X-158301000Y193235000D02*
X-158301000Y192024000D01*
X-267208000Y143002000D02*
X-267117000Y143093000D01*
X-127413000Y282924000D02*
X-128001000Y282924000D01*
X-128016000Y193294000D02*
X-128001000Y193279000D01*
X-248700000Y313725000D02*
X-219402000Y313725000D01*
X-272542000Y198882000D02*
X-272288000Y198882000D01*
X-97701000Y253581000D02*
X-97701000Y252624000D01*
X-67401000Y282924000D02*
X-67401000Y288453000D01*
X-139319000Y296799000D02*
X-140589000Y295529000D01*
X-161798000Y313403500D02*
X-161417000Y313022500D01*
X-176276000Y263779000D02*
X-176276000Y264160000D01*
X-116840000Y174752000D02*
X-117291000Y174301000D01*
X-243184000Y252624000D02*
X-242316000Y253492000D01*
X-177282000Y204714000D02*
X-176217000Y204714000D01*
X-85344000Y233680000D02*
X-85317000Y233707000D01*
X-267970000Y174752000D02*
X-267455000Y174752000D01*
X-158301000Y223715000D02*
X-158301000Y222324000D01*
X-67310000Y254254000D02*
X-67401000Y254163000D01*
X-179578000Y233680000D02*
X-179832000Y233426000D01*
X-67401000Y224191000D02*
X-67401000Y222324000D01*
X-237734000Y204714000D02*
X-236817000Y204714000D01*
X-276663000Y216861206D02*
X-277241000Y216283206D01*
X-128016000Y133096000D02*
X-128001000Y133081000D01*
X-59125000Y111497000D02*
X-58380000Y110752000D01*
X-249201000Y252624000D02*
X-243184000Y252624000D01*
X-145917000Y294011000D02*
X-145917000Y295614000D01*
X-188601000Y192907000D02*
X-188601000Y192024000D01*
X-279072000Y222324000D02*
X-272288000Y229108000D01*
X-206756000Y294386000D02*
X-206517000Y294625000D01*
X-97536000Y193294000D02*
X-97701000Y193129000D01*
X-56642000Y144526000D02*
X-56230000Y144114000D01*
X-218694000Y223774000D02*
X-218901000Y223567000D01*
X-85317000Y263552000D02*
X-85317000Y265314000D01*
X-85344000Y294132000D02*
X-85317000Y294159000D01*
X-206517000Y264175000D02*
X-206517000Y265314000D01*
X-58380000Y115231811D02*
X-59125000Y114486811D01*
X-89408000Y175130189D02*
X-89408000Y175514000D01*
X-212344000Y223774000D02*
X-211836000Y224282000D01*
X-273632000Y161724000D02*
X-272796000Y162560000D01*
X-58380000Y134052000D02*
X-58380000Y115231811D01*
X-128001000Y254239000D02*
X-128001000Y252624000D01*
X-116788000Y83514000D02*
X-115617000Y83514000D01*
X-55017000Y263880000D02*
X-55017000Y265314000D01*
X-213466000Y252624000D02*
X-212090000Y254000000D01*
X-206756000Y233426000D02*
X-210058000Y233426000D01*
X-276964000Y286640000D02*
X-276986000Y286640000D01*
X-188601000Y252624000D02*
X-183240000Y252624000D01*
X-128016000Y102362000D02*
X-128001000Y102347000D01*
X-128001000Y313224000D02*
X-122767000Y313224000D01*
X-58380000Y285552000D02*
X-58380000Y262252000D01*
X-218948000Y193548000D02*
X-218948000Y193040000D01*
X-116830000Y204714000D02*
X-115617000Y204714000D01*
X-207772000Y114046000D02*
X-207540000Y113814000D01*
X-158301000Y132021000D02*
X-158301000Y131424000D01*
X-116936000Y144114000D02*
X-115617000Y144114000D01*
X-218694000Y102616000D02*
X-218694000Y102108000D01*
X-57150000Y83566000D02*
X-56642000Y83566000D01*
X-86276000Y174414000D02*
X-85317000Y174414000D01*
X-238506000Y144526000D02*
X-238094000Y144114000D01*
X-160632000Y313725000D02*
X-158802000Y313725000D01*
X-249201000Y161724000D02*
X-247349000Y163576000D01*
X-158242000Y163322000D02*
X-158301000Y163263000D01*
X-58380000Y194652000D02*
X-58380000Y176445811D01*
X-58380000Y176445811D02*
X-59379000Y175446811D01*
X-86816000Y83514000D02*
X-85317000Y83514000D01*
X-268426000Y83514000D02*
X-267117000Y83514000D01*
X-158242000Y102362000D02*
X-158301000Y102303000D01*
X-189102000Y313725000D02*
X-188601000Y313224000D01*
X-249174000Y102616000D02*
X-249201000Y102589000D01*
X-236817000Y233591000D02*
X-236817000Y235014000D01*
X-55017000Y293979000D02*
X-55017000Y295614000D01*
X-188601000Y132709000D02*
X-188601000Y131424000D01*
X-176276000Y294132000D02*
X-179578000Y294132000D01*
X-58380000Y110752000D02*
X-58380000Y103752000D01*
X-238094000Y144114000D02*
X-236817000Y144114000D01*
X-277770000Y131424000D02*
X-272796000Y136398000D01*
X-177494000Y83514000D02*
X-176217000Y83514000D01*
X-116332000Y293370000D02*
X-118618000Y293370000D01*
X-57150000Y235014000D02*
X-55017000Y235014000D01*
X-146050000Y293878000D02*
X-145917000Y294011000D01*
X-279501000Y282924000D02*
X-278222189Y282924000D01*
X-238506000Y114300000D02*
X-238020000Y113814000D01*
X-58380000Y255252000D02*
X-58380000Y231952000D01*
X-276964000Y286640000D02*
X-276964000Y223243000D01*
X-277241000Y194186000D02*
X-280002000Y191425000D01*
X-158802000Y313725000D02*
X-158301000Y313224000D01*
X-279501000Y161724000D02*
X-273632000Y161724000D01*
X-54516000Y174915000D02*
X-54516000Y176015000D01*
X-158301000Y222324000D02*
X-156851000Y223774000D01*
X-117094000Y83820000D02*
X-116788000Y83514000D01*
X-218901000Y223567000D02*
X-218901000Y222324000D01*
X-86614000Y174752000D02*
X-86276000Y174414000D01*
X-249702000Y313725000D02*
X-249201000Y313224000D01*
X-99559000Y314198000D02*
X-98675000Y314198000D01*
X-146050000Y293878000D02*
X-146558000Y293370000D01*
X-147320000Y83820000D02*
X-147014000Y83514000D01*
X-273918000Y252624000D02*
X-272288000Y254254000D01*
X-146908000Y144114000D02*
X-145917000Y144114000D01*
X-86656000Y295614000D02*
X-88138000Y294132000D01*
X-218694000Y102108000D02*
X-218901000Y101901000D01*
X-218901000Y287551000D02*
X-225880000Y294530000D01*
X-146834000Y113814000D02*
X-145917000Y113814000D01*
X-249201000Y223493000D02*
X-249201000Y222324000D01*
X-279501000Y192024000D02*
X-279400000Y192024000D01*
X-238506000Y83820000D02*
X-238200000Y83514000D01*
X-67401000Y288453000D02*
X-64770000Y291084000D01*
X-147056000Y204714000D02*
X-145917000Y204714000D01*
X-128001000Y313224000D02*
X-127291500Y312514500D01*
X-55118000Y293878000D02*
X-55017000Y293979000D01*
X-265938000Y116078000D02*
X-265938000Y114993000D01*
X-147014000Y83514000D02*
X-145917000Y83514000D01*
X-54516000Y189136000D02*
X-58674000Y193294000D01*
X-249174000Y193548000D02*
X-242062000Y193548000D01*
X-267208000Y173736000D02*
X-267117000Y173827000D01*
X-218694000Y223774000D02*
X-212344000Y223774000D01*
X-87884000Y114046000D02*
X-87630000Y114046000D01*
X-117094000Y204978000D02*
X-116830000Y204714000D01*
X-237660000Y174414000D02*
X-236817000Y174414000D01*
X-131318000Y313182000D02*
X-131318000Y313725000D01*
X-249174000Y193548000D02*
X-249201000Y193521000D01*
X-157988000Y132334000D02*
X-158301000Y132021000D01*
X-57214000Y235014000D02*
X-57150000Y235014000D01*
X-218694000Y131631000D02*
X-218901000Y131424000D01*
X-273050000Y277751811D02*
X-273050000Y266446000D01*
X-158242000Y223774000D02*
X-158301000Y223715000D01*
X-85317000Y294159000D02*
X-85317000Y295614000D01*
X-249201000Y133123000D02*
X-254762000Y138684000D01*
X-267208000Y173228000D02*
X-267208000Y173736000D01*
X-128016000Y193802000D02*
X-121920000Y193802000D01*
X-177800000Y83820000D02*
X-177494000Y83514000D01*
X-58166000Y235966000D02*
X-57214000Y235014000D01*
X-188399500Y313022500D02*
X-161417000Y313022500D01*
X-116502000Y174414000D02*
X-115617000Y174414000D01*
X-206502000Y264160000D02*
X-206517000Y264175000D01*
X-279501000Y131424000D02*
X-277770000Y131424000D01*
X-276964000Y223243000D02*
X-276663000Y222942000D01*
X-249174000Y223520000D02*
X-248920000Y223774000D01*
X-176217000Y264219000D02*
X-176217000Y265314000D01*
X-67401000Y193457000D02*
X-67401000Y192024000D01*
X-54516000Y210472000D02*
X-58674000Y214630000D01*
X-236817000Y294297000D02*
X-236817000Y295614000D01*
X-236817000Y265314000D02*
X-236817000Y254800000D01*
X-188214000Y224028000D02*
X-182372000Y224028000D01*
X-267117000Y233771000D02*
X-267117000Y235014000D01*
X-188468000Y102362000D02*
X-188601000Y102229000D01*
X-210058000Y233426000D02*
X-210312000Y233680000D01*
X-177388000Y144114000D02*
X-176217000Y144114000D01*
X-131318000Y313725000D02*
X-128502000Y313725000D01*
X-97701000Y132423000D02*
X-97701000Y131424000D01*
X-207264000Y293878000D02*
X-210312000Y293878000D01*
X-58380000Y292552000D02*
X-58380000Y285552000D01*
X-268224000Y265684000D02*
X-267854000Y265314000D01*
X-206517000Y233695000D02*
X-206517000Y235014000D01*
X-157800000Y313725000D02*
X-131318000Y313725000D01*
X-218948000Y254254000D02*
X-218901000Y254207000D01*
X-145917000Y263404000D02*
X-145917000Y265314000D01*
X-117291000Y174301000D02*
X-117913000Y174301000D01*
X-188468000Y254000000D02*
X-188468000Y253492000D01*
X-97536000Y193294000D02*
X-91440000Y193294000D01*
X-115617000Y263191000D02*
X-115617000Y265314000D01*
X-97701000Y223863000D02*
X-97701000Y222324000D01*
X-249201000Y289787000D02*
X-246888000Y292100000D01*
X-218901000Y101901000D02*
X-218901000Y101124000D01*
X-236982000Y294132000D02*
X-239014000Y294132000D01*
X-97701000Y313224000D02*
X-97200000Y313725000D01*
X-58380000Y171352000D02*
X-58380000Y164352000D01*
X-87122000Y83820000D02*
X-86816000Y83514000D01*
X-238020000Y113814000D02*
X-236817000Y113814000D01*
X-279501000Y222324000D02*
X-279072000Y222324000D01*
X-158301000Y288485000D02*
X-154940000Y291846000D01*
X-158301000Y282924000D02*
X-158301000Y288485000D01*
X-85344000Y293624000D02*
X-85344000Y294132000D01*
X-279501000Y161724000D02*
X-279501000Y161951000D01*
X-176276000Y264160000D02*
X-176217000Y264219000D01*
X-236817000Y254800000D02*
X-236855000Y254762000D01*
X-115617000Y294179000D02*
X-115617000Y295614000D01*
X-176806000Y113814000D02*
X-176217000Y113814000D01*
X-128001000Y133081000D02*
X-128001000Y131424000D01*
X-56642000Y83566000D02*
X-56590000Y83514000D01*
X-188468000Y132842000D02*
X-188601000Y132709000D01*
X-279501000Y192024000D02*
X-274066000Y192024000D01*
X-58380000Y164352000D02*
X-58617000Y164115000D01*
X-128502000Y313725000D02*
X-128001000Y313224000D01*
X-90678000Y254254000D02*
X-90424000Y254508000D01*
X-207614000Y144114000D02*
X-206517000Y144114000D01*
X-67902000Y313725000D02*
X-67401000Y313224000D01*
X-188468000Y223774000D02*
X-188601000Y223641000D01*
X-208534000Y83820000D02*
X-208228000Y83514000D01*
X-54516000Y205215000D02*
X-54516000Y210472000D01*
X-279501000Y313224000D02*
X-279000000Y313725000D01*
X-67310000Y224282000D02*
X-67401000Y224191000D01*
X-158301000Y163263000D02*
X-158301000Y161724000D01*
X-207180000Y174414000D02*
X-206517000Y174414000D01*
X-146728000Y174414000D02*
X-145917000Y174414000D01*
X-158242000Y254254000D02*
X-158242000Y253746000D01*
X-58738000Y233426000D02*
X-59182000Y233426000D01*
X-54516000Y174915000D02*
X-54516000Y189136000D01*
X-97701000Y162903000D02*
X-97701000Y161724000D01*
X-67401000Y132679000D02*
X-67401000Y131424000D01*
X-279400000Y284226000D02*
X-279501000Y284125000D01*
X-188601000Y102229000D02*
X-188601000Y101124000D01*
X-266192000Y145039000D02*
X-267117000Y144114000D01*
X-56388000Y113792000D02*
X-56366000Y113814000D01*
X-279114000Y101124000D02*
X-276534000Y103704000D01*
X-85317000Y233707000D02*
X-85317000Y235014000D01*
X-280002000Y191425000D02*
X-280002000Y174488000D01*
X-188601000Y282924000D02*
X-188601000Y289935000D01*
X-67401000Y313224000D02*
X-52435000Y298258000D01*
X-279400000Y192024000D02*
X-272542000Y198882000D01*
X-267208000Y142494000D02*
X-267208000Y143002000D01*
X-156851000Y223774000D02*
X-151638000Y223774000D01*
X-265938000Y114993000D02*
X-267117000Y113814000D01*
X-58380000Y141052000D02*
X-58380000Y134052000D01*
X-188468000Y223774000D02*
X-188214000Y224028000D01*
X-267117000Y143093000D02*
X-267117000Y144114000D01*
X-128001000Y222324000D02*
X-122354000Y222324000D01*
X-54777000Y176276000D02*
X-58928000Y176276000D01*
X-58617000Y164115000D02*
X-58617000Y141289000D01*
X-218440000Y194056000D02*
X-212090000Y194056000D01*
X-238252000Y205232000D02*
X-237734000Y204714000D01*
X-65426000Y252624000D02*
X-60960000Y248158000D01*
X-238200000Y83514000D02*
X-236817000Y83514000D01*
X-101242500Y312514500D02*
X-99559000Y314198000D01*
X-218901000Y282924000D02*
X-218901000Y287551000D01*
X-128016000Y193802000D02*
X-128016000Y193294000D01*
X-116608000Y113814000D02*
X-115617000Y113814000D01*
X-188601000Y313224000D02*
X-188399500Y313022500D01*
X-267716000Y202946000D02*
X-267117000Y203545000D01*
X-115570000Y263144000D02*
X-115617000Y263191000D01*
X-140589000Y295529000D02*
X-140589000Y293878000D01*
X-97701000Y102019000D02*
X-97701000Y101124000D01*
X-117348000Y144526000D02*
X-116936000Y144114000D01*
X-158242000Y193294000D02*
X-158301000Y193235000D01*
X-176276000Y233680000D02*
X-176217000Y233739000D01*
X-248920000Y223774000D02*
X-243078000Y223774000D01*
X-128001000Y163083000D02*
X-128001000Y161724000D01*
X-188468000Y163576000D02*
X-188601000Y163443000D01*
X-236982000Y233426000D02*
X-236817000Y233591000D01*
X-249201000Y282924000D02*
X-249201000Y289787000D01*
X-134869000Y309626000D02*
X-131191000Y309626000D01*
X-218694000Y132334000D02*
X-218694000Y131631000D01*
X-276964000Y164450000D02*
X-280002000Y161412000D01*
X-85344000Y233680000D02*
X-89154000Y233680000D01*
X-115570000Y294132000D02*
X-116332000Y293370000D01*
X-208026000Y144526000D02*
X-207614000Y144114000D01*
X-267455000Y174752000D02*
X-267117000Y174414000D01*
X-85471000Y263398000D02*
X-85317000Y263552000D01*
X-218694000Y162814000D02*
X-218901000Y162607000D01*
X-276986000Y286640000D02*
X-279400000Y284226000D01*
X-279501000Y252624000D02*
X-273918000Y252624000D01*
X-218901000Y252624000D02*
X-213466000Y252624000D01*
X-54516000Y176015000D02*
X-54777000Y176276000D01*
X-126873000Y283464000D02*
X-127413000Y282924000D01*
X-67310000Y193548000D02*
X-67401000Y193457000D01*
X-158301000Y102303000D02*
X-158301000Y101124000D01*
X-276534000Y103704000D02*
X-272542000Y107696000D01*
X-280002000Y174488000D02*
X-276964000Y171450000D01*
X-276663000Y222942000D02*
X-276663000Y216861206D01*
X-268732000Y83820000D02*
X-268426000Y83514000D01*
X-55017000Y174414000D02*
X-54516000Y174915000D01*
X-86614000Y174752000D02*
X-86811000Y174555000D01*
X-176217000Y294191000D02*
X-176217000Y295614000D01*
X-97536000Y132588000D02*
X-97701000Y132423000D01*
X-55017000Y204714000D02*
X-54516000Y205215000D01*
X-146050000Y233680000D02*
X-145917000Y233813000D01*
X-176276000Y233680000D02*
X-179578000Y233680000D01*
X-249174000Y223520000D02*
X-249201000Y223493000D01*
X-188214000Y193548000D02*
X-182118000Y193548000D01*
X-97701000Y193129000D02*
X-97701000Y192024000D01*
X-218901000Y162607000D02*
X-218901000Y161724000D01*
X-218694000Y163322000D02*
X-218694000Y162814000D01*
X-59379000Y172351000D02*
X-58380000Y171352000D01*
X-67401000Y254163000D02*
X-67401000Y252624000D01*
X-55118000Y293370000D02*
X-55118000Y293878000D01*
X-58208000Y295614000D02*
X-58674000Y295148000D01*
X-239014000Y294132000D02*
X-239268000Y293878000D01*
X-98675000Y314198000D02*
X-97701000Y313224000D01*
X-265938000Y207010000D02*
X-265938000Y205893000D01*
X-85317000Y295614000D02*
X-86656000Y295614000D01*
X-249201000Y163549000D02*
X-249201000Y161724000D01*
X-206517000Y294625000D02*
X-206517000Y295614000D01*
X-249174000Y254254000D02*
X-249201000Y254227000D01*
X-92128000Y222324000D02*
X-90678000Y223774000D01*
X-243078000Y223774000D02*
X-242824000Y223520000D01*
X-207518000Y174752000D02*
X-207180000Y174414000D01*
X-267208000Y294386000D02*
X-267208000Y291592000D01*
X-67401000Y162723000D02*
X-67401000Y161724000D01*
X-236982000Y294132000D02*
X-236817000Y294297000D01*
X-188468000Y253492000D02*
X-188601000Y253359000D01*
X-91440000Y193294000D02*
X-90932000Y193802000D01*
X-158301000Y253687000D02*
X-158301000Y252624000D01*
X-153670000Y192024000D02*
X-151892000Y193802000D01*
X-161334500Y313022500D02*
X-160632000Y313725000D01*
X-115824000Y233680000D02*
X-115617000Y233887000D01*
X-267117000Y203545000D02*
X-267117000Y204714000D01*
X-98044000Y102362000D02*
X-97701000Y102019000D01*
X-276680000Y103850000D02*
X-276534000Y103704000D01*
X-161798000Y313690000D02*
X-161798000Y313403500D01*
X-208228000Y83514000D02*
X-206517000Y83514000D01*
X-59125000Y114486811D02*
X-59125000Y111497000D01*
X-276964000Y171450000D02*
X-276964000Y164450000D01*
X-177800000Y174752000D02*
X-177462000Y174414000D01*
X-207762000Y204714000D02*
X-206517000Y204714000D01*
X-56230000Y144114000D02*
X-55017000Y144114000D01*
X-267208000Y112522000D02*
X-267208000Y113030000D01*
X-237490000Y232918000D02*
X-240284000Y232918000D01*
X-87122000Y204978000D02*
X-86858000Y204714000D01*
X-146050000Y233680000D02*
X-149860000Y233680000D01*
X-127762000Y163322000D02*
X-128001000Y163083000D01*
X-266192000Y146304000D02*
X-266192000Y145039000D01*
X-157988000Y132842000D02*
X-157988000Y132334000D01*
X-188601000Y223641000D02*
X-188601000Y222324000D01*
X-97701000Y222324000D02*
X-92128000Y222324000D01*
X-188214000Y193548000D02*
X-188214000Y193294000D01*
X-249201000Y313224000D02*
X-248700000Y313725000D01*
X-206502000Y233680000D02*
X-206756000Y233426000D01*
X-177800000Y144526000D02*
X-177388000Y144114000D01*
X-188214000Y193294000D02*
X-188601000Y192907000D01*
X-249201000Y102589000D02*
X-249201000Y101124000D01*
X-58380000Y224952000D02*
X-58380000Y194652000D01*
X-58380000Y231952000D02*
X-58380000Y224952000D01*
X-115570000Y294132000D02*
X-115617000Y294179000D01*
X-237998000Y174752000D02*
X-237660000Y174414000D01*
X-141351000Y302133000D02*
X-140335000Y301117000D01*
X-67401000Y252639000D02*
X-60833000Y259207000D01*
X-52435000Y293513000D02*
X-52578000Y293370000D01*
%TD*%
M02*
