%TF.GenerationSoftware,KiCad,Pcbnew,9.0.1*%
%TF.CreationDate,2025-06-02T12:16:08+01:00*%
%TF.ProjectId,Button MIDI Controller,42757474-6f6e-4204-9d49-444920436f6e,rev?*%
%TF.SameCoordinates,Original*%
%TF.FileFunction,Legend,Top*%
%TF.FilePolarity,Positive*%
%FSLAX46Y46*%
G04 Gerber Fmt 4.6, Leading zero omitted, Abs format (unit mm)*
G04 Created by KiCad (PCBNEW 9.0.1) date 2025-06-02 12:16:08*
%MOMM*%
%LPD*%
G01*
G04 APERTURE LIST*
%ADD10C,0.150000*%
%ADD11C,0.120000*%
%ADD12C,0.200000*%
%ADD13C,0.127000*%
G04 APERTURE END LIST*
D10*
X-170238990Y310766666D02*
X-170238990Y310433333D01*
X-169715180Y310433333D02*
X-170715180Y310433333D01*
X-170715180Y310433333D02*
X-170715180Y310909523D01*
X-169715180Y311814285D02*
X-169715180Y311242857D01*
X-169715180Y311528571D02*
X-170715180Y311528571D01*
X-170715180Y311528571D02*
X-170572323Y311433333D01*
X-170572323Y311433333D02*
X-170477085Y311338095D01*
X-170477085Y311338095D02*
X-170429466Y311242857D01*
D11*
%TO.C,D90*%
X-86002000Y264714000D02*
X-86002000Y266714000D01*
X-86002000Y264714000D02*
X-82802000Y264714000D01*
X-85702000Y267014000D02*
X-86002000Y266714000D01*
X-85702000Y267014000D02*
X-82802000Y267014000D01*
X-82802000Y267014000D02*
X-82802000Y264714000D01*
%TO.C,D40*%
X-64970000Y172010000D02*
X-64970000Y176020000D01*
X-64970000Y172010000D02*
X-62970000Y172010000D01*
X-62970000Y172010000D02*
X-62970000Y176020000D01*
%TO.C,D198*%
X-63090000Y139940000D02*
X-63090000Y135930000D01*
X-61090000Y139940000D02*
X-63090000Y139940000D01*
X-61090000Y139940000D02*
X-61090000Y135930000D01*
%TO.C,D30*%
X-125690000Y202170000D02*
X-125690000Y206180000D01*
X-125690000Y202170000D02*
X-123690000Y202170000D01*
X-123690000Y202170000D02*
X-123690000Y206180000D01*
%TO.C,D114*%
X-251716000Y220624000D02*
X-251716000Y222924000D01*
X-248816000Y220624000D02*
X-251716000Y220624000D01*
X-248816000Y220624000D02*
X-248516000Y220924000D01*
X-248516000Y222924000D02*
X-251716000Y222924000D01*
X-248516000Y222924000D02*
X-248516000Y220924000D01*
%TO.C,D192*%
X-267802000Y82914000D02*
X-267802000Y84914000D01*
X-267802000Y82914000D02*
X-264602000Y82914000D01*
X-267502000Y85214000D02*
X-267802000Y84914000D01*
X-267502000Y85214000D02*
X-264602000Y85214000D01*
X-264602000Y85214000D02*
X-264602000Y82914000D01*
%TO.C,D109*%
X-176902000Y234414000D02*
X-176902000Y236414000D01*
X-176902000Y234414000D02*
X-173702000Y234414000D01*
X-176602000Y236714000D02*
X-176902000Y236414000D01*
X-176602000Y236714000D02*
X-173702000Y236714000D01*
X-173702000Y236714000D02*
X-173702000Y234414000D01*
%TO.C,D88*%
X-69916000Y281224000D02*
X-69916000Y283524000D01*
X-67016000Y281224000D02*
X-69916000Y281224000D01*
X-67016000Y281224000D02*
X-66716000Y281524000D01*
X-66716000Y283524000D02*
X-69916000Y283524000D01*
X-66716000Y283524000D02*
X-66716000Y281524000D01*
%TO.C,D20*%
X-186210000Y232000000D02*
X-186210000Y236010000D01*
X-186210000Y232000000D02*
X-184210000Y232000000D01*
X-184210000Y232000000D02*
X-184210000Y236010000D01*
%TO.C,D120*%
X-69916000Y220624000D02*
X-69916000Y222924000D01*
X-67016000Y220624000D02*
X-69916000Y220624000D01*
X-67016000Y220624000D02*
X-66716000Y220924000D01*
X-66716000Y222924000D02*
X-69916000Y222924000D01*
X-66716000Y222924000D02*
X-66716000Y220924000D01*
%TO.C,D18*%
X-246820000Y233090000D02*
X-246820000Y237100000D01*
X-246820000Y233090000D02*
X-244820000Y233090000D01*
X-244820000Y233090000D02*
X-244820000Y237100000D01*
%TO.C,D161*%
X-282016000Y129724000D02*
X-282016000Y132024000D01*
X-279116000Y129724000D02*
X-282016000Y129724000D01*
X-279116000Y129724000D02*
X-278816000Y130024000D01*
X-278816000Y132024000D02*
X-282016000Y132024000D01*
X-278816000Y132024000D02*
X-278816000Y130024000D01*
%TO.C,D89*%
X-55702000Y264714000D02*
X-55702000Y266714000D01*
X-55702000Y264714000D02*
X-52502000Y264714000D01*
X-55402000Y267014000D02*
X-55702000Y266714000D01*
X-55402000Y267014000D02*
X-52502000Y267014000D01*
X-52502000Y267014000D02*
X-52502000Y264714000D01*
%TO.C,D26*%
X-246810000Y202070000D02*
X-246810000Y206080000D01*
X-246810000Y202070000D02*
X-244810000Y202070000D01*
X-244810000Y202070000D02*
X-244810000Y206080000D01*
%TO.C,D49*%
X-277080000Y110420000D02*
X-277080000Y114430000D01*
X-277080000Y110420000D02*
X-275080000Y110420000D01*
X-275080000Y110420000D02*
X-275080000Y114430000D01*
%TO.C,D38*%
X-125620000Y171910000D02*
X-125620000Y175920000D01*
X-125620000Y171910000D02*
X-123620000Y171910000D01*
X-123620000Y171910000D02*
X-123620000Y175920000D01*
%TO.C,D194*%
X-63320000Y262067500D02*
X-63320000Y258057500D01*
X-61320000Y262067500D02*
X-63320000Y262067500D01*
X-61320000Y262067500D02*
X-61320000Y258057500D01*
%TO.C,D29*%
X-155950000Y202200000D02*
X-155950000Y206210000D01*
X-155950000Y202200000D02*
X-153950000Y202200000D01*
X-153950000Y202200000D02*
X-153950000Y206210000D01*
%TO.C,D59*%
X-216600000Y80830000D02*
X-216600000Y84840000D01*
X-216600000Y80830000D02*
X-214600000Y80830000D01*
X-214600000Y80830000D02*
X-214600000Y84840000D01*
%TO.C,D62*%
X-125670000Y80790000D02*
X-125670000Y84800000D01*
X-125670000Y80790000D02*
X-123670000Y80790000D01*
X-123670000Y80790000D02*
X-123670000Y84800000D01*
%TO.C,D60*%
X-186250000Y80920000D02*
X-186250000Y84930000D01*
X-186250000Y80920000D02*
X-184250000Y80920000D01*
X-184250000Y80920000D02*
X-184250000Y84930000D01*
%TO.C,D152*%
X-69916000Y160024000D02*
X-69916000Y162324000D01*
X-67016000Y160024000D02*
X-69916000Y160024000D01*
X-67016000Y160024000D02*
X-66716000Y160324000D01*
X-66716000Y162324000D02*
X-69916000Y162324000D01*
X-66716000Y162324000D02*
X-66716000Y160324000D01*
%TO.C,D25*%
X-277080000Y201320000D02*
X-277080000Y205330000D01*
X-277080000Y201320000D02*
X-275080000Y201320000D01*
X-275080000Y201320000D02*
X-275080000Y205330000D01*
%TO.C,D107*%
X-116302000Y234414000D02*
X-116302000Y236414000D01*
X-116302000Y234414000D02*
X-113102000Y234414000D01*
X-116002000Y236714000D02*
X-116302000Y236414000D01*
X-116002000Y236714000D02*
X-113102000Y236714000D01*
X-113102000Y236714000D02*
X-113102000Y234414000D01*
%TO.C,D137*%
X-55702000Y173814000D02*
X-55702000Y175814000D01*
X-55702000Y173814000D02*
X-52502000Y173814000D01*
X-55402000Y176114000D02*
X-55702000Y175814000D01*
X-55402000Y176114000D02*
X-52502000Y176114000D01*
X-52502000Y176114000D02*
X-52502000Y173814000D01*
%TO.C,D133*%
X-160816000Y190324000D02*
X-160816000Y192624000D01*
X-157916000Y190324000D02*
X-160816000Y190324000D01*
X-157916000Y190324000D02*
X-157616000Y190624000D01*
X-157616000Y192624000D02*
X-160816000Y192624000D01*
X-157616000Y192624000D02*
X-157616000Y190624000D01*
%TO.C,D113*%
X-282016000Y220624000D02*
X-282016000Y222924000D01*
X-279116000Y220624000D02*
X-282016000Y220624000D01*
X-279116000Y220624000D02*
X-278816000Y220924000D01*
X-278816000Y222924000D02*
X-282016000Y222924000D01*
X-278816000Y222924000D02*
X-278816000Y220924000D01*
%TO.C,D32*%
X-65260000Y202550000D02*
X-65260000Y206560000D01*
X-65260000Y202550000D02*
X-63260000Y202550000D01*
X-63260000Y202550000D02*
X-63260000Y206560000D01*
%TO.C,D91*%
X-116302000Y264714000D02*
X-116302000Y266714000D01*
X-116302000Y264714000D02*
X-113102000Y264714000D01*
X-116002000Y267014000D02*
X-116302000Y266714000D01*
X-116002000Y267014000D02*
X-113102000Y267014000D01*
X-113102000Y267014000D02*
X-113102000Y264714000D01*
%TO.C,D84*%
X-191116000Y281224000D02*
X-191116000Y283524000D01*
X-188216000Y281224000D02*
X-191116000Y281224000D01*
X-188216000Y281224000D02*
X-187916000Y281524000D01*
X-187916000Y283524000D02*
X-191116000Y283524000D01*
X-187916000Y283524000D02*
X-187916000Y281524000D01*
%TO.C,D10*%
X-246840000Y262790000D02*
X-246840000Y266800000D01*
X-246840000Y262790000D02*
X-244840000Y262790000D01*
X-244840000Y262790000D02*
X-244840000Y266800000D01*
%TO.C,D45*%
X-156070000Y141620000D02*
X-156070000Y145630000D01*
X-156070000Y141620000D02*
X-154070000Y141620000D01*
X-154070000Y141620000D02*
X-154070000Y145630000D01*
%TO.C,D22*%
X-125500000Y232220000D02*
X-125500000Y236230000D01*
X-125500000Y232220000D02*
X-123500000Y232220000D01*
X-123500000Y232220000D02*
X-123500000Y236230000D01*
%TO.C,D64*%
X-65010000Y80990000D02*
X-65010000Y85000000D01*
X-65010000Y80990000D02*
X-63010000Y80990000D01*
X-63010000Y80990000D02*
X-63010000Y85000000D01*
%TO.C,D119*%
X-100216000Y220624000D02*
X-100216000Y222924000D01*
X-97316000Y220624000D02*
X-100216000Y220624000D01*
X-97316000Y220624000D02*
X-97016000Y220924000D01*
X-97016000Y222924000D02*
X-100216000Y222924000D01*
X-97016000Y222924000D02*
X-97016000Y220924000D01*
%TO.C,D27*%
X-216430000Y202580000D02*
X-216430000Y206590000D01*
X-216430000Y202580000D02*
X-214430000Y202580000D01*
X-214430000Y202580000D02*
X-214430000Y206590000D01*
%TO.C,D174*%
X-207202000Y113214000D02*
X-207202000Y115214000D01*
X-207202000Y113214000D02*
X-204002000Y113214000D01*
X-206902000Y115514000D02*
X-207202000Y115214000D01*
X-206902000Y115514000D02*
X-204002000Y115514000D01*
X-204002000Y115514000D02*
X-204002000Y113214000D01*
%TO.C,D112*%
X-267802000Y234414000D02*
X-267802000Y236414000D01*
X-267802000Y234414000D02*
X-264602000Y234414000D01*
X-267502000Y236714000D02*
X-267802000Y236414000D01*
X-267502000Y236714000D02*
X-264602000Y236714000D01*
X-264602000Y236714000D02*
X-264602000Y234414000D01*
%TO.C,D160*%
X-267802000Y143514000D02*
X-267802000Y145514000D01*
X-267802000Y143514000D02*
X-264602000Y143514000D01*
X-267502000Y145814000D02*
X-267802000Y145514000D01*
X-267502000Y145814000D02*
X-264602000Y145814000D01*
X-264602000Y145814000D02*
X-264602000Y143514000D01*
%TO.C,D153*%
X-55702000Y143514000D02*
X-55702000Y145514000D01*
X-55702000Y143514000D02*
X-52502000Y143514000D01*
X-55402000Y145814000D02*
X-55702000Y145514000D01*
X-55402000Y145814000D02*
X-52502000Y145814000D01*
X-52502000Y145814000D02*
X-52502000Y143514000D01*
%TO.C,D92*%
X-146602000Y264714000D02*
X-146602000Y266714000D01*
X-146602000Y264714000D02*
X-143402000Y264714000D01*
X-146302000Y267014000D02*
X-146602000Y266714000D01*
X-146302000Y267014000D02*
X-143402000Y267014000D01*
X-143402000Y267014000D02*
X-143402000Y264714000D01*
%TO.C,D94*%
X-207202000Y264714000D02*
X-207202000Y266714000D01*
X-207202000Y264714000D02*
X-204002000Y264714000D01*
X-206902000Y267014000D02*
X-207202000Y266714000D01*
X-206902000Y267014000D02*
X-204002000Y267014000D01*
X-204002000Y267014000D02*
X-204002000Y264714000D01*
%TO.C,D69*%
X-160816000Y311524000D02*
X-160816000Y313824000D01*
X-157916000Y311524000D02*
X-160816000Y311524000D01*
X-157916000Y311524000D02*
X-157616000Y311824000D01*
X-157616000Y313824000D02*
X-160816000Y313824000D01*
X-157616000Y313824000D02*
X-157616000Y311824000D01*
%TO.C,D188*%
X-146602000Y82914000D02*
X-146602000Y84914000D01*
X-146602000Y82914000D02*
X-143402000Y82914000D01*
X-146302000Y85214000D02*
X-146602000Y84914000D01*
X-146302000Y85214000D02*
X-143402000Y85214000D01*
X-143402000Y85214000D02*
X-143402000Y82914000D01*
%TO.C,C9*%
X-157772164Y300760000D02*
X-157987836Y300760000D01*
X-157772164Y300040000D02*
X-157987836Y300040000D01*
%TO.C,D72*%
X-69916000Y311524000D02*
X-69916000Y313824000D01*
X-67016000Y311524000D02*
X-69916000Y311524000D01*
X-67016000Y311524000D02*
X-66716000Y311824000D01*
X-66716000Y313824000D02*
X-69916000Y313824000D01*
X-66716000Y313824000D02*
X-66716000Y311824000D01*
%TO.C,D196*%
X-62500000Y200340000D02*
X-62500000Y196330000D01*
X-60500000Y200340000D02*
X-62500000Y200340000D01*
X-60500000Y200340000D02*
X-60500000Y196330000D01*
%TO.C,D130*%
X-251716000Y190324000D02*
X-251716000Y192624000D01*
X-248816000Y190324000D02*
X-251716000Y190324000D01*
X-248816000Y190324000D02*
X-248516000Y190624000D01*
X-248516000Y192624000D02*
X-251716000Y192624000D01*
X-248516000Y192624000D02*
X-248516000Y190624000D01*
%TO.C,D13*%
X-155880000Y262550000D02*
X-155880000Y266560000D01*
X-155880000Y262550000D02*
X-153880000Y262550000D01*
X-153880000Y262550000D02*
X-153880000Y266560000D01*
D12*
%TO.C,S2*%
X-55780000Y263752000D02*
G75*
G02*
X-55980000Y263752000I-100000J0D01*
G01*
X-55980000Y263752000D02*
G75*
G02*
X-55780000Y263752000I100000J0D01*
G01*
D11*
%TO.C,D132*%
X-191116000Y190324000D02*
X-191116000Y192624000D01*
X-188216000Y190324000D02*
X-191116000Y190324000D01*
X-188216000Y190324000D02*
X-187916000Y190624000D01*
X-187916000Y192624000D02*
X-191116000Y192624000D01*
X-187916000Y192624000D02*
X-187916000Y190624000D01*
%TO.C,D175*%
X-237502000Y113214000D02*
X-237502000Y115214000D01*
X-237502000Y113214000D02*
X-234302000Y113214000D01*
X-237202000Y115514000D02*
X-237502000Y115214000D01*
X-237202000Y115514000D02*
X-234302000Y115514000D01*
X-234302000Y115514000D02*
X-234302000Y113214000D01*
%TO.C,D47*%
X-95600000Y141590000D02*
X-95600000Y145600000D01*
X-95600000Y141590000D02*
X-93600000Y141590000D01*
X-93600000Y141590000D02*
X-93600000Y145600000D01*
D12*
%TO.C,S1*%
X-55780000Y294052000D02*
G75*
G02*
X-55980000Y294052000I-100000J0D01*
G01*
X-55980000Y294052000D02*
G75*
G02*
X-55780000Y294052000I100000J0D01*
G01*
D11*
%TO.C,D66*%
X-251716000Y311524000D02*
X-251716000Y313824000D01*
X-248816000Y311524000D02*
X-251716000Y311524000D01*
X-248816000Y311524000D02*
X-248516000Y311824000D01*
X-248516000Y313824000D02*
X-251716000Y313824000D01*
X-248516000Y313824000D02*
X-248516000Y311824000D01*
%TO.C,D5*%
X-157010000Y293460000D02*
X-157010000Y297470000D01*
X-157010000Y293460000D02*
X-155010000Y293460000D01*
X-155010000Y293460000D02*
X-155010000Y297470000D01*
%TO.C,D95*%
X-237502000Y264714000D02*
X-237502000Y266714000D01*
X-237502000Y264714000D02*
X-234302000Y264714000D01*
X-237202000Y267014000D02*
X-237502000Y266714000D01*
X-237202000Y267014000D02*
X-234302000Y267014000D01*
X-234302000Y267014000D02*
X-234302000Y264714000D01*
%TO.C,C6*%
X-163960000Y301627836D02*
X-163960000Y301412164D01*
X-163240000Y301627836D02*
X-163240000Y301412164D01*
%TO.C,D186*%
X-86002000Y82914000D02*
X-86002000Y84914000D01*
X-86002000Y82914000D02*
X-82802000Y82914000D01*
X-85702000Y85214000D02*
X-86002000Y84914000D01*
X-85702000Y85214000D02*
X-82802000Y85214000D01*
X-82802000Y85214000D02*
X-82802000Y82914000D01*
%TO.C,D77*%
X-176902000Y295014000D02*
X-176902000Y297014000D01*
X-176902000Y295014000D02*
X-173702000Y295014000D01*
X-176602000Y297314000D02*
X-176902000Y297014000D01*
X-176602000Y297314000D02*
X-173702000Y297314000D01*
X-173702000Y297314000D02*
X-173702000Y295014000D01*
%TO.C,D80*%
X-267802000Y295014000D02*
X-267802000Y297014000D01*
X-267802000Y295014000D02*
X-264602000Y295014000D01*
X-267502000Y297314000D02*
X-267802000Y297014000D01*
X-267502000Y297314000D02*
X-264602000Y297314000D01*
X-264602000Y297314000D02*
X-264602000Y295014000D01*
%TO.C,D129*%
X-282016000Y190324000D02*
X-282016000Y192624000D01*
X-279116000Y190324000D02*
X-282016000Y190324000D01*
X-279116000Y190324000D02*
X-278816000Y190624000D01*
X-278816000Y192624000D02*
X-282016000Y192624000D01*
X-278816000Y192624000D02*
X-278816000Y190624000D01*
%TO.C,D158*%
X-207202000Y143514000D02*
X-207202000Y145514000D01*
X-207202000Y143514000D02*
X-204002000Y143514000D01*
X-206902000Y145814000D02*
X-207202000Y145514000D01*
X-206902000Y145814000D02*
X-204002000Y145814000D01*
X-204002000Y145814000D02*
X-204002000Y143514000D01*
%TO.C,U1*%
X-172047500Y307710000D02*
X-171397500Y307710000D01*
X-172047500Y307060000D02*
X-172047500Y307710000D01*
X-172047500Y301140000D02*
X-172047500Y300490000D01*
X-172047500Y300490000D02*
X-171397500Y300490000D01*
X-164827500Y307060000D02*
X-164827500Y307710000D01*
X-164827500Y301140000D02*
X-164827500Y300490000D01*
X-164827500Y300490000D02*
X-165477500Y300490000D01*
%TO.C,D148*%
X-191116000Y160024000D02*
X-191116000Y162324000D01*
X-188216000Y160024000D02*
X-191116000Y160024000D01*
X-188216000Y160024000D02*
X-187916000Y160324000D01*
X-187916000Y162324000D02*
X-191116000Y162324000D01*
X-187916000Y162324000D02*
X-187916000Y160324000D01*
%TO.C,D39*%
X-95520000Y171740000D02*
X-95520000Y175750000D01*
X-95520000Y171740000D02*
X-93520000Y171740000D01*
X-93520000Y171740000D02*
X-93520000Y175750000D01*
%TO.C,D187*%
X-116302000Y82914000D02*
X-116302000Y84914000D01*
X-116302000Y82914000D02*
X-113102000Y82914000D01*
X-116002000Y85214000D02*
X-116302000Y84914000D01*
X-116002000Y85214000D02*
X-113102000Y85214000D01*
X-113102000Y85214000D02*
X-113102000Y82914000D01*
%TO.C,D110*%
X-207202000Y234414000D02*
X-207202000Y236414000D01*
X-207202000Y234414000D02*
X-204002000Y234414000D01*
X-206902000Y236714000D02*
X-207202000Y236414000D01*
X-206902000Y236714000D02*
X-204002000Y236714000D01*
X-204002000Y236714000D02*
X-204002000Y234414000D01*
%TO.C,D51*%
X-216690000Y111480000D02*
X-216690000Y115490000D01*
X-216690000Y111480000D02*
X-214690000Y111480000D01*
X-214690000Y111480000D02*
X-214690000Y115490000D01*
%TO.C,D177*%
X-282016000Y99424000D02*
X-282016000Y101724000D01*
X-279116000Y99424000D02*
X-282016000Y99424000D01*
X-279116000Y99424000D02*
X-278816000Y99724000D01*
X-278816000Y101724000D02*
X-282016000Y101724000D01*
X-278816000Y101724000D02*
X-278816000Y99724000D01*
%TO.C,D154*%
X-86002000Y143514000D02*
X-86002000Y145514000D01*
X-86002000Y143514000D02*
X-82802000Y143514000D01*
X-85702000Y145814000D02*
X-86002000Y145514000D01*
X-85702000Y145814000D02*
X-82802000Y145814000D01*
X-82802000Y145814000D02*
X-82802000Y143514000D01*
%TO.C,D100*%
X-191116000Y250924000D02*
X-191116000Y253224000D01*
X-188216000Y250924000D02*
X-191116000Y250924000D01*
X-188216000Y250924000D02*
X-187916000Y251224000D01*
X-187916000Y253224000D02*
X-191116000Y253224000D01*
X-187916000Y253224000D02*
X-187916000Y251224000D01*
%TO.C,D35*%
X-216490000Y171640000D02*
X-216490000Y175650000D01*
X-216490000Y171640000D02*
X-214490000Y171640000D01*
X-214490000Y171640000D02*
X-214490000Y175650000D01*
%TO.C,D134*%
X-130516000Y190324000D02*
X-130516000Y192624000D01*
X-127616000Y190324000D02*
X-130516000Y190324000D01*
X-127616000Y190324000D02*
X-127316000Y190624000D01*
X-127316000Y192624000D02*
X-130516000Y192624000D01*
X-127316000Y192624000D02*
X-127316000Y190624000D01*
%TO.C,D151*%
X-100216000Y160024000D02*
X-100216000Y162324000D01*
X-97316000Y160024000D02*
X-100216000Y160024000D01*
X-97316000Y160024000D02*
X-97016000Y160324000D01*
X-97016000Y162324000D02*
X-100216000Y162324000D01*
X-97016000Y162324000D02*
X-97016000Y160324000D01*
%TO.C,D42*%
X-246820000Y141570000D02*
X-246820000Y145580000D01*
X-246820000Y141570000D02*
X-244820000Y141570000D01*
X-244820000Y141570000D02*
X-244820000Y145580000D01*
%TO.C,R4*%
X-170780000Y312643641D02*
X-170780000Y312336359D01*
X-170020000Y312643641D02*
X-170020000Y312336359D01*
D12*
%TO.C,S5*%
X-55780000Y172852000D02*
G75*
G02*
X-55980000Y172852000I-100000J0D01*
G01*
X-55980000Y172852000D02*
G75*
G02*
X-55780000Y172852000I100000J0D01*
G01*
D11*
%TO.C,D19*%
X-216420000Y232190000D02*
X-216420000Y236200000D01*
X-216420000Y232190000D02*
X-214420000Y232190000D01*
X-214420000Y232190000D02*
X-214420000Y236200000D01*
%TO.C,D53*%
X-155990000Y111280000D02*
X-155990000Y115290000D01*
X-155990000Y111280000D02*
X-153990000Y111280000D01*
X-153990000Y111280000D02*
X-153990000Y115290000D01*
%TO.C,D126*%
X-207202000Y204114000D02*
X-207202000Y206114000D01*
X-207202000Y204114000D02*
X-204002000Y204114000D01*
X-206902000Y206414000D02*
X-207202000Y206114000D01*
X-206902000Y206414000D02*
X-204002000Y206414000D01*
X-204002000Y206414000D02*
X-204002000Y204114000D01*
%TO.C,C11*%
X-169087836Y309110000D02*
X-168872164Y309110000D01*
X-169087836Y308390000D02*
X-168872164Y308390000D01*
%TO.C,D139*%
X-116302000Y173814000D02*
X-116302000Y175814000D01*
X-116302000Y173814000D02*
X-113102000Y173814000D01*
X-116002000Y176114000D02*
X-116302000Y175814000D01*
X-116002000Y176114000D02*
X-113102000Y176114000D01*
X-113102000Y176114000D02*
X-113102000Y173814000D01*
%TO.C,D103*%
X-100216000Y250924000D02*
X-100216000Y253224000D01*
X-97316000Y250924000D02*
X-100216000Y250924000D01*
X-97316000Y250924000D02*
X-97016000Y251224000D01*
X-97016000Y253224000D02*
X-100216000Y253224000D01*
X-97016000Y253224000D02*
X-97016000Y251224000D01*
%TO.C,D106*%
X-86002000Y234414000D02*
X-86002000Y236414000D01*
X-86002000Y234414000D02*
X-82802000Y234414000D01*
X-85702000Y236714000D02*
X-86002000Y236414000D01*
X-85702000Y236714000D02*
X-82802000Y236714000D01*
X-82802000Y236714000D02*
X-82802000Y234414000D01*
%TO.C,Y1*%
X-177750000Y307800000D02*
X-177750000Y305500000D01*
X-177750000Y305500000D02*
X-175050000Y305500000D01*
%TO.C,D87*%
X-100216000Y281224000D02*
X-100216000Y283524000D01*
X-97316000Y281224000D02*
X-100216000Y281224000D01*
X-97316000Y281224000D02*
X-97016000Y281524000D01*
X-97016000Y283524000D02*
X-100216000Y283524000D01*
X-97016000Y283524000D02*
X-97016000Y281524000D01*
%TO.C,D184*%
X-69916000Y99424000D02*
X-69916000Y101724000D01*
X-67016000Y99424000D02*
X-69916000Y99424000D01*
X-67016000Y99424000D02*
X-66716000Y99724000D01*
X-66716000Y101724000D02*
X-69916000Y101724000D01*
X-66716000Y101724000D02*
X-66716000Y99724000D01*
%TO.C,R7*%
X-166153641Y314380000D02*
X-165846359Y314380000D01*
X-166153641Y313620000D02*
X-165846359Y313620000D01*
%TO.C,D65*%
X-282016000Y311524000D02*
X-282016000Y313824000D01*
X-279116000Y311524000D02*
X-282016000Y311524000D01*
X-279116000Y311524000D02*
X-278816000Y311824000D01*
X-278816000Y313824000D02*
X-282016000Y313824000D01*
X-278816000Y313824000D02*
X-278816000Y311824000D01*
%TO.C,D193*%
X-63490000Y295207500D02*
X-63490000Y291197500D01*
X-61490000Y295207500D02*
X-63490000Y295207500D01*
X-61490000Y295207500D02*
X-61490000Y291197500D01*
D12*
%TO.C,S3*%
X-55780000Y233452000D02*
G75*
G02*
X-55980000Y233452000I-100000J0D01*
G01*
X-55980000Y233452000D02*
G75*
G02*
X-55780000Y233452000I100000J0D01*
G01*
D11*
%TO.C,D99*%
X-221416000Y250924000D02*
X-221416000Y253224000D01*
X-218516000Y250924000D02*
X-221416000Y250924000D01*
X-218516000Y250924000D02*
X-218216000Y251224000D01*
X-218216000Y253224000D02*
X-221416000Y253224000D01*
X-218216000Y253224000D02*
X-218216000Y251224000D01*
%TO.C,D14*%
X-125650000Y262910000D02*
X-125650000Y266920000D01*
X-125650000Y262910000D02*
X-123650000Y262910000D01*
X-123650000Y262910000D02*
X-123650000Y266920000D01*
%TO.C,D165*%
X-160816000Y129724000D02*
X-160816000Y132024000D01*
X-157916000Y129724000D02*
X-160816000Y129724000D01*
X-157916000Y129724000D02*
X-157616000Y130024000D01*
X-157616000Y132024000D02*
X-160816000Y132024000D01*
X-157616000Y132024000D02*
X-157616000Y130024000D01*
%TO.C,D28*%
X-186210000Y202180000D02*
X-186210000Y206190000D01*
X-186210000Y202180000D02*
X-184210000Y202180000D01*
X-184210000Y202180000D02*
X-184210000Y206190000D01*
%TO.C,D156*%
X-146602000Y143514000D02*
X-146602000Y145514000D01*
X-146602000Y143514000D02*
X-143402000Y143514000D01*
X-146302000Y145814000D02*
X-146602000Y145514000D01*
X-146302000Y145814000D02*
X-143402000Y145814000D01*
X-143402000Y145814000D02*
X-143402000Y143514000D01*
%TO.C,D75*%
X-116302000Y295014000D02*
X-116302000Y297014000D01*
X-116302000Y295014000D02*
X-113102000Y295014000D01*
X-116002000Y297314000D02*
X-116302000Y297014000D01*
X-116002000Y297314000D02*
X-113102000Y297314000D01*
X-113102000Y297314000D02*
X-113102000Y295014000D01*
%TO.C,D164*%
X-191116000Y129724000D02*
X-191116000Y132024000D01*
X-188216000Y129724000D02*
X-191116000Y129724000D01*
X-188216000Y129724000D02*
X-187916000Y130024000D01*
X-187916000Y132024000D02*
X-191116000Y132024000D01*
X-187916000Y132024000D02*
X-187916000Y130024000D01*
%TO.C,D50*%
X-246940000Y111190000D02*
X-246940000Y115200000D01*
X-246940000Y111190000D02*
X-244940000Y111190000D01*
X-244940000Y111190000D02*
X-244940000Y115200000D01*
%TO.C,C12*%
X-165357836Y299860000D02*
X-165142164Y299860000D01*
X-165357836Y299140000D02*
X-165142164Y299140000D01*
%TO.C,D48*%
X-65280000Y141600000D02*
X-65280000Y145610000D01*
X-65280000Y141600000D02*
X-63280000Y141600000D01*
X-63280000Y141600000D02*
X-63280000Y145610000D01*
%TO.C,D168*%
X-69916000Y129724000D02*
X-69916000Y132024000D01*
X-67016000Y129724000D02*
X-69916000Y129724000D01*
X-67016000Y129724000D02*
X-66716000Y130024000D01*
X-66716000Y132024000D02*
X-69916000Y132024000D01*
X-66716000Y132024000D02*
X-66716000Y130024000D01*
%TO.C,D190*%
X-207202000Y82914000D02*
X-207202000Y84914000D01*
X-207202000Y82914000D02*
X-204002000Y82914000D01*
X-206902000Y85214000D02*
X-207202000Y84914000D01*
X-206902000Y85214000D02*
X-204002000Y85214000D01*
X-204002000Y85214000D02*
X-204002000Y82914000D01*
%TO.C,D82*%
X-251716000Y281224000D02*
X-251716000Y283524000D01*
X-248816000Y281224000D02*
X-251716000Y281224000D01*
X-248816000Y281224000D02*
X-248516000Y281524000D01*
X-248516000Y283524000D02*
X-251716000Y283524000D01*
X-248516000Y283524000D02*
X-248516000Y281524000D01*
%TO.C,D70*%
X-130516000Y311524000D02*
X-130516000Y313824000D01*
X-127616000Y311524000D02*
X-130516000Y311524000D01*
X-127616000Y311524000D02*
X-127316000Y311824000D01*
X-127316000Y313824000D02*
X-130516000Y313824000D01*
X-127316000Y313824000D02*
X-127316000Y311824000D01*
%TO.C,D195*%
X-62770000Y231200000D02*
X-62770000Y227190000D01*
X-60770000Y231200000D02*
X-62770000Y231200000D01*
X-60770000Y231200000D02*
X-60770000Y227190000D01*
%TO.C,D122*%
X-86002000Y204114000D02*
X-86002000Y206114000D01*
X-86002000Y204114000D02*
X-82802000Y204114000D01*
X-85702000Y206414000D02*
X-86002000Y206114000D01*
X-85702000Y206414000D02*
X-82802000Y206414000D01*
X-82802000Y206414000D02*
X-82802000Y204114000D01*
%TO.C,D44*%
X-186270000Y141700000D02*
X-186270000Y145710000D01*
X-186270000Y141700000D02*
X-184270000Y141700000D01*
X-184270000Y141700000D02*
X-184270000Y145710000D01*
%TO.C,D101*%
X-160816000Y250924000D02*
X-160816000Y253224000D01*
X-157916000Y250924000D02*
X-160816000Y250924000D01*
X-157916000Y250924000D02*
X-157616000Y251224000D01*
X-157616000Y253224000D02*
X-160816000Y253224000D01*
X-157616000Y253224000D02*
X-157616000Y251224000D01*
%TO.C,D52*%
X-186250000Y111282500D02*
X-186250000Y115292500D01*
X-186250000Y111282500D02*
X-184250000Y111282500D01*
X-184250000Y111282500D02*
X-184250000Y115292500D01*
%TO.C,D37*%
X-156040000Y171660000D02*
X-156040000Y175670000D01*
X-156040000Y171660000D02*
X-154040000Y171660000D01*
X-154040000Y171660000D02*
X-154040000Y175670000D01*
%TO.C,D185*%
X-55702000Y82914000D02*
X-55702000Y84914000D01*
X-55702000Y82914000D02*
X-52502000Y82914000D01*
X-55402000Y85214000D02*
X-55702000Y84914000D01*
X-55402000Y85214000D02*
X-52502000Y85214000D01*
X-52502000Y85214000D02*
X-52502000Y82914000D01*
%TO.C,J1*%
X-170900000Y295310000D02*
X-170900000Y295310000D01*
X-170900000Y295310000D02*
X-170900000Y293820000D01*
X-169900000Y295310000D02*
X-170900000Y295310000D01*
X-168900000Y293820000D02*
X-169680000Y293820000D01*
X-167900000Y295310000D02*
X-168680000Y295310000D01*
X-166900000Y293820000D02*
X-167680000Y293820000D01*
X-165900000Y295310000D02*
X-166680000Y295310000D01*
X-165680000Y295310000D02*
X-166680000Y295310000D01*
X-165680000Y295310000D02*
X-165680000Y293820000D01*
X-165680000Y293820000D02*
X-165680000Y293820000D01*
X-165680000Y293820000D02*
X-165680000Y292875000D01*
%TO.C,D163*%
X-221416000Y129724000D02*
X-221416000Y132024000D01*
X-218516000Y129724000D02*
X-221416000Y129724000D01*
X-218516000Y129724000D02*
X-218216000Y130024000D01*
X-218216000Y132024000D02*
X-221416000Y132024000D01*
X-218216000Y132024000D02*
X-218216000Y130024000D01*
%TO.C,D83*%
X-221416000Y281224000D02*
X-221416000Y283524000D01*
X-218516000Y281224000D02*
X-221416000Y281224000D01*
X-218516000Y281224000D02*
X-218216000Y281524000D01*
X-218216000Y283524000D02*
X-221416000Y283524000D01*
X-218216000Y283524000D02*
X-218216000Y281524000D01*
%TO.C,D150*%
X-130516000Y160024000D02*
X-130516000Y162324000D01*
X-127616000Y160024000D02*
X-130516000Y160024000D01*
X-127616000Y160024000D02*
X-127316000Y160324000D01*
X-127316000Y162324000D02*
X-130516000Y162324000D01*
X-127316000Y162324000D02*
X-127316000Y160324000D01*
%TO.C,D31*%
X-95330000Y202520000D02*
X-95330000Y206530000D01*
X-95330000Y202520000D02*
X-93330000Y202520000D01*
X-93330000Y202520000D02*
X-93330000Y206530000D01*
%TO.C,U3*%
X-167637500Y313110000D02*
X-168437500Y313110000D01*
X-167637500Y313110000D02*
X-166837500Y313110000D01*
X-167637500Y309990000D02*
X-168437500Y309990000D01*
X-167637500Y309990000D02*
X-166837500Y309990000D01*
X-166097500Y309710000D02*
X-166577500Y309710000D01*
X-166337500Y310040000D01*
X-166097500Y309710000D01*
G36*
X-166097500Y309710000D02*
G01*
X-166577500Y309710000D01*
X-166337500Y310040000D01*
X-166097500Y309710000D01*
G37*
%TO.C,D71*%
X-100216000Y311524000D02*
X-100216000Y313824000D01*
X-97316000Y311524000D02*
X-100216000Y311524000D01*
X-97316000Y311524000D02*
X-97016000Y311824000D01*
X-97016000Y313824000D02*
X-100216000Y313824000D01*
X-97016000Y313824000D02*
X-97016000Y311824000D01*
%TO.C,D182*%
X-130516000Y99424000D02*
X-130516000Y101724000D01*
X-127616000Y99424000D02*
X-130516000Y99424000D01*
X-127616000Y99424000D02*
X-127316000Y99724000D01*
X-127316000Y101724000D02*
X-130516000Y101724000D01*
X-127316000Y101724000D02*
X-127316000Y99724000D01*
%TO.C,D115*%
X-221416000Y220624000D02*
X-221416000Y222924000D01*
X-218516000Y220624000D02*
X-221416000Y220624000D01*
X-218516000Y220624000D02*
X-218216000Y220924000D01*
X-218216000Y222924000D02*
X-221416000Y222924000D01*
X-218216000Y222924000D02*
X-218216000Y220924000D01*
%TO.C,TP1*%
X-157200000Y311000000D02*
X-155800000Y311000000D01*
X-157200000Y309600000D02*
X-157200000Y311000000D01*
X-155800000Y311000000D02*
X-155800000Y309600000D01*
X-155800000Y309600000D02*
X-157200000Y309600000D01*
%TO.C,D81*%
X-282016000Y281224000D02*
X-282016000Y283524000D01*
X-279116000Y281224000D02*
X-282016000Y281224000D01*
X-279116000Y281224000D02*
X-278816000Y281524000D01*
X-278816000Y283524000D02*
X-282016000Y283524000D01*
X-278816000Y283524000D02*
X-278816000Y281524000D01*
%TO.C,D191*%
X-237502000Y82914000D02*
X-237502000Y84914000D01*
X-237502000Y82914000D02*
X-234302000Y82914000D01*
X-237202000Y85214000D02*
X-237502000Y84914000D01*
X-237202000Y85214000D02*
X-234302000Y85214000D01*
X-234302000Y85214000D02*
X-234302000Y82914000D01*
%TO.C,D135*%
X-100216000Y190324000D02*
X-100216000Y192624000D01*
X-97316000Y190324000D02*
X-100216000Y190324000D01*
X-97316000Y190324000D02*
X-97016000Y190624000D01*
X-97016000Y192624000D02*
X-100216000Y192624000D01*
X-97016000Y192624000D02*
X-97016000Y190624000D01*
%TO.C,D178*%
X-251716000Y99424000D02*
X-251716000Y101724000D01*
X-248816000Y99424000D02*
X-251716000Y99424000D01*
X-248816000Y99424000D02*
X-248516000Y99724000D01*
X-248516000Y101724000D02*
X-251716000Y101724000D01*
X-248516000Y101724000D02*
X-248516000Y99724000D01*
%TO.C,D98*%
X-251716000Y250924000D02*
X-251716000Y253224000D01*
X-248816000Y250924000D02*
X-251716000Y250924000D01*
X-248816000Y250924000D02*
X-248516000Y251224000D01*
X-248516000Y253224000D02*
X-251716000Y253224000D01*
X-248516000Y253224000D02*
X-248516000Y251224000D01*
%TO.C,D4*%
X-187860000Y292550000D02*
X-187860000Y296560000D01*
X-187860000Y292550000D02*
X-185860000Y292550000D01*
X-185860000Y292550000D02*
X-185860000Y296560000D01*
%TO.C,D2*%
X-246780000Y292220000D02*
X-246780000Y296230000D01*
X-246780000Y292220000D02*
X-244780000Y292220000D01*
X-244780000Y292220000D02*
X-244780000Y296230000D01*
%TO.C,D6*%
X-125600000Y293760000D02*
X-125600000Y297770000D01*
X-125600000Y293760000D02*
X-123600000Y293760000D01*
X-123600000Y293760000D02*
X-123600000Y297770000D01*
%TO.C,D12*%
X-186220000Y262960000D02*
X-186220000Y266970000D01*
X-186220000Y262960000D02*
X-184220000Y262960000D01*
X-184220000Y262960000D02*
X-184220000Y266970000D01*
%TO.C,D125*%
X-176902000Y204114000D02*
X-176902000Y206114000D01*
X-176902000Y204114000D02*
X-173702000Y204114000D01*
X-176602000Y206414000D02*
X-176902000Y206114000D01*
X-176602000Y206414000D02*
X-173702000Y206414000D01*
X-173702000Y206414000D02*
X-173702000Y204114000D01*
%TO.C,D170*%
X-86002000Y113214000D02*
X-86002000Y115214000D01*
X-86002000Y113214000D02*
X-82802000Y113214000D01*
X-85702000Y115514000D02*
X-86002000Y115214000D01*
X-85702000Y115514000D02*
X-82802000Y115514000D01*
X-82802000Y115514000D02*
X-82802000Y113214000D01*
%TO.C,D8*%
X-70600000Y294480000D02*
X-70600000Y298490000D01*
X-70600000Y294480000D02*
X-68600000Y294480000D01*
X-68600000Y294480000D02*
X-68600000Y298490000D01*
%TO.C,D7*%
X-101870000Y294240000D02*
X-101870000Y298250000D01*
X-101870000Y294240000D02*
X-99870000Y294240000D01*
X-99870000Y294240000D02*
X-99870000Y298250000D01*
%TO.C,D23*%
X-95310000Y232350000D02*
X-95310000Y236360000D01*
X-95310000Y232350000D02*
X-93310000Y232350000D01*
X-93310000Y232350000D02*
X-93310000Y236360000D01*
%TO.C,D46*%
X-125810000Y141640000D02*
X-125810000Y145650000D01*
X-125810000Y141640000D02*
X-123810000Y141640000D01*
X-123810000Y141640000D02*
X-123810000Y145650000D01*
%TO.C,D96*%
X-267802000Y264714000D02*
X-267802000Y266714000D01*
X-267802000Y264714000D02*
X-264602000Y264714000D01*
X-267502000Y267014000D02*
X-267802000Y266714000D01*
X-267502000Y267014000D02*
X-264602000Y267014000D01*
X-264602000Y267014000D02*
X-264602000Y264714000D01*
%TO.C,D173*%
X-176902000Y113214000D02*
X-176902000Y115214000D01*
X-176902000Y113214000D02*
X-173702000Y113214000D01*
X-176602000Y115514000D02*
X-176902000Y115214000D01*
X-176602000Y115514000D02*
X-173702000Y115514000D01*
X-173702000Y115514000D02*
X-173702000Y113214000D01*
%TO.C,C13*%
X-169872164Y299860000D02*
X-170087836Y299860000D01*
X-169872164Y299140000D02*
X-170087836Y299140000D01*
%TO.C,D167*%
X-100216000Y129724000D02*
X-100216000Y132024000D01*
X-97316000Y129724000D02*
X-100216000Y129724000D01*
X-97316000Y129724000D02*
X-97016000Y130024000D01*
X-97016000Y132024000D02*
X-100216000Y132024000D01*
X-97016000Y132024000D02*
X-97016000Y130024000D01*
%TO.C,D169*%
X-55702000Y113214000D02*
X-55702000Y115214000D01*
X-55702000Y113214000D02*
X-52502000Y113214000D01*
X-55402000Y115514000D02*
X-55702000Y115214000D01*
X-55402000Y115514000D02*
X-52502000Y115514000D01*
X-52502000Y115514000D02*
X-52502000Y113214000D01*
%TO.C,D179*%
X-221416000Y99424000D02*
X-221416000Y101724000D01*
X-218516000Y99424000D02*
X-221416000Y99424000D01*
X-218516000Y99424000D02*
X-218216000Y99724000D01*
X-218216000Y101724000D02*
X-221416000Y101724000D01*
X-218216000Y101724000D02*
X-218216000Y99724000D01*
%TO.C,R2*%
X-156756359Y309180000D02*
X-157063641Y309180000D01*
X-156756359Y308420000D02*
X-157063641Y308420000D01*
%TO.C,D105*%
X-55702000Y234414000D02*
X-55702000Y236414000D01*
X-55702000Y234414000D02*
X-52502000Y234414000D01*
X-55402000Y236714000D02*
X-55702000Y236414000D01*
X-55402000Y236714000D02*
X-52502000Y236714000D01*
X-52502000Y236714000D02*
X-52502000Y234414000D01*
%TO.C,R6*%
X-170356359Y314380000D02*
X-170663641Y314380000D01*
X-170356359Y313620000D02*
X-170663641Y313620000D01*
%TO.C,D108*%
X-146602000Y234414000D02*
X-146602000Y236414000D01*
X-146602000Y234414000D02*
X-143402000Y234414000D01*
X-146302000Y236714000D02*
X-146602000Y236414000D01*
X-146302000Y236714000D02*
X-143402000Y236714000D01*
X-143402000Y236714000D02*
X-143402000Y234414000D01*
%TO.C,D199*%
X-63140000Y109867500D02*
X-63140000Y105857500D01*
X-61140000Y109867500D02*
X-63140000Y109867500D01*
X-61140000Y109867500D02*
X-61140000Y105857500D01*
%TO.C,D1*%
X-277080000Y292220000D02*
X-277080000Y296230000D01*
X-277080000Y292220000D02*
X-275080000Y292220000D01*
X-275080000Y292220000D02*
X-275080000Y296230000D01*
%TO.C,D176*%
X-267802000Y113214000D02*
X-267802000Y115214000D01*
X-267802000Y113214000D02*
X-264602000Y113214000D01*
X-267502000Y115514000D02*
X-267802000Y115214000D01*
X-267502000Y115514000D02*
X-264602000Y115514000D01*
X-264602000Y115514000D02*
X-264602000Y113214000D01*
%TO.C,U4*%
X-175250000Y311260000D02*
X-176050000Y311260000D01*
X-175250000Y311260000D02*
X-174450000Y311260000D01*
X-175250000Y308140000D02*
X-176050000Y308140000D01*
X-175250000Y308140000D02*
X-174450000Y308140000D01*
X-176550000Y311210000D02*
X-176790000Y311540000D01*
X-176310000Y311540000D01*
X-176550000Y311210000D01*
G36*
X-176550000Y311210000D02*
G01*
X-176790000Y311540000D01*
X-176310000Y311540000D01*
X-176550000Y311210000D01*
G37*
%TO.C,D36*%
X-186430000Y171770000D02*
X-186430000Y175780000D01*
X-186430000Y171770000D02*
X-184430000Y171770000D01*
X-184430000Y171770000D02*
X-184430000Y175780000D01*
%TO.C,D79*%
X-237502000Y295014000D02*
X-237502000Y297014000D01*
X-237502000Y295014000D02*
X-234302000Y295014000D01*
X-237202000Y297314000D02*
X-237502000Y297014000D01*
X-237202000Y297314000D02*
X-234302000Y297314000D01*
X-234302000Y297314000D02*
X-234302000Y295014000D01*
%TO.C,D123*%
X-116302000Y204114000D02*
X-116302000Y206114000D01*
X-116302000Y204114000D02*
X-113102000Y204114000D01*
X-116002000Y206414000D02*
X-116302000Y206114000D01*
X-116002000Y206414000D02*
X-113102000Y206414000D01*
X-113102000Y206414000D02*
X-113102000Y204114000D01*
%TO.C,C1*%
X-177757836Y305010000D02*
X-177542164Y305010000D01*
X-177757836Y304290000D02*
X-177542164Y304290000D01*
%TO.C,C8*%
X-174160000Y303107836D02*
X-174160000Y302892164D01*
X-173440000Y303107836D02*
X-173440000Y302892164D01*
%TO.C,D85*%
X-160816000Y281224000D02*
X-160816000Y283524000D01*
X-157916000Y281224000D02*
X-160816000Y281224000D01*
X-157916000Y281224000D02*
X-157616000Y281524000D01*
X-157616000Y283524000D02*
X-160816000Y283524000D01*
X-157616000Y283524000D02*
X-157616000Y281524000D01*
%TO.C,D143*%
X-237502000Y173814000D02*
X-237502000Y175814000D01*
X-237502000Y173814000D02*
X-234302000Y173814000D01*
X-237202000Y176114000D02*
X-237502000Y175814000D01*
X-237202000Y176114000D02*
X-234302000Y176114000D01*
X-234302000Y176114000D02*
X-234302000Y173814000D01*
D13*
%TO.C,U2*%
X-161700000Y307500000D02*
X-161700000Y301500000D01*
X-156700000Y307500000D02*
X-156700000Y301500000D01*
D12*
X-157195000Y308585000D02*
G75*
G02*
X-157395000Y308585000I-100000J0D01*
G01*
X-157395000Y308585000D02*
G75*
G02*
X-157195000Y308585000I100000J0D01*
G01*
D11*
%TO.C,D136*%
X-69916000Y190324000D02*
X-69916000Y192624000D01*
X-67016000Y190324000D02*
X-69916000Y190324000D01*
X-67016000Y190324000D02*
X-66716000Y190624000D01*
X-66716000Y192624000D02*
X-69916000Y192624000D01*
X-66716000Y192624000D02*
X-66716000Y190624000D01*
%TO.C,D166*%
X-130516000Y129724000D02*
X-130516000Y132024000D01*
X-127616000Y129724000D02*
X-130516000Y129724000D01*
X-127616000Y129724000D02*
X-127316000Y130024000D01*
X-127316000Y132024000D02*
X-130516000Y132024000D01*
X-127316000Y132024000D02*
X-127316000Y130024000D01*
%TO.C,C7*%
X-163960000Y303507836D02*
X-163960000Y303292164D01*
X-163240000Y303507836D02*
X-163240000Y303292164D01*
%TO.C,D142*%
X-207202000Y173814000D02*
X-207202000Y175814000D01*
X-207202000Y173814000D02*
X-204002000Y173814000D01*
X-206902000Y176114000D02*
X-207202000Y175814000D01*
X-206902000Y176114000D02*
X-204002000Y176114000D01*
X-204002000Y176114000D02*
X-204002000Y173814000D01*
%TO.C,D76*%
X-146602000Y295014000D02*
X-146602000Y297014000D01*
X-146602000Y295014000D02*
X-143402000Y295014000D01*
X-146302000Y297314000D02*
X-146602000Y297014000D01*
X-146302000Y297314000D02*
X-143402000Y297314000D01*
X-143402000Y297314000D02*
X-143402000Y295014000D01*
%TO.C,J2*%
X-172870000Y318308000D02*
X-172870000Y317248000D01*
X-164880000Y315148000D02*
X-164080000Y315148000D01*
X-164080000Y315148000D02*
X-164080000Y315298000D01*
X-163310000Y317248000D02*
X-163310000Y318308000D01*
%TO.C,D145*%
X-282016000Y160024000D02*
X-282016000Y162324000D01*
X-279116000Y160024000D02*
X-282016000Y160024000D01*
X-279116000Y160024000D02*
X-278816000Y160324000D01*
X-278816000Y162324000D02*
X-282016000Y162324000D01*
X-278816000Y162324000D02*
X-278816000Y160324000D01*
%TO.C,D78*%
X-207202000Y295014000D02*
X-207202000Y297014000D01*
X-207202000Y295014000D02*
X-204002000Y295014000D01*
X-206902000Y297314000D02*
X-207202000Y297014000D01*
X-206902000Y297314000D02*
X-204002000Y297314000D01*
X-204002000Y297314000D02*
X-204002000Y295014000D01*
%TO.C,D149*%
X-160816000Y160024000D02*
X-160816000Y162324000D01*
X-157916000Y160024000D02*
X-160816000Y160024000D01*
X-157916000Y160024000D02*
X-157616000Y160324000D01*
X-157616000Y162324000D02*
X-160816000Y162324000D01*
X-157616000Y162324000D02*
X-157616000Y160324000D01*
%TO.C,C4*%
X-174092164Y312360000D02*
X-174307836Y312360000D01*
X-174092164Y311640000D02*
X-174307836Y311640000D01*
%TO.C,D121*%
X-55702000Y204114000D02*
X-55702000Y206114000D01*
X-55702000Y204114000D02*
X-52502000Y204114000D01*
X-55402000Y206414000D02*
X-55702000Y206114000D01*
X-55402000Y206414000D02*
X-52502000Y206414000D01*
X-52502000Y206414000D02*
X-52502000Y204114000D01*
%TO.C,D116*%
X-191116000Y220624000D02*
X-191116000Y222924000D01*
X-188216000Y220624000D02*
X-191116000Y220624000D01*
X-188216000Y220624000D02*
X-187916000Y220924000D01*
X-187916000Y222924000D02*
X-191116000Y222924000D01*
X-187916000Y222924000D02*
X-187916000Y220924000D01*
%TO.C,D9*%
X-277080000Y261920000D02*
X-277080000Y265930000D01*
X-277080000Y261920000D02*
X-275080000Y261920000D01*
X-275080000Y261920000D02*
X-275080000Y265930000D01*
%TO.C,D146*%
X-251716000Y160024000D02*
X-251716000Y162324000D01*
X-248816000Y160024000D02*
X-251716000Y160024000D01*
X-248816000Y160024000D02*
X-248516000Y160324000D01*
X-248516000Y162324000D02*
X-251716000Y162324000D01*
X-248516000Y162324000D02*
X-248516000Y160324000D01*
%TO.C,D74*%
X-86002000Y295014000D02*
X-86002000Y297014000D01*
X-86002000Y295014000D02*
X-82802000Y295014000D01*
X-85702000Y297314000D02*
X-86002000Y297014000D01*
X-85702000Y297314000D02*
X-82802000Y297314000D01*
X-82802000Y297314000D02*
X-82802000Y295014000D01*
%TO.C,D17*%
X-277080000Y231620000D02*
X-277080000Y235630000D01*
X-277080000Y231620000D02*
X-275080000Y231620000D01*
X-275080000Y231620000D02*
X-275080000Y235630000D01*
%TO.C,D147*%
X-221416000Y160024000D02*
X-221416000Y162324000D01*
X-218516000Y160024000D02*
X-221416000Y160024000D01*
X-218516000Y160024000D02*
X-218216000Y160324000D01*
X-218216000Y162324000D02*
X-221416000Y162324000D01*
X-218216000Y162324000D02*
X-218216000Y160324000D01*
%TO.C,D86*%
X-130516000Y281224000D02*
X-130516000Y283524000D01*
X-127616000Y281224000D02*
X-130516000Y281224000D01*
X-127616000Y281224000D02*
X-127316000Y281524000D01*
X-127316000Y283524000D02*
X-130516000Y283524000D01*
X-127316000Y283524000D02*
X-127316000Y281524000D01*
%TO.C,D197*%
X-63120000Y168380000D02*
X-63120000Y164370000D01*
X-61120000Y168380000D02*
X-63120000Y168380000D01*
X-61120000Y168380000D02*
X-61120000Y164370000D01*
%TO.C,D21*%
X-155470000Y232340000D02*
X-155470000Y236350000D01*
X-155470000Y232340000D02*
X-153470000Y232340000D01*
X-153470000Y232340000D02*
X-153470000Y236350000D01*
%TO.C,D24*%
X-65070000Y232090000D02*
X-65070000Y236100000D01*
X-65070000Y232090000D02*
X-63070000Y232090000D01*
X-63070000Y232090000D02*
X-63070000Y236100000D01*
D12*
%TO.C,S6*%
X-55780000Y142552000D02*
G75*
G02*
X-55980000Y142552000I-100000J0D01*
G01*
X-55980000Y142552000D02*
G75*
G02*
X-55780000Y142552000I100000J0D01*
G01*
D11*
%TO.C,D15*%
X-95290000Y262590000D02*
X-95290000Y266600000D01*
X-95290000Y262590000D02*
X-93290000Y262590000D01*
X-93290000Y262590000D02*
X-93290000Y266600000D01*
%TO.C,D127*%
X-237502000Y204114000D02*
X-237502000Y206114000D01*
X-237502000Y204114000D02*
X-234302000Y204114000D01*
X-237202000Y206414000D02*
X-237502000Y206114000D01*
X-237202000Y206414000D02*
X-234302000Y206414000D01*
X-234302000Y206414000D02*
X-234302000Y204114000D01*
%TO.C,R1*%
X-174680000Y306853641D02*
X-174680000Y306546359D01*
X-173920000Y306853641D02*
X-173920000Y306546359D01*
%TO.C,D55*%
X-95430000Y111370000D02*
X-95430000Y115380000D01*
X-95430000Y111370000D02*
X-93430000Y111370000D01*
X-93430000Y111370000D02*
X-93430000Y115380000D01*
%TO.C,D183*%
X-100216000Y99424000D02*
X-100216000Y101724000D01*
X-97316000Y99424000D02*
X-100216000Y99424000D01*
X-97316000Y99424000D02*
X-97016000Y99724000D01*
X-97016000Y101724000D02*
X-100216000Y101724000D01*
X-97016000Y101724000D02*
X-97016000Y99724000D01*
%TO.C,D172*%
X-146602000Y113214000D02*
X-146602000Y115214000D01*
X-146602000Y113214000D02*
X-143402000Y113214000D01*
X-146302000Y115514000D02*
X-146602000Y115214000D01*
X-146302000Y115514000D02*
X-143402000Y115514000D01*
X-143402000Y115514000D02*
X-143402000Y113214000D01*
%TO.C,D34*%
X-246890000Y171820000D02*
X-246890000Y175830000D01*
X-246890000Y171820000D02*
X-244890000Y171820000D01*
X-244890000Y171820000D02*
X-244890000Y175830000D01*
%TO.C,D97*%
X-282016000Y250924000D02*
X-282016000Y253224000D01*
X-279116000Y250924000D02*
X-282016000Y250924000D01*
X-279116000Y250924000D02*
X-278816000Y251224000D01*
X-278816000Y253224000D02*
X-282016000Y253224000D01*
X-278816000Y253224000D02*
X-278816000Y251224000D01*
%TO.C,D111*%
X-237502000Y234414000D02*
X-237502000Y236414000D01*
X-237502000Y234414000D02*
X-234302000Y234414000D01*
X-237202000Y236714000D02*
X-237502000Y236414000D01*
X-237202000Y236714000D02*
X-234302000Y236714000D01*
X-234302000Y236714000D02*
X-234302000Y234414000D01*
%TO.C,D180*%
X-191116000Y99424000D02*
X-191116000Y101724000D01*
X-188216000Y99424000D02*
X-191116000Y99424000D01*
X-188216000Y99424000D02*
X-187916000Y99724000D01*
X-187916000Y101724000D02*
X-191116000Y101724000D01*
X-187916000Y101724000D02*
X-187916000Y99724000D01*
%TO.C,D93*%
X-176902000Y264714000D02*
X-176902000Y266714000D01*
X-176902000Y264714000D02*
X-173702000Y264714000D01*
X-176602000Y267014000D02*
X-176902000Y266714000D01*
X-176602000Y267014000D02*
X-173702000Y267014000D01*
X-173702000Y267014000D02*
X-173702000Y264714000D01*
%TO.C,D131*%
X-221416000Y190324000D02*
X-221416000Y192624000D01*
X-218516000Y190324000D02*
X-221416000Y190324000D01*
X-218516000Y190324000D02*
X-218216000Y190624000D01*
X-218216000Y192624000D02*
X-221416000Y192624000D01*
X-218216000Y192624000D02*
X-218216000Y190624000D01*
%TO.C,D159*%
X-237502000Y143514000D02*
X-237502000Y145514000D01*
X-237502000Y143514000D02*
X-234302000Y143514000D01*
X-237202000Y145814000D02*
X-237502000Y145514000D01*
X-237202000Y145814000D02*
X-234302000Y145814000D01*
X-234302000Y145814000D02*
X-234302000Y143514000D01*
%TO.C,D118*%
X-130516000Y220624000D02*
X-130516000Y222924000D01*
X-127616000Y220624000D02*
X-130516000Y220624000D01*
X-127616000Y220624000D02*
X-127316000Y220924000D01*
X-127316000Y222924000D02*
X-130516000Y222924000D01*
X-127316000Y222924000D02*
X-127316000Y220924000D01*
%TO.C,D58*%
X-246880000Y80880000D02*
X-246880000Y84890000D01*
X-246880000Y80880000D02*
X-244880000Y80880000D01*
X-244880000Y80880000D02*
X-244880000Y84890000D01*
%TO.C,D117*%
X-160816000Y220624000D02*
X-160816000Y222924000D01*
X-157916000Y220624000D02*
X-160816000Y220624000D01*
X-157916000Y220624000D02*
X-157616000Y220924000D01*
X-157616000Y222924000D02*
X-160816000Y222924000D01*
X-157616000Y222924000D02*
X-157616000Y220924000D01*
%TO.C,D157*%
X-176902000Y143514000D02*
X-176902000Y145514000D01*
X-176902000Y143514000D02*
X-173702000Y143514000D01*
X-176602000Y145814000D02*
X-176902000Y145514000D01*
X-176602000Y145814000D02*
X-173702000Y145814000D01*
X-173702000Y145814000D02*
X-173702000Y143514000D01*
%TO.C,D67*%
X-221416000Y311524000D02*
X-221416000Y313824000D01*
X-218516000Y311524000D02*
X-221416000Y311524000D01*
X-218516000Y311524000D02*
X-218216000Y311824000D01*
X-218216000Y313824000D02*
X-221416000Y313824000D01*
X-218216000Y313824000D02*
X-218216000Y311824000D01*
%TO.C,D189*%
X-176902000Y82914000D02*
X-176902000Y84914000D01*
X-176902000Y82914000D02*
X-173702000Y82914000D01*
X-176602000Y85214000D02*
X-176902000Y84914000D01*
X-176602000Y85214000D02*
X-173702000Y85214000D01*
X-173702000Y85214000D02*
X-173702000Y82914000D01*
%TO.C,D73*%
X-55702000Y295014000D02*
X-55702000Y297014000D01*
X-55702000Y295014000D02*
X-52502000Y295014000D01*
X-55402000Y297314000D02*
X-55702000Y297014000D01*
X-55402000Y297314000D02*
X-52502000Y297314000D01*
X-52502000Y297314000D02*
X-52502000Y295014000D01*
D12*
%TO.C,S4*%
X-55780000Y203152000D02*
G75*
G02*
X-55980000Y203152000I-100000J0D01*
G01*
X-55980000Y203152000D02*
G75*
G02*
X-55780000Y203152000I100000J0D01*
G01*
D11*
%TO.C,R3*%
X-170780000Y310153641D02*
X-170780000Y309846359D01*
X-170020000Y310153641D02*
X-170020000Y309846359D01*
%TO.C,D63*%
X-95300000Y80860000D02*
X-95300000Y84870000D01*
X-95300000Y80860000D02*
X-93300000Y80860000D01*
X-93300000Y80860000D02*
X-93300000Y84870000D01*
%TO.C,R5*%
X-165080000Y295153641D02*
X-165080000Y294846359D01*
X-164320000Y295153641D02*
X-164320000Y294846359D01*
D12*
%TO.C,S7*%
X-55780000Y112252000D02*
G75*
G02*
X-55980000Y112252000I-100000J0D01*
G01*
X-55980000Y112252000D02*
G75*
G02*
X-55780000Y112252000I100000J0D01*
G01*
D11*
%TO.C,D3*%
X-216480000Y292220000D02*
X-216480000Y296230000D01*
X-216480000Y292220000D02*
X-214480000Y292220000D01*
X-214480000Y292220000D02*
X-214480000Y296230000D01*
%TO.C,D171*%
X-116302000Y113214000D02*
X-116302000Y115214000D01*
X-116302000Y113214000D02*
X-113102000Y113214000D01*
X-116002000Y115514000D02*
X-116302000Y115214000D01*
X-116002000Y115514000D02*
X-113102000Y115514000D01*
X-113102000Y115514000D02*
X-113102000Y113214000D01*
%TO.C,D141*%
X-176902000Y173814000D02*
X-176902000Y175814000D01*
X-176902000Y173814000D02*
X-173702000Y173814000D01*
X-176602000Y176114000D02*
X-176902000Y175814000D01*
X-176602000Y176114000D02*
X-173702000Y176114000D01*
X-173702000Y176114000D02*
X-173702000Y173814000D01*
%TO.C,F1*%
X-172910000Y311702064D02*
X-172910000Y310497936D01*
X-171090000Y311702064D02*
X-171090000Y310497936D01*
%TO.C,D57*%
X-277320000Y80620000D02*
X-277320000Y84630000D01*
X-277320000Y80620000D02*
X-275320000Y80620000D01*
X-275320000Y80620000D02*
X-275320000Y84630000D01*
%TO.C,D54*%
X-125850000Y111410000D02*
X-125850000Y115420000D01*
X-125850000Y111410000D02*
X-123850000Y111410000D01*
X-123850000Y111410000D02*
X-123850000Y115420000D01*
%TO.C,D61*%
X-156000000Y80850000D02*
X-156000000Y84860000D01*
X-156000000Y80850000D02*
X-154000000Y80850000D01*
X-154000000Y80850000D02*
X-154000000Y84860000D01*
%TO.C,C10*%
X-166122164Y309110000D02*
X-166337836Y309110000D01*
X-166122164Y308390000D02*
X-166337836Y308390000D01*
%TO.C,D41*%
X-277080000Y140720000D02*
X-277080000Y144730000D01*
X-277080000Y140720000D02*
X-275080000Y140720000D01*
X-275080000Y140720000D02*
X-275080000Y144730000D01*
%TO.C,D43*%
X-216390000Y141810000D02*
X-216390000Y145820000D01*
X-216390000Y141810000D02*
X-214390000Y141810000D01*
X-214390000Y141810000D02*
X-214390000Y145820000D01*
%TO.C,D162*%
X-251716000Y129724000D02*
X-251716000Y132024000D01*
X-248816000Y129724000D02*
X-251716000Y129724000D01*
X-248816000Y129724000D02*
X-248516000Y130024000D01*
X-248516000Y132024000D02*
X-251716000Y132024000D01*
X-248516000Y132024000D02*
X-248516000Y130024000D01*
%TO.C,D33*%
X-277080000Y171020000D02*
X-277080000Y175030000D01*
X-277080000Y171020000D02*
X-275080000Y171020000D01*
X-275080000Y171020000D02*
X-275080000Y175030000D01*
%TO.C,D144*%
X-267802000Y173814000D02*
X-267802000Y175814000D01*
X-267802000Y173814000D02*
X-264602000Y173814000D01*
X-267502000Y176114000D02*
X-267802000Y175814000D01*
X-267502000Y176114000D02*
X-264602000Y176114000D01*
X-264602000Y176114000D02*
X-264602000Y173814000D01*
%TO.C,D56*%
X-65040000Y111200000D02*
X-65040000Y115210000D01*
X-65040000Y111200000D02*
X-63040000Y111200000D01*
X-63040000Y111200000D02*
X-63040000Y115210000D01*
%TO.C,D181*%
X-160816000Y99424000D02*
X-160816000Y101724000D01*
X-157916000Y99424000D02*
X-160816000Y99424000D01*
X-157916000Y99424000D02*
X-157616000Y99724000D01*
X-157616000Y101724000D02*
X-160816000Y101724000D01*
X-157616000Y101724000D02*
X-157616000Y99724000D01*
%TO.C,D102*%
X-130516000Y250924000D02*
X-130516000Y253224000D01*
X-127616000Y250924000D02*
X-130516000Y250924000D01*
X-127616000Y250924000D02*
X-127316000Y251224000D01*
X-127316000Y253224000D02*
X-130516000Y253224000D01*
X-127316000Y253224000D02*
X-127316000Y251224000D01*
%TO.C,D104*%
X-69916000Y250924000D02*
X-69916000Y253224000D01*
X-67016000Y250924000D02*
X-69916000Y250924000D01*
X-67016000Y250924000D02*
X-66716000Y251224000D01*
X-66716000Y253224000D02*
X-69916000Y253224000D01*
X-66716000Y253224000D02*
X-66716000Y251224000D01*
%TO.C,R8*%
X-163780000Y308056359D02*
X-163780000Y308363641D01*
X-163020000Y308056359D02*
X-163020000Y308363641D01*
%TO.C,D68*%
X-191116000Y311524000D02*
X-191116000Y313824000D01*
X-188216000Y311524000D02*
X-191116000Y311524000D01*
X-188216000Y311524000D02*
X-187916000Y311824000D01*
X-187916000Y313824000D02*
X-191116000Y313824000D01*
X-187916000Y313824000D02*
X-187916000Y311824000D01*
%TO.C,D155*%
X-116302000Y143514000D02*
X-116302000Y145514000D01*
X-116302000Y143514000D02*
X-113102000Y143514000D01*
X-116002000Y145814000D02*
X-116302000Y145514000D01*
X-116002000Y145814000D02*
X-113102000Y145814000D01*
X-113102000Y145814000D02*
X-113102000Y143514000D01*
%TO.C,D11*%
X-216490000Y262960000D02*
X-216490000Y266970000D01*
X-216490000Y262960000D02*
X-214490000Y262960000D01*
X-214490000Y262960000D02*
X-214490000Y266970000D01*
%TO.C,D124*%
X-146602000Y204114000D02*
X-146602000Y206114000D01*
X-146602000Y204114000D02*
X-143402000Y204114000D01*
X-146302000Y206414000D02*
X-146602000Y206114000D01*
X-146302000Y206414000D02*
X-143402000Y206414000D01*
X-143402000Y206414000D02*
X-143402000Y204114000D01*
%TO.C,C2*%
X-173660000Y306872164D02*
X-173660000Y307087836D01*
X-172940000Y306872164D02*
X-172940000Y307087836D01*
%TO.C,D138*%
X-86002000Y173814000D02*
X-86002000Y175814000D01*
X-86002000Y173814000D02*
X-82802000Y173814000D01*
X-85702000Y176114000D02*
X-86002000Y175814000D01*
X-85702000Y176114000D02*
X-82802000Y176114000D01*
X-82802000Y176114000D02*
X-82802000Y173814000D01*
%TO.C,D140*%
X-146602000Y173814000D02*
X-146602000Y175814000D01*
X-146602000Y173814000D02*
X-143402000Y173814000D01*
X-146302000Y176114000D02*
X-146602000Y175814000D01*
X-146302000Y176114000D02*
X-143402000Y176114000D01*
X-143402000Y176114000D02*
X-143402000Y173814000D01*
%TO.C,D128*%
X-267802000Y204114000D02*
X-267802000Y206114000D01*
X-267802000Y204114000D02*
X-264602000Y204114000D01*
X-267502000Y206414000D02*
X-267802000Y206114000D01*
X-267502000Y206414000D02*
X-264602000Y206414000D01*
X-264602000Y206414000D02*
X-264602000Y204114000D01*
%TO.C,D16*%
X-65030000Y262510000D02*
X-65030000Y266520000D01*
X-65030000Y262510000D02*
X-63030000Y262510000D01*
X-63030000Y262510000D02*
X-63030000Y266520000D01*
%TD*%
M02*
