M48
; DRILL file {KiCad 9.0.1} date 2025-06-02T12:16:05+0100
; FORMAT={-:-/ absolute / metric / decimal}
; #@! TF.CreationDate,2025-06-02T12:16:05+01:00
; #@! TF.GenerationSoftware,Kicad,Pcbnew,9.0.1
; #@! TF.FileFunction,Plated,1,2,PTH
FMAT,2
METRIC
; #@! TA.AperFunction,Plated,PTH,ComponentDrill
T1C0.250
; #@! TA.AperFunction,Plated,PTH,ViaDrill
T2C0.300
; #@! TA.AperFunction,Plated,PTH,ComponentDrill
T3C0.350
; #@! TA.AperFunction,Plated,PTH,ComponentDrill
T4C0.550
; #@! TA.AperFunction,Plated,PTH,ComponentDrill
T5C0.700
; #@! TA.AperFunction,Plated,PTH,ComponentDrill
T6C1.000
; #@! TA.AperFunction,Plated,PTH,ComponentDrill
T7C1.300
; #@! TA.AperFunction,Plated,PTH,ComponentDrill
T8C2.200
; #@! TA.AperFunction,Plated,PTH,ComponentDrill
T9C4.300
%
G90
G05
T2
X-283.98Y287.14
X-283.35Y114.56
X-283.31Y87.0
X-282.86Y311.04
X-281.53Y112.42
X-281.51Y144.01
X-280.1Y290.73
X-279.98Y201.38
X-279.77Y109.09
X-279.24Y139.93
X-279.22Y168.24
X-279.0Y314.0
X-279.0Y284.0
X-278.9Y101.6
X-278.8Y222.4
X-278.75Y253.0
X-278.7Y192.2
X-278.7Y161.9
X-278.7Y131.5
X-278.5Y315.0
X-273.5Y232.5
X-273.0Y314.5
X-273.0Y129.5
X-272.8Y299.0
X-272.5Y123.0
X-271.5Y230.0
X-271.5Y223.0
X-271.5Y123.0
X-271.0Y129.5
X-268.3Y113.3
X-268.0Y83.6
X-267.9Y174.5
X-267.8Y265.1
X-267.8Y235.0
X-267.8Y204.8
X-267.7Y143.9
X-266.5Y295.0
X-265.0Y232.5
X-264.99Y306.95
X-264.5Y235.0
X-261.69Y308.13
X-249.0Y314.0
X-248.6Y101.6
X-248.4Y131.7
X-248.3Y222.4
X-248.3Y161.6
X-248.25Y253.0
X-248.1Y192.0
X-247.0Y301.5
X-246.0Y283.5
X-245.82Y233.8
X-244.586Y235.014
X-237.7Y204.4
X-237.6Y265.2
X-237.6Y143.7
X-237.6Y113.4
X-237.4Y235.1
X-237.4Y174.3
X-237.4Y82.8
X-237.0Y294.0
X-219.0Y314.0
X-218.1Y222.4
X-218.1Y161.8
X-218.0Y283.0
X-218.0Y253.25
X-218.0Y192.0
X-218.0Y131.9
X-217.9Y101.8
X-217.15Y307.47
X-216.76Y301.28
X-210.64Y307.8
X-207.7Y143.6
X-207.7Y113.5
X-207.4Y174.5
X-207.3Y235.1
X-207.3Y204.7
X-207.1Y265.2
X-207.0Y295.0
X-206.8Y83.0
X-188.42Y263.621
X-188.35Y300.71
X-188.0Y313.5
X-188.0Y283.0
X-187.8Y222.4
X-187.8Y192.1
X-187.75Y253.25
X-187.7Y131.9
X-187.7Y101.7
X-187.5Y312.0
X-187.43Y307.64
X-187.4Y161.8
X-184.77Y296.65
X-184.31Y298.91
X-183.0Y302.0
X-182.72Y305.01
X-182.35Y307.45
X-181.5Y306.0
X-180.12Y297.71
X-179.69Y306.28
X-179.5Y315.0
X-178.86Y306.16
X-178.75Y309.27
X-178.7Y304.7
X-178.5Y290.0
X-178.17Y306.1
X-178.0Y314.0
X-177.4Y310.6
X-177.2Y235.1
X-177.2Y113.3
X-177.1Y174.5
X-177.0Y295.0
X-177.0Y143.7
X-176.9Y265.3
X-176.9Y204.7
X-176.5Y82.8
X-175.8Y305.4
X-175.2Y312.0
X-174.5Y299.5
X-173.1Y298.81
X-172.799Y305.701
X-172.5Y294.5
X-171.61Y300.18
X-171.4Y317.0
X-171.2Y305.1
X-171.0Y299.0
X-171.0Y298.0
X-170.99Y304.35
X-170.8Y301.6
X-170.466Y303.945
X-170.2Y311.725
X-170.05Y306.09
X-169.6Y306.58
X-169.215Y298.395
X-169.12Y306.12
X-169.0Y314.5
X-168.8Y316.8
X-168.4Y306.11
X-168.11Y298.26
X-168.0Y290.5
X-167.97Y297.52
X-167.87Y306.64
X-167.82Y299.63
X-167.6Y316.8
X-167.4Y306.12
X-167.25Y308.75
X-166.138Y306.12
X-166.138Y304.5
X-166.1Y297.09
X-166.0Y302.8
X-165.901Y303.442
X-165.89Y297.83
X-165.657Y298.756
X-165.4Y316.8
X-165.37Y310.7
X-165.347Y308.017
X-165.198Y298.296
X-165.0Y314.0
X-164.8Y300.8
X-164.73Y296.43
X-164.5Y309.417
X-164.33Y297.46
X-164.15Y308.46
X-163.6Y300.4
X-163.5Y313.5
X-163.05Y311.55
X-162.91Y296.91
X-162.64Y309.88
X-161.8Y304.4
X-161.5Y299.5
X-160.47Y307.46
X-160.0Y290.0
X-159.0Y300.4
X-158.0Y284.0
X-157.75Y253.0
X-157.6Y161.7
X-157.6Y101.8
X-157.5Y313.5
X-157.5Y222.3
X-157.3Y132.0
X-157.2Y192.0
X-156.6Y304.4
X-156.0Y312.0
X-154.95Y301.7
X-154.73Y300.55
X-151.88Y293.59
X-151.0Y295.5
X-148.43Y301.06
X-147.1Y174.3
X-146.8Y143.9
X-146.8Y113.4
X-146.7Y235.0
X-146.7Y204.7
X-146.7Y82.5
X-146.6Y265.3
X-146.0Y295.0
X-142.5Y313.0
X-127.25Y253.5
X-127.2Y131.9
X-127.1Y192.0
X-127.1Y161.4
X-127.1Y101.8
X-127.0Y283.0
X-126.9Y222.3
X-126.5Y313.0
X-116.7Y265.0
X-116.6Y204.7
X-116.5Y295.0
X-116.5Y143.9
X-116.4Y174.3
X-116.4Y113.3
X-116.2Y235.1
X-116.11Y302.56
X-115.8Y82.8
X-97.1Y132.0
X-97.0Y283.0
X-96.9Y222.3
X-96.8Y313.2
X-96.8Y161.8
X-96.8Y101.6
X-96.75Y253.25
X-96.6Y192.1
X-86.4Y113.1
X-86.3Y204.8
X-86.2Y295.1
X-86.2Y235.1
X-86.2Y82.6
X-86.0Y265.2
X-86.0Y143.8
X-85.9Y174.2
X-66.7Y132.1
X-66.7Y101.7
X-66.6Y161.7
X-66.5Y222.3
X-66.4Y192.2
X-66.3Y313.3
X-66.25Y253.0
X-66.0Y283.0
X-58.0Y282.0
X-56.0Y235.1
X-55.9Y204.8
X-55.8Y295.4
X-55.8Y265.1
X-55.8Y174.4
X-55.7Y113.3
X-55.6Y143.9
X-55.6Y82.9
X-55.5Y221.5
X-55.0Y311.0
X-52.0Y158.5
X-52.0Y144.0
X-51.5Y266.0
X-51.0Y298.0
X-51.0Y206.4
X-51.0Y174.5
X-50.0Y185.5
T3
X-169.713Y305.375
X-169.713Y304.1
X-169.713Y302.825
X-168.438Y305.375
X-168.438Y304.1
X-168.438Y302.825
X-167.162Y305.375
X-167.162Y304.1
X-167.162Y302.825
T4
X-172.685Y316.588
X-163.495Y316.588
T6
X-55.88Y291.302
X-55.88Y286.802
X-55.88Y261.002
X-55.88Y256.502
X-55.88Y230.702
X-55.88Y226.202
X-55.88Y200.402
X-55.88Y195.902
X-55.88Y170.102
X-55.88Y165.602
X-55.88Y139.802
X-55.88Y135.302
X-55.88Y109.502
X-55.88Y105.002
T7
X-58.38Y292.552
X-58.38Y285.552
X-58.38Y262.252
X-58.38Y255.252
X-58.38Y231.952
X-58.38Y224.952
X-58.38Y201.652
X-58.38Y194.652
X-58.38Y171.352
X-58.38Y164.352
X-58.38Y141.052
X-58.38Y134.052
X-58.38Y110.752
X-58.38Y103.752
T8
X-46.736Y182.372
T9
X-286.43Y183.24
X-285.47Y316.47
X-284.64Y81.22
X-237.04Y167.72
X-222.42Y259.01
X-167.78Y79.98
X-165.66Y210.15
X-163.13Y137.88
X-162.72Y259.72
X-100.32Y259.26
X-85.54Y167.6
X-50.76Y315.42
X-49.48Y80.18
T1
G00X-172.685Y318.818
M15
G01X-172.685Y320.318
M16
G05
G00X-163.495Y318.818
M15
G01X-163.495Y320.318
M16
G05
T5
G00X-275.8Y307.35
M15
G01X-275.8Y305.05
M16
G05
G00X-275.8Y277.05
M15
G01X-275.8Y274.75
M16
G05
G00X-275.8Y246.75
M15
G01X-275.8Y244.45
M16
G05
G00X-275.8Y216.45
M15
G01X-275.8Y214.15
M16
G05
G00X-275.8Y186.15
M15
G01X-275.8Y183.85
M16
G05
G00X-275.8Y155.85
M15
G01X-275.8Y153.55
M16
G05
G00X-275.8Y125.55
M15
G01X-275.8Y123.25
M16
G05
G00X-275.8Y95.25
M15
G01X-275.8Y92.95
M16
G05
G00X-271.7Y302.35
M15
G01X-271.7Y300.05
M16
G05
G00X-271.7Y272.05
M15
G01X-271.7Y269.75
M16
G05
G00X-271.7Y241.75
M15
G01X-271.7Y239.45
M16
G05
G00X-271.7Y211.45
M15
G01X-271.7Y209.15
M16
G05
G00X-271.7Y181.15
M15
G01X-271.7Y178.85
M16
G05
G00X-271.7Y150.85
M15
G01X-271.7Y148.55
M16
G05
G00X-271.7Y120.55
M15
G01X-271.7Y118.25
M16
G05
G00X-271.7Y90.25
M15
G01X-271.7Y87.95
M16
G05
G00X-245.5Y307.35
M15
G01X-245.5Y305.05
M16
G05
G00X-245.5Y277.05
M15
G01X-245.5Y274.75
M16
G05
G00X-245.5Y246.75
M15
G01X-245.5Y244.45
M16
G05
G00X-245.5Y216.45
M15
G01X-245.5Y214.15
M16
G05
G00X-245.5Y186.15
M15
G01X-245.5Y183.85
M16
G05
G00X-245.5Y155.85
M15
G01X-245.5Y153.55
M16
G05
G00X-245.5Y125.55
M15
G01X-245.5Y123.25
M16
G05
G00X-245.5Y95.25
M15
G01X-245.5Y92.95
M16
G05
G00X-241.4Y302.35
M15
G01X-241.4Y300.05
M16
G05
G00X-241.4Y272.05
M15
G01X-241.4Y269.75
M16
G05
G00X-241.4Y241.75
M15
G01X-241.4Y239.45
M16
G05
G00X-241.4Y211.45
M15
G01X-241.4Y209.15
M16
G05
G00X-241.4Y181.15
M15
G01X-241.4Y178.85
M16
G05
G00X-241.4Y150.85
M15
G01X-241.4Y148.55
M16
G05
G00X-241.4Y120.55
M15
G01X-241.4Y118.25
M16
G05
G00X-241.4Y90.25
M15
G01X-241.4Y87.95
M16
G05
G00X-215.2Y307.35
M15
G01X-215.2Y305.05
M16
G05
G00X-215.2Y277.05
M15
G01X-215.2Y274.75
M16
G05
G00X-215.2Y246.75
M15
G01X-215.2Y244.45
M16
G05
G00X-215.2Y216.45
M15
G01X-215.2Y214.15
M16
G05
G00X-215.2Y186.15
M15
G01X-215.2Y183.85
M16
G05
G00X-215.2Y155.85
M15
G01X-215.2Y153.55
M16
G05
G00X-215.2Y125.55
M15
G01X-215.2Y123.25
M16
G05
G00X-215.2Y95.25
M15
G01X-215.2Y92.95
M16
G05
G00X-211.1Y302.35
M15
G01X-211.1Y300.05
M16
G05
G00X-211.1Y272.05
M15
G01X-211.1Y269.75
M16
G05
G00X-211.1Y241.75
M15
G01X-211.1Y239.45
M16
G05
G00X-211.1Y211.45
M15
G01X-211.1Y209.15
M16
G05
G00X-211.1Y181.15
M15
G01X-211.1Y178.85
M16
G05
G00X-211.1Y150.85
M15
G01X-211.1Y148.55
M16
G05
G00X-211.1Y120.55
M15
G01X-211.1Y118.25
M16
G05
G00X-211.1Y90.25
M15
G01X-211.1Y87.95
M16
G05
G00X-184.9Y307.35
M15
G01X-184.9Y305.05
M16
G05
G00X-184.9Y277.05
M15
G01X-184.9Y274.75
M16
G05
G00X-184.9Y246.75
M15
G01X-184.9Y244.45
M16
G05
G00X-184.9Y216.45
M15
G01X-184.9Y214.15
M16
G05
G00X-184.9Y186.15
M15
G01X-184.9Y183.85
M16
G05
G00X-184.9Y155.85
M15
G01X-184.9Y153.55
M16
G05
G00X-184.9Y125.55
M15
G01X-184.9Y123.25
M16
G05
G00X-184.9Y95.25
M15
G01X-184.9Y92.95
M16
G05
G00X-180.8Y302.35
M15
G01X-180.8Y300.05
M16
G05
G00X-180.8Y272.05
M15
G01X-180.8Y269.75
M16
G05
G00X-180.8Y241.75
M15
G01X-180.8Y239.45
M16
G05
G00X-180.8Y211.45
M15
G01X-180.8Y209.15
M16
G05
G00X-180.8Y181.15
M15
G01X-180.8Y178.85
M16
G05
G00X-180.8Y150.85
M15
G01X-180.8Y148.55
M16
G05
G00X-180.8Y120.55
M15
G01X-180.8Y118.25
M16
G05
G00X-180.8Y90.25
M15
G01X-180.8Y87.95
M16
G05
G00X-154.6Y307.35
M15
G01X-154.6Y305.05
M16
G05
G00X-154.6Y277.05
M15
G01X-154.6Y274.75
M16
G05
G00X-154.6Y246.75
M15
G01X-154.6Y244.45
M16
G05
G00X-154.6Y216.45
M15
G01X-154.6Y214.15
M16
G05
G00X-154.6Y186.15
M15
G01X-154.6Y183.85
M16
G05
G00X-154.6Y155.85
M15
G01X-154.6Y153.55
M16
G05
G00X-154.6Y125.55
M15
G01X-154.6Y123.25
M16
G05
G00X-154.6Y95.25
M15
G01X-154.6Y92.95
M16
G05
G00X-150.5Y302.35
M15
G01X-150.5Y300.05
M16
G05
G00X-150.5Y272.05
M15
G01X-150.5Y269.75
M16
G05
G00X-150.5Y241.75
M15
G01X-150.5Y239.45
M16
G05
G00X-150.5Y211.45
M15
G01X-150.5Y209.15
M16
G05
G00X-150.5Y181.15
M15
G01X-150.5Y178.85
M16
G05
G00X-150.5Y150.85
M15
G01X-150.5Y148.55
M16
G05
G00X-150.5Y120.55
M15
G01X-150.5Y118.25
M16
G05
G00X-150.5Y90.25
M15
G01X-150.5Y87.95
M16
G05
G00X-124.3Y307.35
M15
G01X-124.3Y305.05
M16
G05
G00X-124.3Y277.05
M15
G01X-124.3Y274.75
M16
G05
G00X-124.3Y246.75
M15
G01X-124.3Y244.45
M16
G05
G00X-124.3Y216.45
M15
G01X-124.3Y214.15
M16
G05
G00X-124.3Y186.15
M15
G01X-124.3Y183.85
M16
G05
G00X-124.3Y155.85
M15
G01X-124.3Y153.55
M16
G05
G00X-124.3Y125.55
M15
G01X-124.3Y123.25
M16
G05
G00X-124.3Y95.25
M15
G01X-124.3Y92.95
M16
G05
G00X-120.2Y302.35
M15
G01X-120.2Y300.05
M16
G05
G00X-120.2Y272.05
M15
G01X-120.2Y269.75
M16
G05
G00X-120.2Y241.75
M15
G01X-120.2Y239.45
M16
G05
G00X-120.2Y211.45
M15
G01X-120.2Y209.15
M16
G05
G00X-120.2Y181.15
M15
G01X-120.2Y178.85
M16
G05
G00X-120.2Y150.85
M15
G01X-120.2Y148.55
M16
G05
G00X-120.2Y120.55
M15
G01X-120.2Y118.25
M16
G05
G00X-120.2Y90.25
M15
G01X-120.2Y87.95
M16
G05
G00X-94.0Y307.35
M15
G01X-94.0Y305.05
M16
G05
G00X-94.0Y277.05
M15
G01X-94.0Y274.75
M16
G05
G00X-94.0Y246.75
M15
G01X-94.0Y244.45
M16
G05
G00X-94.0Y216.45
M15
G01X-94.0Y214.15
M16
G05
G00X-94.0Y186.15
M15
G01X-94.0Y183.85
M16
G05
G00X-94.0Y155.85
M15
G01X-94.0Y153.55
M16
G05
G00X-94.0Y125.55
M15
G01X-94.0Y123.25
M16
G05
G00X-94.0Y95.25
M15
G01X-94.0Y92.95
M16
G05
G00X-89.9Y302.35
M15
G01X-89.9Y300.05
M16
G05
G00X-89.9Y272.05
M15
G01X-89.9Y269.75
M16
G05
G00X-89.9Y241.75
M15
G01X-89.9Y239.45
M16
G05
G00X-89.9Y211.45
M15
G01X-89.9Y209.15
M16
G05
G00X-89.9Y181.15
M15
G01X-89.9Y178.85
M16
G05
G00X-89.9Y150.85
M15
G01X-89.9Y148.55
M16
G05
G00X-89.9Y120.55
M15
G01X-89.9Y118.25
M16
G05
G00X-89.9Y90.25
M15
G01X-89.9Y87.95
M16
G05
G00X-63.7Y307.35
M15
G01X-63.7Y305.05
M16
G05
G00X-63.7Y277.05
M15
G01X-63.7Y274.75
M16
G05
G00X-63.7Y246.75
M15
G01X-63.7Y244.45
M16
G05
G00X-63.7Y216.45
M15
G01X-63.7Y214.15
M16
G05
G00X-63.7Y186.15
M15
G01X-63.7Y183.85
M16
G05
G00X-63.7Y155.85
M15
G01X-63.7Y153.55
M16
G05
G00X-63.7Y125.55
M15
G01X-63.7Y123.25
M16
G05
G00X-63.7Y95.25
M15
G01X-63.7Y92.95
M16
G05
G00X-59.6Y302.35
M15
G01X-59.6Y300.05
M16
G05
G00X-59.6Y272.05
M15
G01X-59.6Y269.75
M16
G05
G00X-59.6Y241.75
M15
G01X-59.6Y239.45
M16
G05
G00X-59.6Y211.45
M15
G01X-59.6Y209.15
M16
G05
G00X-59.6Y181.15
M15
G01X-59.6Y178.85
M16
G05
G00X-59.6Y150.85
M15
G01X-59.6Y148.55
M16
G05
G00X-59.6Y120.55
M15
G01X-59.6Y118.25
M16
G05
G00X-59.6Y90.25
M15
G01X-59.6Y87.95
M16
G05
M30
