%TF.GenerationSoftware,KiCad,Pcbnew,9.0.1*%
%TF.CreationDate,2025-05-31T14:49:15+01:00*%
%TF.ProjectId,Button MIDI Controller,42757474-6f6e-4204-9d49-444920436f6e,rev?*%
%TF.SameCoordinates,Original*%
%TF.FileFunction,Soldermask,Top*%
%TF.FilePolarity,Negative*%
%FSLAX46Y46*%
G04 Gerber Fmt 4.6, Leading zero omitted, Abs format (unit mm)*
G04 Created by KiCad (PCBNEW 9.0.1) date 2025-05-31 14:49:15*
%MOMM*%
%LPD*%
G01*
G04 APERTURE LIST*
G04 Aperture macros list*
%AMRoundRect*
0 Rectangle with rounded corners*
0 $1 Rounding radius*
0 $2 $3 $4 $5 $6 $7 $8 $9 X,Y pos of 4 corners*
0 Add a 4 corners polygon primitive as box body*
4,1,4,$2,$3,$4,$5,$6,$7,$8,$9,$2,$3,0*
0 Add four circle primitives for the rounded corners*
1,1,$1+$1,$2,$3*
1,1,$1+$1,$4,$5*
1,1,$1+$1,$6,$7*
1,1,$1+$1,$8,$9*
0 Add four rect primitives between the rounded corners*
20,1,$1+$1,$2,$3,$4,$5,0*
20,1,$1+$1,$4,$5,$6,$7,0*
20,1,$1+$1,$6,$7,$8,$9,0*
20,1,$1+$1,$8,$9,$2,$3,0*%
G04 Aperture macros list end*
%ADD10R,0.700000X0.700000*%
%ADD11O,1.500000X3.800000*%
%ADD12C,4.700000*%
%ADD13C,7.500000*%
%ADD14RoundRect,0.102000X0.754000X-0.754000X0.754000X0.754000X-0.754000X0.754000X-0.754000X-0.754000X0*%
%ADD15C,1.712000*%
%ADD16C,2.154000*%
%ADD17C,3.800000*%
%ADD18O,0.550000X2.050000*%
%ADD19C,0.850000*%
G04 APERTURE END LIST*
D10*
%TO.C,D90*%
X-85317000Y266414000D03*
X-85317000Y265314000D03*
X-83487000Y265314000D03*
X-83487000Y266414000D03*
%TD*%
%TO.C,D114*%
X-249201000Y221224000D03*
X-249201000Y222324000D03*
X-251031000Y222324000D03*
X-251031000Y221224000D03*
%TD*%
%TO.C,D192*%
X-267117000Y84614000D03*
X-267117000Y83514000D03*
X-265287000Y83514000D03*
X-265287000Y84614000D03*
%TD*%
%TO.C,D109*%
X-176217000Y236114000D03*
X-176217000Y235014000D03*
X-174387000Y235014000D03*
X-174387000Y236114000D03*
%TD*%
D11*
%TO.C,MX12*%
X-180800000Y270900000D03*
X-184900000Y275900000D03*
%TD*%
D10*
%TO.C,D88*%
X-67401000Y281824000D03*
X-67401000Y282924000D03*
X-69231000Y282924000D03*
X-69231000Y281824000D03*
%TD*%
%TO.C,D120*%
X-67401000Y221224000D03*
X-67401000Y222324000D03*
X-69231000Y222324000D03*
X-69231000Y221224000D03*
%TD*%
%TO.C,D161*%
X-279501000Y130324000D03*
X-279501000Y131424000D03*
X-281331000Y131424000D03*
X-281331000Y130324000D03*
%TD*%
%TO.C,D89*%
X-55017000Y266414000D03*
X-55017000Y265314000D03*
X-53187000Y265314000D03*
X-53187000Y266414000D03*
%TD*%
D11*
%TO.C,MX51*%
X-211100000Y119400000D03*
X-215200000Y124400000D03*
%TD*%
%TO.C,MX22*%
X-120200000Y240600000D03*
X-124300000Y245600000D03*
%TD*%
D10*
%TO.C,D152*%
X-67401000Y160624000D03*
X-67401000Y161724000D03*
X-69231000Y161724000D03*
X-69231000Y160624000D03*
%TD*%
D12*
%TO.C,REF\u002A\u002A*%
X-50760000Y315420000D03*
D13*
X-50760000Y315420000D03*
%TD*%
D10*
%TO.C,D107*%
X-115617000Y236114000D03*
X-115617000Y235014000D03*
X-113787000Y235014000D03*
X-113787000Y236114000D03*
%TD*%
%TO.C,D137*%
X-55017000Y175514000D03*
X-55017000Y174414000D03*
X-53187000Y174414000D03*
X-53187000Y175514000D03*
%TD*%
D11*
%TO.C,MX4*%
X-180800000Y301200000D03*
X-184900000Y306200000D03*
%TD*%
D10*
%TO.C,D133*%
X-158301000Y190924000D03*
X-158301000Y192024000D03*
X-160131000Y192024000D03*
X-160131000Y190924000D03*
%TD*%
%TO.C,D113*%
X-279501000Y221224000D03*
X-279501000Y222324000D03*
X-281331000Y222324000D03*
X-281331000Y221224000D03*
%TD*%
%TO.C,D91*%
X-115617000Y266414000D03*
X-115617000Y265314000D03*
X-113787000Y265314000D03*
X-113787000Y266414000D03*
%TD*%
%TO.C,D84*%
X-188601000Y281824000D03*
X-188601000Y282924000D03*
X-190431000Y282924000D03*
X-190431000Y281824000D03*
%TD*%
D11*
%TO.C,MX2*%
X-241400000Y301200000D03*
X-245500000Y306200000D03*
%TD*%
D10*
%TO.C,D119*%
X-97701000Y221224000D03*
X-97701000Y222324000D03*
X-99531000Y222324000D03*
X-99531000Y221224000D03*
%TD*%
%TO.C,D174*%
X-206517000Y114914000D03*
X-206517000Y113814000D03*
X-204687000Y113814000D03*
X-204687000Y114914000D03*
%TD*%
%TO.C,D112*%
X-267117000Y236114000D03*
X-267117000Y235014000D03*
X-265287000Y235014000D03*
X-265287000Y236114000D03*
%TD*%
%TO.C,D160*%
X-267117000Y145214000D03*
X-267117000Y144114000D03*
X-265287000Y144114000D03*
X-265287000Y145214000D03*
%TD*%
%TO.C,D153*%
X-55017000Y145214000D03*
X-55017000Y144114000D03*
X-53187000Y144114000D03*
X-53187000Y145214000D03*
%TD*%
%TO.C,D92*%
X-145917000Y266414000D03*
X-145917000Y265314000D03*
X-144087000Y265314000D03*
X-144087000Y266414000D03*
%TD*%
%TO.C,D94*%
X-206517000Y266414000D03*
X-206517000Y265314000D03*
X-204687000Y265314000D03*
X-204687000Y266414000D03*
%TD*%
D12*
%TO.C,REF\u002A\u002A*%
X-100320000Y259260000D03*
D13*
X-100320000Y259260000D03*
%TD*%
D10*
%TO.C,D69*%
X-158301000Y312124000D03*
X-158301000Y313224000D03*
X-160131000Y313224000D03*
X-160131000Y312124000D03*
%TD*%
%TO.C,D188*%
X-145917000Y84614000D03*
X-145917000Y83514000D03*
X-144087000Y83514000D03*
X-144087000Y84614000D03*
%TD*%
%TO.C,D72*%
X-67401000Y312124000D03*
X-67401000Y313224000D03*
X-69231000Y313224000D03*
X-69231000Y312124000D03*
%TD*%
D11*
%TO.C,MX46*%
X-120200000Y149700000D03*
X-124300000Y154700000D03*
%TD*%
%TO.C,MX55*%
X-89900000Y119400000D03*
X-94000000Y124400000D03*
%TD*%
D10*
%TO.C,D130*%
X-249201000Y190924000D03*
X-249201000Y192024000D03*
X-251031000Y192024000D03*
X-251031000Y190924000D03*
%TD*%
D11*
%TO.C,MX56*%
X-59600000Y119400000D03*
X-63700000Y124400000D03*
%TD*%
D14*
%TO.C,S2*%
X-55880000Y261002000D03*
D15*
X-55880000Y256502000D03*
D16*
X-58380000Y262252000D03*
X-58380000Y255252000D03*
%TD*%
D10*
%TO.C,D132*%
X-188601000Y190924000D03*
X-188601000Y192024000D03*
X-190431000Y192024000D03*
X-190431000Y190924000D03*
%TD*%
%TO.C,D175*%
X-236817000Y114914000D03*
X-236817000Y113814000D03*
X-234987000Y113814000D03*
X-234987000Y114914000D03*
%TD*%
D11*
%TO.C,MX48*%
X-59600000Y149700000D03*
X-63700000Y154700000D03*
%TD*%
D14*
%TO.C,S1*%
X-55880000Y291302000D03*
D15*
X-55880000Y286802000D03*
D16*
X-58380000Y292552000D03*
X-58380000Y285552000D03*
%TD*%
D10*
%TO.C,D66*%
X-249201000Y312124000D03*
X-249201000Y313224000D03*
X-251031000Y313224000D03*
X-251031000Y312124000D03*
%TD*%
D11*
%TO.C,MX40*%
X-59600000Y180000000D03*
X-63700000Y185000000D03*
%TD*%
D10*
%TO.C,D95*%
X-236817000Y266414000D03*
X-236817000Y265314000D03*
X-234987000Y265314000D03*
X-234987000Y266414000D03*
%TD*%
D11*
%TO.C,MX47*%
X-89900000Y149700000D03*
X-94000000Y154700000D03*
%TD*%
D10*
%TO.C,D186*%
X-85317000Y84614000D03*
X-85317000Y83514000D03*
X-83487000Y83514000D03*
X-83487000Y84614000D03*
%TD*%
%TO.C,D77*%
X-176217000Y296714000D03*
X-176217000Y295614000D03*
X-174387000Y295614000D03*
X-174387000Y296714000D03*
%TD*%
%TO.C,D80*%
X-267117000Y296714000D03*
X-267117000Y295614000D03*
X-265287000Y295614000D03*
X-265287000Y296714000D03*
%TD*%
%TO.C,D129*%
X-279501000Y190924000D03*
X-279501000Y192024000D03*
X-281331000Y192024000D03*
X-281331000Y190924000D03*
%TD*%
%TO.C,D158*%
X-206517000Y145214000D03*
X-206517000Y144114000D03*
X-204687000Y144114000D03*
X-204687000Y145214000D03*
%TD*%
%TO.C,D148*%
X-188601000Y160624000D03*
X-188601000Y161724000D03*
X-190431000Y161724000D03*
X-190431000Y160624000D03*
%TD*%
D11*
%TO.C,MX42*%
X-241400000Y149700000D03*
X-245500000Y154700000D03*
%TD*%
D10*
%TO.C,D187*%
X-115617000Y84614000D03*
X-115617000Y83514000D03*
X-113787000Y83514000D03*
X-113787000Y84614000D03*
%TD*%
%TO.C,D110*%
X-206517000Y236114000D03*
X-206517000Y235014000D03*
X-204687000Y235014000D03*
X-204687000Y236114000D03*
%TD*%
D11*
%TO.C,MX53*%
X-150500000Y119400000D03*
X-154600000Y124400000D03*
%TD*%
D10*
%TO.C,D177*%
X-279501000Y100024000D03*
X-279501000Y101124000D03*
X-281331000Y101124000D03*
X-281331000Y100024000D03*
%TD*%
%TO.C,D154*%
X-85317000Y145214000D03*
X-85317000Y144114000D03*
X-83487000Y144114000D03*
X-83487000Y145214000D03*
%TD*%
%TO.C,D100*%
X-188601000Y251524000D03*
X-188601000Y252624000D03*
X-190431000Y252624000D03*
X-190431000Y251524000D03*
%TD*%
D11*
%TO.C,MX38*%
X-120200000Y180000000D03*
X-124300000Y185000000D03*
%TD*%
D10*
%TO.C,D134*%
X-128001000Y190924000D03*
X-128001000Y192024000D03*
X-129831000Y192024000D03*
X-129831000Y190924000D03*
%TD*%
%TO.C,D151*%
X-97701000Y160624000D03*
X-97701000Y161724000D03*
X-99531000Y161724000D03*
X-99531000Y160624000D03*
%TD*%
D11*
%TO.C,MX37*%
X-150500000Y180000000D03*
X-154600000Y185000000D03*
%TD*%
%TO.C,MX61*%
X-150500000Y89100000D03*
X-154600000Y94100000D03*
%TD*%
D14*
%TO.C,S5*%
X-55880000Y170102000D03*
D15*
X-55880000Y165602000D03*
D16*
X-58380000Y171352000D03*
X-58380000Y164352000D03*
%TD*%
D10*
%TO.C,D126*%
X-206517000Y205814000D03*
X-206517000Y204714000D03*
X-204687000Y204714000D03*
X-204687000Y205814000D03*
%TD*%
%TO.C,D139*%
X-115617000Y175514000D03*
X-115617000Y174414000D03*
X-113787000Y174414000D03*
X-113787000Y175514000D03*
%TD*%
%TO.C,D103*%
X-97701000Y251524000D03*
X-97701000Y252624000D03*
X-99531000Y252624000D03*
X-99531000Y251524000D03*
%TD*%
%TO.C,D106*%
X-85317000Y236114000D03*
X-85317000Y235014000D03*
X-83487000Y235014000D03*
X-83487000Y236114000D03*
%TD*%
%TO.C,D87*%
X-97701000Y281824000D03*
X-97701000Y282924000D03*
X-99531000Y282924000D03*
X-99531000Y281824000D03*
%TD*%
%TO.C,D184*%
X-67401000Y100024000D03*
X-67401000Y101124000D03*
X-69231000Y101124000D03*
X-69231000Y100024000D03*
%TD*%
%TO.C,D65*%
X-279501000Y312124000D03*
X-279501000Y313224000D03*
X-281331000Y313224000D03*
X-281331000Y312124000D03*
%TD*%
D12*
%TO.C,REF\u002A\u002A*%
X-222420000Y259010000D03*
D13*
X-222420000Y259010000D03*
%TD*%
D14*
%TO.C,S3*%
X-55880000Y230702000D03*
D15*
X-55880000Y226202000D03*
D16*
X-58380000Y231952000D03*
X-58380000Y224952000D03*
%TD*%
D12*
%TO.C,REF\u002A\u002A*%
X-286430000Y183240000D03*
D13*
X-286430000Y183240000D03*
%TD*%
D10*
%TO.C,D99*%
X-218901000Y251524000D03*
X-218901000Y252624000D03*
X-220731000Y252624000D03*
X-220731000Y251524000D03*
%TD*%
%TO.C,D165*%
X-158301000Y130324000D03*
X-158301000Y131424000D03*
X-160131000Y131424000D03*
X-160131000Y130324000D03*
%TD*%
%TO.C,D156*%
X-145917000Y145214000D03*
X-145917000Y144114000D03*
X-144087000Y144114000D03*
X-144087000Y145214000D03*
%TD*%
%TO.C,D75*%
X-115617000Y296714000D03*
X-115617000Y295614000D03*
X-113787000Y295614000D03*
X-113787000Y296714000D03*
%TD*%
D11*
%TO.C,MX52*%
X-180800000Y119400000D03*
X-184900000Y124400000D03*
%TD*%
D12*
%TO.C,REF\u002A\u002A*%
X-162720000Y259720000D03*
D13*
X-162720000Y259720000D03*
%TD*%
D12*
%TO.C,REF\u002A\u002A*%
X-165660000Y210150000D03*
D13*
X-165660000Y210150000D03*
%TD*%
D11*
%TO.C,MX50*%
X-241400000Y119400000D03*
X-245500000Y124400000D03*
%TD*%
D10*
%TO.C,D164*%
X-188601000Y130324000D03*
X-188601000Y131424000D03*
X-190431000Y131424000D03*
X-190431000Y130324000D03*
%TD*%
D11*
%TO.C,MX14*%
X-120200000Y270900000D03*
X-124300000Y275900000D03*
%TD*%
D10*
%TO.C,D168*%
X-67401000Y130324000D03*
X-67401000Y131424000D03*
X-69231000Y131424000D03*
X-69231000Y130324000D03*
%TD*%
%TO.C,D190*%
X-206517000Y84614000D03*
X-206517000Y83514000D03*
X-204687000Y83514000D03*
X-204687000Y84614000D03*
%TD*%
%TO.C,D82*%
X-249201000Y281824000D03*
X-249201000Y282924000D03*
X-251031000Y282924000D03*
X-251031000Y281824000D03*
%TD*%
%TO.C,D70*%
X-128001000Y312124000D03*
X-128001000Y313224000D03*
X-129831000Y313224000D03*
X-129831000Y312124000D03*
%TD*%
%TO.C,D122*%
X-85317000Y205814000D03*
X-85317000Y204714000D03*
X-83487000Y204714000D03*
X-83487000Y205814000D03*
%TD*%
D11*
%TO.C,MX8*%
X-59600000Y301200000D03*
X-63700000Y306200000D03*
%TD*%
D10*
%TO.C,D101*%
X-158301000Y251524000D03*
X-158301000Y252624000D03*
X-160131000Y252624000D03*
X-160131000Y251524000D03*
%TD*%
%TO.C,D185*%
X-55017000Y84614000D03*
X-55017000Y83514000D03*
X-53187000Y83514000D03*
X-53187000Y84614000D03*
%TD*%
%TO.C,D163*%
X-218901000Y130324000D03*
X-218901000Y131424000D03*
X-220731000Y131424000D03*
X-220731000Y130324000D03*
%TD*%
D11*
%TO.C,MX45*%
X-150500000Y149700000D03*
X-154600000Y154700000D03*
%TD*%
D10*
%TO.C,D83*%
X-218901000Y281824000D03*
X-218901000Y282924000D03*
X-220731000Y282924000D03*
X-220731000Y281824000D03*
%TD*%
D11*
%TO.C,MX5*%
X-150500000Y301200000D03*
X-154600000Y306200000D03*
%TD*%
%TO.C,MX6*%
X-120200000Y301200000D03*
X-124300000Y306200000D03*
%TD*%
D10*
%TO.C,D150*%
X-128001000Y160624000D03*
X-128001000Y161724000D03*
X-129831000Y161724000D03*
X-129831000Y160624000D03*
%TD*%
D12*
%TO.C,REF\u002A\u002A*%
X-49480000Y80180000D03*
D13*
X-49480000Y80180000D03*
%TD*%
D10*
%TO.C,D71*%
X-97701000Y312124000D03*
X-97701000Y313224000D03*
X-99531000Y313224000D03*
X-99531000Y312124000D03*
%TD*%
%TO.C,D182*%
X-128001000Y100024000D03*
X-128001000Y101124000D03*
X-129831000Y101124000D03*
X-129831000Y100024000D03*
%TD*%
%TO.C,D115*%
X-218901000Y221224000D03*
X-218901000Y222324000D03*
X-220731000Y222324000D03*
X-220731000Y221224000D03*
%TD*%
%TO.C,D81*%
X-279501000Y281824000D03*
X-279501000Y282924000D03*
X-281331000Y282924000D03*
X-281331000Y281824000D03*
%TD*%
%TO.C,D191*%
X-236817000Y84614000D03*
X-236817000Y83514000D03*
X-234987000Y83514000D03*
X-234987000Y84614000D03*
%TD*%
D11*
%TO.C,MX57*%
X-271700000Y89100000D03*
X-275800000Y94100000D03*
%TD*%
D10*
%TO.C,D135*%
X-97701000Y190924000D03*
X-97701000Y192024000D03*
X-99531000Y192024000D03*
X-99531000Y190924000D03*
%TD*%
D11*
%TO.C,MX17*%
X-271700000Y240600000D03*
X-275800000Y245600000D03*
%TD*%
D10*
%TO.C,D178*%
X-249201000Y100024000D03*
X-249201000Y101124000D03*
X-251031000Y101124000D03*
X-251031000Y100024000D03*
%TD*%
%TO.C,D98*%
X-249201000Y251524000D03*
X-249201000Y252624000D03*
X-251031000Y252624000D03*
X-251031000Y251524000D03*
%TD*%
D11*
%TO.C,MX15*%
X-89900000Y270900000D03*
X-94000000Y275900000D03*
%TD*%
%TO.C,MX36*%
X-180800000Y180000000D03*
X-184900000Y185000000D03*
%TD*%
%TO.C,MX29*%
X-150500000Y210300000D03*
X-154600000Y215300000D03*
%TD*%
D12*
%TO.C,REF\u002A\u002A*%
X-237040000Y167720000D03*
D13*
X-237040000Y167720000D03*
%TD*%
D10*
%TO.C,D125*%
X-176217000Y205814000D03*
X-176217000Y204714000D03*
X-174387000Y204714000D03*
X-174387000Y205814000D03*
%TD*%
%TO.C,D170*%
X-85317000Y114914000D03*
X-85317000Y113814000D03*
X-83487000Y113814000D03*
X-83487000Y114914000D03*
%TD*%
%TO.C,D96*%
X-267117000Y266414000D03*
X-267117000Y265314000D03*
X-265287000Y265314000D03*
X-265287000Y266414000D03*
%TD*%
%TO.C,D173*%
X-176217000Y114914000D03*
X-176217000Y113814000D03*
X-174387000Y113814000D03*
X-174387000Y114914000D03*
%TD*%
D11*
%TO.C,MX64*%
X-59600000Y89100000D03*
X-63700000Y94100000D03*
%TD*%
%TO.C,MX21*%
X-150500000Y240600000D03*
X-154600000Y245600000D03*
%TD*%
D10*
%TO.C,D167*%
X-97701000Y130324000D03*
X-97701000Y131424000D03*
X-99531000Y131424000D03*
X-99531000Y130324000D03*
%TD*%
D11*
%TO.C,MX18*%
X-241400000Y240600000D03*
X-245500000Y245600000D03*
%TD*%
D10*
%TO.C,D169*%
X-55017000Y114914000D03*
X-55017000Y113814000D03*
X-53187000Y113814000D03*
X-53187000Y114914000D03*
%TD*%
D11*
%TO.C,MX13*%
X-150500000Y270900000D03*
X-154600000Y275900000D03*
%TD*%
D10*
%TO.C,D179*%
X-218901000Y100024000D03*
X-218901000Y101124000D03*
X-220731000Y101124000D03*
X-220731000Y100024000D03*
%TD*%
%TO.C,D105*%
X-55017000Y236114000D03*
X-55017000Y235014000D03*
X-53187000Y235014000D03*
X-53187000Y236114000D03*
%TD*%
D11*
%TO.C,MX23*%
X-89900000Y240600000D03*
X-94000000Y245600000D03*
%TD*%
D17*
%TO.C,REF\u002A\u002A*%
X-46736000Y182372000D03*
%TD*%
D10*
%TO.C,D108*%
X-145917000Y236114000D03*
X-145917000Y235014000D03*
X-144087000Y235014000D03*
X-144087000Y236114000D03*
%TD*%
D11*
%TO.C,MX43*%
X-211100000Y149700000D03*
X-215200000Y154700000D03*
%TD*%
D12*
%TO.C,REF\u002A\u002A*%
X-85540000Y167600000D03*
D13*
X-85540000Y167600000D03*
%TD*%
D11*
%TO.C,MX35*%
X-211100000Y180000000D03*
X-215200000Y185000000D03*
%TD*%
D10*
%TO.C,D176*%
X-267117000Y114914000D03*
X-267117000Y113814000D03*
X-265287000Y113814000D03*
X-265287000Y114914000D03*
%TD*%
%TO.C,D79*%
X-236817000Y296714000D03*
X-236817000Y295614000D03*
X-234987000Y295614000D03*
X-234987000Y296714000D03*
%TD*%
D11*
%TO.C,MX24*%
X-59600000Y240600000D03*
X-63700000Y245600000D03*
%TD*%
D10*
%TO.C,D123*%
X-115617000Y205814000D03*
X-115617000Y204714000D03*
X-113787000Y204714000D03*
X-113787000Y205814000D03*
%TD*%
D11*
%TO.C,MX62*%
X-120200000Y89100000D03*
X-124300000Y94100000D03*
%TD*%
D10*
%TO.C,D85*%
X-158301000Y281824000D03*
X-158301000Y282924000D03*
X-160131000Y282924000D03*
X-160131000Y281824000D03*
%TD*%
%TO.C,D143*%
X-236817000Y175514000D03*
X-236817000Y174414000D03*
X-234987000Y174414000D03*
X-234987000Y175514000D03*
%TD*%
D11*
%TO.C,MX34*%
X-241400000Y180000000D03*
X-245500000Y185000000D03*
%TD*%
D10*
%TO.C,D136*%
X-67401000Y190924000D03*
X-67401000Y192024000D03*
X-69231000Y192024000D03*
X-69231000Y190924000D03*
%TD*%
%TO.C,D166*%
X-128001000Y130324000D03*
X-128001000Y131424000D03*
X-129831000Y131424000D03*
X-129831000Y130324000D03*
%TD*%
D11*
%TO.C,MX49*%
X-271700000Y119400000D03*
X-275800000Y124400000D03*
%TD*%
D10*
%TO.C,D142*%
X-206517000Y175514000D03*
X-206517000Y174414000D03*
X-204687000Y174414000D03*
X-204687000Y175514000D03*
%TD*%
%TO.C,D76*%
X-145917000Y296714000D03*
X-145917000Y295614000D03*
X-144087000Y295614000D03*
X-144087000Y296714000D03*
%TD*%
D11*
%TO.C,MX19*%
X-211100000Y240600000D03*
X-215200000Y245600000D03*
%TD*%
D10*
%TO.C,D145*%
X-279501000Y160624000D03*
X-279501000Y161724000D03*
X-281331000Y161724000D03*
X-281331000Y160624000D03*
%TD*%
%TO.C,D78*%
X-206517000Y296714000D03*
X-206517000Y295614000D03*
X-204687000Y295614000D03*
X-204687000Y296714000D03*
%TD*%
%TO.C,D149*%
X-158301000Y160624000D03*
X-158301000Y161724000D03*
X-160131000Y161724000D03*
X-160131000Y160624000D03*
%TD*%
D11*
%TO.C,MX3*%
X-211100000Y301200000D03*
X-215200000Y306200000D03*
%TD*%
%TO.C,MX1*%
X-271700000Y301200000D03*
X-275800000Y306200000D03*
%TD*%
%TO.C,MX32*%
X-59600000Y210300000D03*
X-63700000Y215300000D03*
%TD*%
D10*
%TO.C,D121*%
X-55017000Y205814000D03*
X-55017000Y204714000D03*
X-53187000Y204714000D03*
X-53187000Y205814000D03*
%TD*%
D12*
%TO.C,REF\u002A\u002A*%
X-167780000Y79980000D03*
D13*
X-167780000Y79980000D03*
%TD*%
D10*
%TO.C,D116*%
X-188601000Y221224000D03*
X-188601000Y222324000D03*
X-190431000Y222324000D03*
X-190431000Y221224000D03*
%TD*%
%TO.C,D146*%
X-249201000Y160624000D03*
X-249201000Y161724000D03*
X-251031000Y161724000D03*
X-251031000Y160624000D03*
%TD*%
%TO.C,D74*%
X-85317000Y296714000D03*
X-85317000Y295614000D03*
X-83487000Y295614000D03*
X-83487000Y296714000D03*
%TD*%
%TO.C,D147*%
X-218901000Y160624000D03*
X-218901000Y161724000D03*
X-220731000Y161724000D03*
X-220731000Y160624000D03*
%TD*%
%TO.C,D86*%
X-128001000Y281824000D03*
X-128001000Y282924000D03*
X-129831000Y282924000D03*
X-129831000Y281824000D03*
%TD*%
D14*
%TO.C,S6*%
X-55880000Y139802000D03*
D15*
X-55880000Y135302000D03*
D16*
X-58380000Y141052000D03*
X-58380000Y134052000D03*
%TD*%
D11*
%TO.C,MX9*%
X-271700000Y270900000D03*
X-275800000Y275900000D03*
%TD*%
D10*
%TO.C,D127*%
X-236817000Y205814000D03*
X-236817000Y204714000D03*
X-234987000Y204714000D03*
X-234987000Y205814000D03*
%TD*%
%TO.C,D183*%
X-97701000Y100024000D03*
X-97701000Y101124000D03*
X-99531000Y101124000D03*
X-99531000Y100024000D03*
%TD*%
D12*
%TO.C,REF\u002A\u002A*%
X-163130000Y137880000D03*
D13*
X-163130000Y137880000D03*
%TD*%
D10*
%TO.C,D172*%
X-145917000Y114914000D03*
X-145917000Y113814000D03*
X-144087000Y113814000D03*
X-144087000Y114914000D03*
%TD*%
D11*
%TO.C,MX60*%
X-180800000Y89100000D03*
X-184900000Y94100000D03*
%TD*%
D10*
%TO.C,D97*%
X-279501000Y251524000D03*
X-279501000Y252624000D03*
X-281331000Y252624000D03*
X-281331000Y251524000D03*
%TD*%
%TO.C,D111*%
X-236817000Y236114000D03*
X-236817000Y235014000D03*
X-234987000Y235014000D03*
X-234987000Y236114000D03*
%TD*%
%TO.C,D180*%
X-188601000Y100024000D03*
X-188601000Y101124000D03*
X-190431000Y101124000D03*
X-190431000Y100024000D03*
%TD*%
%TO.C,D93*%
X-176217000Y266414000D03*
X-176217000Y265314000D03*
X-174387000Y265314000D03*
X-174387000Y266414000D03*
%TD*%
%TO.C,D131*%
X-218901000Y190924000D03*
X-218901000Y192024000D03*
X-220731000Y192024000D03*
X-220731000Y190924000D03*
%TD*%
%TO.C,D159*%
X-236817000Y145214000D03*
X-236817000Y144114000D03*
X-234987000Y144114000D03*
X-234987000Y145214000D03*
%TD*%
%TO.C,D118*%
X-128001000Y221224000D03*
X-128001000Y222324000D03*
X-129831000Y222324000D03*
X-129831000Y221224000D03*
%TD*%
D11*
%TO.C,MX27*%
X-211100000Y210300000D03*
X-215200000Y215300000D03*
%TD*%
D10*
%TO.C,D117*%
X-158301000Y221224000D03*
X-158301000Y222324000D03*
X-160131000Y222324000D03*
X-160131000Y221224000D03*
%TD*%
D11*
%TO.C,MX54*%
X-120200000Y119400000D03*
X-124300000Y124400000D03*
%TD*%
D10*
%TO.C,D157*%
X-176217000Y145214000D03*
X-176217000Y144114000D03*
X-174387000Y144114000D03*
X-174387000Y145214000D03*
%TD*%
%TO.C,D67*%
X-218901000Y312124000D03*
X-218901000Y313224000D03*
X-220731000Y313224000D03*
X-220731000Y312124000D03*
%TD*%
D11*
%TO.C,MX58*%
X-241400000Y89100000D03*
X-245500000Y94100000D03*
%TD*%
%TO.C,MX33*%
X-271700000Y180000000D03*
X-275800000Y185000000D03*
%TD*%
%TO.C,MX16*%
X-59600000Y270900000D03*
X-63700000Y275900000D03*
%TD*%
D10*
%TO.C,D189*%
X-176217000Y84614000D03*
X-176217000Y83514000D03*
X-174387000Y83514000D03*
X-174387000Y84614000D03*
%TD*%
%TO.C,D73*%
X-55017000Y296714000D03*
X-55017000Y295614000D03*
X-53187000Y295614000D03*
X-53187000Y296714000D03*
%TD*%
D14*
%TO.C,S4*%
X-55880000Y200402000D03*
D15*
X-55880000Y195902000D03*
D16*
X-58380000Y201652000D03*
X-58380000Y194652000D03*
%TD*%
D11*
%TO.C,MX30*%
X-120200000Y210300000D03*
X-124300000Y215300000D03*
%TD*%
%TO.C,MX7*%
X-89900000Y301200000D03*
X-94000000Y306200000D03*
%TD*%
D14*
%TO.C,S7*%
X-55880000Y109502000D03*
D15*
X-55880000Y105002000D03*
D16*
X-58380000Y110752000D03*
X-58380000Y103752000D03*
%TD*%
D11*
%TO.C,MX28*%
X-180800000Y210300000D03*
X-184900000Y215300000D03*
%TD*%
D10*
%TO.C,D171*%
X-115617000Y114914000D03*
X-115617000Y113814000D03*
X-113787000Y113814000D03*
X-113787000Y114914000D03*
%TD*%
%TO.C,D141*%
X-176217000Y175514000D03*
X-176217000Y174414000D03*
X-174387000Y174414000D03*
X-174387000Y175514000D03*
%TD*%
D11*
%TO.C,MX26*%
X-241400000Y210300000D03*
X-245500000Y215300000D03*
%TD*%
%TO.C,MX63*%
X-89900000Y89100000D03*
X-94000000Y94100000D03*
%TD*%
%TO.C,MX44*%
X-180800000Y149700000D03*
X-184900000Y154700000D03*
%TD*%
%TO.C,MX39*%
X-89900000Y180000000D03*
X-94000000Y185000000D03*
%TD*%
%TO.C,MX20*%
X-180800000Y240600000D03*
X-184900000Y245600000D03*
%TD*%
D12*
%TO.C,REF\u002A\u002A*%
X-285470000Y316470000D03*
D13*
X-285470000Y316470000D03*
%TD*%
D10*
%TO.C,D162*%
X-249201000Y130324000D03*
X-249201000Y131424000D03*
X-251031000Y131424000D03*
X-251031000Y130324000D03*
%TD*%
D12*
%TO.C,REF\u002A\u002A*%
X-284640000Y81220000D03*
D13*
X-284640000Y81220000D03*
%TD*%
D11*
%TO.C,MX25*%
X-271700000Y210300000D03*
X-275800000Y215300000D03*
%TD*%
D10*
%TO.C,D144*%
X-267117000Y175514000D03*
X-267117000Y174414000D03*
X-265287000Y174414000D03*
X-265287000Y175514000D03*
%TD*%
D11*
%TO.C,MX59*%
X-211100000Y89100000D03*
X-215200000Y94100000D03*
%TD*%
D10*
%TO.C,D181*%
X-158301000Y100024000D03*
X-158301000Y101124000D03*
X-160131000Y101124000D03*
X-160131000Y100024000D03*
%TD*%
D11*
%TO.C,MX41*%
X-271700000Y149700000D03*
X-275800000Y154700000D03*
%TD*%
%TO.C,MX31*%
X-89900000Y210300000D03*
X-94000000Y215300000D03*
%TD*%
D10*
%TO.C,D102*%
X-128001000Y251524000D03*
X-128001000Y252624000D03*
X-129831000Y252624000D03*
X-129831000Y251524000D03*
%TD*%
%TO.C,D104*%
X-67401000Y251524000D03*
X-67401000Y252624000D03*
X-69231000Y252624000D03*
X-69231000Y251524000D03*
%TD*%
D11*
%TO.C,MX10*%
X-241400000Y270900000D03*
X-245500000Y275900000D03*
%TD*%
%TO.C,MX11*%
X-211100000Y270900000D03*
X-215200000Y275900000D03*
%TD*%
D10*
%TO.C,D68*%
X-188601000Y312124000D03*
X-188601000Y313224000D03*
X-190431000Y313224000D03*
X-190431000Y312124000D03*
%TD*%
%TO.C,D155*%
X-115617000Y145214000D03*
X-115617000Y144114000D03*
X-113787000Y144114000D03*
X-113787000Y145214000D03*
%TD*%
%TO.C,D124*%
X-145917000Y205814000D03*
X-145917000Y204714000D03*
X-144087000Y204714000D03*
X-144087000Y205814000D03*
%TD*%
%TO.C,D138*%
X-85317000Y175514000D03*
X-85317000Y174414000D03*
X-83487000Y174414000D03*
X-83487000Y175514000D03*
%TD*%
%TO.C,D140*%
X-145917000Y175514000D03*
X-145917000Y174414000D03*
X-144087000Y174414000D03*
X-144087000Y175514000D03*
%TD*%
%TO.C,D128*%
X-267117000Y205814000D03*
X-267117000Y204714000D03*
X-265287000Y204714000D03*
X-265287000Y205814000D03*
%TD*%
D18*
%TO.C,J2*%
X-172685000Y319568000D03*
D19*
X-172685000Y316588000D03*
D18*
X-163495000Y319568000D03*
D19*
X-163495000Y316588000D03*
%TD*%
M02*
