%TF.GenerationSoftware,KiCad,Pcbnew,9.0.1*%
%TF.CreationDate,2025-06-02T12:16:08+01:00*%
%TF.ProjectId,Button MIDI Controller,42757474-6f6e-4204-9d49-444920436f6e,rev?*%
%TF.SameCoordinates,Original*%
%TF.FileFunction,Paste,Top*%
%TF.FilePolarity,Positive*%
%FSLAX46Y46*%
G04 Gerber Fmt 4.6, Leading zero omitted, Abs format (unit mm)*
G04 Created by KiCad (PCBNEW 9.0.1) date 2025-06-02 12:16:08*
%MOMM*%
%LPD*%
G01*
G04 APERTURE LIST*
G04 Aperture macros list*
%AMRoundRect*
0 Rectangle with rounded corners*
0 $1 Rounding radius*
0 $2 $3 $4 $5 $6 $7 $8 $9 X,Y pos of 4 corners*
0 Add a 4 corners polygon primitive as box body*
4,1,4,$2,$3,$4,$5,$6,$7,$8,$9,$2,$3,0*
0 Add four circle primitives for the rounded corners*
1,1,$1+$1,$2,$3*
1,1,$1+$1,$4,$5*
1,1,$1+$1,$6,$7*
1,1,$1+$1,$8,$9*
0 Add four rect primitives between the rounded corners*
20,1,$1+$1,$2,$3,$4,$5,0*
20,1,$1+$1,$4,$5,$6,$7,0*
20,1,$1+$1,$6,$7,$8,$9,0*
20,1,$1+$1,$8,$9,$2,$3,0*%
G04 Aperture macros list end*
%ADD10C,0.010000*%
%ADD11R,0.700000X0.700000*%
%ADD12RoundRect,0.225000X0.375000X-0.225000X0.375000X0.225000X-0.375000X0.225000X-0.375000X-0.225000X0*%
%ADD13RoundRect,0.225000X-0.375000X0.225000X-0.375000X-0.225000X0.375000X-0.225000X0.375000X0.225000X0*%
%ADD14RoundRect,0.140000X0.140000X0.170000X-0.140000X0.170000X-0.140000X-0.170000X0.140000X-0.170000X0*%
%ADD15RoundRect,0.140000X-0.170000X0.140000X-0.170000X-0.140000X0.170000X-0.140000X0.170000X0.140000X0*%
%ADD16RoundRect,0.250000X-0.292217X0.292217X-0.292217X-0.292217X0.292217X-0.292217X0.292217X0.292217X0*%
%ADD17RoundRect,0.050000X-0.050000X0.387500X-0.050000X-0.387500X0.050000X-0.387500X0.050000X0.387500X0*%
%ADD18RoundRect,0.050000X-0.387500X0.050000X-0.387500X-0.050000X0.387500X-0.050000X0.387500X0.050000X0*%
%ADD19RoundRect,0.135000X-0.185000X0.135000X-0.185000X-0.135000X0.185000X-0.135000X0.185000X0.135000X0*%
%ADD20RoundRect,0.140000X-0.140000X-0.170000X0.140000X-0.170000X0.140000X0.170000X-0.140000X0.170000X0*%
%ADD21R,0.900000X0.800000*%
%ADD22RoundRect,0.135000X-0.135000X-0.185000X0.135000X-0.185000X0.135000X0.185000X-0.135000X0.185000X0*%
%ADD23R,0.600000X1.750000*%
%ADD24RoundRect,0.150000X0.512500X0.150000X-0.512500X0.150000X-0.512500X-0.150000X0.512500X-0.150000X0*%
%ADD25RoundRect,0.135000X0.135000X0.185000X-0.135000X0.185000X-0.135000X-0.185000X0.135000X-0.185000X0*%
%ADD26RoundRect,0.150000X-0.512500X-0.150000X0.512500X-0.150000X0.512500X0.150000X-0.512500X0.150000X0*%
%ADD27RoundRect,0.055000X-0.165000X0.465000X-0.165000X-0.465000X0.165000X-0.465000X0.165000X0.465000X0*%
%ADD28RoundRect,0.070000X0.070000X0.345000X-0.070000X0.345000X-0.070000X-0.345000X0.070000X-0.345000X0*%
%ADD29RoundRect,0.112500X0.112500X0.302500X-0.112500X0.302500X-0.112500X-0.302500X0.112500X-0.302500X0*%
%ADD30RoundRect,0.250000X-0.625000X0.375000X-0.625000X-0.375000X0.625000X-0.375000X0.625000X0.375000X0*%
%ADD31RoundRect,0.135000X0.185000X-0.135000X0.185000X0.135000X-0.185000X0.135000X-0.185000X-0.135000X0*%
%ADD32RoundRect,0.140000X0.170000X-0.140000X0.170000X0.140000X-0.170000X0.140000X-0.170000X-0.140000X0*%
G04 APERTURE END LIST*
D10*
%TO.C,U2*%
X-157840000Y303420000D02*
X-160560000Y303420000D01*
X-160560000Y305580000D01*
X-157840000Y305580000D01*
X-157840000Y303420000D01*
G36*
X-157840000Y303420000D02*
G01*
X-160560000Y303420000D01*
X-160560000Y305580000D01*
X-157840000Y305580000D01*
X-157840000Y303420000D01*
G37*
%TD*%
D11*
%TO.C,D90*%
X-85317000Y266414000D03*
X-85317000Y265314000D03*
X-83487000Y265314000D03*
X-83487000Y266414000D03*
%TD*%
D12*
%TO.C,D40*%
X-63970000Y172720000D03*
X-63970000Y176020000D03*
%TD*%
D13*
%TO.C,D198*%
X-62090000Y139230000D03*
X-62090000Y135930000D03*
%TD*%
D12*
%TO.C,D30*%
X-124690000Y202880000D03*
X-124690000Y206180000D03*
%TD*%
D11*
%TO.C,D114*%
X-249201000Y221224000D03*
X-249201000Y222324000D03*
X-251031000Y222324000D03*
X-251031000Y221224000D03*
%TD*%
%TO.C,D192*%
X-267117000Y84614000D03*
X-267117000Y83514000D03*
X-265287000Y83514000D03*
X-265287000Y84614000D03*
%TD*%
%TO.C,D109*%
X-176217000Y236114000D03*
X-176217000Y235014000D03*
X-174387000Y235014000D03*
X-174387000Y236114000D03*
%TD*%
%TO.C,D88*%
X-67401000Y281824000D03*
X-67401000Y282924000D03*
X-69231000Y282924000D03*
X-69231000Y281824000D03*
%TD*%
D12*
%TO.C,D20*%
X-185210000Y232710000D03*
X-185210000Y236010000D03*
%TD*%
D11*
%TO.C,D120*%
X-67401000Y221224000D03*
X-67401000Y222324000D03*
X-69231000Y222324000D03*
X-69231000Y221224000D03*
%TD*%
D12*
%TO.C,D18*%
X-245820000Y233800000D03*
X-245820000Y237100000D03*
%TD*%
D11*
%TO.C,D161*%
X-279501000Y130324000D03*
X-279501000Y131424000D03*
X-281331000Y131424000D03*
X-281331000Y130324000D03*
%TD*%
%TO.C,D89*%
X-55017000Y266414000D03*
X-55017000Y265314000D03*
X-53187000Y265314000D03*
X-53187000Y266414000D03*
%TD*%
D12*
%TO.C,D26*%
X-245810000Y202780000D03*
X-245810000Y206080000D03*
%TD*%
%TO.C,D49*%
X-276080000Y111130000D03*
X-276080000Y114430000D03*
%TD*%
%TO.C,D38*%
X-124620000Y172620000D03*
X-124620000Y175920000D03*
%TD*%
D13*
%TO.C,D194*%
X-62320000Y261357500D03*
X-62320000Y258057500D03*
%TD*%
D12*
%TO.C,D29*%
X-154950000Y202910000D03*
X-154950000Y206210000D03*
%TD*%
%TO.C,D59*%
X-215600000Y81540000D03*
X-215600000Y84840000D03*
%TD*%
%TO.C,D62*%
X-124670000Y81500000D03*
X-124670000Y84800000D03*
%TD*%
%TO.C,D60*%
X-185250000Y81630000D03*
X-185250000Y84930000D03*
%TD*%
D11*
%TO.C,D152*%
X-67401000Y160624000D03*
X-67401000Y161724000D03*
X-69231000Y161724000D03*
X-69231000Y160624000D03*
%TD*%
D12*
%TO.C,D25*%
X-276080000Y202030000D03*
X-276080000Y205330000D03*
%TD*%
D11*
%TO.C,D107*%
X-115617000Y236114000D03*
X-115617000Y235014000D03*
X-113787000Y235014000D03*
X-113787000Y236114000D03*
%TD*%
%TO.C,D137*%
X-55017000Y175514000D03*
X-55017000Y174414000D03*
X-53187000Y174414000D03*
X-53187000Y175514000D03*
%TD*%
%TO.C,D133*%
X-158301000Y190924000D03*
X-158301000Y192024000D03*
X-160131000Y192024000D03*
X-160131000Y190924000D03*
%TD*%
%TO.C,D113*%
X-279501000Y221224000D03*
X-279501000Y222324000D03*
X-281331000Y222324000D03*
X-281331000Y221224000D03*
%TD*%
D12*
%TO.C,D32*%
X-64260000Y203260000D03*
X-64260000Y206560000D03*
%TD*%
D11*
%TO.C,D91*%
X-115617000Y266414000D03*
X-115617000Y265314000D03*
X-113787000Y265314000D03*
X-113787000Y266414000D03*
%TD*%
%TO.C,D84*%
X-188601000Y281824000D03*
X-188601000Y282924000D03*
X-190431000Y282924000D03*
X-190431000Y281824000D03*
%TD*%
D12*
%TO.C,D10*%
X-245840000Y263500000D03*
X-245840000Y266800000D03*
%TD*%
%TO.C,D45*%
X-155070000Y142330000D03*
X-155070000Y145630000D03*
%TD*%
%TO.C,D22*%
X-124500000Y232930000D03*
X-124500000Y236230000D03*
%TD*%
%TO.C,D64*%
X-64010000Y81700000D03*
X-64010000Y85000000D03*
%TD*%
D11*
%TO.C,D119*%
X-97701000Y221224000D03*
X-97701000Y222324000D03*
X-99531000Y222324000D03*
X-99531000Y221224000D03*
%TD*%
D12*
%TO.C,D27*%
X-215430000Y203290000D03*
X-215430000Y206590000D03*
%TD*%
D11*
%TO.C,D174*%
X-206517000Y114914000D03*
X-206517000Y113814000D03*
X-204687000Y113814000D03*
X-204687000Y114914000D03*
%TD*%
%TO.C,D112*%
X-267117000Y236114000D03*
X-267117000Y235014000D03*
X-265287000Y235014000D03*
X-265287000Y236114000D03*
%TD*%
%TO.C,D160*%
X-267117000Y145214000D03*
X-267117000Y144114000D03*
X-265287000Y144114000D03*
X-265287000Y145214000D03*
%TD*%
%TO.C,D153*%
X-55017000Y145214000D03*
X-55017000Y144114000D03*
X-53187000Y144114000D03*
X-53187000Y145214000D03*
%TD*%
%TO.C,D92*%
X-145917000Y266414000D03*
X-145917000Y265314000D03*
X-144087000Y265314000D03*
X-144087000Y266414000D03*
%TD*%
%TO.C,D94*%
X-206517000Y266414000D03*
X-206517000Y265314000D03*
X-204687000Y265314000D03*
X-204687000Y266414000D03*
%TD*%
%TO.C,D69*%
X-158301000Y312124000D03*
X-158301000Y313224000D03*
X-160131000Y313224000D03*
X-160131000Y312124000D03*
%TD*%
%TO.C,D188*%
X-145917000Y84614000D03*
X-145917000Y83514000D03*
X-144087000Y83514000D03*
X-144087000Y84614000D03*
%TD*%
D14*
%TO.C,C9*%
X-157400000Y300400000D03*
X-158360000Y300400000D03*
%TD*%
D11*
%TO.C,D72*%
X-67401000Y312124000D03*
X-67401000Y313224000D03*
X-69231000Y313224000D03*
X-69231000Y312124000D03*
%TD*%
D13*
%TO.C,D196*%
X-61500000Y199630000D03*
X-61500000Y196330000D03*
%TD*%
D11*
%TO.C,D130*%
X-249201000Y190924000D03*
X-249201000Y192024000D03*
X-251031000Y192024000D03*
X-251031000Y190924000D03*
%TD*%
D12*
%TO.C,D13*%
X-154880000Y263260000D03*
X-154880000Y266560000D03*
%TD*%
D11*
%TO.C,D132*%
X-188601000Y190924000D03*
X-188601000Y192024000D03*
X-190431000Y192024000D03*
X-190431000Y190924000D03*
%TD*%
%TO.C,D175*%
X-236817000Y114914000D03*
X-236817000Y113814000D03*
X-234987000Y113814000D03*
X-234987000Y114914000D03*
%TD*%
D12*
%TO.C,D47*%
X-94600000Y142300000D03*
X-94600000Y145600000D03*
%TD*%
D11*
%TO.C,D66*%
X-249201000Y312124000D03*
X-249201000Y313224000D03*
X-251031000Y313224000D03*
X-251031000Y312124000D03*
%TD*%
D12*
%TO.C,D5*%
X-156010000Y294170000D03*
X-156010000Y297470000D03*
%TD*%
D11*
%TO.C,D95*%
X-236817000Y266414000D03*
X-236817000Y265314000D03*
X-234987000Y265314000D03*
X-234987000Y266414000D03*
%TD*%
D15*
%TO.C,C6*%
X-163600000Y302000000D03*
X-163600000Y301040000D03*
%TD*%
D11*
%TO.C,D186*%
X-85317000Y84614000D03*
X-85317000Y83514000D03*
X-83487000Y83514000D03*
X-83487000Y84614000D03*
%TD*%
%TO.C,D77*%
X-176217000Y296714000D03*
X-176217000Y295614000D03*
X-174387000Y295614000D03*
X-174387000Y296714000D03*
%TD*%
%TO.C,D80*%
X-267117000Y296714000D03*
X-267117000Y295614000D03*
X-265287000Y295614000D03*
X-265287000Y296714000D03*
%TD*%
%TO.C,D129*%
X-279501000Y190924000D03*
X-279501000Y192024000D03*
X-281331000Y192024000D03*
X-281331000Y190924000D03*
%TD*%
%TO.C,D158*%
X-206517000Y145214000D03*
X-206517000Y144114000D03*
X-204687000Y144114000D03*
X-204687000Y145214000D03*
%TD*%
D16*
%TO.C,U1*%
X-167800000Y304737500D03*
X-169075000Y304737500D03*
X-167800000Y303462500D03*
X-169075000Y303462500D03*
D17*
X-165837500Y307537500D03*
X-166237500Y307537500D03*
X-166637500Y307537500D03*
X-167037500Y307537500D03*
X-167437500Y307537500D03*
X-167837500Y307537500D03*
X-168237500Y307537500D03*
X-168637500Y307537500D03*
X-169037500Y307537500D03*
X-169437500Y307537500D03*
X-169837500Y307537500D03*
X-170237500Y307537500D03*
X-170637500Y307537500D03*
X-171037500Y307537500D03*
D18*
X-171875000Y306700000D03*
X-171875000Y306300000D03*
X-171875000Y305900000D03*
X-171875000Y305500000D03*
X-171875000Y305100000D03*
X-171875000Y304700000D03*
X-171875000Y304300000D03*
X-171875000Y303900000D03*
X-171875000Y303500000D03*
X-171875000Y303100000D03*
X-171875000Y302700000D03*
X-171875000Y302300000D03*
X-171875000Y301900000D03*
X-171875000Y301500000D03*
D17*
X-171037500Y300662500D03*
X-170637500Y300662500D03*
X-170237500Y300662500D03*
X-169837500Y300662500D03*
X-169437500Y300662500D03*
X-169037500Y300662500D03*
X-168637500Y300662500D03*
X-168237500Y300662500D03*
X-167837500Y300662500D03*
X-167437500Y300662500D03*
X-167037500Y300662500D03*
X-166637500Y300662500D03*
X-166237500Y300662500D03*
X-165837500Y300662500D03*
D18*
X-165000000Y301500000D03*
X-165000000Y301900000D03*
X-165000000Y302300000D03*
X-165000000Y302700000D03*
X-165000000Y303100000D03*
X-165000000Y303500000D03*
X-165000000Y303900000D03*
X-165000000Y304300000D03*
X-165000000Y304700000D03*
X-165000000Y305100000D03*
X-165000000Y305500000D03*
X-165000000Y305900000D03*
X-165000000Y306300000D03*
X-165000000Y306700000D03*
%TD*%
D11*
%TO.C,D148*%
X-188601000Y160624000D03*
X-188601000Y161724000D03*
X-190431000Y161724000D03*
X-190431000Y160624000D03*
%TD*%
D12*
%TO.C,D39*%
X-94520000Y172450000D03*
X-94520000Y175750000D03*
%TD*%
D11*
%TO.C,D187*%
X-115617000Y84614000D03*
X-115617000Y83514000D03*
X-113787000Y83514000D03*
X-113787000Y84614000D03*
%TD*%
%TO.C,D110*%
X-206517000Y236114000D03*
X-206517000Y235014000D03*
X-204687000Y235014000D03*
X-204687000Y236114000D03*
%TD*%
D12*
%TO.C,D51*%
X-215690000Y112190000D03*
X-215690000Y115490000D03*
%TD*%
D11*
%TO.C,D177*%
X-279501000Y100024000D03*
X-279501000Y101124000D03*
X-281331000Y101124000D03*
X-281331000Y100024000D03*
%TD*%
%TO.C,D154*%
X-85317000Y145214000D03*
X-85317000Y144114000D03*
X-83487000Y144114000D03*
X-83487000Y145214000D03*
%TD*%
%TO.C,D100*%
X-188601000Y251524000D03*
X-188601000Y252624000D03*
X-190431000Y252624000D03*
X-190431000Y251524000D03*
%TD*%
D12*
%TO.C,D35*%
X-215490000Y172350000D03*
X-215490000Y175650000D03*
%TD*%
D11*
%TO.C,D134*%
X-128001000Y190924000D03*
X-128001000Y192024000D03*
X-129831000Y192024000D03*
X-129831000Y190924000D03*
%TD*%
%TO.C,D151*%
X-97701000Y160624000D03*
X-97701000Y161724000D03*
X-99531000Y161724000D03*
X-99531000Y160624000D03*
%TD*%
D12*
%TO.C,D42*%
X-245820000Y142280000D03*
X-245820000Y145580000D03*
%TD*%
D19*
%TO.C,R4*%
X-170400000Y313000000D03*
X-170400000Y311980000D03*
%TD*%
D12*
%TO.C,D19*%
X-215420000Y232900000D03*
X-215420000Y236200000D03*
%TD*%
%TO.C,D53*%
X-154990000Y111990000D03*
X-154990000Y115290000D03*
%TD*%
D11*
%TO.C,D126*%
X-206517000Y205814000D03*
X-206517000Y204714000D03*
X-204687000Y204714000D03*
X-204687000Y205814000D03*
%TD*%
D20*
%TO.C,C11*%
X-169460000Y308750000D03*
X-168500000Y308750000D03*
%TD*%
D11*
%TO.C,D139*%
X-115617000Y175514000D03*
X-115617000Y174414000D03*
X-113787000Y174414000D03*
X-113787000Y175514000D03*
%TD*%
%TO.C,D103*%
X-97701000Y251524000D03*
X-97701000Y252624000D03*
X-99531000Y252624000D03*
X-99531000Y251524000D03*
%TD*%
%TO.C,D106*%
X-85317000Y236114000D03*
X-85317000Y235014000D03*
X-83487000Y235014000D03*
X-83487000Y236114000D03*
%TD*%
D21*
%TO.C,Y1*%
X-177100000Y306100000D03*
X-175700000Y306100000D03*
X-175700000Y307200000D03*
X-177100000Y307200000D03*
%TD*%
D11*
%TO.C,D87*%
X-97701000Y281824000D03*
X-97701000Y282924000D03*
X-99531000Y282924000D03*
X-99531000Y281824000D03*
%TD*%
%TO.C,D184*%
X-67401000Y100024000D03*
X-67401000Y101124000D03*
X-69231000Y101124000D03*
X-69231000Y100024000D03*
%TD*%
D22*
%TO.C,R7*%
X-166510000Y314000000D03*
X-165490000Y314000000D03*
%TD*%
D11*
%TO.C,D65*%
X-279501000Y312124000D03*
X-279501000Y313224000D03*
X-281331000Y313224000D03*
X-281331000Y312124000D03*
%TD*%
D13*
%TO.C,D193*%
X-62490000Y294497500D03*
X-62490000Y291197500D03*
%TD*%
D11*
%TO.C,D99*%
X-218901000Y251524000D03*
X-218901000Y252624000D03*
X-220731000Y252624000D03*
X-220731000Y251524000D03*
%TD*%
D12*
%TO.C,D14*%
X-124650000Y263620000D03*
X-124650000Y266920000D03*
%TD*%
D11*
%TO.C,D165*%
X-158301000Y130324000D03*
X-158301000Y131424000D03*
X-160131000Y131424000D03*
X-160131000Y130324000D03*
%TD*%
D12*
%TO.C,D28*%
X-185210000Y202890000D03*
X-185210000Y206190000D03*
%TD*%
D11*
%TO.C,D156*%
X-145917000Y145214000D03*
X-145917000Y144114000D03*
X-144087000Y144114000D03*
X-144087000Y145214000D03*
%TD*%
%TO.C,D75*%
X-115617000Y296714000D03*
X-115617000Y295614000D03*
X-113787000Y295614000D03*
X-113787000Y296714000D03*
%TD*%
%TO.C,D164*%
X-188601000Y130324000D03*
X-188601000Y131424000D03*
X-190431000Y131424000D03*
X-190431000Y130324000D03*
%TD*%
D12*
%TO.C,D50*%
X-245940000Y111900000D03*
X-245940000Y115200000D03*
%TD*%
D20*
%TO.C,C12*%
X-165730000Y299500000D03*
X-164770000Y299500000D03*
%TD*%
D12*
%TO.C,D48*%
X-64280000Y142310000D03*
X-64280000Y145610000D03*
%TD*%
D11*
%TO.C,D168*%
X-67401000Y130324000D03*
X-67401000Y131424000D03*
X-69231000Y131424000D03*
X-69231000Y130324000D03*
%TD*%
%TO.C,D190*%
X-206517000Y84614000D03*
X-206517000Y83514000D03*
X-204687000Y83514000D03*
X-204687000Y84614000D03*
%TD*%
%TO.C,D82*%
X-249201000Y281824000D03*
X-249201000Y282924000D03*
X-251031000Y282924000D03*
X-251031000Y281824000D03*
%TD*%
%TO.C,D70*%
X-128001000Y312124000D03*
X-128001000Y313224000D03*
X-129831000Y313224000D03*
X-129831000Y312124000D03*
%TD*%
D13*
%TO.C,D195*%
X-61770000Y230490000D03*
X-61770000Y227190000D03*
%TD*%
D11*
%TO.C,D122*%
X-85317000Y205814000D03*
X-85317000Y204714000D03*
X-83487000Y204714000D03*
X-83487000Y205814000D03*
%TD*%
D12*
%TO.C,D44*%
X-185270000Y142410000D03*
X-185270000Y145710000D03*
%TD*%
D11*
%TO.C,D101*%
X-158301000Y251524000D03*
X-158301000Y252624000D03*
X-160131000Y252624000D03*
X-160131000Y251524000D03*
%TD*%
D12*
%TO.C,D52*%
X-185250000Y111992500D03*
X-185250000Y115292500D03*
%TD*%
%TO.C,D37*%
X-155040000Y172370000D03*
X-155040000Y175670000D03*
%TD*%
D11*
%TO.C,D185*%
X-55017000Y84614000D03*
X-55017000Y83514000D03*
X-53187000Y83514000D03*
X-53187000Y84614000D03*
%TD*%
D23*
%TO.C,J1*%
X-166290000Y293690000D03*
X-167290000Y295440000D03*
X-168290000Y293690000D03*
X-169290000Y295440000D03*
X-170290000Y293690000D03*
%TD*%
D11*
%TO.C,D163*%
X-218901000Y130324000D03*
X-218901000Y131424000D03*
X-220731000Y131424000D03*
X-220731000Y130324000D03*
%TD*%
%TO.C,D83*%
X-218901000Y281824000D03*
X-218901000Y282924000D03*
X-220731000Y282924000D03*
X-220731000Y281824000D03*
%TD*%
%TO.C,D150*%
X-128001000Y160624000D03*
X-128001000Y161724000D03*
X-129831000Y161724000D03*
X-129831000Y160624000D03*
%TD*%
D12*
%TO.C,D31*%
X-94330000Y203230000D03*
X-94330000Y206530000D03*
%TD*%
D24*
%TO.C,U3*%
X-166500000Y310600000D03*
X-166500000Y311550000D03*
X-166500000Y312500000D03*
X-168775000Y312500000D03*
X-168775000Y311550000D03*
X-168775000Y310600000D03*
%TD*%
D11*
%TO.C,D71*%
X-97701000Y312124000D03*
X-97701000Y313224000D03*
X-99531000Y313224000D03*
X-99531000Y312124000D03*
%TD*%
%TO.C,D182*%
X-128001000Y100024000D03*
X-128001000Y101124000D03*
X-129831000Y101124000D03*
X-129831000Y100024000D03*
%TD*%
%TO.C,D115*%
X-218901000Y221224000D03*
X-218901000Y222324000D03*
X-220731000Y222324000D03*
X-220731000Y221224000D03*
%TD*%
%TO.C,D81*%
X-279501000Y281824000D03*
X-279501000Y282924000D03*
X-281331000Y282924000D03*
X-281331000Y281824000D03*
%TD*%
%TO.C,D191*%
X-236817000Y84614000D03*
X-236817000Y83514000D03*
X-234987000Y83514000D03*
X-234987000Y84614000D03*
%TD*%
%TO.C,D135*%
X-97701000Y190924000D03*
X-97701000Y192024000D03*
X-99531000Y192024000D03*
X-99531000Y190924000D03*
%TD*%
%TO.C,D178*%
X-249201000Y100024000D03*
X-249201000Y101124000D03*
X-251031000Y101124000D03*
X-251031000Y100024000D03*
%TD*%
%TO.C,D98*%
X-249201000Y251524000D03*
X-249201000Y252624000D03*
X-251031000Y252624000D03*
X-251031000Y251524000D03*
%TD*%
D12*
%TO.C,D4*%
X-186860000Y293260000D03*
X-186860000Y296560000D03*
%TD*%
%TO.C,D2*%
X-245780000Y292930000D03*
X-245780000Y296230000D03*
%TD*%
%TO.C,D6*%
X-124600000Y294470000D03*
X-124600000Y297770000D03*
%TD*%
%TO.C,D12*%
X-185220000Y263670000D03*
X-185220000Y266970000D03*
%TD*%
D11*
%TO.C,D125*%
X-176217000Y205814000D03*
X-176217000Y204714000D03*
X-174387000Y204714000D03*
X-174387000Y205814000D03*
%TD*%
%TO.C,D170*%
X-85317000Y114914000D03*
X-85317000Y113814000D03*
X-83487000Y113814000D03*
X-83487000Y114914000D03*
%TD*%
D12*
%TO.C,D8*%
X-69600000Y295190000D03*
X-69600000Y298490000D03*
%TD*%
%TO.C,D7*%
X-100870000Y294950000D03*
X-100870000Y298250000D03*
%TD*%
%TO.C,D23*%
X-94310000Y233060000D03*
X-94310000Y236360000D03*
%TD*%
%TO.C,D46*%
X-124810000Y142350000D03*
X-124810000Y145650000D03*
%TD*%
D11*
%TO.C,D96*%
X-267117000Y266414000D03*
X-267117000Y265314000D03*
X-265287000Y265314000D03*
X-265287000Y266414000D03*
%TD*%
%TO.C,D173*%
X-176217000Y114914000D03*
X-176217000Y113814000D03*
X-174387000Y113814000D03*
X-174387000Y114914000D03*
%TD*%
D14*
%TO.C,C13*%
X-169500000Y299500000D03*
X-170460000Y299500000D03*
%TD*%
D11*
%TO.C,D167*%
X-97701000Y130324000D03*
X-97701000Y131424000D03*
X-99531000Y131424000D03*
X-99531000Y130324000D03*
%TD*%
%TO.C,D169*%
X-55017000Y114914000D03*
X-55017000Y113814000D03*
X-53187000Y113814000D03*
X-53187000Y114914000D03*
%TD*%
%TO.C,D179*%
X-218901000Y100024000D03*
X-218901000Y101124000D03*
X-220731000Y101124000D03*
X-220731000Y100024000D03*
%TD*%
D25*
%TO.C,R2*%
X-156400000Y308800000D03*
X-157420000Y308800000D03*
%TD*%
D11*
%TO.C,D105*%
X-55017000Y236114000D03*
X-55017000Y235014000D03*
X-53187000Y235014000D03*
X-53187000Y236114000D03*
%TD*%
D25*
%TO.C,R6*%
X-170000000Y314000000D03*
X-171020000Y314000000D03*
%TD*%
D11*
%TO.C,D108*%
X-145917000Y236114000D03*
X-145917000Y235014000D03*
X-144087000Y235014000D03*
X-144087000Y236114000D03*
%TD*%
D13*
%TO.C,D199*%
X-62140000Y109157500D03*
X-62140000Y105857500D03*
%TD*%
D12*
%TO.C,D1*%
X-276080000Y292930000D03*
X-276080000Y296230000D03*
%TD*%
D11*
%TO.C,D176*%
X-267117000Y114914000D03*
X-267117000Y113814000D03*
X-265287000Y113814000D03*
X-265287000Y114914000D03*
%TD*%
D26*
%TO.C,U4*%
X-176387500Y310650000D03*
X-176387500Y308750000D03*
X-174112500Y309700000D03*
%TD*%
D12*
%TO.C,D36*%
X-185430000Y172480000D03*
X-185430000Y175780000D03*
%TD*%
D11*
%TO.C,D79*%
X-236817000Y296714000D03*
X-236817000Y295614000D03*
X-234987000Y295614000D03*
X-234987000Y296714000D03*
%TD*%
%TO.C,D123*%
X-115617000Y205814000D03*
X-115617000Y204714000D03*
X-113787000Y204714000D03*
X-113787000Y205814000D03*
%TD*%
D20*
%TO.C,C1*%
X-178130000Y304650000D03*
X-177170000Y304650000D03*
%TD*%
D15*
%TO.C,C8*%
X-173800000Y303480000D03*
X-173800000Y302520000D03*
%TD*%
D11*
%TO.C,D85*%
X-158301000Y281824000D03*
X-158301000Y282924000D03*
X-160131000Y282924000D03*
X-160131000Y281824000D03*
%TD*%
%TO.C,D143*%
X-236817000Y175514000D03*
X-236817000Y174414000D03*
X-234987000Y174414000D03*
X-234987000Y175514000D03*
%TD*%
D27*
%TO.C,U2*%
X-157295000Y307345000D03*
X-158565000Y307345000D03*
X-159835000Y307345000D03*
X-161105000Y307345000D03*
X-161105000Y301655000D03*
X-159835000Y301655000D03*
X-158565000Y301655000D03*
X-157295000Y301655000D03*
%TD*%
D11*
%TO.C,D136*%
X-67401000Y190924000D03*
X-67401000Y192024000D03*
X-69231000Y192024000D03*
X-69231000Y190924000D03*
%TD*%
%TO.C,D166*%
X-128001000Y130324000D03*
X-128001000Y131424000D03*
X-129831000Y131424000D03*
X-129831000Y130324000D03*
%TD*%
D15*
%TO.C,C7*%
X-163600000Y303880000D03*
X-163600000Y302920000D03*
%TD*%
D11*
%TO.C,D142*%
X-206517000Y175514000D03*
X-206517000Y174414000D03*
X-204687000Y174414000D03*
X-204687000Y175514000D03*
%TD*%
%TO.C,D76*%
X-145917000Y296714000D03*
X-145917000Y295614000D03*
X-144087000Y295614000D03*
X-144087000Y296714000D03*
%TD*%
D28*
%TO.C,J2*%
X-165090000Y315828000D03*
X-165890000Y315828000D03*
X-166690000Y315828000D03*
X-167490000Y315828000D03*
X-167890000Y315828000D03*
X-168290000Y315828000D03*
X-169890000Y315828000D03*
X-170690000Y315828000D03*
X-171090000Y315828000D03*
X-170290000Y315828000D03*
X-169490000Y315828000D03*
X-169090000Y315828000D03*
X-168690000Y315828000D03*
X-167090000Y315828000D03*
X-166290000Y315828000D03*
X-165490000Y315828000D03*
D29*
X-164575000Y315828000D03*
X-171605000Y315828000D03*
%TD*%
D11*
%TO.C,D145*%
X-279501000Y160624000D03*
X-279501000Y161724000D03*
X-281331000Y161724000D03*
X-281331000Y160624000D03*
%TD*%
%TO.C,D78*%
X-206517000Y296714000D03*
X-206517000Y295614000D03*
X-204687000Y295614000D03*
X-204687000Y296714000D03*
%TD*%
%TO.C,D149*%
X-158301000Y160624000D03*
X-158301000Y161724000D03*
X-160131000Y161724000D03*
X-160131000Y160624000D03*
%TD*%
D14*
%TO.C,C4*%
X-173720000Y312000000D03*
X-174680000Y312000000D03*
%TD*%
D11*
%TO.C,D121*%
X-55017000Y205814000D03*
X-55017000Y204714000D03*
X-53187000Y204714000D03*
X-53187000Y205814000D03*
%TD*%
%TO.C,D116*%
X-188601000Y221224000D03*
X-188601000Y222324000D03*
X-190431000Y222324000D03*
X-190431000Y221224000D03*
%TD*%
D12*
%TO.C,D9*%
X-276080000Y262630000D03*
X-276080000Y265930000D03*
%TD*%
D11*
%TO.C,D146*%
X-249201000Y160624000D03*
X-249201000Y161724000D03*
X-251031000Y161724000D03*
X-251031000Y160624000D03*
%TD*%
%TO.C,D74*%
X-85317000Y296714000D03*
X-85317000Y295614000D03*
X-83487000Y295614000D03*
X-83487000Y296714000D03*
%TD*%
D12*
%TO.C,D17*%
X-276080000Y232330000D03*
X-276080000Y235630000D03*
%TD*%
D11*
%TO.C,D147*%
X-218901000Y160624000D03*
X-218901000Y161724000D03*
X-220731000Y161724000D03*
X-220731000Y160624000D03*
%TD*%
%TO.C,D86*%
X-128001000Y281824000D03*
X-128001000Y282924000D03*
X-129831000Y282924000D03*
X-129831000Y281824000D03*
%TD*%
D13*
%TO.C,D197*%
X-62120000Y167670000D03*
X-62120000Y164370000D03*
%TD*%
D12*
%TO.C,D21*%
X-154470000Y233050000D03*
X-154470000Y236350000D03*
%TD*%
%TO.C,D24*%
X-64070000Y232800000D03*
X-64070000Y236100000D03*
%TD*%
%TO.C,D15*%
X-94290000Y263300000D03*
X-94290000Y266600000D03*
%TD*%
D11*
%TO.C,D127*%
X-236817000Y205814000D03*
X-236817000Y204714000D03*
X-234987000Y204714000D03*
X-234987000Y205814000D03*
%TD*%
D19*
%TO.C,R1*%
X-174300000Y307210000D03*
X-174300000Y306190000D03*
%TD*%
D12*
%TO.C,D55*%
X-94430000Y112080000D03*
X-94430000Y115380000D03*
%TD*%
D11*
%TO.C,D183*%
X-97701000Y100024000D03*
X-97701000Y101124000D03*
X-99531000Y101124000D03*
X-99531000Y100024000D03*
%TD*%
%TO.C,D172*%
X-145917000Y114914000D03*
X-145917000Y113814000D03*
X-144087000Y113814000D03*
X-144087000Y114914000D03*
%TD*%
D12*
%TO.C,D34*%
X-245890000Y172530000D03*
X-245890000Y175830000D03*
%TD*%
D11*
%TO.C,D97*%
X-279501000Y251524000D03*
X-279501000Y252624000D03*
X-281331000Y252624000D03*
X-281331000Y251524000D03*
%TD*%
%TO.C,D111*%
X-236817000Y236114000D03*
X-236817000Y235014000D03*
X-234987000Y235014000D03*
X-234987000Y236114000D03*
%TD*%
%TO.C,D180*%
X-188601000Y100024000D03*
X-188601000Y101124000D03*
X-190431000Y101124000D03*
X-190431000Y100024000D03*
%TD*%
%TO.C,D93*%
X-176217000Y266414000D03*
X-176217000Y265314000D03*
X-174387000Y265314000D03*
X-174387000Y266414000D03*
%TD*%
%TO.C,D131*%
X-218901000Y190924000D03*
X-218901000Y192024000D03*
X-220731000Y192024000D03*
X-220731000Y190924000D03*
%TD*%
%TO.C,D159*%
X-236817000Y145214000D03*
X-236817000Y144114000D03*
X-234987000Y144114000D03*
X-234987000Y145214000D03*
%TD*%
%TO.C,D118*%
X-128001000Y221224000D03*
X-128001000Y222324000D03*
X-129831000Y222324000D03*
X-129831000Y221224000D03*
%TD*%
D12*
%TO.C,D58*%
X-245880000Y81590000D03*
X-245880000Y84890000D03*
%TD*%
D11*
%TO.C,D117*%
X-158301000Y221224000D03*
X-158301000Y222324000D03*
X-160131000Y222324000D03*
X-160131000Y221224000D03*
%TD*%
%TO.C,D157*%
X-176217000Y145214000D03*
X-176217000Y144114000D03*
X-174387000Y144114000D03*
X-174387000Y145214000D03*
%TD*%
%TO.C,D67*%
X-218901000Y312124000D03*
X-218901000Y313224000D03*
X-220731000Y313224000D03*
X-220731000Y312124000D03*
%TD*%
%TO.C,D189*%
X-176217000Y84614000D03*
X-176217000Y83514000D03*
X-174387000Y83514000D03*
X-174387000Y84614000D03*
%TD*%
%TO.C,D73*%
X-55017000Y296714000D03*
X-55017000Y295614000D03*
X-53187000Y295614000D03*
X-53187000Y296714000D03*
%TD*%
D19*
%TO.C,R3*%
X-170400000Y310510000D03*
X-170400000Y309490000D03*
%TD*%
D12*
%TO.C,D63*%
X-94300000Y81570000D03*
X-94300000Y84870000D03*
%TD*%
D19*
%TO.C,R5*%
X-164700000Y295510000D03*
X-164700000Y294490000D03*
%TD*%
D12*
%TO.C,D3*%
X-215480000Y292930000D03*
X-215480000Y296230000D03*
%TD*%
D11*
%TO.C,D171*%
X-115617000Y114914000D03*
X-115617000Y113814000D03*
X-113787000Y113814000D03*
X-113787000Y114914000D03*
%TD*%
%TO.C,D141*%
X-176217000Y175514000D03*
X-176217000Y174414000D03*
X-174387000Y174414000D03*
X-174387000Y175514000D03*
%TD*%
D30*
%TO.C,F1*%
X-172000000Y312500000D03*
X-172000000Y309700000D03*
%TD*%
D12*
%TO.C,D57*%
X-276320000Y81330000D03*
X-276320000Y84630000D03*
%TD*%
%TO.C,D54*%
X-124850000Y112120000D03*
X-124850000Y115420000D03*
%TD*%
%TO.C,D61*%
X-155000000Y81560000D03*
X-155000000Y84860000D03*
%TD*%
D14*
%TO.C,C10*%
X-165750000Y308750000D03*
X-166710000Y308750000D03*
%TD*%
D12*
%TO.C,D41*%
X-276080000Y141430000D03*
X-276080000Y144730000D03*
%TD*%
%TO.C,D43*%
X-215390000Y142520000D03*
X-215390000Y145820000D03*
%TD*%
D11*
%TO.C,D162*%
X-249201000Y130324000D03*
X-249201000Y131424000D03*
X-251031000Y131424000D03*
X-251031000Y130324000D03*
%TD*%
D12*
%TO.C,D33*%
X-276080000Y171730000D03*
X-276080000Y175030000D03*
%TD*%
D11*
%TO.C,D144*%
X-267117000Y175514000D03*
X-267117000Y174414000D03*
X-265287000Y174414000D03*
X-265287000Y175514000D03*
%TD*%
D12*
%TO.C,D56*%
X-64040000Y111910000D03*
X-64040000Y115210000D03*
%TD*%
D11*
%TO.C,D181*%
X-158301000Y100024000D03*
X-158301000Y101124000D03*
X-160131000Y101124000D03*
X-160131000Y100024000D03*
%TD*%
%TO.C,D102*%
X-128001000Y251524000D03*
X-128001000Y252624000D03*
X-129831000Y252624000D03*
X-129831000Y251524000D03*
%TD*%
%TO.C,D104*%
X-67401000Y251524000D03*
X-67401000Y252624000D03*
X-69231000Y252624000D03*
X-69231000Y251524000D03*
%TD*%
D31*
%TO.C,R8*%
X-163400000Y307700000D03*
X-163400000Y308720000D03*
%TD*%
D11*
%TO.C,D68*%
X-188601000Y312124000D03*
X-188601000Y313224000D03*
X-190431000Y313224000D03*
X-190431000Y312124000D03*
%TD*%
%TO.C,D155*%
X-115617000Y145214000D03*
X-115617000Y144114000D03*
X-113787000Y144114000D03*
X-113787000Y145214000D03*
%TD*%
D12*
%TO.C,D11*%
X-215490000Y263670000D03*
X-215490000Y266970000D03*
%TD*%
D11*
%TO.C,D124*%
X-145917000Y205814000D03*
X-145917000Y204714000D03*
X-144087000Y204714000D03*
X-144087000Y205814000D03*
%TD*%
D32*
%TO.C,C2*%
X-173300000Y306500000D03*
X-173300000Y307460000D03*
%TD*%
D11*
%TO.C,D138*%
X-85317000Y175514000D03*
X-85317000Y174414000D03*
X-83487000Y174414000D03*
X-83487000Y175514000D03*
%TD*%
%TO.C,D140*%
X-145917000Y175514000D03*
X-145917000Y174414000D03*
X-144087000Y174414000D03*
X-144087000Y175514000D03*
%TD*%
%TO.C,D128*%
X-267117000Y205814000D03*
X-267117000Y204714000D03*
X-265287000Y204714000D03*
X-265287000Y205814000D03*
%TD*%
D12*
%TO.C,D16*%
X-64030000Y263220000D03*
X-64030000Y266520000D03*
%TD*%
M02*
