%TF.GenerationSoftware,KiCad,Pcbnew,9.0.1*%
%TF.CreationDate,2025-05-31T16:07:01+01:00*%
%TF.ProjectId,Button MIDI Controller,42757474-6f6e-4204-9d49-444920436f6e,rev?*%
%TF.SameCoordinates,Original*%
%TF.FileFunction,Paste,Bot*%
%TF.FilePolarity,Positive*%
%FSLAX46Y46*%
G04 Gerber Fmt 4.6, Leading zero omitted, Abs format (unit mm)*
G04 Created by KiCad (PCBNEW 9.0.1) date 2025-05-31 16:07:01*
%MOMM*%
%LPD*%
G01*
G04 APERTURE LIST*
G04 Aperture macros list*
%AMRoundRect*
0 Rectangle with rounded corners*
0 $1 Rounding radius*
0 $2 $3 $4 $5 $6 $7 $8 $9 X,Y pos of 4 corners*
0 Add a 4 corners polygon primitive as box body*
4,1,4,$2,$3,$4,$5,$6,$7,$8,$9,$2,$3,0*
0 Add four circle primitives for the rounded corners*
1,1,$1+$1,$2,$3*
1,1,$1+$1,$4,$5*
1,1,$1+$1,$6,$7*
1,1,$1+$1,$8,$9*
0 Add four rect primitives between the rounded corners*
20,1,$1+$1,$2,$3,$4,$5,0*
20,1,$1+$1,$4,$5,$6,$7,0*
20,1,$1+$1,$6,$7,$8,$9,0*
20,1,$1+$1,$8,$9,$2,$3,0*%
G04 Aperture macros list end*
%ADD10C,0.010000*%
%ADD11RoundRect,0.250000X-0.625000X0.375000X-0.625000X-0.375000X0.625000X-0.375000X0.625000X0.375000X0*%
%ADD12RoundRect,0.225000X0.375000X-0.225000X0.375000X0.225000X-0.375000X0.225000X-0.375000X-0.225000X0*%
%ADD13RoundRect,0.225000X-0.375000X0.225000X-0.375000X-0.225000X0.375000X-0.225000X0.375000X0.225000X0*%
%ADD14RoundRect,0.140000X0.170000X-0.140000X0.170000X0.140000X-0.170000X0.140000X-0.170000X-0.140000X0*%
%ADD15RoundRect,0.140000X-0.170000X0.140000X-0.170000X-0.140000X0.170000X-0.140000X0.170000X0.140000X0*%
%ADD16RoundRect,0.250000X-0.292217X0.292217X-0.292217X-0.292217X0.292217X-0.292217X0.292217X0.292217X0*%
%ADD17RoundRect,0.050000X-0.050000X0.387500X-0.050000X-0.387500X0.050000X-0.387500X0.050000X0.387500X0*%
%ADD18RoundRect,0.050000X-0.387500X0.050000X-0.387500X-0.050000X0.387500X-0.050000X0.387500X0.050000X0*%
%ADD19RoundRect,0.135000X-0.135000X-0.185000X0.135000X-0.185000X0.135000X0.185000X-0.135000X0.185000X0*%
%ADD20R,0.800000X0.900000*%
%ADD21RoundRect,0.135000X-0.185000X0.135000X-0.185000X-0.135000X0.185000X-0.135000X0.185000X0.135000X0*%
%ADD22R,0.600000X1.750000*%
%ADD23RoundRect,0.140000X-0.140000X-0.170000X0.140000X-0.170000X0.140000X0.170000X-0.140000X0.170000X0*%
%ADD24RoundRect,0.150000X0.512500X0.150000X-0.512500X0.150000X-0.512500X-0.150000X0.512500X-0.150000X0*%
%ADD25RoundRect,0.140000X0.140000X0.170000X-0.140000X0.170000X-0.140000X-0.170000X0.140000X-0.170000X0*%
%ADD26RoundRect,0.055000X0.165000X-0.465000X0.165000X0.465000X-0.165000X0.465000X-0.165000X-0.465000X0*%
%ADD27RoundRect,0.070000X-0.070000X-0.345000X0.070000X-0.345000X0.070000X0.345000X-0.070000X0.345000X0*%
%ADD28RoundRect,0.112500X-0.112500X-0.302500X0.112500X-0.302500X0.112500X0.302500X-0.112500X0.302500X0*%
%ADD29RoundRect,0.135000X0.135000X0.185000X-0.135000X0.185000X-0.135000X-0.185000X0.135000X-0.185000X0*%
%ADD30RoundRect,0.135000X0.185000X-0.135000X0.185000X0.135000X-0.185000X0.135000X-0.185000X-0.135000X0*%
G04 APERTURE END LIST*
D10*
%TO.C,U2*%
X-133945800Y298970200D02*
X-136665800Y298970200D01*
X-136665800Y301130200D01*
X-133945800Y301130200D01*
X-133945800Y298970200D01*
G36*
X-133945800Y298970200D02*
G01*
X-136665800Y298970200D01*
X-136665800Y301130200D01*
X-133945800Y301130200D01*
X-133945800Y298970200D01*
G37*
%TD*%
D11*
%TO.C,F1*%
X-171700000Y309790000D03*
X-171700000Y312590000D03*
%TD*%
D12*
%TO.C,D40*%
X-63970000Y172720000D03*
X-63970000Y176020000D03*
%TD*%
D13*
%TO.C,D198*%
X-62090000Y139230000D03*
X-62090000Y135930000D03*
%TD*%
D12*
%TO.C,D30*%
X-124690000Y202880000D03*
X-124690000Y206180000D03*
%TD*%
%TO.C,D20*%
X-185210000Y232710000D03*
X-185210000Y236010000D03*
%TD*%
%TO.C,D18*%
X-245820000Y233800000D03*
X-245820000Y237100000D03*
%TD*%
%TO.C,D26*%
X-245810000Y202780000D03*
X-245810000Y206080000D03*
%TD*%
%TO.C,D49*%
X-276080000Y111130000D03*
X-276080000Y114430000D03*
%TD*%
%TO.C,D38*%
X-124620000Y172620000D03*
X-124620000Y175920000D03*
%TD*%
D13*
%TO.C,D194*%
X-62320000Y261357500D03*
X-62320000Y258057500D03*
%TD*%
D12*
%TO.C,D29*%
X-154950000Y202910000D03*
X-154950000Y206210000D03*
%TD*%
%TO.C,D59*%
X-215600000Y81540000D03*
X-215600000Y84840000D03*
%TD*%
%TO.C,D62*%
X-124670000Y81500000D03*
X-124670000Y84800000D03*
%TD*%
%TO.C,D60*%
X-185250000Y81630000D03*
X-185250000Y84930000D03*
%TD*%
%TO.C,D25*%
X-276080000Y202030000D03*
X-276080000Y205330000D03*
%TD*%
%TO.C,D32*%
X-64260000Y203260000D03*
X-64260000Y206560000D03*
%TD*%
%TO.C,D10*%
X-245840000Y263500000D03*
X-245840000Y266800000D03*
%TD*%
%TO.C,D45*%
X-155070000Y142330000D03*
X-155070000Y145630000D03*
%TD*%
%TO.C,D22*%
X-124500000Y232930000D03*
X-124500000Y236230000D03*
%TD*%
%TO.C,D64*%
X-64010000Y81700000D03*
X-64010000Y85000000D03*
%TD*%
%TO.C,D27*%
X-215430000Y203290000D03*
X-215430000Y206590000D03*
%TD*%
D14*
%TO.C,C9*%
X-149860000Y314480000D03*
X-149860000Y315440000D03*
%TD*%
D13*
%TO.C,D196*%
X-61500000Y199630000D03*
X-61500000Y196330000D03*
%TD*%
D12*
%TO.C,D13*%
X-154880000Y263260000D03*
X-154880000Y266560000D03*
%TD*%
%TO.C,D47*%
X-94600000Y142300000D03*
X-94600000Y145600000D03*
%TD*%
%TO.C,D5*%
X-156010000Y294170000D03*
X-156010000Y297470000D03*
%TD*%
D15*
%TO.C,C6*%
X-142240000Y304772000D03*
X-142240000Y303812000D03*
%TD*%
D16*
%TO.C,U1*%
X-135506500Y310263500D03*
X-136781500Y310263500D03*
X-135506500Y308988500D03*
X-136781500Y308988500D03*
D17*
X-138744000Y313063500D03*
X-138344000Y313063500D03*
X-137944000Y313063500D03*
X-137544000Y313063500D03*
X-137144000Y313063500D03*
X-136744000Y313063500D03*
X-136344000Y313063500D03*
X-135944000Y313063500D03*
X-135544000Y313063500D03*
X-135144000Y313063500D03*
X-134744000Y313063500D03*
X-134344000Y313063500D03*
X-133944000Y313063500D03*
X-133544000Y313063500D03*
D18*
X-132706500Y312226000D03*
X-132706500Y311826000D03*
X-132706500Y311426000D03*
X-132706500Y311026000D03*
X-132706500Y310626000D03*
X-132706500Y310226000D03*
X-132706500Y309826000D03*
X-132706500Y309426000D03*
X-132706500Y309026000D03*
X-132706500Y308626000D03*
X-132706500Y308226000D03*
X-132706500Y307826000D03*
X-132706500Y307426000D03*
X-132706500Y307026000D03*
D17*
X-133544000Y306188500D03*
X-133944000Y306188500D03*
X-134344000Y306188500D03*
X-134744000Y306188500D03*
X-135144000Y306188500D03*
X-135544000Y306188500D03*
X-135944000Y306188500D03*
X-136344000Y306188500D03*
X-136744000Y306188500D03*
X-137144000Y306188500D03*
X-137544000Y306188500D03*
X-137944000Y306188500D03*
X-138344000Y306188500D03*
X-138744000Y306188500D03*
D18*
X-139581500Y307026000D03*
X-139581500Y307426000D03*
X-139581500Y307826000D03*
X-139581500Y308226000D03*
X-139581500Y308626000D03*
X-139581500Y309026000D03*
X-139581500Y309426000D03*
X-139581500Y309826000D03*
X-139581500Y310226000D03*
X-139581500Y310626000D03*
X-139581500Y311026000D03*
X-139581500Y311426000D03*
X-139581500Y311826000D03*
X-139581500Y312226000D03*
%TD*%
D12*
%TO.C,D39*%
X-94520000Y172450000D03*
X-94520000Y175750000D03*
%TD*%
%TO.C,D51*%
X-215690000Y112190000D03*
X-215690000Y115490000D03*
%TD*%
%TO.C,D35*%
X-215490000Y172350000D03*
X-215490000Y175650000D03*
%TD*%
%TO.C,D42*%
X-245820000Y142280000D03*
X-245820000Y145580000D03*
%TD*%
D19*
%TO.C,R4*%
X-143258000Y307594000D03*
X-142238000Y307594000D03*
%TD*%
D12*
%TO.C,D19*%
X-215420000Y232900000D03*
X-215420000Y236200000D03*
%TD*%
%TO.C,D53*%
X-154990000Y111990000D03*
X-154990000Y115290000D03*
%TD*%
D14*
%TO.C,C11*%
X-147320000Y314480000D03*
X-147320000Y315440000D03*
%TD*%
%TO.C,C15*%
X-142240000Y314480000D03*
X-142240000Y315440000D03*
%TD*%
D20*
%TO.C,Y1*%
X-129074000Y307910000D03*
X-129074000Y309310000D03*
X-127974000Y309310000D03*
X-127974000Y307910000D03*
%TD*%
D21*
%TO.C,R7*%
X-169672000Y312676000D03*
X-169672000Y311656000D03*
%TD*%
D13*
%TO.C,D193*%
X-62490000Y294497500D03*
X-62490000Y291197500D03*
%TD*%
D12*
%TO.C,D14*%
X-124650000Y263620000D03*
X-124650000Y266920000D03*
%TD*%
%TO.C,D28*%
X-185210000Y202890000D03*
X-185210000Y206190000D03*
%TD*%
%TO.C,D50*%
X-245940000Y111900000D03*
X-245940000Y115200000D03*
%TD*%
D14*
%TO.C,C12*%
X-146050000Y314480000D03*
X-146050000Y315440000D03*
%TD*%
D12*
%TO.C,D48*%
X-64280000Y142310000D03*
X-64280000Y145610000D03*
%TD*%
D13*
%TO.C,D195*%
X-61770000Y230490000D03*
X-61770000Y227190000D03*
%TD*%
D14*
%TO.C,C16*%
X-140970000Y314480000D03*
X-140970000Y315440000D03*
%TD*%
D12*
%TO.C,D44*%
X-185270000Y142410000D03*
X-185270000Y145710000D03*
%TD*%
%TO.C,D52*%
X-185250000Y111992500D03*
X-185250000Y115292500D03*
%TD*%
%TO.C,D37*%
X-155040000Y172370000D03*
X-155040000Y175670000D03*
%TD*%
D22*
%TO.C,J1*%
X-123793000Y315990000D03*
X-122793000Y317740000D03*
X-121793000Y315990000D03*
X-120793000Y317740000D03*
X-119793000Y315990000D03*
%TD*%
D23*
%TO.C,C3*%
X-131798000Y303072800D03*
X-130838000Y303072800D03*
%TD*%
D12*
%TO.C,D31*%
X-94330000Y203230000D03*
X-94330000Y206530000D03*
%TD*%
D24*
%TO.C,U3*%
X-167010500Y308290000D03*
X-167010500Y307340000D03*
X-167010500Y306390000D03*
X-169285500Y306390000D03*
X-169285500Y307340000D03*
X-169285500Y308290000D03*
%TD*%
D12*
%TO.C,D4*%
X-186860000Y293260000D03*
X-186860000Y296560000D03*
%TD*%
%TO.C,D2*%
X-245780000Y292930000D03*
X-245780000Y296230000D03*
%TD*%
%TO.C,D6*%
X-124600000Y294470000D03*
X-124600000Y297770000D03*
%TD*%
%TO.C,D12*%
X-185220000Y263670000D03*
X-185220000Y266970000D03*
%TD*%
%TO.C,D8*%
X-69600000Y295190000D03*
X-69600000Y298490000D03*
%TD*%
%TO.C,D7*%
X-100870000Y294950000D03*
X-100870000Y298250000D03*
%TD*%
%TO.C,D23*%
X-94310000Y233060000D03*
X-94310000Y236360000D03*
%TD*%
%TO.C,D46*%
X-124810000Y142350000D03*
X-124810000Y145650000D03*
%TD*%
D14*
%TO.C,C13*%
X-144780000Y314480000D03*
X-144780000Y315440000D03*
%TD*%
D19*
%TO.C,R2*%
X-146356800Y299593000D03*
X-145336800Y299593000D03*
%TD*%
D21*
%TO.C,R6*%
X-166878000Y312676000D03*
X-166878000Y311656000D03*
%TD*%
D13*
%TO.C,D199*%
X-62140000Y109157500D03*
X-62140000Y105857500D03*
%TD*%
D12*
%TO.C,D1*%
X-276080000Y292930000D03*
X-276080000Y296230000D03*
%TD*%
D24*
%TO.C,U4*%
X-145166500Y320482000D03*
X-145166500Y318582000D03*
X-147441500Y319532000D03*
%TD*%
D12*
%TO.C,D36*%
X-185430000Y172480000D03*
X-185430000Y175780000D03*
%TD*%
D25*
%TO.C,C1*%
X-128044000Y306578000D03*
X-129004000Y306578000D03*
%TD*%
D15*
%TO.C,C8*%
X-139700000Y304772000D03*
X-139700000Y303812000D03*
%TD*%
D26*
%TO.C,U2*%
X-133400800Y297205200D03*
X-134670800Y297205200D03*
X-135940800Y297205200D03*
X-137210800Y297205200D03*
X-137210800Y302895200D03*
X-135940800Y302895200D03*
X-134670800Y302895200D03*
X-133400800Y302895200D03*
%TD*%
D15*
%TO.C,C7*%
X-140970000Y304772000D03*
X-140970000Y303812000D03*
%TD*%
D27*
%TO.C,J2*%
X-171090000Y315828000D03*
X-170290000Y315828000D03*
X-169490000Y315828000D03*
X-168690000Y315828000D03*
X-168290000Y315828000D03*
X-167890000Y315828000D03*
X-166290000Y315828000D03*
X-165490000Y315828000D03*
X-165090000Y315828000D03*
X-165890000Y315828000D03*
X-166690000Y315828000D03*
X-167090000Y315828000D03*
X-167490000Y315828000D03*
X-169090000Y315828000D03*
X-169890000Y315828000D03*
X-170690000Y315828000D03*
D28*
X-171605000Y315828000D03*
X-164575000Y315828000D03*
%TD*%
D14*
%TO.C,C4*%
X-150114000Y319560000D03*
X-150114000Y320520000D03*
%TD*%
%TO.C,C14*%
X-143510000Y314480000D03*
X-143510000Y315440000D03*
%TD*%
D12*
%TO.C,D9*%
X-276080000Y262630000D03*
X-276080000Y265930000D03*
%TD*%
%TO.C,D17*%
X-276080000Y232330000D03*
X-276080000Y235630000D03*
%TD*%
D13*
%TO.C,D197*%
X-62120000Y167670000D03*
X-62120000Y164370000D03*
%TD*%
D12*
%TO.C,D21*%
X-154470000Y233050000D03*
X-154470000Y236350000D03*
%TD*%
%TO.C,D24*%
X-64070000Y232800000D03*
X-64070000Y236100000D03*
%TD*%
%TO.C,D15*%
X-94290000Y263300000D03*
X-94290000Y266600000D03*
%TD*%
D29*
%TO.C,R1*%
X-128014000Y305308000D03*
X-129034000Y305308000D03*
%TD*%
D12*
%TO.C,D55*%
X-94430000Y112080000D03*
X-94430000Y115380000D03*
%TD*%
%TO.C,D34*%
X-245890000Y172530000D03*
X-245890000Y175830000D03*
%TD*%
%TO.C,D58*%
X-245880000Y81590000D03*
X-245880000Y84890000D03*
%TD*%
D14*
%TO.C,C5*%
X-142748000Y318544000D03*
X-142748000Y319504000D03*
%TD*%
D19*
%TO.C,R3*%
X-143258000Y309372000D03*
X-142238000Y309372000D03*
%TD*%
D12*
%TO.C,D63*%
X-94300000Y81570000D03*
X-94300000Y84870000D03*
%TD*%
D19*
%TO.C,R5*%
X-131701000Y304723800D03*
X-130681000Y304723800D03*
%TD*%
D12*
%TO.C,D3*%
X-215480000Y292930000D03*
X-215480000Y296230000D03*
%TD*%
%TO.C,D57*%
X-276320000Y81330000D03*
X-276320000Y84630000D03*
%TD*%
%TO.C,D54*%
X-124850000Y112120000D03*
X-124850000Y115420000D03*
%TD*%
%TO.C,D61*%
X-155000000Y81560000D03*
X-155000000Y84860000D03*
%TD*%
D14*
%TO.C,C17*%
X-139700000Y314480000D03*
X-139700000Y315440000D03*
%TD*%
%TO.C,C10*%
X-148590000Y314480000D03*
X-148590000Y315440000D03*
%TD*%
D12*
%TO.C,D41*%
X-276080000Y141430000D03*
X-276080000Y144730000D03*
%TD*%
%TO.C,D43*%
X-215390000Y142520000D03*
X-215390000Y145820000D03*
%TD*%
%TO.C,D33*%
X-276080000Y171730000D03*
X-276080000Y175030000D03*
%TD*%
%TO.C,D56*%
X-64040000Y111910000D03*
X-64040000Y115210000D03*
%TD*%
D30*
%TO.C,R8*%
X-138430000Y316736000D03*
X-138430000Y317756000D03*
%TD*%
D12*
%TO.C,D11*%
X-215490000Y263670000D03*
X-215490000Y266970000D03*
%TD*%
D23*
%TO.C,C2*%
X-129004000Y310642000D03*
X-128044000Y310642000D03*
%TD*%
D12*
%TO.C,D16*%
X-64030000Y263220000D03*
X-64030000Y266520000D03*
%TD*%
M02*
